<svg xmlns="http://www.w3.org/2000/svg" xmlns:xlink="http://www.w3.org/1999/xlink" width="500" zoomAndPan="magnify" viewBox="0 0 375 225" height="300" preserveAspectRatio="xMidYMid meet" version="1.0"><defs><g/><clipPath id="11fbc6b215"><path d="M 0 23.246094 L 375 23.246094 L 375 209.65625 L 0 209.65625 Z M 0 23.246094 " clip-rule="nonzero"/></clipPath><clipPath id="a92297ad0b"><path d="M 0.00390625 23.246094 L 374.996094 23.246094 L 374.996094 209.65625 L 0.00390625 209.65625 Z M 0.00390625 23.246094 " clip-rule="nonzero"/></clipPath></defs><g clip-path="url(#11fbc6b215)"><path fill="#ffffff" d="M 0 23.246094 L 375.007812 23.246094 L 375.007812 209.65625 L 0 209.65625 Z M 0 23.246094 " fill-opacity="1" fill-rule="nonzero"/></g><g clip-path="url(#a92297ad0b)"><path stroke-linecap="butt" transform="matrix(0.75, 0, 0, 0.75, 0.00232876, 23.244155)" fill="none" stroke-linejoin="miter" d="M 0.00210331 0.00258474 L 499.991739 0.00258474 L 499.991739 248.544278 L 0.00210331 248.544278 Z M 0.00210331 0.00258474 " stroke="#000000" stroke-width="18" stroke-opacity="1" stroke-miterlimit="4"/></g><g fill="#000000" fill-opacity="1"><g transform="translate(39.846503, 173.394181)"><g><path d="M 10.65625 -121.375 L 34.9375 -121.375 L 34.9375 -52.484375 L 36.078125 -52.484375 L 47.40625 -65.765625 L 65.109375 -84.625 L 93 -84.625 L 60.1875 -51.171875 L 96.4375 0 L 67.578125 0 L 42.96875 -37.390625 L 34.9375 -29.359375 L 34.9375 0 L 10.65625 0 Z M 10.65625 -121.375 "/></g></g></g><g fill="#000000" fill-opacity="1"><g transform="translate(138.25423, 173.394181)"><g><path d="M 51.5 1.96875 C 37.28125 1.96875 26.507812 -1.96875 19.1875 -9.84375 C 11.863281 -17.71875 8.203125 -28.429688 8.203125 -41.984375 C 8.203125 -48.878906 9.15625 -55.085938 11.0625 -60.609375 C 12.976562 -66.128906 15.710938 -70.828125 19.265625 -74.703125 C 22.828125 -78.585938 27.148438 -81.539062 32.234375 -83.5625 C 37.316406 -85.582031 43.03125 -86.59375 49.375 -86.59375 C 55.707031 -86.59375 61.390625 -85.582031 66.421875 -83.5625 C 71.453125 -81.539062 75.71875 -78.671875 79.21875 -74.953125 C 82.71875 -71.234375 85.421875 -66.722656 87.328125 -61.421875 C 89.242188 -56.117188 90.203125 -50.1875 90.203125 -43.625 L 90.203125 -36.40625 L 32.3125 -36.40625 L 32.3125 -34.9375 C 32.3125 -29.46875 34.003906 -25.066406 37.390625 -21.734375 C 40.785156 -18.398438 45.765625 -16.734375 52.328125 -16.734375 C 57.347656 -16.734375 61.660156 -17.6875 65.265625 -19.59375 C 68.878906 -21.507812 72 -24.054688 74.625 -27.234375 L 87.75 -12.953125 C 84.46875 -8.910156 79.875 -5.410156 73.96875 -2.453125 C 68.0625 0.492188 60.570312 1.96875 51.5 1.96875 Z M 49.53125 -69.21875 C 44.28125 -69.21875 40.097656 -67.601562 36.984375 -64.375 C 33.867188 -61.144531 32.3125 -56.800781 32.3125 -51.34375 L 32.3125 -50.03125 L 66.421875 -50.03125 L 66.421875 -51.34375 C 66.421875 -56.914062 64.914062 -61.285156 61.90625 -64.453125 C 58.90625 -67.628906 54.78125 -69.21875 49.53125 -69.21875 Z M 49.53125 -69.21875 "/></g></g></g><g fill="#000000" fill-opacity="1"><g transform="translate(236.661958, 173.394181)"><g><path d="M 10.65625 -121.375 L 34.9375 -121.375 L 34.9375 -52.484375 L 36.078125 -52.484375 L 47.40625 -65.765625 L 65.109375 -84.625 L 93 -84.625 L 60.1875 -51.171875 L 96.4375 0 L 67.578125 0 L 42.96875 -37.390625 L 34.9375 -29.359375 L 34.9375 0 L 10.65625 0 Z M 10.65625 -121.375 "/></g></g></g></svg>