<svg xmlns="http://www.w3.org/2000/svg" xmlns:xlink="http://www.w3.org/1999/xlink" width="300" zoomAndPan="magnify" viewBox="0 0 224.87999 74.999997" height="100" preserveAspectRatio="xMidYMid meet" version="1.0"><defs><clipPath id="2830fb89ac"><path d="M 19.425781 1.613281 L 49.3125 1.613281 L 49.3125 72.847656 L 19.425781 72.847656 Z M 19.425781 1.613281 " clip-rule="nonzero"/></clipPath><clipPath id="bac78e8e4c"><path d="M 47.75 5.417969 C 47.148438 13.363281 45.652344 14.9375 45.726562 16.359375 C 45.800781 17.636719 47 18.085938 47.523438 19.808594 C 48.648438 24.007812 49.097656 34.875 49.25 42.371094 C 49.324219 49.71875 48.800781 59.089844 48.050781 64.335938 C 47.597656 67.335938 47.375 69.957031 46.324219 71.308594 C 45.574219 72.207031 44.527344 72.65625 43.550781 72.730469 C 42.351562 72.804688 40.554688 72.132812 39.730469 71.308594 C 38.980469 70.558594 39.203125 69.359375 38.605469 68.382812 C 37.78125 67.109375 36.503906 66.433594 35.007812 64.484375 C 31.484375 59.914062 19.339844 44.621094 19.488281 39.523438 C 19.566406 37.273438 21.589844 35.101562 23.011719 34.652344 C 24.210938 34.277344 25.9375 35.101562 27.136719 36.074219 C 28.785156 37.425781 30.808594 41.324219 31.035156 43.195312 C 31.183594 44.246094 30.882812 45.144531 30.433594 45.894531 C 29.910156 46.644531 29.085938 47.394531 28.183594 47.695312 C 27.359375 48.070312 26.3125 48.144531 25.410156 47.84375 C 24.285156 47.394531 22.789062 46.121094 22.414062 44.921875 C 22.039062 43.722656 22.414062 41.773438 23.164062 40.796875 C 23.914062 39.898438 25.710938 39.074219 26.984375 39.148438 C 28.183594 39.222656 29.835938 40.273438 30.507812 41.324219 C 31.109375 42.449219 31.183594 44.394531 30.660156 45.519531 C 30.132812 46.570312 28.410156 47.695312 27.285156 47.996094 C 26.386719 48.144531 25.261719 47.917969 24.511719 47.46875 C 23.6875 47.019531 22.863281 46.121094 22.5625 45.371094 C 22.339844 44.695312 22.261719 43.871094 22.710938 43.273438 C 23.238281 42.523438 25.335938 42.523438 26.386719 41.847656 C 27.433594 41.171875 28.109375 39.148438 29.085938 39.300781 C 30.507812 39.375 33.058594 43.945312 33.957031 45.96875 C 34.554688 47.394531 34.183594 48.820312 34.855469 49.941406 C 35.53125 51.066406 37.03125 51.292969 38.304688 52.71875 C 40.476562 55.191406 44.078125 61.710938 45.652344 64.636719 C 46.476562 66.210938 47.375 67.183594 47.449219 68.382812 C 47.449219 69.359375 46.925781 70.558594 46.324219 71.308594 C 45.652344 71.980469 44.453125 72.582031 43.550781 72.730469 C 42.800781 72.882812 42.128906 72.804688 41.453125 72.507812 C 40.476562 71.980469 39.355469 71.15625 38.753906 69.433594 C 37.179688 64.933594 40.628906 50.84375 40.628906 41.699219 C 40.703125 32.851562 38.753906 22.207031 38.902344 15.3125 C 39.054688 10.890625 39.578125 6.390625 40.253906 4.441406 C 40.476562 3.617188 40.703125 3.242188 41.078125 2.792969 C 41.453125 2.34375 41.976562 1.96875 42.578125 1.820312 C 43.328125 1.59375 44.527344 1.519531 45.351562 1.820312 C 46.101562 2.117188 46.925781 2.945312 47.300781 3.617188 C 47.675781 4.144531 47.75 5.417969 47.75 5.417969 " clip-rule="nonzero"/></clipPath><clipPath id="f958d89045"><path d="M 39.363281 35.5625 L 72.023438 35.5625 L 72.023438 70.929688 L 39.363281 70.929688 Z M 39.363281 35.5625 " clip-rule="nonzero"/></clipPath><clipPath id="ac47381c4b"><path d="M 40.777344 64.1875 C 54.722656 50.617188 61.765625 39.375 64.765625 36.976562 C 65.816406 36.152344 66.339844 35.851562 67.164062 35.699219 C 67.988281 35.625 69.113281 35.699219 69.789062 36.226562 C 70.761719 36.824219 71.8125 38.472656 71.960938 39.523438 C 72.113281 40.421875 71.886719 41.398438 71.363281 42.148438 C 70.6875 43.046875 68.964844 43.945312 67.914062 44.097656 C 67.015625 44.171875 66.039062 43.871094 65.363281 43.347656 C 64.539062 42.597656 63.640625 40.875 63.566406 39.824219 C 63.492188 38.925781 63.867188 37.949219 64.464844 37.273438 C 65.214844 36.449219 67.015625 35.699219 68.0625 35.699219 C 68.964844 35.699219 69.9375 36.226562 70.539062 36.75 C 71.210938 37.351562 71.738281 38.25 71.886719 39.074219 C 72.035156 39.898438 72.035156 40.574219 71.585938 41.773438 C 70.085938 45.144531 61.84375 54.816406 57.417969 59.464844 C 54.195312 62.988281 50.449219 65.984375 48.199219 67.933594 C 46.925781 69.058594 46.25 70.109375 45.050781 70.558594 C 44 70.933594 42.425781 71.007812 41.527344 70.558594 C 40.554688 70.03125 39.578125 68.609375 39.503906 67.558594 C 39.355469 66.507812 40.777344 64.1875 40.777344 64.1875 " clip-rule="nonzero"/></clipPath><clipPath id="db296ed984"><path d="M 85.378906 1.144531 L 141.898438 1.144531 L 141.898438 74.472656 L 85.378906 74.472656 Z M 85.378906 1.144531 " clip-rule="nonzero"/></clipPath><clipPath id="680ce696fa"><path d="M 115.8125 4.742188 C 118.8125 37.875 119.410156 63.886719 118.363281 69.808594 C 118.0625 71.457031 117.910156 72.054688 117.238281 72.804688 C 116.5625 73.480469 115.4375 74.15625 114.464844 74.230469 C 113.265625 74.304688 111.390625 73.628906 110.566406 72.804688 C 109.890625 72.054688 110.117188 70.632812 109.441406 69.808594 C 108.691406 68.910156 107.269531 68.757812 105.992188 67.707031 C 104.121094 66.210938 101.871094 63.4375 99.695312 60.8125 C 97.148438 57.738281 93.851562 53.464844 91.601562 50.019531 C 89.800781 47.246094 86.878906 44.097656 87.328125 41.921875 C 87.703125 39.972656 91.226562 37.5 92.875 37.351562 C 94.074219 37.273438 95.199219 38.472656 96.171875 39.300781 C 97.148438 40.046875 97.746094 40.722656 98.871094 42.148438 C 101.570312 45.519531 106.96875 55.941406 110.417969 60.0625 C 112.515625 62.613281 116.488281 64.335938 116.339844 65.535156 C 116.1875 66.359375 113.039062 67.558594 112.816406 67.257812 C 112.441406 66.734375 118.960938 60.289062 122.109375 56.015625 C 125.933594 50.769531 130.878906 40.648438 134.027344 37.875 C 135.378906 36.75 136.578125 36.226562 137.703125 36.226562 C 138.601562 36.226562 139.574219 36.601562 140.25 37.273438 C 141.074219 38.023438 141.75 39.898438 141.75 41.023438 C 141.75 41.921875 141.148438 42.898438 140.550781 43.496094 C 139.949219 44.171875 138.976562 44.621094 138.152344 44.769531 C 137.25 44.921875 136.203125 44.769531 135.453125 44.320312 C 134.628906 43.945312 133.878906 43.195312 133.503906 42.296875 C 133.128906 41.246094 133.128906 39.300781 133.730469 38.324219 C 134.402344 37.273438 136.128906 36.375 137.25 36.226562 C 138.152344 36.074219 139.199219 36.449219 139.875 36.976562 C 140.625 37.425781 141.300781 38.324219 141.523438 39.148438 C 141.824219 39.972656 141.898438 40.722656 141.523438 41.921875 C 140.550781 45.222656 134.703125 53.242188 131.105469 58.339844 C 127.730469 63.0625 123.308594 68.984375 120.535156 71.53125 C 119.1875 72.882812 118.4375 73.78125 117.011719 74.003906 C 115.363281 74.378906 113.113281 73.707031 111.242188 72.730469 C 109.066406 71.605469 107.417969 69.882812 104.945312 67.183594 C 100.222656 62.011719 89.578125 47.46875 86.953125 42.296875 C 85.902344 40.199219 85.15625 39 85.453125 37.574219 C 85.679688 36.152344 87.328125 34.203125 88.675781 33.828125 C 90.027344 33.527344 92.125 34.5 93.550781 35.777344 C 95.273438 37.273438 95.949219 40.648438 97.671875 43.347656 C 99.695312 46.570312 102.320312 50.019531 105.167969 53.542969 C 108.46875 57.589844 114.464844 63.0625 116.488281 66.132812 C 117.539062 67.632812 118.285156 68.683594 118.363281 69.808594 C 118.363281 70.855469 117.988281 72.054688 117.238281 72.804688 C 116.414062 73.628906 114.539062 74.304688 113.339844 74.230469 C 112.363281 74.15625 111.242188 73.480469 110.566406 72.804688 C 109.964844 72.054688 109.367188 70.632812 109.441406 69.808594 C 109.515625 69.207031 110.417969 68.910156 110.566406 68.160156 C 110.640625 67.109375 109.292969 65.609375 109.140625 63.960938 C 108.84375 61.636719 109.742188 59.3125 109.890625 55.414062 C 110.191406 47.09375 109.667969 25.132812 109.214844 15.910156 C 108.992188 10.964844 107.71875 6.765625 108.242188 4.441406 C 108.46875 3.316406 108.917969 2.644531 109.589844 2.117188 C 110.265625 1.519531 111.316406 1.21875 112.140625 1.21875 C 113.039062 1.21875 114.089844 1.667969 114.6875 2.269531 C 115.289062 2.867188 115.8125 4.742188 115.8125 4.742188 " clip-rule="nonzero"/></clipPath><clipPath id="9f1950527c"><path d="M 155.410156 2 L 206 2 L 206 70.261719 L 155.410156 70.261719 Z M 155.410156 2 " clip-rule="nonzero"/></clipPath><clipPath id="75ddced28a"><path d="M 185.375 5.566406 C 187.175781 43.496094 186.800781 46.34375 185.902344 50.84375 C 184.851562 56.316406 183.128906 66.132812 181.027344 68.757812 C 180.203125 69.808594 179.15625 70.03125 178.253906 70.183594 C 177.503906 70.332031 176.753906 70.183594 176.15625 69.882812 C 175.480469 69.65625 174.808594 69.28125 174.355469 68.683594 C 173.832031 68.007812 173.382812 66.507812 173.308594 65.761719 C 173.234375 65.308594 173.15625 65.085938 173.457031 64.710938 C 173.980469 63.8125 178.03125 62.085938 177.953125 61.636719 C 177.953125 61.488281 177.355469 61.414062 177.355469 61.335938 C 177.429688 61.261719 178.855469 61.261719 179.527344 61.636719 C 180.429688 62.085938 181.929688 63.511719 182.226562 64.710938 C 182.453125 65.910156 181.851562 67.785156 181.179688 68.683594 C 180.503906 69.507812 179.378906 70.109375 178.328125 70.183594 C 177.054688 70.183594 175.179688 69.207031 173.757812 68.234375 C 172.332031 67.109375 171.433594 65.609375 170.007812 63.734375 C 167.683594 60.8125 163.9375 56.765625 161.613281 52.34375 C 158.914062 47.246094 155.84375 38.175781 155.542969 34.726562 C 155.46875 33.300781 155.617188 32.550781 156.066406 31.726562 C 156.589844 30.902344 157.566406 30.152344 158.464844 29.855469 C 159.363281 29.554688 160.714844 29.703125 161.539062 30.003906 C 162.214844 30.230469 162.589844 30.453125 163.113281 31.277344 C 164.539062 33.226562 164.761719 39.75 167.085938 44.097656 C 170.160156 49.570312 177.429688 60.886719 181.476562 60.738281 C 184.703125 60.585938 187.023438 53.765625 189.574219 49.34375 C 192.722656 43.945312 195.421875 33.300781 198.195312 30.453125 C 199.46875 29.179688 200.742188 28.730469 201.867188 28.730469 C 202.765625 28.65625 203.742188 29.03125 204.414062 29.628906 C 205.242188 30.453125 205.988281 32.253906 205.988281 33.378906 C 205.988281 34.277344 205.464844 35.25 204.867188 35.851562 C 204.339844 36.527344 203.367188 37.050781 202.542969 37.199219 C 201.640625 37.351562 200.59375 37.199219 199.769531 36.824219 C 199.019531 36.449219 198.195312 35.777344 197.820312 34.875 C 197.445312 33.828125 197.519531 31.878906 197.96875 30.828125 C 198.34375 30.003906 199.242188 29.40625 199.992188 29.03125 C 200.816406 28.730469 201.941406 28.578125 202.765625 28.804688 C 203.589844 29.03125 204.566406 29.554688 205.089844 30.304688 C 205.691406 31.203125 206.066406 32.476562 205.839844 34.277344 C 205.316406 38.472656 199.617188 49.492188 196.695312 54.441406 C 194.820312 57.589844 193.398438 59.386719 191.222656 61.710938 C 188.75 64.1875 185.078125 67.785156 182.378906 68.683594 C 180.652344 69.359375 179.15625 69.507812 177.429688 68.832031 C 174.65625 67.707031 171.433594 63.0625 168.660156 59.839844 C 165.738281 56.464844 162.4375 53.015625 160.339844 48.96875 C 158.015625 44.695312 155.765625 37.726562 155.542969 34.726562 C 155.46875 33.378906 155.691406 32.476562 156.066406 31.726562 C 156.441406 31.054688 156.890625 30.605469 157.566406 30.230469 C 158.316406 29.855469 159.589844 29.554688 160.5625 29.703125 C 161.464844 29.855469 162.289062 30.230469 163.113281 31.277344 C 165.363281 33.902344 167.386719 44.996094 169.859375 49.417969 C 171.582031 52.417969 174.058594 54.066406 175.332031 56.238281 C 176.382812 57.964844 176.304688 60.4375 177.355469 61.335938 C 178.179688 62.011719 179.679688 61.636719 180.429688 62.085938 C 181.027344 62.535156 181.476562 63.136719 181.851562 63.734375 C 182.152344 64.335938 182.378906 65.085938 182.300781 65.761719 C 182.226562 66.660156 181.703125 68.007812 181.179688 68.683594 C 180.730469 69.28125 180.054688 69.734375 179.378906 69.882812 C 178.78125 70.109375 177.503906 70.109375 177.503906 69.882812 C 177.355469 69.582031 181.851562 66.734375 182.003906 66.882812 C 182.152344 67.035156 180.355469 69.433594 179.304688 69.957031 C 178.328125 70.332031 177.054688 70.257812 176.15625 69.882812 C 175.179688 69.582031 174.28125 68.609375 173.757812 67.785156 C 173.382812 67.183594 173.308594 66.808594 173.308594 65.761719 C 173.234375 62.085938 177.953125 50.167969 178.855469 41.097656 C 179.828125 30.378906 176.53125 10.140625 177.730469 5.34375 C 178.03125 3.992188 178.40625 3.46875 179.078125 2.945312 C 179.679688 2.417969 180.804688 2.042969 181.628906 2.042969 C 182.527344 2.042969 183.578125 2.492188 184.175781 3.09375 C 184.777344 3.691406 185.375 5.566406 185.375 5.566406 " clip-rule="nonzero"/></clipPath><clipPath id="d93f00b5b5"><path d="M 38.058594 4.988281 L 40.21875 4.988281 L 40.21875 51.921875 L 38.058594 51.921875 Z M 38.058594 4.988281 " clip-rule="nonzero"/></clipPath><clipPath id="3a0dc525b6"><path d="M 38.230469 51.816406 C 39.128906 18.609375 38.078125 15.988281 38.078125 12.914062 C 38.003906 10.140625 38.230469 5.640625 38.902344 5.042969 C 39.128906 4.890625 39.652344 5.117188 39.652344 5.117188 C 39.652344 5.117188 38.902344 5.042969 38.902344 5.117188 C 38.902344 5.117188 39.503906 4.96875 39.652344 5.191406 C 40.253906 5.867188 38.753906 10.515625 38.753906 13.363281 C 38.828125 16.359375 39.804688 18.761719 40.027344 22.808594 C 40.328125 29.855469 40.328125 50.46875 38.980469 51.816406 C 38.753906 52.042969 38.230469 51.816406 38.230469 51.816406 " clip-rule="nonzero"/></clipPath><clipPath id="448ec83546"><path d="M 16.730469 5.28125 L 72 5.28125 L 72 74.980469 L 16.730469 74.980469 Z M 16.730469 5.28125 " clip-rule="nonzero"/></clipPath><clipPath id="113574531f"><path d="M 48.875 5.417969 C 49.023438 43.046875 49.773438 46.121094 49.699219 49.34375 C 49.699219 51.96875 48.273438 56.089844 49.023438 56.390625 C 50.296875 56.914062 58.019531 41.023438 62.441406 37.574219 C 65.066406 35.476562 68.886719 33.828125 70.238281 34.351562 C 71.0625 34.652344 71.210938 35.699219 71.511719 36.527344 C 71.8125 37.574219 72.035156 38.773438 71.960938 40.199219 C 71.886719 42.074219 71.4375 44.546875 70.539062 46.796875 C 69.5625 49.269531 68.4375 51.515625 66.039062 54.367188 C 61.691406 59.613281 47.75 70.558594 44.152344 73.332031 C 43.027344 74.15625 42.652344 74.605469 41.828125 74.828125 C 41.152344 75.054688 40.328125 75.128906 39.652344 74.980469 C 38.902344 74.753906 38.230469 74.457031 37.554688 73.78125 C 36.503906 72.65625 35.679688 70.03125 34.554688 68.457031 C 33.507812 66.882812 32.15625 65.984375 30.957031 64.1875 C 29.308594 61.710938 27.808594 57.664062 25.859375 54.441406 C 23.761719 51.144531 20.164062 47.394531 18.664062 44.621094 C 17.691406 42.898438 16.867188 41.472656 16.867188 40.046875 C 16.867188 38.699219 17.617188 37.273438 18.289062 36.300781 C 18.964844 35.476562 19.566406 34.652344 20.765625 34.277344 C 22.789062 33.675781 27.660156 34.203125 30.058594 35.550781 C 32.308594 36.75 33.582031 39.148438 35.082031 41.546875 C 36.957031 44.472656 39.128906 52.117188 39.804688 52.191406 C 39.953125 52.191406 40.105469 51.59375 40.105469 51.515625 C 40.027344 51.515625 39.730469 52.042969 39.503906 52.042969 C 38.828125 51.890625 37.253906 48.894531 36.429688 47.246094 C 35.605469 45.59375 35.53125 43.796875 34.632812 42.148438 C 33.507812 40.125 32.007812 37.425781 29.757812 36.226562 C 27.359375 34.875 22.261719 34.050781 20.238281 35.175781 C 18.664062 36 17.691406 38.625 17.691406 40.199219 C 17.617188 41.621094 18.441406 42.671875 19.339844 44.246094 C 20.839844 46.871094 24.363281 50.769531 26.460938 54.066406 C 28.484375 57.289062 29.683594 60.585938 31.632812 63.8125 C 33.582031 67.035156 36.503906 71.980469 38.230469 73.40625 C 38.980469 74.003906 39.429688 74.304688 40.105469 74.304688 C 41.152344 74.304688 42.050781 73.707031 43.625 72.730469 C 47.898438 70.03125 61.09375 59.089844 65.441406 53.917969 C 67.765625 51.144531 68.8125 49.117188 69.789062 46.570312 C 70.6875 44.320312 71.210938 41.921875 71.285156 39.75 C 71.285156 37.875 70.386719 34.351562 70.164062 34.351562 C 70.085938 34.351562 70.386719 35.175781 70.085938 35.550781 C 69.339844 36.527344 65.214844 36.375 62.742188 38.25 C 58.695312 41.398438 52.398438 53.464844 50.296875 55.863281 C 49.625 56.539062 49.25 57.140625 48.949219 57.066406 C 48.800781 57.066406 48.722656 56.839844 48.648438 56.390625 C 47.824219 53.015625 46.324219 7.292969 48.125 5.417969 C 48.347656 5.191406 48.875 5.417969 48.875 5.417969 " clip-rule="nonzero"/></clipPath><clipPath id="cf962f0f51"><path d="M 39.121094 0.789062 L 48.75 0.789062 L 48.75 7 L 39.121094 7 Z M 39.121094 0.789062 " clip-rule="nonzero"/></clipPath><clipPath id="e7d5e5ac68"><path d="M 39.128906 5.117188 C 41.753906 0.996094 44.152344 0.621094 45.5 0.84375 C 46.476562 0.996094 47.375 1.371094 47.898438 2.117188 C 48.574219 3.09375 48.949219 6.316406 48.574219 6.839844 C 48.425781 6.992188 48.050781 7.066406 47.824219 6.917969 C 47.300781 6.542969 47.75 3.242188 47.148438 2.34375 C 46.699219 1.820312 45.949219 1.59375 45.199219 1.59375 C 44.078125 1.445312 41.976562 1.742188 41.078125 2.492188 C 40.328125 3.09375 40.253906 5.117188 39.804688 5.265625 C 39.578125 5.417969 39.128906 5.117188 39.128906 5.117188 " clip-rule="nonzero"/></clipPath><clipPath id="14943cefe7"><path d="M 106.761719 11.792969 L 110.039062 11.792969 L 110.039062 57.367188 L 106.761719 57.367188 Z M 106.761719 11.792969 " clip-rule="nonzero"/></clipPath><clipPath id="37f43e2af7"><path d="M 109.066406 57.214844 C 108.316406 25.132812 105.992188 13.214844 107.042969 11.9375 C 107.191406 11.714844 107.71875 11.863281 107.71875 11.863281 C 107.71875 11.863281 107.042969 12.011719 107.042969 12.011719 C 107.042969 12.011719 107.566406 11.789062 107.792969 11.9375 C 108.917969 12.988281 109.066406 25.507812 109.441406 32.253906 C 109.816406 38.847656 109.890625 47.320312 109.890625 51.816406 C 109.890625 54.214844 110.265625 56.839844 109.816406 57.289062 C 109.589844 57.4375 109.066406 57.214844 109.066406 57.214844 " clip-rule="nonzero"/></clipPath><clipPath id="c7b6994820"><path d="M 107.039062 5.285156 L 108.101562 5.285156 L 108.101562 12.148438 L 107.039062 12.148438 Z M 107.039062 5.285156 " clip-rule="nonzero"/></clipPath><clipPath id="ab655acdf6"><path d="M 107.042969 11.9375 C 107.34375 5.191406 107.941406 5.34375 107.941406 5.417969 C 107.941406 5.417969 107.191406 5.492188 107.191406 5.492188 C 107.191406 5.492188 107.71875 5.191406 107.867188 5.34375 C 108.316406 5.71875 107.941406 8.414062 107.941406 9.613281 C 107.867188 10.515625 108.015625 11.863281 107.71875 12.089844 C 107.566406 12.238281 107.042969 11.9375 107.042969 11.9375 " clip-rule="nonzero"/></clipPath><clipPath id="ddd38a2c7f"><path d="M 107.558594 5.175781 L 107.964844 5.175781 L 107.964844 5.453125 L 107.558594 5.453125 Z M 107.558594 5.175781 " clip-rule="nonzero"/></clipPath><clipPath id="a6704e3493"><path d="M 107.941406 5.34375 C 107.191406 5.640625 107.792969 5.191406 107.792969 5.191406 " clip-rule="nonzero"/></clipPath><clipPath id="7e780bf87e"><path d="M 84.25 0.0195312 L 143 0.0195312 L 143 74.980469 L 84.25 74.980469 Z M 84.25 0.0195312 " clip-rule="nonzero"/></clipPath><clipPath id="28ce71f50f"><path d="M 107.191406 5.492188 C 107.792969 0.167969 109.140625 -0.65625 109.816406 -0.804688 C 110.191406 -0.878906 110.492188 -0.878906 110.789062 -0.65625 C 111.390625 -0.28125 111.464844 1.445312 112.289062 2.117188 C 113.414062 3.019531 116.339844 2.492188 117.164062 3.691406 C 117.988281 5.042969 116.636719 7.515625 116.636719 10.140625 C 116.789062 14.1875 118.0625 19.507812 118.511719 25.65625 C 119.113281 34.5 116.636719 57.214844 119.261719 58.339844 C 120.460938 58.863281 122.710938 55.941406 124.433594 53.839844 C 126.980469 50.617188 129.304688 42.898438 131.855469 39.972656 C 133.355469 38.175781 135.152344 37.273438 136.503906 36.527344 C 137.328125 36 137.925781 35.550781 138.675781 35.550781 C 139.5 35.625 140.550781 36.074219 141.226562 36.824219 C 142.199219 38.101562 143.097656 41.097656 142.949219 43.195312 C 142.722656 45.371094 141.226562 47.695312 139.875 49.570312 C 138.527344 51.441406 136.503906 52.34375 134.929688 54.441406 C 132.679688 57.289062 130.28125 62.835938 128.40625 65.609375 C 127.132812 67.410156 126.382812 68.457031 124.882812 69.808594 C 123.007812 71.53125 119.9375 74.15625 117.835938 74.828125 C 116.339844 75.355469 115.0625 75.203125 113.640625 74.90625 C 112.140625 74.605469 111.015625 74.230469 109.140625 72.804688 C 104.644531 69.28125 93.925781 56.316406 89.726562 49.792969 C 87.027344 45.59375 84.855469 41.847656 84.480469 38.699219 C 84.179688 36.375 84.628906 33.601562 85.753906 32.628906 C 86.804688 31.804688 88.828125 32.101562 90.703125 32.550781 C 93.699219 33.226562 98.574219 35.550781 101.722656 38.550781 C 105.320312 41.921875 110.417969 52.566406 110.339844 52.640625 C 110.191406 52.71875 104.644531 42.074219 101.046875 38.773438 C 97.972656 36 93.25 33.976562 90.703125 33.300781 C 89.425781 32.925781 88.304688 33.078125 87.476562 33.152344 C 86.953125 33.152344 86.578125 33.003906 86.277344 33.378906 C 85.605469 34.050781 85.003906 36.824219 85.304688 38.847656 C 85.679688 41.847656 88.453125 46.269531 90.328125 49.34375 C 91.976562 52.042969 93.851562 54.214844 95.800781 56.464844 C 97.746094 58.640625 99.996094 60.136719 102.09375 62.535156 C 104.570312 65.234375 107.042969 70.183594 109.515625 72.132812 C 111.089844 73.40625 112.664062 74.003906 114.164062 74.304688 C 115.4375 74.53125 116.414062 74.605469 117.761719 74.082031 C 119.9375 73.257812 123.085938 70.933594 125.484375 68.234375 C 128.632812 64.785156 131.480469 57.589844 134.179688 54.214844 C 135.976562 51.96875 137.925781 50.992188 139.277344 49.117188 C 140.550781 47.320312 141.972656 45.222656 142.199219 43.273438 C 142.347656 41.398438 141.597656 38.550781 140.773438 37.5 C 140.25 36.824219 139.425781 36.449219 138.824219 36.375 C 138.226562 36.375 137.777344 36.675781 137.101562 37.050781 C 135.828125 37.726562 133.878906 38.773438 132.304688 40.648438 C 129.679688 43.722656 126.832031 51.96875 124.359375 55.117188 C 122.933594 56.914062 121.285156 58.414062 120.160156 58.789062 C 119.5625 59.011719 119.035156 59.164062 118.585938 58.714844 C 116.5625 56.613281 118.511719 33.527344 117.761719 25.730469 C 117.386719 21.457031 116.414062 19.210938 116.1875 15.761719 C 115.886719 12.011719 117.761719 5.941406 116.339844 4.066406 C 115.511719 2.945312 113.265625 3.617188 112.140625 2.867188 C 111.164062 2.195312 110.640625 0.09375 109.890625 -0.0546875 C 109.292969 -0.128906 108.46875 0.542969 108.09375 1.21875 C 107.640625 2.195312 108.390625 5.191406 107.941406 5.566406 C 107.71875 5.71875 107.191406 5.492188 107.191406 5.492188 " clip-rule="nonzero"/></clipPath><clipPath id="db96fbe585"><path d="M 152.746094 0.285156 L 207.363281 0.285156 L 207.363281 72 L 152.746094 72 Z M 152.746094 0.285156 " clip-rule="nonzero"/></clipPath><clipPath id="b3383b4c81"><path d="M 174.957031 55.492188 C 178.03125 33.226562 178.253906 29.855469 178.03125 25.355469 C 177.878906 20.109375 175.632812 12.839844 176.007812 8.339844 C 176.230469 5.265625 176.753906 1.445312 178.179688 0.695312 C 179.378906 0.0195312 182.003906 1.292969 183.050781 2.269531 C 183.953125 3.019531 184.101562 3.84375 184.550781 5.265625 C 185.449219 8.492188 185.449219 17.484375 186.125 21.308594 C 186.574219 23.484375 187.25 24.230469 187.550781 26.332031 C 188 30.003906 187.925781 36.226562 187.625 41.324219 C 187.324219 46.644531 186.574219 55.789062 185.601562 57.589844 C 185.375 58.039062 184.925781 58.414062 184.777344 58.265625 C 184.25 57.964844 188.898438 41.996094 191.148438 38.175781 C 192.199219 36.300781 193.472656 36 194.371094 34.578125 C 195.347656 32.925781 195.347656 30.152344 196.621094 28.878906 C 197.894531 27.605469 200.59375 26.929688 202.09375 26.78125 C 203.140625 26.628906 203.964844 26.78125 204.789062 27.15625 C 205.617188 27.457031 206.515625 27.980469 206.964844 28.804688 C 207.488281 29.855469 207.339844 31.503906 207.113281 33.378906 C 206.890625 36.226562 205.914062 40.046875 204.492188 44.097656 C 202.542969 49.644531 199.394531 59.089844 195.570312 63.359375 C 192.722656 66.433594 189.199219 67.707031 185.75 69.132812 C 182.226562 70.558594 177.207031 71.757812 174.65625 71.90625 C 173.308594 71.980469 172.632812 71.90625 171.582031 71.53125 C 170.234375 70.933594 168.511719 69.582031 167.460938 68.457031 C 166.710938 67.484375 166.261719 66.734375 165.738281 65.386719 C 164.988281 63.359375 165.285156 59.386719 164.011719 57.066406 C 162.738281 54.816406 159.738281 53.765625 158.242188 51.441406 C 156.589844 49.042969 155.542969 45.746094 154.71875 42.746094 C 153.742188 39.523438 152.394531 35.027344 152.917969 32.703125 C 153.21875 31.351562 154.269531 30.304688 154.941406 29.628906 C 155.46875 29.253906 155.691406 28.953125 156.367188 28.804688 C 157.867188 28.578125 161.988281 28.878906 163.789062 29.929688 C 165.285156 30.828125 166.113281 32.628906 166.859375 34.203125 C 167.535156 35.699219 167.460938 37.574219 168.136719 39.222656 C 168.808594 40.949219 170.382812 42.597656 171.058594 44.472656 C 171.808594 46.34375 171.808594 48.519531 172.484375 50.394531 C 173.15625 52.265625 175.179688 55.566406 175.105469 55.566406 C 174.957031 55.640625 172.707031 52.867188 171.957031 51.144531 C 171.058594 49.195312 171.058594 46.34375 170.234375 44.320312 C 169.484375 42.523438 168.136719 41.171875 167.386719 39.449219 C 166.710938 37.800781 166.785156 35.851562 166.035156 34.351562 C 165.4375 32.925781 164.835938 31.429688 163.5625 30.679688 C 161.839844 29.628906 157.640625 29.105469 155.992188 29.855469 C 154.792969 30.304688 153.96875 31.726562 153.667969 32.851562 C 153.367188 33.902344 153.59375 34.726562 153.894531 36.226562 C 154.566406 39.449219 156.589844 47.46875 158.839844 51.066406 C 160.488281 53.691406 163.261719 54.367188 164.6875 56.765625 C 166.261719 59.539062 165.738281 64.636719 167.386719 67.109375 C 168.734375 69.058594 170.683594 70.707031 173.007812 71.230469 C 176.230469 71.90625 181.703125 69.957031 185.449219 68.457031 C 188.972656 67.109375 192.273438 65.835938 194.972656 62.835938 C 198.792969 58.640625 201.867188 49.269531 203.816406 43.796875 C 205.164062 39.898438 206.140625 36 206.363281 33.378906 C 206.589844 31.804688 206.738281 30.453125 206.289062 29.480469 C 205.988281 28.804688 205.390625 28.355469 204.714844 27.980469 C 203.964844 27.605469 202.992188 27.457031 201.941406 27.605469 C 200.59375 27.679688 198.492188 28.128906 197.371094 29.179688 C 196.09375 30.378906 196.019531 33.378906 194.972656 34.953125 C 194.144531 36.375 192.796875 36.75 191.824219 38.472656 C 190.097656 41.398438 189.050781 48.667969 187.625 52.265625 C 186.648438 54.742188 185.226562 58.414062 184.777344 58.265625 C 184.175781 58.113281 186.574219 46.71875 186.875 41.246094 C 187.175781 36.152344 187.25 31.351562 186.800781 26.480469 C 186.351562 21.757812 184.625 16.285156 184.25 12.464844 C 183.953125 9.839844 184.550781 7.589844 184.101562 5.867188 C 183.800781 4.667969 183.503906 3.617188 182.675781 2.945312 C 181.703125 2.042969 179.453125 0.84375 178.480469 1.371094 C 177.207031 2.117188 176.90625 5.792969 176.753906 8.714844 C 176.53125 13.0625 178.554688 19.734375 178.855469 24.832031 C 179.003906 29.328125 178.78125 33.152344 178.328125 37.800781 C 177.804688 43.273438 176.832031 54.742188 175.632812 55.640625 C 175.40625 55.789062 174.957031 55.492188 174.957031 55.492188 " clip-rule="nonzero"/></clipPath></defs><g clip-path="url(#2830fb89ac)"><g clip-path="url(#bac78e8e4c)"><path fill="#fffb47" d="M 16.492188 -1.179688 L 52.246094 -1.179688 L 52.246094 75.78125 L 16.492188 75.78125 Z M 16.492188 -1.179688 " fill-opacity="1" fill-rule="nonzero"/></g></g><g clip-path="url(#f958d89045)"><g clip-path="url(#ac47381c4b)"><path fill="#fffb47" d="M 36.503906 32.703125 L 75.035156 32.703125 L 75.035156 73.488281 L 36.503906 73.488281 Z M 36.503906 32.703125 " fill-opacity="1" fill-rule="nonzero"/></g></g><g clip-path="url(#db296ed984)"><g clip-path="url(#680ce696fa)"><path fill="#fffb47" d="M 82.457031 -1.777344 L 144.824219 -1.777344 L 144.824219 77.398438 L 82.457031 77.398438 Z M 82.457031 -1.777344 " fill-opacity="1" fill-rule="nonzero"/></g></g><g clip-path="url(#9f1950527c)"><g clip-path="url(#75ddced28a)"><path fill="#fffb47" d="M 152.542969 -0.953125 L 208.988281 -0.953125 L 208.988281 73.128906 L 152.542969 73.128906 Z M 152.542969 -0.953125 " fill-opacity="1" fill-rule="nonzero"/></g></g><g clip-path="url(#d93f00b5b5)"><g clip-path="url(#3a0dc525b6)"><path fill="#060707" d="M 35.082031 2.042969 L 43.101562 2.042969 L 43.101562 54.898438 L 35.082031 54.898438 Z M 35.082031 2.042969 " fill-opacity="1" fill-rule="nonzero"/></g></g><g clip-path="url(#448ec83546)"><g clip-path="url(#113574531f)"><path fill="#060707" d="M 13.867188 2.417969 L 74.960938 2.417969 L 74.960938 78.066406 L 13.867188 78.066406 Z M 13.867188 2.417969 " fill-opacity="1" fill-rule="nonzero"/></g></g><g clip-path="url(#cf962f0f51)"><g clip-path="url(#e7d5e5ac68)"><path fill="#060707" d="M 36.128906 -2.152344 L 51.59375 -2.152344 L 51.59375 9.988281 L 36.128906 9.988281 Z M 36.128906 -2.152344 " fill-opacity="1" fill-rule="nonzero"/></g></g><g clip-path="url(#14943cefe7)"><g clip-path="url(#37f43e2af7)"><path fill="#060707" d="M 104.042969 8.867188 L 112.964844 8.867188 L 112.964844 60.296875 L 104.042969 60.296875 Z M 104.042969 8.867188 " fill-opacity="1" fill-rule="nonzero"/></g></g><g clip-path="url(#c7b6994820)"><g clip-path="url(#ab655acdf6)"><path fill="#060707" d="M 104.042969 2.34375 L 111.015625 2.34375 L 111.015625 15.089844 L 104.042969 15.089844 Z M 104.042969 2.34375 " fill-opacity="1" fill-rule="nonzero"/></g></g><g clip-path="url(#ddd38a2c7f)"><g clip-path="url(#a6704e3493)"><path fill="#060707" d="M 104.195312 2.195312 L 110.945312 2.195312 L 110.945312 8.714844 L 104.195312 8.714844 Z M 104.195312 2.195312 " fill-opacity="1" fill-rule="nonzero"/></g></g><g clip-path="url(#7e780bf87e)"><g clip-path="url(#28ce71f50f)"><path fill="#060707" d="M 81.480469 -3.804688 L 145.945312 -3.804688 L 145.945312 78.039062 L 81.480469 78.039062 Z M 81.480469 -3.804688 " fill-opacity="1" fill-rule="nonzero"/></g></g><g clip-path="url(#db96fbe585)"><g clip-path="url(#b3383b4c81)"><path fill="#060707" d="M 149.921875 -2.304688 L 210.1875 -2.304688 L 210.1875 74.914062 L 149.921875 74.914062 Z M 149.921875 -2.304688 " fill-opacity="1" fill-rule="nonzero"/></g></g></svg>