<svg xmlns="http://www.w3.org/2000/svg" xmlns:xlink="http://www.w3.org/1999/xlink" width="100" zoomAndPan="magnify" viewBox="0 0 75 74.999997" height="100" preserveAspectRatio="xMidYMid meet" version="1.0"><defs><filter x="0%" y="0%" width="100%" height="100%" id="c2dae4a91b"><feColorMatrix values="0 0 0 0 1 0 0 0 0 1 0 0 0 0 1 0 0 0 1 0" color-interpolation-filters="sRGB"/></filter><mask id="b0b8edad29"><g filter="url(#c2dae4a91b)"><rect x="-7.5" width="90" fill="#000000" y="-7.5" height="89.999996" fill-opacity="0.7"/></g></mask><clipPath id="22a51c71a2"><path d="M 2.691406 3.371094 L 5.898438 3.371094 L 5.898438 21.039062 L 2.691406 21.039062 Z M 2.691406 3.371094 " clip-rule="nonzero"/></clipPath><clipPath id="22eee5c509"><path d="M 5.789062 4.523438 C 5.5625 20.5 4.960938 21.023438 4.511719 21.023438 C 4.136719 20.949219 3.3125 20.050781 3.386719 19.601562 C 3.386719 19.148438 4.4375 18.398438 4.8125 18.476562 C 5.261719 18.550781 5.9375 19.601562 5.863281 19.976562 C 5.789062 20.425781 5.113281 21.023438 4.664062 21.023438 C 4.289062 20.949219 3.6875 20.5 3.386719 19.75 C 2.414062 17.5 2.488281 6.175781 3.539062 4.300781 C 3.835938 3.625 4.363281 3.324219 4.738281 3.398438 C 5.113281 3.476562 5.789062 4.523438 5.789062 4.523438 " clip-rule="nonzero"/></clipPath><clipPath id="a6fb663b4f"><rect x="0" width="9" y="0" height="22"/></clipPath><mask id="909500e06d"><g filter="url(#c2dae4a91b)"><rect x="-7.5" width="90" fill="#000000" y="-7.5" height="89.999996" fill-opacity="0.7"/></g></mask><clipPath id="c582359ba5"><path d="M 3.460938 3.574219 L 14.878906 3.574219 L 14.878906 20.632812 L 3.460938 20.632812 Z M 3.460938 3.574219 " clip-rule="nonzero"/></clipPath><clipPath id="6de80ca252"><path d="M 4.664062 3.625 C 11.9375 3.625 13.664062 4.824219 14.335938 5.875 C 14.863281 6.699219 15.011719 7.675781 14.710938 8.648438 C 14.414062 9.925781 13.136719 11.726562 11.789062 12.550781 C 10.363281 13.449219 7.511719 13.976562 6.3125 13.675781 C 5.710938 13.523438 5.039062 12.925781 5.039062 12.476562 C 4.960938 12.023438 5.488281 11.351562 6.011719 11.050781 C 6.6875 10.675781 8.039062 10.824219 9.164062 11.125 C 10.585938 11.5 12.761719 12.550781 13.738281 13.523438 C 14.414062 14.125 14.789062 14.949219 14.863281 15.699219 C 14.9375 16.375 14.710938 17.273438 14.261719 17.875 C 13.886719 18.476562 13.289062 18.925781 12.3125 19.300781 C 10.738281 19.976562 6.238281 20.875 4.8125 20.5 C 4.136719 20.351562 3.613281 19.898438 3.539062 19.523438 C 3.386719 19.074219 3.761719 18.175781 4.136719 17.949219 C 4.511719 17.800781 5.710938 18.175781 6.011719 18.476562 C 6.238281 18.773438 6.164062 19.449219 6.011719 19.75 C 5.863281 20.125 5.335938 20.5 4.960938 20.5 C 4.511719 20.5 3.6875 20.050781 3.539062 19.675781 C 3.386719 19.226562 3.539062 18.476562 3.988281 18.101562 C 5.039062 17.125 10.664062 17.5 11.636719 16.675781 C 11.9375 16.375 12.085938 15.851562 11.9375 15.550781 C 11.863281 15.25 11.5625 15.101562 11.113281 14.875 C 10.0625 14.351562 6.613281 14.199219 5.710938 13.523438 C 5.261719 13.148438 4.960938 12.625 5.039062 12.175781 C 5.039062 11.800781 5.488281 11.351562 6.011719 11.050781 C 6.914062 10.523438 9.3125 11.050781 10.363281 10.375 C 11.261719 9.699219 12.386719 8.199219 12.238281 7.375 C 12.011719 6.550781 10.363281 5.800781 9.164062 5.5 C 7.738281 5.199219 4.960938 6.25 4.136719 5.800781 C 3.761719 5.5 3.460938 4.976562 3.539062 4.601562 C 3.613281 4.226562 4.664062 3.625 4.664062 3.625 " clip-rule="nonzero"/></clipPath><clipPath id="bb9e81db4e"><rect x="0" width="19" y="0" height="22"/></clipPath><mask id="d43b1efbdf"><g filter="url(#c2dae4a91b)"><rect x="-7.5" width="90" fill="#000000" y="-7.5" height="89.999996" fill-opacity="0.7"/></g></mask><clipPath id="42040a5102"><path d="M 3.351562 3.8125 L 14.640625 3.8125 L 14.640625 19.109375 L 3.351562 19.109375 Z M 3.351562 3.8125 " clip-rule="nonzero"/></clipPath><clipPath id="0001a614ff"><path d="M 3.414062 16.550781 C 8.664062 4.023438 9.039062 3.800781 9.488281 3.875 C 10.164062 3.949219 10.988281 5.148438 11.664062 6.273438 C 12.710938 8.074219 13.613281 12.050781 14.0625 14.375 C 14.363281 15.949219 14.886719 17.898438 14.363281 18.574219 C 14.136719 18.949219 13.3125 19.101562 12.9375 19.023438 C 12.5625 18.949219 12.1875 18.5 12.113281 18.125 C 12.039062 17.824219 12.1875 17.226562 12.414062 16.925781 C 12.636719 16.699219 13.164062 16.476562 13.539062 16.550781 C 13.835938 16.625 14.363281 16.925781 14.511719 17.226562 C 14.664062 17.523438 14.664062 18.125 14.4375 18.425781 C 14.210938 18.800781 13.460938 19.101562 13.011719 19.101562 C 12.710938 19.023438 12.488281 18.800781 12.113281 18.273438 C 11.0625 16.550781 7.460938 6.726562 8.0625 4.851562 C 8.289062 4.25 9.039062 3.875 9.488281 3.875 C 9.863281 3.875 10.386719 4.398438 10.613281 4.773438 C 10.761719 5.300781 10.613281 5.824219 10.386719 6.648438 C 9.9375 8.523438 7.914062 13.023438 6.863281 15.125 C 6.113281 16.476562 5.511719 17.976562 4.835938 18.273438 C 4.386719 18.425781 3.789062 18.199219 3.5625 17.898438 C 3.335938 17.601562 3.414062 16.550781 3.414062 16.550781 " clip-rule="nonzero"/></clipPath><clipPath id="b18ff548a4"><rect x="0" width="18" y="0" height="20"/></clipPath><mask id="6a1625bd6c"><g filter="url(#c2dae4a91b)"><rect x="-7.5" width="90" fill="#000000" y="-7.5" height="89.999996" fill-opacity="0.7"/></g></mask><clipPath id="d2f558f0e2"><path d="M 2.800781 2.96875 L 7.089844 2.96875 L 7.089844 4.914062 L 2.800781 4.914062 Z M 2.800781 2.96875 " clip-rule="nonzero"/></clipPath><clipPath id="712293e32e"><path d="M 3.683594 2.972656 C 7.039062 3.371094 7.09375 3.941406 7.039062 4.167969 C 6.980469 4.453125 6.640625 4.738281 6.414062 4.738281 C 6.070312 4.738281 5.332031 4.054688 5.332031 3.714844 C 5.332031 3.484375 5.84375 3.03125 6.128906 2.972656 C 6.355469 2.972656 6.753906 3.144531 6.867188 3.316406 C 7.039062 3.484375 7.152344 3.882812 7.039062 4.109375 C 6.980469 4.339844 6.640625 4.621094 6.242188 4.738281 C 5.558594 4.964844 3.738281 5.019531 3.226562 4.621094 C 2.945312 4.394531 2.773438 3.828125 2.832031 3.542969 C 2.945312 3.316406 3.683594 2.972656 3.683594 2.972656 " clip-rule="nonzero"/></clipPath><clipPath id="482865b824"><rect x="0" width="10" y="0" height="8"/></clipPath><mask id="d5f563f58c"><g filter="url(#c2dae4a91b)"><rect x="-7.5" width="90" fill="#000000" y="-7.5" height="89.999996" fill-opacity="0.7"/></g></mask><clipPath id="998a2cde86"><path d="M 3.949219 3.898438 L 14.25 3.898438 L 14.25 19.792969 L 3.949219 19.792969 Z M 3.949219 3.898438 " clip-rule="nonzero"/></clipPath><clipPath id="b747e2c1d8"><path d="M 11.914062 8.25 C 10.414062 6.601562 9.210938 6.148438 8.613281 6.449219 C 7.863281 6.824219 7.261719 8.773438 7.113281 9.601562 C 7.039062 10.050781 6.886719 10.351562 7.1875 10.726562 C 7.710938 11.625 11.539062 12.523438 12.289062 13.949219 C 13.039062 15.226562 13.113281 17.550781 12.363281 18.523438 C 11.613281 19.5 8.988281 19.949219 7.488281 19.726562 C 6.210938 19.5 4.039062 18.226562 3.960938 17.476562 C 3.886719 17.023438 4.863281 16.125 5.3125 16.050781 C 5.6875 16.050781 6.4375 16.648438 6.585938 17.101562 C 6.738281 17.476562 6.585938 18.074219 6.289062 18.300781 C 5.988281 18.601562 5.085938 18.824219 4.710938 18.675781 C 4.335938 18.523438 3.960938 18 3.960938 17.625 C 3.960938 17.175781 4.710938 16.125 5.164062 16.050781 C 5.613281 16.050781 5.988281 17.25 6.664062 17.398438 C 7.5625 17.550781 9.886719 16.875 10.113281 16.351562 C 10.261719 16.050781 9.960938 15.601562 9.664062 15.148438 C 8.835938 14.175781 5.386719 12.976562 4.636719 11.625 C 4.113281 10.574219 4.335938 9.226562 4.5625 8.101562 C 4.789062 7.050781 5.3125 5.699219 6.0625 4.949219 C 6.664062 4.351562 7.488281 4.050781 8.3125 3.976562 C 9.363281 3.824219 10.9375 4.199219 11.914062 4.726562 C 12.664062 5.101562 13.335938 5.773438 13.710938 6.375 C 14.011719 6.898438 14.3125 7.648438 14.164062 8.101562 C 14.011719 8.550781 13.488281 9.148438 13.113281 9.226562 C 12.664062 9.226562 11.914062 8.25 11.914062 8.25 " clip-rule="nonzero"/></clipPath><clipPath id="08e4fc17b7"><rect x="0" width="18" y="0" height="21"/></clipPath><mask id="ebf5901037"><g filter="url(#c2dae4a91b)"><rect x="-7.5" width="90" fill="#000000" y="-7.5" height="89.999996" fill-opacity="0.7"/></g></mask><clipPath id="257eed5ab7"><path d="M 3.953125 3.570312 L 53 3.570312 L 53 52.847656 L 3.953125 52.847656 Z M 3.953125 3.570312 " clip-rule="nonzero"/></clipPath><clipPath id="8719fc6f68"><path d="M 52.941406 28.210938 C 50.820312 38.492188 49.515625 40.941406 47.964844 42.980469 C 46.332031 45.101562 44.371094 46.980469 42.167969 48.449219 C 40.046875 49.917969 37.519531 51.058594 34.988281 51.792969 C 32.457031 52.449219 29.765625 52.773438 27.152344 52.609375 C 24.542969 52.449219 21.847656 51.875 19.402344 50.898438 C 16.953125 49.917969 14.585938 48.53125 12.628906 46.816406 C 10.585938 45.183594 8.792969 43.0625 7.484375 40.777344 C 6.097656 38.574219 5.121094 35.960938 4.546875 33.433594 C 3.976562 30.902344 3.8125 28.128906 4.140625 25.515625 C 4.386719 22.90625 5.121094 20.292969 6.261719 17.925781 C 7.324219 15.5625 8.875 13.195312 10.667969 11.316406 C 12.464844 9.441406 14.667969 7.726562 16.953125 6.503906 C 19.320312 5.359375 21.929688 4.460938 24.460938 4.054688 C 27.070312 3.5625 29.847656 3.5625 32.457031 4.054688 C 34.988281 4.460938 37.597656 5.359375 39.964844 6.582031 C 42.25 7.726562 44.453125 9.441406 46.25 11.316406 C 48.046875 13.195312 49.59375 15.5625 50.65625 17.925781 C 51.800781 20.292969 52.535156 22.90625 52.777344 25.515625 C 53.105469 28.128906 52.941406 30.902344 52.371094 33.433594 C 51.800781 35.960938 50.738281 38.574219 49.433594 40.777344 C 48.125 43.0625 46.25 45.183594 44.292969 46.816406 C 42.332031 48.53125 39.964844 49.917969 37.519531 50.898438 C 35.070312 51.875 32.375 52.449219 29.765625 52.609375 C 27.152344 52.773438 24.378906 52.449219 21.929688 51.792969 C 19.402344 51.058594 16.871094 49.917969 14.75 48.449219 C 12.546875 46.980469 10.503906 45.019531 8.953125 42.980469 C 7.40625 40.941406 6.097656 38.492188 5.28125 35.960938 C 4.386719 33.515625 4.058594 30.578125 3.976562 28.210938 C 3.894531 26.089844 4.222656 24.210938 4.710938 22.335938 C 5.121094 20.457031 5.855469 18.5 6.75 16.785156 C 7.648438 15.070312 8.792969 13.355469 10.097656 11.96875 C 11.402344 10.5 12.953125 9.113281 14.503906 8.054688 C 16.136719 6.910156 17.933594 5.929688 19.726562 5.277344 C 21.605469 4.542969 23.5625 4.054688 25.519531 3.890625 C 27.398438 3.644531 29.4375 3.644531 31.398438 3.808594 C 33.355469 4.054688 35.3125 4.542969 37.109375 5.277344 C 38.988281 5.929688 40.78125 6.910156 42.332031 7.972656 C 43.964844 9.113281 45.515625 10.417969 46.738281 11.886719 C 48.046875 13.355469 49.1875 15.070312 50.167969 16.785156 C 51.066406 18.5 51.71875 20.375 52.207031 22.253906 C 52.695312 24.210938 52.941406 28.128906 52.941406 28.128906 " clip-rule="nonzero"/></clipPath><clipPath id="7925a71d53"><rect x="0" width="57" y="0" height="56"/></clipPath><mask id="3db96ef610"><g filter="url(#c2dae4a91b)"><rect x="-7.5" width="90" fill="#000000" y="-7.5" height="89.999996" fill-opacity="0.7"/></g></mask><clipPath id="295c6cfc8b"><path d="M 3.636719 2.835938 L 14.644531 2.835938 L 14.644531 18.394531 L 3.636719 18.394531 Z M 3.636719 2.835938 " clip-rule="nonzero"/></clipPath><clipPath id="2c52cdb9d4"><path d="M 13.039062 5.898438 C 5.761719 5.375 6.0625 4.476562 6.136719 4.476562 C 6.363281 4.476562 7.261719 8.523438 7.335938 10.550781 C 7.414062 12.5 7.1875 16.25 6.738281 16.398438 C 6.511719 16.476562 5.761719 15.425781 5.914062 15.125 C 6.136719 14.75 9.511719 15.726562 10.9375 15.574219 C 11.988281 15.5 12.960938 14.675781 13.636719 14.824219 C 14.011719 14.898438 14.460938 15.273438 14.613281 15.648438 C 14.6875 16.023438 14.460938 16.851562 14.164062 17.148438 C 13.9375 17.449219 13.335938 17.523438 12.960938 17.375 C 12.585938 17.300781 12.210938 16.851562 12.0625 16.550781 C 11.988281 16.101562 12.289062 15.273438 12.664062 15.050781 C 13.039062 14.824219 13.9375 14.898438 14.238281 15.125 C 14.539062 15.425781 14.761719 16.25 14.539062 16.699219 C 14.164062 17.375 12.511719 18.050781 11.164062 18.199219 C 9.363281 18.425781 5.6875 18.5 4.636719 17.226562 C 3.664062 16.023438 4.9375 13.023438 4.789062 10.925781 C 4.636719 8.898438 3.4375 6.199219 3.738281 4.851562 C 3.886719 4.101562 4.261719 3.574219 5.011719 3.199219 C 6.4375 2.523438 11.613281 2.976562 13.039062 3.574219 C 13.636719 3.800781 14.164062 4.175781 14.164062 4.550781 C 14.164062 5 13.039062 5.898438 13.039062 5.898438 " clip-rule="nonzero"/></clipPath><clipPath id="6d865af3e1"><rect x="0" width="18" y="0" height="20"/></clipPath><mask id="d847f2bc0a"><g filter="url(#c2dae4a91b)"><rect x="-7.5" width="90" fill="#000000" y="-7.5" height="89.999996" fill-opacity="0.7"/></g></mask><clipPath id="57f0a629fd"><path d="M 3.46875 4.105469 L 8.53125 4.105469 L 8.53125 6.753906 L 3.46875 6.753906 Z M 3.46875 4.105469 " clip-rule="nonzero"/></clipPath><clipPath id="7476c80039"><path d="M 4.613281 4.273438 C 8.4375 4.648438 8.585938 5.398438 8.4375 5.699219 C 8.363281 6.074219 7.613281 6.449219 7.3125 6.449219 C 6.9375 6.449219 6.488281 6.148438 6.414062 5.851562 C 6.261719 5.476562 6.335938 4.726562 6.636719 4.425781 C 6.789062 4.199219 7.3125 4.050781 7.613281 4.125 C 7.988281 4.273438 8.511719 4.875 8.511719 5.25 C 8.585938 5.625 8.210938 6.148438 7.761719 6.375 C 7.085938 6.75 5.363281 6.824219 4.613281 6.601562 C 4.085938 6.449219 3.488281 5.925781 3.488281 5.625 C 3.488281 5.175781 4.613281 4.273438 4.613281 4.273438 " clip-rule="nonzero"/></clipPath><clipPath id="24fa9a31bc"><rect x="0" width="12" y="0" height="10"/></clipPath><clipPath id="a5781c58bb"><path d="M 6.589844 18 L 19.285156 18 L 19.285156 39.59375 L 6.589844 39.59375 Z M 6.589844 18 " clip-rule="nonzero"/></clipPath><clipPath id="9b68b7984c"><path d="M 13.273438 20.550781 C 9.523438 21.148438 9.148438 23.023438 9.148438 24.074219 C 9.074219 24.976562 9.226562 25.800781 9.601562 26.398438 C 9.976562 27 10.5 27.523438 11.324219 27.824219 C 12.675781 28.199219 15.898438 27 17.175781 27.523438 C 18 27.824219 18.523438 28.574219 18.824219 29.324219 C 19.199219 30 19.351562 30.824219 19.199219 31.800781 C 19.050781 33.300781 18.226562 36.300781 17.023438 37.574219 C 15.976562 38.699219 14.175781 39.523438 12.824219 39.523438 C 11.476562 39.601562 9.300781 38.625 8.925781 37.875 C 8.699219 37.425781 8.925781 36.523438 9.226562 36.300781 C 9.601562 36 10.5 35.925781 10.875 36.148438 C 11.25 36.449219 11.476562 37.273438 11.398438 37.726562 C 11.324219 38.101562 10.875 38.476562 10.5 38.550781 C 10.125 38.699219 9.523438 38.550781 9.226562 38.324219 C 8.925781 38.023438 8.699219 37.125 8.925781 36.75 C 9.074219 36.375 9.75 36 10.351562 36 C 11.023438 35.925781 12 36.898438 12.824219 36.824219 C 13.574219 36.824219 14.398438 36.449219 15 35.773438 C 15.824219 34.875 16.574219 31.949219 16.5 30.898438 C 16.5 30.449219 16.425781 30.074219 16.050781 29.851562 C 15.300781 29.476562 12.675781 30.523438 11.398438 30.449219 C 10.5 30.449219 9.824219 30.300781 9.148438 29.925781 C 8.476562 29.550781 7.949219 28.875 7.574219 28.125 C 7.050781 27.226562 6.601562 25.800781 6.601562 24.601562 C 6.523438 23.25 6.976562 21.601562 7.5 20.476562 C 7.875 19.648438 8.324219 18.824219 9.148438 18.449219 C 10.273438 17.925781 13.050781 17.925781 13.800781 18.375 C 14.25 18.601562 14.476562 19.199219 14.398438 19.574219 C 14.324219 19.949219 13.273438 20.550781 13.273438 20.550781 " clip-rule="nonzero"/></clipPath><clipPath id="dbfdb639d8"><path d="M 21.492188 16.914062 L 33.632812 16.914062 L 33.632812 32.09375 L 21.492188 32.09375 Z M 21.492188 16.914062 " clip-rule="nonzero"/></clipPath><clipPath id="7fb7c672c2"><path d="M 22.800781 25.574219 C 26.773438 22.050781 28.726562 19.125 28.425781 18.824219 C 28.199219 18.523438 25.726562 19.726562 25.050781 20.773438 C 24.226562 21.976562 23.773438 24.375 24.226562 25.875 C 24.601562 27.226562 26.476562 29.175781 27.523438 29.398438 C 28.351562 29.550781 29.175781 28.875 29.925781 28.425781 C 30.75 27.824219 31.5 25.949219 32.175781 25.800781 C 32.699219 25.726562 33.375 26.324219 33.523438 26.699219 C 33.675781 27.074219 33.375 27.976562 33.074219 28.199219 C 32.773438 28.5 32.175781 28.574219 31.800781 28.425781 C 31.425781 28.199219 30.976562 27.449219 30.976562 27 C 30.976562 26.699219 31.273438 26.175781 31.648438 26.023438 C 32.023438 25.800781 32.925781 25.949219 33.226562 26.25 C 33.523438 26.550781 33.601562 27.226562 33.449219 27.824219 C 33.148438 28.875 31.425781 30.824219 30.148438 31.5 C 29.101562 32.023438 27.601562 32.175781 26.550781 31.949219 C 25.648438 31.726562 24.898438 31.199219 24.226562 30.523438 C 23.398438 29.699219 22.425781 28.425781 21.976562 27.300781 C 21.523438 26.101562 21.449219 24.824219 21.523438 23.625 C 21.601562 22.425781 21.898438 21.074219 22.425781 20.101562 C 22.875 19.199219 23.550781 18.375 24.449219 17.851562 C 25.425781 17.25 27.074219 16.875 28.125 16.949219 C 29.101562 16.949219 30.226562 17.324219 30.601562 17.851562 C 30.976562 18.449219 30.898438 19.351562 30.601562 20.25 C 30.148438 21.675781 28.273438 24.226562 26.925781 25.5 C 25.800781 26.550781 24.300781 27.675781 23.398438 27.675781 C 22.949219 27.675781 22.425781 27.375 22.273438 27 C 22.199219 26.625 22.800781 25.574219 22.800781 25.574219 " clip-rule="nonzero"/></clipPath><clipPath id="ca6fdb3a3e"><path d="M 33.28125 7.410156 L 46.359375 7.410156 L 46.359375 22.738281 L 33.28125 22.738281 Z M 33.28125 7.410156 " clip-rule="nonzero"/></clipPath><clipPath id="c8bd004494"><path d="M 35.25 14.625 C 40.949219 20.476562 40.199219 21.226562 39.898438 21.148438 C 39.148438 20.925781 37.425781 13.273438 38.25 12.226562 C 38.699219 11.699219 39.898438 11.851562 40.800781 12.226562 C 42.226562 12.824219 45.75 16.5 45.523438 17.175781 C 45.449219 17.398438 44.398438 17.625 44.101562 17.398438 C 43.648438 17.101562 43.949219 15.898438 43.5 15 C 42.75 13.425781 39.074219 10.574219 38.773438 9.226562 C 38.625 8.625 38.851562 7.949219 39.148438 7.726562 C 39.523438 7.5 40.800781 7.648438 41.023438 7.949219 C 41.25 8.324219 41.023438 9.601562 40.648438 9.824219 C 40.273438 10.050781 39.074219 9.75 38.851562 9.375 C 38.625 9 39 7.800781 39.375 7.574219 C 39.75 7.351562 40.351562 7.5 40.949219 7.875 C 42.226562 8.625 44.851562 11.476562 45.675781 13.5 C 46.351562 15.148438 46.574219 17.925781 45.976562 18.824219 C 45.675781 19.273438 44.851562 19.574219 44.324219 19.425781 C 43.875 19.351562 43.574219 18.75 43.050781 18.148438 C 42.148438 17.175781 39.523438 14.851562 39.675781 14.023438 C 39.675781 13.648438 40.425781 13.125 40.800781 13.199219 C 41.25 13.351562 41.699219 14.773438 41.925781 15.824219 C 42.300781 17.25 42.300781 19.875 42.148438 21 C 42.074219 21.523438 42 21.898438 41.699219 22.199219 C 41.398438 22.5 40.800781 22.800781 40.199219 22.648438 C 38.625 22.273438 33.898438 17.476562 33.375 15.976562 C 33.226562 15.375 33.375 14.699219 33.675781 14.476562 C 34.050781 14.25 35.25 14.625 35.25 14.625 " clip-rule="nonzero"/></clipPath><clipPath id="5bf70c6c42"><path d="M 45.382812 0.753906 L 60.691406 0.753906 L 60.691406 13.570312 L 45.382812 13.570312 Z M 45.382812 0.753906 " clip-rule="nonzero"/></clipPath><clipPath id="eaaee3cace"><path d="M 47.25 4.574219 C 55.949219 12 55.949219 12.523438 55.800781 12.824219 C 55.648438 13.199219 55.125 13.574219 54.601562 13.5 C 53.25 13.273438 49.425781 9.148438 48.449219 6.976562 C 47.699219 5.398438 47.398438 3.226562 48 2.25 C 48.523438 1.351562 49.875 0.75 51.074219 0.824219 C 53.101562 0.976562 57.148438 4.125 58.800781 5.773438 C 59.773438 6.898438 60.675781 8.175781 60.675781 9 C 60.75 9.449219 60.523438 9.898438 60.226562 10.125 C 59.925781 10.351562 59.324219 10.5 59.023438 10.351562 C 58.648438 10.273438 58.199219 9.824219 58.125 9.523438 C 57.976562 9.148438 58.050781 8.550781 58.351562 8.25 C 58.648438 7.949219 59.851562 7.800781 60.226562 8.101562 C 60.601562 8.324219 60.75 9.300781 60.601562 9.675781 C 60.375 10.050781 59.324219 10.425781 58.726562 10.273438 C 57.976562 10.050781 57.675781 8.550781 56.699219 7.574219 C 55.273438 6.226562 51.074219 2.925781 50.398438 3.300781 C 50.023438 3.523438 50.25 4.800781 50.625 5.699219 C 51.300781 7.351562 55.351562 10.351562 55.800781 11.699219 C 55.949219 12.300781 55.875 12.824219 55.648438 13.125 C 55.425781 13.351562 55.050781 13.574219 54.601562 13.5 C 52.949219 13.273438 46.273438 7.800781 45.601562 6.148438 C 45.300781 5.550781 45.449219 4.875 45.75 4.648438 C 45.976562 4.351562 47.25 4.574219 47.25 4.574219 " clip-rule="nonzero"/></clipPath></defs><g mask="url(#b0b8edad29)"><g transform="matrix(1, 0, 0, 1, 10, 53)"><g clip-path="url(#a6fb663b4f)"><g clip-path="url(#22a51c71a2)"><g clip-path="url(#22eee5c509)"><path fill="#0841d4" d="M 0.386719 0.398438 L 8.9375 0.398438 L 8.9375 24.011719 L 0.386719 24.011719 Z M 0.386719 0.398438 " fill-opacity="1" fill-rule="nonzero"/></g></g></g></g></g><g mask="url(#909500e06d)"><g transform="matrix(1, 0, 0, 1, 10, 53)"><g clip-path="url(#bb9e81db4e)"><g clip-path="url(#c582359ba5)"><g clip-path="url(#6de80ca252)"><path fill="#0841d4" d="M 0.539062 0.175781 L 17.9375 0.175781 L 17.9375 23.488281 L 0.539062 23.488281 Z M 0.539062 0.175781 " fill-opacity="1" fill-rule="nonzero"/></g></g></g></g></g><g mask="url(#d43b1efbdf)"><g transform="matrix(1, 0, 0, 1, 24, 55)"><g clip-path="url(#b18ff548a4)"><g clip-path="url(#42040a5102)"><g clip-path="url(#0001a614ff)"><path fill="#0841d4" d="M 0.414062 0.875 L 17.511719 0.875 L 17.511719 22.117188 L 0.414062 22.117188 Z M 0.414062 0.875 " fill-opacity="1" fill-rule="nonzero"/></g></g></g></g></g><g mask="url(#6a1625bd6c)"><g transform="matrix(1, 0, 0, 1, 28, 65)"><g clip-path="url(#482865b824)"><g clip-path="url(#d2f558f0e2)"><g clip-path="url(#712293e32e)"><path fill="#0841d4" d="M 0.554688 0.699219 L 9.355469 0.699219 L 9.355469 7.011719 L 0.554688 7.011719 Z M 0.554688 0.699219 " fill-opacity="1" fill-rule="nonzero"/></g></g></g></g></g><g mask="url(#d5f563f58c)"><g transform="matrix(1, 0, 0, 1, 35, 54)"><g clip-path="url(#08e4fc17b7)"><g clip-path="url(#998a2cde86)"><g clip-path="url(#b747e2c1d8)"><path fill="#0841d4" d="M 0.960938 0.976562 L 17.238281 0.976562 L 17.238281 22.78125 L 0.960938 22.78125 Z M 0.960938 0.976562 " fill-opacity="1" fill-rule="nonzero"/></g></g></g></g></g><g mask="url(#ebf5901037)"><g transform="matrix(1, 0, 0, 1, 9, -0.000000000000001887)"><g clip-path="url(#7925a71d53)"><g clip-path="url(#257eed5ab7)"><g clip-path="url(#8719fc6f68)"><path fill="#0841d4" d="M 0.710938 0.542969 L 56.257812 0.542969 L 56.257812 55.875 L 0.710938 55.875 Z M 0.710938 0.542969 " fill-opacity="1" fill-rule="nonzero"/></g></g></g></g></g><g mask="url(#3db96ef610)"><g transform="matrix(1, 0, 0, 1, 47, 55)"><g clip-path="url(#6d865af3e1)"><g clip-path="url(#295c6cfc8b)"><g clip-path="url(#2c52cdb9d4)"><path fill="#0841d4" d="M 0.738281 0.199219 L 17.613281 0.199219 L 17.613281 21.226562 L 0.738281 21.226562 Z M 0.738281 0.199219 " fill-opacity="1" fill-rule="nonzero"/></g></g></g></g></g><g mask="url(#d847f2bc0a)"><g transform="matrix(1, 0, 0, 1, 51, 60)"><g clip-path="url(#24fa9a31bc)"><g clip-path="url(#57f0a629fd)"><g clip-path="url(#7476c80039)"><path fill="#0841d4" d="M 0.488281 1.125 L 11.578125 1.125 L 11.578125 9.601562 L 0.488281 9.601562 Z M 0.488281 1.125 " fill-opacity="1" fill-rule="nonzero"/></g></g></g></g></g><g clip-path="url(#a5781c58bb)"><g clip-path="url(#9b68b7984c)"><path fill="#fffb47" d="M 3.601562 15.375 L 22.273438 15.375 L 22.273438 42.585938 L 3.601562 42.585938 Z M 3.601562 15.375 " fill-opacity="1" fill-rule="nonzero"/></g></g><g clip-path="url(#dbfdb639d8)"><g clip-path="url(#7fb7c672c2)"><path fill="#fffb47" d="M 18.523438 13.949219 L 36.601562 13.949219 L 36.601562 34.992188 L 18.523438 34.992188 Z M 18.523438 13.949219 " fill-opacity="1" fill-rule="nonzero"/></g></g><g clip-path="url(#ca6fdb3a3e)"><g clip-path="url(#c8bd004494)"><path fill="#fffb47" d="M 30.375 4.574219 L 48.976562 4.574219 L 48.976562 25.644531 L 30.375 25.644531 Z M 30.375 4.574219 " fill-opacity="1" fill-rule="nonzero"/></g></g><g clip-path="url(#5bf70c6c42)"><g clip-path="url(#eaaee3cace)"><path fill="#fffb47" d="M 42.601562 -2.175781 L 63.765625 -2.175781 L 63.765625 16.574219 L 42.601562 16.574219 Z M 42.601562 -2.175781 " fill-opacity="1" fill-rule="nonzero"/></g></g></svg>