<svg xmlns="http://www.w3.org/2000/svg" xmlns:xlink="http://www.w3.org/1999/xlink" width="100" zoomAndPan="magnify" viewBox="0 0 75 74.999997" height="100" preserveAspectRatio="xMidYMid meet" version="1.0"><defs><clipPath id="38661031d7"><path d="M 37.5 0 C 16.789062 0 0 16.789062 0 37.5 C 0 58.210938 16.789062 75 37.5 75 C 58.210938 75 75 58.210938 75 37.5 C 75 16.789062 58.210938 0 37.5 0 Z M 37.5 0 " clip-rule="nonzero"/></clipPath><clipPath id="e01d8ff49a"><path d="M 6.289062 6.171875 L 68.675781 6.171875 L 68.675781 68.828125 L 6.289062 68.828125 Z M 6.289062 6.171875 " clip-rule="nonzero"/></clipPath><clipPath id="efeb07d817"><path d="M 68.578125 37.5 C 65.878906 50.574219 64.21875 53.6875 62.25 56.28125 C 60.171875 58.980469 57.683594 61.367188 54.882812 63.234375 C 52.183594 65.101562 48.964844 66.554688 45.75 67.488281 C 42.53125 68.320312 39.109375 68.734375 35.789062 68.527344 C 32.46875 68.320312 29.042969 67.59375 25.929688 66.347656 C 22.816406 65.101562 19.808594 63.339844 17.316406 61.160156 C 14.722656 59.082031 12.441406 56.386719 10.78125 53.480469 C 9.015625 50.679688 7.769531 47.359375 7.042969 44.140625 C 6.316406 40.925781 6.109375 37.394531 6.523438 34.074219 C 6.835938 30.753906 7.769531 27.433594 9.222656 24.425781 C 10.570312 21.414062 12.542969 18.40625 14.828125 16.019531 C 17.109375 13.632812 19.910156 11.453125 22.816406 9.898438 C 25.824219 8.445312 29.148438 7.304688 32.363281 6.785156 C 35.683594 6.160156 39.210938 6.160156 42.53125 6.785156 C 45.75 7.304688 49.070312 8.445312 52.078125 10 C 54.984375 11.453125 57.785156 13.632812 60.070312 16.019531 C 62.351562 18.40625 64.324219 21.414062 65.671875 24.425781 C 67.125 27.433594 68.058594 30.753906 68.371094 34.074219 C 68.785156 37.394531 68.578125 40.925781 67.851562 44.140625 C 67.125 47.359375 65.777344 50.679688 64.117188 53.480469 C 62.457031 56.386719 60.070312 59.082031 57.578125 61.160156 C 55.089844 63.339844 52.078125 65.101562 48.964844 66.347656 C 45.851562 67.59375 42.429688 68.320312 39.109375 68.527344 C 35.789062 68.734375 32.257812 68.320312 29.148438 67.488281 C 25.929688 66.554688 22.714844 65.101562 20.015625 63.234375 C 17.214844 61.367188 14.617188 58.875 12.648438 56.28125 C 10.675781 53.6875 9.015625 50.574219 7.976562 47.359375 C 6.835938 44.246094 6.421875 40.507812 6.316406 37.5 C 6.214844 34.800781 6.628906 32.414062 7.25 30.027344 C 7.769531 27.640625 8.703125 25.152344 9.847656 22.972656 C 10.988281 20.792969 12.441406 18.613281 14.101562 16.851562 C 15.761719 14.980469 17.730469 13.21875 19.703125 11.871094 C 21.777344 10.417969 24.0625 9.171875 26.34375 8.339844 C 28.730469 7.40625 31.222656 6.785156 33.710938 6.578125 C 36.097656 6.265625 38.691406 6.265625 41.183594 6.472656 C 43.675781 6.785156 46.164062 7.40625 48.449219 8.339844 C 50.835938 9.171875 53.117188 10.417969 55.089844 11.765625 C 57.164062 13.21875 59.136719 14.878906 60.691406 16.746094 C 62.351562 18.613281 63.804688 20.792969 65.050781 22.972656 C 66.191406 25.152344 67.023438 27.539062 67.644531 29.925781 C 68.265625 32.414062 68.578125 37.394531 68.578125 37.394531 " clip-rule="nonzero"/></clipPath><clipPath id="2cb63390af"><path d="M 41.101562 34.648438 L 71.722656 34.648438 L 71.722656 41.699219 L 41.101562 41.699219 Z M 41.101562 34.648438 " clip-rule="nonzero"/></clipPath><clipPath id="7e92079358"><path d="M 44.625 34.648438 L 68.175781 34.648438 C 70.121094 34.648438 71.699219 36.226562 71.699219 38.175781 C 71.699219 40.121094 70.121094 41.699219 68.175781 41.699219 L 44.625 41.699219 C 42.679688 41.699219 41.101562 40.121094 41.101562 38.175781 C 41.101562 36.226562 42.679688 34.648438 44.625 34.648438 Z M 44.625 34.648438 " clip-rule="nonzero"/></clipPath></defs><g clip-path="url(#38661031d7)"><rect x="-7.5" width="90" fill="#ffffff" y="-7.5" height="89.999996" fill-opacity="1"/></g><g clip-path="url(#e01d8ff49a)"><g clip-path="url(#efeb07d817)"><path fill="#0841d4" d="M 2.167969 2.324219 L 72.796875 2.324219 L 72.796875 72.675781 L 2.167969 72.675781 Z M 2.167969 2.324219 " fill-opacity="1" fill-rule="nonzero"/></g></g><g clip-path="url(#2cb63390af)"><g clip-path="url(#7e92079358)"><path fill="#ffffff" d="M 41.101562 34.648438 L 71.695312 34.648438 L 71.695312 41.699219 L 41.101562 41.699219 Z M 41.101562 34.648438 " fill-opacity="1" fill-rule="nonzero"/></g></g></svg>