<svg xmlns="http://www.w3.org/2000/svg" xmlns:xlink="http://www.w3.org/1999/xlink" width="100" zoomAndPan="magnify" viewBox="0 0 75 74.999997" height="100" preserveAspectRatio="xMidYMid meet" version="1.0"><defs><g/><clipPath id="f825149e25"><path d="M 12.953125 3.570312 L 62 3.570312 L 62 52.847656 L 12.953125 52.847656 Z M 12.953125 3.570312 " clip-rule="nonzero"/></clipPath><clipPath id="3584b83799"><path d="M 61.941406 28.210938 C 59.820312 38.492188 58.515625 40.941406 56.964844 42.980469 C 55.332031 45.101562 53.371094 46.980469 51.167969 48.449219 C 49.046875 49.917969 46.519531 51.058594 43.988281 51.792969 C 41.457031 52.449219 38.765625 52.773438 36.152344 52.609375 C 33.542969 52.449219 30.847656 51.875 28.402344 50.898438 C 25.953125 49.917969 23.585938 48.53125 21.628906 46.816406 C 19.585938 45.183594 17.792969 43.0625 16.484375 40.777344 C 15.097656 38.574219 14.121094 35.960938 13.546875 33.433594 C 12.976562 30.902344 12.8125 28.128906 13.140625 25.515625 C 13.386719 22.90625 14.121094 20.292969 15.261719 17.925781 C 16.324219 15.5625 17.875 13.195312 19.667969 11.316406 C 21.464844 9.441406 23.667969 7.726562 25.953125 6.503906 C 28.320312 5.359375 30.929688 4.460938 33.460938 4.054688 C 36.070312 3.5625 38.847656 3.5625 41.457031 4.054688 C 43.988281 4.460938 46.597656 5.359375 48.964844 6.582031 C 51.25 7.726562 53.453125 9.441406 55.25 11.316406 C 57.046875 13.195312 58.59375 15.5625 59.65625 17.925781 C 60.800781 20.292969 61.535156 22.90625 61.777344 25.515625 C 62.105469 28.128906 61.941406 30.902344 61.371094 33.433594 C 60.800781 35.960938 59.738281 38.574219 58.433594 40.777344 C 57.125 43.0625 55.25 45.183594 53.292969 46.816406 C 51.332031 48.53125 48.964844 49.917969 46.519531 50.898438 C 44.070312 51.875 41.375 52.449219 38.765625 52.609375 C 36.152344 52.773438 33.378906 52.449219 30.929688 51.792969 C 28.402344 51.058594 25.871094 49.917969 23.75 48.449219 C 21.546875 46.980469 19.503906 45.019531 17.953125 42.980469 C 16.40625 40.941406 15.097656 38.492188 14.28125 35.960938 C 13.386719 33.515625 13.058594 30.578125 12.976562 28.210938 C 12.894531 26.089844 13.222656 24.210938 13.710938 22.335938 C 14.121094 20.457031 14.855469 18.5 15.75 16.785156 C 16.648438 15.070312 17.792969 13.355469 19.097656 11.96875 C 20.402344 10.5 21.953125 9.113281 23.503906 8.054688 C 25.136719 6.910156 26.933594 5.929688 28.726562 5.277344 C 30.605469 4.542969 32.5625 4.054688 34.519531 3.890625 C 36.398438 3.644531 38.4375 3.644531 40.398438 3.808594 C 42.355469 4.054688 44.3125 4.542969 46.109375 5.277344 C 47.988281 5.929688 49.78125 6.910156 51.332031 7.972656 C 52.964844 9.113281 54.515625 10.417969 55.738281 11.886719 C 57.046875 13.355469 58.1875 15.070312 59.167969 16.785156 C 60.066406 18.5 60.71875 20.375 61.207031 22.253906 C 61.695312 24.210938 61.941406 28.128906 61.941406 28.128906 " clip-rule="nonzero"/></clipPath><clipPath id="a533d75f0c"><path d="M 6.589844 18 L 19.285156 18 L 19.285156 39.59375 L 6.589844 39.59375 Z M 6.589844 18 " clip-rule="nonzero"/></clipPath><clipPath id="2b3ee5d90e"><path d="M 13.273438 20.550781 C 9.523438 21.148438 9.148438 23.023438 9.148438 24.074219 C 9.074219 24.976562 9.226562 25.800781 9.601562 26.398438 C 9.976562 27 10.5 27.523438 11.324219 27.824219 C 12.675781 28.199219 15.898438 27 17.175781 27.523438 C 18 27.824219 18.523438 28.574219 18.824219 29.324219 C 19.199219 30 19.351562 30.824219 19.199219 31.800781 C 19.050781 33.300781 18.226562 36.300781 17.023438 37.574219 C 15.976562 38.699219 14.175781 39.523438 12.824219 39.523438 C 11.476562 39.601562 9.300781 38.625 8.925781 37.875 C 8.699219 37.425781 8.925781 36.523438 9.226562 36.300781 C 9.601562 36 10.5 35.925781 10.875 36.148438 C 11.25 36.449219 11.476562 37.273438 11.398438 37.726562 C 11.324219 38.101562 10.875 38.476562 10.5 38.550781 C 10.125 38.699219 9.523438 38.550781 9.226562 38.324219 C 8.925781 38.023438 8.699219 37.125 8.925781 36.75 C 9.074219 36.375 9.75 36 10.351562 36 C 11.023438 35.925781 12 36.898438 12.824219 36.824219 C 13.574219 36.824219 14.398438 36.449219 15 35.773438 C 15.824219 34.875 16.574219 31.949219 16.5 30.898438 C 16.5 30.449219 16.425781 30.074219 16.050781 29.851562 C 15.300781 29.476562 12.675781 30.523438 11.398438 30.449219 C 10.5 30.449219 9.824219 30.300781 9.148438 29.925781 C 8.476562 29.550781 7.949219 28.875 7.574219 28.125 C 7.050781 27.226562 6.601562 25.800781 6.601562 24.601562 C 6.523438 23.25 6.976562 21.601562 7.5 20.476562 C 7.875 19.648438 8.324219 18.824219 9.148438 18.449219 C 10.273438 17.925781 13.050781 17.925781 13.800781 18.375 C 14.25 18.601562 14.476562 19.199219 14.398438 19.574219 C 14.324219 19.949219 13.273438 20.550781 13.273438 20.550781 " clip-rule="nonzero"/></clipPath><clipPath id="78a2ac5833"><path d="M 21.492188 16.914062 L 33.632812 16.914062 L 33.632812 32.09375 L 21.492188 32.09375 Z M 21.492188 16.914062 " clip-rule="nonzero"/></clipPath><clipPath id="58db7c9702"><path d="M 22.800781 25.574219 C 26.773438 22.050781 28.726562 19.125 28.425781 18.824219 C 28.199219 18.523438 25.726562 19.726562 25.050781 20.773438 C 24.226562 21.976562 23.773438 24.375 24.226562 25.875 C 24.601562 27.226562 26.476562 29.175781 27.523438 29.398438 C 28.351562 29.550781 29.175781 28.875 29.925781 28.425781 C 30.75 27.824219 31.5 25.949219 32.175781 25.800781 C 32.699219 25.726562 33.375 26.324219 33.523438 26.699219 C 33.675781 27.074219 33.375 27.976562 33.074219 28.199219 C 32.773438 28.5 32.175781 28.574219 31.800781 28.425781 C 31.425781 28.199219 30.976562 27.449219 30.976562 27 C 30.976562 26.699219 31.273438 26.175781 31.648438 26.023438 C 32.023438 25.800781 32.925781 25.949219 33.226562 26.25 C 33.523438 26.550781 33.601562 27.226562 33.449219 27.824219 C 33.148438 28.875 31.425781 30.824219 30.148438 31.5 C 29.101562 32.023438 27.601562 32.175781 26.550781 31.949219 C 25.648438 31.726562 24.898438 31.199219 24.226562 30.523438 C 23.398438 29.699219 22.425781 28.425781 21.976562 27.300781 C 21.523438 26.101562 21.449219 24.824219 21.523438 23.625 C 21.601562 22.425781 21.898438 21.074219 22.425781 20.101562 C 22.875 19.199219 23.550781 18.375 24.449219 17.851562 C 25.425781 17.25 27.074219 16.875 28.125 16.949219 C 29.101562 16.949219 30.226562 17.324219 30.601562 17.851562 C 30.976562 18.449219 30.898438 19.351562 30.601562 20.25 C 30.148438 21.675781 28.273438 24.226562 26.925781 25.5 C 25.800781 26.550781 24.300781 27.675781 23.398438 27.675781 C 22.949219 27.675781 22.425781 27.375 22.273438 27 C 22.199219 26.625 22.800781 25.574219 22.800781 25.574219 " clip-rule="nonzero"/></clipPath><clipPath id="f0e5813a5e"><path d="M 33.28125 7.410156 L 46.359375 7.410156 L 46.359375 22.738281 L 33.28125 22.738281 Z M 33.28125 7.410156 " clip-rule="nonzero"/></clipPath><clipPath id="1486bd5150"><path d="M 35.25 14.625 C 40.949219 20.476562 40.199219 21.226562 39.898438 21.148438 C 39.148438 20.925781 37.425781 13.273438 38.25 12.226562 C 38.699219 11.699219 39.898438 11.851562 40.800781 12.226562 C 42.226562 12.824219 45.75 16.5 45.523438 17.175781 C 45.449219 17.398438 44.398438 17.625 44.101562 17.398438 C 43.648438 17.101562 43.949219 15.898438 43.5 15 C 42.75 13.425781 39.074219 10.574219 38.773438 9.226562 C 38.625 8.625 38.851562 7.949219 39.148438 7.726562 C 39.523438 7.5 40.800781 7.648438 41.023438 7.949219 C 41.25 8.324219 41.023438 9.601562 40.648438 9.824219 C 40.273438 10.050781 39.074219 9.75 38.851562 9.375 C 38.625 9 39 7.800781 39.375 7.574219 C 39.75 7.351562 40.351562 7.5 40.949219 7.875 C 42.226562 8.625 44.851562 11.476562 45.675781 13.5 C 46.351562 15.148438 46.574219 17.925781 45.976562 18.824219 C 45.675781 19.273438 44.851562 19.574219 44.324219 19.425781 C 43.875 19.351562 43.574219 18.75 43.050781 18.148438 C 42.148438 17.175781 39.523438 14.851562 39.675781 14.023438 C 39.675781 13.648438 40.425781 13.125 40.800781 13.199219 C 41.25 13.351562 41.699219 14.773438 41.925781 15.824219 C 42.300781 17.25 42.300781 19.875 42.148438 21 C 42.074219 21.523438 42 21.898438 41.699219 22.199219 C 41.398438 22.5 40.800781 22.800781 40.199219 22.648438 C 38.625 22.273438 33.898438 17.476562 33.375 15.976562 C 33.226562 15.375 33.375 14.699219 33.675781 14.476562 C 34.050781 14.25 35.25 14.625 35.25 14.625 " clip-rule="nonzero"/></clipPath><clipPath id="c71a42204d"><path d="M 45.382812 0.753906 L 60.691406 0.753906 L 60.691406 13.570312 L 45.382812 13.570312 Z M 45.382812 0.753906 " clip-rule="nonzero"/></clipPath><clipPath id="a9f0d0d2a3"><path d="M 47.25 4.574219 C 55.949219 12 55.949219 12.523438 55.800781 12.824219 C 55.648438 13.199219 55.125 13.574219 54.601562 13.5 C 53.25 13.273438 49.425781 9.148438 48.449219 6.976562 C 47.699219 5.398438 47.398438 3.226562 48 2.25 C 48.523438 1.351562 49.875 0.75 51.074219 0.824219 C 53.101562 0.976562 57.148438 4.125 58.800781 5.773438 C 59.773438 6.898438 60.675781 8.175781 60.675781 9 C 60.75 9.449219 60.523438 9.898438 60.226562 10.125 C 59.925781 10.351562 59.324219 10.5 59.023438 10.351562 C 58.648438 10.273438 58.199219 9.824219 58.125 9.523438 C 57.976562 9.148438 58.050781 8.550781 58.351562 8.25 C 58.648438 7.949219 59.851562 7.800781 60.226562 8.101562 C 60.601562 8.324219 60.75 9.300781 60.601562 9.675781 C 60.375 10.050781 59.324219 10.425781 58.726562 10.273438 C 57.976562 10.050781 57.675781 8.550781 56.699219 7.574219 C 55.273438 6.226562 51.074219 2.925781 50.398438 3.300781 C 50.023438 3.523438 50.25 4.800781 50.625 5.699219 C 51.300781 7.351562 55.351562 10.351562 55.800781 11.699219 C 55.949219 12.300781 55.875 12.824219 55.648438 13.125 C 55.425781 13.351562 55.050781 13.574219 54.601562 13.5 C 52.949219 13.273438 46.273438 7.800781 45.601562 6.148438 C 45.300781 5.550781 45.449219 4.875 45.75 4.648438 C 45.976562 4.351562 47.25 4.574219 47.25 4.574219 " clip-rule="nonzero"/></clipPath></defs><g clip-path="url(#f825149e25)"><g clip-path="url(#3584b83799)"><path fill="#0841d4" d="M 9.710938 0.542969 L 65.257812 0.542969 L 65.257812 55.875 L 9.710938 55.875 Z M 9.710938 0.542969 " fill-opacity="1" fill-rule="nonzero"/></g></g><g clip-path="url(#a533d75f0c)"><g clip-path="url(#2b3ee5d90e)"><path fill="#fffb47" d="M 3.601562 15.375 L 22.273438 15.375 L 22.273438 42.585938 L 3.601562 42.585938 Z M 3.601562 15.375 " fill-opacity="1" fill-rule="nonzero"/></g></g><g clip-path="url(#78a2ac5833)"><g clip-path="url(#58db7c9702)"><path fill="#fffb47" d="M 18.523438 13.949219 L 36.601562 13.949219 L 36.601562 34.992188 L 18.523438 34.992188 Z M 18.523438 13.949219 " fill-opacity="1" fill-rule="nonzero"/></g></g><g clip-path="url(#f0e5813a5e)"><g clip-path="url(#1486bd5150)"><path fill="#fffb47" d="M 30.375 4.574219 L 48.976562 4.574219 L 48.976562 25.644531 L 30.375 25.644531 Z M 30.375 4.574219 " fill-opacity="1" fill-rule="nonzero"/></g></g><g clip-path="url(#c71a42204d)"><g clip-path="url(#a9f0d0d2a3)"><path fill="#fffb47" d="M 42.601562 -2.175781 L 63.765625 -2.175781 L 63.765625 16.574219 L 42.601562 16.574219 Z M 42.601562 -2.175781 " fill-opacity="1" fill-rule="nonzero"/></g></g><g fill="#0841d4" fill-opacity="1"><g transform="translate(19.505859, 69.375013)"><g><path d="M 1.15625 -10.46875 L 4.828125 -10.46875 C 5.859375 -10.46875 6.644531 -10.21875 7.1875 -9.71875 C 7.738281 -9.21875 8.015625 -8.539062 8.015625 -7.6875 C 8.015625 -7.082031 7.863281 -6.601562 7.5625 -6.25 C 7.269531 -5.894531 6.847656 -5.632812 6.296875 -5.46875 L 6.296875 -5.390625 C 6.953125 -5.222656 7.457031 -4.9375 7.8125 -4.53125 C 8.164062 -4.132812 8.34375 -3.582031 8.34375 -2.875 C 8.34375 -2 8.0625 -1.300781 7.5 -0.78125 C 6.945312 -0.257812 6.171875 0 5.171875 0 L 1.15625 0 Z M 4.484375 -1.578125 C 5.023438 -1.578125 5.421875 -1.664062 5.671875 -1.84375 C 5.921875 -2.019531 6.046875 -2.347656 6.046875 -2.828125 L 6.046875 -3.265625 C 6.046875 -3.742188 5.921875 -4.070312 5.671875 -4.25 C 5.421875 -4.4375 5.023438 -4.53125 4.484375 -4.53125 L 3.34375 -4.53125 L 3.34375 -1.578125 Z M 4.203125 -6.03125 C 4.734375 -6.03125 5.117188 -6.117188 5.359375 -6.296875 C 5.597656 -6.472656 5.71875 -6.789062 5.71875 -7.25 L 5.71875 -7.6875 C 5.71875 -8.15625 5.597656 -8.472656 5.359375 -8.640625 C 5.117188 -8.804688 4.734375 -8.890625 4.203125 -8.890625 L 3.34375 -8.890625 L 3.34375 -6.03125 Z M 4.203125 -6.03125 "/></g></g></g><g fill="#0841d4" fill-opacity="1"><g transform="translate(28.498878, 69.375013)"><g><path d="M 6.53125 0 L 5.859375 -2.515625 L 3 -2.515625 L 2.359375 0 L 0.078125 0 L 2.90625 -10.46875 L 6.09375 -10.46875 L 8.921875 0 Z M 4.5 -8.296875 L 4.375 -8.296875 L 3.359375 -4.328125 L 5.515625 -4.328125 Z M 4.5 -8.296875 "/></g></g></g><g fill="#0841d4" fill-opacity="1"><g transform="translate(37.491896, 69.375013)"><g><path d="M 4.328125 0.1875 C 3.453125 0.1875 2.6875 0.0390625 2.03125 -0.25 C 1.382812 -0.539062 0.863281 -0.9375 0.46875 -1.4375 L 1.765625 -2.875 C 2.148438 -2.457031 2.566406 -2.148438 3.015625 -1.953125 C 3.472656 -1.753906 3.9375 -1.65625 4.40625 -1.65625 C 4.945312 -1.65625 5.359375 -1.773438 5.640625 -2.015625 C 5.921875 -2.253906 6.0625 -2.597656 6.0625 -3.046875 C 6.0625 -3.410156 5.953125 -3.6875 5.734375 -3.875 C 5.523438 -4.070312 5.164062 -4.210938 4.65625 -4.296875 L 3.5625 -4.46875 C 2.613281 -4.625 1.929688 -4.96875 1.515625 -5.5 C 1.097656 -6.039062 0.890625 -6.695312 0.890625 -7.46875 C 0.890625 -8.476562 1.21875 -9.257812 1.875 -9.8125 C 2.53125 -10.375 3.457031 -10.65625 4.65625 -10.65625 C 5.457031 -10.65625 6.160156 -10.53125 6.765625 -10.28125 C 7.367188 -10.03125 7.851562 -9.6875 8.21875 -9.25 L 6.9375 -7.828125 C 6.664062 -8.140625 6.335938 -8.378906 5.953125 -8.546875 C 5.578125 -8.722656 5.148438 -8.8125 4.671875 -8.8125 C 3.660156 -8.8125 3.15625 -8.398438 3.15625 -7.578125 C 3.15625 -7.210938 3.265625 -6.941406 3.484375 -6.765625 C 3.710938 -6.585938 4.082031 -6.453125 4.59375 -6.359375 L 5.6875 -6.171875 C 6.53125 -6.015625 7.179688 -5.691406 7.640625 -5.203125 C 8.109375 -4.710938 8.34375 -4.050781 8.34375 -3.21875 C 8.34375 -2.726562 8.253906 -2.273438 8.078125 -1.859375 C 7.910156 -1.453125 7.65625 -1.09375 7.3125 -0.78125 C 6.976562 -0.476562 6.5625 -0.238281 6.0625 -0.0625 C 5.570312 0.101562 4.992188 0.1875 4.328125 0.1875 Z M 4.328125 0.1875 "/></g></g></g><g fill="#0841d4" fill-opacity="1"><g transform="translate(46.484914, 69.375013)"><g><path d="M 1.203125 0 L 1.203125 -10.46875 L 7.890625 -10.46875 L 7.890625 -8.625 L 3.453125 -8.625 L 3.453125 -6.21875 L 7.734375 -6.21875 L 7.734375 -4.375 L 3.453125 -4.375 L 3.453125 -1.84375 L 7.890625 -1.84375 L 7.890625 0 Z M 1.203125 0 "/></g></g></g></svg>