<svg xmlns="http://www.w3.org/2000/svg" xmlns:xlink="http://www.w3.org/1999/xlink" width="500" zoomAndPan="magnify" viewBox="0 0 375 74.999997" height="100" preserveAspectRatio="xMidYMid meet" version="1.0"><defs><clipPath id="81f16c1a48"><path d="M 2.066406 19.558594 L 14.71875 19.558594 L 14.71875 60.625 L 2.066406 60.625 Z M 2.066406 19.558594 " clip-rule="nonzero"/></clipPath><clipPath id="812328c779"><path d="M 14.660156 21.605469 C 5.441406 60.171875 4.707031 60.539062 4.042969 60.539062 C 3.453125 60.539062 2.714844 59.949219 2.347656 59.507812 C 2.125 59.136719 2.050781 58.621094 2.125 58.179688 C 2.199219 57.664062 2.789062 56.851562 3.230469 56.558594 C 3.597656 56.335938 4.117188 56.261719 4.558594 56.335938 C 4.925781 56.410156 5.441406 56.632812 5.738281 57 C 6.03125 57.441406 6.402344 58.328125 6.253906 58.917969 C 6.03125 59.507812 4.925781 60.390625 4.261719 60.539062 C 3.820312 60.613281 3.378906 60.464844 3.007812 60.171875 C 2.566406 59.800781 2.199219 59.210938 2.125 58.402344 C 1.902344 56.851562 3.671875 53.828125 4.335938 50.953125 C 5.148438 47.191406 5.371094 42.472656 6.328125 37.753906 C 7.507812 32.371094 9.203125 22.339844 11.269531 20.351562 C 12.007812 19.613281 13.113281 19.464844 13.703125 19.761719 C 14.21875 19.980469 14.660156 21.605469 14.660156 21.605469 " clip-rule="nonzero"/></clipPath><clipPath id="f2bdbb5ff9"><path d="M 15.105469 21 L 28.742188 21 L 28.742188 63.59375 L 15.105469 63.59375 Z M 15.105469 21 " clip-rule="nonzero"/></clipPath><clipPath id="511c311b2d"><path d="M 28.671875 23.003906 C 27.34375 30.675781 24.984375 35.835938 23.582031 40.925781 C 21.886719 47.191406 20.632812 59.65625 19.085938 62.382812 C 18.570312 63.121094 18.199219 63.488281 17.609375 63.5625 C 17.019531 63.636719 15.765625 63.121094 15.472656 62.53125 C 15.175781 61.941406 15.398438 60.613281 15.839844 60.171875 C 16.210938 59.726562 17.09375 59.507812 17.609375 59.65625 C 18.273438 59.875 19.085938 60.90625 19.160156 61.5 C 19.234375 62.089844 18.863281 62.898438 18.421875 63.195312 C 17.980469 63.5625 17.09375 63.710938 16.578125 63.488281 C 15.988281 63.269531 15.398438 62.605469 15.25 61.5 C 14.585938 58.179688 18.125 46.453125 19.824219 40.113281 C 21.222656 35.023438 23.65625 29.640625 24.394531 26.398438 C 24.761719 24.703125 24.394531 23.300781 24.984375 22.339844 C 25.425781 21.679688 26.460938 20.941406 27.050781 21.015625 C 27.710938 21.160156 28.671875 23.003906 28.671875 23.003906 " clip-rule="nonzero"/></clipPath><clipPath id="c5fae2d255"><path d="M 2.886719 29.195312 L 36.597656 29.195312 L 36.597656 34.867188 L 2.886719 34.867188 Z M 2.886719 29.195312 " clip-rule="nonzero"/></clipPath><clipPath id="c70999e64e"><path d="M 4.707031 29.199219 C 36.191406 31.484375 36.5625 32.296875 36.5625 32.886719 C 36.5625 33.476562 35.972656 34.214844 35.601562 34.507812 C 35.234375 34.730469 34.792969 34.804688 34.347656 34.730469 C 33.980469 34.65625 33.539062 34.507812 33.242188 34.214844 C 32.949219 33.84375 32.652344 32.960938 32.726562 32.445312 C 32.726562 32.074219 32.949219 31.632812 33.316406 31.410156 C 33.6875 31.042969 34.496094 30.746094 35.011719 30.894531 C 35.601562 31.117188 36.414062 32.148438 36.5625 32.738281 C 36.636719 33.109375 36.488281 33.550781 36.191406 33.917969 C 35.898438 34.289062 35.457031 34.582031 34.570312 34.730469 C 31.769531 35.320312 21.296875 33.179688 15.839844 32.886719 C 11.488281 32.664062 6.253906 33.84375 4.335938 32.8125 C 3.453125 32.371094 2.863281 31.484375 2.9375 30.894531 C 3.007812 30.304688 4.707031 29.199219 4.707031 29.199219 " clip-rule="nonzero"/></clipPath><clipPath id="9e3d71a76f"><path d="M 3 41.832031 L 33.855469 41.832031 L 33.855469 47.265625 L 3 47.265625 Z M 3 41.832031 " clip-rule="nonzero"/></clipPath><clipPath id="dfdf62d8ca"><path d="M 4.925781 42.324219 C 21.222656 41.808594 26.53125 41.589844 29.554688 42.472656 C 31.398438 42.988281 33.390625 43.949219 33.757812 44.757812 C 33.980469 45.128906 33.757812 45.644531 33.464844 46.011719 C 33.167969 46.453125 32.359375 46.972656 31.84375 46.972656 C 31.253906 47.042969 30.441406 46.601562 30.074219 46.160156 C 29.777344 45.863281 29.628906 45.347656 29.703125 44.90625 C 29.703125 44.390625 30.144531 43.578125 30.589844 43.210938 C 30.957031 42.988281 31.398438 42.914062 31.84375 42.914062 C 32.285156 42.914062 32.726562 43.0625 33.097656 43.429688 C 33.464844 43.800781 33.832031 44.613281 33.757812 45.203125 C 33.6875 45.71875 33.097656 46.453125 32.652344 46.75 C 32.285156 46.972656 31.769531 47.117188 31.398438 46.972656 C 30.808594 46.75 30.292969 45.203125 29.703125 45.128906 C 29.1875 45.128906 29.039062 46.085938 28.082031 46.382812 C 24.910156 47.488281 7.507812 47.707031 4.484375 46.085938 C 3.453125 45.570312 2.9375 44.613281 3.007812 44.019531 C 3.082031 43.359375 4.925781 42.324219 4.925781 42.324219 " clip-rule="nonzero"/></clipPath><clipPath id="b4fb18a4e7"><path d="M 35.4375 8.816406 L 56.839844 8.816406 L 56.839844 63.324219 L 35.4375 63.324219 Z M 35.4375 8.816406 " clip-rule="nonzero"/></clipPath><clipPath id="326c2712b9"><path d="M 46.886719 10.839844 C 45.707031 26.324219 43.640625 31.265625 42.609375 37.015625 C 41.355469 44.167969 41.574219 58.328125 39.953125 61.570312 C 39.363281 62.605469 38.773438 63.121094 38.109375 63.195312 C 37.371094 63.269531 36.265625 62.679688 35.824219 61.570312 C 34.570312 58.546875 38.183594 44.242188 39.804688 39.890625 C 40.542969 37.902344 40.914062 36.722656 42.167969 35.6875 C 43.640625 34.582031 46.441406 34.214844 48.285156 33.992188 C 49.835938 33.769531 51.53125 33.550781 52.488281 34.066406 C 53.226562 34.433594 53.597656 35.097656 53.964844 35.984375 C 54.480469 37.3125 54.257812 39.890625 54.703125 41.882812 C 55.21875 44.019531 56.988281 45.863281 56.765625 48.296875 C 56.472656 51.765625 52.933594 58.179688 50.277344 60.539062 C 48.507812 62.160156 46.371094 62.605469 44.230469 62.972656 C 42.019531 63.339844 38.332031 63.5625 37.152344 62.75 C 36.5625 62.382812 36.339844 61.570312 36.339844 60.980469 C 36.339844 60.390625 36.855469 59.582031 37.371094 59.285156 C 37.890625 58.917969 38.847656 58.917969 39.363281 59.136719 C 39.804688 59.285156 40.175781 59.65625 40.394531 60.097656 C 40.617188 60.613281 40.617188 61.570312 40.394531 62.089844 C 40.101562 62.605469 39.289062 63.195312 38.699219 63.195312 C 38.035156 63.195312 36.710938 62.53125 36.488281 61.867188 C 36.265625 61.203125 36.488281 59.949219 37.152344 59.359375 C 38.257812 58.476562 41.945312 59.210938 43.789062 58.695312 C 45.335938 58.328125 46.515625 58.179688 47.695312 57.148438 C 49.394531 55.671875 51.382812 51.394531 51.972656 49.550781 C 52.269531 48.667969 52.34375 48.296875 52.269531 47.339844 C 52.121094 45.792969 50.351562 42.769531 50.277344 41.070312 C 50.203125 39.890625 51.308594 38.492188 50.867188 37.976562 C 50.128906 37.3125 46.148438 37.53125 44.453125 39.15625 C 41.28125 42.25 41.796875 59.359375 39.734375 62.089844 C 39.070312 62.972656 38.257812 63.339844 37.59375 63.195312 C 36.929688 63.046875 36.121094 62.308594 35.75 61.054688 C 34.570312 57.367188 37.371094 42.988281 38.699219 35.910156 C 39.734375 30.527344 41.648438 26.472656 42.3125 21.972656 C 42.976562 17.992188 42.019531 12.3125 43.125 10.394531 C 43.640625 9.4375 44.597656 8.847656 45.1875 8.921875 C 45.851562 8.996094 46.886719 10.839844 46.886719 10.839844 " clip-rule="nonzero"/></clipPath><clipPath id="9f3bf5b594"><path d="M 58.253906 33.128906 L 82.304688 33.128906 L 82.304688 64.292969 L 58.253906 64.292969 Z M 58.253906 33.128906 " clip-rule="nonzero"/></clipPath><clipPath id="973a90d956"><path d="M 65.171875 35.320312 C 62.59375 52.058594 62.519531 54.269531 62.667969 55.671875 C 62.8125 56.484375 62.8125 57 63.257812 57.515625 C 63.917969 58.179688 65.691406 58.917969 66.871094 58.84375 C 68.121094 58.769531 69.375 57.882812 70.484375 57.074219 C 71.664062 56.1875 72.988281 55.15625 73.875 53.753906 C 74.832031 52.132812 75.347656 50.066406 75.941406 47.707031 C 76.75 44.464844 76.601562 37.753906 77.929688 36.058594 C 78.519531 35.246094 79.40625 34.953125 80.070312 35.023438 C 80.660156 35.023438 81.25 35.394531 81.617188 36.132812 C 82.648438 38.195312 82.355469 48.371094 81.101562 50.730469 C 80.511719 51.691406 79.480469 52.355469 78.816406 52.28125 C 78.152344 52.207031 76.972656 50.878906 76.972656 50.140625 C 76.972656 49.476562 78.152344 48.152344 78.816406 48.078125 C 79.480469 48.003906 80.585938 48.667969 81.101562 49.625 C 82.132812 51.839844 81.542969 61.5 80.144531 63.269531 C 79.554688 64.078125 78.371094 64.300781 77.710938 64.078125 C 77.046875 63.859375 76.308594 62.53125 76.308594 61.941406 C 76.234375 61.425781 76.457031 60.980469 76.824219 60.6875 C 77.191406 60.246094 78.078125 59.875 78.667969 59.949219 C 79.257812 60.023438 79.996094 60.613281 80.289062 61.054688 C 80.511719 61.5 80.660156 62.015625 80.511719 62.457031 C 80.289062 63.046875 79.257812 64.078125 78.59375 64.226562 C 78.003906 64.300781 77.121094 63.859375 76.75 63.414062 C 76.457031 63.121094 76.382812 62.824219 76.234375 62.160156 C 75.941406 60.097656 75.792969 51.027344 77.191406 49.183594 C 77.855469 48.371094 79.183594 47.929688 79.773438 48.226562 C 80.4375 48.445312 81.25 49.996094 81.101562 50.730469 C 80.953125 51.394531 79.480469 52.355469 78.816406 52.28125 C 78.152344 52.207031 77.339844 51.320312 76.972656 50.214844 C 76.085938 47.707031 76.457031 38.710938 77.710938 36.5 C 78.300781 35.542969 79.332031 34.953125 80.070312 35.023438 C 80.734375 35.023438 81.46875 35.835938 81.839844 36.648438 C 82.355469 37.976562 81.691406 40.554688 81.324219 42.914062 C 80.804688 46.011719 79.773438 50.804688 78.59375 53.535156 C 77.855469 55.453125 77.046875 56.777344 75.941406 58.105469 C 74.832031 59.285156 73.578125 60.171875 72.179688 60.980469 C 70.777344 61.867188 69.007812 62.898438 67.460938 63.121094 C 65.984375 63.269531 64.4375 63.121094 63.109375 62.457031 C 61.558594 61.71875 59.570312 60.023438 58.832031 58.105469 C 57.871094 55.746094 58.609375 52.28125 58.90625 48.816406 C 59.347656 44.539062 60.011719 36.574219 61.558594 34.507812 C 62.148438 33.625 63.109375 33.109375 63.773438 33.253906 C 64.363281 33.402344 65.171875 35.320312 65.171875 35.320312 " clip-rule="nonzero"/></clipPath><clipPath id="ba33a6f263"><path d="M 88.234375 34.628906 L 92.960938 34.628906 L 92.960938 62.496094 L 88.234375 62.496094 Z M 88.234375 34.628906 " clip-rule="nonzero"/></clipPath><clipPath id="cd8d925a44"><path d="M 92.828125 36.5 C 92.679688 61.71875 92.457031 61.941406 92.089844 62.160156 C 91.644531 62.382812 90.6875 62.605469 90.171875 62.382812 C 89.582031 62.089844 88.84375 60.835938 88.84375 60.246094 C 88.769531 59.800781 89.066406 59.285156 89.359375 58.992188 C 89.730469 58.621094 90.6875 58.328125 91.203125 58.328125 C 91.644531 58.402344 92.089844 58.621094 92.382812 58.992188 C 92.753906 59.359375 93.046875 60.316406 92.898438 60.835938 C 92.828125 61.425781 92.234375 62.160156 91.644531 62.382812 C 91.054688 62.53125 89.804688 62.308594 89.210938 61.71875 C 88.402344 60.761719 88.695312 58.476562 88.621094 55.96875 C 88.402344 51.320312 87.664062 38.785156 89.140625 36.058594 C 89.65625 35.097656 90.539062 34.507812 91.203125 34.65625 C 91.792969 34.730469 92.828125 36.5 92.828125 36.5 " clip-rule="nonzero"/></clipPath><clipPath id="c80c313a5a"><path d="M 89.800781 27.648438 L 93.34375 27.648438 L 93.34375 30.589844 L 89.800781 30.589844 Z M 89.800781 27.648438 " clip-rule="nonzero"/></clipPath><clipPath id="0faa618d74"><path d="M 93.34375 28.683594 C 91.71875 31.191406 90.320312 30.675781 89.949219 30.15625 C 89.65625 29.640625 89.949219 28.167969 90.394531 27.796875 C 90.910156 27.429688 92.828125 27.945312 92.828125 27.945312 " clip-rule="nonzero"/></clipPath><clipPath id="5e817c6d01"><path d="M 98.332031 10.265625 L 111.246094 10.265625 L 111.246094 63.476562 L 98.332031 63.476562 Z M 98.332031 10.265625 " clip-rule="nonzero"/></clipPath><clipPath id="d1687a879a"><path d="M 106.027344 12.3125 C 103.148438 38.34375 102.191406 38.859375 101.527344 38.785156 C 100.863281 38.710938 99.609375 37.164062 99.757812 36.792969 C 99.980469 36.351562 103.667969 36.351562 103.8125 36.792969 C 104.035156 37.164062 102.632812 38.636719 102.042969 38.785156 C 101.601562 38.933594 101.011719 38.710938 100.644531 38.492188 C 100.199219 38.121094 99.535156 37.089844 99.757812 36.792969 C 100.054688 36.277344 102.929688 35.910156 103.8125 36.867188 C 105.953125 39.082031 100.863281 55.96875 103.371094 58.546875 C 104.699219 59.949219 108.460938 58.03125 109.785156 58.769531 C 110.597656 59.210938 111.261719 60.246094 111.1875 60.90625 C 111.1875 61.644531 110.15625 62.75 109.492188 62.898438 C 108.902344 63.121094 107.941406 62.824219 107.574219 62.382812 C 107.058594 61.867188 106.835938 60.390625 107.132812 59.800781 C 107.351562 59.210938 108.238281 58.621094 108.828125 58.621094 C 109.492188 58.621094 110.820312 59.359375 111.113281 60.023438 C 111.335938 60.6875 111.039062 61.941406 110.375 62.53125 C 109.121094 63.5625 104.109375 63.636719 102.414062 63.269531 C 101.453125 63.121094 100.9375 62.898438 100.347656 62.308594 C 99.683594 61.5 99.390625 60.316406 99.09375 58.546875 C 98.503906 54.34375 97.472656 39.082031 99.757812 36.867188 C 100.714844 35.910156 103.667969 36.351562 103.8125 36.792969 C 104.035156 37.164062 102.707031 38.636719 102.042969 38.785156 C 101.527344 38.933594 100.644531 38.492188 100.273438 38.121094 C 99.90625 37.828125 99.535156 37.089844 99.757812 36.792969 C 100.054688 36.277344 103.667969 36.351562 103.8125 36.792969 C 104.035156 37.164062 102.707031 38.710938 102.042969 38.785156 C 101.378906 38.859375 100.273438 38.269531 99.832031 37.238281 C 98.578125 34.730469 100.199219 25.292969 100.789062 20.570312 C 101.234375 16.957031 101.378906 12.609375 102.484375 11.207031 C 103.078125 10.46875 103.960938 10.175781 104.476562 10.320312 C 105.140625 10.46875 106.027344 12.3125 106.027344 12.3125 " clip-rule="nonzero"/></clipPath><clipPath id="8751bdba07"><path d="M 114.074219 7.21875 L 138.699219 7.21875 L 138.699219 63.179688 L 114.074219 63.179688 Z M 114.074219 7.21875 " clip-rule="nonzero"/></clipPath><clipPath id="8f3e709a26"><path d="M 126.082031 40.335938 C 122.394531 39.082031 121.660156 39.226562 121.070312 39.746094 C 120.183594 40.40625 119.226562 41.589844 118.855469 43.285156 C 118.046875 46.382812 118.191406 56.777344 119.890625 57.738281 C 120.699219 58.253906 122.542969 57.515625 123.503906 56.113281 C 126.230469 52.132812 123.429688 31.855469 124.609375 23.152344 C 125.417969 17.253906 127.191406 10.617188 128.074219 8.550781 C 128.371094 7.960938 128.515625 7.742188 128.886719 7.519531 C 129.253906 7.296875 130.066406 7.152344 130.507812 7.371094 C 131.023438 7.59375 131.394531 8.109375 131.6875 9.066406 C 132.644531 12.386719 131.394531 27.726562 131.539062 32.519531 C 131.613281 34.65625 131.613281 35.910156 131.910156 37.164062 C 132.203125 38.046875 132.792969 38.269531 132.941406 39.226562 C 133.308594 41.441406 131.613281 46.898438 131.539062 49.996094 C 131.464844 52.355469 131.6875 54.863281 132.128906 56.261719 C 132.351562 57.074219 132.5 57.515625 133.089844 57.957031 C 133.972656 58.695312 136.996094 58.476562 137.808594 59.210938 C 138.398438 59.65625 138.691406 60.464844 138.621094 61.054688 C 138.621094 61.644531 138.101562 62.53125 137.511719 62.75 C 136.921875 63.046875 135.449219 62.824219 134.933594 62.382812 C 134.488281 62.015625 134.195312 61.054688 134.34375 60.464844 C 134.5625 59.800781 135.597656 58.84375 136.332031 58.769531 C 136.921875 58.621094 137.808594 59.136719 138.175781 59.507812 C 138.472656 59.875 138.691406 60.390625 138.621094 60.835938 C 138.546875 61.5 137.957031 62.605469 137.144531 62.972656 C 135.964844 63.414062 132.941406 62.457031 131.613281 61.941406 C 130.804688 61.570312 130.359375 61.277344 129.84375 60.761719 C 129.328125 60.316406 128.886719 59.800781 128.515625 58.917969 C 127.925781 57.515625 127.410156 55.15625 127.335938 52.796875 C 127.261719 49.773438 128.8125 45.71875 128.8125 42.25 C 128.886719 38.933594 127.851562 36.574219 127.632812 32.589844 C 127.335938 26.398438 126.671875 11.574219 128.074219 8.550781 C 128.515625 7.742188 129.105469 7.296875 129.695312 7.226562 C 130.214844 7.226562 131.097656 7.519531 131.464844 8.257812 C 132.425781 10.246094 128.960938 17.328125 128.296875 23.449219 C 127.335938 32.371094 128.886719 52.5 127.925781 56.777344 C 127.632812 57.882812 127.558594 58.105469 126.96875 58.769531 C 126.007812 59.800781 123.578125 61.277344 121.953125 61.644531 C 120.554688 62.015625 118.855469 62.234375 117.824219 61.570312 C 116.644531 60.90625 115.90625 59.210938 115.390625 57.292969 C 114.359375 54.125 113.695312 47.117188 114.433594 43.578125 C 114.875 41.292969 115.980469 39.523438 117.160156 38.046875 C 118.121094 36.792969 119.226562 35.613281 120.480469 35.171875 C 121.660156 34.804688 123.207031 35.171875 124.460938 35.46875 C 125.789062 35.835938 127.484375 36.351562 128.148438 37.164062 C 128.589844 37.828125 128.886719 39.082031 128.515625 39.671875 C 128.222656 40.1875 126.082031 40.335938 126.082031 40.335938 " clip-rule="nonzero"/></clipPath><clipPath id="7ef72d9950"><path d="M 146.339844 32.480469 L 171.085938 32.480469 L 171.085938 61.390625 L 146.339844 61.390625 Z M 146.339844 32.480469 " clip-rule="nonzero"/></clipPath><clipPath id="77e3268af6"><path d="M 153.664062 39.082031 C 149.976562 42.105469 150.269531 45.421875 150.566406 46.824219 C 150.714844 47.632812 151.304688 48.003906 151.375 48.667969 C 151.523438 49.476562 150.566406 50.363281 150.859375 51.320312 C 151.375 52.945312 154.988281 56.261719 156.539062 56.925781 C 157.277344 57.222656 157.71875 57.148438 158.53125 57.074219 C 159.636719 56.925781 161.554688 56.558594 162.4375 55.597656 C 163.394531 54.492188 163.542969 52.429688 163.765625 50.585938 C 164.058594 48.371094 164.722656 45.347656 163.46875 43.210938 C 161.847656 40.480469 154.03125 38.636719 152.410156 36.648438 C 151.671875 35.761719 151.375 34.65625 151.597656 34.066406 C 151.820312 33.402344 152.628906 33.035156 153.589844 32.8125 C 155.949219 32.222656 162.660156 32.886719 165.757812 33.328125 C 167.746094 33.625 169.738281 33.625 170.476562 34.433594 C 170.992188 35.097656 170.992188 36.351562 170.695312 36.941406 C 170.476562 37.457031 169.664062 37.976562 169.074219 37.976562 C 168.484375 37.976562 167.601562 37.605469 167.304688 37.164062 C 166.9375 36.574219 166.863281 35.171875 167.304688 34.65625 C 167.671875 34.066406 169.074219 33.769531 169.738281 33.992188 C 170.253906 34.140625 170.84375 34.953125 170.992188 35.46875 C 171.140625 35.910156 171.066406 36.351562 170.84375 36.792969 C 170.550781 37.238281 170.105469 37.679688 169.296875 37.976562 C 167.230469 38.566406 160.667969 37.605469 157.496094 37.3125 C 155.507812 37.089844 153.367188 37.457031 152.410156 36.648438 C 151.746094 36.132812 151.375 34.65625 151.597656 34.066406 C 151.820312 33.402344 152.851562 32.886719 153.589844 32.8125 C 154.472656 32.738281 155.210938 33.253906 156.316406 33.769531 C 158.601562 34.953125 164.28125 37.902344 166.125 39.890625 C 167.230469 41 167.601562 41.808594 167.96875 43.210938 C 168.484375 45.273438 168.335938 48.886719 167.96875 51.394531 C 167.671875 53.535156 167.007812 55.746094 166.347656 57.148438 C 165.902344 58.105469 165.535156 58.621094 164.796875 59.210938 C 163.765625 60.023438 161.921875 60.761719 160.445312 61.128906 C 158.972656 61.425781 157.203125 61.425781 155.949219 61.203125 C 155.0625 61.054688 154.546875 60.90625 153.734375 60.316406 C 152.261719 59.285156 149.460938 56.042969 148.574219 54.492188 C 148.058594 53.679688 147.984375 53.089844 147.761719 52.429688 C 147.542969 51.691406 147.320312 50.878906 147.394531 50.140625 C 147.46875 49.476562 148.132812 48.152344 148.207031 48.152344 C 148.207031 48.226562 147.761719 50.363281 147.542969 50.363281 C 147.246094 50.363281 146.582031 48.003906 146.4375 46.453125 C 146.289062 44.242188 146.730469 39.671875 147.617188 38.046875 C 147.984375 37.164062 148.5 36.792969 149.238281 36.351562 C 150.34375 35.761719 152.777344 35.023438 153.808594 35.394531 C 154.472656 35.613281 155.136719 36.5 155.136719 37.015625 C 155.210938 37.679688 153.664062 39.082031 153.664062 39.082031 " clip-rule="nonzero"/></clipPath><clipPath id="88a3411835"><path d="M 172.3125 32.269531 L 190.320312 32.269531 L 190.320312 63.601562 L 172.3125 63.601562 Z M 172.3125 32.269531 " clip-rule="nonzero"/></clipPath><clipPath id="4f122f2c9f"><path d="M 176.449219 34.214844 C 177.039062 59.433594 177.921875 60.464844 177.703125 61.5 C 177.554688 62.308594 176.890625 63.269531 176.300781 63.414062 C 175.636719 63.636719 174.238281 63.269531 173.71875 62.382812 C 172.394531 60.246094 174.898438 51.320312 174.972656 46.601562 C 175.121094 42.769531 174.308594 38.269531 174.679688 36.132812 C 174.828125 35.171875 175.046875 34.65625 175.488281 34.140625 C 175.933594 33.625 176.667969 33.402344 177.480469 33.253906 C 178.511719 33.035156 180.28125 33.253906 181.316406 33.625 C 182.054688 33.917969 182.496094 34.214844 183.160156 34.953125 C 184.707031 36.5 188.171875 41.070312 189.058594 43.949219 C 189.722656 46.085938 189.425781 47.855469 189.207031 50.066406 C 188.984375 52.945312 186.328125 58.476562 187.140625 59.433594 C 187.507812 59.949219 188.910156 58.992188 189.425781 59.285156 C 189.941406 59.65625 190.386719 60.613281 190.3125 61.203125 C 190.238281 61.941406 189.207031 63.046875 188.617188 63.269531 C 188.101562 63.414062 187.582031 63.339844 187.140625 63.121094 C 186.699219 62.824219 186.035156 62.089844 185.886719 61.425781 C 185.8125 60.835938 186.183594 59.875 186.550781 59.507812 C 186.917969 59.136719 187.4375 58.917969 187.878906 58.84375 C 188.46875 58.84375 189.425781 59.210938 189.796875 59.65625 C 190.164062 60.023438 190.3125 60.464844 190.3125 60.980469 C 190.3125 61.570312 189.871094 62.457031 189.425781 62.898438 C 189.132812 63.195312 188.691406 63.339844 188.101562 63.339844 C 187.140625 63.339844 185.078125 62.679688 184.191406 62.089844 C 183.601562 61.71875 183.160156 61.425781 182.863281 60.761719 C 182.496094 59.875 182.714844 58.402344 182.9375 56.925781 C 183.160156 54.863281 184.632812 51.617188 184.855469 49.476562 C 185.078125 47.855469 185.296875 46.75 184.78125 45.203125 C 183.96875 42.839844 179.839844 36.867188 179.03125 37.164062 C 178.292969 37.457031 179.472656 42.03125 179.324219 45.203125 C 179.175781 49.773438 178.957031 59.507812 177.628906 62.015625 C 177.113281 62.972656 176.449219 63.488281 175.785156 63.5625 C 175.121094 63.5625 174.238281 63.046875 173.71875 62.382812 C 172.984375 61.351562 172.910156 59.800781 172.6875 57.589844 C 172.246094 52.722656 172.171875 37.164062 172.6875 34.214844 C 172.835938 33.550781 172.910156 33.328125 173.203125 32.960938 C 173.574219 32.664062 174.308594 32.222656 174.828125 32.371094 C 175.417969 32.519531 176.449219 34.214844 176.449219 34.214844 " clip-rule="nonzero"/></clipPath><clipPath id="96c540bf0b"><path d="M 195.023438 32.65625 L 233.722656 32.65625 L 233.722656 62.695312 L 195.023438 62.695312 Z M 195.023438 32.65625 " clip-rule="nonzero"/></clipPath><clipPath id="7d6a7afbff"><path d="M 198.941406 35.171875 C 202.183594 49.109375 202.921875 56.1875 202.257812 58.621094 C 201.964844 59.65625 201.445312 60.390625 200.855469 60.6875 C 200.265625 60.90625 199.382812 60.761719 198.867188 60.390625 C 198.351562 60.097656 198.054688 59.582031 197.90625 58.621094 C 197.539062 55.96875 199.308594 46.601562 200.710938 42.324219 C 201.59375 39.375 203.214844 36.648438 204.027344 35.171875 C 204.46875 34.363281 204.691406 33.917969 205.132812 33.476562 C 205.648438 33.109375 206.167969 32.886719 206.902344 32.8125 C 207.9375 32.664062 210.074219 32.960938 210.960938 33.476562 C 211.625 33.769531 211.84375 34.140625 212.285156 34.804688 C 213.171875 36.277344 214.574219 39.964844 215.089844 42.695312 C 215.679688 45.570312 215.972656 50.140625 215.605469 51.839844 C 215.382812 52.5 215.164062 52.871094 214.71875 53.164062 C 214.277344 53.460938 213.320312 53.679688 212.730469 53.535156 C 212.140625 53.3125 211.476562 52.722656 211.253906 52.058594 C 210.960938 51.25 211.179688 50.140625 211.550781 48.886719 C 211.992188 46.824219 213.613281 42.472656 214.644531 41.21875 C 215.089844 40.703125 215.457031 40.480469 215.972656 40.335938 C 216.417969 40.1875 217.078125 40.261719 217.523438 40.554688 C 218.039062 41 218.703125 42.472656 218.628906 43.136719 C 218.554688 43.652344 218.113281 44.167969 217.742188 44.464844 C 217.375 44.757812 216.710938 44.980469 216.195312 44.832031 C 215.605469 44.683594 214.5 44.019531 214.351562 43.210938 C 214.054688 41.882812 215.753906 38.710938 217.152344 37.238281 C 218.554688 35.910156 221.28125 35.023438 222.683594 34.730469 C 223.496094 34.507812 224.011719 34.433594 224.675781 34.65625 C 225.78125 34.953125 227.476562 35.910156 228.289062 36.941406 C 229.101562 38.046875 229.320312 39.300781 229.691406 41 C 230.207031 43.800781 229.984375 49.476562 230.574219 52.648438 C 230.941406 54.933594 231.460938 57.074219 232.195312 58.328125 C 232.566406 59.066406 233.449219 59.210938 233.597656 59.875 C 233.671875 60.539062 233.082031 61.867188 232.566406 62.308594 C 232.195312 62.605469 231.679688 62.679688 231.164062 62.605469 C 230.648438 62.457031 229.761719 61.867188 229.46875 61.425781 C 229.246094 60.980469 229.171875 60.464844 229.320312 60.023438 C 229.46875 59.433594 229.984375 58.621094 230.574219 58.402344 C 231.089844 58.105469 232.125 58.253906 232.640625 58.546875 C 233.007812 58.769531 233.375 59.136719 233.523438 59.582031 C 233.671875 60.171875 233.671875 61.203125 233.230469 61.644531 C 232.785156 62.234375 231.460938 62.75 230.722656 62.457031 C 229.617188 62.089844 228.65625 59.433594 227.847656 57.664062 C 227.035156 55.894531 226.371094 54.269531 225.855469 51.910156 C 225.191406 48.667969 226.078125 41.367188 224.894531 39.816406 C 224.378906 39.226562 223.714844 39.15625 223.054688 39.15625 C 222.390625 39.15625 221.726562 39.226562 221.0625 39.746094 C 220.03125 40.480469 218.996094 43.285156 218.113281 44.09375 C 217.667969 44.539062 217.300781 44.832031 216.785156 44.832031 C 216.121094 44.832031 214.867188 44.316406 214.5 43.726562 C 214.203125 43.0625 214.277344 41.734375 214.644531 41.21875 C 215.089844 40.628906 216.34375 40.261719 217.007812 40.335938 C 217.523438 40.40625 218.039062 40.851562 218.332031 41.21875 C 218.554688 41.660156 218.703125 42.03125 218.628906 42.769531 C 218.554688 44.683594 216.488281 51.320312 215.164062 52.796875 C 214.574219 53.460938 213.835938 53.609375 213.246094 53.609375 C 212.730469 53.609375 212.214844 53.460938 211.84375 52.945312 C 210.960938 51.839844 211.625 47.707031 211.03125 45.128906 C 210.441406 42.324219 209.191406 36.867188 208.15625 36.792969 C 207.125 36.792969 205.648438 41.144531 204.765625 44.09375 C 203.4375 48.226562 203.144531 57.589844 201.964844 59.65625 C 201.59375 60.246094 201.300781 60.539062 200.855469 60.6875 C 200.265625 60.835938 199.382812 60.761719 198.867188 60.390625 C 198.351562 60.097656 198.203125 59.582031 197.90625 58.621094 C 197.242188 56.1875 197.980469 48.226562 197.390625 44.019531 C 196.875 40.703125 194.664062 37.164062 195.179688 35.46875 C 195.398438 34.507812 196.285156 33.699219 196.949219 33.625 C 197.539062 33.625 198.941406 35.171875 198.941406 35.171875 " clip-rule="nonzero"/></clipPath><clipPath id="4486433459"><path d="M 235.683594 32.226562 L 256.46875 32.226562 L 256.46875 62.421875 L 235.683594 62.421875 Z M 235.683594 32.226562 " clip-rule="nonzero"/></clipPath><clipPath id="6d89e9efc5"><path d="M 248.863281 38.785156 C 243.035156 37.902344 242.519531 38.046875 242.003906 38.636719 C 241.191406 39.597656 241.046875 43.136719 240.382812 44.167969 C 240.085938 44.683594 239.71875 45.054688 239.277344 45.203125 C 238.757812 45.347656 237.800781 45.273438 237.285156 44.90625 C 236.84375 44.613281 236.328125 43.210938 236.398438 43.210938 C 236.472656 43.136719 237.285156 44.980469 237.949219 45.128906 C 238.539062 45.273438 239.644531 43.800781 240.160156 44.09375 C 241.265625 44.757812 239.941406 51.910156 240.824219 54.269531 C 241.339844 55.746094 242.300781 57 243.257812 57.441406 C 243.847656 57.8125 244.511719 57.8125 245.25 57.589844 C 246.578125 57.074219 248.714844 55.15625 249.820312 53.460938 C 250.925781 51.765625 251.664062 49.332031 251.960938 47.488281 C 252.179688 46.085938 252.253906 44.832031 251.8125 43.503906 C 251.222656 41.660156 249.011719 38.859375 247.902344 37.753906 C 247.3125 37.164062 246.503906 37.164062 246.207031 36.574219 C 245.914062 36.058594 245.839844 35.171875 246.207031 34.582031 C 246.722656 33.699219 248.714844 32.886719 250.117188 32.589844 C 251.589844 32.222656 253.804688 32.148438 254.835938 32.589844 C 255.574219 32.886719 256.089844 33.550781 256.238281 34.066406 C 256.457031 34.65625 256.238281 35.6875 255.792969 36.132812 C 255.351562 36.648438 253.875 36.941406 253.214844 36.722656 C 252.625 36.5 252.03125 35.6875 251.960938 35.023438 C 251.886719 34.363281 252.550781 32.960938 253.214844 32.664062 C 253.875 32.371094 255.351562 32.738281 255.792969 33.253906 C 256.238281 33.699219 256.382812 34.730469 256.238281 35.246094 C 256.164062 35.761719 256.015625 36.132812 255.5 36.425781 C 254.320312 37.238281 249.527344 38.121094 247.902344 37.753906 C 247.09375 37.605469 246.503906 37.164062 246.207031 36.574219 C 245.914062 36.058594 245.914062 35.097656 246.207031 34.582031 C 246.503906 34.066406 247.238281 33.476562 247.902344 33.402344 C 248.566406 33.328125 249.378906 33.699219 250.261719 34.289062 C 251.8125 35.394531 254.539062 37.902344 255.574219 40.1875 C 256.53125 42.546875 256.53125 45.644531 256.238281 48.152344 C 256.015625 50.4375 255.425781 52.648438 254.394531 54.566406 C 253.359375 56.410156 251.589844 58.179688 250.117188 59.433594 C 248.9375 60.539062 247.828125 61.570312 246.503906 62.015625 C 245.324219 62.457031 243.773438 62.457031 242.519531 62.089844 C 241.191406 61.644531 239.941406 60.464844 238.980469 59.433594 C 238.097656 58.476562 237.359375 57.515625 236.84375 56.113281 C 236.105469 54.125 235.738281 50.65625 235.738281 48.226562 C 235.738281 46.085938 235.664062 43.285156 236.472656 42.105469 C 237.0625 41.367188 238.316406 40.851562 239.054688 41.070312 C 239.71875 41.21875 240.601562 42.472656 240.675781 43.210938 C 240.675781 43.875 239.867188 44.90625 239.277344 45.203125 C 238.6875 45.421875 237.433594 45.203125 236.917969 44.613281 C 236.253906 43.726562 236.472656 40.925781 236.84375 39.449219 C 237.210938 38.121094 238.023438 36.867188 238.980469 35.910156 C 239.867188 34.953125 241.046875 34.140625 242.519531 33.84375 C 244.585938 33.550781 249.304688 34.433594 250.410156 35.542969 C 251 36.058594 251.222656 37.015625 251 37.605469 C 250.78125 38.121094 248.863281 38.785156 248.863281 38.785156 " clip-rule="nonzero"/></clipPath><clipPath id="946e1a6667"><path d="M 261.074219 8.269531 L 284.984375 8.269531 L 284.984375 60.132812 L 261.074219 60.132812 Z M 261.074219 8.269531 " clip-rule="nonzero"/></clipPath><clipPath id="eee3326461"><path d="M 270.171875 37.753906 C 265.234375 43.652344 265.085938 47.117188 265.234375 49.550781 C 265.378906 51.691406 265.898438 55.007812 266.78125 55.523438 C 267.222656 55.820312 268.035156 55.523438 268.550781 55.007812 C 269.582031 54.125 270.617188 51.027344 270.984375 48.742188 C 271.351562 46.011719 270.835938 43.136719 270.46875 39.597656 C 269.953125 34.507812 267.886719 26.617188 267.59375 21.234375 C 267.371094 17.105469 267.371094 12.089844 268.035156 10.101562 C 268.328125 9.289062 268.699219 8.773438 269.214844 8.550781 C 269.730469 8.257812 270.691406 8.257812 271.132812 8.550781 C 271.648438 8.847656 272.015625 9.363281 272.238281 10.175781 C 272.828125 12.238281 271.574219 18.582031 271.796875 21.679688 C 271.871094 23.742188 273.050781 25.585938 272.605469 26.839844 C 272.238281 27.726562 271.207031 28.683594 270.46875 28.683594 C 269.804688 28.683594 268.257812 27.207031 268.402344 26.765625 C 268.550781 26.324219 272.238281 25.882812 272.605469 26.324219 C 272.828125 26.617188 272.3125 27.726562 271.871094 28.167969 C 271.574219 28.460938 270.984375 28.757812 270.46875 28.683594 C 269.804688 28.535156 268.257812 27.132812 268.402344 26.765625 C 268.550781 26.324219 271.648438 25.734375 272.605469 26.542969 C 274.449219 28.167969 272.976562 36.648438 273.714844 41 C 274.304688 44.613281 274.894531 48.226562 276.292969 50.878906 C 277.398438 53.089844 279.464844 56.113281 280.644531 56.1875 C 281.308594 56.1875 281.824219 54.492188 282.414062 54.34375 C 282.855469 54.199219 283.375 54.269531 283.742188 54.566406 C 284.257812 54.863281 284.847656 55.671875 284.847656 56.261719 C 284.921875 56.777344 284.554688 57.738281 284.109375 58.105469 C 283.667969 58.476562 282.710938 58.695312 282.191406 58.476562 C 281.601562 58.328125 280.867188 57.664062 280.71875 57.074219 C 280.570312 56.410156 281.011719 55.082031 281.53125 54.640625 C 282.046875 54.269531 283.003906 54.199219 283.59375 54.417969 C 284.183594 54.789062 285.070312 55.96875 284.847656 56.703125 C 284.625 57.664062 281.457031 59.136719 280.203125 59.433594 C 279.464844 59.582031 279.023438 59.507812 278.359375 59.210938 C 277.105469 58.695312 274.964844 56.703125 273.859375 55.230469 C 272.902344 53.828125 272.460938 52.5 271.871094 50.65625 C 270.984375 48.226562 270.246094 45.128906 269.65625 41.734375 C 268.992188 37.382812 266.78125 28.460938 268.402344 26.617188 C 269.214844 25.660156 272.164062 25.808594 272.605469 26.324219 C 272.828125 26.617188 272.53125 27.355469 272.238281 27.726562 C 271.871094 28.167969 271.058594 28.757812 270.46875 28.683594 C 269.804688 28.535156 268.257812 27.207031 268.402344 26.765625 C 268.550781 26.324219 272.238281 25.882812 272.605469 26.324219 C 272.828125 26.691406 272.015625 28.09375 271.5 28.386719 C 270.910156 28.757812 269.730469 28.683594 269.066406 28.09375 C 268.035156 27.132812 267.886719 23.742188 267.667969 21.089844 C 267.445312 17.695312 267.148438 11.5 268.183594 9.65625 C 268.699219 8.773438 269.511719 8.332031 270.171875 8.332031 C 270.761719 8.257812 271.425781 8.550781 271.871094 9.214844 C 273.269531 11.5 273.269531 27.207031 272.238281 27.726562 C 271.871094 27.871094 270.835938 26.324219 270.835938 26.324219 C 270.835938 26.324219 272.164062 27.207031 272.605469 28.09375 C 273.492188 29.863281 273.714844 33.625 274.082031 36.941406 C 274.597656 41.070312 275.777344 47.339844 275.039062 51.175781 C 274.449219 54.125 272.53125 57.074219 271.425781 58.476562 C 270.835938 59.210938 270.46875 59.582031 269.730469 59.800781 C 268.699219 60.171875 266.707031 60.023438 265.675781 59.726562 C 264.9375 59.582031 264.496094 59.285156 263.980469 58.769531 C 263.242188 58.03125 262.429688 56.851562 261.914062 55.378906 C 261.175781 52.945312 261.101562 47.855469 261.25 45.273438 C 261.324219 43.652344 261.398438 42.695312 261.914062 41.367188 C 262.578125 39.746094 263.980469 37.457031 265.378906 36.203125 C 266.707031 35.171875 268.847656 33.992188 269.878906 34.214844 C 270.542969 34.363281 271.207031 35.246094 271.28125 35.835938 C 271.28125 36.425781 270.171875 37.753906 270.171875 37.753906 " clip-rule="nonzero"/></clipPath><clipPath id="7a0caf94b8"><path d="M 287.558594 29.585938 L 309.527344 29.585938 L 309.527344 59.054688 L 287.558594 59.054688 Z M 287.558594 29.585938 " clip-rule="nonzero"/></clipPath><clipPath id="4e275ef253"><path d="M 292.296875 33.769531 C 292.8125 50.066406 294.65625 50.585938 295.761719 50.953125 C 296.425781 51.175781 296.867188 51.320312 297.605469 51.101562 C 298.859375 50.65625 301.144531 49.035156 302.101562 47.339844 C 303.28125 45.273438 303.136719 41.808594 303.355469 39.082031 C 303.503906 36.277344 302.398438 32.222656 303.136719 30.746094 C 303.503906 30.085938 304.167969 29.714844 304.757812 29.640625 C 305.347656 29.566406 306.085938 29.566406 306.601562 30.304688 C 308.59375 32.886719 310.140625 53.609375 309.257812 57.148438 C 308.960938 58.105469 308.667969 58.546875 308.148438 58.84375 C 307.558594 59.066406 306.601562 59.136719 306.085938 58.84375 C 305.570312 58.546875 304.980469 57.738281 304.980469 57.148438 C 304.980469 56.484375 305.714844 55.230469 306.304688 54.933594 C 306.824219 54.640625 307.855469 54.789062 308.296875 55.15625 C 308.8125 55.597656 309.328125 56.925781 309.109375 57.589844 C 308.960938 58.179688 308.296875 58.84375 307.707031 58.992188 C 307.042969 59.136719 305.863281 58.769531 305.273438 58.03125 C 304.167969 56.632812 304.316406 52.871094 303.945312 49.476562 C 303.429688 44.613281 301.882812 33.992188 302.988281 31.265625 C 303.355469 30.230469 304.09375 29.714844 304.757812 29.640625 C 305.347656 29.496094 306.160156 29.714844 306.601562 30.304688 C 307.632812 31.558594 307.632812 36.132812 307.558594 39.082031 C 307.558594 41.957031 307.191406 45.496094 306.527344 47.707031 C 306.011719 49.183594 305.496094 50.140625 304.535156 51.25 C 303.355469 52.648438 301.441406 54.417969 299.597656 54.933594 C 297.753906 55.523438 295.171875 55.082031 293.402344 54.566406 C 292 54.199219 290.671875 53.386719 289.863281 52.648438 C 289.199219 52.132812 288.828125 51.691406 288.535156 50.878906 C 288.019531 49.773438 287.796875 48.296875 287.722656 46.382812 C 287.503906 43.136719 287.355469 35.097656 288.609375 33.035156 C 289.125 32.148438 290.15625 31.632812 290.746094 31.78125 C 291.335938 31.855469 292.296875 33.769531 292.296875 33.769531 " clip-rule="nonzero"/></clipPath><clipPath id="645e1fdeee"><path d="M 315.582031 9.488281 L 334.5 9.488281 L 334.5 57.964844 L 315.582031 57.964844 Z M 315.582031 9.488281 " clip-rule="nonzero"/></clipPath><clipPath id="65f715ed28"><path d="M 320.097656 11.429688 C 320.316406 31.191406 321.496094 42.25 322.53125 46.601562 C 322.972656 48.445312 323.265625 49.40625 324.003906 50.511719 C 324.667969 51.617188 325.554688 52.722656 326.585938 53.238281 C 327.542969 53.828125 329.386719 54.269531 330.050781 53.976562 C 330.492188 53.753906 330.347656 53.019531 330.714844 52.722656 C 331.15625 52.429688 332.117188 52.058594 332.707031 52.28125 C 333.371094 52.5 334.328125 53.609375 334.402344 54.34375 C 334.402344 55.007812 333.441406 56.1875 332.851562 56.484375 C 332.261719 56.703125 331.304688 56.410156 330.789062 56.042969 C 330.347656 55.671875 329.976562 54.789062 330.050781 54.199219 C 330.050781 53.609375 330.566406 52.722656 331.15625 52.5 C 331.746094 52.207031 333.222656 52.355469 333.738281 52.871094 C 334.179688 53.238281 334.625 54.199219 334.328125 54.789062 C 333.738281 56.042969 328.722656 57.957031 326.660156 57.882812 C 325.257812 57.8125 324.152344 57 323.046875 56.042969 C 321.71875 54.933594 320.390625 52.871094 319.578125 51.027344 C 318.695312 49.109375 318.398438 47.414062 317.882812 44.683594 C 317.074219 40.039062 316.1875 31.410156 315.964844 25.4375 C 315.746094 20.277344 315.15625 13.199219 316.335938 10.984375 C 316.851562 10.101562 317.808594 9.511719 318.398438 9.585938 C 319.0625 9.65625 320.097656 11.429688 320.097656 11.429688 " clip-rule="nonzero"/></clipPath><clipPath id="8bd5b3fa79"><path d="M 335.238281 26.71875 L 356.703125 26.71875 L 356.703125 57.105469 L 335.238281 57.105469 Z M 335.238281 26.71875 " clip-rule="nonzero"/></clipPath><clipPath id="db5abd529d"><path d="M 339.710938 28.683594 C 340.152344 45.421875 340.671875 47.632812 341.113281 49.035156 C 341.40625 49.773438 341.40625 50.363281 341.996094 50.730469 C 342.808594 51.25 345.242188 51.839844 346.496094 50.878906 C 348.929688 48.886719 349.8125 36.425781 350.109375 32.445312 C 350.183594 30.527344 349.445312 29.125 349.8125 28.167969 C 350.109375 27.503906 350.699219 26.988281 351.289062 26.839844 C 351.878906 26.691406 352.910156 26.914062 353.5 27.652344 C 355.125 29.566406 355.492188 38.269531 355.933594 43.0625 C 356.375 47.265625 356.894531 52.722656 356.449219 54.863281 C 356.304688 55.746094 356.082031 56.261719 355.640625 56.558594 C 355.195312 56.925781 354.3125 57.074219 353.796875 56.925781 C 353.28125 56.703125 352.617188 56.042969 352.46875 55.523438 C 352.320312 55.007812 352.542969 54.125 352.910156 53.679688 C 353.28125 53.238281 354.089844 52.945312 354.679688 52.945312 C 355.195312 53.019531 355.933594 53.535156 356.230469 54.050781 C 356.523438 54.492188 356.523438 55.453125 356.230469 55.894531 C 356.007812 56.410156 355.195312 56.925781 354.679688 57 C 354.238281 57.074219 353.796875 57 353.425781 56.703125 C 352.984375 56.410156 352.691406 55.894531 352.394531 55.082031 C 351.804688 53.019531 352.46875 47.707031 352.101562 43.652344 C 351.65625 38.933594 349.371094 30.96875 349.738281 28.683594 C 349.8125 27.945312 350.035156 27.652344 350.402344 27.355469 C 350.847656 26.988281 351.730469 26.691406 352.246094 26.839844 C 352.835938 26.914062 353.425781 27.429688 353.796875 28.09375 C 354.238281 28.90625 354.3125 30.011719 354.238281 31.78125 C 354.164062 35.910156 352.171875 49.332031 350.550781 52.574219 C 350.035156 53.679688 349.445312 54.125 348.707031 54.492188 C 347.898438 55.007812 346.9375 55.082031 345.757812 55.15625 C 344.136719 55.230469 341.113281 55.007812 339.785156 54.34375 C 339.046875 53.976562 338.753906 53.609375 338.308594 52.796875 C 337.351562 51.027344 336.320312 47.117188 335.804688 43.652344 C 335.285156 39.300781 334.917969 31.191406 335.875 28.683594 C 336.320312 27.578125 336.984375 26.914062 337.574219 26.765625 C 338.089844 26.617188 338.828125 27.0625 339.195312 27.429688 C 339.488281 27.726562 339.710938 28.683594 339.710938 28.683594 " clip-rule="nonzero"/></clipPath><clipPath id="12e3f60226"><path d="M 357.542969 25.746094 L 370.632812 25.746094 L 370.632812 62.585938 L 357.542969 62.585938 Z M 357.542969 25.746094 " clip-rule="nonzero"/></clipPath><clipPath id="4797e91c4b"><path d="M 366.976562 33.375 C 364.875 30.449219 364.050781 29.925781 363.601562 30.226562 C 362.851562 30.675781 362.699219 34.351562 362.925781 36.074219 C 363.148438 37.574219 363.675781 38.625 364.5 39.976562 C 365.625 41.773438 368.625 43.574219 369.601562 45.601562 C 370.5 47.476562 370.574219 49.800781 370.574219 51.601562 C 370.574219 53.175781 370.199219 54.523438 369.75 55.875 C 369.375 57.226562 368.851562 58.726562 368.023438 59.773438 C 367.199219 60.75 366.226562 61.648438 364.949219 62.101562 C 363.523438 62.625 360.976562 62.625 359.625 62.324219 C 358.800781 62.175781 358.050781 61.875 357.75 61.351562 C 357.449219 60.75 357.523438 59.175781 357.898438 58.574219 C 358.273438 58.125 359.25 57.75 359.925781 57.824219 C 360.523438 57.898438 361.425781 58.425781 361.648438 59.023438 C 361.949219 59.699219 361.726562 61.199219 361.199219 61.726562 C 360.75 62.175781 359.773438 62.398438 359.175781 62.324219 C 358.648438 62.25 358.199219 61.949219 357.898438 61.574219 C 357.601562 60.976562 357.449219 59.398438 357.75 58.800781 C 357.976562 58.351562 358.351562 58.125 358.949219 57.898438 C 359.851562 57.601562 361.875 58.125 362.925781 57.824219 C 363.675781 57.601562 364.199219 57.226562 364.648438 56.625 C 365.25 55.800781 365.773438 54.226562 365.925781 52.800781 C 366.148438 51 366.074219 48.449219 365.25 46.726562 C 364.425781 45.074219 362.023438 44.101562 360.976562 42.75 C 360.074219 41.550781 359.324219 40.726562 358.949219 39.148438 C 358.351562 36.75 358.5 31.726562 359.25 29.324219 C 359.773438 27.824219 360.375 26.398438 361.5 25.949219 C 362.925781 25.425781 365.773438 26.175781 367.273438 27.226562 C 368.773438 28.351562 370.574219 31.351562 370.425781 32.625 C 370.351562 33.300781 369.523438 34.050781 369 34.199219 C 368.398438 34.351562 366.976562 33.375 366.976562 33.375 " clip-rule="nonzero"/></clipPath></defs><g clip-path="url(#81f16c1a48)"><g clip-path="url(#812328c779)"><path fill="#fffb47" d="M -0.824219 16.8125 L 17.683594 16.8125 L 17.683594 63.589844 L -0.824219 63.589844 Z M -0.824219 16.8125 " fill-opacity="1" fill-rule="nonzero"/></g></g><g clip-path="url(#f2bdbb5ff9)"><g clip-path="url(#511c311b2d)"><path fill="#fffb47" d="M 12.300781 18.066406 L 31.695312 18.066406 L 31.695312 66.550781 L 12.300781 66.550781 Z M 12.300781 18.066406 " fill-opacity="1" fill-rule="nonzero"/></g></g><g clip-path="url(#c5fae2d255)"><g clip-path="url(#c70999e64e)"><path fill="#fffb47" d="M -0.015625 26.25 L 39.589844 26.25 L 39.589844 37.679688 L -0.015625 37.679688 Z M -0.015625 26.25 " fill-opacity="1" fill-rule="nonzero"/></g></g><g clip-path="url(#9e3d71a76f)"><g clip-path="url(#dfdf62d8ca)"><path fill="#fffb47" d="M 0.0585938 38.785156 L 36.726562 38.785156 L 36.726562 49.921875 L 0.0585938 49.921875 Z M 0.0585938 38.785156 " fill-opacity="1" fill-rule="nonzero"/></g></g><g clip-path="url(#b4fb18a4e7)"><g clip-path="url(#326c2712b9)"><path fill="#fffb47" d="M 32.800781 5.972656 L 59.789062 5.972656 L 59.789062 66.167969 L 32.800781 66.167969 Z M 32.800781 5.972656 " fill-opacity="1" fill-rule="nonzero"/></g></g><g clip-path="url(#9f3bf5b594)"><g clip-path="url(#973a90d956)"><path fill="#fffb47" d="M 55.882812 30.304688 L 84.789062 30.304688 L 84.789062 67.230469 L 55.882812 67.230469 Z M 55.882812 30.304688 " fill-opacity="1" fill-rule="nonzero"/></g></g><g clip-path="url(#ba33a6f263)"><g clip-path="url(#cd8d925a44)"><path fill="#fffb47" d="M 85.671875 31.707031 L 95.921875 31.707031 L 95.921875 65.417969 L 85.671875 65.417969 Z M 85.671875 31.707031 " fill-opacity="1" fill-rule="nonzero"/></g></g><g clip-path="url(#c80c313a5a)"><g clip-path="url(#0faa618d74)"><path fill="#fffb47" d="M 87 24.847656 L 96.285156 24.847656 L 96.285156 33.917969 L 87 33.917969 Z M 87 24.847656 " fill-opacity="1" fill-rule="nonzero"/></g></g><g clip-path="url(#5e817c6d01)"><g clip-path="url(#d1687a879a)"><path fill="#fffb47" d="M 96.144531 7.371094 L 114.210938 7.371094 L 114.210938 66.300781 L 96.144531 66.300781 Z M 96.144531 7.371094 " fill-opacity="1" fill-rule="nonzero"/></g></g><g clip-path="url(#8751bdba07)"><g clip-path="url(#8f3e709a26)"><path fill="#fffb47" d="M 111.484375 4.273438 L 141.644531 4.273438 L 141.644531 65.890625 L 111.484375 65.890625 Z M 111.484375 4.273438 " fill-opacity="1" fill-rule="nonzero"/></g></g><g clip-path="url(#7ef72d9950)"><g clip-path="url(#77e3268af6)"><path fill="#fffb47" d="M 143.484375 29.863281 L 173.941406 29.863281 L 173.941406 64.242188 L 143.484375 64.242188 Z M 143.484375 29.863281 " fill-opacity="1" fill-rule="nonzero"/></g></g><g clip-path="url(#88a3411835)"><g clip-path="url(#4f122f2c9f)"><path fill="#fffb47" d="M 169.738281 29.421875 L 193.261719 29.421875 L 193.261719 66.542969 L 169.738281 66.542969 Z M 169.738281 29.421875 " fill-opacity="1" fill-rule="nonzero"/></g></g><g clip-path="url(#96c540bf0b)"><g clip-path="url(#7d6a7afbff)"><path fill="#fffb47" d="M 192.230469 29.863281 L 236.65625 29.863281 L 236.65625 65.628906 L 192.230469 65.628906 Z M 192.230469 29.863281 " fill-opacity="1" fill-rule="nonzero"/></g></g><g clip-path="url(#4486433459)"><g clip-path="url(#6d89e9efc5)"><path fill="#fffb47" d="M 232.785156 29.640625 L 259.261719 29.640625 L 259.261719 65.007812 L 232.785156 65.007812 Z M 232.785156 29.640625 " fill-opacity="1" fill-rule="nonzero"/></g></g><g clip-path="url(#946e1a6667)"><g clip-path="url(#eee3326461)"><path fill="#fffb47" d="M 258.300781 5.382812 L 287.871094 5.382812 L 287.871094 62.789062 L 258.300781 62.789062 Z M 258.300781 5.382812 " fill-opacity="1" fill-rule="nonzero"/></g></g><g clip-path="url(#7a0caf94b8)"><g clip-path="url(#4e275ef253)"><path fill="#fffb47" d="M 284.773438 26.691406 L 312.207031 26.691406 L 312.207031 62.054688 L 284.773438 62.054688 Z M 284.773438 26.691406 " fill-opacity="1" fill-rule="nonzero"/></g></g><g clip-path="url(#645e1fdeee)"><g clip-path="url(#65f715ed28)"><path fill="#fffb47" d="M 313.015625 6.632812 L 337.351562 6.632812 L 337.351562 60.816406 L 313.015625 60.816406 Z M 313.015625 6.632812 " fill-opacity="1" fill-rule="nonzero"/></g></g><g clip-path="url(#8bd5b3fa79)"><g clip-path="url(#db5abd529d)"><path fill="#fffb47" d="M 332.851562 23.816406 L 359.398438 23.816406 L 359.398438 59.902344 L 332.851562 59.902344 Z M 332.851562 23.816406 " fill-opacity="1" fill-rule="nonzero"/></g></g><g clip-path="url(#12e3f60226)"><g clip-path="url(#4797e91c4b)"><path fill="#fffb47" d="M 354.75 22.949219 L 373.574219 22.949219 L 373.574219 65.378906 L 354.75 65.378906 Z M 354.75 22.949219 " fill-opacity="1" fill-rule="nonzero"/></g></g></svg>