<svg xmlns="http://www.w3.org/2000/svg" xmlns:xlink="http://www.w3.org/1999/xlink" width="50" zoomAndPan="magnify" viewBox="0 0 37.5 37.499999" height="50" preserveAspectRatio="xMidYMid meet" version="1.0"><defs><clipPath id="b396c74570"><path d="M 0.851562 1.445312 L 36.027344 1.445312 L 36.027344 36.933594 L 0.851562 36.933594 Z M 0.851562 1.445312 " clip-rule="nonzero"/></clipPath><clipPath id="f457d08a39"><path d="M 1.480469 33.527344 C 1.703125 22.277344 0.960938 19.910156 0.960938 16.800781 C 0.960938 12.730469 0.667969 3.773438 2.292969 2.515625 C 2.960938 1.925781 4.292969 2.367188 5.105469 2.738281 C 5.847656 3.109375 6.4375 4.515625 6.882812 4.515625 C 7.253906 4.515625 7.253906 3.847656 7.769531 3.550781 C 9.03125 2.8125 13.027344 1.703125 15.542969 1.554688 C 17.761719 1.480469 19.464844 2.441406 21.90625 2.589844 C 25.238281 2.8125 31.675781 1.480469 33.75 2.367188 C 34.785156 2.8125 35.15625 3.183594 35.527344 4.21875 C 36.5625 6.660156 35.601562 13.839844 35.527344 18.503906 C 35.527344 23.167969 35.96875 29.234375 35.230469 32.195312 C 34.859375 33.75 34.933594 34.710938 33.601562 35.527344 C 30.125 37.820312 11.175781 36.636719 5.921875 36.191406 C 3.847656 35.96875 2.144531 35.824219 1.554688 35.230469 C 1.257812 34.933594 1.183594 34.488281 1.332031 34.195312 C 1.40625 33.824219 2.074219 33.230469 2.441406 33.304688 C 2.8125 33.304688 3.625 34.121094 3.625 34.488281 C 3.550781 34.859375 2.367188 35.675781 2 35.527344 C 1.628906 35.453125 1.257812 34.710938 1.257812 34.269531 C 1.332031 33.898438 1.703125 33.527344 2.292969 33.304688 C 4.144531 32.566406 11.621094 34.195312 15.765625 34.046875 C 19.242188 33.972656 22.796875 32.9375 25.535156 32.863281 C 27.386719 32.863281 28.9375 33.230469 30.199219 33.230469 C 31.011719 33.15625 31.898438 33.230469 32.269531 32.9375 C 32.566406 32.640625 32.640625 32.417969 32.714844 31.824219 C 33.378906 28.792969 32.046875 4.292969 33.082031 3.996094 C 33.230469 3.921875 33.898438 4.664062 33.75 4.886719 C 33.453125 5.625 25.015625 5.105469 21.6875 4.886719 C 19.242188 4.738281 17.613281 3.847656 15.394531 3.996094 C 12.730469 4.21875 8.660156 6.4375 6.882812 6.585938 C 6.070312 6.585938 5.625 6.660156 5.179688 6.363281 C 4.664062 5.996094 4.515625 4.21875 4.292969 4.292969 C 3.699219 4.367188 3.257812 12.65625 3.332031 16.355469 C 3.40625 19.464844 4.21875 22.054688 4.292969 24.941406 C 4.367188 27.828125 4.515625 32.046875 3.773438 33.527344 C 3.480469 34.121094 2.886719 34.636719 2.515625 34.636719 C 2.144531 34.636719 1.480469 33.527344 1.480469 33.527344 " clip-rule="nonzero"/></clipPath><clipPath id="9f40f9ae45"><path d="M 6.234375 10.378906 L 28.433594 10.378906 L 28.433594 16.144531 L 6.234375 16.144531 Z M 6.234375 10.378906 " clip-rule="nonzero"/></clipPath><clipPath id="f05052c619"><path d="M 6.585938 13.394531 C 10.511719 10.511719 11.324219 10.289062 12.0625 10.4375 C 13.027344 10.65625 13.988281 12.285156 15.023438 12.359375 C 16.136719 12.433594 17.320312 11.027344 18.429688 10.804688 C 19.390625 10.65625 20.28125 10.582031 21.09375 10.953125 C 22.054688 11.324219 22.722656 13.324219 23.757812 13.46875 C 24.792969 13.617188 26.644531 11.175781 27.457031 11.398438 C 27.902344 11.472656 28.347656 12.210938 28.421875 12.65625 C 28.421875 13.027344 28.125 13.542969 27.828125 13.691406 C 27.386719 13.914062 26.199219 13.691406 25.980469 13.324219 C 25.757812 12.953125 26.125 11.769531 26.496094 11.472656 C 26.71875 11.25 27.386719 11.25 27.679688 11.472656 C 28.050781 11.695312 28.496094 12.433594 28.347656 12.953125 C 28.125 13.839844 25.386719 16.136719 23.90625 16.136719 C 22.425781 16.136719 21.09375 13.324219 19.6875 13.175781 C 18.28125 13.101562 16.875 15.171875 15.46875 15.171875 C 13.988281 15.097656 12.359375 12.804688 10.953125 12.878906 C 9.695312 13.027344 8.214844 15.320312 7.402344 15.320312 C 6.882812 15.320312 6.4375 14.949219 6.292969 14.65625 C 6.144531 14.285156 6.585938 13.394531 6.585938 13.394531 " clip-rule="nonzero"/></clipPath><clipPath id="a71f97f264"><path d="M 6.882812 17.496094 L 28.671875 17.496094 L 28.671875 23.460938 L 6.882812 23.460938 Z M 6.882812 17.496094 " clip-rule="nonzero"/></clipPath><clipPath id="d32e389a32"><path d="M 7.84375 19.984375 C 15.46875 18.355469 19.613281 20.207031 19.539062 20.574219 C 19.539062 20.796875 18.28125 21.019531 18.207031 20.871094 C 18.058594 20.648438 19.242188 19.464844 19.984375 18.949219 C 20.945312 18.355469 22.203125 17.320312 23.460938 17.542969 C 25.089844 17.761719 28.421875 20.648438 28.644531 21.761719 C 28.71875 22.351562 28.050781 23.238281 27.605469 23.386719 C 27.3125 23.535156 26.71875 23.238281 26.421875 23.019531 C 26.199219 22.796875 25.980469 22.203125 26.050781 21.832031 C 26.199219 21.464844 27.238281 20.722656 27.679688 20.796875 C 28.125 20.945312 28.71875 22.054688 28.644531 22.5 C 28.496094 22.871094 27.902344 23.386719 27.3125 23.386719 C 26.347656 23.386719 24.425781 20.132812 23.019531 20.132812 C 21.6875 20.132812 20.5 22.722656 19.019531 22.945312 C 17.171875 23.167969 14.730469 20.722656 12.804688 20.722656 C 11.027344 20.648438 8.660156 22.5 7.769531 22.203125 C 7.253906 22.054688 6.957031 21.613281 6.882812 21.242188 C 6.882812 20.871094 7.84375 19.984375 7.84375 19.984375 " clip-rule="nonzero"/></clipPath><clipPath id="8de3871b1e"><path d="M 6.382812 24.71875 L 28.816406 24.71875 L 28.816406 30.902344 L 6.382812 30.902344 Z M 6.382812 24.71875 " clip-rule="nonzero"/></clipPath><clipPath id="e553407cbc"><path d="M 6.882812 28.792969 C 11.621094 25.535156 13.101562 25.609375 14.359375 25.832031 C 15.46875 26.050781 16.652344 27.53125 17.542969 27.3125 C 18.355469 27.164062 18.652344 25.609375 19.390625 25.164062 C 20.132812 24.792969 21.09375 24.644531 21.832031 24.867188 C 22.722656 25.089844 23.386719 26.496094 24.425781 27.089844 C 25.535156 27.753906 27.679688 27.902344 28.347656 28.570312 C 28.71875 28.863281 28.863281 29.308594 28.792969 29.679688 C 28.792969 30.050781 28.496094 30.492188 28.125 30.714844 C 27.828125 30.863281 27.238281 30.863281 26.941406 30.714844 C 26.570312 30.566406 26.199219 30.050781 26.199219 29.679688 C 26.199219 29.308594 26.644531 28.570312 27.015625 28.347656 C 27.3125 28.199219 27.902344 28.273438 28.199219 28.421875 C 28.570312 28.644531 28.792969 29.160156 28.792969 29.53125 C 28.863281 29.902344 28.644531 30.417969 28.273438 30.640625 C 27.457031 31.011719 24.867188 30.269531 23.460938 29.679688 C 22.277344 29.160156 21.390625 27.457031 20.5 27.53125 C 19.539062 27.605469 19.019531 29.753906 17.910156 29.976562 C 16.503906 30.34375 14.0625 27.902344 12.285156 28.125 C 10.511719 28.273438 8.4375 30.9375 7.402344 30.863281 C 6.957031 30.789062 6.511719 30.34375 6.4375 30.050781 C 6.292969 29.679688 6.882812 28.792969 6.882812 28.792969 " clip-rule="nonzero"/></clipPath></defs><g clip-path="url(#b396c74570)"><g clip-path="url(#f457d08a39)"><rect x="-3.75" width="45" fill="#fffb47" y="-3.75" height="44.999999" fill-opacity="1"/></g></g><g clip-path="url(#9f40f9ae45)"><g clip-path="url(#f05052c619)"><path fill="#fffb47" d="M 3.332031 7.476562 L 31.382812 7.476562 L 31.382812 19.09375 L 3.332031 19.09375 Z M 3.332031 7.476562 " fill-opacity="1" fill-rule="nonzero"/></g></g><g clip-path="url(#a71f97f264)"><g clip-path="url(#d32e389a32)"><path fill="#fffb47" d="M 3.921875 14.582031 L 31.585938 14.582031 L 31.585938 26.421875 L 3.921875 26.421875 Z M 3.921875 14.582031 " fill-opacity="1" fill-rule="nonzero"/></g></g><g clip-path="url(#8de3871b1e)"><g clip-path="url(#e553407cbc)"><path fill="#fffb47" d="M 3.480469 21.90625 L 31.816406 21.90625 L 31.816406 33.898438 L 3.480469 33.898438 Z M 3.480469 21.90625 " fill-opacity="1" fill-rule="nonzero"/></g></g></svg>