<svg xmlns="http://www.w3.org/2000/svg" xmlns:xlink="http://www.w3.org/1999/xlink" width="200" zoomAndPan="magnify" viewBox="0 0 150 74.999997" height="100" preserveAspectRatio="xMidYMid meet" version="1.0"><defs><clipPath id="04d621098a"><path d="M 0.0664062 37.335938 L 14.09375 37.335938 L 14.09375 51.679688 L 0.0664062 51.679688 Z M 0.0664062 37.335938 " clip-rule="nonzero"/></clipPath><clipPath id="17974506d4"><path d="M 14.023438 42.375 C 14.023438 46.875 13.5 48 12.824219 48.898438 C 12.148438 49.726562 11.175781 50.550781 10.125 51 C 9.148438 51.449219 7.875 51.675781 6.824219 51.601562 C 5.699219 51.523438 4.5 51.148438 3.523438 50.550781 C 2.625 50.023438 1.726562 49.125 1.125 48.148438 C 0.523438 47.25 0.148438 46.050781 0.148438 44.925781 C 0.0742188 43.800781 0.300781 42.601562 0.75 41.550781 C 1.199219 40.574219 1.949219 39.523438 2.851562 38.851562 C 3.675781 38.175781 4.875 37.648438 5.925781 37.5 C 7.050781 37.273438 8.324219 37.351562 9.375 37.648438 C 10.425781 38.023438 12.300781 39.449219 12.300781 39.449219 " clip-rule="nonzero"/></clipPath><clipPath id="48a61bf7de"><path d="M 20 47.390625 L 34 47.390625 L 34 61.65625 L 20 61.65625 Z M 20 47.390625 " clip-rule="nonzero"/></clipPath><clipPath id="e66e19671b"><path d="M 33.976562 52.351562 C 33.976562 56.851562 33.449219 58.050781 32.773438 58.875 C 32.101562 59.773438 31.050781 60.523438 30.074219 60.976562 C 29.023438 61.425781 27.824219 61.648438 26.699219 61.574219 C 25.574219 61.574219 24.375 61.199219 23.476562 60.601562 C 22.5 60 21.601562 59.101562 21.074219 58.199219 C 20.476562 57.226562 20.101562 56.023438 20.023438 54.898438 C 19.949219 53.851562 20.175781 52.574219 20.625 51.601562 C 21.074219 50.550781 21.898438 49.574219 22.726562 48.898438 C 23.625 48.226562 24.75 47.699219 25.875 47.476562 C 26.925781 47.324219 28.199219 47.398438 29.25 47.699219 C 30.300781 48 32.175781 49.425781 32.175781 49.425781 " clip-rule="nonzero"/></clipPath><clipPath id="a2b43bde9e"><path d="M 106.191406 49.335938 L 120.21875 49.335938 L 120.21875 63.679688 L 106.191406 63.679688 Z M 106.191406 49.335938 " clip-rule="nonzero"/></clipPath><clipPath id="c7adbd43f1"><path d="M 120.148438 54.375 C 120.148438 58.875 119.625 60 118.949219 60.898438 C 118.273438 61.726562 117.300781 62.550781 116.324219 63 C 115.273438 63.449219 114.074219 63.675781 112.949219 63.601562 C 111.824219 63.523438 110.625 63.148438 109.648438 62.550781 C 108.75 62.023438 107.851562 61.125 107.25 60.148438 C 106.726562 59.25 106.351562 58.050781 106.273438 56.925781 C 106.199219 55.800781 106.425781 54.601562 106.875 53.550781 C 107.324219 52.574219 108.074219 51.523438 108.976562 50.851562 C 109.875 50.175781 111 49.648438 112.050781 49.5 C 113.175781 49.273438 114.449219 49.351562 115.5 49.648438 C 116.550781 50.023438 118.425781 51.449219 118.425781 51.449219 " clip-rule="nonzero"/></clipPath><clipPath id="6fbf19e2af"><path d="M 129.289062 36.664062 L 143.398438 36.664062 L 143.398438 50.929688 L 129.289062 50.929688 Z M 129.289062 36.664062 " clip-rule="nonzero"/></clipPath><clipPath id="aa24169233"><path d="M 143.324219 41.625 C 143.324219 46.125 142.800781 47.324219 142.125 48.148438 C 141.449219 49.050781 140.398438 49.800781 139.425781 50.25 C 138.449219 50.699219 137.175781 50.925781 136.050781 50.851562 C 135 50.851562 133.800781 50.476562 132.824219 49.875 C 131.851562 49.273438 130.949219 48.375 130.425781 47.476562 C 129.824219 46.5 129.449219 45.300781 129.375 44.175781 C 129.300781 43.125 129.523438 41.851562 129.976562 40.875 C 130.425781 39.824219 131.25 38.851562 132.074219 38.175781 C 132.976562 37.5 134.101562 36.976562 135.226562 36.75 C 136.273438 36.601562 137.550781 36.675781 138.601562 36.976562 C 139.648438 37.273438 141.523438 38.699219 141.523438 38.699219 " clip-rule="nonzero"/></clipPath><clipPath id="bc3f23b30b"><path d="M 11.429688 46.757812 L 22.746094 46.757812 L 22.746094 53.894531 L 11.429688 53.894531 Z M 11.429688 46.757812 " clip-rule="nonzero"/></clipPath><clipPath id="5e8163502b"><path d="M 13.351562 46.800781 C 22.800781 51.824219 22.800781 52.726562 22.425781 53.175781 C 22.125 53.625 21.074219 53.925781 20.550781 53.851562 C 20.101562 53.699219 19.574219 53.101562 19.5 52.648438 C 19.351562 52.199219 19.5 51.449219 19.800781 51.148438 C 20.25 50.773438 21.75 50.699219 22.199219 51 C 22.648438 51.300781 22.800781 52.050781 22.726562 52.5 C 22.648438 52.949219 22.273438 53.625 21.75 53.773438 C 20.851562 54.074219 18.824219 53.023438 17.25 52.351562 C 15.449219 51.601562 12.226562 50.175781 11.625 49.125 C 11.324219 48.523438 11.398438 47.699219 11.699219 47.324219 C 12 46.949219 13.351562 46.800781 13.351562 46.800781 " clip-rule="nonzero"/></clipPath><clipPath id="b623a1f463"><path d="M 117.789062 44.277344 L 133.25 44.277344 L 133.25 54.734375 L 117.789062 54.734375 Z M 117.789062 44.277344 " clip-rule="nonzero"/></clipPath><clipPath id="6114550bfd"><path d="M 118.273438 52.125 C 131.699219 44.324219 132.523438 44.398438 132.824219 44.851562 C 133.199219 45.300781 133.050781 46.949219 132.601562 47.324219 C 132.148438 47.699219 130.574219 47.398438 130.125 47.023438 C 129.824219 46.648438 129.75 45.824219 129.898438 45.449219 C 130.125 45 130.648438 44.398438 131.101562 44.324219 C 131.699219 44.25 132.75 44.699219 133.050781 45.148438 C 133.273438 45.601562 133.273438 46.5 132.75 47.25 C 131.398438 49.273438 122.175781 54.601562 119.773438 54.675781 C 118.875 54.75 118.125 54.300781 117.898438 53.851562 C 117.675781 53.398438 118.273438 52.125 118.273438 52.125 " clip-rule="nonzero"/></clipPath><clipPath id="a31a13cc10"><path d="M 141.800781 24 L 150 24 L 150 40.085938 L 141.800781 40.085938 Z M 141.800781 24 " clip-rule="nonzero"/></clipPath><clipPath id="896c900886"><path d="M 141.898438 37.648438 C 147.675781 27 147.226562 25.351562 147.824219 24.675781 C 148.199219 24.226562 148.800781 24 149.324219 24 C 149.773438 24 150.523438 24.375 150.675781 24.824219 C 150.898438 25.425781 150.449219 26.925781 150 27.300781 C 149.625 27.523438 148.800781 27.449219 148.351562 27.226562 C 147.976562 27 147.449219 26.398438 147.449219 25.875 C 147.449219 25.351562 148.050781 24.300781 148.574219 24.148438 C 149.101562 23.925781 150.148438 24.148438 150.601562 24.675781 C 151.125 25.5 150.976562 27.449219 150.449219 29.175781 C 149.625 32.023438 145.875 38.851562 144.074219 39.75 C 143.324219 40.199219 142.351562 40.050781 142.050781 39.675781 C 141.675781 39.300781 141.898438 37.648438 141.898438 37.648438 " clip-rule="nonzero"/></clipPath><clipPath id="4a1ba570d2"><path d="M 0 26.070312 L 5.082031 26.070312 L 5.082031 40.511719 L 0 40.511719 Z M 0 26.070312 " clip-rule="nonzero"/></clipPath><clipPath id="9e419b1660"><path d="M 2.023438 39 C -0.75 30.523438 -0.300781 28.351562 0.226562 27.300781 C 0.523438 26.699219 0.898438 26.175781 1.351562 26.101562 C 1.875 26.023438 3.375 26.699219 3.523438 27.226562 C 3.675781 27.824219 2.773438 29.25 2.25 29.398438 C 1.726562 29.476562 0.375 28.574219 0.226562 27.976562 C 0.0742188 27.449219 0.675781 26.324219 1.125 26.175781 C 1.726562 25.949219 3.074219 26.398438 3.449219 27.074219 C 4.050781 28.050781 2.550781 30.601562 2.773438 32.398438 C 3.074219 34.351562 4.875 36.898438 5.023438 38.25 C 5.101562 38.851562 5.101562 39.300781 4.875 39.675781 C 4.648438 40.050781 4.125 40.5 3.75 40.5 C 3.226562 40.5 2.023438 39 2.023438 39 " clip-rule="nonzero"/></clipPath><clipPath id="04507ca12c"><path d="M 33.890625 40.128906 L 108.460938 40.128906 L 108.460938 75 L 33.890625 75 Z M 33.890625 40.128906 " clip-rule="nonzero"/></clipPath><clipPath id="6bb231877e"><path d="M 35.398438 55.273438 C 50.175781 56.773438 50.398438 57.226562 50.476562 57.675781 C 50.550781 58.199219 50.324219 58.875 49.949219 59.175781 C 49.5 59.550781 48.449219 59.699219 48 59.476562 C 47.476562 59.25 47.175781 58.574219 47.023438 57.675781 C 46.648438 55.125 48.300781 45.601562 49.273438 43.125 C 49.648438 42.226562 49.574219 41.851562 50.550781 41.398438 C 54.75 39.148438 90.675781 40.5 95.476562 41.550781 C 96.449219 41.773438 96.75 41.925781 97.125 42.300781 C 97.425781 42.75 97.351562 43.125 97.5 43.875 C 98.023438 46.273438 100.5 58.050781 99.601562 58.648438 C 99.300781 58.800781 98.25 58.125 98.324219 57.824219 C 98.398438 57.300781 105.148438 56.398438 106.648438 56.550781 C 107.25 56.625 107.550781 56.773438 107.851562 57 C 108.148438 57.375 108.523438 58.125 108.449219 58.574219 C 108.300781 59.175781 107.851562 59.699219 107.023438 60.148438 C 105.449219 60.976562 98.699219 60.375 98.324219 61.199219 C 98.175781 61.574219 99.074219 62.023438 99.300781 62.625 C 99.601562 63.449219 99.75 64.949219 99.601562 65.925781 C 99.449219 66.675781 98.398438 67.5 98.550781 67.949219 C 98.625 68.398438 99.449219 68.324219 99.75 68.851562 C 100.199219 69.824219 100.125 72.824219 99.675781 73.875 C 99.449219 74.550781 99.074219 75 98.476562 75.300781 C 97.648438 75.675781 96.601562 75.601562 95.101562 75.601562 C 92.175781 75.601562 87.226562 74.699219 82.351562 74.398438 C 75.601562 74.101562 65.324219 74.851562 58.574219 74.175781 C 53.324219 73.648438 46.425781 72.75 44.851562 71.476562 C 44.324219 71.023438 44.398438 70.726562 44.324219 69.976562 C 44.101562 67.949219 45.148438 59.25 46.574219 57.675781 C 47.25 56.925781 48.523438 56.773438 49.050781 57.074219 C 49.574219 57.300781 49.949219 58.5 49.800781 59.023438 C 49.648438 59.550781 48.601562 60.226562 48.074219 60.226562 C 47.625 60.300781 46.949219 59.851562 46.648438 59.476562 C 46.425781 59.023438 46.273438 58.273438 46.5 57.824219 C 46.800781 57.300781 47.851562 56.699219 48.375 56.773438 C 48.976562 56.925781 49.648438 57.824219 49.875 58.875 C 50.324219 60.976562 48.523438 69.523438 47.625 69.75 C 47.324219 69.824219 46.425781 68.851562 46.574219 68.625 C 46.949219 67.875 56.476562 70.574219 63 71.101562 C 72.375 71.925781 96.976562 70.351562 97.5 71.773438 C 97.648438 72.148438 96.523438 73.050781 96.226562 72.976562 C 95.699219 72.75 95.476562 67.949219 95.925781 66.675781 C 96.226562 65.925781 97.199219 65.175781 97.273438 65.25 C 97.273438 65.25 96.375 66.898438 96.074219 66.824219 C 95.550781 66.675781 95.25 61.050781 95.699219 59.625 C 95.925781 58.875 96.148438 58.5 96.898438 58.050781 C 98.476562 57.074219 104.773438 56.023438 106.648438 56.550781 C 107.550781 56.851562 108.375 57.601562 108.449219 58.199219 C 108.449219 58.726562 107.851562 59.625 107.023438 60.148438 C 105.449219 61.125 99.976562 61.574219 98.25 61.351562 C 97.5 61.273438 97.199219 61.273438 96.675781 60.75 C 95.324219 58.949219 98.023438 48.226562 94.199219 44.925781 C 87.976562 39.523438 52.425781 46.273438 51.675781 44.625 C 51.601562 44.324219 52.574219 43.425781 52.726562 43.5 C 53.398438 43.875 51.300781 58.050781 50.476562 58.199219 C 50.175781 58.199219 49.5 56.398438 49.574219 56.398438 C 49.574219 56.398438 50.476562 57.226562 50.476562 57.675781 C 50.550781 58.199219 50.324219 59.101562 49.574219 59.476562 C 47.699219 60.523438 37.125 59.476562 35.023438 58.273438 C 34.273438 57.824219 33.824219 57.074219 33.898438 56.625 C 33.898438 56.101562 35.398438 55.273438 35.398438 55.273438 " clip-rule="nonzero"/></clipPath><clipPath id="12685488d5"><path d="M 48.425781 42.652344 L 97.316406 42.652344 L 97.316406 72.976562 L 48.425781 72.976562 Z M 48.425781 42.652344 " clip-rule="nonzero"/></clipPath><clipPath id="fe8b45a683"><path d="M 48.429688 66.566406 C 48.652344 64.332031 48.726562 63.734375 48.800781 63.140625 C 48.875 62.542969 48.949219 61.796875 49.027344 61.203125 C 49.175781 60.53125 49.25 59.863281 49.398438 59.265625 C 49.472656 58.746094 49.621094 58.222656 49.769531 57.703125 C 49.84375 57.179688 49.992188 56.660156 50.144531 56.136719 C 50.292969 55.617188 50.441406 54.945312 50.589844 54.425781 C 50.664062 53.902344 50.886719 53.457031 50.960938 52.933594 C 51.109375 52.414062 51.261719 51.816406 51.410156 51.222656 C 51.558594 50.699219 51.707031 50.105469 51.855469 49.582031 C 52.003906 49.0625 52.230469 48.613281 52.304688 48.09375 C 52.453125 47.644531 52.378906 47.125 52.527344 46.601562 C 52.601562 46.007812 52.601562 45.1875 52.898438 44.742188 C 53.195312 44.367188 53.792969 44.21875 54.238281 43.996094 C 54.761719 43.847656 55.355469 43.773438 55.878906 43.699219 C 56.472656 43.621094 57.070312 43.621094 57.667969 43.621094 C 58.1875 43.621094 58.785156 43.621094 59.378906 43.621094 C 59.902344 43.621094 60.347656 43.621094 60.945312 43.621094 C 61.464844 43.621094 62.0625 43.621094 62.730469 43.621094 C 63.402344 43.621094 64.296875 43.621094 64.964844 43.621094 C 65.5625 43.621094 66.082031 43.621094 66.605469 43.621094 C 67.277344 43.621094 67.871094 43.621094 68.46875 43.621094 C 69.0625 43.699219 69.511719 43.699219 70.105469 43.699219 C 70.628906 43.621094 71.148438 43.546875 71.671875 43.546875 C 72.265625 43.472656 72.863281 43.398438 73.382812 43.324219 C 73.980469 43.25 74.5 43.175781 75.023438 43.027344 C 75.617188 42.953125 76.289062 42.804688 76.960938 42.730469 C 77.628906 42.65625 78.449219 42.730469 79.121094 42.730469 C 79.714844 42.730469 80.238281 42.730469 80.757812 42.730469 C 81.28125 42.730469 81.800781 42.730469 82.324219 42.730469 C 82.84375 42.730469 83.292969 42.65625 83.8125 42.65625 C 84.410156 42.65625 85.152344 42.804688 85.824219 42.878906 C 86.496094 42.953125 87.164062 43.027344 87.761719 43.101562 C 88.355469 43.175781 88.953125 43.175781 89.546875 43.175781 C 90.144531 43.101562 90.816406 42.878906 91.335938 42.953125 C 91.933594 43.027344 92.378906 43.324219 92.976562 43.621094 C 93.644531 43.847656 94.910156 44.070312 95.359375 44.589844 C 95.804688 44.964844 95.878906 45.484375 96.027344 46.007812 C 96.179688 46.601562 96.253906 47.199219 96.328125 47.792969 C 96.476562 48.390625 96.550781 48.910156 96.625 49.433594 C 96.699219 49.953125 96.773438 50.550781 96.773438 51.070312 C 96.847656 51.59375 96.847656 52.113281 96.847656 52.636719 C 96.847656 53.308594 96.847656 54.050781 96.847656 54.722656 C 96.847656 55.242188 96.847656 55.765625 96.847656 56.359375 C 96.847656 56.882812 96.773438 57.476562 96.773438 58 C 96.773438 58.59375 96.847656 59.191406 96.847656 59.789062 C 96.847656 60.382812 96.773438 60.980469 96.773438 61.5 C 96.773438 62.023438 96.773438 62.542969 96.773438 63.066406 C 96.847656 63.660156 96.921875 64.257812 96.996094 64.777344 C 97.070312 65.375 97.144531 65.894531 97.144531 66.492188 C 97.222656 67.011719 97.222656 67.535156 97.222656 68.054688 C 97.222656 68.578125 97.296875 69.023438 97.222656 69.546875 C 97.144531 70.140625 97.144531 70.886719 96.847656 71.40625 C 96.550781 71.855469 96.027344 72.300781 95.507812 72.523438 C 95.0625 72.675781 94.539062 72.601562 94.019531 72.601562 C 93.496094 72.675781 92.976562 72.675781 92.453125 72.675781 C 91.933594 72.675781 91.335938 72.601562 90.890625 72.601562 C 90.515625 72.601562 89.996094 72.601562 89.921875 72.601562 C 89.921875 72.601562 88.953125 72.601562 88.429688 72.523438 C 87.910156 72.523438 87.386719 72.523438 86.867188 72.523438 C 86.269531 72.523438 85.75 72.523438 85.226562 72.523438 C 84.632812 72.523438 84.109375 72.601562 83.515625 72.675781 C 82.917969 72.675781 82.25 72.601562 81.652344 72.601562 C 81.132812 72.601562 80.535156 72.601562 79.9375 72.601562 C 79.417969 72.601562 78.972656 72.601562 78.375 72.601562 C 77.777344 72.601562 77.183594 72.675781 76.585938 72.75 C 75.992188 72.75 75.394531 72.75 74.875 72.75 C 74.351562 72.824219 73.832031 72.898438 73.308594 72.972656 C 72.789062 72.972656 72.191406 72.898438 71.597656 72.824219 C 71 72.75 70.253906 72.601562 69.585938 72.523438 C 69.0625 72.449219 68.46875 72.375 67.945312 72.375 C 67.425781 72.300781 66.976562 72.300781 66.457031 72.300781 C 65.785156 72.375 64.890625 72.375 64.222656 72.375 C 63.550781 72.449219 62.804688 72.375 62.210938 72.375 C 61.613281 72.375 61.09375 72.375 60.496094 72.300781 C 59.902344 72.300781 59.304688 72.375 58.710938 72.300781 C 58.1875 72.226562 57.667969 72.152344 57.144531 72.078125 C 56.550781 71.929688 55.878906 71.707031 55.28125 71.558594 C 54.761719 71.332031 54.238281 71.183594 53.71875 70.960938 C 53.195312 70.8125 52.75 70.664062 52.304688 70.363281 C 51.855469 70.140625 51.1875 69.84375 50.960938 69.472656 C 50.8125 69.097656 51.261719 68.503906 51.035156 68.203125 C 50.738281 67.90625 49.175781 68.429688 48.726562 68.128906 C 48.429688 67.832031 48.429688 66.566406 48.429688 66.566406 M 54.835938 67.757812 C 55.433594 67.90625 55.28125 67.085938 55.132812 67.085938 C 55.058594 67.085938 54.835938 67.757812 54.835938 67.757812 M 60.125 66.34375 C 61.914062 66.640625 61.988281 66.714844 61.988281 66.714844 C 61.988281 66.640625 61.988281 66.640625 61.988281 66.640625 C 61.988281 66.640625 61.988281 66.566406 61.988281 66.566406 C 61.914062 66.492188 60.273438 66.195312 60.125 66.269531 C 60.125 66.269531 60.125 66.34375 60.125 66.34375 M 68.839844 58.445312 C 68.988281 58.371094 68.988281 58.371094 68.988281 58.371094 C 68.988281 58.371094 68.914062 58.371094 68.914062 58.371094 C 68.839844 58.371094 68.839844 58.445312 68.839844 58.445312 M 83.738281 53.082031 C 84.035156 53.15625 84.035156 53.15625 84.035156 53.082031 C 84.035156 53.082031 83.738281 53.082031 83.738281 53.082031 " clip-rule="nonzero"/></clipPath><clipPath id="be832cc89b"><path d="M 57.03125 47.539062 L 60.871094 47.539062 L 60.871094 68.0625 L 57.03125 68.0625 Z M 57.03125 47.539062 " clip-rule="nonzero"/></clipPath><clipPath id="5988312503"><path d="M 60.75 49.050781 C 60.449219 67.574219 60.074219 67.875 59.625 68.023438 C 59.101562 68.175781 57.976562 67.800781 57.675781 67.351562 C 57.375 66.976562 57.300781 66.148438 57.523438 65.699219 C 57.675781 65.324219 58.273438 64.800781 58.726562 64.726562 C 59.175781 64.574219 59.925781 64.800781 60.300781 65.101562 C 60.601562 65.476562 60.898438 66.226562 60.824219 66.675781 C 60.75 67.125 60.300781 67.800781 59.773438 67.949219 C 59.324219 68.101562 58.199219 67.949219 57.75 67.5 C 57.148438 66.75 57.449219 65.023438 57.375 63.148438 C 57.226562 59.699219 56.550781 50.773438 57.675781 48.675781 C 58.125 47.925781 58.875 47.476562 59.398438 47.550781 C 59.851562 47.625 60.75 49.050781 60.75 49.050781 " clip-rule="nonzero"/></clipPath><clipPath id="2714459d60"><path d="M 63 48.050781 L 67.148438 48.050781 L 67.148438 67.957031 L 63 67.957031 Z M 63 48.050781 " clip-rule="nonzero"/></clipPath><clipPath id="b1191b5122"><path d="M 67.125 49.574219 C 66.601562 67.351562 65.699219 68.023438 65.101562 67.949219 C 64.574219 67.949219 63.675781 67.050781 63.675781 66.449219 C 63.601562 65.925781 64.648438 64.648438 65.25 64.574219 C 65.699219 64.425781 66.375 64.800781 66.675781 65.175781 C 66.976562 65.550781 67.199219 66.300781 66.976562 66.75 C 66.824219 67.273438 65.851562 68.023438 65.324219 67.949219 C 64.726562 67.875 64.050781 67.199219 63.675781 66.148438 C 62.625 63.375 62.851562 51.449219 64.050781 49.199219 C 64.5 48.449219 65.25 48 65.773438 48.074219 C 66.300781 48.074219 67.125 49.574219 67.125 49.574219 " clip-rule="nonzero"/></clipPath><clipPath id="eb8bea30df"><path d="M 57.613281 55.550781 L 66.058594 55.550781 L 66.058594 59.234375 L 57.613281 59.234375 Z M 57.613281 55.550781 " clip-rule="nonzero"/></clipPath><clipPath id="ebb3a2ce6c"><path d="M 59.101562 55.574219 C 66 56.699219 66.148438 57.675781 65.925781 58.199219 C 65.699219 58.648438 64.648438 59.175781 64.199219 59.023438 C 63.675781 58.875 62.925781 57.601562 62.925781 57.074219 C 63 56.625 63.523438 56.101562 63.898438 55.949219 C 64.351562 55.800781 65.101562 55.875 65.398438 56.175781 C 65.773438 56.476562 66.148438 57.523438 66 57.976562 C 65.773438 58.5 65.101562 58.875 64.351562 59.023438 C 63 59.398438 59.398438 59.25 58.351562 58.5 C 57.824219 58.050781 57.523438 57.074219 57.675781 56.550781 C 57.824219 56.101562 59.101562 55.574219 59.101562 55.574219 " clip-rule="nonzero"/></clipPath><clipPath id="4d1eee087f"><path d="M 69.902344 52.0625 L 80.761719 52.0625 L 80.761719 66.433594 L 69.902344 66.433594 Z M 69.902344 52.0625 " clip-rule="nonzero"/></clipPath><clipPath id="d579a21144"><path d="M 74.925781 55.875 C 74.023438 61.425781 74.550781 63.148438 75.074219 63.226562 C 75.523438 63.226562 76.574219 61.574219 76.800781 60.601562 C 77.101562 59.699219 77.023438 58.199219 76.648438 57.523438 C 76.425781 57 76.125 56.773438 75.601562 56.476562 C 74.550781 55.875 71.023438 55.875 70.351562 54.976562 C 69.898438 54.375 69.898438 53.25 70.273438 52.800781 C 70.574219 52.351562 71.773438 52.050781 72.375 52.199219 C 72.824219 52.273438 73.351562 52.949219 73.425781 53.398438 C 73.574219 53.925781 73.425781 54.75 73.050781 55.050781 C 72.601562 55.425781 70.949219 55.5 70.425781 55.125 C 70.050781 54.824219 69.898438 54 69.976562 53.476562 C 70.050781 53.023438 70.425781 52.425781 71.023438 52.199219 C 71.925781 51.824219 74.175781 52.351562 75.449219 52.648438 C 76.5 52.949219 77.398438 53.25 78.226562 53.925781 C 79.199219 54.824219 80.324219 56.625 80.625 57.898438 C 80.851562 58.949219 80.625 60.074219 80.324219 61.050781 C 80.101562 62.023438 79.574219 63.074219 78.976562 63.824219 C 78.375 64.648438 77.476562 65.550781 76.574219 66 C 75.675781 66.375 74.324219 66.523438 73.648438 66.300781 C 73.125 66.148438 72.824219 65.773438 72.449219 65.324219 C 71.925781 64.648438 71.25 63.601562 70.949219 62.550781 C 70.648438 61.199219 70.726562 59.175781 71.023438 57.75 C 71.324219 56.398438 71.851562 54.601562 72.601562 54.148438 C 73.125 53.851562 74.023438 53.925781 74.398438 54.226562 C 74.773438 54.523438 74.925781 55.875 74.925781 55.875 " clip-rule="nonzero"/></clipPath><clipPath id="6ca3036d90"><path d="M 85.210938 48.8125 L 93.234375 48.8125 L 93.234375 67.429688 L 85.210938 67.429688 Z M 85.210938 48.8125 " clip-rule="nonzero"/></clipPath><clipPath id="464481c117"><path d="M 88.875 50.324219 C 90.148438 64.199219 91.574219 63.449219 92.175781 63.824219 C 92.699219 64.050781 93.148438 64.574219 93.148438 65.101562 C 93.226562 65.699219 92.324219 66.976562 91.726562 67.125 C 91.199219 67.199219 90.148438 66.523438 89.925781 66.074219 C 89.699219 65.625 89.773438 64.875 90.074219 64.425781 C 90.300781 64.050781 90.976562 63.601562 91.425781 63.675781 C 92.023438 63.75 93.148438 64.875 93.226562 65.476562 C 93.300781 65.925781 92.925781 66.523438 92.398438 66.824219 C 91.574219 67.351562 88.875 67.648438 87.824219 67.125 C 87 66.601562 86.625 65.699219 86.25 64.425781 C 85.425781 61.574219 84.75 52.050781 85.800781 49.949219 C 86.175781 49.199219 87 48.75 87.449219 48.824219 C 87.976562 48.824219 88.875 50.324219 88.875 50.324219 " clip-rule="nonzero"/></clipPath><clipPath id="8de1150bf2"><path d="M 81.542969 51.878906 L 92.878906 51.878906 L 92.878906 55.328125 L 81.542969 55.328125 Z M 81.542969 51.878906 " clip-rule="nonzero"/></clipPath><clipPath id="be36b35577"><path d="M 83.101562 51.898438 C 92.773438 52.648438 92.925781 53.25 92.851562 53.699219 C 92.851562 54.148438 92.476562 54.824219 92.101562 55.050781 C 91.726562 55.273438 90.976562 55.351562 90.523438 55.125 C 90.148438 54.898438 89.625 54.375 89.625 53.925781 C 89.625 53.324219 90.523438 52.125 91.050781 51.976562 C 91.574219 51.898438 92.550781 52.5 92.773438 53.023438 C 93 53.550781 92.773438 54.523438 92.25 54.976562 C 91.425781 55.574219 88.875 55.199219 87.226562 55.199219 C 85.5 55.125 82.726562 55.199219 81.976562 54.523438 C 81.523438 54.148438 81.449219 53.25 81.675781 52.800781 C 81.824219 52.351562 83.101562 51.898438 83.101562 51.898438 " clip-rule="nonzero"/></clipPath></defs><g clip-path="url(#04d621098a)"><g clip-path="url(#17974506d4)"><path fill="#fffb47" d="M -2.851562 34.5 L 17.324219 34.5 L 17.324219 54.675781 L -2.851562 54.675781 Z M -2.851562 34.5 " fill-opacity="1" fill-rule="nonzero"/></g></g><g clip-path="url(#48a61bf7de)"><g clip-path="url(#e66e19671b)"><path fill="#fffb47" d="M 17.023438 44.476562 L 37.199219 44.476562 L 37.199219 64.648438 L 17.023438 64.648438 Z M 17.023438 44.476562 " fill-opacity="1" fill-rule="nonzero"/></g></g><g clip-path="url(#a2b43bde9e)"><g clip-path="url(#c7adbd43f1)"><path fill="#fffb47" d="M 103.273438 46.5 L 123.449219 46.5 L 123.449219 66.675781 L 103.273438 66.675781 Z M 103.273438 46.5 " fill-opacity="1" fill-rule="nonzero"/></g></g><g clip-path="url(#6fbf19e2af)"><g clip-path="url(#aa24169233)"><path fill="#fffb47" d="M 126.375 33.75 L 146.550781 33.75 L 146.550781 53.925781 L 126.375 53.925781 Z M 126.375 33.75 " fill-opacity="1" fill-rule="nonzero"/></g></g><g clip-path="url(#bc3f23b30b)"><g clip-path="url(#5e8163502b)"><path fill="#fffb47" d="M 8.625 43.800781 L 25.804688 43.800781 L 25.804688 56.851562 L 8.625 56.851562 Z M 8.625 43.800781 " fill-opacity="1" fill-rule="nonzero"/></g></g><g clip-path="url(#b623a1f463)"><g clip-path="url(#6114550bfd)"><path fill="#fffb47" d="M 114.898438 41.324219 L 136.074219 41.324219 L 136.074219 57.75 L 114.898438 57.75 Z M 114.898438 41.324219 " fill-opacity="1" fill-rule="nonzero"/></g></g><g clip-path="url(#a31a13cc10)"><g clip-path="url(#896c900886)"><path fill="#fffb47" d="M 138.898438 21 L 153.75 21 L 153.75 42.8125 L 138.898438 42.8125 Z M 138.898438 21 " fill-opacity="1" fill-rule="nonzero"/></g></g><g clip-path="url(#4a1ba570d2)"><g clip-path="url(#9e419b1660)"><path fill="#fffb47" d="M -3.601562 23.101562 L 8.101562 23.101562 L 8.101562 43.484375 L -3.601562 43.484375 Z M -3.601562 23.101562 " fill-opacity="1" fill-rule="nonzero"/></g></g><g clip-path="url(#04507ca12c)"><g clip-path="url(#6bb231877e)"><path fill="#fffb47" d="M 30.898438 38.398438 L 111.449219 38.398438 L 111.449219 78.675781 L 30.898438 78.675781 Z M 30.898438 38.398438 " fill-opacity="1" fill-rule="nonzero"/></g></g><g clip-path="url(#12685488d5)"><g clip-path="url(#fe8b45a683)"><path fill="#f4d738" d="M 45.449219 39.675781 L 100.289062 39.675781 L 100.289062 75.953125 L 45.449219 75.953125 Z M 45.449219 39.675781 " fill-opacity="1" fill-rule="nonzero"/></g></g><g clip-path="url(#be832cc89b)"><g clip-path="url(#5988312503)"><path fill="#fffb47" d="M 54.375 44.550781 L 63.824219 44.550781 L 63.824219 71.089844 L 54.375 71.089844 Z M 54.375 44.550781 " fill-opacity="1" fill-rule="nonzero"/></g></g><g clip-path="url(#2714459d60)"><g clip-path="url(#b1191b5122)"><path fill="#fffb47" d="M 60.675781 45.074219 L 70.199219 45.074219 L 70.199219 71.007812 L 60.675781 71.007812 Z M 60.675781 45.074219 " fill-opacity="1" fill-rule="nonzero"/></g></g><g clip-path="url(#eb8bea30df)"><g clip-path="url(#ebb3a2ce6c)"><path fill="#fffb47" d="M 54.675781 52.574219 L 69 52.574219 L 69 62.101562 L 54.675781 62.101562 Z M 54.675781 52.574219 " fill-opacity="1" fill-rule="nonzero"/></g></g><g clip-path="url(#4d1eee087f)"><g clip-path="url(#d579a21144)"><path fill="#fffb47" d="M 66.976562 49.199219 L 83.625 49.199219 L 83.625 69.363281 L 66.976562 69.363281 Z M 66.976562 49.199219 " fill-opacity="1" fill-rule="nonzero"/></g></g><g clip-path="url(#6ca3036d90)"><g clip-path="url(#464481c117)"><path fill="#fffb47" d="M 82.800781 45.824219 L 96.226562 45.824219 L 96.226562 70.210938 L 82.800781 70.210938 Z M 82.800781 45.824219 " fill-opacity="1" fill-rule="nonzero"/></g></g><g clip-path="url(#8de1150bf2)"><g clip-path="url(#be36b35577)"><path fill="#fffb47" d="M 78.675781 48.898438 L 95.929688 48.898438 L 95.929688 58.199219 L 78.675781 58.199219 Z M 78.675781 48.898438 " fill-opacity="1" fill-rule="nonzero"/></g></g></svg>