<svg xmlns="http://www.w3.org/2000/svg" xmlns:xlink="http://www.w3.org/1999/xlink" width="50" zoomAndPan="magnify" viewBox="0 0 37.5 37.499999" height="50" preserveAspectRatio="xMidYMid meet" version="1.0"><defs><clipPath id="9c63574b06"><path d="M 16 4.851562 L 30.808594 4.851562 L 30.808594 22 L 16 22 Z M 16 4.851562 " clip-rule="nonzero"/></clipPath><clipPath id="3a8eaf648e"><path d="M 6.382812 15 L 21 15 L 21 32.234375 L 6.382812 32.234375 Z M 6.382812 15 " clip-rule="nonzero"/></clipPath><clipPath id="9a0488c30a"><path d="M 0 0 L 37.007812 0 L 37.007812 37.007812 L 0 37.007812 Z M 0 0 " clip-rule="nonzero"/></clipPath></defs><g clip-path="url(#9c63574b06)"><path fill="#000000" d="M 20.644531 21.726562 L 26.238281 21.726562 C 26.714844 21.726562 27.097656 21.335938 27.097656 20.855469 L 27.097656 13.257812 L 29.867188 13.257812 C 30.214844 13.257812 30.527344 13.050781 30.660156 12.726562 C 30.792969 12.40625 30.726562 12.035156 30.484375 11.785156 L 24.058594 5.117188 C 23.894531 4.949219 23.675781 4.855469 23.441406 4.855469 C 23.210938 4.855469 22.988281 4.949219 22.828125 5.117188 L 16.402344 11.785156 C 16.242188 11.949219 16.15625 12.167969 16.15625 12.390625 C 16.15625 12.503906 16.179688 12.617188 16.226562 12.726562 C 16.359375 13.050781 16.671875 13.257812 17.015625 13.257812 L 19.785156 13.257812 L 19.785156 20.855469 C 19.785156 21.335938 20.171875 21.726562 20.644531 21.726562 Z M 20.644531 21.726562 " fill-opacity="1" fill-rule="nonzero"/></g><g clip-path="url(#3a8eaf648e)"><path fill="#000000" d="M 14.292969 31.976562 L 20.71875 25.308594 C 20.960938 25.058594 21.027344 24.6875 20.894531 24.367188 C 20.761719 24.042969 20.449219 23.835938 20.101562 23.835938 L 17.332031 23.835938 L 17.332031 16.234375 C 17.332031 15.757812 16.949219 15.367188 16.472656 15.367188 L 10.878906 15.367188 C 10.40625 15.367188 10.019531 15.757812 10.019531 16.234375 L 10.019531 23.835938 L 7.25 23.835938 C 6.90625 23.835938 6.59375 24.042969 6.460938 24.367188 C 6.414062 24.472656 6.390625 24.589844 6.390625 24.703125 C 6.390625 24.925781 6.476562 25.144531 6.636719 25.308594 L 13.0625 31.976562 C 13.222656 32.144531 13.445312 32.238281 13.675781 32.238281 C 13.910156 32.238281 14.132812 32.144531 14.292969 31.976562 Z M 14.292969 31.976562 " fill-opacity="1" fill-rule="nonzero"/></g><g clip-path="url(#9a0488c30a)"><path stroke-linecap="butt" transform="matrix(0.740131, 0, 0, 0.740131, 0.0000005, 0)" fill="none" stroke-linejoin="miter" d="M -0.000000675556 0 L 50.001673 0 L 50.001673 50.001673 L -0.000000675556 50.001673 Z M -0.000000675556 0 " stroke="#000000" stroke-width="8" stroke-opacity="1" stroke-miterlimit="4"/></g></svg>