<svg xmlns="http://www.w3.org/2000/svg" xmlns:xlink="http://www.w3.org/1999/xlink" width="50" zoomAndPan="magnify" viewBox="0 0 37.5 37.499999" height="50" preserveAspectRatio="xMidYMid meet" version="1.0"><defs><clipPath id="2a5cc7c92a"><path d="M 0.828125 0 L 37.007812 0 L 37.007812 33.367188 L 0.828125 33.367188 Z M 0.828125 0 " clip-rule="nonzero"/></clipPath><clipPath id="ecf928d144"><path d="M 13.839844 3.332031 C 7.625 12.730469 5.253906 15.46875 4.589844 15.246094 C 4.144531 15.097656 4.441406 13.765625 4.144531 13.25 C 3.847656 12.65625 2.664062 11.988281 2.664062 11.917969 C 2.738281 11.917969 3.847656 12.359375 4.441406 12.953125 C 5.402344 13.839844 6.070312 15.914062 7.476562 17.761719 C 9.769531 20.796875 15.394531 28.050781 17.542969 28.644531 C 18.355469 28.792969 19.464844 27.828125 19.464844 27.976562 C 19.539062 28.050781 17.835938 29.308594 17.835938 29.308594 C 17.835938 29.308594 18.503906 28.273438 19.316406 27.902344 C 21.464844 27.089844 29.53125 27.457031 32.789062 27.828125 C 34.636719 28.050781 36.414062 28.125 37.230469 28.863281 C 37.820312 29.457031 38.042969 30.714844 37.820312 31.382812 C 37.523438 32.046875 36.5625 32.863281 35.675781 32.863281 C 33.824219 32.789062 30.050781 28.199219 27.53125 26.71875 C 25.609375 25.535156 22.722656 25.164062 21.980469 24.203125 C 21.539062 23.609375 21.539062 23.167969 21.761719 22.351562 C 22.425781 19.613281 29.753906 7.179688 31.605469 7.105469 C 32.34375 7.105469 33.304688 8.660156 33.15625 9.105469 C 32.863281 9.769531 28.792969 10.214844 27.679688 9.84375 C 27.164062 9.621094 26.792969 9.105469 26.71875 8.585938 C 26.496094 7.992188 26.71875 6.585938 27.015625 6.511719 C 27.386719 6.4375 29.308594 9.324219 29.011719 10.066406 C 28.644531 10.878906 26.496094 10.4375 25.015625 11.027344 C 23.019531 11.84375 20.132812 14.433594 18.132812 14.800781 C 16.726562 15.097656 15.171875 15.097656 14.433594 14.433594 C 13.617188 13.691406 13.027344 11.25 13.542969 10.582031 C 13.988281 9.917969 17.246094 10.066406 17.246094 10.214844 C 17.320312 10.363281 15.988281 11.175781 15.394531 11.175781 C 14.800781 11.175781 13.839844 10.730469 13.542969 10.214844 C 13.175781 9.546875 13.542969 7.625 13.617188 7.625 C 13.617188 7.625 13.765625 10.066406 13.542969 10.066406 C 13.25 10.140625 10.953125 4.292969 11.175781 2.515625 C 11.324219 1.480469 11.917969 0.445312 12.582031 0.148438 C 13.25 -0.148438 14.730469 0.371094 15.246094 0.8125 C 15.617188 1.183594 15.765625 1.703125 15.691406 2.21875 C 15.691406 2.8125 15.246094 3.699219 14.730469 4.070312 C 14.210938 4.441406 13.175781 4.589844 12.65625 4.367188 C 12.0625 4.144531 11.324219 3.40625 11.25 2.738281 C 11.101562 2 11.695312 0.59375 12.359375 0.222656 C 12.953125 -0.0742188 14.285156 0.0742188 15.023438 0.667969 C 16.136719 1.480469 16.875 4.144531 17.246094 5.847656 C 17.542969 7.328125 17.835938 9.398438 17.246094 10.214844 C 16.800781 10.878906 15.542969 11.25 14.875 11.101562 C 14.210938 10.953125 13.46875 10.289062 13.324219 9.695312 C 13.101562 9.03125 13.46875 7.625 13.988281 7.105469 C 14.507812 6.660156 15.46875 6.4375 16.0625 6.585938 C 16.726562 6.734375 17.46875 7.476562 17.835938 8.214844 C 18.207031 9.25 18.28125 11.988281 17.761719 12.210938 C 17.394531 12.433594 15.839844 11.472656 15.839844 10.953125 C 15.914062 9.992188 20.28125 8.140625 22.5 7.253906 C 24.5 6.4375 27.238281 5.03125 28.570312 5.625 C 29.679688 6.070312 30.789062 8.4375 30.640625 9.175781 C 30.492188 9.621094 29.753906 9.917969 29.308594 10.066406 C 28.792969 10.140625 28.125 10.066406 27.679688 9.84375 C 27.3125 9.546875 26.792969 9.105469 26.71875 8.585938 C 26.570312 7.917969 27.015625 6.511719 27.753906 5.921875 C 28.496094 5.179688 30.269531 5.03125 31.53125 4.957031 C 32.789062 4.8125 34.488281 4.664062 35.378906 5.253906 C 36.042969 5.699219 36.488281 6.734375 36.414062 7.769531 C 36.414062 9.175781 35.082031 11.027344 33.824219 13.027344 C 32.046875 15.839844 27.605469 22.796875 26.125 22.796875 C 25.535156 22.722656 24.71875 21.09375 24.867188 20.871094 C 25.164062 20.5 28.421875 22.054688 30.125 23.019531 C 31.898438 23.980469 33.824219 25.238281 35.15625 26.496094 C 36.265625 27.457031 37.820312 29.457031 37.746094 29.605469 C 37.597656 29.753906 35.675781 28.273438 35.675781 28.273438 C 35.675781 28.347656 37.523438 29.160156 37.820312 29.828125 C 38.042969 30.269531 37.96875 30.9375 37.820312 31.382812 C 37.597656 31.898438 37.375 32.34375 36.710938 32.566406 C 34.785156 33.453125 25.460938 32.789062 23.019531 32.34375 C 22.128906 32.121094 21.90625 31.53125 21.167969 31.605469 C 20.207031 31.605469 18.800781 33.082031 17.835938 33.230469 C 17.023438 33.378906 16.578125 33.378906 15.765625 32.9375 C 13.175781 31.605469 5.105469 23.019531 3.332031 19.835938 C 2.515625 18.355469 2.886719 17.097656 2.367188 16.207031 C 2 15.617188 0.960938 15.542969 0.886719 14.949219 C 0.667969 14.136719 1.480469 12.730469 2.21875 11.695312 C 3.109375 10.363281 4.957031 9.398438 6.292969 7.84375 C 7.917969 5.996094 9.472656 1.925781 10.878906 1.109375 C 11.621094 0.667969 12.582031 0.59375 13.027344 0.886719 C 13.542969 1.257812 13.839844 3.332031 13.839844 3.332031 " clip-rule="nonzero"/></clipPath><clipPath id="782007d871"><path d="M 5.839844 7.023438 L 29.554688 7.023438 L 29.554688 29.320312 L 5.839844 29.320312 Z M 5.839844 7.023438 " clip-rule="nonzero"/></clipPath><clipPath id="670139c066"><path d="M 13.175781 9.695312 C 10.511719 14.800781 10.582031 15.246094 11.027344 16.0625 C 12.0625 17.910156 16.503906 23.3125 19.316406 24.128906 C 21.390625 24.644531 24.128906 22.648438 25.609375 22.648438 C 26.496094 22.648438 27.015625 22.722656 27.605469 23.167969 C 28.421875 23.757812 29.53125 25.386719 29.53125 26.347656 C 29.53125 27.238281 28.570312 28.347656 27.902344 28.71875 C 27.238281 29.085938 26.496094 29.011719 25.609375 28.71875 C 24.054688 28.273438 21.09375 26.570312 19.835938 25.164062 C 18.800781 24.128906 18.058594 22.722656 17.910156 21.6875 C 17.761719 21.019531 17.910156 20.574219 18.28125 19.761719 C 19.167969 17.984375 23.019531 12.136719 24.425781 12.0625 C 25.089844 11.988281 26.050781 12.878906 26.050781 13.46875 C 25.980469 14.800781 19.910156 18.578125 17.542969 19.390625 C 16.0625 19.984375 14.507812 19.984375 13.542969 19.6875 C 12.878906 19.464844 12.507812 19.09375 12.0625 18.503906 C 11.398438 17.613281 10.65625 15.988281 10.511719 14.730469 C 10.363281 13.617188 10.4375 12.210938 10.878906 11.472656 C 11.324219 10.878906 12.0625 10.4375 12.730469 10.4375 C 13.394531 10.4375 14.359375 10.953125 14.875 11.769531 C 15.691406 13.175781 14.800781 17.171875 15.46875 19.390625 C 16.136719 21.316406 18.058594 23.019531 18.429688 24.5 C 18.726562 25.386719 18.800781 26.199219 18.503906 26.941406 C 18.207031 27.605469 17.46875 28.421875 16.726562 28.570312 C 15.691406 28.71875 13.765625 27.828125 12.953125 26.792969 C 11.917969 25.460938 11.988281 22.351562 11.917969 20.871094 C 11.84375 20.058594 11.84375 19.464844 12.0625 18.875 C 12.359375 18.132812 12.878906 17.320312 13.394531 16.875 C 13.914062 16.503906 14.65625 16.355469 15.320312 16.429688 C 15.914062 16.503906 16.578125 16.800781 17.246094 17.320312 C 18.28125 18.058594 20.28125 20.058594 20.425781 21.09375 C 20.574219 21.832031 20.058594 22.648438 19.613281 23.019531 C 19.242188 23.386719 18.726562 23.535156 18.28125 23.535156 C 17.6875 23.535156 16.726562 23.09375 16.355469 22.574219 C 15.988281 22.054688 15.914062 21.09375 16.136719 20.5 C 16.355469 19.910156 17.097656 19.242188 17.6875 19.09375 C 18.28125 18.949219 19.316406 19.167969 19.761719 19.613281 C 20.207031 20.132812 20.5 21.613281 20.207031 22.277344 C 19.984375 22.871094 19.09375 23.386719 18.503906 23.535156 C 18.058594 23.609375 17.613281 23.535156 17.097656 23.238281 C 16.28125 22.796875 14.359375 21.242188 14.507812 20.722656 C 14.582031 20.425781 16.0625 19.984375 16.355469 20.207031 C 16.726562 20.5 16.429688 21.464844 16.355469 22.128906 C 16.355469 22.796875 16.503906 23.609375 16.136719 24.128906 C 15.765625 24.71875 14.582031 25.535156 13.914062 25.386719 C 13.101562 25.164062 12.285156 23.167969 11.769531 21.980469 C 11.25 20.871094 10.878906 19.761719 10.730469 18.28125 C 10.582031 16.28125 10.511719 12.136719 11.25 11.027344 C 11.621094 10.511719 12.210938 10.4375 12.730469 10.4375 C 13.175781 10.363281 13.765625 10.511719 14.210938 10.878906 C 14.949219 11.621094 14.65625 15.023438 15.765625 15.394531 C 17.320312 15.914062 21.832031 10.066406 24.277344 9.398438 C 25.683594 9.03125 27.3125 9.105469 28.050781 9.695312 C 28.644531 10.140625 28.9375 11.175781 28.9375 11.988281 C 28.9375 13.101562 28.421875 14.285156 27.679688 15.617188 C 26.644531 17.46875 22.648438 20.132812 22.648438 21.832031 C 22.722656 23.167969 25.460938 24.128906 25.757812 25.089844 C 25.90625 25.832031 25.757812 26.496094 25.3125 27.089844 C 24.5 28.050781 21.6875 29.308594 20.132812 29.308594 C 18.949219 29.234375 18.132812 28.71875 16.800781 27.753906 C 14.0625 25.832031 6.957031 18.800781 6.070312 16.28125 C 5.699219 15.320312 5.921875 14.875 6.21875 13.914062 C 6.734375 12.285156 8.734375 8.4375 10.140625 7.550781 C 10.953125 7.03125 12.136719 6.882812 12.65625 7.253906 C 13.175781 7.625 13.175781 9.695312 13.175781 9.695312 " clip-rule="nonzero"/></clipPath><clipPath id="04609920b0"><path d="M 8.328125 10.25 L 10.441406 10.25 L 10.441406 12.089844 L 8.328125 12.089844 Z M 8.328125 10.25 " clip-rule="nonzero"/></clipPath><clipPath id="ab4d645bcb"><path d="M 10.4375 10.878906 C 9.472656 12.433594 8.660156 12.136719 8.4375 11.84375 C 8.214844 11.472656 8.4375 10.582031 8.734375 10.363281 C 8.957031 10.140625 10.140625 10.4375 10.140625 10.4375 " clip-rule="nonzero"/></clipPath><clipPath id="be00aecf80"><path d="M 14.46875 16.914062 L 16.585938 16.914062 L 16.585938 18.75 L 14.46875 18.75 Z M 14.46875 16.914062 " clip-rule="nonzero"/></clipPath><clipPath id="71083ece3e"><path d="M 16.578125 17.542969 C 15.617188 19.09375 14.730469 18.800781 14.582031 18.503906 C 14.359375 18.132812 14.507812 17.246094 14.800781 17.023438 C 15.097656 16.800781 16.28125 17.097656 16.28125 17.097656 " clip-rule="nonzero"/></clipPath><clipPath id="748f374705"><path d="M 21.058594 23.796875 L 23.171875 23.796875 L 23.171875 25.574219 L 21.058594 25.574219 Z M 21.058594 23.796875 " clip-rule="nonzero"/></clipPath><clipPath id="4df36f796d"><path d="M 23.167969 24.425781 C 22.203125 25.90625 21.316406 25.609375 21.167969 25.3125 C 20.945312 25.015625 21.167969 24.128906 21.390625 23.90625 C 21.6875 23.683594 22.871094 23.980469 22.871094 23.980469 " clip-rule="nonzero"/></clipPath><clipPath id="d48afe01f0"><path d="M 1.65625 0.0273438 L 12 0.0273438 L 12 12.816406 L 1.65625 12.816406 Z M 1.65625 0.0273438 " clip-rule="nonzero"/></clipPath><clipPath id="243d4d9824"><path d="M 1.703125 12.507812 C 9.324219 2.367188 10.804688 0.0742188 11.398438 0.0742188 C 11.621094 0.0742188 11.917969 0.667969 11.84375 0.667969 C 11.84375 0.667969 11.398438 0.148438 11.398438 0.148438 C 11.398438 0.0742188 11.917969 0.296875 11.988281 0.519531 C 12.136719 1.554688 7.625 6.734375 5.847656 8.957031 C 4.589844 10.511719 3.257812 12.65625 2.441406 12.804688 C 2.144531 12.878906 1.703125 12.507812 1.703125 12.507812 " clip-rule="nonzero"/></clipPath><clipPath id="3e637dc4d4"><path d="M 0.464844 11.828125 L 37.007812 11.828125 L 37.007812 34.355469 L 0.464844 34.355469 Z M 0.464844 11.828125 " clip-rule="nonzero"/></clipPath><clipPath id="21c323ad67"><path d="M 2.367188 12.359375 C 1.703125 18.355469 3.699219 20.871094 5.699219 23.238281 C 8.140625 26.199219 13.394531 30.863281 15.691406 32.195312 C 16.726562 32.789062 17.246094 33.15625 18.058594 33.082031 C 19.09375 32.9375 19.984375 31.160156 21.316406 31.011719 C 23.09375 30.789062 25.832031 32.714844 27.828125 33.15625 C 29.457031 33.527344 30.863281 33.824219 32.34375 33.527344 C 34.046875 33.230469 36.636719 31.160156 37.449219 31.308594 C 37.671875 31.382812 37.894531 31.75 37.894531 31.75 C 37.894531 31.75 37.375 31.308594 37.375 31.308594 C 37.375 31.308594 37.894531 31.53125 37.894531 31.75 C 37.894531 32.121094 36.710938 32.9375 35.894531 33.304688 C 34.933594 33.824219 33.601562 34.195312 32.269531 34.269531 C 30.789062 34.417969 29.234375 34.195312 27.605469 33.824219 C 25.609375 33.453125 22.945312 31.457031 21.316406 31.75 C 20.132812 31.898438 19.464844 33.527344 18.429688 33.675781 C 17.394531 33.824219 16.429688 33.453125 15.171875 32.789062 C 12.65625 31.308594 7.625 26.792969 5.105469 23.757812 C 3.109375 21.242188 1.109375 18.132812 0.667969 16.28125 C 0.445312 15.320312 0.59375 14.65625 0.738281 13.914062 C 0.960938 13.175781 1.40625 12.0625 1.703125 11.917969 C 1.925781 11.917969 2.367188 12.359375 2.367188 12.359375 " clip-rule="nonzero"/></clipPath><clipPath id="73a572008e"><path d="M 15.074219 0.417969 L 37.007812 0.417969 L 37.007812 29.410156 L 15.074219 29.410156 Z M 15.074219 0.417969 " clip-rule="nonzero"/></clipPath><clipPath id="2ac8a5d350"><path d="M 15.839844 0.445312 C 18.355469 5.847656 18.207031 9.175781 18.800781 9.398438 C 19.167969 9.472656 19.464844 8.363281 20.132812 7.917969 C 21.242188 7.179688 23.09375 6.734375 25.089844 6.21875 C 27.902344 5.476562 33.082031 4.367188 35.453125 4.367188 C 36.710938 4.441406 37.96875 4.21875 38.339844 4.957031 C 39.300781 6.808594 33.15625 17.6875 30.9375 20.28125 C 29.976562 21.390625 28.050781 21.90625 28.125 22.203125 C 28.199219 22.425781 30.269531 21.832031 31.234375 22.054688 C 32.195312 22.277344 33.082031 22.722656 34.046875 23.460938 C 35.601562 24.644531 39.078125 27.902344 39.152344 28.792969 C 39.226562 29.085938 38.855469 29.382812 38.78125 29.382812 C 38.78125 29.382812 39.152344 28.792969 39.152344 28.792969 C 39.078125 28.71875 38.855469 29.308594 38.636719 29.308594 C 38.042969 29.308594 36.488281 27.753906 35.601562 26.792969 C 34.785156 25.90625 34.269531 24.644531 33.378906 23.90625 C 32.714844 23.386719 32.046875 23.019531 31.160156 22.796875 C 30.125 22.5 27.828125 23.019531 27.605469 22.574219 C 27.457031 22.128906 28.792969 20.425781 29.457031 20.132812 C 29.976562 19.984375 30.863281 20.425781 30.9375 20.28125 C 31.011719 20.132812 30.417969 19.910156 30.417969 19.539062 C 30.34375 18.28125 33.527344 12.136719 34.417969 11.917969 C 34.636719 11.84375 35.082031 12.285156 35.082031 12.285156 C 35.082031 12.285156 34.488281 12.210938 34.34375 11.988281 C 34.121094 11.175781 38.78125 6.292969 37.96875 5.179688 C 37.007812 3.773438 28.9375 5.699219 25.386719 6.734375 C 22.722656 7.476562 19.910156 10.511719 18.503906 9.917969 C 17.394531 9.324219 17.761719 6.144531 17.097656 4.589844 C 16.578125 3.183594 14.949219 1.480469 15.097656 0.886719 C 15.171875 0.59375 15.839844 0.445312 15.839844 0.445312 " clip-rule="nonzero"/></clipPath></defs><g clip-path="url(#2a5cc7c92a)"><g clip-path="url(#ecf928d144)"><path fill="#fffb47" d="M -2.074219 -2.8125 L 40.824219 -2.8125 L 40.824219 36.265625 L -2.074219 36.265625 Z M -2.074219 -2.8125 " fill-opacity="1" fill-rule="nonzero"/></g></g><g clip-path="url(#782007d871)"><g clip-path="url(#670139c066)"><path fill="#fffb47" d="M 3.109375 4.292969 L 32.617188 4.292969 L 32.617188 32.269531 L 3.109375 32.269531 Z M 3.109375 4.292969 " fill-opacity="1" fill-rule="nonzero"/></g></g><g clip-path="url(#04609920b0)"><g clip-path="url(#ab4d645bcb)"><path fill="#9747ff" d="M 5.476562 7.402344 L 13.476562 7.402344 L 13.476562 15.246094 L 5.476562 15.246094 Z M 5.476562 7.402344 " fill-opacity="1" fill-rule="nonzero"/></g></g><g clip-path="url(#be00aecf80)"><g clip-path="url(#71083ece3e)"><path fill="#9747ff" d="M 11.621094 14.0625 L 19.617188 14.0625 L 19.617188 21.90625 L 11.621094 21.90625 Z M 11.621094 14.0625 " fill-opacity="1" fill-rule="nonzero"/></g></g><g clip-path="url(#748f374705)"><g clip-path="url(#4df36f796d)"><path fill="#9747ff" d="M 18.207031 20.945312 L 26.207031 20.945312 L 26.207031 28.792969 L 18.207031 28.792969 Z M 18.207031 20.945312 " fill-opacity="1" fill-rule="nonzero"/></g></g><g clip-path="url(#d48afe01f0)"><g clip-path="url(#243d4d9824)"><path fill="#000000" d="M -1.257812 -2.886719 L 14.949219 -2.886719 L 14.949219 15.792969 L -1.257812 15.792969 Z M -1.257812 -2.886719 " fill-opacity="1" fill-rule="nonzero"/></g></g><g clip-path="url(#3e637dc4d4)"><g clip-path="url(#21c323ad67)"><path fill="#000000" d="M -2.292969 8.957031 L 40.886719 8.957031 L 40.886719 37.230469 L -2.292969 37.230469 Z M -2.292969 8.957031 " fill-opacity="1" fill-rule="nonzero"/></g></g><g clip-path="url(#73a572008e)"><g clip-path="url(#2ac8a5d350)"><path fill="#000000" d="M 12.136719 -2.515625 L 42.1875 -2.515625 L 42.1875 32.460938 L 12.136719 32.460938 Z M 12.136719 -2.515625 " fill-opacity="1" fill-rule="nonzero"/></g></g></svg>