<svg xmlns="http://www.w3.org/2000/svg" xmlns:xlink="http://www.w3.org/1999/xlink" width="300" zoomAndPan="magnify" viewBox="0 0 224.87999 74.999997" height="100" preserveAspectRatio="xMidYMid meet" version="1.0"><defs><clipPath id="bf017f588c"><path d="M 51.777344 11.628906 L 61.808594 11.628906 L 61.808594 27.960938 L 51.777344 27.960938 Z M 51.777344 11.628906 " clip-rule="nonzero"/></clipPath><clipPath id="1a52852630"><path d="M 53.59375 12.386719 C 57.761719 24.125 61.398438 25.589844 61.75 26.648438 C 61.867188 27 61.75 27.351562 61.574219 27.585938 C 61.339844 27.820312 60.636719 27.996094 60.34375 27.878906 C 60.050781 27.703125 59.757812 26.765625 59.875 26.472656 C 59.933594 26.179688 60.34375 25.945312 60.636719 25.886719 C 60.929688 25.886719 61.398438 26.003906 61.515625 26.238281 C 61.75 26.53125 61.808594 27.234375 61.632812 27.46875 C 61.457031 27.761719 60.929688 27.996094 60.460938 27.878906 C 59.226562 27.703125 56.117188 25.296875 54.710938 23.125 C 53.007812 20.484375 51.597656 14.382812 51.832031 12.738281 C 51.890625 12.152344 52.128906 11.742188 52.421875 11.683594 C 52.714844 11.625 53.59375 12.386719 53.59375 12.386719 " clip-rule="nonzero"/></clipPath><clipPath id="c5bcc0ead7"><path d="M 51 12.507812 L 72.429688 12.507812 L 72.429688 35.359375 L 51 35.359375 Z M 51 12.507812 " clip-rule="nonzero"/></clipPath><clipPath id="23c31ab61f"><path d="M 51.597656 33.691406 C 63.863281 26.355469 65.683594 23.183594 67.152344 20.898438 C 68.324219 19.195312 69.265625 17.609375 69.851562 16.085938 C 70.320312 14.96875 70.027344 13.265625 70.613281 12.855469 C 70.964844 12.621094 71.789062 12.679688 72.023438 12.914062 C 72.257812 13.148438 72.316406 13.914062 72.082031 14.148438 C 71.847656 14.382812 70.671875 14.382812 70.496094 14.148438 C 70.320312 13.914062 70.730469 12.738281 71.023438 12.621094 C 71.316406 12.503906 72.082031 12.972656 72.257812 13.382812 C 72.550781 14.148438 72.199219 15.554688 71.550781 17.023438 C 70.320312 20.015625 66.445312 26.414062 63.101562 29.464844 C 60.167969 32.164062 55.003906 34.453125 53.007812 35.039062 C 52.246094 35.273438 51.65625 35.390625 51.304688 35.214844 C 51.128906 35.039062 50.953125 34.6875 51.011719 34.453125 C 51.011719 34.160156 51.597656 33.691406 51.597656 33.691406 " clip-rule="nonzero"/></clipPath><clipPath id="c5dfe12347"><path d="M 70.355469 12.421875 L 85.464844 12.421875 L 85.464844 31.871094 L 70.355469 31.871094 Z M 70.355469 12.421875 " clip-rule="nonzero"/></clipPath><clipPath id="3c347576be"><path d="M 77.890625 15.144531 C 73.664062 19.722656 72.492188 24.59375 72.257812 26.472656 C 72.199219 27.292969 72.140625 27.820312 72.433594 28.351562 C 72.902344 28.996094 74.253906 29.640625 75.074219 29.816406 C 75.777344 29.875 76.480469 29.699219 77.128906 29.40625 C 78.007812 29.054688 78.945312 28.585938 79.652344 27.644531 C 80.707031 26.238281 81.882812 22.65625 81.882812 20.839844 C 81.824219 19.605469 81.292969 18.785156 80.765625 17.726562 C 80.121094 16.613281 79.003906 15.027344 78.125 14.5 C 77.597656 14.089844 76.777344 14.324219 76.480469 14.03125 C 76.304688 13.738281 76.363281 13.148438 76.480469 12.855469 C 76.660156 12.621094 76.894531 12.503906 77.363281 12.445312 C 78.59375 12.328125 83.699219 13.621094 84.816406 14.558594 C 85.226562 14.96875 85.519531 15.554688 85.402344 15.847656 C 85.285156 16.144531 84.347656 16.554688 84.054688 16.378906 C 83.816406 16.203125 83.640625 15.085938 83.816406 14.792969 C 83.9375 14.558594 84.40625 14.441406 84.699219 14.5 C 84.992188 14.617188 85.460938 15.085938 85.460938 15.4375 C 85.460938 15.789062 84.992188 16.320312 84.523438 16.496094 C 83.523438 16.730469 81.058594 15.730469 79.652344 15.320312 C 78.59375 14.96875 77.363281 14.851562 76.894531 14.324219 C 76.539062 13.972656 76.304688 13.382812 76.421875 13.089844 C 76.539062 12.738281 77.128906 12.445312 77.597656 12.445312 C 78.183594 12.386719 78.886719 12.621094 79.535156 13.03125 C 80.589844 13.796875 82.058594 16.085938 82.761719 17.375 C 83.230469 18.253906 83.582031 18.785156 83.640625 19.839844 C 83.816406 21.542969 83.113281 25.003906 82.292969 26.882812 C 81.648438 28.351562 80.648438 29.582031 79.652344 30.402344 C 78.769531 31.050781 77.773438 31.460938 76.894531 31.695312 C 76.070312 31.871094 75.308594 31.871094 74.429688 31.636719 C 73.371094 31.34375 71.730469 30.402344 71.082031 29.640625 C 70.613281 29.113281 70.4375 28.761719 70.378906 27.878906 C 70.203125 25.828125 71.550781 19.605469 73.019531 17.082031 C 74.136719 15.320312 76.1875 13.621094 77.128906 13.503906 C 77.597656 13.445312 78.125 13.738281 78.242188 14.03125 C 78.359375 14.265625 77.890625 15.144531 77.890625 15.144531 " clip-rule="nonzero"/></clipPath><clipPath id="0f28c1b744"><path d="M 88 13.3125 L 98.855469 13.3125 L 98.855469 32.339844 L 88 32.339844 Z M 88 13.3125 " clip-rule="nonzero"/></clipPath><clipPath id="d80539ff2f"><path d="M 90.507812 14.207031 C 90.332031 28.878906 90.449219 29.582031 90.859375 29.875 C 91.273438 30.109375 92.152344 29.992188 92.621094 29.757812 C 93.089844 29.464844 93.382812 28.878906 93.738281 28.117188 C 94.382812 26.765625 95.085938 24.007812 95.496094 21.894531 C 95.90625 19.664062 95.554688 15.96875 96.140625 14.96875 C 96.378906 14.617188 96.671875 14.441406 97.023438 14.441406 C 97.316406 14.441406 97.785156 14.558594 98.078125 15.027344 C 98.902344 16.496094 97.550781 24.476562 97.902344 27.175781 C 98.136719 28.527344 98.960938 29.464844 98.84375 30.167969 C 98.785156 30.582031 98.429688 31.050781 98.136719 31.167969 C 97.902344 31.285156 97.433594 31.167969 97.257812 30.992188 C 97.023438 30.816406 96.847656 30.167969 96.90625 29.816406 C 97.023438 29.582031 97.375 29.289062 97.609375 29.230469 C 97.902344 29.171875 98.371094 29.289062 98.546875 29.523438 C 98.726562 29.757812 98.902344 30.460938 98.726562 30.699219 C 98.488281 30.992188 97.492188 31.109375 97.082031 30.875 C 96.4375 30.402344 96.140625 28.761719 95.964844 27.175781 C 95.613281 24.476562 95.730469 17.023438 96.671875 16.144531 C 97.023438 15.847656 97.609375 15.847656 97.902344 16.144531 C 98.429688 16.730469 97.84375 19.78125 97.492188 21.835938 C 97.082031 24.183594 96.4375 27.585938 95.378906 29.40625 C 94.617188 30.640625 93.617188 31.695312 92.621094 32.046875 C 91.917969 32.398438 90.917969 32.339844 90.332031 32.105469 C 89.804688 31.871094 89.394531 31.34375 89.101562 30.757812 C 88.628906 29.992188 88.394531 29.230469 88.21875 27.9375 C 87.867188 25.121094 87.867188 15.96875 88.746094 14.207031 C 88.984375 13.621094 89.453125 13.324219 89.746094 13.324219 C 90.039062 13.324219 90.507812 14.207031 90.507812 14.207031 " clip-rule="nonzero"/></clipPath><clipPath id="0044c6380a"><path d="M 107.664062 13.695312 L 118.25 13.695312 L 118.25 30.847656 L 107.664062 30.847656 Z M 107.664062 13.695312 " clip-rule="nonzero"/></clipPath><clipPath id="ad659ea339"><path d="M 115.214844 15.554688 C 110.933594 18.316406 110.34375 20.132812 109.992188 21.425781 C 109.699219 22.539062 109.582031 23.65625 109.699219 24.652344 C 109.875 25.648438 110.285156 26.707031 110.695312 27.410156 C 111.050781 27.996094 111.578125 28.820312 111.988281 28.703125 C 112.75 28.527344 112.984375 22.714844 113.925781 21.835938 C 114.277344 21.484375 114.921875 21.308594 115.214844 21.484375 C 115.507812 21.660156 115.804688 22.539062 115.683594 22.890625 C 115.566406 23.183594 114.980469 23.480469 114.6875 23.421875 C 114.335938 23.421875 113.925781 23.007812 113.75 22.480469 C 113.277344 21.132812 113.984375 15.730469 114.511719 14.558594 C 114.6875 14.148438 114.921875 13.972656 115.15625 13.855469 C 115.449219 13.796875 115.863281 13.738281 116.097656 14.03125 C 117.210938 15.144531 116.273438 26.765625 117.152344 28.820312 C 117.445312 29.464844 118.148438 29.523438 118.207031 29.875 C 118.207031 30.226562 117.679688 30.699219 117.386719 30.816406 C 117.152344 30.875 116.683594 30.757812 116.507812 30.582031 C 116.273438 30.34375 116.15625 29.933594 116.214844 29.640625 C 116.214844 29.40625 116.507812 28.996094 116.742188 28.9375 C 117.035156 28.820312 117.738281 28.9375 117.972656 29.171875 C 118.148438 29.40625 118.148438 30.109375 118.03125 30.402344 C 117.855469 30.640625 117.503906 30.875 117.152344 30.816406 C 116.625 30.757812 115.742188 29.699219 115.273438 28.644531 C 114.511719 26.824219 114.6875 22.65625 114.570312 20.074219 C 114.453125 18.019531 114.160156 15.496094 114.511719 14.558594 C 114.6875 14.148438 114.921875 13.972656 115.15625 13.855469 C 115.449219 13.796875 115.921875 13.855469 116.097656 14.03125 C 116.332031 14.148438 116.449219 14.441406 116.566406 14.851562 C 116.800781 16.144531 116.449219 21.425781 115.742188 22.65625 C 115.449219 23.125 114.980469 23.480469 114.6875 23.421875 C 114.335938 23.421875 113.691406 22.597656 113.75 22.304688 C 113.808594 21.953125 114.863281 21.367188 115.214844 21.484375 C 115.507812 21.601562 115.625 22.539062 115.625 23.304688 C 115.625 24.535156 114.980469 26.765625 114.453125 28.054688 C 114.101562 28.996094 113.75 29.875 113.160156 30.285156 C 112.691406 30.640625 111.929688 30.757812 111.34375 30.640625 C 110.8125 30.519531 110.226562 30.167969 109.757812 29.523438 C 108.9375 28.527344 107.9375 26.0625 107.761719 24.417969 C 107.585938 22.949219 107.9375 21.542969 108.40625 20.191406 C 108.820312 18.84375 109.640625 17.140625 110.402344 16.144531 C 110.875 15.496094 111.285156 15.085938 111.929688 14.734375 C 112.75 14.265625 114.21875 13.621094 114.921875 13.738281 C 115.390625 13.855469 115.980469 14.324219 115.980469 14.617188 C 116.039062 14.910156 115.214844 15.554688 115.214844 15.554688 " clip-rule="nonzero"/></clipPath><clipPath id="361f4d1063"><path d="M 120 13.203125 L 132.710938 13.203125 L 132.710938 30.253906 L 120 30.253906 Z M 120 13.203125 " clip-rule="nonzero"/></clipPath><clipPath id="95a3c81e61"><path d="M 121.730469 13.972656 C 124.488281 21.835938 123.726562 24.945312 124.019531 26.707031 C 124.195312 27.761719 124.957031 28.644531 124.839844 29.230469 C 124.664062 29.699219 124.019531 30.226562 123.667969 30.226562 C 123.375 30.226562 122.960938 29.875 122.785156 29.464844 C 122.433594 28.703125 122.667969 27.117188 122.785156 25.472656 C 123.019531 22.832031 123.140625 17.140625 124.3125 15.203125 C 124.957031 14.148438 125.722656 13.621094 126.777344 13.324219 C 128.246094 12.972656 131.765625 13.445312 132.410156 14.148438 C 132.703125 14.441406 132.703125 15.085938 132.527344 15.378906 C 132.351562 15.671875 131.707031 15.910156 131.355469 15.847656 C 131.0625 15.789062 130.769531 15.4375 130.652344 15.144531 C 130.59375 14.851562 130.652344 14.382812 130.828125 14.207031 C 131.003906 13.972656 131.414062 13.796875 131.707031 13.796875 C 132 13.796875 132.46875 14.03125 132.527344 14.324219 C 132.703125 14.617188 132.527344 15.496094 132.117188 15.730469 C 131.414062 16.261719 128.480469 15.027344 127.421875 15.320312 C 126.71875 15.496094 126.308594 15.730469 125.898438 16.496094 C 124.839844 18.375 125.78125 27.820312 124.78125 29.464844 C 124.488281 29.992188 124.019531 30.226562 123.667969 30.226562 C 123.375 30.226562 123.078125 30.050781 122.902344 29.699219 C 122.492188 29.171875 122.375 27.644531 122.257812 26.882812 C 122.199219 26.472656 122.082031 26.121094 122.199219 25.769531 C 122.375 25.472656 123.140625 25.0625 123.078125 25.0625 C 123.078125 25.003906 122.492188 25.53125 122.257812 25.414062 C 121.730469 25.121094 122.433594 21.074219 122.023438 19.136719 C 121.613281 17.433594 119.910156 15.4375 120.027344 14.5 C 120.085938 14.03125 120.496094 13.621094 120.792969 13.5625 C 121.027344 13.445312 121.730469 13.972656 121.730469 13.972656 " clip-rule="nonzero"/></clipPath><clipPath id="2fa87d0f40"><path d="M 132.894531 11.574219 L 145.242188 11.574219 L 145.242188 29.664062 L 132.894531 29.664062 Z M 132.894531 11.574219 " clip-rule="nonzero"/></clipPath><clipPath id="3e2a61f818"><path d="M 136.578125 17.667969 C 141.273438 16.671875 142.859375 14.617188 143.210938 14.792969 C 143.386719 14.851562 143.503906 15.496094 143.328125 15.671875 C 142.917969 15.910156 139.921875 13.445312 138.808594 13.621094 C 138.105469 13.738281 137.691406 14.441406 137.164062 15.085938 C 136.460938 16.085938 135.464844 17.785156 135.167969 19.078125 C 134.875 20.074219 134.816406 21.132812 135.050781 22.128906 C 135.34375 23.246094 136.695312 24.359375 136.988281 25.414062 C 137.28125 26.179688 137.105469 27.585938 137.28125 27.585938 C 137.398438 27.644531 137.574219 26.824219 137.871094 26.707031 C 138.28125 26.589844 138.925781 27.46875 139.6875 27.585938 C 140.804688 27.703125 143.09375 26.472656 144.089844 26.589844 C 144.558594 26.648438 145.085938 26.882812 145.207031 27.175781 C 145.324219 27.46875 144.96875 28.410156 144.675781 28.527344 C 144.324219 28.703125 143.386719 28.292969 143.269531 27.9375 C 143.152344 27.644531 143.621094 26.765625 143.972656 26.648438 C 144.265625 26.53125 144.96875 26.765625 145.144531 27.058594 C 145.265625 27.351562 145.144531 28.117188 144.734375 28.527344 C 144.03125 29.230469 141.273438 29.699219 139.921875 29.640625 C 138.867188 29.582031 137.988281 29.289062 137.28125 28.820312 C 136.636719 28.410156 135.875 27.585938 135.816406 27.058594 C 135.757812 26.648438 136.34375 25.945312 136.402344 26.003906 C 136.402344 26.003906 136.167969 27.292969 135.875 27.351562 C 135.464844 27.410156 134.171875 25.121094 133.703125 24.125 C 133.292969 23.363281 133.117188 22.832031 133 22.011719 C 132.820312 21.015625 132.878906 19.546875 133.234375 18.316406 C 133.644531 16.847656 134.699219 14.96875 135.582031 13.855469 C 136.226562 12.972656 136.929688 12.210938 137.75 11.859375 C 138.574219 11.507812 139.570312 11.507812 140.570312 11.742188 C 141.859375 12.09375 144.148438 13.445312 144.792969 14.265625 C 145.085938 14.675781 145.144531 15.085938 145.085938 15.4375 C 145.027344 15.730469 144.851562 16.027344 144.558594 16.320312 C 143.914062 17.023438 142.503906 18.253906 141.214844 18.726562 C 139.804688 19.3125 137.222656 19.78125 136.402344 19.429688 C 135.933594 19.253906 135.640625 18.726562 135.699219 18.433594 C 135.699219 18.136719 136.578125 17.667969 136.578125 17.667969 " clip-rule="nonzero"/></clipPath><clipPath id="0d6ecfa03f"><path d="M 154 12.371094 L 165.527344 12.371094 L 165.527344 29.015625 L 154 29.015625 Z M 154 12.371094 " clip-rule="nonzero"/></clipPath><clipPath id="586cc8f0a9"><path d="M 164.21875 14.5 C 159.757812 14.617188 159.699219 14.734375 159.40625 15.085938 C 158.761719 15.910156 157.414062 18.492188 156.824219 19.957031 C 156.355469 21.015625 156.003906 21.894531 156.003906 22.949219 C 155.945312 24.125 156.296875 26.121094 156.765625 26.589844 C 157.058594 26.882812 157.472656 26.882812 157.765625 26.765625 C 158.234375 26.648438 158.703125 26.0625 159.171875 25.355469 C 160.171875 23.949219 161.460938 19.429688 162.402344 18.253906 C 162.8125 17.726562 163.28125 17.257812 163.632812 17.316406 C 163.984375 17.375 164.511719 18.195312 164.453125 18.550781 C 164.394531 18.84375 163.632812 19.253906 163.339844 19.195312 C 162.988281 19.078125 162.636719 18.609375 162.519531 18.078125 C 162.34375 17.023438 162.871094 13.621094 163.574219 12.914062 C 163.984375 12.503906 164.746094 12.328125 165.042969 12.5625 C 165.453125 12.796875 165.394531 13.738281 165.453125 14.792969 C 165.570312 17.316406 165.628906 26.472656 164.394531 27.761719 C 163.925781 28.175781 162.988281 28.175781 162.753906 27.9375 C 162.519531 27.703125 162.636719 26.648438 162.871094 26.472656 C 163.164062 26.296875 164.277344 26.707031 164.453125 27 C 164.570312 27.292969 164.277344 27.996094 164.042969 28.117188 C 163.75 28.292969 163.105469 28.292969 162.8125 27.996094 C 162.34375 27.585938 162.28125 26.355469 162.222656 25.003906 C 162.164062 22.363281 162.695312 14.675781 163.515625 13.148438 C 163.75 12.621094 164.042969 12.445312 164.335938 12.386719 C 164.628906 12.328125 165.042969 12.503906 165.21875 12.738281 C 165.453125 12.914062 165.511719 13.265625 165.453125 13.679688 C 165.453125 14.5 164.21875 16.496094 164.160156 17.433594 C 164.101562 17.960938 164.570312 18.492188 164.335938 18.726562 C 164.160156 19.019531 162.871094 18.902344 162.871094 18.960938 C 162.929688 19.019531 164.042969 18.726562 164.21875 19.019531 C 164.628906 19.605469 163.105469 22.597656 162.28125 24.125 C 161.519531 25.53125 160.640625 27.058594 159.582031 27.878906 C 158.820312 28.527344 157.707031 29.113281 156.941406 28.996094 C 156.121094 28.820312 155.183594 27.820312 154.710938 26.882812 C 154.125 25.769531 153.890625 24.007812 154.066406 22.480469 C 154.242188 20.71875 155.417969 18.550781 156.179688 16.964844 C 156.824219 15.613281 157.414062 14.265625 158.175781 13.503906 C 158.703125 13.03125 159.171875 12.796875 159.878906 12.621094 C 161.050781 12.386719 163.925781 12.328125 164.628906 12.796875 C 164.984375 13.03125 165.160156 13.445312 165.101562 13.738281 C 165.042969 14.03125 164.21875 14.5 164.21875 14.5 " clip-rule="nonzero"/></clipPath><clipPath id="4e6e9960cc"><path d="M 168.125 9.84375 L 179.265625 9.84375 L 179.265625 32 L 168.125 32 Z M 168.125 9.84375 " clip-rule="nonzero"/></clipPath><clipPath id="5dc1dc7e89"><path d="M 170.089844 10.742188 C 171.613281 29.171875 171.4375 29.464844 171.144531 29.582031 C 170.851562 29.757812 170.265625 29.699219 169.972656 29.40625 C 169.207031 28.527344 169.148438 23.597656 169.5 21.308594 C 169.855469 19.546875 170.558594 17.609375 171.554688 16.671875 C 172.261719 16.027344 173.375 15.730469 174.3125 15.730469 C 175.195312 15.730469 176.367188 16.203125 177.132812 16.613281 C 177.71875 17.023438 178.246094 17.375 178.597656 18.019531 C 179.066406 18.84375 179.242188 20.074219 179.242188 21.25 C 179.300781 22.597656 179.125 24.242188 178.65625 25.710938 C 178.070312 27.46875 176.894531 29.933594 175.78125 30.933594 C 174.960938 31.636719 173.84375 32.046875 173.023438 31.929688 C 172.144531 31.8125 170.851562 30.699219 170.558594 30.109375 C 170.382812 29.757812 170.382812 29.347656 170.5 29.113281 C 170.675781 28.820312 171.261719 28.527344 171.613281 28.585938 C 171.90625 28.585938 172.261719 28.9375 172.378906 29.171875 C 172.496094 29.40625 172.4375 29.875 172.261719 30.109375 C 172.144531 30.34375 171.730469 30.582031 171.4375 30.582031 C 171.144531 30.582031 170.734375 30.402344 170.617188 30.167969 C 170.441406 29.933594 170.382812 29.464844 170.441406 29.230469 C 170.558594 28.9375 170.851562 28.644531 171.144531 28.585938 C 171.789062 28.46875 173.492188 29.933594 174.078125 29.757812 C 174.429688 29.699219 174.488281 29.40625 174.726562 28.996094 C 175.253906 28.175781 176.484375 26.0625 176.835938 24.652344 C 177.191406 23.480469 177.308594 22.363281 177.191406 21.308594 C 177.074219 20.308594 176.71875 19.078125 176.191406 18.492188 C 175.722656 18.019531 175.019531 17.785156 174.429688 17.785156 C 173.84375 17.785156 173.199219 17.960938 172.730469 18.433594 C 171.964844 19.253906 171.554688 21.425781 171.378906 23.066406 C 171.203125 24.828125 172.082031 27.820312 171.730469 28.878906 C 171.554688 29.289062 171.203125 29.640625 170.910156 29.699219 C 170.617188 29.757812 170.089844 29.582031 169.855469 29.230469 C 169.265625 28.410156 169.148438 25.003906 169.382812 24.007812 C 169.5 23.539062 170.03125 23.066406 170.03125 23.125 C 170.089844 23.125 169.617188 24.300781 169.5 24.300781 C 169.324219 24.242188 169.324219 23.304688 169.207031 22.421875 C 168.972656 20.191406 167.742188 12.386719 168.269531 10.742188 C 168.445312 10.214844 168.796875 9.863281 169.089844 9.863281 C 169.382812 9.863281 170.089844 10.742188 170.089844 10.742188 " clip-rule="nonzero"/></clipPath><clipPath id="8b1af68e9e"><path d="M 181.035156 15.394531 L 193.644531 15.394531 L 193.644531 30.738281 L 181.035156 30.738281 Z M 181.035156 15.394531 " clip-rule="nonzero"/></clipPath><clipPath id="f8264c865d"><path d="M 186.34375 17.550781 C 184.410156 18.316406 184.054688 18.785156 183.761719 19.546875 C 183.234375 20.957031 182.707031 24.476562 183.175781 26.003906 C 183.527344 27 184.289062 27.703125 185.054688 28.175781 C 185.875 28.644531 187.109375 28.820312 188.046875 28.703125 C 189.042969 28.527344 190.277344 27.996094 190.863281 27.117188 C 191.625 25.886719 191.746094 22.714844 191.449219 21.425781 C 191.273438 20.660156 191.039062 20.25 190.453125 19.722656 C 189.398438 18.902344 185.875 18.609375 185.054688 17.785156 C 184.644531 17.433594 184.351562 16.847656 184.527344 16.554688 C 184.703125 16.085938 185.757812 15.847656 186.695312 15.671875 C 188.105469 15.4375 191.039062 15.261719 192.097656 15.671875 C 192.625 15.910156 193.152344 16.4375 193.152344 16.789062 C 193.09375 17.140625 192.332031 17.726562 191.980469 17.726562 C 191.683594 17.726562 191.332031 17.433594 191.214844 17.199219 C 191.097656 16.90625 191.15625 16.203125 191.390625 15.96875 C 191.566406 15.730469 192.039062 15.613281 192.332031 15.730469 C 192.625 15.789062 193.152344 16.320312 193.152344 16.671875 C 193.09375 17.023438 192.683594 17.492188 192.097656 17.726562 C 190.863281 18.253906 186.402344 18.492188 185.289062 17.84375 C 184.761719 17.550781 184.410156 16.847656 184.527344 16.554688 C 184.585938 16.203125 185.171875 15.910156 185.699219 15.847656 C 186.695312 15.730469 189.101562 16.730469 190.277344 17.257812 C 191.039062 17.667969 191.625 17.960938 192.097656 18.550781 C 192.742188 19.195312 193.328125 20.132812 193.503906 21.308594 C 193.796875 23.066406 193.445312 26.589844 192.625 28.117188 C 192.15625 29.113281 191.273438 29.640625 190.511719 30.109375 C 189.75 30.460938 188.984375 30.699219 188.046875 30.699219 C 186.875 30.757812 185.054688 30.402344 183.996094 29.875 C 183.234375 29.523438 182.648438 28.996094 182.179688 28.410156 C 181.707031 27.820312 181.355469 27.292969 181.179688 26.472656 C 180.886719 25.121094 181.121094 22.421875 181.414062 20.957031 C 181.589844 19.898438 181.824219 19.019531 182.238281 18.253906 C 182.53125 17.609375 182.941406 17.082031 183.527344 16.671875 C 184.054688 16.261719 184.9375 15.847656 185.582031 15.789062 C 186.109375 15.730469 186.992188 15.910156 187.109375 16.203125 C 187.226562 16.496094 186.34375 17.550781 186.34375 17.550781 " clip-rule="nonzero"/></clipPath><clipPath id="bbc8024395"><path d="M 196.238281 14.464844 L 206.335938 14.464844 L 206.335938 29.75 L 196.238281 29.75 Z M 196.238281 14.464844 " clip-rule="nonzero"/></clipPath><clipPath id="2e0e4db731"><path d="M 198.433594 16.203125 C 198.785156 23.714844 199.019531 24.242188 199.433594 24.710938 C 199.84375 25.121094 200.605469 25.472656 201.074219 25.414062 C 201.664062 25.355469 202.191406 24.769531 202.601562 24.183594 C 203.246094 23.246094 203.953125 21.484375 204.128906 20.015625 C 204.246094 18.492188 203.011719 16.027344 203.304688 15.203125 C 203.421875 14.792969 203.714844 14.617188 204.011719 14.558594 C 204.304688 14.5 204.832031 14.558594 205.125 14.910156 C 205.828125 15.789062 205.828125 19.3125 205.828125 21.601562 C 205.828125 24.007812 205.886719 27.996094 205.125 29.054688 C 204.773438 29.523438 204.128906 29.757812 203.773438 29.699219 C 203.480469 29.582031 203.070312 28.9375 203.128906 28.644531 C 203.246094 28.292969 204.011719 27.703125 204.304688 27.761719 C 204.65625 27.820312 205.183594 28.644531 205.125 28.9375 C 205.066406 29.289062 204.246094 29.757812 203.890625 29.699219 C 203.597656 29.699219 203.363281 29.464844 203.1875 29.054688 C 202.71875 27.878906 203.890625 23.066406 203.832031 20.601562 C 203.832031 18.667969 202.953125 16.378906 203.246094 15.4375 C 203.421875 14.96875 203.714844 14.617188 204.011719 14.558594 C 204.304688 14.441406 204.832031 14.617188 205.125 14.910156 C 205.710938 15.554688 206.238281 17.492188 206.296875 18.84375 C 206.355469 20.308594 205.710938 21.953125 205.242188 23.304688 C 204.832031 24.417969 204.421875 25.648438 203.714844 26.355469 C 203.1875 26.941406 202.425781 27.351562 201.722656 27.46875 C 201.074219 27.585938 200.3125 27.527344 199.726562 27.292969 C 198.960938 26.941406 198.140625 26.238281 197.613281 25.472656 C 197.085938 24.710938 196.792969 23.890625 196.554688 22.773438 C 196.261719 21.015625 196.085938 17.023438 196.675781 15.96875 C 196.910156 15.554688 197.378906 15.261719 197.671875 15.320312 C 197.964844 15.320312 198.433594 16.203125 198.433594 16.203125 " clip-rule="nonzero"/></clipPath><clipPath id="1f423a1942"><path d="M 209.820312 9.890625 L 217.085938 9.890625 L 217.085938 30.816406 L 209.820312 30.816406 Z M 209.820312 9.890625 " clip-rule="nonzero"/></clipPath><clipPath id="613f69198b"><path d="M 211.992188 10.859375 C 212.226562 24.359375 212.402344 27.117188 212.929688 28.117188 C 213.164062 28.46875 213.398438 28.644531 213.753906 28.703125 C 214.398438 28.820312 215.980469 27.585938 216.511719 27.820312 C 216.804688 27.9375 217.097656 28.585938 217.039062 28.9375 C 216.921875 29.230469 216.097656 29.699219 215.746094 29.699219 C 215.511719 29.640625 215.160156 29.347656 215.042969 29.054688 C 214.984375 28.761719 215.160156 28.054688 215.453125 27.878906 C 215.6875 27.703125 216.394531 27.761719 216.6875 27.9375 C 216.921875 28.117188 217.15625 28.527344 217.039062 28.820312 C 216.863281 29.40625 214.984375 30.640625 214.105469 30.757812 C 213.398438 30.875 212.753906 30.582031 212.226562 30.226562 C 211.699219 29.875 211.289062 29.230469 210.933594 28.410156 C 210.464844 27.175781 210.347656 25.238281 210.171875 23.066406 C 209.9375 19.839844 209.527344 12.503906 210.171875 10.859375 C 210.40625 10.273438 210.699219 9.980469 210.992188 9.921875 C 211.289062 9.921875 211.992188 10.859375 211.992188 10.859375 " clip-rule="nonzero"/></clipPath><clipPath id="3de4a2396f"><path d="M 206.765625 12.652344 L 216.125 12.652344 L 216.125 15.050781 L 206.765625 15.050781 Z M 206.765625 12.652344 " clip-rule="nonzero"/></clipPath><clipPath id="f610d4d3a3"><path d="M 207.648438 12.914062 C 215.746094 12.855469 216.097656 13.265625 216.097656 13.5625 C 216.15625 13.796875 215.921875 14.148438 215.6875 14.265625 C 215.453125 14.382812 214.867188 14.324219 214.632812 14.148438 C 214.457031 14.03125 214.339844 13.621094 214.398438 13.382812 C 214.457031 13.148438 214.867188 12.679688 215.160156 12.679688 C 215.394531 12.621094 215.980469 12.972656 216.039062 13.207031 C 216.15625 13.503906 215.921875 14.089844 215.511719 14.382812 C 214.457031 15.085938 208.941406 15.261719 207.648438 14.675781 C 207.179688 14.5 206.769531 14.03125 206.769531 13.679688 C 206.828125 13.445312 207.648438 12.914062 207.648438 12.914062 " clip-rule="nonzero"/></clipPath><clipPath id="89bade69c7"><path d="M 49.261719 40.945312 L 56.726562 40.945312 L 56.726562 63.609375 L 49.261719 63.609375 Z M 49.261719 40.945312 " clip-rule="nonzero"/></clipPath><clipPath id="04a35b0aa6"><path d="M 51.773438 41.847656 C 52.421875 59.984375 53.242188 60.394531 53.828125 60.980469 C 54.238281 61.390625 54.59375 61.742188 55.003906 61.917969 C 55.414062 61.976562 55.941406 61.625 56.234375 61.800781 C 56.46875 61.917969 56.703125 62.328125 56.703125 62.625 C 56.703125 62.917969 56.527344 63.328125 56.292969 63.445312 C 56 63.621094 55.296875 63.621094 55.0625 63.445312 C 54.828125 63.210938 54.652344 62.566406 54.769531 62.269531 C 54.886719 61.976562 55.238281 61.683594 55.53125 61.625 C 55.824219 61.625 56.46875 61.917969 56.585938 62.210938 C 56.761719 62.507812 56.644531 63.152344 56.351562 63.386719 C 55.882812 63.738281 54.179688 63.621094 53.242188 63.09375 C 52.007812 62.449219 50.777344 61.097656 50.074219 59.21875 C 48.839844 55.582031 49.191406 43.960938 49.957031 41.847656 C 50.191406 41.320312 50.484375 40.96875 50.777344 40.96875 C 51.070312 40.96875 51.773438 41.847656 51.773438 41.847656 " clip-rule="nonzero"/></clipPath><clipPath id="b55a3bbd09"><path d="M 44.832031 45.941406 L 56.90625 45.941406 L 56.90625 48.347656 L 44.832031 48.347656 Z M 44.832031 45.941406 " clip-rule="nonzero"/></clipPath><clipPath id="a6897502e7"><path d="M 45.730469 45.957031 C 56.761719 46.367188 56.9375 47.011719 56.820312 47.304688 C 56.761719 47.539062 56.175781 47.953125 55.882812 47.894531 C 55.589844 47.835938 55.003906 47.128906 55.0625 46.777344 C 55.121094 46.484375 55.882812 46.015625 56.175781 46.074219 C 56.46875 46.074219 56.9375 46.601562 56.878906 46.894531 C 56.878906 47.246094 56.527344 47.65625 56 47.894531 C 54.414062 48.539062 46.902344 48.480469 45.554688 47.71875 C 45.085938 47.480469 44.792969 47.070312 44.851562 46.777344 C 44.910156 46.484375 45.730469 45.957031 45.730469 45.957031 " clip-rule="nonzero"/></clipPath><clipPath id="b554365031"><path d="M 57.679688 45.695312 L 68.636719 45.695312 L 68.636719 61.730469 L 57.679688 61.730469 Z M 57.679688 45.695312 " clip-rule="nonzero"/></clipPath><clipPath id="cd1bbf2a6d"><path d="M 62.75 47.1875 C 59.34375 51.941406 60.226562 55.523438 59.757812 56.402344 C 59.582031 56.753906 59.109375 56.988281 59.109375 56.988281 C 59.050781 56.988281 59.582031 56.167969 59.816406 56.226562 C 60.34375 56.285156 60.929688 59.160156 61.574219 59.511719 C 61.867188 59.6875 62.222656 59.628906 62.574219 59.453125 C 63.042969 59.277344 63.570312 58.75 63.980469 58.046875 C 64.570312 57.105469 65.390625 55.113281 65.507812 53.820312 C 65.566406 52.765625 65.390625 51.765625 64.863281 50.886719 C 64.335938 49.886719 62.28125 49.066406 62.046875 48.304688 C 61.929688 47.835938 62.046875 47.1875 62.457031 46.953125 C 63.277344 46.425781 67.503906 47.128906 68.265625 47.894531 C 68.617188 48.304688 68.617188 49.125 68.382812 49.417969 C 68.207031 49.652344 67.503906 49.769531 67.152344 49.652344 C 66.917969 49.59375 66.621094 49.183594 66.5625 48.890625 C 66.5625 48.597656 66.679688 48.1875 66.917969 48.011719 C 67.09375 47.777344 67.5625 47.65625 67.855469 47.71875 C 68.148438 47.835938 68.617188 48.363281 68.617188 48.65625 C 68.675781 49.007812 68.324219 49.535156 67.972656 49.710938 C 67.328125 50.003906 65.859375 49.710938 64.863281 49.535156 C 63.921875 49.359375 62.925781 49.125 62.222656 48.714844 C 61.632812 48.363281 60.8125 47.835938 60.753906 47.363281 C 60.695312 46.953125 61.046875 46.308594 61.398438 46.191406 C 61.988281 45.957031 63.394531 46.425781 64.273438 47.070312 C 65.449219 47.953125 67.035156 50.0625 67.445312 51.589844 C 67.796875 52.941406 67.503906 54.347656 67.09375 55.699219 C 66.679688 57.222656 65.683594 59.335938 64.804688 60.335938 C 64.273438 60.921875 63.746094 61.332031 63.101562 61.507812 C 62.457031 61.742188 61.574219 61.742188 60.929688 61.566406 C 60.285156 61.332031 59.757812 60.863281 59.285156 60.21875 C 58.640625 59.394531 57.820312 57.695312 57.820312 56.753906 C 57.820312 56.050781 58.699219 55.113281 58.640625 55.054688 C 58.582031 54.992188 57.996094 55.816406 57.878906 55.757812 C 57.703125 55.699219 57.703125 55.230469 57.703125 54.757812 C 57.703125 53.703125 57.585938 51.296875 58.171875 49.769531 C 58.816406 48.304688 60.636719 46.191406 61.515625 45.839844 C 61.988281 45.664062 62.515625 45.722656 62.75 45.957031 C 62.925781 46.191406 62.75 47.1875 62.75 47.1875 " clip-rule="nonzero"/></clipPath><clipPath id="f4880cad34"><path d="M 78.859375 44.753906 L 91.25 44.753906 L 91.25 63.570312 L 78.859375 63.570312 Z M 78.859375 44.753906 " clip-rule="nonzero"/></clipPath><clipPath id="8128091dd8"><path d="M 86.753906 45.722656 C 85.871094 59.511719 85.636719 61.507812 84.933594 62.507812 C 84.464844 63.09375 83.875 63.386719 83.230469 63.503906 C 82.527344 63.621094 81.648438 63.503906 81 63.152344 C 80.355469 62.800781 79.710938 62.035156 79.359375 61.390625 C 79.066406 60.6875 78.886719 59.921875 78.886719 59.160156 C 78.886719 58.222656 79.066406 56.988281 79.652344 56.109375 C 80.355469 54.992188 81.707031 54.054688 83.171875 53.117188 C 84.992188 51.882812 88.746094 49.886719 89.980469 49.769531 C 90.449219 49.710938 90.742188 49.769531 90.917969 50.003906 C 91.152344 50.183594 91.332031 50.886719 91.152344 51.179688 C 90.976562 51.472656 90.039062 51.765625 89.746094 51.589844 C 89.511719 51.414062 89.394531 50.183594 89.628906 49.945312 C 89.863281 49.710938 90.859375 49.886719 91.035156 50.121094 C 91.273438 50.417969 91.152344 51.121094 90.800781 51.589844 C 90.039062 52.527344 86.636719 53.351562 84.933594 54.40625 C 83.582031 55.289062 81.941406 56.226562 81.351562 57.222656 C 80.941406 57.871094 80.882812 58.691406 80.941406 59.394531 C 81 59.984375 81.175781 60.804688 81.589844 61.097656 C 82 61.390625 82.9375 61.566406 83.347656 61.273438 C 83.875 60.921875 83.875 59.628906 84.113281 58.222656 C 84.582031 55.464844 84.113281 47.011719 84.992188 45.488281 C 85.285156 45.015625 85.695312 44.78125 85.988281 44.78125 C 86.28125 44.839844 86.753906 45.722656 86.753906 45.722656 " clip-rule="nonzero"/></clipPath><clipPath id="b31a9ef30b"><path d="M 84.460938 40.703125 L 86.113281 40.703125 L 86.113281 42.136719 L 84.460938 42.136719 Z M 84.460938 40.703125 " clip-rule="nonzero"/></clipPath><clipPath id="52404e7b3b"><path d="M 86.105469 41.203125 C 85.402344 42.375 84.699219 42.199219 84.523438 41.90625 C 84.40625 41.671875 84.523438 40.96875 84.757812 40.792969 C 84.992188 40.617188 85.929688 40.851562 85.929688 40.851562 " clip-rule="nonzero"/></clipPath><clipPath id="87ecc88d69"><path d="M 90.578125 44.554688 L 101.882812 44.554688 L 101.882812 63.253906 L 90.578125 63.253906 Z M 90.578125 44.554688 " clip-rule="nonzero"/></clipPath><clipPath id="b951ce3f83"><path d="M 96.847656 46.425781 C 94.617188 47.835938 94.324219 48.304688 93.972656 49.066406 C 93.382812 50.417969 93.148438 54.171875 92.503906 55.054688 C 92.328125 55.40625 91.800781 55.640625 91.800781 55.582031 C 91.800781 55.582031 92.386719 54.875 92.621094 54.933594 C 93.089844 55.054688 93.207031 58.046875 93.617188 59.101562 C 93.914062 59.804688 94.265625 60.453125 94.617188 60.804688 C 94.910156 61.039062 95.203125 61.15625 95.554688 61.097656 C 96.082031 61.097656 97.082031 60.570312 97.492188 60.160156 C 97.785156 59.921875 97.785156 59.6875 97.960938 59.277344 C 98.371094 58.222656 99.019531 55.640625 99.136719 54.171875 C 99.253906 53 99.429688 52.234375 99.078125 51.0625 C 98.667969 49.359375 95.554688 46.074219 95.90625 45.191406 C 96.023438 44.78125 96.613281 44.664062 97.140625 44.664062 C 98.078125 44.664062 100.367188 45.488281 101.132812 46.074219 C 101.542969 46.425781 101.835938 46.777344 101.835938 47.128906 C 101.835938 47.421875 101.542969 47.777344 101.308594 47.953125 C 101.074219 48.070312 100.601562 48.1875 100.367188 48.011719 C 100.074219 47.777344 99.722656 46.894531 99.898438 46.601562 C 100.015625 46.25 101.011719 46.015625 101.308594 46.191406 C 101.601562 46.308594 101.894531 47.011719 101.777344 47.363281 C 101.71875 47.65625 101.25 48.011719 100.777344 48.070312 C 99.839844 48.246094 96.964844 47.1875 96.261719 46.484375 C 95.90625 46.191406 95.730469 45.722656 95.789062 45.429688 C 95.847656 45.132812 96.140625 44.78125 96.4375 44.664062 C 96.730469 44.546875 97.140625 44.605469 97.550781 44.898438 C 98.605469 45.664062 100.71875 49.242188 101.191406 51.179688 C 101.601562 52.648438 101.308594 53.9375 101.132812 55.289062 C 100.953125 56.753906 100.484375 58.398438 100.015625 59.570312 C 99.722656 60.335938 99.605469 60.921875 99.078125 61.507812 C 98.429688 62.152344 97.199219 62.917969 96.378906 63.09375 C 95.671875 63.269531 94.96875 63.210938 94.382812 62.976562 C 93.738281 62.742188 93.207031 62.269531 92.679688 61.683594 C 92.09375 60.921875 91.625 59.804688 91.273438 58.75 C 90.917969 57.519531 90.625 56.050781 90.625 54.699219 C 90.625 53.351562 90.859375 51.882812 91.273438 50.59375 C 91.742188 49.183594 92.445312 47.597656 93.382812 46.601562 C 94.207031 45.664062 95.730469 44.664062 96.496094 44.664062 C 96.90625 44.722656 97.375 45.132812 97.433594 45.429688 C 97.492188 45.722656 96.847656 46.425781 96.847656 46.425781 " clip-rule="nonzero"/></clipPath><clipPath id="beced500b4"><path d="M 104.835938 44.292969 L 108.488281 44.292969 L 108.488281 61.230469 L 104.835938 61.230469 Z M 104.835938 44.292969 " clip-rule="nonzero"/></clipPath><clipPath id="49bc716eb1"><path d="M 108.46875 45.429688 C 106.765625 58.046875 107.234375 59.746094 106.882812 60.511719 C 106.648438 60.921875 106.238281 61.273438 105.941406 61.214844 C 105.589844 61.214844 104.945312 60.570312 104.945312 60.21875 C 104.945312 59.921875 105.707031 59.277344 106.003906 59.277344 C 106.355469 59.335938 106.941406 60.101562 106.882812 60.394531 C 106.824219 60.746094 106.0625 61.214844 105.707031 61.214844 C 105.53125 61.214844 105.296875 61.097656 105.179688 60.921875 C 104.828125 60.335938 104.828125 58.632812 104.886719 56.988281 C 105.003906 54.054688 105.824219 46.542969 106.707031 45.015625 C 107 44.546875 107.410156 44.253906 107.703125 44.3125 C 107.996094 44.371094 108.46875 45.429688 108.46875 45.429688 " clip-rule="nonzero"/></clipPath><clipPath id="6409687cf6"><path d="M 106.734375 41.023438 L 108.414062 41.023438 L 108.414062 42.457031 L 106.734375 42.457031 Z M 106.734375 41.023438 " clip-rule="nonzero"/></clipPath><clipPath id="eb09e3eed2"><path d="M 108.410156 41.554688 C 107.644531 42.726562 107 42.492188 106.824219 42.257812 C 106.648438 42.023438 106.824219 41.261719 107.058594 41.085938 C 107.234375 40.910156 108.171875 41.203125 108.171875 41.203125 " clip-rule="nonzero"/></clipPath><clipPath id="b10ea9bbdf"><path d="M 111.347656 44.066406 L 123.496094 44.066406 L 123.496094 62 L 111.347656 62 Z M 111.347656 44.066406 " clip-rule="nonzero"/></clipPath><clipPath id="826300c035"><path d="M 114.042969 44.957031 C 113.574219 61.683594 113.21875 61.917969 112.925781 61.976562 C 112.632812 61.976562 112.164062 61.859375 111.988281 61.449219 C 111.226562 60.101562 112.515625 52.117188 113.398438 49.300781 C 113.867188 47.71875 114.394531 46.601562 115.214844 45.722656 C 115.921875 44.957031 116.917969 44.371094 117.855469 44.195312 C 118.738281 44.019531 119.910156 44.253906 120.675781 44.722656 C 121.4375 45.191406 122.082031 46.074219 122.492188 47.070312 C 122.960938 48.304688 122.902344 50.0625 122.84375 51.824219 C 122.84375 53.996094 121.4375 57.753906 121.964844 59.160156 C 122.257812 59.921875 123.433594 60.101562 123.492188 60.570312 C 123.492188 60.863281 122.960938 61.449219 122.667969 61.507812 C 122.316406 61.507812 121.496094 60.980469 121.4375 60.628906 C 121.378906 60.335938 122.023438 59.511719 122.316406 59.453125 C 122.667969 59.453125 123.433594 60.101562 123.492188 60.453125 C 123.492188 60.804688 122.902344 61.449219 122.433594 61.507812 C 121.847656 61.625 120.496094 61.039062 119.96875 60.101562 C 119.03125 58.222656 121.027344 51.121094 120.851562 49.007812 C 120.734375 48.128906 120.675781 47.65625 120.320312 47.1875 C 119.910156 46.660156 119.265625 46.191406 118.679688 46.132812 C 118.148438 46.074219 117.445312 46.308594 116.917969 46.71875 C 116.332031 47.246094 115.863281 48.1875 115.449219 49.242188 C 114.921875 50.535156 114.511719 52.351562 114.277344 54.171875 C 113.925781 56.285156 114.335938 60.101562 113.75 61.214844 C 113.574219 61.683594 113.21875 61.917969 112.925781 61.976562 C 112.632812 61.976562 112.222656 61.859375 111.988281 61.449219 C 110.992188 59.804688 111.402344 46.542969 112.339844 44.78125 C 112.574219 44.3125 112.984375 44.078125 113.277344 44.136719 C 113.574219 44.136719 114.042969 44.957031 114.042969 44.957031 " clip-rule="nonzero"/></clipPath><clipPath id="e4370f77ad"><path d="M 131.445312 43.820312 L 141.933594 43.820312 L 141.933594 60.5 L 131.445312 60.5 Z M 131.445312 43.820312 " clip-rule="nonzero"/></clipPath><clipPath id="a96d6778a9"><path d="M 139.359375 45.75 C 135.074219 46.867188 134.3125 47.570312 133.898438 48.625 C 133.195312 50.210938 133.3125 53.910156 133.488281 55.433594 C 133.546875 56.195312 133.664062 56.667969 133.957031 57.195312 C 134.3125 57.664062 134.839844 58.367188 135.367188 58.367188 C 135.953125 58.425781 136.777344 57.78125 137.304688 57.078125 C 138.242188 55.84375 139.125 53.085938 139.476562 51.207031 C 139.828125 49.507812 139.183594 47.042969 139.769531 46.277344 C 140.121094 45.867188 140.765625 45.574219 141.117188 45.808594 C 142.175781 46.574219 142.117188 57.488281 141.292969 59.367188 C 141 59.953125 140.53125 60.363281 140.179688 60.363281 C 139.828125 60.304688 139.242188 59.542969 139.242188 59.191406 C 139.300781 58.839844 140.121094 58.25 140.472656 58.308594 C 140.765625 58.367188 141.292969 59.25 141.234375 59.542969 C 141.175781 59.894531 140.589844 60.304688 140.296875 60.363281 C 140.003906 60.363281 139.652344 60.304688 139.417969 59.894531 C 138.535156 58.425781 138.300781 45.984375 139.59375 44.753906 C 140.003906 44.285156 140.882812 44.519531 141.234375 44.695312 C 141.46875 44.8125 141.527344 45.046875 141.648438 45.457031 C 141.941406 46.574219 141.707031 50.152344 141.292969 52.265625 C 140.882812 54.203125 140.238281 56.316406 139.417969 57.664062 C 138.769531 58.601562 138.007812 59.367188 137.246094 59.835938 C 136.597656 60.1875 135.835938 60.539062 135.132812 60.421875 C 134.253906 60.246094 133.078125 59.25 132.550781 58.542969 C 132.082031 58.015625 131.847656 57.605469 131.726562 56.785156 C 131.316406 54.964844 131.316406 49.859375 132.082031 47.921875 C 132.492188 46.75 133.136719 46.160156 133.898438 45.574219 C 134.605469 44.929688 135.484375 44.460938 136.421875 44.167969 C 137.421875 43.929688 139.242188 43.695312 139.828125 44.050781 C 140.121094 44.285156 140.296875 44.871094 140.238281 45.164062 C 140.121094 45.457031 139.359375 45.75 139.359375 45.75 " clip-rule="nonzero"/></clipPath><clipPath id="f313e31c07"><path d="M 154.070312 38.273438 L 167.121094 38.273438 L 167.121094 61.707031 L 154.070312 61.707031 Z M 154.070312 38.273438 " clip-rule="nonzero"/></clipPath><clipPath id="878c3842aa"><path d="M 163.515625 40.320312 C 159.640625 40.617188 158.351562 40.617188 157.589844 41.496094 C 156.355469 43.023438 156.765625 49.125 156.296875 50.652344 C 156.121094 51.238281 156.0625 51.648438 155.769531 51.824219 C 155.476562 51.941406 154.949219 51.882812 154.652344 51.707031 C 154.476562 51.53125 154.242188 51.121094 154.300781 50.886719 C 154.300781 50.59375 154.710938 50.121094 154.949219 50.003906 C 155.242188 49.886719 155.652344 49.886719 155.886719 50.121094 C 156.53125 50.828125 155.945312 54.699219 156.648438 56.285156 C 157.234375 57.578125 158.117188 58.75 159.171875 59.21875 C 160.230469 59.746094 161.929688 59.863281 163.046875 59.394531 C 164.160156 58.925781 164.984375 56.402344 165.746094 56.285156 C 166.273438 56.226562 166.976562 56.753906 167.035156 57.105469 C 167.152344 57.398438 166.800781 58.046875 166.507812 58.222656 C 166.273438 58.398438 165.746094 58.398438 165.511719 58.222656 C 165.277344 58.046875 164.984375 57.398438 164.984375 57.046875 C 165.042969 56.753906 165.394531 56.402344 165.6875 56.34375 C 165.980469 56.226562 166.742188 56.402344 166.859375 56.695312 C 167.152344 57.222656 166.273438 59.101562 165.570312 59.921875 C 164.925781 60.6875 164.042969 61.273438 163.046875 61.507812 C 161.753906 61.800781 159.640625 61.742188 158.410156 61.15625 C 157.234375 60.628906 156.238281 59.394531 155.535156 58.398438 C 155.007812 57.578125 154.652344 56.871094 154.417969 55.816406 C 154.125 54.464844 154.007812 51.824219 154.300781 50.886719 C 154.417969 50.417969 154.710938 50.121094 154.949219 50.003906 C 155.242188 49.886719 155.886719 50.0625 155.886719 50.121094 C 155.886719 50.242188 154.535156 50.652344 154.359375 50.476562 C 154.183594 50.359375 154.359375 50.003906 154.359375 49.59375 C 154.476562 48.480469 154.652344 45.546875 155.007812 43.902344 C 155.359375 42.492188 155.417969 40.96875 156.296875 40.085938 C 157.175781 39.148438 159.113281 38.796875 160.40625 38.5625 C 161.519531 38.328125 162.8125 38.210938 163.515625 38.503906 C 163.925781 38.679688 164.394531 38.972656 164.394531 39.265625 C 164.453125 39.617188 163.515625 40.320312 163.515625 40.320312 " clip-rule="nonzero"/></clipPath><clipPath id="b46c9235ac"><path d="M 170.667969 37.625 L 182.054688 37.625 L 182.054688 60.527344 L 170.667969 60.527344 Z M 170.667969 37.625 " clip-rule="nonzero"/></clipPath><clipPath id="5f246eb1db"><path d="M 172.730469 38.5625 C 173.023438 52.527344 173.550781 56.695312 174.195312 57.871094 C 174.429688 58.222656 174.726562 58.457031 174.960938 58.457031 C 175.195312 58.457031 175.429688 58.105469 175.664062 57.695312 C 176.132812 56.988281 176.835938 55.640625 177.367188 54.054688 C 178.246094 51.414062 179.480469 45.957031 179.832031 43.140625 C 180.007812 41.496094 179.359375 39.5 179.832031 39.03125 C 180.125 38.796875 180.886719 38.914062 181.179688 39.148438 C 181.472656 39.382812 181.472656 39.792969 181.589844 40.5 C 181.882812 42.257812 182.121094 47.777344 182.003906 50.476562 C 181.945312 52.292969 181.414062 53.585938 181.414062 55.054688 C 181.414062 56.402344 182.121094 58.105469 181.765625 58.867188 C 181.589844 59.277344 181.179688 59.628906 180.828125 59.628906 C 180.59375 59.6875 180.125 59.453125 180.007812 59.21875 C 179.832031 58.984375 179.832031 58.28125 180.007812 57.988281 C 180.183594 57.753906 180.59375 57.578125 180.886719 57.636719 C 181.121094 57.636719 181.53125 57.871094 181.707031 58.105469 C 181.824219 58.398438 181.765625 59.101562 181.53125 59.335938 C 181.355469 59.570312 180.886719 59.6875 180.652344 59.628906 C 180.300781 59.570312 180.007812 59.277344 179.773438 58.75 C 178.890625 56.460938 178.421875 40.144531 179.832031 39.03125 C 180.242188 38.738281 181.0625 39.03125 181.414062 39.382812 C 181.882812 39.910156 181.945312 41.144531 181.945312 42.492188 C 181.824219 45.253906 180.359375 51.882812 179.183594 55.054688 C 178.363281 57.046875 177.484375 58.984375 176.425781 59.804688 C 175.78125 60.335938 174.902344 60.570312 174.253906 60.453125 C 173.667969 60.335938 173.082031 59.863281 172.671875 59.21875 C 172.023438 58.28125 171.730469 56.519531 171.4375 54.699219 C 171.027344 52.058594 170.96875 47.894531 170.910156 45.015625 C 170.851562 42.550781 170.441406 39.382812 170.96875 38.386719 C 171.203125 37.917969 171.671875 37.621094 171.964844 37.679688 C 172.261719 37.738281 172.730469 38.5625 172.730469 38.5625 " clip-rule="nonzero"/></clipPath><clipPath id="97923ba236"><path d="M 185.496094 36.414062 L 196.359375 36.414062 L 196.359375 59.519531 L 185.496094 59.519531 Z M 185.496094 36.414062 " clip-rule="nonzero"/></clipPath><clipPath id="7e1ba5244d"><path d="M 187.988281 37.328125 C 188.28125 57.339844 188.28125 58.222656 188.105469 58.28125 C 187.988281 58.28125 187.460938 57.636719 187.578125 57.398438 C 187.8125 56.929688 191.449219 57.457031 192.917969 57.222656 C 193.914062 56.988281 194.855469 56.226562 195.5 56.402344 C 195.851562 56.460938 196.261719 56.871094 196.320312 57.164062 C 196.320312 57.519531 195.792969 58.28125 195.441406 58.28125 C 195.148438 58.339844 194.445312 57.695312 194.386719 57.398438 C 194.386719 57.046875 195.03125 56.402344 195.382812 56.402344 C 195.675781 56.402344 196.261719 57.046875 196.320312 57.398438 C 196.320312 57.636719 196.144531 57.929688 195.851562 58.164062 C 195.265625 58.632812 193.796875 58.984375 192.507812 59.160156 C 190.921875 59.453125 187.988281 59.628906 187.050781 59.335938 C 186.695312 59.160156 186.519531 59.160156 186.34375 58.75 C 185.347656 56.8125 185.171875 39.675781 186.226562 37.328125 C 186.519531 36.742188 186.933594 36.449219 187.226562 36.449219 C 187.519531 36.507812 187.988281 37.328125 187.988281 37.328125 " clip-rule="nonzero"/></clipPath><clipPath id="c6c20876c9"><path d="M 200.003906 36.179688 L 203.460938 36.179688 L 203.460938 59.363281 L 200.003906 59.363281 Z M 200.003906 36.179688 " clip-rule="nonzero"/></clipPath><clipPath id="98ca55631a"><path d="M 202.132812 37.035156 C 202.367188 52.410156 203.832031 56.8125 203.363281 58.339844 C 203.1875 58.925781 202.71875 59.335938 202.425781 59.335938 C 202.074219 59.335938 201.425781 58.691406 201.425781 58.339844 C 201.425781 58.046875 202.132812 57.398438 202.484375 57.457031 C 202.777344 57.457031 203.363281 58.222656 203.363281 58.515625 C 203.304688 58.808594 202.835938 59.335938 202.484375 59.335938 C 202.191406 59.394531 201.78125 59.21875 201.488281 58.75 C 200.664062 57.519531 200.605469 52.527344 200.371094 49.125 C 200.195312 45.3125 199.667969 38.328125 200.429688 36.859375 C 200.664062 36.390625 201.074219 36.15625 201.367188 36.214844 C 201.664062 36.214844 202.132812 37.035156 202.132812 37.035156 " clip-rule="nonzero"/></clipPath><clipPath id="8dc2ee7753"><path d="M 192.273438 33.867188 L 211.375 33.867188 L 211.375 37.125 L 192.273438 37.125 Z M 192.273438 33.867188 " clip-rule="nonzero"/></clipPath><clipPath id="b619acfb4f"><path d="M 193.125 34.921875 C 206.679688 34.628906 209.203125 33.632812 210.320312 33.925781 C 210.847656 34.101562 211.375 34.511719 211.375 34.863281 C 211.375 35.15625 210.730469 35.804688 210.378906 35.804688 C 210.085938 35.804688 209.4375 35.097656 209.496094 34.804688 C 209.496094 34.511719 210.203125 33.925781 210.554688 33.925781 C 210.847656 33.925781 211.316406 34.453125 211.375 34.746094 C 211.375 35.039062 211.199219 35.453125 210.789062 35.746094 C 209.847656 36.390625 206.796875 36.566406 204.332031 36.742188 C 201.046875 36.976562 194.355469 37.445312 192.949219 36.683594 C 192.476562 36.390625 192.242188 35.980469 192.300781 35.6875 C 192.300781 35.390625 193.125 34.921875 193.125 34.921875 " clip-rule="nonzero"/></clipPath><clipPath id="ee1b471b18"><path d="M 0 13.488281 L 40 13.488281 L 40 66 L 0 66 Z M 0 13.488281 " clip-rule="nonzero"/></clipPath><clipPath id="b540abec03"><path d="M 0.898438 60.511719 C 9.667969 45.296875 15.066406 33.527344 17.691406 27.230469 C 19.265625 23.332031 20.015625 18.910156 21.0625 17.5625 C 21.4375 17.109375 21.8125 16.886719 22.1875 16.960938 C 23.085938 17.1875 24.363281 19.660156 25.261719 21.457031 C 26.460938 23.855469 27.0625 27.832031 28.183594 30.378906 C 29.007812 32.328125 29.910156 33.003906 30.957031 35.550781 C 33.355469 41.171875 40.628906 61.414062 39.953125 64.636719 C 39.804688 65.386719 39.277344 65.683594 38.902344 65.835938 C 38.53125 65.984375 38.304688 65.835938 37.703125 65.761719 C 36.128906 65.535156 32.457031 64.335938 28.785156 63.886719 C 23.164062 63.0625 11.917969 62.910156 7.195312 62.613281 C 4.871094 62.386719 3 62.535156 2.023438 62.085938 C 1.574219 61.863281 1.273438 61.636719 1.199219 61.335938 C 1.125 60.960938 1.425781 60.0625 1.800781 59.761719 C 2.175781 59.464844 2.773438 59.6875 3.746094 59.6875 C 7.421875 59.6875 22.261719 60.363281 28.335938 61.039062 C 31.859375 61.414062 36.28125 63.210938 36.804688 62.386719 C 37.179688 61.710938 34.257812 60.0625 33.507812 57.890625 C 32.234375 54.214844 34.03125 45.59375 32.757812 40.949219 C 31.707031 37.273438 29.382812 35.402344 27.886719 31.804688 C 25.9375 27.15625 22.113281 17.335938 22.710938 14.9375 C 22.863281 14.113281 23.613281 13.585938 23.988281 13.585938 C 24.285156 13.585938 24.660156 13.886719 24.8125 14.261719 C 25.035156 14.789062 24.738281 15.761719 24.210938 16.960938 C 22.9375 20.035156 17.316406 27.15625 14.992188 31.953125 C 12.96875 36.152344 12.367188 39.824219 10.417969 44.023438 C 8.246094 49.042969 0.898438 57.214844 2.25 59.988281 C 3.296875 62.085938 9.371094 61.488281 12.441406 61.785156 C 14.917969 62.011719 16.492188 61.9375 19.113281 61.9375 C 22.9375 61.9375 29.910156 62.085938 33.058594 61.636719 C 34.632812 61.335938 35.90625 60.210938 36.65625 60.511719 C 37.179688 60.738281 37.703125 61.9375 37.480469 62.3125 C 37.105469 62.910156 34.03125 62.535156 32.082031 62.3125 C 29.984375 62.011719 27.886719 60.8125 25.335938 60.585938 C 22.1875 60.289062 18.066406 61.335938 14.542969 61.261719 C 11.09375 61.1875 6.070312 60.8125 4.273438 60.136719 C 3.597656 59.914062 3.148438 59.613281 2.921875 59.238281 C 2.773438 58.863281 2.773438 58.488281 2.921875 58.039062 C 3.375 56.914062 5.472656 53.542969 6.597656 53.089844 C 7.121094 52.867188 7.796875 53.015625 8.09375 53.316406 C 8.320312 53.617188 8.46875 54.589844 8.246094 54.816406 C 7.945312 55.191406 6.445312 55.265625 6.148438 54.964844 C 5.847656 54.742188 5.921875 53.765625 6.148438 53.464844 C 6.371094 53.167969 6.894531 52.867188 7.195312 52.941406 C 7.644531 53.089844 8.394531 54.066406 8.320312 54.742188 C 8.171875 55.640625 5.023438 57.140625 5.320312 57.890625 C 5.695312 59.011719 12.441406 58.863281 15.742188 58.863281 C 18.890625 58.863281 21.511719 57.964844 24.738281 58.113281 C 28.484375 58.339844 35.457031 59.3125 36.957031 60.585938 C 37.480469 61.113281 37.628906 61.785156 37.480469 62.3125 C 37.328125 62.835938 36.503906 63.285156 35.832031 63.585938 C 35.082031 63.886719 34.480469 63.734375 33.132812 63.8125 C 29.683594 64.035156 19.714844 64.5625 13.941406 64.1875 C 9.296875 63.886719 3.449219 63.4375 1.273438 62.3125 C 0.300781 61.785156 -0.300781 61.5625 -0.449219 60.585938 C -0.824219 57.964844 6.296875 48.667969 8.695312 43.273438 C 10.644531 38.925781 11.09375 35.324219 13.117188 30.976562 C 15.589844 25.730469 20.988281 15.835938 22.863281 14.113281 C 23.3125 13.664062 23.613281 13.511719 23.988281 13.585938 C 24.4375 13.738281 24.738281 14.335938 25.1875 15.238281 C 26.535156 17.785156 28.335938 27.082031 30.207031 31.429688 C 31.558594 34.578125 33.65625 36.75 34.632812 39.222656 C 35.304688 41.246094 35.457031 42.746094 35.679688 45.070312 C 36.128906 48.371094 35.15625 54.515625 36.207031 57.515625 C 36.878906 59.613281 38.980469 61.039062 39.355469 62.238281 C 39.503906 62.910156 39.578125 63.4375 39.355469 63.886719 C 38.980469 64.410156 38.15625 64.859375 37.105469 65.011719 C 35.304688 65.234375 32.308594 63.960938 28.933594 63.585938 C 23.539062 63.0625 12.894531 63.0625 8.019531 62.6875 C 5.398438 62.535156 3.148438 62.535156 2.023438 62.085938 C 1.574219 61.863281 1.273438 61.636719 1.199219 61.335938 C 1.125 60.960938 1.425781 60.0625 1.800781 59.761719 C 2.175781 59.464844 2.699219 59.6875 3.746094 59.6875 C 7.570312 59.761719 24.886719 61.039062 31.183594 62.011719 C 34.480469 62.535156 38.304688 62.910156 38.605469 63.734375 C 38.753906 64.1875 37.929688 65.234375 37.628906 65.234375 C 37.40625 65.234375 37.253906 64.785156 37.03125 64.109375 C 35.757812 61.113281 31.707031 44.320312 28.710938 36.226562 C 26.3125 29.703125 21.738281 21.609375 21.140625 18.984375 C 20.988281 18.308594 20.914062 17.933594 21.0625 17.5625 C 21.289062 17.261719 21.886719 16.886719 22.1875 16.960938 C 22.5625 17.035156 23.085938 17.636719 23.164062 18.460938 C 23.460938 22.433594 12.367188 44.847656 8.394531 52.492188 C 6.222656 56.691406 4.199219 60.886719 2.773438 61.863281 C 2.175781 62.160156 1.574219 62.238281 1.273438 62.011719 C 0.972656 61.785156 0.898438 60.511719 0.898438 60.511719 " clip-rule="nonzero"/></clipPath><clipPath id="6385cb3395"><path d="M 20.230469 28.570312 L 23.625 28.570312 L 23.625 47.054688 L 20.230469 47.054688 Z M 20.230469 28.570312 " clip-rule="nonzero"/></clipPath><clipPath id="ec3ecd4f13"><path d="M 23.613281 29.777344 C 23.539062 42.898438 23.539062 44.847656 22.863281 45.820312 C 22.414062 46.496094 21.363281 47.019531 20.988281 46.871094 C 20.6875 46.644531 20.464844 44.996094 20.765625 44.769531 C 21.0625 44.472656 22.636719 44.921875 22.789062 45.296875 C 22.9375 45.671875 21.964844 46.945312 21.511719 47.019531 C 21.140625 47.019531 20.539062 46.269531 20.3125 45.59375 C 20.015625 44.546875 20.988281 42.820312 21.214844 40.875 C 21.511719 37.949219 20.464844 31.054688 21.363281 29.480469 C 21.664062 28.878906 22.1875 28.578125 22.5625 28.578125 C 22.9375 28.65625 23.613281 29.777344 23.613281 29.777344 " clip-rule="nonzero"/></clipPath><clipPath id="8d96fc6705"><path d="M 19.152344 51.628906 L 21.292969 51.628906 L 21.292969 53.492188 L 19.152344 53.492188 Z M 19.152344 51.628906 " clip-rule="nonzero"/></clipPath><clipPath id="685d22371f"><path d="M 21.289062 52.265625 C 20.3125 53.839844 19.414062 53.542969 19.265625 53.242188 C 19.039062 52.867188 19.191406 51.96875 19.488281 51.742188 C 19.789062 51.515625 20.988281 51.816406 20.988281 51.816406 " clip-rule="nonzero"/></clipPath><clipPath id="984ae2672a"><path d="M 19.054688 50.296875 L 23.144531 50.296875 L 23.144531 53.976562 L 19.054688 53.976562 Z M 19.054688 50.296875 " clip-rule="nonzero"/></clipPath><clipPath id="7a751a5f22"><path d="M 21.0625 51.292969 C 20.238281 52.566406 19.9375 52.117188 19.9375 51.816406 C 19.863281 51.441406 20.089844 50.769531 20.390625 50.542969 C 20.6875 50.316406 21.214844 50.242188 21.511719 50.394531 C 21.886719 50.542969 22.339844 51.21875 22.339844 51.59375 C 22.339844 51.96875 22.039062 52.417969 21.738281 52.566406 C 21.363281 52.792969 20.539062 52.640625 20.238281 52.417969 C 20.015625 52.191406 19.789062 51.667969 19.9375 51.367188 C 20.089844 50.917969 21.363281 50.394531 21.738281 50.46875 C 22.039062 50.617188 22.339844 51.144531 22.339844 51.515625 C 22.339844 51.890625 21.886719 52.566406 21.511719 52.71875 C 21.140625 52.792969 20.464844 52.640625 20.164062 52.34375 C 19.9375 52.042969 19.789062 51.292969 20.015625 50.992188 C 20.3125 50.542969 22.039062 50.316406 22.488281 50.691406 C 23.011719 51.066406 23.238281 52.566406 23.085938 53.089844 C 22.9375 53.464844 22.488281 53.839844 22.113281 53.917969 C 21.4375 54.066406 20.015625 53.617188 19.488281 53.167969 C 19.113281 52.71875 18.964844 51.59375 19.191406 51.292969 C 19.414062 50.992188 21.0625 51.292969 21.0625 51.292969 " clip-rule="nonzero"/></clipPath><clipPath id="3d3af44392"><path d="M 154.335938 60.09375 L 208.5625 60.09375 L 208.5625 65.226562 L 154.335938 65.226562 Z M 154.335938 60.09375 " clip-rule="nonzero"/></clipPath><clipPath id="484b3a3152"><path d="M 155.542969 62.238281 C 179.453125 62.238281 183.578125 61.261719 188.75 60.960938 C 194.519531 60.585938 204.867188 59.539062 207.339844 60.585938 C 208.089844 60.960938 208.613281 61.488281 208.539062 61.9375 C 208.539062 62.3125 207.5625 63.136719 207.1875 63.0625 C 206.738281 63.0625 205.988281 62.085938 206.066406 61.636719 C 206.140625 61.261719 207.1875 60.585938 207.5625 60.664062 C 207.9375 60.664062 208.539062 61.414062 208.539062 61.785156 C 208.539062 62.238281 208.089844 62.761719 207.339844 63.0625 C 204.867188 64.1875 194.894531 62.910156 188.972656 63.285156 C 183.425781 63.585938 178.328125 64.710938 172.859375 64.933594 C 167.085938 65.160156 157.339844 65.609375 155.242188 64.484375 C 154.640625 64.1875 154.34375 63.585938 154.34375 63.210938 C 154.417969 62.835938 155.542969 62.238281 155.542969 62.238281 " clip-rule="nonzero"/></clipPath><clipPath id="9343df1ca1"><path d="M 216.195312 33.683594 L 219.375 33.683594 L 219.375 58.761719 L 216.195312 58.761719 Z M 216.195312 33.683594 " clip-rule="nonzero"/></clipPath><clipPath id="a1a9520efa"><path d="M 218.660156 34.800781 C 219.03125 58.5625 218.207031 58.789062 217.832031 58.714844 C 217.457031 58.5625 216.933594 57.8125 217.007812 57.4375 C 217.085938 56.988281 218.058594 56.164062 218.433594 56.316406 C 218.882812 56.390625 219.484375 57.738281 219.332031 58.113281 C 219.183594 58.488281 218.359375 58.789062 217.984375 58.714844 C 217.535156 58.640625 217.308594 58.265625 217.007812 57.515625 C 216.109375 55.117188 216.410156 43.121094 216.335938 39 C 216.335938 36.898438 215.960938 35.027344 216.484375 34.277344 C 216.859375 33.828125 217.609375 33.601562 217.910156 33.753906 C 218.285156 33.828125 218.660156 34.800781 218.660156 34.800781 " clip-rule="nonzero"/></clipPath><clipPath id="ad353b1829"><path d="M 216.972656 62.007812 L 219.113281 62.007812 L 219.113281 63.835938 L 216.972656 63.835938 Z M 216.972656 62.007812 " clip-rule="nonzero"/></clipPath><clipPath id="e4d326673c"><path d="M 219.109375 62.6875 C 218.132812 64.1875 217.234375 63.886719 217.085938 63.585938 C 216.859375 63.285156 217.007812 62.3125 217.308594 62.085938 C 217.609375 61.863281 218.808594 62.238281 218.808594 62.238281 " clip-rule="nonzero"/></clipPath><clipPath id="1132400b15"><path d="M 216.550781 60.128906 L 218.828125 60.128906 L 218.828125 62.40625 L 216.550781 62.40625 Z M 216.550781 60.128906 " clip-rule="nonzero"/></clipPath><clipPath id="771c2aacf9"><path d="M 218.808594 61.261719 C 216.933594 62.160156 216.632812 60.738281 216.859375 60.4375 C 217.085938 60.210938 218.507812 60.4375 218.660156 60.738281 C 218.808594 61.113281 218.058594 62.3125 217.683594 62.386719 C 217.382812 62.386719 216.558594 61.636719 216.558594 61.261719 C 216.558594 60.886719 217.382812 60.0625 217.757812 60.136719 C 218.132812 60.136719 218.808594 61.1875 218.808594 61.1875 " clip-rule="nonzero"/></clipPath><clipPath id="aff1d107c3"><path d="M 216.597656 60.851562 L 218.738281 60.851562 L 218.738281 62.714844 L 216.597656 62.714844 Z M 216.597656 60.851562 " clip-rule="nonzero"/></clipPath><clipPath id="8b869f86e6"><path d="M 218.734375 61.488281 C 217.757812 63.0625 216.859375 62.761719 216.710938 62.460938 C 216.484375 62.085938 216.632812 61.1875 216.933594 60.960938 C 217.234375 60.738281 218.433594 61.039062 218.433594 61.039062 " clip-rule="nonzero"/></clipPath></defs><g clip-path="url(#bf017f588c)"><g clip-path="url(#1a52852630)"><path fill="#90ee90" d="M 49.484375 9.335938 L 64.15625 9.335938 L 64.15625 30.3125 L 49.484375 30.3125 Z M 49.484375 9.335938 " fill-opacity="1" fill-rule="nonzero"/></g></g><g clip-path="url(#c5bcc0ead7)"><g clip-path="url(#23c31ab61f)"><path fill="#90ee90" d="M 48.664062 10.273438 L 74.664062 10.273438 L 74.664062 37.59375 L 48.664062 37.59375 Z M 48.664062 10.273438 " fill-opacity="1" fill-rule="nonzero"/></g></g><g clip-path="url(#c5dfe12347)"><g clip-path="url(#3c347576be)"><path fill="#90ee90" d="M 68.03125 10.097656 L 87.867188 10.097656 L 87.867188 34.117188 L 68.03125 34.117188 Z M 68.03125 10.097656 " fill-opacity="1" fill-rule="nonzero"/></g></g><g clip-path="url(#0f28c1b744)"><g clip-path="url(#d80539ff2f)"><path fill="#90ee90" d="M 85.871094 10.980469 L 101.191406 10.980469 L 101.191406 34.433594 L 85.871094 34.433594 Z M 85.871094 10.980469 " fill-opacity="1" fill-rule="nonzero"/></g></g><g clip-path="url(#0044c6380a)"><g clip-path="url(#ad659ea339)"><path fill="#90ee90" d="M 105.414062 11.390625 L 120.554688 11.390625 L 120.554688 33.214844 L 105.414062 33.214844 Z M 105.414062 11.390625 " fill-opacity="1" fill-rule="nonzero"/></g></g><g clip-path="url(#361f4d1063)"><g clip-path="url(#95a3c81e61)"><path fill="#90ee90" d="M 117.679688 10.980469 L 134.933594 10.980469 L 134.933594 32.613281 L 117.679688 32.613281 Z M 117.679688 10.980469 " fill-opacity="1" fill-rule="nonzero"/></g></g><g clip-path="url(#2fa87d0f40)"><g clip-path="url(#3e2a61f818)"><path fill="#90ee90" d="M 130.652344 9.394531 L 147.550781 9.394531 L 147.550781 31.972656 L 130.652344 31.972656 Z M 130.652344 9.394531 " fill-opacity="1" fill-rule="nonzero"/></g></g><g clip-path="url(#0d6ecfa03f)"><g clip-path="url(#586cc8f0a9)"><path fill="#90ee90" d="M 151.71875 10.039062 L 167.859375 10.039062 L 167.859375 31.347656 L 151.71875 31.347656 Z M 151.71875 10.039062 " fill-opacity="1" fill-rule="nonzero"/></g></g><g clip-path="url(#4e6e9960cc)"><g clip-path="url(#5dc1dc7e89)"><path fill="#90ee90" d="M 165.921875 7.515625 L 181.589844 7.515625 L 181.589844 34.265625 L 165.921875 34.265625 Z M 165.921875 7.515625 " fill-opacity="1" fill-rule="nonzero"/></g></g><g clip-path="url(#8b1af68e9e)"><g clip-path="url(#f8264c865d)"><path fill="#90ee90" d="M 178.832031 13.324219 L 195.910156 13.324219 L 195.910156 33.074219 L 178.832031 33.074219 Z M 178.832031 13.324219 " fill-opacity="1" fill-rule="nonzero"/></g></g><g clip-path="url(#bbc8024395)"><g clip-path="url(#2e0e4db731)"><path fill="#90ee90" d="M 194.210938 12.210938 L 208.644531 12.210938 L 208.644531 32.117188 L 194.210938 32.117188 Z M 194.210938 12.210938 " fill-opacity="1" fill-rule="nonzero"/></g></g><g clip-path="url(#1f423a1942)"><g clip-path="url(#613f69198b)"><path fill="#90ee90" d="M 207.824219 7.574219 L 219.445312 7.574219 L 219.445312 33.085938 L 207.824219 33.085938 Z M 207.824219 7.574219 " fill-opacity="1" fill-rule="nonzero"/></g></g><g clip-path="url(#3de4a2396f)"><g clip-path="url(#f610d4d3a3)"><path fill="#90ee90" d="M 204.421875 10.332031 L 218.445312 10.332031 L 218.445312 17.082031 L 204.421875 17.082031 Z M 204.421875 10.332031 " fill-opacity="1" fill-rule="nonzero"/></g></g><g clip-path="url(#89bade69c7)"><g clip-path="url(#04a35b0aa6)"><path fill="#90ee90" d="M 47.609375 38.621094 L 59.050781 38.621094 L 59.050781 65.84375 L 47.609375 65.84375 Z M 47.609375 38.621094 " fill-opacity="1" fill-rule="nonzero"/></g></g><g clip-path="url(#b55a3bbd09)"><g clip-path="url(#a6897502e7)"><path fill="#90ee90" d="M 42.503906 43.609375 L 59.289062 43.609375 L 59.289062 50.242188 L 42.503906 50.242188 Z M 42.503906 43.609375 " fill-opacity="1" fill-rule="nonzero"/></g></g><g clip-path="url(#b554365031)"><g clip-path="url(#cd1bbf2a6d)"><path fill="#90ee90" d="M 55.355469 43.492188 L 71.023438 43.492188 L 71.023438 63.933594 L 55.355469 63.933594 Z M 55.355469 43.492188 " fill-opacity="1" fill-rule="nonzero"/></g></g><g clip-path="url(#f4880cad34)"><g clip-path="url(#8128091dd8)"><path fill="#90ee90" d="M 76.539062 42.433594 L 93.5 42.433594 L 93.5 65.820312 L 76.539062 65.820312 Z M 76.539062 42.433594 " fill-opacity="1" fill-rule="nonzero"/></g></g><g clip-path="url(#b31a9ef30b)"><g clip-path="url(#52404e7b3b)"><path fill="#90ee90" d="M 82.175781 38.445312 L 88.515625 38.445312 L 88.515625 44.664062 L 82.175781 44.664062 Z M 82.175781 38.445312 " fill-opacity="1" fill-rule="nonzero"/></g></g><g clip-path="url(#87ecc88d69)"><g clip-path="url(#b951ce3f83)"><path fill="#90ee90" d="M 88.277344 42.316406 L 104.183594 42.316406 L 104.183594 65.492188 L 88.277344 65.492188 Z M 88.277344 42.316406 " fill-opacity="1" fill-rule="nonzero"/></g></g><g clip-path="url(#beced500b4)"><g clip-path="url(#49bc716eb1)"><path fill="#90ee90" d="M 102.539062 41.964844 L 110.8125 41.964844 L 110.8125 63.621094 L 102.539062 63.621094 Z M 102.539062 41.964844 " fill-opacity="1" fill-rule="nonzero"/></g></g><g clip-path="url(#6409687cf6)"><g clip-path="url(#eb09e3eed2)"><path fill="#90ee90" d="M 104.476562 38.738281 L 110.820312 38.738281 L 110.820312 44.957031 L 104.476562 44.957031 Z M 104.476562 38.738281 " fill-opacity="1" fill-rule="nonzero"/></g></g><g clip-path="url(#b10ea9bbdf)"><g clip-path="url(#826300c035)"><path fill="#90ee90" d="M 109.640625 41.789062 L 125.839844 41.789062 L 125.839844 64.3125 L 109.640625 64.3125 Z M 109.640625 41.789062 " fill-opacity="1" fill-rule="nonzero"/></g></g><g clip-path="url(#e4370f77ad)"><g clip-path="url(#a96d6778a9)"><path fill="#90ee90" d="M 129.382812 41.703125 L 144.054688 41.703125 L 144.054688 62.792969 L 129.382812 62.792969 Z M 129.382812 41.703125 " fill-opacity="1" fill-rule="nonzero"/></g></g><g clip-path="url(#f313e31c07)"><g clip-path="url(#878c3842aa)"><path fill="#90ee90" d="M 151.953125 36.15625 L 169.441406 36.15625 L 169.441406 63.890625 L 151.953125 63.890625 Z M 151.953125 36.15625 " fill-opacity="1" fill-rule="nonzero"/></g></g><g clip-path="url(#b46c9235ac)"><g clip-path="url(#5f246eb1db)"><path fill="#90ee90" d="M 168.5625 35.332031 L 184.410156 35.332031 L 184.410156 62.816406 L 168.5625 62.816406 Z M 168.5625 35.332031 " fill-opacity="1" fill-rule="nonzero"/></g></g><g clip-path="url(#97923ba236)"><g clip-path="url(#7e1ba5244d)"><path fill="#90ee90" d="M 183.878906 34.101562 L 198.667969 34.101562 L 198.667969 61.65625 L 183.878906 61.65625 Z M 183.878906 34.101562 " fill-opacity="1" fill-rule="nonzero"/></g></g><g clip-path="url(#c6c20876c9)"><g clip-path="url(#98ca55631a)"><path fill="#90ee90" d="M 198.023438 33.867188 L 205.710938 33.867188 L 205.710938 61.734375 L 198.023438 61.734375 Z M 198.023438 33.867188 " fill-opacity="1" fill-rule="nonzero"/></g></g><g clip-path="url(#8dc2ee7753)"><g clip-path="url(#b619acfb4f)"><path fill="#90ee90" d="M 189.953125 31.578125 L 213.78125 31.578125 L 213.78125 39.089844 L 189.953125 39.089844 Z M 189.953125 31.578125 " fill-opacity="1" fill-rule="nonzero"/></g></g><g clip-path="url(#ee1b471b18)"><g clip-path="url(#b540abec03)"><path fill="#90ee90" d="M -3.449219 10.589844 L 42.953125 10.589844 L 42.953125 68.953125 L -3.449219 68.953125 Z M -3.449219 10.589844 " fill-opacity="1" fill-rule="nonzero"/></g></g><g clip-path="url(#6385cb3395)"><g clip-path="url(#ec3ecd4f13)"><path fill="#90ee90" d="M 17.316406 25.582031 L 26.761719 25.582031 L 26.761719 50.003906 L 17.316406 50.003906 Z M 17.316406 25.582031 " fill-opacity="1" fill-rule="nonzero"/></g></g><g clip-path="url(#8d96fc6705)"><g clip-path="url(#685d22371f)"><path fill="#90ee90" d="M 16.265625 48.742188 L 24.367188 48.742188 L 24.367188 56.691406 L 16.265625 56.691406 Z M 16.265625 48.742188 " fill-opacity="1" fill-rule="nonzero"/></g></g><g clip-path="url(#984ae2672a)"><g clip-path="url(#7a751a5f22)"><path fill="#90ee90" d="M 16.191406 47.394531 L 26.082031 47.394531 L 26.082031 56.914062 L 16.191406 56.914062 Z M 16.191406 47.394531 " fill-opacity="1" fill-rule="nonzero"/></g></g><g clip-path="url(#3d3af44392)"><g clip-path="url(#484b3a3152)"><path fill="#90ee90" d="M 151.34375 57.589844 L 211.550781 57.589844 L 211.550781 67.933594 L 151.34375 67.933594 Z M 151.34375 57.589844 " fill-opacity="1" fill-rule="nonzero"/></g></g><g clip-path="url(#9343df1ca1)"><g clip-path="url(#a1a9520efa)"><path fill="#90ee90" d="M 213.335938 30.753906 L 222.480469 30.753906 L 222.480469 61.796875 L 213.335938 61.796875 Z M 213.335938 30.753906 " fill-opacity="1" fill-rule="nonzero"/></g></g><g clip-path="url(#ad353b1829)"><g clip-path="url(#e4d326673c)"><path fill="#90ee90" d="M 214.085938 59.089844 L 222.1875 59.089844 L 222.1875 67.035156 L 214.085938 67.035156 Z M 214.085938 59.089844 " fill-opacity="1" fill-rule="nonzero"/></g></g><g clip-path="url(#1132400b15)"><g clip-path="url(#771c2aacf9)"><path fill="#90ee90" d="M 213.5625 57.140625 L 221.882812 57.140625 L 221.882812 65.460938 L 213.5625 65.460938 Z M 213.5625 57.140625 " fill-opacity="1" fill-rule="nonzero"/></g></g><g clip-path="url(#aff1d107c3)"><g clip-path="url(#8b869f86e6)"><path fill="#90ee90" d="M 213.710938 57.964844 L 221.8125 57.964844 L 221.8125 65.910156 L 213.710938 65.910156 Z M 213.710938 57.964844 " fill-opacity="1" fill-rule="nonzero"/></g></g></svg>