<svg xmlns="http://www.w3.org/2000/svg" xmlns:xlink="http://www.w3.org/1999/xlink" width="300" zoomAndPan="magnify" viewBox="0 0 224.87999 74.999997" height="100" preserveAspectRatio="xMidYMid meet" version="1.0"><defs><clipPath id="d23c8bf1ba"><path d="M 5.59375 5.292969 L 16.238281 5.292969 L 16.238281 64.996094 L 5.59375 64.996094 Z M 5.59375 5.292969 " clip-rule="nonzero"/></clipPath><clipPath id="46101766fc"><path d="M 16.191406 8.191406 C 11.394531 63.734375 10.871094 64.261719 10.195312 64.636719 C 9.59375 65.011719 8.84375 65.011719 8.246094 64.933594 C 7.644531 64.785156 6.894531 64.484375 6.523438 63.960938 C 5.996094 63.285156 5.621094 61.9375 5.847656 61.113281 C 6.070312 60.289062 6.972656 59.238281 7.796875 58.9375 C 8.621094 58.714844 9.96875 58.863281 10.644531 59.386719 C 11.320312 59.914062 11.917969 61.113281 11.917969 62.011719 C 11.917969 62.835938 11.09375 64.035156 10.496094 64.484375 C 9.96875 64.933594 9.144531 65.011719 8.546875 64.933594 C 7.945312 64.933594 7.195312 64.5625 6.746094 64.1875 C 6.296875 63.734375 5.996094 63.210938 5.773438 62.460938 C 5.472656 61.113281 5.773438 59.613281 5.996094 56.839844 C 6.523438 48.519531 8.996094 12.011719 10.945312 7.214844 C 11.320312 6.242188 11.617188 6.015625 12.144531 5.71875 C 12.667969 5.417969 13.417969 5.265625 14.015625 5.34375 C 14.617188 5.492188 15.292969 5.941406 15.667969 6.390625 C 15.964844 6.839844 16.191406 8.191406 16.191406 8.191406 " clip-rule="nonzero"/></clipPath><clipPath id="b9e55cdf73"><path d="M 8.582031 4.402344 L 42.851562 4.402344 L 42.851562 67.027344 L 8.582031 67.027344 Z M 8.582031 4.402344 " clip-rule="nonzero"/></clipPath><clipPath id="2dcb9f9419"><path d="M 13.71875 4.441406 C 35.382812 8.566406 38.304688 13.214844 39.878906 15.085938 C 40.703125 16.0625 41.078125 16.136719 41.453125 17.261719 C 42.503906 20.257812 43.101562 29.855469 42.425781 34.726562 C 41.976562 38.472656 40.703125 42.449219 39.277344 44.246094 C 38.53125 45.296875 37.554688 45.894531 36.730469 46.046875 C 36.128906 46.195312 35.457031 45.96875 35.007812 45.671875 C 34.40625 45.371094 33.808594 44.695312 33.582031 44.097656 C 33.355469 43.496094 33.355469 42.597656 33.65625 41.996094 C 33.882812 41.324219 34.480469 40.722656 35.082031 40.421875 C 35.679688 40.125 36.582031 39.824219 37.179688 40.199219 C 38.078125 40.574219 39.203125 42.296875 39.355469 43.796875 C 39.503906 45.96875 37.179688 50.46875 35.90625 52.117188 C 35.15625 53.015625 33.582031 53.765625 33.582031 53.691406 C 33.582031 53.691406 35.679688 51.890625 35.832031 51.96875 C 35.980469 52.191406 33.808594 55.640625 31.859375 57.515625 C 28.785156 60.511719 21.8125 65.609375 17.617188 66.660156 C 14.691406 67.335938 10.945312 67.035156 9.59375 65.984375 C 8.84375 65.386719 8.546875 64.035156 8.695312 63.210938 C 8.769531 62.386719 9.667969 61.261719 10.417969 60.886719 C 11.167969 60.585938 12.59375 60.585938 13.34375 61.039062 C 14.015625 61.488281 14.765625 62.6875 14.84375 63.511719 C 14.84375 64.410156 14.242188 65.609375 13.644531 66.132812 C 13.117188 66.585938 12.367188 66.882812 11.769531 66.808594 C 10.945312 66.734375 9.667969 66.058594 9.144531 65.460938 C 8.769531 64.933594 8.621094 64.1875 8.621094 63.585938 C 8.695312 62.910156 8.921875 62.160156 9.371094 61.710938 C 9.894531 61.1875 11.242188 60.585938 12.070312 60.664062 C 12.742188 60.664062 12.96875 61.488281 13.867188 61.488281 C 16.339844 61.335938 25.261719 55.414062 28.183594 52.640625 C 29.835938 51.066406 30.433594 49.792969 31.257812 48.144531 C 32.15625 46.421875 32.683594 42.597656 33.433594 42.523438 C 34.105469 42.449219 35.757812 45.820312 35.679688 45.96875 C 35.53125 46.046875 33.882812 44.847656 33.582031 44.097656 C 33.355469 43.421875 33.355469 42.597656 33.65625 41.996094 C 33.882812 41.324219 34.480469 40.722656 35.082031 40.421875 C 35.679688 40.125 37.105469 40.046875 37.179688 40.199219 C 37.179688 40.347656 34.257812 42.074219 33.808594 41.699219 C 33.132812 41.097656 36.207031 36.375 36.582031 33.152344 C 37.03125 29.105469 37.179688 22.808594 35.53125 19.136719 C 34.183594 15.988281 31.933594 13.4375 28.785156 11.789062 C 24.738281 9.691406 14.765625 11.265625 12.367188 9.539062 C 11.320312 8.789062 11.019531 7.589844 11.019531 6.765625 C 11.019531 6.167969 11.46875 5.492188 11.917969 5.042969 C 12.367188 4.667969 13.71875 4.441406 13.71875 4.441406 " clip-rule="nonzero"/></clipPath><clipPath id="e4959c320d"><path d="M 47.246094 28 L 72.765625 28 L 72.765625 64.863281 L 47.246094 64.863281 Z M 47.246094 28 " clip-rule="nonzero"/></clipPath><clipPath id="f1ff4b051c"><path d="M 51.273438 35.550781 C 58.617188 39 60.941406 39.222656 62.589844 39.375 C 63.867188 39.523438 65.140625 39.898438 65.890625 39.449219 C 66.566406 38.925781 67.015625 37.425781 66.863281 36.527344 C 66.789062 35.777344 66.039062 34.726562 65.289062 34.351562 C 64.539062 33.902344 63.339844 33.753906 62.214844 34.203125 C 60.34375 34.875 56.59375 38.398438 55.84375 40.875 C 55.09375 42.972656 56.070312 45.894531 56.59375 47.542969 C 56.96875 48.667969 57.269531 49.042969 58.019531 50.09375 C 59.519531 52.191406 63.714844 57.515625 65.964844 58.640625 C 67.089844 59.164062 68.289062 58.5625 69.113281 58.9375 C 69.710938 59.3125 70.3125 59.914062 70.539062 60.511719 C 70.761719 61.335938 70.761719 62.6875 70.238281 63.359375 C 69.636719 64.109375 67.6875 64.5625 67.015625 64.5625 C 66.714844 64.5625 66.566406 64.5625 66.339844 64.335938 C 65.816406 63.734375 65.140625 60.511719 65.363281 59.6875 C 65.515625 59.386719 65.738281 59.238281 66.113281 59.089844 C 66.714844 58.789062 68.214844 58.640625 68.964844 58.863281 C 69.5625 59.089844 70.085938 59.6875 70.386719 60.210938 C 70.6875 60.738281 70.835938 61.488281 70.6875 62.085938 C 70.539062 62.835938 69.710938 63.960938 69.039062 64.335938 C 68.4375 64.710938 67.6875 64.710938 67.089844 64.636719 C 66.488281 64.484375 65.816406 64.109375 65.441406 63.660156 C 65.066406 63.136719 64.691406 62.460938 64.691406 61.863281 C 64.691406 61.039062 65.214844 59.761719 65.890625 59.238281 C 66.488281 58.789062 67.839844 58.488281 68.664062 58.789062 C 69.414062 59.011719 70.3125 60.0625 70.613281 60.8125 C 70.835938 61.414062 70.6875 62.6875 70.539062 62.761719 C 70.3125 62.761719 69.039062 59.011719 69.113281 58.9375 C 69.1875 58.9375 70.835938 61.039062 70.6875 62.011719 C 70.613281 62.910156 69.5625 64.1875 68.4375 64.5625 C 67.089844 65.085938 64.617188 64.710938 62.667969 63.660156 C 59.519531 62.011719 54.644531 55.789062 52.847656 53.242188 C 51.949219 52.042969 51.648438 51.367188 51.199219 50.167969 C 50.671875 48.667969 50.296875 46.570312 50.148438 44.621094 C 49.921875 42.597656 49.472656 40.347656 50.296875 38.175781 C 51.496094 35.101562 55.621094 30.078125 58.542969 28.65625 C 60.71875 27.605469 63.566406 28.203125 65.214844 28.355469 C 66.339844 28.503906 67.015625 28.65625 67.914062 29.105469 C 68.886719 29.628906 70.085938 30.679688 70.835938 31.578125 C 71.511719 32.402344 72.035156 33.300781 72.335938 34.277344 C 72.636719 35.175781 72.785156 36 72.636719 37.050781 C 72.484375 38.625 71.585938 41.472656 70.6875 42.746094 C 70.164062 43.570312 69.488281 44.023438 68.589844 44.394531 C 67.539062 44.847656 66.339844 44.996094 64.765625 44.996094 C 62.292969 44.996094 57.867188 44.394531 54.945312 43.421875 C 52.472656 42.597656 49.625 41.171875 48.425781 40.125 C 47.75 39.597656 47.375 39.148438 47.300781 38.550781 C 47.148438 37.875 47.375 36.675781 47.75 36.152344 C 48.125 35.625 48.875 35.25 49.398438 35.175781 C 50 35.101562 51.273438 35.550781 51.273438 35.550781 " clip-rule="nonzero"/></clipPath><clipPath id="37f049b551"><path d="M 77.347656 30 L 98.476562 30 L 98.476562 65.734375 L 77.347656 65.734375 Z M 77.347656 30 " clip-rule="nonzero"/></clipPath><clipPath id="a8f9d9d21c"><path d="M 82.832031 32.851562 C 87.179688 62.835938 87.179688 63.886719 86.503906 64.636719 C 85.980469 65.308594 84.628906 65.683594 83.878906 65.609375 C 83.128906 65.609375 82.382812 65.160156 81.929688 64.636719 C 81.480469 64.109375 81.183594 63.660156 81.183594 62.613281 C 81.105469 59.089844 85.902344 45.820312 88.378906 40.046875 C 90.027344 36.152344 91.601562 32.027344 93.398438 30.753906 C 94.300781 30.078125 95.425781 29.929688 96.25 30.230469 C 97.074219 30.453125 98.046875 31.578125 98.273438 32.328125 C 98.574219 32.925781 98.421875 33.753906 98.199219 34.351562 C 97.972656 34.953125 97.523438 35.550781 96.921875 35.851562 C 96.171875 36.226562 94.824219 36.375 94 36.074219 C 93.25 35.699219 92.351562 34.578125 92.199219 33.753906 C 92.050781 32.851562 92.5 31.503906 93.101562 30.902344 C 93.773438 30.304688 95.125 30.003906 95.949219 30.152344 C 96.625 30.230469 97.222656 30.679688 97.671875 31.128906 C 98.046875 31.652344 98.421875 32.101562 98.421875 33.003906 C 98.347656 35.027344 95.347656 39.148438 93.773438 43.195312 C 91.601562 48.894531 89.425781 61.039062 86.953125 64.035156 C 85.980469 65.160156 84.78125 65.761719 83.878906 65.609375 C 82.90625 65.535156 82.007812 64.785156 81.257812 63.285156 C 79.007812 59.089844 76.910156 37.574219 77.507812 33.226562 C 77.660156 32.027344 77.957031 31.429688 78.484375 30.976562 C 78.933594 30.527344 79.683594 30.304688 80.28125 30.378906 C 80.882812 30.378906 81.632812 30.679688 82.082031 31.128906 C 82.457031 31.503906 82.832031 32.851562 82.832031 32.851562 " clip-rule="nonzero"/></clipPath><clipPath id="a9e39fbcbf"><path d="M 109.953125 7.007812 L 116.691406 7.007812 L 116.691406 61 L 109.953125 61 Z M 109.953125 7.007812 " clip-rule="nonzero"/></clipPath><clipPath id="f380fc2480"><path d="M 116.636719 9.765625 C 116.789062 34.5 116.339844 34.652344 116.113281 36.152344 C 115.664062 39.300781 115.511719 47.320312 115.738281 51.367188 C 115.886719 54.066406 116.789062 56.613281 116.636719 58.113281 C 116.5625 58.863281 116.488281 59.386719 116.113281 59.839844 C 115.589844 60.363281 114.464844 61.039062 113.640625 60.960938 C 112.890625 60.960938 111.765625 60.210938 111.316406 59.613281 C 110.941406 59.089844 110.867188 58.414062 110.941406 57.8125 C 110.941406 57.214844 111.242188 56.539062 111.691406 56.164062 C 112.214844 55.640625 113.488281 55.191406 114.238281 55.265625 C 114.839844 55.339844 115.4375 55.640625 115.886719 56.089844 C 116.339844 56.691406 116.789062 57.964844 116.5625 58.714844 C 116.414062 59.464844 115.511719 60.4375 114.839844 60.8125 C 114.3125 61.039062 113.5625 61.039062 113.039062 60.886719 C 112.441406 60.738281 111.914062 60.511719 111.464844 59.839844 C 110.492188 58.339844 110.265625 53.617188 110.117188 49.941406 C 109.890625 45.296875 109.816406 37.425781 111.015625 34.277344 C 111.539062 32.777344 113.488281 31.351562 113.414062 31.277344 C 113.339844 31.203125 111.839844 33.378906 111.316406 33.078125 C 109.816406 32.402344 110.339844 12.238281 111.390625 9.015625 C 111.617188 8.117188 111.988281 7.816406 112.441406 7.515625 C 112.964844 7.140625 113.714844 6.992188 114.3125 7.066406 C 114.914062 7.140625 115.589844 7.515625 115.964844 7.964844 C 116.414062 8.414062 116.636719 9.765625 116.636719 9.765625 " clip-rule="nonzero"/></clipPath><clipPath id="5471f3d5a0"><path d="M 111.855469 6.6875 L 128.921875 6.6875 L 128.921875 35.957031 L 111.855469 35.957031 Z M 111.855469 6.6875 " clip-rule="nonzero"/></clipPath><clipPath id="69f3e79dc3"><path d="M 115.0625 6.765625 C 123.085938 8.867188 125.183594 9.613281 126.457031 11.039062 C 127.65625 12.386719 128.179688 14.863281 128.554688 16.511719 C 128.855469 17.710938 128.929688 18.460938 128.855469 19.734375 C 128.78125 21.535156 128.257812 24.15625 127.507812 26.332031 C 126.609375 28.878906 124.957031 32.476562 123.609375 34.050781 C 122.785156 34.875 122.183594 35.324219 121.136719 35.625 C 119.636719 36 116.488281 36.152344 115.289062 35.402344 C 114.464844 34.953125 114.015625 33.675781 114.015625 32.925781 C 113.9375 32.328125 114.238281 31.578125 114.613281 31.128906 C 114.988281 30.605469 115.589844 30.152344 116.1875 30.078125 C 116.9375 29.929688 118.285156 30.230469 118.960938 30.679688 C 119.484375 31.054688 119.859375 31.652344 119.9375 32.328125 C 120.011719 33.078125 119.710938 34.425781 119.1875 35.027344 C 118.585938 35.625 117.3125 36.074219 116.488281 35.925781 C 115.664062 35.777344 114.613281 34.875 114.238281 34.203125 C 113.9375 33.601562 113.863281 32.925781 114.089844 32.328125 C 114.3125 31.578125 115.136719 30.453125 115.886719 30.152344 C 116.636719 29.855469 118.0625 30.753906 118.660156 30.453125 C 119.1875 30.230469 119.335938 29.703125 119.785156 29.105469 C 120.460938 27.90625 121.808594 25.507812 122.335938 23.558594 C 122.859375 21.609375 123.085938 19.136719 122.933594 17.484375 C 122.859375 16.359375 122.933594 15.460938 122.183594 14.636719 C 120.6875 13.0625 113.640625 12.6875 112.441406 11.039062 C 111.765625 10.214844 111.839844 8.714844 112.289062 8.039062 C 112.664062 7.292969 115.0625 6.765625 115.0625 6.765625 " clip-rule="nonzero"/></clipPath><clipPath id="077ee93039"><path d="M 122.945312 32.84375 L 141.160156 32.84375 L 141.160156 56.289062 L 122.945312 56.289062 Z M 122.945312 32.84375 " clip-rule="nonzero"/></clipPath><clipPath id="a51d1acea1"><path d="M 135.003906 38.023438 C 129.980469 40.949219 129.457031 41.621094 129.082031 42.671875 C 128.632812 44.171875 128.105469 48.070312 128.707031 48.445312 C 129.15625 48.667969 130.503906 47.917969 131.105469 46.945312 C 132.453125 44.996094 131.929688 36.976562 133.128906 35.101562 C 133.578125 34.277344 134.179688 33.976562 134.851562 33.828125 C 135.675781 33.675781 137.027344 33.976562 137.703125 34.5 C 138.226562 34.953125 138.527344 35.550781 138.75 36.449219 C 139.125 37.875 138.527344 40.421875 138.824219 42.820312 C 139.199219 45.894531 141.148438 51.144531 141.074219 53.242188 C 141.074219 54.066406 140.925781 54.515625 140.476562 55.039062 C 140.023438 55.640625 138.824219 56.316406 138 56.238281 C 137.175781 56.238281 136.050781 55.492188 135.601562 54.890625 C 135.152344 54.367188 135.003906 53.617188 135.152344 53.015625 C 135.226562 52.265625 135.902344 51.066406 136.652344 50.691406 C 137.328125 50.242188 138.675781 50.242188 139.425781 50.617188 C 140.175781 50.992188 140.925781 52.117188 141.074219 52.867188 C 141.226562 53.542969 141 54.214844 140.699219 54.742188 C 140.398438 55.265625 139.800781 55.789062 139.277344 56.015625 C 138.675781 56.238281 137.925781 56.316406 137.328125 56.164062 C 136.800781 56.015625 136.277344 55.789062 135.753906 55.117188 C 134.628906 53.617188 133.578125 48.59375 133.128906 45.371094 C 132.605469 42.148438 132.15625 37.574219 132.753906 35.777344 C 133.054688 34.875 133.578125 34.425781 134.179688 34.125 C 134.777344 33.828125 135.675781 33.675781 136.351562 33.828125 C 137.027344 33.976562 137.777344 34.425781 138.152344 35.027344 C 138.675781 35.777344 138.75 36.75 138.75 38.023438 C 138.824219 40.046875 138.078125 43.871094 137.476562 46.269531 C 136.953125 48.292969 136.277344 50.316406 135.527344 51.667969 C 135.003906 52.640625 134.476562 53.390625 133.652344 53.992188 C 132.828125 54.664062 131.628906 55.414062 130.582031 55.566406 C 129.457031 55.789062 128.179688 55.492188 127.207031 55.039062 C 126.234375 54.664062 125.40625 53.839844 124.734375 53.089844 C 124.058594 52.34375 123.535156 51.667969 123.234375 50.542969 C 122.710938 48.59375 123.085938 44.246094 123.382812 42.296875 C 123.535156 41.097656 123.683594 40.347656 124.058594 39.449219 C 124.507812 38.472656 125.109375 37.648438 126.007812 36.824219 C 127.28125 35.699219 129.753906 34.351562 131.328125 33.675781 C 132.453125 33.226562 133.503906 32.777344 134.328125 32.851562 C 135.003906 32.925781 135.675781 33.300781 136.050781 33.753906 C 136.425781 34.203125 136.800781 34.875 136.726562 35.550781 C 136.652344 36.300781 135.003906 38.023438 135.003906 38.023438 " clip-rule="nonzero"/></clipPath><clipPath id="1aab3fd176"><path d="M 145.113281 33.78125 L 167.992188 33.78125 L 167.992188 70.117188 L 145.113281 70.117188 Z M 145.113281 33.78125 " clip-rule="nonzero"/></clipPath><clipPath id="74db04563b"><path d="M 154.269531 38.324219 C 151.417969 42.671875 155.390625 36.675781 156.742188 36.976562 C 158.015625 37.199219 158.765625 41.398438 159.289062 43.195312 C 159.589844 44.472656 159.738281 45.144531 159.738281 46.644531 C 159.664062 49.417969 158.765625 55.117188 157.714844 58.789062 C 156.742188 62.238281 155.015625 66.359375 153.742188 68.160156 C 153.066406 69.132812 152.542969 69.65625 151.71875 69.882812 C 150.59375 70.257812 148.644531 69.957031 147.597656 69.359375 C 146.773438 68.910156 146.171875 67.859375 145.796875 66.960938 C 145.421875 66.058594 145.199219 65.011719 145.347656 64.109375 C 145.496094 63.136719 145.796875 62.386719 146.546875 61.335938 C 147.972656 59.539062 151.945312 57.589844 154.492188 55.191406 C 157.339844 52.492188 160.5625 47.246094 162.8125 45.894531 C 163.863281 45.296875 164.835938 45.144531 165.585938 45.296875 C 166.261719 45.371094 166.859375 45.894531 167.234375 46.34375 C 167.609375 46.871094 167.910156 47.542969 167.910156 48.21875 C 167.835938 49.042969 167.234375 50.316406 166.5625 50.769531 C 165.886719 51.292969 164.460938 51.441406 163.710938 51.144531 C 162.886719 50.84375 161.988281 49.792969 161.839844 48.96875 C 161.613281 48.144531 162.0625 46.796875 162.589844 46.195312 C 162.964844 45.671875 163.710938 45.371094 164.3125 45.222656 C 164.910156 45.144531 165.660156 45.222656 166.261719 45.519531 C 166.785156 45.820312 167.386719 46.34375 167.609375 46.945312 C 167.835938 47.695312 167.910156 48.667969 167.460938 49.792969 C 166.484375 52.191406 161.839844 56.839844 158.988281 59.464844 C 156.589844 61.636719 153.441406 64.636719 151.71875 64.710938 C 150.746094 64.785156 149.621094 64.1875 149.394531 63.4375 C 148.945312 62.3125 150.371094 59.464844 151.195312 58.339844 C 151.792969 57.515625 153.367188 56.691406 153.367188 56.765625 C 153.441406 56.839844 151.792969 59.011719 151.496094 58.863281 C 150.894531 58.5625 153.816406 51.066406 153.667969 47.621094 C 153.519531 44.546875 151.570312 41.097656 151.269531 38.925781 C 151.042969 37.800781 150.746094 36.898438 151.195312 36.152344 C 151.945312 35.175781 155.09375 33.976562 156.292969 34.351562 C 157.191406 34.652344 157.714844 35.925781 158.164062 36.824219 C 158.539062 37.648438 158.617188 38.472656 158.691406 39.597656 C 158.839844 41.097656 159.066406 43.722656 158.539062 45.144531 C 158.089844 46.195312 157.191406 46.945312 156.367188 47.542969 C 155.691406 48.070312 154.941406 48.445312 153.96875 48.667969 C 152.542969 48.96875 149.996094 49.117188 148.570312 48.742188 C 147.597656 48.519531 146.847656 48.070312 146.246094 47.394531 C 145.648438 46.71875 145.347656 45.671875 145.199219 44.769531 C 145.121094 43.871094 145.273438 43.046875 145.574219 41.996094 C 146.171875 40.421875 147.746094 37.800781 148.796875 36.375 C 149.621094 35.324219 150.445312 34.351562 151.269531 34.050781 C 151.867188 33.753906 152.617188 33.828125 153.21875 33.976562 C 153.742188 34.203125 154.417969 34.652344 154.640625 35.25 C 154.941406 36 154.269531 38.324219 154.269531 38.324219 " clip-rule="nonzero"/></clipPath><clipPath id="731213a73c"><path d="M 171.28125 25.054688 L 201.195312 25.054688 L 201.195312 57.878906 L 171.28125 57.878906 Z M 171.28125 25.054688 " clip-rule="nonzero"/></clipPath><clipPath id="e4cead089d"><path d="M 181.476562 36.75 C 187.925781 37.273438 188.375 36 188.675781 35.101562 C 188.972656 34.203125 189.273438 33.003906 188.898438 32.328125 C 188.523438 31.652344 187.25 31.203125 186.351562 31.128906 C 185.449219 31.054688 184.328125 31.429688 183.277344 32.027344 C 182.003906 32.777344 180.203125 34.125 179.304688 35.699219 C 178.253906 37.273438 177.804688 39.824219 177.65625 41.398438 C 177.503906 42.449219 177.429688 43.195312 177.878906 44.023438 C 178.628906 45.371094 180.953125 46.644531 182.527344 47.769531 C 184.175781 48.96875 186.199219 50.617188 187.699219 51.066406 C 188.75 51.367188 189.425781 51.292969 190.546875 51.066406 C 192.347656 50.769531 195.496094 48.742188 197.070312 48.519531 C 197.894531 48.371094 198.417969 48.292969 199.019531 48.519531 C 199.617188 48.742188 200.292969 49.195312 200.59375 49.792969 C 200.96875 50.542969 201.117188 51.96875 200.816406 52.71875 C 200.59375 53.390625 200.066406 53.917969 199.46875 54.214844 C 198.945312 54.515625 198.121094 54.664062 197.519531 54.589844 C 196.917969 54.515625 196.171875 54.140625 195.71875 53.691406 C 195.269531 53.242188 194.894531 52.566406 194.820312 51.890625 C 194.820312 51.066406 195.195312 49.71875 195.871094 49.117188 C 196.546875 48.59375 197.894531 48.21875 198.71875 48.445312 C 199.542969 48.667969 200.59375 49.71875 200.894531 50.394531 C 201.191406 51.066406 201.117188 51.816406 200.96875 52.417969 C 200.742188 53.015625 200.519531 53.542969 199.769531 54.066406 C 198.042969 55.339844 192.046875 57.890625 189.050781 57.8125 C 186.726562 57.8125 185.078125 56.691406 182.976562 55.492188 C 180.128906 53.992188 175.78125 51.066406 173.90625 48.742188 C 172.558594 47.09375 171.808594 45.445312 171.507812 43.648438 C 171.207031 41.847656 171.433594 40.046875 171.957031 38.023438 C 172.558594 35.550781 173.757812 32.179688 175.632812 30.152344 C 177.503906 28.054688 180.652344 26.40625 183.050781 25.65625 C 185 25.054688 187.175781 25.054688 188.675781 25.28125 C 189.722656 25.429688 190.472656 25.730469 191.296875 26.257812 C 192.199219 26.78125 193.171875 27.753906 193.695312 28.578125 C 194.222656 29.328125 194.597656 30.003906 194.746094 31.128906 C 194.972656 33.078125 194.371094 37.5 193.695312 39.449219 C 193.320312 40.722656 193.023438 41.699219 192.273438 42.296875 C 191.597656 42.898438 190.699219 43.121094 189.5 43.195312 C 187.25 43.421875 181.554688 42.671875 179.902344 41.847656 C 179.15625 41.472656 178.78125 41.097656 178.554688 40.5 C 178.328125 39.972656 178.253906 39.222656 178.40625 38.625 C 178.628906 38.023438 179.078125 37.425781 179.605469 37.125 C 180.128906 36.824219 181.476562 36.75 181.476562 36.75 " clip-rule="nonzero"/></clipPath><clipPath id="25c6b46d56"><path d="M 111.234375 54.972656 L 117.140625 54.972656 L 117.140625 65.929688 L 111.234375 65.929688 Z M 111.234375 54.972656 " clip-rule="nonzero"/></clipPath><clipPath id="caeb81b407"><path d="M 116.789062 57.363281 C 116.039062 65.609375 114.988281 65.984375 114.238281 65.910156 C 113.339844 65.761719 111.914062 64.5625 111.691406 63.734375 C 111.464844 62.988281 111.839844 61.785156 112.363281 61.261719 C 112.890625 60.738281 114.089844 60.289062 114.839844 60.4375 C 115.664062 60.664062 116.9375 62.011719 117.085938 62.835938 C 117.238281 63.585938 116.710938 64.785156 116.113281 65.234375 C 115.589844 65.761719 114.390625 66.058594 113.640625 65.835938 C 112.816406 65.535156 111.988281 64.335938 111.617188 63.136719 C 111.089844 61.414062 111.089844 57.214844 111.988281 56.015625 C 112.664062 55.191406 114.089844 54.816406 114.914062 55.039062 C 115.664062 55.265625 116.789062 57.363281 116.789062 57.363281 " clip-rule="nonzero"/></clipPath><clipPath id="11151ca02f"><path d="M 55.832031 15.523438 L 57.371094 15.523438 L 57.371094 17.0625 L 55.832031 17.0625 Z M 55.832031 15.523438 " clip-rule="nonzero"/></clipPath><clipPath id="b24fed8db9"><path d="M 55.84375 16.285156 C 57.121094 15.613281 57.34375 16.585938 57.195312 16.734375 C 57.042969 16.960938 56.070312 16.8125 55.921875 16.585938 C 55.84375 16.359375 56.371094 15.535156 56.59375 15.535156 C 56.820312 15.460938 57.417969 15.988281 57.34375 16.285156 C 57.34375 16.511719 56.820312 17.035156 56.59375 17.035156 C 56.296875 17.035156 55.84375 16.285156 55.84375 16.285156 " clip-rule="nonzero"/></clipPath><clipPath id="93f1500770"><path d="M 80.644531 11.402344 L 82.183594 11.402344 L 82.183594 12.941406 L 80.644531 12.941406 Z M 80.644531 11.402344 " clip-rule="nonzero"/></clipPath><clipPath id="c5479ab7a1"><path d="M 81.40625 11.414062 C 82.007812 12.6875 81.03125 12.914062 80.882812 12.761719 C 80.730469 12.539062 80.882812 11.5625 81.03125 11.488281 C 81.257812 11.414062 82.082031 11.863281 82.15625 12.164062 C 82.15625 12.386719 81.632812 12.914062 81.40625 12.914062 C 81.105469 12.914062 80.65625 12.539062 80.65625 12.3125 C 80.582031 12.011719 81.332031 11.414062 81.332031 11.414062 " clip-rule="nonzero"/></clipPath><clipPath id="b277ea54a6"><path d="M 90.761719 17.695312 L 92.109375 17.695312 L 92.109375 19.074219 L 90.761719 19.074219 Z M 90.761719 17.695312 " clip-rule="nonzero"/></clipPath><clipPath id="29eac5a1bc"><path d="M 92.050781 17.859375 C 91.601562 19.210938 90.777344 18.683594 90.777344 18.460938 C 90.703125 18.160156 91.527344 17.636719 91.75 17.710938 C 91.976562 17.785156 92.199219 18.683594 92.050781 18.910156 C 91.902344 19.058594 91.152344 19.136719 90.925781 18.910156 C 90.777344 18.761719 90.777344 18.011719 91 17.785156 C 91.152344 17.636719 91.976562 17.859375 91.976562 17.859375 " clip-rule="nonzero"/></clipPath><clipPath id="2c7d00c85d"><path d="M 164.375 12.601562 L 165.972656 12.601562 L 165.972656 14.140625 L 164.375 14.140625 Z M 164.375 12.601562 " clip-rule="nonzero"/></clipPath><clipPath id="f80905d3a0"><path d="M 165.210938 12.613281 C 165.8125 13.886719 164.835938 14.113281 164.6875 13.960938 C 164.460938 13.8125 164.6875 12.839844 164.835938 12.6875 C 165.0625 12.613281 165.886719 13.136719 165.960938 13.363281 C 165.960938 13.585938 165.4375 14.113281 165.210938 14.113281 C 164.910156 14.1875 164.460938 13.738281 164.386719 13.511719 C 164.386719 13.214844 165.136719 12.613281 165.136719 12.613281 " clip-rule="nonzero"/></clipPath><clipPath id="4593b2e0a2"><path d="M 206.953125 12.300781 L 208.492188 12.300781 L 208.492188 13.839844 L 206.953125 13.839844 Z M 206.953125 12.300781 " clip-rule="nonzero"/></clipPath><clipPath id="fa4c19dc8b"><path d="M 208.464844 13.0625 C 207.1875 13.664062 206.964844 12.761719 207.113281 12.539062 C 207.339844 12.386719 208.3125 12.539062 208.390625 12.761719 C 208.464844 12.988281 208.015625 13.8125 207.714844 13.8125 C 207.488281 13.886719 206.964844 13.363281 206.964844 13.0625 C 206.964844 12.839844 207.339844 12.3125 207.5625 12.3125 C 207.863281 12.3125 208.464844 13.0625 208.464844 13.0625 " clip-rule="nonzero"/></clipPath><clipPath id="7f0a81753e"><path d="M 211.226562 36.289062 L 212.765625 36.289062 L 212.765625 37.886719 L 211.226562 37.886719 Z M 211.226562 36.289062 " clip-rule="nonzero"/></clipPath><clipPath id="cbc5d3748c"><path d="M 212.738281 37.125 C 211.535156 37.726562 211.3125 36.75 211.460938 36.601562 C 211.613281 36.449219 212.585938 36.601562 212.660156 36.824219 C 212.8125 37.050781 212.285156 37.875 212.0625 37.875 C 211.835938 37.875 211.238281 37.351562 211.238281 37.125 C 211.238281 36.898438 211.761719 36.300781 212.0625 36.300781 C 212.285156 36.300781 212.738281 37.050781 212.738281 37.050781 " clip-rule="nonzero"/></clipPath><clipPath id="f6702b05f1"><path d="M 201.929688 63.125 L 203.527344 63.125 L 203.527344 64.664062 L 201.929688 64.664062 Z M 201.929688 63.125 " clip-rule="nonzero"/></clipPath><clipPath id="159eaae17e"><path d="M 202.691406 64.636719 C 202.09375 63.359375 203.066406 63.210938 203.214844 63.359375 C 203.367188 63.511719 203.214844 64.484375 203.066406 64.5625 C 202.839844 64.636719 202.015625 64.1875 201.941406 63.886719 C 201.941406 63.660156 202.46875 63.136719 202.691406 63.136719 C 202.992188 63.136719 203.441406 63.511719 203.515625 63.734375 C 203.515625 64.035156 202.765625 64.636719 202.765625 64.636719 " clip-rule="nonzero"/></clipPath><clipPath id="4774035b7f"><path d="M 172.636719 61.5625 L 174.082031 61.5625 L 174.082031 62.785156 L 172.636719 62.785156 Z M 172.636719 61.5625 " clip-rule="nonzero"/></clipPath><clipPath id="e094baebd9"><path d="M 174.058594 62.011719 C 173.382812 62.988281 172.78125 62.835938 172.707031 62.613281 C 172.558594 62.386719 172.707031 61.785156 172.859375 61.636719 C 173.082031 61.488281 173.832031 61.710938 173.832031 61.710938 " clip-rule="nonzero"/></clipPath><clipPath id="4469d00e45"><path d="M 169.171875 26.996094 L 170.710938 26.996094 L 170.710938 28.53125 L 169.171875 28.53125 Z M 169.171875 26.996094 " clip-rule="nonzero"/></clipPath><clipPath id="3fc163540f"><path d="M 169.183594 27.753906 C 170.382812 27.082031 170.609375 28.054688 170.460938 28.203125 C 170.308594 28.429688 169.335938 28.28125 169.183594 28.054688 C 169.109375 27.832031 169.632812 27.003906 169.859375 27.003906 C 170.085938 26.929688 170.609375 27.457031 170.683594 27.753906 C 170.683594 27.980469 170.234375 28.429688 170.007812 28.503906 C 169.785156 28.503906 169.183594 27.753906 169.183594 27.753906 " clip-rule="nonzero"/></clipPath><clipPath id="c86ef3a56a"><path d="M 145.035156 10.921875 L 146.511719 10.921875 L 146.511719 12.402344 L 145.035156 12.402344 Z M 145.035156 10.921875 " clip-rule="nonzero"/></clipPath><clipPath id="294a99f569"><path d="M 145.421875 12.3125 C 145.421875 10.890625 146.398438 11.113281 146.472656 11.339844 C 146.546875 11.5625 145.945312 12.386719 145.722656 12.386719 C 145.496094 12.386719 144.972656 11.5625 145.046875 11.339844 C 145.121094 11.113281 145.871094 10.8125 146.097656 10.964844 C 146.320312 11.039062 146.546875 11.789062 146.472656 12.011719 C 146.320312 12.238281 145.496094 12.3125 145.496094 12.3125 " clip-rule="nonzero"/></clipPath><clipPath id="682ea4417d"><path d="M 95.863281 7.128906 L 97.460938 7.128906 L 97.460938 8.726562 L 95.863281 8.726562 Z M 95.863281 7.128906 " clip-rule="nonzero"/></clipPath><clipPath id="dd92f33ec5"><path d="M 96.625 8.714844 C 96.023438 7.441406 96.921875 7.214844 97.148438 7.367188 C 97.296875 7.515625 97.148438 8.492188 96.921875 8.640625 C 96.699219 8.714844 95.875 8.191406 95.875 7.964844 C 95.800781 7.742188 96.324219 7.214844 96.625 7.140625 C 96.847656 7.140625 97.449219 7.664062 97.449219 7.964844 C 97.449219 8.191406 96.773438 8.714844 96.773438 8.714844 " clip-rule="nonzero"/></clipPath><clipPath id="aae43f4913"><path d="M 47.421875 1.671875 L 48.898438 1.671875 L 48.898438 2.890625 L 47.421875 2.890625 Z M 47.421875 1.671875 " clip-rule="nonzero"/></clipPath><clipPath id="017bdc1055"><path d="M 48.875 2.117188 C 48.199219 3.09375 47.597656 2.945312 47.523438 2.71875 C 47.375 2.492188 47.449219 1.894531 47.675781 1.742188 C 47.898438 1.59375 48.648438 1.820312 48.648438 1.820312 " clip-rule="nonzero"/></clipPath><clipPath id="d5d431da65"><path d="M 5 5.195312 L 6.472656 5.195312 L 6.472656 6.445312 L 5 6.445312 Z M 5 5.195312 " clip-rule="nonzero"/></clipPath><clipPath id="635e44c871"><path d="M 6.445312 5.640625 C 5.773438 6.691406 5.171875 6.464844 5.097656 6.242188 C 4.949219 6.015625 5.023438 5.417969 5.246094 5.265625 C 5.472656 5.117188 6.222656 5.34375 6.222656 5.34375 " clip-rule="nonzero"/></clipPath><clipPath id="90125310c2"><path d="M 41.816406 63.601562 L 43.265625 63.601562 L 43.265625 64.992188 L 41.816406 64.992188 Z M 41.816406 63.601562 " clip-rule="nonzero"/></clipPath><clipPath id="56472ad8ff"><path d="M 41.828125 64.636719 C 42.726562 63.511719 43.328125 64.261719 43.25 64.484375 C 43.175781 64.710938 42.277344 65.011719 42.050781 64.859375 C 41.902344 64.710938 41.976562 63.8125 42.128906 63.660156 C 42.351562 63.511719 43.101562 63.734375 43.175781 63.960938 C 43.328125 64.1875 43.175781 64.785156 43.027344 64.933594 C 42.800781 65.085938 41.902344 64.710938 41.902344 64.710938 " clip-rule="nonzero"/></clipPath><clipPath id="af2391a06c"><path d="M 42.007812 44.546875 L 43.429688 44.546875 L 43.429688 45.769531 L 42.007812 45.769531 Z M 42.007812 44.546875 " clip-rule="nonzero"/></clipPath><clipPath id="4f537a5655"><path d="M 43.402344 44.996094 C 42.800781 45.96875 42.203125 45.820312 42.050781 45.59375 C 41.976562 45.371094 42.050781 44.769531 42.277344 44.621094 C 42.425781 44.472656 43.25 44.695312 43.25 44.695312 " clip-rule="nonzero"/></clipPath><clipPath id="757f5a562b"><path d="M 50.226562 21.65625 L 51.671875 21.65625 L 51.671875 22.878906 L 50.226562 22.878906 Z M 50.226562 21.65625 " clip-rule="nonzero"/></clipPath><clipPath id="36ff4e7b59"><path d="M 51.648438 22.058594 C 51.046875 23.109375 50.449219 22.882812 50.296875 22.734375 C 50.148438 22.507812 50.296875 21.910156 50.449219 21.757812 C 50.671875 21.535156 51.496094 21.757812 51.496094 21.757812 " clip-rule="nonzero"/></clipPath><clipPath id="388cdef010"><path d="M 42.699219 8.042969 L 44.179688 8.042969 L 44.179688 9.292969 L 42.699219 9.292969 Z M 42.699219 8.042969 " clip-rule="nonzero"/></clipPath><clipPath id="350c166373"><path d="M 44.152344 8.492188 C 43.476562 9.539062 42.878906 9.316406 42.800781 9.089844 C 42.652344 8.867188 42.726562 8.265625 42.953125 8.117188 C 43.175781 7.964844 43.925781 8.191406 43.925781 8.191406 " clip-rule="nonzero"/></clipPath><clipPath id="423faa55ed"><path d="M 3.136719 69.046875 L 4.734375 69.046875 L 4.734375 70.585938 L 3.136719 70.585938 Z M 3.136719 69.046875 " clip-rule="nonzero"/></clipPath><clipPath id="1613d422bf"><path d="M 3.898438 70.558594 C 3.296875 69.359375 4.273438 69.132812 4.421875 69.28125 C 4.574219 69.433594 4.421875 70.40625 4.199219 70.480469 C 4.046875 70.632812 3.222656 70.109375 3.148438 69.882812 C 3.148438 69.65625 3.671875 69.058594 3.898438 69.058594 C 4.199219 69.058594 4.648438 69.433594 4.722656 69.65625 C 4.722656 69.957031 3.972656 70.558594 3.972656 70.558594 " clip-rule="nonzero"/></clipPath><clipPath id="4971c37155"><path d="M 2.085938 37.863281 L 3.683594 37.863281 L 3.683594 39.402344 L 2.085938 39.402344 Z M 2.085938 37.863281 " clip-rule="nonzero"/></clipPath><clipPath id="005e73ee5d"><path d="M 2.921875 37.875 C 3.523438 39.074219 2.546875 39.300781 2.398438 39.148438 C 2.175781 39 2.398438 38.023438 2.546875 37.949219 C 2.773438 37.800781 3.597656 38.324219 3.671875 38.550781 C 3.671875 38.773438 3.148438 39.375 2.921875 39.375 C 2.625 39.375 2.175781 38.925781 2.097656 38.699219 C 2.097656 38.472656 2.847656 37.875 2.847656 37.875 " clip-rule="nonzero"/></clipPath><clipPath id="8bb2b503f6"><path d="M 2.6875 21.074219 L 4.226562 21.074219 L 4.226562 22.609375 L 2.6875 22.609375 Z M 2.6875 21.074219 " clip-rule="nonzero"/></clipPath><clipPath id="6202a105c0"><path d="M 3.449219 21.082031 C 4.046875 22.359375 3.074219 22.582031 2.921875 22.359375 C 2.773438 22.207031 2.921875 21.234375 3.148438 21.160156 C 3.296875 21.082031 4.121094 21.535156 4.199219 21.832031 C 4.199219 22.058594 3.671875 22.582031 3.449219 22.582031 C 3.148438 22.582031 2.699219 22.058594 2.699219 21.757812 C 2.699219 21.535156 3.375 21.082031 3.375 21.082031 " clip-rule="nonzero"/></clipPath><clipPath id="c7be27e9be"><path d="M 0.886719 54.355469 L 2.425781 54.355469 L 2.425781 55.890625 L 0.886719 55.890625 Z M 0.886719 54.355469 " clip-rule="nonzero"/></clipPath><clipPath id="5300a95802"><path d="M 2.398438 55.117188 C 1.125 55.714844 0.898438 54.816406 1.050781 54.589844 C 1.273438 54.441406 2.25 54.589844 2.324219 54.816406 C 2.398438 55.039062 1.949219 55.863281 1.648438 55.863281 C 1.425781 55.941406 0.898438 55.414062 0.898438 55.117188 C 0.898438 54.890625 1.425781 54.367188 1.722656 54.367188 C 1.949219 54.367188 2.398438 55.117188 2.398438 55.117188 " clip-rule="nonzero"/></clipPath><clipPath id="e2e8951fb4"><path d="M 77.792969 67.039062 L 79.199219 67.039062 L 79.199219 68.472656 L 77.792969 68.472656 Z M 77.792969 67.039062 " clip-rule="nonzero"/></clipPath><clipPath id="547b771528"><path d="M 77.957031 67.183594 C 79.308594 67.558594 78.78125 68.382812 78.558594 68.457031 C 78.332031 68.457031 77.734375 67.632812 77.808594 67.410156 C 77.882812 67.183594 78.78125 66.960938 79.007812 67.109375 C 79.234375 67.257812 79.234375 68.007812 79.082031 68.160156 C 78.859375 68.382812 78.257812 68.457031 78.035156 68.308594 C 77.882812 68.160156 77.957031 67.183594 77.957031 67.183594 " clip-rule="nonzero"/></clipPath><clipPath id="78ec177d35"><path d="M 71.664062 49.835938 L 73.042969 49.835938 L 73.042969 51.242188 L 71.664062 51.242188 Z M 71.664062 49.835938 " clip-rule="nonzero"/></clipPath><clipPath id="7da8f7ce0f"><path d="M 71.738281 51.066406 C 72.1875 49.71875 73.011719 50.242188 73.011719 50.46875 C 73.011719 50.691406 72.261719 51.292969 72.035156 51.21875 C 71.8125 51.144531 71.585938 50.167969 71.738281 50.019531 C 71.886719 49.792969 72.636719 49.792969 72.785156 49.941406 C 73.011719 50.167969 73.085938 50.769531 72.9375 50.992188 C 72.710938 51.144531 71.8125 51.066406 71.8125 51.066406 " clip-rule="nonzero"/></clipPath><clipPath id="c691984564"><path d="M 95.789062 50.980469 L 97.382812 50.980469 L 97.382812 52.519531 L 95.789062 52.519531 Z M 95.789062 50.980469 " clip-rule="nonzero"/></clipPath><clipPath id="b3a37e850b"><path d="M 96.625 50.992188 C 97.222656 52.191406 96.25 52.417969 96.097656 52.265625 C 95.875 52.117188 96.097656 51.144531 96.25 51.066406 C 96.472656 50.917969 97.296875 51.441406 97.371094 51.667969 C 97.371094 51.890625 96.847656 52.492188 96.625 52.492188 C 96.324219 52.492188 95.800781 51.890625 95.800781 51.667969 C 95.800781 51.441406 96.546875 50.992188 96.546875 50.992188 " clip-rule="nonzero"/></clipPath><clipPath id="5560c7c9db"><path d="M 100.808594 33.082031 L 102.183594 33.082031 L 102.183594 34.429688 L 100.808594 34.429688 Z M 100.808594 33.082031 " clip-rule="nonzero"/></clipPath><clipPath id="0442cb85b0"><path d="M 100.972656 33.152344 C 102.320312 33.601562 101.796875 34.425781 101.496094 34.425781 C 101.269531 34.425781 100.746094 33.675781 100.820312 33.453125 C 100.894531 33.226562 101.796875 33.003906 102.019531 33.152344 C 102.171875 33.300781 102.246094 34.050781 102.019531 34.203125 C 101.871094 34.425781 101.121094 34.425781 100.894531 34.277344 C 100.746094 34.050781 100.894531 33.226562 100.894531 33.226562 " clip-rule="nonzero"/></clipPath><clipPath id="b3a4ee1d45"><path d="M 103.101562 23.457031 L 104.578125 23.457031 L 104.578125 24.675781 L 103.101562 24.675781 Z M 103.101562 23.457031 " clip-rule="nonzero"/></clipPath><clipPath id="ae0fb60443"><path d="M 104.570312 23.855469 C 103.894531 24.90625 103.292969 24.683594 103.144531 24.53125 C 103.070312 24.308594 103.144531 23.707031 103.371094 23.558594 C 103.519531 23.332031 104.34375 23.558594 104.34375 23.558594 " clip-rule="nonzero"/></clipPath><clipPath id="b6323da754"><path d="M 75.636719 21.085938 L 77.085938 21.085938 L 77.085938 22.308594 L 75.636719 22.308594 Z M 75.636719 21.085938 " clip-rule="nonzero"/></clipPath><clipPath id="011fa9108d"><path d="M 77.058594 21.535156 C 76.460938 22.507812 75.859375 22.359375 75.710938 22.132812 C 75.558594 21.910156 75.710938 21.308594 75.859375 21.160156 C 76.085938 21.007812 76.910156 21.234375 76.910156 21.234375 " clip-rule="nonzero"/></clipPath><clipPath id="acfa594b08"><path d="M 67.0625 5.492188 L 68.539062 5.492188 L 68.539062 6.714844 L 67.0625 6.714844 Z M 67.0625 5.492188 " clip-rule="nonzero"/></clipPath><clipPath id="113d04232e"><path d="M 68.511719 5.941406 C 67.839844 6.917969 67.238281 6.765625 67.164062 6.542969 C 67.015625 6.316406 67.089844 5.71875 67.3125 5.566406 C 67.539062 5.417969 68.289062 5.640625 68.289062 5.640625 " clip-rule="nonzero"/></clipPath><clipPath id="7b7a4b5023"><path d="M 132 3.15625 L 133.53125 3.15625 L 133.53125 4.695312 L 132 4.695312 Z M 132 3.15625 " clip-rule="nonzero"/></clipPath><clipPath id="c6f7403796"><path d="M 132.003906 3.917969 C 133.277344 3.316406 133.503906 4.21875 133.355469 4.441406 C 133.128906 4.59375 132.230469 4.441406 132.078125 4.21875 C 132.003906 3.992188 132.453125 3.167969 132.753906 3.167969 C 132.980469 3.09375 133.503906 3.617188 133.503906 3.917969 C 133.578125 4.144531 133.128906 4.667969 132.902344 4.667969 C 132.605469 4.667969 132.003906 3.917969 132.003906 3.917969 " clip-rule="nonzero"/></clipPath><clipPath id="111e603171"><path d="M 103.808594 3.832031 L 105.347656 3.832031 L 105.347656 5.371094 L 103.808594 5.371094 Z M 103.808594 3.832031 " clip-rule="nonzero"/></clipPath><clipPath id="be5673ad28"><path d="M 105.320312 4.59375 C 104.121094 5.191406 103.894531 4.21875 104.042969 4.066406 C 104.195312 3.917969 105.167969 4.066406 105.242188 4.292969 C 105.394531 4.519531 104.867188 5.265625 104.644531 5.34375 C 104.417969 5.34375 103.820312 4.816406 103.820312 4.59375 C 103.820312 4.367188 104.195312 3.84375 104.496094 3.84375 C 104.71875 3.769531 105.320312 4.519531 105.320312 4.519531 " clip-rule="nonzero"/></clipPath><clipPath id="717e4b79cd"><path d="M 166.742188 3.769531 L 168.21875 3.769531 L 168.21875 5.019531 L 166.742188 5.019531 Z M 166.742188 3.769531 " clip-rule="nonzero"/></clipPath><clipPath id="67640edf82"><path d="M 168.210938 4.21875 C 167.535156 5.265625 166.9375 5.042969 166.785156 4.816406 C 166.710938 4.59375 166.785156 3.992188 167.011719 3.84375 C 167.160156 3.691406 167.984375 3.917969 167.984375 3.917969 " clip-rule="nonzero"/></clipPath><clipPath id="626a568280"><path d="M 147.210938 23.246094 L 148.730469 23.246094 L 148.730469 24.855469 L 147.210938 24.855469 Z M 147.210938 23.246094 " clip-rule="nonzero"/></clipPath><clipPath id="95e0ca881d"><path d="M 148.644531 24.382812 C 147.296875 24.53125 147.371094 23.558594 147.597656 23.40625 C 147.820312 23.332031 148.644531 23.78125 148.71875 24.007812 C 148.71875 24.230469 147.972656 24.90625 147.746094 24.832031 C 147.519531 24.757812 147.144531 24.15625 147.222656 23.855469 C 147.296875 23.632812 147.820312 23.257812 148.046875 23.257812 C 148.347656 23.332031 148.71875 24.230469 148.71875 24.230469 " clip-rule="nonzero"/></clipPath><clipPath id="fda27ca2df"><path d="M 137.730469 20.035156 L 139.207031 20.035156 L 139.207031 21.257812 L 137.730469 21.257812 Z M 137.730469 20.035156 " clip-rule="nonzero"/></clipPath><clipPath id="46eee95464"><path d="M 139.199219 20.484375 C 138.527344 21.457031 137.925781 21.308594 137.777344 21.082031 C 137.703125 20.859375 137.777344 20.257812 138 20.109375 C 138.152344 19.960938 138.976562 20.183594 138.976562 20.183594 " clip-rule="nonzero"/></clipPath><clipPath id="255dcd79ff"><path d="M 132.59375 26.992188 L 134.113281 26.992188 L 134.113281 28.515625 L 132.59375 28.515625 Z M 132.59375 26.992188 " clip-rule="nonzero"/></clipPath><clipPath id="423531b4d5"><path d="M 134.027344 27.980469 C 132.679688 28.203125 132.753906 27.15625 132.980469 27.082031 C 133.203125 27.003906 134.027344 27.457031 134.101562 27.679688 C 134.101562 27.90625 133.355469 28.503906 133.128906 28.503906 C 132.902344 28.429688 132.527344 27.753906 132.605469 27.53125 C 132.679688 27.230469 133.355469 26.929688 133.652344 27.003906 C 133.878906 27.082031 134.101562 27.832031 134.101562 27.832031 " clip-rule="nonzero"/></clipPath><clipPath id="09aa1b67d0"><path d="M 152.292969 5.34375 L 153.769531 5.34375 L 153.769531 6.566406 L 152.292969 6.566406 Z M 152.292969 5.34375 " clip-rule="nonzero"/></clipPath><clipPath id="13b42f49e7"><path d="M 153.742188 5.792969 C 153.066406 6.765625 152.46875 6.617188 152.394531 6.390625 C 152.242188 6.167969 152.320312 5.566406 152.542969 5.417969 C 152.769531 5.265625 153.519531 5.492188 153.519531 5.492188 " clip-rule="nonzero"/></clipPath><clipPath id="e54a2fa43c"><path d="M 182.140625 5.628906 L 183.75 5.628906 L 183.75 7.09375 L 182.140625 7.09375 Z M 182.140625 5.628906 " clip-rule="nonzero"/></clipPath><clipPath id="fea6ece991"><path d="M 183.203125 5.640625 C 183.425781 7.066406 182.453125 6.917969 182.300781 6.691406 C 182.226562 6.542969 182.675781 5.640625 182.902344 5.640625 C 183.128906 5.566406 183.800781 6.316406 183.726562 6.542969 C 183.652344 6.765625 183.050781 7.140625 182.753906 7.066406 C 182.527344 6.992188 182.152344 6.464844 182.152344 6.242188 C 182.226562 6.015625 183.128906 5.640625 183.128906 5.640625 " clip-rule="nonzero"/></clipPath><clipPath id="9b607f947f"><path d="M 188.960938 16.273438 L 190.308594 16.273438 L 190.308594 17.648438 L 188.960938 17.648438 Z M 188.960938 16.273438 " clip-rule="nonzero"/></clipPath><clipPath id="b2cc6d4b7b"><path d="M 190.25 16.4375 C 189.796875 17.785156 188.972656 17.261719 188.972656 16.960938 C 188.972656 16.734375 189.722656 16.210938 189.949219 16.285156 C 190.171875 16.359375 190.398438 17.261719 190.25 17.484375 C 190.097656 17.636719 189.425781 17.710938 189.199219 17.484375 C 188.972656 17.335938 188.898438 16.734375 189.050781 16.511719 C 189.199219 16.285156 190.171875 16.359375 190.171875 16.359375 " clip-rule="nonzero"/></clipPath><clipPath id="c40ce22b84"><path d="M 202.679688 20.320312 L 204.128906 20.320312 L 204.128906 21.800781 L 202.679688 21.800781 Z M 202.679688 20.320312 " clip-rule="nonzero"/></clipPath><clipPath id="2adcba3f75"><path d="M 203.816406 20.410156 C 203.742188 21.832031 202.839844 21.609375 202.765625 21.382812 C 202.691406 21.160156 203.214844 20.335938 203.441406 20.335938 C 203.742188 20.335938 204.191406 21.160156 204.117188 21.382812 C 204.042969 21.609375 203.367188 21.910156 203.140625 21.757812 C 202.917969 21.683594 202.617188 21.082031 202.691406 20.859375 C 202.765625 20.632812 203.742188 20.410156 203.742188 20.410156 " clip-rule="nonzero"/></clipPath><clipPath id="d94c126446"><path d="M 218.722656 4.132812 L 220.257812 4.132812 L 220.257812 5.667969 L 218.722656 5.667969 Z M 218.722656 4.132812 " clip-rule="nonzero"/></clipPath><clipPath id="5c5d32f374"><path d="M 219.484375 4.144531 C 220.082031 5.417969 219.109375 5.640625 218.957031 5.492188 C 218.808594 5.34375 218.957031 4.367188 219.183594 4.21875 C 219.40625 4.144531 220.234375 4.667969 220.234375 4.890625 C 220.308594 5.117188 219.707031 5.640625 219.484375 5.640625 C 219.257812 5.640625 218.734375 5.117188 218.734375 4.816406 C 218.734375 4.59375 219.484375 4.144531 219.484375 4.144531 " clip-rule="nonzero"/></clipPath><clipPath id="daaeacb36c"><path d="M 197.011719 4.027344 L 198.59375 4.027344 L 198.59375 5.519531 L 197.011719 5.519531 Z M 197.011719 4.027344 " clip-rule="nonzero"/></clipPath><clipPath id="3aa59c0c22"><path d="M 197.96875 5.492188 C 196.996094 4.519531 197.894531 3.992188 198.042969 4.066406 C 198.269531 4.21875 198.417969 5.191406 198.269531 5.34375 C 198.121094 5.492188 197.144531 5.265625 197.070312 5.042969 C 196.917969 4.816406 197.292969 4.144531 197.519531 4.066406 C 197.746094 3.992188 198.417969 4.292969 198.570312 4.519531 C 198.644531 4.742188 198.121094 5.492188 198.121094 5.492188 " clip-rule="nonzero"/></clipPath><clipPath id="b63c7029b8"><path d="M 218.183594 20.335938 L 219.660156 20.335938 L 219.660156 21.558594 L 218.183594 21.558594 Z M 218.183594 20.335938 " clip-rule="nonzero"/></clipPath><clipPath id="b52d19aae2"><path d="M 219.632812 20.785156 C 218.957031 21.757812 218.359375 21.609375 218.285156 21.382812 C 218.132812 21.160156 218.207031 20.558594 218.433594 20.410156 C 218.660156 20.257812 219.40625 20.484375 219.40625 20.484375 " clip-rule="nonzero"/></clipPath><clipPath id="80aba04d6c"><path d="M 215.648438 48.65625 L 217.1875 48.65625 L 217.1875 50.195312 L 215.648438 50.195312 Z M 215.648438 48.65625 " clip-rule="nonzero"/></clipPath><clipPath id="65b8ef4ccb"><path d="M 217.160156 49.417969 C 215.886719 50.019531 215.734375 49.042969 215.886719 48.894531 C 216.035156 48.742188 217.007812 48.894531 217.085938 49.117188 C 217.160156 49.34375 216.710938 50.167969 216.484375 50.167969 C 216.183594 50.167969 215.660156 49.71875 215.660156 49.417969 C 215.660156 49.195312 216.035156 48.667969 216.257812 48.667969 C 216.558594 48.59375 217.160156 49.34375 217.160156 49.34375 " clip-rule="nonzero"/></clipPath><clipPath id="c40aa278ca"><path d="M 202.832031 38.238281 L 204.367188 38.238281 L 204.367188 39.835938 L 202.832031 39.835938 Z M 202.832031 38.238281 " clip-rule="nonzero"/></clipPath><clipPath id="022872e9e2"><path d="M 202.839844 39 C 204.117188 38.398438 204.339844 39.375 204.191406 39.523438 C 203.964844 39.75 202.992188 39.523438 202.917969 39.375 C 202.839844 39.148438 203.292969 38.324219 203.589844 38.25 C 203.816406 38.25 204.339844 38.773438 204.339844 39 C 204.339844 39.300781 203.816406 39.824219 203.589844 39.824219 C 203.292969 39.824219 202.839844 39.074219 202.839844 39.074219 " clip-rule="nonzero"/></clipPath><clipPath id="e4ca34817a"><path d="M 216.09375 61.324219 L 217.53125 61.324219 L 217.53125 62.699219 L 216.09375 62.699219 Z M 216.09375 61.324219 " clip-rule="nonzero"/></clipPath><clipPath id="dc817a432a"><path d="M 217.457031 61.488281 C 217.007812 62.835938 216.183594 62.3125 216.109375 62.085938 C 216.109375 61.785156 216.933594 61.261719 217.160156 61.335938 C 217.382812 61.414062 217.609375 62.3125 217.457031 62.535156 C 217.308594 62.6875 216.558594 62.761719 216.335938 62.535156 C 216.183594 62.386719 216.183594 61.636719 216.410156 61.414062 C 216.558594 61.261719 217.382812 61.488281 217.382812 61.488281 " clip-rule="nonzero"/></clipPath><clipPath id="f54f8fc190"><path d="M 216.335938 72.058594 L 217.785156 72.058594 L 217.785156 73.28125 L 216.335938 73.28125 Z M 216.335938 72.058594 " clip-rule="nonzero"/></clipPath><clipPath id="74a1f04318"><path d="M 217.757812 72.507812 C 217.085938 73.480469 216.558594 73.332031 216.410156 73.105469 C 216.257812 72.882812 216.410156 72.28125 216.558594 72.132812 C 216.785156 71.980469 217.535156 72.207031 217.535156 72.207031 " clip-rule="nonzero"/></clipPath><clipPath id="35e91c9d2b"><path d="M 210.851562 56.304688 L 212.390625 56.304688 L 212.390625 57.902344 L 210.851562 57.902344 Z M 210.851562 56.304688 " clip-rule="nonzero"/></clipPath><clipPath id="216267a0ec"><path d="M 210.863281 57.066406 C 212.136719 56.464844 212.363281 57.4375 212.136719 57.589844 C 211.988281 57.8125 211.011719 57.589844 210.9375 57.4375 C 210.863281 57.214844 211.3125 56.390625 211.613281 56.316406 C 211.835938 56.316406 212.363281 56.839844 212.363281 57.066406 C 212.363281 57.363281 211.835938 57.890625 211.535156 57.890625 C 211.3125 57.890625 210.863281 57.140625 210.863281 57.140625 " clip-rule="nonzero"/></clipPath><clipPath id="97d7ca918c"><path d="M 187.667969 64.546875 L 189.074219 64.546875 L 189.074219 65.980469 L 187.667969 65.980469 Z M 187.667969 64.546875 " clip-rule="nonzero"/></clipPath><clipPath id="b00f9b09c8"><path d="M 188.898438 65.910156 C 187.550781 65.386719 188.074219 64.5625 188.300781 64.5625 C 188.523438 64.5625 189.125 65.386719 189.050781 65.609375 C 188.972656 65.835938 188 66.058594 187.851562 65.910156 C 187.625 65.761719 187.625 65.011719 187.773438 64.785156 C 188 64.636719 188.75 64.636719 188.898438 64.785156 C 189.125 64.933594 188.972656 65.835938 188.972656 65.835938 " clip-rule="nonzero"/></clipPath><clipPath id="39b9d22243"><path d="M 167.011719 69 L 168.460938 69 L 168.460938 70.207031 L 167.011719 70.207031 Z M 167.011719 69 " clip-rule="nonzero"/></clipPath><clipPath id="f47d62def7"><path d="M 168.433594 69.433594 C 167.835938 70.40625 167.234375 70.257812 167.085938 70.03125 C 166.9375 69.808594 167.085938 69.207031 167.234375 69.058594 C 167.460938 68.910156 168.285156 69.132812 168.285156 69.132812 " clip-rule="nonzero"/></clipPath><clipPath id="e94531db28"><path d="M 134.601562 65.238281 L 136.078125 65.238281 L 136.078125 66.457031 L 134.601562 66.457031 Z M 134.601562 65.238281 " clip-rule="nonzero"/></clipPath><clipPath id="c1c6e203c2"><path d="M 136.050781 65.683594 C 135.378906 66.660156 134.777344 66.507812 134.703125 66.285156 C 134.554688 66.058594 134.628906 65.460938 134.851562 65.308594 C 135.078125 65.160156 135.828125 65.308594 135.828125 65.308594 " clip-rule="nonzero"/></clipPath><clipPath id="6cb619230e"><path d="M 119.890625 51.667969 L 121.3125 51.667969 L 121.3125 52.890625 L 119.890625 52.890625 Z M 119.890625 51.667969 " clip-rule="nonzero"/></clipPath><clipPath id="f22acbef86"><path d="M 121.285156 52.117188 C 120.6875 53.089844 120.085938 52.941406 119.9375 52.71875 C 119.859375 52.492188 119.9375 51.890625 120.160156 51.742188 C 120.3125 51.59375 121.136719 51.816406 121.136719 51.816406 " clip-rule="nonzero"/></clipPath><clipPath id="90855afde6"><path d="M 119.039062 39.375 L 120.488281 39.375 L 120.488281 40.597656 L 119.039062 40.597656 Z M 119.039062 39.375 " clip-rule="nonzero"/></clipPath><clipPath id="b600e849a1"><path d="M 120.460938 39.824219 C 119.859375 40.796875 119.261719 40.648438 119.113281 40.421875 C 118.960938 40.199219 119.113281 39.597656 119.335938 39.449219 C 119.484375 39.300781 120.3125 39.523438 120.3125 39.523438 " clip-rule="nonzero"/></clipPath><clipPath id="f4b7153e41"><path d="M 145.933594 52.851562 L 147.28125 52.851562 L 147.28125 54.257812 L 145.933594 54.257812 Z M 145.933594 52.851562 " clip-rule="nonzero"/></clipPath><clipPath id="e5ec8c948b"><path d="M 147.222656 53.015625 C 146.773438 54.367188 145.945312 53.839844 145.945312 53.617188 C 145.945312 53.390625 146.695312 52.792969 146.921875 52.867188 C 147.144531 52.941406 147.371094 53.917969 147.222656 54.066406 C 147.070312 54.292969 146.320312 54.292969 146.171875 54.140625 C 145.945312 53.917969 145.945312 53.167969 146.171875 53.015625 C 146.320312 52.792969 147.144531 53.015625 147.144531 53.015625 " clip-rule="nonzero"/></clipPath><clipPath id="af8c42cfb9"><path d="M 142.113281 34.941406 L 143.605469 34.941406 L 143.605469 36.402344 L 142.113281 36.402344 Z M 142.113281 34.941406 " clip-rule="nonzero"/></clipPath><clipPath id="62baf3144d"><path d="M 142.199219 35.25 C 143.625 35.324219 143.398438 36.226562 143.171875 36.300781 C 142.949219 36.375 142.125 35.851562 142.125 35.625 C 142.125 35.402344 142.949219 34.875 143.171875 34.953125 C 143.398438 35.027344 143.699219 35.699219 143.546875 35.925781 C 143.472656 36.152344 142.875 36.449219 142.648438 36.375 C 142.425781 36.300781 142.199219 35.402344 142.199219 35.402344 " clip-rule="nonzero"/></clipPath><clipPath id="8890ec9892"><path d="M 158.902344 23.695312 L 160.5 23.695312 L 160.5 25.234375 L 158.902344 25.234375 Z M 158.902344 23.695312 " clip-rule="nonzero"/></clipPath><clipPath id="57283e217d"><path d="M 159.738281 23.707031 C 160.339844 24.90625 159.363281 25.132812 159.214844 24.980469 C 159.066406 24.832031 159.214844 23.855469 159.363281 23.78125 C 159.589844 23.632812 160.414062 24.15625 160.488281 24.382812 C 160.488281 24.605469 159.964844 25.207031 159.738281 25.207031 C 159.441406 25.207031 158.914062 24.683594 158.914062 24.382812 C 158.914062 24.15625 159.664062 23.707031 159.664062 23.707031 " clip-rule="nonzero"/></clipPath><clipPath id="cfb2dc018c"><path d="M 163.640625 37.050781 L 165.089844 37.050781 L 165.089844 38.273438 L 163.640625 38.273438 Z M 163.640625 37.050781 " clip-rule="nonzero"/></clipPath><clipPath id="3add58a40c"><path d="M 165.0625 37.5 C 164.460938 38.472656 163.863281 38.324219 163.710938 38.101562 C 163.5625 37.875 163.710938 37.273438 163.863281 37.125 C 164.085938 36.976562 164.910156 37.125 164.910156 37.125 " clip-rule="nonzero"/></clipPath><clipPath id="772f224fa4"><path d="M 174.554688 18.539062 L 176.03125 18.539062 L 176.03125 19.785156 L 174.554688 19.785156 Z M 174.554688 18.539062 " clip-rule="nonzero"/></clipPath><clipPath id="7bfc31eabe"><path d="M 176.007812 18.984375 C 175.332031 20.035156 174.730469 19.808594 174.65625 19.585938 C 174.507812 19.359375 174.582031 18.761719 174.808594 18.609375 C 175.03125 18.460938 175.78125 18.683594 175.78125 18.683594 " clip-rule="nonzero"/></clipPath><clipPath id="687ac2f0cf"><path d="M 126.445312 62.226562 L 128.042969 62.226562 L 128.042969 63.761719 L 126.445312 63.761719 Z M 126.445312 62.226562 " clip-rule="nonzero"/></clipPath><clipPath id="96b8a2bfc0"><path d="M 127.207031 63.734375 C 126.609375 62.460938 127.582031 62.238281 127.730469 62.460938 C 127.957031 62.613281 127.730469 63.585938 127.582031 63.660156 C 127.355469 63.734375 126.53125 63.285156 126.457031 62.988281 C 126.457031 62.761719 126.980469 62.238281 127.207031 62.238281 C 127.507812 62.238281 127.957031 62.613281 128.03125 62.835938 C 128.03125 63.0625 127.28125 63.734375 127.28125 63.734375 " clip-rule="nonzero"/></clipPath><clipPath id="19a31e54e4"><path d="M 97.4375 60.5 L 98.972656 60.5 L 98.972656 62.039062 L 97.4375 62.039062 Z M 97.4375 60.5 " clip-rule="nonzero"/></clipPath><clipPath id="8600fd04c9"><path d="M 98.199219 60.511719 C 98.796875 61.785156 97.824219 61.9375 97.671875 61.785156 C 97.523438 61.636719 97.671875 60.664062 97.898438 60.585938 C 98.121094 60.511719 98.945312 60.960938 98.945312 61.261719 C 98.945312 61.488281 98.496094 62.011719 98.199219 62.011719 C 97.972656 62.011719 97.449219 61.636719 97.449219 61.414062 C 97.449219 61.113281 98.199219 60.511719 98.199219 60.511719 " clip-rule="nonzero"/></clipPath><clipPath id="b8166a5c71"><path d="M 103.476562 42.148438 L 104.953125 42.148438 L 104.953125 43.398438 L 103.476562 43.398438 Z M 103.476562 42.148438 " clip-rule="nonzero"/></clipPath><clipPath id="34a4933f9b"><path d="M 104.945312 42.597656 C 104.269531 43.648438 103.667969 43.421875 103.519531 43.195312 C 103.445312 43.046875 103.519531 42.371094 103.746094 42.222656 C 103.894531 42.074219 104.71875 42.296875 104.71875 42.296875 " clip-rule="nonzero"/></clipPath><clipPath id="228a7ed420"><path d="M 105.230469 63.273438 L 106.769531 63.273438 L 106.769531 64.871094 L 105.230469 64.871094 Z M 105.230469 63.273438 " clip-rule="nonzero"/></clipPath><clipPath id="1fd554e6c4"><path d="M 106.742188 64.109375 C 105.542969 64.710938 105.320312 63.734375 105.46875 63.585938 C 105.617188 63.359375 106.59375 63.585938 106.667969 63.734375 C 106.816406 63.960938 106.292969 64.785156 106.070312 64.859375 C 105.84375 64.859375 105.242188 64.335938 105.242188 64.109375 C 105.242188 63.8125 105.617188 63.359375 105.917969 63.285156 C 106.144531 63.285156 106.742188 64.035156 106.742188 64.035156 " clip-rule="nonzero"/></clipPath><clipPath id="b517f3768d"><path d="M 94.453125 68.609375 L 95.898438 68.609375 L 95.898438 69.832031 L 94.453125 69.832031 Z M 94.453125 68.609375 " clip-rule="nonzero"/></clipPath><clipPath id="146c061a0e"><path d="M 95.875 69.058594 C 95.199219 70.03125 94.675781 69.882812 94.523438 69.65625 C 94.375 69.433594 94.523438 68.832031 94.675781 68.683594 C 94.898438 68.535156 95.648438 68.757812 95.648438 68.757812 " clip-rule="nonzero"/></clipPath><clipPath id="418f275473"><path d="M 59.507812 67.921875 L 61.027344 67.921875 L 61.027344 69.445312 L 59.507812 69.445312 Z M 59.507812 67.921875 " clip-rule="nonzero"/></clipPath><clipPath id="f78c519a85"><path d="M 59.96875 69.359375 C 59.816406 68.007812 60.792969 68.082031 60.867188 68.308594 C 61.015625 68.535156 60.492188 69.359375 60.269531 69.433594 C 60.042969 69.433594 59.441406 68.683594 59.519531 68.457031 C 59.519531 68.234375 60.191406 67.859375 60.417969 67.933594 C 60.71875 68.007812 61.09375 68.683594 61.015625 68.910156 C 60.941406 69.132812 60.117188 69.433594 60.117188 69.433594 " clip-rule="nonzero"/></clipPath><clipPath id="177f6af985"><path d="M 47.4375 57.429688 L 48.976562 57.429688 L 48.976562 59.023438 L 47.4375 59.023438 Z M 47.4375 57.429688 " clip-rule="nonzero"/></clipPath><clipPath id="fd31dd1b00"><path d="M 47.449219 58.1875 C 48.722656 57.589844 48.875 58.5625 48.722656 58.714844 C 48.574219 58.863281 47.597656 58.714844 47.523438 58.488281 C 47.449219 58.339844 47.898438 57.515625 48.125 57.4375 C 48.425781 57.4375 48.949219 57.964844 48.949219 58.1875 C 48.949219 58.488281 48.425781 59.011719 48.125 59.011719 C 47.898438 59.011719 47.449219 58.265625 47.449219 58.265625 " clip-rule="nonzero"/></clipPath><clipPath id="936c164a81"><path d="M 41.90625 54.039062 L 43.351562 54.039062 L 43.351562 55.261719 L 41.90625 55.261719 Z M 41.90625 54.039062 " clip-rule="nonzero"/></clipPath><clipPath id="2376ab195b"><path d="M 43.328125 54.441406 C 42.726562 55.492188 42.128906 55.265625 41.976562 55.117188 C 41.828125 54.890625 41.976562 54.292969 42.128906 54.140625 C 42.351562 53.917969 43.175781 54.140625 43.175781 54.140625 " clip-rule="nonzero"/></clipPath><clipPath id="9664a22570"><path d="M 34.320312 60.949219 L 35.859375 60.949219 L 35.859375 62.546875 L 34.320312 62.546875 Z M 34.320312 60.949219 " clip-rule="nonzero"/></clipPath><clipPath id="da77406086"><path d="M 35.832031 61.785156 C 34.632812 62.386719 34.40625 61.414062 34.554688 61.261719 C 34.707031 61.039062 35.679688 61.261719 35.832031 61.414062 C 35.90625 61.636719 35.382812 62.460938 35.15625 62.535156 C 34.929688 62.535156 34.40625 62.011719 34.332031 61.785156 C 34.332031 61.488281 34.78125 61.039062 35.007812 60.960938 C 35.230469 60.960938 35.832031 61.710938 35.832031 61.710938 " clip-rule="nonzero"/></clipPath><clipPath id="fcc5426992"><path d="M 26.882812 68.234375 L 28.359375 68.234375 L 28.359375 69.457031 L 26.882812 69.457031 Z M 26.882812 68.234375 " clip-rule="nonzero"/></clipPath><clipPath id="779f0328ae"><path d="M 28.335938 68.683594 C 27.660156 69.65625 27.0625 69.507812 26.984375 69.28125 C 26.835938 69.058594 26.910156 68.457031 27.136719 68.308594 C 27.359375 68.160156 28.109375 68.382812 28.109375 68.382812 " clip-rule="nonzero"/></clipPath><clipPath id="f8cb3811f4"><path d="M 48.488281 67.847656 L 49.9375 67.847656 L 49.9375 69.324219 L 48.488281 69.324219 Z M 48.488281 67.847656 " clip-rule="nonzero"/></clipPath><clipPath id="d1a701ffeb"><path d="M 49.546875 67.933594 C 49.546875 69.359375 48.574219 69.132812 48.5 68.910156 C 48.425781 68.683594 49.023438 67.859375 49.25 67.859375 C 49.472656 67.859375 50 68.683594 49.921875 68.910156 C 49.847656 69.132812 49.097656 69.433594 48.875 69.28125 C 48.648438 69.207031 48.425781 68.457031 48.574219 68.234375 C 48.648438 68.007812 49.472656 67.933594 49.472656 67.933594 " clip-rule="nonzero"/></clipPath><clipPath id="43183636e2"><path d="M 66.550781 18.761719 L 67.957031 18.761719 L 67.957031 20.140625 L 66.550781 20.140625 Z M 66.550781 18.761719 " clip-rule="nonzero"/></clipPath><clipPath id="dc7c65f925"><path d="M 66.789062 18.835938 C 68.0625 19.285156 67.539062 20.109375 67.3125 20.109375 C 67.089844 20.109375 66.488281 19.359375 66.566406 19.136719 C 66.640625 18.910156 67.613281 18.683594 67.765625 18.835938 C 67.988281 18.984375 67.988281 19.734375 67.839844 19.882812 C 67.6875 20.109375 67.015625 20.183594 66.863281 20.035156 C 66.640625 19.882812 66.714844 18.910156 66.714844 18.910156 " clip-rule="nonzero"/></clipPath><clipPath id="655da821a1"><path d="M 71.722656 12.617188 L 73.101562 12.617188 L 73.101562 14.050781 L 71.722656 14.050781 Z M 71.722656 12.617188 " clip-rule="nonzero"/></clipPath><clipPath id="5cf979a998"><path d="M 71.886719 12.761719 C 73.234375 13.136719 72.710938 14.039062 72.484375 14.039062 C 72.261719 14.039062 71.660156 13.214844 71.738281 12.988281 C 71.8125 12.761719 72.710938 12.539062 72.9375 12.6875 C 73.085938 12.839844 73.160156 13.585938 72.9375 13.8125 C 72.785156 13.960938 72.1875 14.039062 71.960938 13.886719 C 71.8125 13.738281 71.886719 12.761719 71.886719 12.761719 " clip-rule="nonzero"/></clipPath><clipPath id="471e1c7aff"><path d="M 85.308594 3.152344 L 86.742188 3.152344 L 86.742188 4.53125 L 85.308594 4.53125 Z M 85.308594 3.152344 " clip-rule="nonzero"/></clipPath><clipPath id="a7553be379"><path d="M 85.453125 4.367188 C 85.902344 3.019531 86.730469 3.542969 86.730469 3.84375 C 86.730469 4.066406 85.902344 4.59375 85.679688 4.519531 C 85.453125 4.441406 85.230469 3.542969 85.378906 3.316406 C 85.53125 3.167969 86.277344 3.09375 86.503906 3.316406 C 86.652344 3.46875 86.652344 4.21875 86.429688 4.441406 C 86.277344 4.59375 85.453125 4.367188 85.453125 4.367188 " clip-rule="nonzero"/></clipPath><clipPath id="60a2ba02f1"><path d="M 120.914062 71.007812 L 122.359375 71.007812 L 122.359375 72.257812 L 120.914062 72.257812 Z M 120.914062 71.007812 " clip-rule="nonzero"/></clipPath><clipPath id="8bf98478e9"><path d="M 122.335938 71.457031 C 121.734375 72.507812 121.136719 72.28125 120.984375 72.054688 C 120.835938 71.832031 120.984375 71.230469 121.210938 71.082031 C 121.359375 70.933594 122.183594 71.15625 122.183594 71.15625 " clip-rule="nonzero"/></clipPath><clipPath id="818caea124"><path d="M 168.511719 54.59375 L 169.960938 54.59375 L 169.960938 55.84375 L 168.511719 55.84375 Z M 168.511719 54.59375 " clip-rule="nonzero"/></clipPath><clipPath id="06bcbe99fb"><path d="M 169.933594 55.039062 C 169.335938 56.089844 168.734375 55.863281 168.585938 55.640625 C 168.433594 55.414062 168.585938 54.816406 168.734375 54.664062 C 168.960938 54.515625 169.785156 54.742188 169.785156 54.742188 " clip-rule="nonzero"/></clipPath><clipPath id="ebcd9e371a"><path d="M 199.277344 67.769531 L 200.753906 67.769531 L 200.753906 69.25 L 199.277344 69.25 Z M 199.277344 67.769531 " clip-rule="nonzero"/></clipPath><clipPath id="699c60c939"><path d="M 200.367188 67.859375 C 200.367188 69.207031 199.394531 68.984375 199.320312 68.757812 C 199.242188 68.535156 199.84375 67.785156 200.066406 67.785156 C 200.292969 67.785156 200.816406 68.609375 200.742188 68.832031 C 200.667969 69.058594 199.992188 69.28125 199.695312 69.207031 C 199.46875 69.058594 199.242188 68.535156 199.320312 68.308594 C 199.394531 68.007812 200.292969 67.785156 200.292969 67.785156 " clip-rule="nonzero"/></clipPath><clipPath id="5cd1937379"><path d="M 211.074219 24.894531 L 212.421875 24.894531 L 212.421875 26.296875 L 211.074219 26.296875 Z M 211.074219 24.894531 " clip-rule="nonzero"/></clipPath><clipPath id="aee5e7f93d"><path d="M 212.363281 25.132812 C 211.910156 26.40625 211.085938 25.882812 211.085938 25.65625 C 211.085938 25.429688 211.835938 24.832031 212.0625 24.90625 C 212.285156 24.980469 212.511719 25.957031 212.363281 26.105469 C 212.210938 26.332031 211.460938 26.332031 211.3125 26.179688 C 211.085938 26.03125 211.085938 25.355469 211.238281 25.207031 C 211.386719 24.980469 212.363281 25.054688 212.363281 25.054688 " clip-rule="nonzero"/></clipPath><clipPath id="37d001130f"><path d="M 118.628906 2.105469 L 120.035156 2.105469 L 120.035156 3.453125 L 118.628906 3.453125 Z M 118.628906 2.105469 " clip-rule="nonzero"/></clipPath><clipPath id="92129d7a05"><path d="M 119.785156 3.394531 C 118.511719 2.945312 119.035156 2.117188 119.261719 2.117188 C 119.484375 2.117188 120.085938 2.867188 120.011719 3.09375 C 119.9375 3.316406 118.960938 3.542969 118.8125 3.394531 C 118.585938 3.242188 118.585938 2.492188 118.8125 2.269531 C 118.960938 2.117188 119.710938 2.117188 119.859375 2.34375 C 120.085938 2.492188 119.859375 3.316406 119.859375 3.316406 " clip-rule="nonzero"/></clipPath><clipPath id="2a9130ad78"><path d="M 0.140625 0.0195312 L 224.761719 0.0195312 L 224.761719 4.976562 L 0.140625 4.976562 Z M 0.140625 0.0195312 " clip-rule="nonzero"/></clipPath><clipPath id="a0d4c6574f"><path d="M 1.648438 0.0195312 C 18.441406 0.0195312 20.390625 0.917969 25.859375 1.144531 C 40.253906 1.820312 82.832031 -1.554688 105.09375 -1.179688 C 121.285156 -0.804688 134.628906 1.894531 147.070312 1.667969 C 157.042969 1.519531 163.863281 -0.804688 174.132812 -1.03125 C 187.625 -1.328125 214.761719 2.644531 221.207031 1.667969 C 222.929688 1.445312 223.605469 0.46875 224.429688 0.46875 C 224.953125 0.542969 225.554688 0.769531 225.78125 1.144531 C 226.003906 1.59375 226.078125 2.71875 225.703125 3.09375 C 225.328125 3.46875 223.832031 3.542969 223.378906 3.242188 C 223.007812 3.019531 222.855469 2.269531 222.855469 1.894531 C 222.929688 1.445312 223.378906 0.84375 223.753906 0.621094 C 224.207031 0.46875 225.328125 0.621094 225.628906 1.070312 C 226.003906 1.445312 226.15625 2.417969 225.78125 2.945312 C 225.253906 3.84375 223.605469 4.292969 221.28125 4.667969 C 213.859375 5.867188 187.625 1.894531 174.058594 2.195312 C 163.710938 2.417969 156.742188 4.816406 146.773438 4.96875 C 134.628906 5.117188 115.964844 2.117188 106.367188 2.042969 C 101.121094 2.042969 97.746094 2.945312 94.074219 2.792969 C 91.226562 2.71875 89.800781 1.820312 86.355469 1.742188 C 79.609375 1.519531 66.339844 3.542969 56.070312 3.992188 C 45.425781 4.441406 31.035156 4.890625 23.539062 4.441406 C 19.566406 4.144531 17.765625 3.316406 14.46875 3.09375 C 10.496094 2.792969 3.222656 4.066406 1.273438 3.019531 C 0.523438 2.644531 0.0742188 1.820312 0.148438 1.371094 C 0.226562 0.84375 1.648438 0.0195312 1.648438 0.0195312 " clip-rule="nonzero"/></clipPath><clipPath id="08a8f95ffc"><path d="M 220.058594 3.195312 L 224.761719 3.195312 L 224.761719 74.878906 L 220.058594 74.878906 Z M 220.058594 3.195312 " clip-rule="nonzero"/></clipPath><clipPath id="30869d46ba"><path d="M 223.378906 4.742188 C 224.65625 46.421875 225.855469 68.910156 224.207031 73.179688 C 223.832031 74.230469 223.304688 74.753906 222.78125 74.828125 C 222.257812 74.828125 221.207031 73.929688 220.980469 73.179688 C 220.683594 72.28125 221.058594 70.332031 221.582031 69.65625 C 221.957031 69.058594 222.855469 68.757812 223.378906 68.757812 C 223.832031 68.832031 224.429688 69.359375 224.582031 69.808594 C 224.730469 70.257812 224.429688 71.308594 224.054688 71.683594 C 223.679688 71.980469 222.929688 72.054688 222.480469 71.90625 C 222.105469 71.757812 221.582031 71.308594 221.433594 70.855469 C 221.355469 70.332031 221.730469 69.28125 222.179688 68.984375 C 222.632812 68.683594 223.753906 68.757812 224.128906 69.207031 C 224.730469 69.882812 224.582031 73.03125 224.054688 73.929688 C 223.679688 74.53125 222.929688 74.90625 222.40625 74.828125 C 221.882812 74.679688 221.355469 74.230469 220.980469 73.179688 C 219.40625 69.058594 221.355469 47.320312 221.207031 36.300781 C 221.058594 27.457031 220.308594 18.308594 220.308594 12.386719 C 220.234375 8.867188 219.707031 5.34375 220.457031 3.992188 C 220.832031 3.46875 221.582031 3.167969 222.03125 3.242188 C 222.554688 3.316406 223.378906 4.742188 223.378906 4.742188 " clip-rule="nonzero"/></clipPath><clipPath id="f86e08c07c"><path d="M 221.515625 3.289062 L 224.761719 3.289062 L 224.761719 74.980469 L 221.515625 74.980469 Z M 221.515625 3.289062 " clip-rule="nonzero"/></clipPath><clipPath id="16da2e2d46"><path d="M 225.40625 4.816406 C 225.855469 47.394531 224.878906 54.140625 224.730469 60.511719 C 224.65625 65.835938 225.929688 72.804688 225.03125 75.128906 C 224.730469 76.03125 224.128906 76.703125 223.679688 76.703125 C 223.082031 76.777344 221.957031 75.730469 221.882812 75.128906 C 221.804688 74.679688 222.332031 74.003906 222.707031 73.78125 C 223.082031 73.554688 223.753906 73.554688 224.207031 73.78125 C 224.582031 73.929688 224.953125 74.53125 225.03125 74.980469 C 225.105469 75.355469 224.804688 76.03125 224.503906 76.328125 C 224.207031 76.628906 223.457031 76.777344 223.082031 76.703125 C 222.632812 76.554688 222.105469 76.105469 221.957031 75.65625 C 221.804688 75.28125 221.957031 74.53125 222.179688 74.230469 C 222.40625 73.855469 223.082031 73.480469 223.53125 73.554688 C 224.054688 73.707031 225.03125 74.753906 225.03125 75.28125 C 225.03125 75.804688 224.128906 76.628906 223.679688 76.703125 C 223.15625 76.777344 222.40625 76.480469 222.03125 75.878906 C 221.28125 74.679688 221.65625 71.832031 221.582031 68.609375 C 221.582031 62.238281 222.78125 50.167969 222.929688 40.199219 C 223.082031 29.03125 220.90625 8.789062 222.40625 4.816406 C 222.78125 3.84375 223.230469 3.316406 223.753906 3.316406 C 224.207031 3.316406 225.40625 4.816406 225.40625 4.816406 " clip-rule="nonzero"/></clipPath><clipPath id="f6ec80686d"><path d="M 0 1.386719 L 224 1.386719 L 224 74.980469 L 0 74.980469 Z M 0 1.386719 " clip-rule="nonzero"/></clipPath><clipPath id="76177c44ee"><path d="M 3.074219 3.019531 C 3.375 31.429688 1.648438 48.21875 1.574219 57.289062 C 1.5 62.835938 1.574219 67.859375 2.023438 70.707031 C 2.25 72.132812 2.097656 73.257812 2.921875 73.78125 C 4.273438 74.679688 7.644531 72.582031 11.617188 72.207031 C 20.164062 71.53125 39.953125 72.65625 52.171875 72.355469 C 62.214844 72.132812 72.335938 70.855469 79.683594 70.933594 C 84.554688 71.007812 86.878906 71.683594 91.75 71.757812 C 99.320312 71.90625 113.5625 70.558594 120.6875 70.855469 C 124.882812 70.933594 127.28125 71.757812 130.804688 71.832031 C 134.628906 71.90625 139.050781 70.933594 142.875 71.007812 C 146.320312 71.007812 149.320312 71.980469 152.542969 71.980469 C 155.765625 71.980469 157.867188 71.15625 162.0625 71.007812 C 170.382812 70.78125 190.171875 72.28125 199.167969 72.355469 C 204.339844 72.355469 207.863281 72.28125 211.3125 71.90625 C 213.9375 71.683594 215.960938 70.78125 218.132812 70.78125 C 220.007812 70.707031 222.554688 70.707031 223.378906 71.457031 C 223.90625 71.90625 224.128906 72.957031 223.832031 73.40625 C 223.605469 73.929688 222.105469 74.378906 221.582031 74.230469 C 221.132812 74.082031 220.683594 73.40625 220.683594 72.957031 C 220.605469 72.429688 220.90625 71.757812 221.207031 71.457031 C 221.582031 71.15625 222.332031 70.933594 222.78125 71.082031 C 223.304688 71.308594 223.980469 72.207031 223.980469 72.730469 C 224.054688 73.257812 223.605469 73.929688 222.78125 74.378906 C 220.082031 75.804688 209.0625 75.355469 200.667969 75.429688 C 189.722656 75.503906 172.109375 74.003906 162.738281 74.15625 C 157.191406 74.304688 153.519531 75.203125 149.621094 75.128906 C 146.546875 75.054688 144.296875 74.15625 141.375 74.082031 C 138 74.003906 134.328125 74.980469 130.730469 74.90625 C 127.058594 74.90625 123.984375 74.003906 119.484375 73.855469 C 112.589844 73.707031 100.671875 74.980469 93.550781 74.90625 C 88.527344 74.828125 85.828125 74.15625 80.730469 74.082031 C 73.3125 74.082031 63.492188 75.28125 53.445312 75.578125 C 41.226562 75.878906 21.8125 74.980469 12.519531 75.578125 C 7.644531 75.878906 3.449219 77.378906 1.5 76.929688 C 0.75 76.777344 0.449219 76.703125 0 76.105469 C -0.75 75.128906 -1.050781 72.957031 -1.347656 70.558594 C -1.949219 66.285156 -1.875 59.386719 -1.722656 52.566406 C -1.574219 43.722656 -0.0742188 30.828125 0.148438 21.832031 C 0.375 14.789062 -0.972656 5.71875 0.0742188 3.019531 C 0.375 2.117188 0.898438 1.59375 1.347656 1.519531 C 1.875 1.519531 3.074219 3.019531 3.074219 3.019531 " clip-rule="nonzero"/></clipPath><clipPath id="28ea1f2237"><path d="M 215.195312 5.1875 L 221.058594 5.1875 L 221.058594 74.800781 L 215.195312 74.800781 Z M 215.195312 5.1875 " clip-rule="nonzero"/></clipPath><clipPath id="06986f7058"><path d="M 218.957031 6.691406 C 219.933594 41.324219 219.03125 41.847656 218.433594 41.773438 C 217.910156 41.699219 217.007812 40.574219 217.085938 39.972656 C 217.085938 39.449219 218.058594 38.398438 218.582031 38.398438 C 219.109375 38.324219 220.007812 38.847656 220.382812 39.675781 C 221.207031 41.324219 219.859375 45.820312 219.859375 49.570312 C 219.859375 54.441406 221.804688 63.960938 220.683594 66.285156 C 220.234375 67.109375 219.40625 67.558594 218.882812 67.558594 C 218.359375 67.484375 217.382812 66.433594 217.382812 65.835938 C 217.382812 65.308594 218.207031 64.261719 218.808594 64.1875 C 219.332031 64.109375 220.234375 64.636719 220.605469 65.386719 C 221.355469 66.808594 221.058594 71.980469 220.382812 73.40625 C 220.007812 74.15625 219.40625 74.679688 218.882812 74.753906 C 218.359375 74.753906 217.382812 74.15625 217.007812 73.40625 C 216.484375 72.28125 216.632812 68.910156 217.234375 67.859375 C 217.609375 67.183594 218.433594 66.734375 218.957031 66.734375 C 219.558594 66.808594 220.382812 67.632812 220.53125 68.160156 C 220.683594 68.609375 220.382812 69.359375 220.082031 69.65625 C 219.707031 70.03125 218.957031 70.257812 218.507812 70.109375 C 218.058594 70.03125 217.457031 69.582031 217.308594 69.132812 C 217.085938 68.683594 217.085938 67.933594 217.382812 67.558594 C 217.757812 67.109375 218.808594 66.660156 219.332031 66.808594 C 219.859375 66.960938 220.308594 67.707031 220.53125 68.535156 C 220.90625 69.734375 220.757812 72.804688 220.234375 73.855469 C 219.933594 74.378906 219.332031 74.679688 218.882812 74.753906 C 218.507812 74.828125 218.058594 74.679688 217.757812 74.457031 C 217.382812 74.15625 217.160156 73.707031 217.007812 73.03125 C 216.632812 71.53125 216.632812 66.882812 217.382812 65.460938 C 217.832031 64.710938 218.660156 64.109375 219.183594 64.1875 C 219.707031 64.1875 220.683594 65.308594 220.683594 65.835938 C 220.683594 66.433594 219.78125 67.484375 219.257812 67.484375 C 218.734375 67.558594 217.910156 67.109375 217.457031 66.285156 C 216.109375 63.960938 216.484375 54.515625 216.484375 49.570312 C 216.558594 45.671875 216.183594 40.648438 217.234375 39.222656 C 217.757812 38.550781 218.808594 38.324219 219.332031 38.472656 C 219.859375 38.699219 220.53125 39.675781 220.457031 40.273438 C 220.382812 40.796875 219.40625 41.773438 218.882812 41.773438 C 218.285156 41.847656 217.609375 41.398438 217.160156 40.421875 C 215.285156 36.675781 214.535156 10.515625 215.960938 6.691406 C 216.257812 5.71875 216.785156 5.191406 217.234375 5.191406 C 217.757812 5.117188 218.957031 6.691406 218.957031 6.691406 " clip-rule="nonzero"/></clipPath></defs><g clip-path="url(#d23c8bf1ba)"><g clip-path="url(#46101766fc)"><path fill="#fffb47" d="M 2.773438 2.34375 L 19.191406 2.34375 L 19.191406 67.945312 L 2.773438 67.945312 Z M 2.773438 2.34375 " fill-opacity="1" fill-rule="nonzero"/></g></g><g clip-path="url(#b9e55cdf73)"><g clip-path="url(#2dcb9f9419)"><path fill="#fffb47" d="M 5.621094 1.445312 L 45.5 1.445312 L 45.5 69.828125 L 5.621094 69.828125 Z M 5.621094 1.445312 " fill-opacity="1" fill-rule="nonzero"/></g></g><g clip-path="url(#e4959c320d)"><g clip-path="url(#f1ff4b051c)"><path fill="#fffb47" d="M 44.300781 25.355469 L 75.710938 25.355469 L 75.710938 67.683594 L 44.300781 67.683594 Z M 44.300781 25.355469 " fill-opacity="1" fill-rule="nonzero"/></g></g><g clip-path="url(#37f049b551)"><g clip-path="url(#a8f9d9d21c)"><path fill="#fffb47" d="M 74.511719 27.15625 L 101.421875 27.15625 L 101.421875 68.679688 L 74.511719 68.679688 Z M 74.511719 27.15625 " fill-opacity="1" fill-rule="nonzero"/></g></g><g clip-path="url(#a9e39fbcbf)"><g clip-path="url(#f380fc2480)"><path fill="#fffb47" d="M 107.117188 4.066406 L 120.085938 4.066406 L 120.085938 64.046875 L 107.117188 64.046875 Z M 107.117188 4.066406 " fill-opacity="1" fill-rule="nonzero"/></g></g><g clip-path="url(#5471f3d5a0)"><g clip-path="url(#69f3e79dc3)"><path fill="#fffb47" d="M 109.292969 3.769531 L 131.929688 3.769531 L 131.929688 38.960938 L 109.292969 38.960938 Z M 109.292969 3.769531 " fill-opacity="1" fill-rule="nonzero"/></g></g><g clip-path="url(#077ee93039)"><g clip-path="url(#a51d1acea1)"><path fill="#fffb47" d="M 120.234375 29.855469 L 144.148438 29.855469 L 144.148438 59.277344 L 120.234375 59.277344 Z M 120.234375 29.855469 " fill-opacity="1" fill-rule="nonzero"/></g></g><g clip-path="url(#1aab3fd176)"><g clip-path="url(#74db04563b)"><path fill="#fffb47" d="M 142.199219 30.976562 L 170.910156 30.976562 L 170.910156 72.921875 L 142.199219 72.921875 Z M 142.199219 30.976562 " fill-opacity="1" fill-rule="nonzero"/></g></g><g clip-path="url(#731213a73c)"><g clip-path="url(#e4cead089d)"><path fill="#fffb47" d="M 168.511719 22.28125 L 203.964844 22.28125 L 203.964844 60.925781 L 168.511719 60.925781 Z M 168.511719 22.28125 " fill-opacity="1" fill-rule="nonzero"/></g></g><g clip-path="url(#25c6b46d56)"><g clip-path="url(#caeb81b407)"><path fill="#fffb47" d="M 108.617188 52.042969 L 120.160156 52.042969 L 120.160156 68.90625 L 108.617188 68.90625 Z M 108.617188 52.042969 " fill-opacity="1" fill-rule="nonzero"/></g></g><g clip-path="url(#11151ca02f)"><g clip-path="url(#b24fed8db9)"><path fill="#fffb47" d="M 52.847656 12.539062 L 60.417969 12.539062 L 60.417969 20.109375 L 52.847656 20.109375 Z M 52.847656 12.539062 " fill-opacity="1" fill-rule="nonzero"/></g></g><g clip-path="url(#93f1500770)"><g clip-path="url(#c5479ab7a1)"><path fill="#fffb47" d="M 77.660156 8.414062 L 85.230469 8.414062 L 85.230469 15.988281 L 77.660156 15.988281 Z M 77.660156 8.414062 " fill-opacity="1" fill-rule="nonzero"/></g></g><g clip-path="url(#b277ea54a6)"><g clip-path="url(#29eac5a1bc)"><path fill="#fffb47" d="M 87.777344 14.710938 L 95.125 14.710938 L 95.125 22.144531 L 87.777344 22.144531 Z M 87.777344 14.710938 " fill-opacity="1" fill-rule="nonzero"/></g></g><g clip-path="url(#2c7d00c85d)"><g clip-path="url(#f80905d3a0)"><path fill="#fffb47" d="M 161.390625 9.613281 L 168.960938 9.613281 L 168.960938 17.1875 L 161.390625 17.1875 Z M 161.390625 9.613281 " fill-opacity="1" fill-rule="nonzero"/></g></g><g clip-path="url(#4593b2e0a2)"><g clip-path="url(#fa4c19dc8b)"><path fill="#fffb47" d="M 203.964844 9.316406 L 211.535156 9.316406 L 211.535156 16.886719 L 203.964844 16.886719 Z M 203.964844 9.316406 " fill-opacity="1" fill-rule="nonzero"/></g></g><g clip-path="url(#7f0a81753e)"><g clip-path="url(#cbc5d3748c)"><path fill="#fffb47" d="M 208.238281 33.300781 L 215.808594 33.300781 L 215.808594 40.875 L 208.238281 40.875 Z M 208.238281 33.300781 " fill-opacity="1" fill-rule="nonzero"/></g></g><g clip-path="url(#f6702b05f1)"><g clip-path="url(#159eaae17e)"><path fill="#fffb47" d="M 198.945312 60.136719 L 206.515625 60.136719 L 206.515625 67.707031 L 198.945312 67.707031 Z M 198.945312 60.136719 " fill-opacity="1" fill-rule="nonzero"/></g></g><g clip-path="url(#4774035b7f)"><g clip-path="url(#e094baebd9)"><path fill="#fffb47" d="M 169.710938 58.640625 L 177.121094 58.640625 L 177.121094 65.910156 L 169.710938 65.910156 Z M 169.710938 58.640625 " fill-opacity="1" fill-rule="nonzero"/></g></g><g clip-path="url(#4469d00e45)"><g clip-path="url(#3fc163540f)"><path fill="#fffb47" d="M 166.1875 24.007812 L 173.757812 24.007812 L 173.757812 31.578125 L 166.1875 31.578125 Z M 166.1875 24.007812 " fill-opacity="1" fill-rule="nonzero"/></g></g><g clip-path="url(#c86ef3a56a)"><g clip-path="url(#294a99f569)"><path fill="#fffb47" d="M 142.050781 7.964844 L 149.46875 7.964844 L 149.46875 15.386719 L 142.050781 15.386719 Z M 142.050781 7.964844 " fill-opacity="1" fill-rule="nonzero"/></g></g><g clip-path="url(#682ea4417d)"><g clip-path="url(#dd92f33ec5)"><path fill="#fffb47" d="M 92.875 4.144531 L 100.445312 4.144531 L 100.445312 11.714844 L 92.875 11.714844 Z M 92.875 4.144531 " fill-opacity="1" fill-rule="nonzero"/></g></g><g clip-path="url(#aae43f4913)"><g clip-path="url(#017bdc1055)"><path fill="#fffb47" d="M 44.527344 -1.253906 L 51.9375 -1.253906 L 51.9375 6.015625 L 44.527344 6.015625 Z M 44.527344 -1.253906 " fill-opacity="1" fill-rule="nonzero"/></g></g><g clip-path="url(#d5d431da65)"><g clip-path="url(#635e44c871)"><path fill="#fffb47" d="M 2.097656 2.269531 L 9.511719 2.269531 L 9.511719 9.539062 L 2.097656 9.539062 Z M 2.097656 2.269531 " fill-opacity="1" fill-rule="nonzero"/></g></g><g clip-path="url(#90125310c2)"><g clip-path="url(#56472ad8ff)"><path fill="#fffb47" d="M 38.828125 60.585938 L 46.25 60.585938 L 46.25 68.007812 L 38.828125 68.007812 Z M 38.828125 60.585938 " fill-opacity="1" fill-rule="nonzero"/></g></g><g clip-path="url(#af2391a06c)"><g clip-path="url(#4f537a5655)"><path fill="#fffb47" d="M 39.054688 41.621094 L 46.46875 41.621094 L 46.46875 48.894531 L 39.054688 48.894531 Z M 39.054688 41.621094 " fill-opacity="1" fill-rule="nonzero"/></g></g><g clip-path="url(#757f5a562b)"><g clip-path="url(#36ff4e7b59)"><path fill="#fffb47" d="M 47.300781 18.761719 L 54.710938 18.761719 L 54.710938 26.03125 L 47.300781 26.03125 Z M 47.300781 18.761719 " fill-opacity="1" fill-rule="nonzero"/></g></g><g clip-path="url(#388cdef010)"><g clip-path="url(#350c166373)"><path fill="#fffb47" d="M 39.804688 5.117188 L 47.21875 5.117188 L 47.21875 12.386719 L 39.804688 12.386719 Z M 39.804688 5.117188 " fill-opacity="1" fill-rule="nonzero"/></g></g><g clip-path="url(#423faa55ed)"><g clip-path="url(#1613d422bf)"><path fill="#fffb47" d="M 0.148438 66.058594 L 7.722656 66.058594 L 7.722656 73.628906 L 0.148438 73.628906 Z M 0.148438 66.058594 " fill-opacity="1" fill-rule="nonzero"/></g></g><g clip-path="url(#4971c37155)"><g clip-path="url(#005e73ee5d)"><path fill="#fffb47" d="M -0.898438 34.875 L 6.671875 34.875 L 6.671875 42.449219 L -0.898438 42.449219 Z M -0.898438 34.875 " fill-opacity="1" fill-rule="nonzero"/></g></g><g clip-path="url(#8bb2b503f6)"><g clip-path="url(#6202a105c0)"><path fill="#fffb47" d="M -0.300781 18.085938 L 7.269531 18.085938 L 7.269531 25.65625 L -0.300781 25.65625 Z M -0.300781 18.085938 " fill-opacity="1" fill-rule="nonzero"/></g></g><g clip-path="url(#c7be27e9be)"><g clip-path="url(#5300a95802)"><path fill="#fffb47" d="M -2.097656 51.367188 L 5.472656 51.367188 L 5.472656 58.9375 L -2.097656 58.9375 Z M -2.097656 51.367188 " fill-opacity="1" fill-rule="nonzero"/></g></g><g clip-path="url(#e2e8951fb4)"><g clip-path="url(#547b771528)"><path fill="#fffb47" d="M 74.808594 64.109375 L 82.242188 64.109375 L 82.242188 71.457031 L 74.808594 71.457031 Z M 74.808594 64.109375 " fill-opacity="1" fill-rule="nonzero"/></g></g><g clip-path="url(#78ec177d35)"><g clip-path="url(#7da8f7ce0f)"><path fill="#fffb47" d="M 68.738281 46.796875 L 76.085938 46.796875 L 76.085938 54.226562 L 68.738281 54.226562 Z M 68.738281 46.796875 " fill-opacity="1" fill-rule="nonzero"/></g></g><g clip-path="url(#c691984564)"><g clip-path="url(#b3a37e850b)"><path fill="#fffb47" d="M 92.800781 47.996094 L 100.371094 47.996094 L 100.371094 55.566406 L 92.800781 55.566406 Z M 92.800781 47.996094 " fill-opacity="1" fill-rule="nonzero"/></g></g><g clip-path="url(#5560c7c9db)"><g clip-path="url(#0442cb85b0)"><path fill="#fffb47" d="M 97.824219 30.152344 L 105.253906 30.152344 L 105.253906 37.5 L 97.824219 37.5 Z M 97.824219 30.152344 " fill-opacity="1" fill-rule="nonzero"/></g></g><g clip-path="url(#b3a4ee1d45)"><g clip-path="url(#ae0fb60443)"><path fill="#fffb47" d="M 100.148438 20.558594 L 107.558594 20.558594 L 107.558594 27.832031 L 100.148438 27.832031 Z M 100.148438 20.558594 " fill-opacity="1" fill-rule="nonzero"/></g></g><g clip-path="url(#b6323da754)"><g clip-path="url(#011fa9108d)"><path fill="#fffb47" d="M 72.710938 18.160156 L 80.125 18.160156 L 80.125 25.429688 L 72.710938 25.429688 Z M 72.710938 18.160156 " fill-opacity="1" fill-rule="nonzero"/></g></g><g clip-path="url(#acfa594b08)"><g clip-path="url(#113d04232e)"><path fill="#fffb47" d="M 64.164062 2.570312 L 71.578125 2.570312 L 71.578125 9.839844 L 64.164062 9.839844 Z M 64.164062 2.570312 " fill-opacity="1" fill-rule="nonzero"/></g></g><g clip-path="url(#7b7a4b5023)"><g clip-path="url(#c6f7403796)"><path fill="#fffb47" d="M 129.007812 0.167969 L 136.578125 0.167969 L 136.578125 7.742188 L 129.007812 7.742188 Z M 129.007812 0.167969 " fill-opacity="1" fill-rule="nonzero"/></g></g><g clip-path="url(#111e603171)"><g clip-path="url(#be5673ad28)"><path fill="#fffb47" d="M 100.820312 0.84375 L 108.390625 0.84375 L 108.390625 8.414062 L 100.820312 8.414062 Z M 100.820312 0.84375 " fill-opacity="1" fill-rule="nonzero"/></g></g><g clip-path="url(#717e4b79cd)"><g clip-path="url(#67640edf82)"><path fill="#fffb47" d="M 163.789062 0.84375 L 171.199219 0.84375 L 171.199219 8.117188 L 163.789062 8.117188 Z M 163.789062 0.84375 " fill-opacity="1" fill-rule="nonzero"/></g></g><g clip-path="url(#626a568280)"><g clip-path="url(#95e0ca881d)"><path fill="#fffb47" d="M 144.222656 20.257812 L 151.71875 20.257812 L 151.71875 27.84375 L 144.222656 27.84375 Z M 144.222656 20.257812 " fill-opacity="1" fill-rule="nonzero"/></g></g><g clip-path="url(#fda27ca2df)"><g clip-path="url(#46eee95464)"><path fill="#fffb47" d="M 134.777344 17.109375 L 142.191406 17.109375 L 142.191406 24.382812 L 134.777344 24.382812 Z M 134.777344 17.109375 " fill-opacity="1" fill-rule="nonzero"/></g></g><g clip-path="url(#255dcd79ff)"><g clip-path="url(#423531b4d5)"><path fill="#fffb47" d="M 129.605469 24.007812 L 137.101562 24.007812 L 137.101562 31.503906 L 129.605469 31.503906 Z M 129.605469 24.007812 " fill-opacity="1" fill-rule="nonzero"/></g></g><g clip-path="url(#09aa1b67d0)"><g clip-path="url(#13b42f49e7)"><path fill="#fffb47" d="M 149.394531 2.417969 L 156.808594 2.417969 L 156.808594 9.691406 L 149.394531 9.691406 Z M 149.394531 2.417969 " fill-opacity="1" fill-rule="nonzero"/></g></g><g clip-path="url(#e54a2fa43c)"><g clip-path="url(#fea6ece991)"><path fill="#fffb47" d="M 179.15625 2.644531 L 186.738281 2.644531 L 186.738281 10.140625 L 179.15625 10.140625 Z M 179.15625 2.644531 " fill-opacity="1" fill-rule="nonzero"/></g></g><g clip-path="url(#9b607f947f)"><g clip-path="url(#b2cc6d4b7b)"><path fill="#fffb47" d="M 185.976562 13.289062 L 193.320312 13.289062 L 193.320312 20.71875 L 185.976562 20.71875 Z M 185.976562 13.289062 " fill-opacity="1" fill-rule="nonzero"/></g></g><g clip-path="url(#c40ce22b84)"><g clip-path="url(#2adcba3f75)"><path fill="#fffb47" d="M 199.695312 17.335938 L 207.203125 17.335938 L 207.203125 24.757812 L 199.695312 24.757812 Z M 199.695312 17.335938 " fill-opacity="1" fill-rule="nonzero"/></g></g><g clip-path="url(#d94c126446)"><g clip-path="url(#5c5d32f374)"><path fill="#fffb47" d="M 215.734375 1.144531 L 223.304688 1.144531 L 223.304688 8.714844 L 215.734375 8.714844 Z M 215.734375 1.144531 " fill-opacity="1" fill-rule="nonzero"/></g></g><g clip-path="url(#daaeacb36c)"><g clip-path="url(#3aa59c0c22)"><path fill="#fffb47" d="M 193.996094 1.070312 L 201.582031 1.070312 L 201.582031 8.566406 L 193.996094 8.566406 Z M 193.996094 1.070312 " fill-opacity="1" fill-rule="nonzero"/></g></g><g clip-path="url(#b63c7029b8)"><g clip-path="url(#b52d19aae2)"><path fill="#fffb47" d="M 215.285156 17.410156 L 222.699219 17.410156 L 222.699219 24.683594 L 215.285156 24.683594 Z M 215.285156 17.410156 " fill-opacity="1" fill-rule="nonzero"/></g></g><g clip-path="url(#80aba04d6c)"><g clip-path="url(#65b8ef4ccb)"><path fill="#fffb47" d="M 212.660156 45.671875 L 220.234375 45.671875 L 220.234375 53.242188 L 212.660156 53.242188 Z M 212.660156 45.671875 " fill-opacity="1" fill-rule="nonzero"/></g></g><g clip-path="url(#c40aa278ca)"><g clip-path="url(#022872e9e2)"><path fill="#fffb47" d="M 199.84375 35.25 L 207.414062 35.25 L 207.414062 42.820312 L 199.84375 42.820312 Z M 199.84375 35.25 " fill-opacity="1" fill-rule="nonzero"/></g></g><g clip-path="url(#e4ca34817a)"><g clip-path="url(#dc817a432a)"><path fill="#fffb47" d="M 213.109375 58.339844 L 220.457031 58.339844 L 220.457031 65.769531 L 213.109375 65.769531 Z M 213.109375 58.339844 " fill-opacity="1" fill-rule="nonzero"/></g></g><g clip-path="url(#f54f8fc190)"><g clip-path="url(#74a1f04318)"><path fill="#fffb47" d="M 213.410156 69.132812 L 220.824219 69.132812 L 220.824219 76.402344 L 213.410156 76.402344 Z M 213.410156 69.132812 " fill-opacity="1" fill-rule="nonzero"/></g></g><g clip-path="url(#35e91c9d2b)"><g clip-path="url(#216267a0ec)"><path fill="#fffb47" d="M 207.863281 53.316406 L 215.433594 53.316406 L 215.433594 60.886719 L 207.863281 60.886719 Z M 207.863281 53.316406 " fill-opacity="1" fill-rule="nonzero"/></g></g><g clip-path="url(#97d7ca918c)"><g clip-path="url(#b00f9b09c8)"><path fill="#fffb47" d="M 184.625 61.5625 L 192.058594 61.5625 L 192.058594 68.910156 L 184.625 68.910156 Z M 184.625 61.5625 " fill-opacity="1" fill-rule="nonzero"/></g></g><g clip-path="url(#39b9d22243)"><g clip-path="url(#f47d62def7)"><path fill="#fffb47" d="M 164.085938 66.058594 L 171.5 66.058594 L 171.5 73.332031 L 164.085938 73.332031 Z M 164.085938 66.058594 " fill-opacity="1" fill-rule="nonzero"/></g></g><g clip-path="url(#e94531db28)"><g clip-path="url(#c1c6e203c2)"><path fill="#fffb47" d="M 131.703125 62.3125 L 139.117188 62.3125 L 139.117188 69.582031 L 131.703125 69.582031 Z M 131.703125 62.3125 " fill-opacity="1" fill-rule="nonzero"/></g></g><g clip-path="url(#6cb619230e)"><g clip-path="url(#f22acbef86)"><path fill="#fffb47" d="M 116.9375 48.742188 L 124.351562 48.742188 L 124.351562 56.015625 L 116.9375 56.015625 Z M 116.9375 48.742188 " fill-opacity="1" fill-rule="nonzero"/></g></g><g clip-path="url(#90855afde6)"><g clip-path="url(#b600e849a1)"><path fill="#fffb47" d="M 116.113281 36.449219 L 123.527344 36.449219 L 123.527344 43.722656 L 116.113281 43.722656 Z M 116.113281 36.449219 " fill-opacity="1" fill-rule="nonzero"/></g></g><g clip-path="url(#f4b7153e41)"><g clip-path="url(#e5ec8c948b)"><path fill="#fffb47" d="M 142.949219 49.867188 L 150.292969 49.867188 L 150.292969 57.300781 L 142.949219 57.300781 Z M 142.949219 49.867188 " fill-opacity="1" fill-rule="nonzero"/></g></g><g clip-path="url(#af8c42cfb9)"><g clip-path="url(#62baf3144d)"><path fill="#fffb47" d="M 139.125 31.953125 L 146.621094 31.953125 L 146.621094 39.449219 L 139.125 39.449219 Z M 139.125 31.953125 " fill-opacity="1" fill-rule="nonzero"/></g></g><g clip-path="url(#8890ec9892)"><g clip-path="url(#57283e217d)"><path fill="#fffb47" d="M 155.917969 20.707031 L 163.488281 20.707031 L 163.488281 28.28125 L 155.917969 28.28125 Z M 155.917969 20.707031 " fill-opacity="1" fill-rule="nonzero"/></g></g><g clip-path="url(#cfb2dc018c)"><g clip-path="url(#3add58a40c)"><path fill="#fffb47" d="M 160.714844 34.125 L 168.128906 34.125 L 168.128906 41.398438 L 160.714844 41.398438 Z M 160.714844 34.125 " fill-opacity="1" fill-rule="nonzero"/></g></g><g clip-path="url(#772f224fa4)"><g clip-path="url(#7bfc31eabe)"><path fill="#fffb47" d="M 171.660156 15.613281 L 179.070312 15.613281 L 179.070312 22.882812 L 171.660156 22.882812 Z M 171.660156 15.613281 " fill-opacity="1" fill-rule="nonzero"/></g></g><g clip-path="url(#687ac2f0cf)"><g clip-path="url(#96b8a2bfc0)"><path fill="#fffb47" d="M 123.460938 59.238281 L 131.03125 59.238281 L 131.03125 66.808594 L 123.460938 66.808594 Z M 123.460938 59.238281 " fill-opacity="1" fill-rule="nonzero"/></g></g><g clip-path="url(#19a31e54e4)"><g clip-path="url(#8600fd04c9)"><path fill="#fffb47" d="M 94.449219 57.515625 L 102.019531 57.515625 L 102.019531 65.085938 L 94.449219 65.085938 Z M 94.449219 57.515625 " fill-opacity="1" fill-rule="nonzero"/></g></g><g clip-path="url(#b8166a5c71)"><g clip-path="url(#34a4933f9b)"><path fill="#fffb47" d="M 100.519531 39.222656 L 107.933594 39.222656 L 107.933594 46.496094 L 100.519531 46.496094 Z M 100.519531 39.222656 " fill-opacity="1" fill-rule="nonzero"/></g></g><g clip-path="url(#228a7ed420)"><g clip-path="url(#1fd554e6c4)"><path fill="#fffb47" d="M 102.246094 60.289062 L 109.816406 60.289062 L 109.816406 67.859375 L 102.246094 67.859375 Z M 102.246094 60.289062 " fill-opacity="1" fill-rule="nonzero"/></g></g><g clip-path="url(#b517f3768d)"><g clip-path="url(#146c061a0e)"><path fill="#fffb47" d="M 91.527344 65.683594 L 98.9375 65.683594 L 98.9375 72.957031 L 91.527344 72.957031 Z M 91.527344 65.683594 " fill-opacity="1" fill-rule="nonzero"/></g></g><g clip-path="url(#418f275473)"><g clip-path="url(#f78c519a85)"><path fill="#fffb47" d="M 56.519531 64.933594 L 64.105469 64.933594 L 64.105469 72.429688 L 56.519531 72.429688 Z M 56.519531 64.933594 " fill-opacity="1" fill-rule="nonzero"/></g></g><g clip-path="url(#177f6af985)"><g clip-path="url(#fd31dd1b00)"><path fill="#fffb47" d="M 44.453125 54.441406 L 52.023438 54.441406 L 52.023438 62.011719 L 44.453125 62.011719 Z M 44.453125 54.441406 " fill-opacity="1" fill-rule="nonzero"/></g></g><g clip-path="url(#936c164a81)"><g clip-path="url(#2376ab195b)"><path fill="#fffb47" d="M 38.980469 51.144531 L 46.390625 51.144531 L 46.390625 58.414062 L 38.980469 58.414062 Z M 38.980469 51.144531 " fill-opacity="1" fill-rule="nonzero"/></g></g><g clip-path="url(#9664a22570)"><g clip-path="url(#da77406086)"><path fill="#fffb47" d="M 31.332031 57.964844 L 38.902344 57.964844 L 38.902344 65.535156 L 31.332031 65.535156 Z M 31.332031 57.964844 " fill-opacity="1" fill-rule="nonzero"/></g></g><g clip-path="url(#fcc5426992)"><g clip-path="url(#779f0328ae)"><path fill="#fffb47" d="M 23.988281 65.308594 L 31.398438 65.308594 L 31.398438 72.582031 L 23.988281 72.582031 Z M 23.988281 65.308594 " fill-opacity="1" fill-rule="nonzero"/></g></g><g clip-path="url(#f8cb3811f4)"><g clip-path="url(#d1a701ffeb)"><path fill="#fffb47" d="M 45.5 64.859375 L 52.921875 64.859375 L 52.921875 72.367188 L 45.5 72.367188 Z M 45.5 64.859375 " fill-opacity="1" fill-rule="nonzero"/></g></g><g clip-path="url(#43183636e2)"><g clip-path="url(#dc7c65f925)"><path fill="#fffb47" d="M 63.566406 15.835938 L 71 15.835938 L 71 23.183594 L 63.566406 23.183594 Z M 63.566406 15.835938 " fill-opacity="1" fill-rule="nonzero"/></g></g><g clip-path="url(#655da821a1)"><g clip-path="url(#5cf979a998)"><path fill="#fffb47" d="M 68.738281 9.691406 L 76.171875 9.691406 L 76.171875 17.035156 L 68.738281 17.035156 Z M 68.738281 9.691406 " fill-opacity="1" fill-rule="nonzero"/></g></g><g clip-path="url(#471e1c7aff)"><g clip-path="url(#a7553be379)"><path fill="#fffb47" d="M 82.382812 0.167969 L 89.726562 0.167969 L 89.726562 7.601562 L 82.382812 7.601562 Z M 82.382812 0.167969 " fill-opacity="1" fill-rule="nonzero"/></g></g><g clip-path="url(#60a2ba02f1)"><g clip-path="url(#8bf98478e9)"><path fill="#fffb47" d="M 117.988281 68.082031 L 125.398438 68.082031 L 125.398438 75.355469 L 117.988281 75.355469 Z M 117.988281 68.082031 " fill-opacity="1" fill-rule="nonzero"/></g></g><g clip-path="url(#818caea124)"><g clip-path="url(#06bcbe99fb)"><path fill="#fffb47" d="M 165.585938 51.667969 L 173 51.667969 L 173 58.9375 L 165.585938 58.9375 Z M 165.585938 51.667969 " fill-opacity="1" fill-rule="nonzero"/></g></g><g clip-path="url(#ebcd9e371a)"><g clip-path="url(#699c60c939)"><path fill="#fffb47" d="M 196.320312 64.785156 L 203.828125 64.785156 L 203.828125 72.207031 L 196.320312 72.207031 Z M 196.320312 64.785156 " fill-opacity="1" fill-rule="nonzero"/></g></g><g clip-path="url(#5cd1937379)"><g clip-path="url(#aee5e7f93d)"><path fill="#fffb47" d="M 208.089844 21.910156 L 215.433594 21.910156 L 215.433594 29.339844 L 208.089844 29.339844 Z M 208.089844 21.910156 " fill-opacity="1" fill-rule="nonzero"/></g></g><g clip-path="url(#37d001130f)"><g clip-path="url(#92129d7a05)"><path fill="#fffb47" d="M 115.589844 -0.878906 L 123.019531 -0.878906 L 123.019531 6.464844 L 115.589844 6.464844 Z M 115.589844 -0.878906 " fill-opacity="1" fill-rule="nonzero"/></g></g><g clip-path="url(#2a9130ad78)"><g clip-path="url(#a0d4c6574f)"><path fill="#1e1e1e" d="M -2.847656 -4.179688 L 228.875 -4.179688 L 228.875 7.964844 L -2.847656 7.964844 Z M -2.847656 -4.179688 " fill-opacity="1" fill-rule="nonzero"/></g></g><g clip-path="url(#08a8f95ffc)"><g clip-path="url(#30869d46ba)"><path fill="#1e1e1e" d="M 217.308594 0.246094 L 227.652344 0.246094 L 227.652344 77.910156 L 217.308594 77.910156 Z M 217.308594 0.246094 " fill-opacity="1" fill-rule="nonzero"/></g></g><g clip-path="url(#f86e08c07c)"><g clip-path="url(#16da2e2d46)"><path fill="#1e1e1e" d="M 218.582031 0.320312 L 229.003906 0.320312 L 229.003906 79.769531 L 218.582031 79.769531 Z M 218.582031 0.320312 " fill-opacity="1" fill-rule="nonzero"/></g></g><g clip-path="url(#f6ec80686d)"><g clip-path="url(#76177c44ee)"><rect x="-22.487999" width="269.855988" fill="#1e1e1e" y="-7.5" height="89.999996" fill-opacity="1"/></g></g><g clip-path="url(#28ea1f2237)"><g clip-path="url(#06986f7058)"><path fill="#1e1e1e" d="M 212.960938 2.195312 L 223.753906 2.195312 L 223.753906 77.753906 L 212.960938 77.753906 Z M 212.960938 2.195312 " fill-opacity="1" fill-rule="nonzero"/></g></g></svg>