<svg xmlns="http://www.w3.org/2000/svg" xmlns:xlink="http://www.w3.org/1999/xlink" width="300" zoomAndPan="magnify" viewBox="0 0 224.87999 74.999997" height="100" preserveAspectRatio="xMidYMid meet" version="1.0"><defs><clipPath id="e30e95a389"><path d="M 43.53125 5.4375 L 72.164062 5.4375 L 72.164062 56.824219 L 43.53125 56.824219 Z M 43.53125 5.4375 " clip-rule="nonzero"/></clipPath><clipPath id="451c01d6d3"><path d="M 60.492188 35.324219 C 51.722656 36.226562 50.222656 37.574219 49.546875 38.699219 C 49.023438 39.597656 49.023438 40.421875 48.949219 41.621094 C 48.722656 43.648438 47.75 48.144531 49.097656 49.792969 C 50.375 51.367188 54.722656 51.742188 56.445312 51.441406 C 57.496094 51.292969 58.242188 50.769531 58.84375 49.941406 C 59.742188 48.820312 60.042969 47.09375 60.417969 44.996094 C 61.09375 41.546875 60.492188 33.453125 61.316406 31.277344 C 61.617188 30.527344 61.917969 30.152344 62.367188 29.855469 C 62.816406 29.554688 63.566406 29.40625 64.089844 29.554688 C 64.617188 29.628906 65.289062 30.003906 65.589844 30.378906 C 65.964844 30.828125 66.414062 31.726562 66.191406 32.101562 C 65.738281 32.628906 61.542969 32.476562 61.167969 31.878906 C 60.941406 31.503906 61.46875 30.605469 61.917969 30.230469 C 62.367188 29.777344 63.417969 29.480469 64.089844 29.554688 C 64.691406 29.554688 65.289062 30.003906 65.589844 30.453125 C 65.964844 30.828125 66.414062 31.726562 66.191406 32.101562 C 65.738281 32.628906 62.140625 33.003906 61.167969 31.878906 C 59.59375 29.929688 63.339844 20.335938 63.640625 15.910156 C 63.867188 12.761719 63.191406 9.464844 63.492188 7.816406 C 63.714844 7.066406 63.941406 6.617188 64.316406 6.167969 C 64.765625 5.792969 65.441406 5.492188 66.039062 5.492188 C 66.566406 5.492188 67.3125 5.71875 67.765625 6.089844 C 68.214844 6.464844 68.4375 6.839844 68.664062 7.664062 C 69.261719 10.214844 68.214844 20.183594 67.914062 24.007812 C 67.765625 26.03125 68.136719 28.128906 67.3125 28.804688 C 66.640625 29.40625 64.691406 28.429688 64.089844 28.730469 C 63.789062 28.878906 63.566406 29.40625 63.492188 29.40625 C 63.417969 29.328125 63.789062 28.128906 64.164062 27.679688 C 64.539062 27.304688 65.140625 26.929688 65.738281 26.855469 C 66.265625 26.78125 67.015625 26.929688 67.464844 27.304688 C 67.914062 27.605469 68.289062 27.90625 68.511719 28.730469 C 69.1875 31.277344 65.664062 41.324219 66.789062 45.820312 C 67.613281 49.195312 72.1875 52.042969 72.035156 53.992188 C 72.035156 55.039062 70.835938 56.089844 70.085938 56.390625 C 69.339844 56.613281 68.214844 56.164062 67.6875 55.714844 C 67.3125 55.414062 67.015625 54.816406 66.9375 54.292969 C 66.863281 53.617188 67.164062 52.492188 67.6875 51.96875 C 68.214844 51.441406 69.339844 51.144531 70.011719 51.292969 C 70.6875 51.441406 71.585938 52.191406 71.886719 52.867188 C 72.1875 53.542969 72.035156 54.664062 71.660156 55.265625 C 71.210938 55.863281 70.164062 56.390625 69.488281 56.464844 C 68.964844 56.464844 68.511719 56.316406 67.914062 55.941406 C 66.789062 55.191406 64.914062 53.242188 63.867188 51.742188 C 62.964844 50.316406 62.140625 49.195312 61.84375 47.019531 C 61.167969 42.898438 62.515625 30.679688 63.789062 28.203125 C 64.164062 27.457031 64.617188 27.230469 65.140625 27.003906 C 65.664062 26.78125 66.414062 26.707031 66.9375 27.003906 C 67.613281 27.304688 68.738281 28.578125 68.589844 29.328125 C 68.4375 30.230469 66.039062 31.953125 64.992188 31.878906 C 64.089844 31.804688 63.191406 31.128906 62.667969 29.929688 C 61.242188 26.707031 62.441406 11.1875 63.492188 7.816406 C 63.867188 6.765625 64.242188 6.167969 64.839844 5.867188 C 65.441406 5.492188 66.566406 5.492188 67.238281 5.792969 C 67.839844 6.089844 68.363281 6.839844 68.664062 7.664062 C 69.039062 9.015625 68.886719 10.738281 68.738281 12.988281 C 68.589844 16.960938 67.464844 26.179688 66.863281 29.328125 C 66.640625 30.605469 66.863281 31.503906 66.191406 32.027344 C 65.289062 32.703125 61.542969 32.328125 61.167969 31.878906 C 61.09375 31.726562 61.167969 31.503906 61.316406 31.277344 C 61.46875 30.902344 61.917969 30.152344 62.367188 29.855469 C 62.816406 29.554688 63.566406 29.40625 64.089844 29.554688 C 64.617188 29.628906 65.289062 30.003906 65.589844 30.453125 C 65.964844 30.828125 66.414062 31.726562 66.191406 32.101562 C 65.738281 32.628906 61.542969 32.476562 61.167969 31.878906 C 60.941406 31.503906 61.542969 30.605469 61.917969 30.230469 C 62.292969 29.855469 62.964844 29.554688 63.492188 29.480469 C 64.015625 29.480469 64.765625 29.628906 65.214844 30.003906 C 65.589844 30.304688 65.890625 30.679688 66.113281 31.503906 C 66.714844 33.753906 66.113281 42.148438 65.515625 45.894531 C 65.066406 48.445312 64.539062 50.542969 63.640625 52.117188 C 63.042969 53.242188 62.367188 53.917969 61.316406 54.664062 C 60.042969 55.492188 58.167969 56.464844 56.519531 56.691406 C 54.796875 56.914062 52.847656 56.464844 51.199219 56.015625 C 49.546875 55.640625 47.75 54.890625 46.625 54.066406 C 45.726562 53.464844 44.976562 52.867188 44.527344 52.042969 C 44.078125 51.292969 44 50.691406 43.851562 49.570312 C 43.625 47.167969 43.25 41.097656 44.078125 38.324219 C 44.675781 36.527344 45.652344 35.402344 46.699219 34.277344 C 47.75 33.152344 49.25 32.253906 50.449219 31.652344 C 51.421875 31.203125 52.097656 30.976562 53.371094 30.828125 C 55.394531 30.527344 60.117188 30.304688 61.542969 30.976562 C 62.214844 31.277344 62.441406 31.726562 62.667969 32.253906 C 62.816406 32.703125 62.890625 33.378906 62.667969 33.828125 C 62.292969 34.5 60.492188 35.324219 60.492188 35.324219 " clip-rule="nonzero"/></clipPath><clipPath id="f6c038fa66"><path d="M 80.757812 17.441406 L 115.027344 17.441406 L 115.027344 58.566406 L 80.757812 58.566406 Z M 80.757812 17.441406 " clip-rule="nonzero"/></clipPath><clipPath id="0df6e58a1e"><path d="M 88.527344 31.804688 C 97.523438 30.976562 99.996094 30.078125 100.148438 29.03125 C 100.371094 27.90625 98.421875 26.03125 97.074219 24.980469 C 95.722656 23.78125 93.699219 22.058594 92.050781 22.359375 C 90.101562 22.65625 87.328125 25.65625 86.277344 28.203125 C 85.15625 31.054688 85.304688 35.699219 86.203125 39 C 87.101562 42.148438 89.878906 45.296875 91.601562 47.46875 C 92.800781 49.117188 93.851562 50.242188 95.199219 51.292969 C 96.472656 52.265625 97.671875 53.390625 99.546875 53.542969 C 102.695312 53.765625 110.566406 48.96875 112.738281 49.042969 C 113.488281 49.042969 113.863281 49.269531 114.164062 49.71875 C 114.613281 50.167969 115.136719 51.21875 114.988281 51.890625 C 114.765625 52.71875 113.5625 53.992188 112.816406 54.066406 C 111.988281 54.140625 110.492188 53.242188 110.117188 52.492188 C 109.816406 51.890625 109.964844 50.691406 110.417969 50.167969 C 110.867188 49.492188 112.515625 48.96875 113.265625 49.117188 C 113.9375 49.34375 114.765625 50.167969 114.914062 50.84375 C 115.0625 51.667969 114.765625 52.792969 113.789062 53.691406 C 111.765625 55.640625 103.144531 58.789062 99.097656 58.488281 C 96.25 58.339844 93.851562 56.539062 91.824219 55.039062 C 90.027344 53.765625 88.828125 52.265625 87.476562 50.542969 C 85.753906 48.519531 83.730469 45.671875 82.605469 43.421875 C 81.78125 41.773438 81.40625 40.722656 81.105469 38.773438 C 80.65625 35.699219 80.582031 29.855469 81.554688 26.929688 C 82.230469 25.054688 83.28125 24.007812 84.703125 22.65625 C 86.429688 20.859375 89.800781 18.085938 91.75 17.636719 C 93.023438 17.410156 93.851562 17.859375 94.972656 18.234375 C 96.546875 18.835938 98.871094 20.109375 100.296875 21.160156 C 101.421875 21.984375 102.246094 22.808594 102.996094 23.78125 C 103.667969 24.757812 104.34375 25.730469 104.570312 26.929688 C 104.792969 28.429688 104.867188 30.753906 103.894531 32.253906 C 102.621094 34.050781 99.398438 35.476562 96.773438 36.152344 C 93.925781 36.824219 88.976562 36.898438 87.402344 36.152344 C 86.804688 35.925781 86.503906 35.476562 86.355469 34.953125 C 86.203125 34.5 86.128906 33.828125 86.355469 33.300781 C 86.652344 32.703125 88.527344 31.804688 88.527344 31.804688 " clip-rule="nonzero"/></clipPath><clipPath id="38771bdab6"><path d="M 126.351562 20.804688 L 145.75 20.804688 L 145.75 51.980469 L 126.351562 51.980469 Z M 126.351562 20.804688 " clip-rule="nonzero"/></clipPath><clipPath id="3bf151b82e"><path d="M 130.878906 22.65625 C 133.054688 30.605469 135.304688 35.027344 137.476562 38.550781 C 139.800781 42.074219 145.121094 46.421875 145.574219 48.820312 C 145.722656 49.867188 145.199219 50.992188 144.746094 51.441406 C 144.371094 51.816406 143.773438 51.890625 143.324219 51.890625 C 142.722656 51.816406 141.75 51.367188 141.449219 50.769531 C 141.074219 50.242188 141 49.269531 141.300781 48.667969 C 141.523438 48.070312 142.347656 47.394531 142.949219 47.320312 C 143.625 47.167969 144.597656 47.542969 145.046875 47.917969 C 145.421875 48.292969 145.648438 48.742188 145.648438 49.269531 C 145.722656 49.867188 145.421875 50.917969 144.898438 51.292969 C 144.296875 51.742188 143.171875 51.96875 142.125 51.515625 C 139.652344 50.394531 134.929688 42.898438 132.527344 39.074219 C 130.730469 36.300781 129.53125 33.828125 128.554688 31.203125 C 127.507812 28.65625 126.457031 25.132812 126.382812 23.558594 C 126.382812 22.808594 126.382812 22.433594 126.683594 21.984375 C 126.90625 21.535156 127.433594 21.082031 127.882812 20.933594 C 128.40625 20.785156 129.082031 20.785156 129.53125 21.007812 C 130.054688 21.308594 130.878906 22.65625 130.878906 22.65625 " clip-rule="nonzero"/></clipPath><clipPath id="85e359e211"><path d="M 126.277344 21 L 150 21 L 150 56.367188 L 126.277344 56.367188 Z M 126.277344 21 " clip-rule="nonzero"/></clipPath><clipPath id="72e80a259a"><path d="M 126.382812 53.089844 C 146.921875 21.082031 147.519531 21.007812 148.121094 21.082031 C 148.644531 21.160156 149.171875 21.457031 149.394531 21.910156 C 149.769531 22.433594 149.996094 24.007812 149.621094 24.683594 C 149.246094 25.207031 148.269531 25.65625 147.671875 25.730469 C 147.222656 25.730469 146.621094 25.507812 146.246094 25.207031 C 145.871094 24.980469 145.496094 24.53125 145.421875 24.007812 C 145.347656 23.40625 145.421875 22.359375 145.871094 21.910156 C 146.398438 21.382812 147.972656 20.933594 148.644531 21.308594 C 149.320312 21.609375 149.996094 22.65625 149.996094 23.78125 C 149.921875 25.582031 147.671875 28.28125 145.722656 31.503906 C 142.125 37.425781 133.277344 53.839844 129.679688 55.863281 C 128.554688 56.464844 127.355469 56.390625 126.832031 55.941406 C 126.234375 55.492188 126.382812 53.089844 126.382812 53.089844 " clip-rule="nonzero"/></clipPath><clipPath id="1ab181ae7d"><path d="M 19.078125 15.351562 L 21.21875 15.351562 L 21.21875 17.179688 L 19.078125 17.179688 Z M 19.078125 15.351562 " clip-rule="nonzero"/></clipPath><clipPath id="b3d2ef9275"><path d="M 21.214844 15.988281 C 20.238281 17.484375 19.339844 17.261719 19.191406 16.886719 C 18.964844 16.585938 19.113281 15.6875 19.414062 15.460938 C 19.714844 15.238281 20.914062 15.535156 20.914062 15.535156 " clip-rule="nonzero"/></clipPath><clipPath id="834b641f9a"><path d="M 12.359375 11.03125 L 14.699219 11.03125 L 14.699219 13.304688 L 12.359375 13.304688 Z M 12.359375 11.03125 " clip-rule="nonzero"/></clipPath><clipPath id="28f069fb1f"><path d="M 13.492188 13.289062 C 12.59375 11.414062 14.015625 11.113281 14.316406 11.339844 C 14.542969 11.640625 14.316406 13.0625 14.015625 13.214844 C 13.71875 13.363281 12.441406 12.613281 12.367188 12.238281 C 12.367188 11.863281 13.117188 11.113281 13.492188 11.039062 C 13.867188 11.039062 14.617188 11.640625 14.691406 12.011719 C 14.691406 12.386719 13.644531 13.289062 13.644531 13.289062 " clip-rule="nonzero"/></clipPath><clipPath id="33460bcc2e"><path d="M 11.660156 35.964844 L 13.945312 35.964844 L 13.945312 38.21875 L 11.660156 38.21875 Z M 11.660156 35.964844 " clip-rule="nonzero"/></clipPath><clipPath id="fd7ca60305"><path d="M 13.941406 36.824219 C 12.292969 38.175781 11.695312 36.824219 11.84375 36.527344 C 11.992188 36.226562 13.492188 36.074219 13.71875 36.375 C 13.941406 36.675781 13.492188 38.023438 13.191406 38.175781 C 12.816406 38.324219 11.84375 37.726562 11.695312 37.351562 C 11.617188 36.976562 11.992188 36.074219 12.292969 36 C 12.667969 35.851562 13.867188 36.601562 13.867188 36.601562 " clip-rule="nonzero"/></clipPath><clipPath id="45e53a4735"><path d="M 11.6875 55.257812 L 13.960938 55.257812 L 13.960938 57.597656 L 11.6875 57.597656 Z M 11.6875 55.257812 " clip-rule="nonzero"/></clipPath><clipPath id="8540aab02e"><path d="M 13.941406 56.464844 C 12.070312 57.363281 11.695312 55.941406 11.992188 55.714844 C 12.21875 55.414062 13.644531 55.714844 13.792969 56.015625 C 13.941406 56.316406 13.191406 57.589844 12.816406 57.589844 C 12.519531 57.664062 11.695312 56.839844 11.695312 56.464844 C 11.617188 56.089844 12.441406 55.265625 12.816406 55.265625 C 13.191406 55.265625 13.941406 56.316406 13.941406 56.316406 " clip-rule="nonzero"/></clipPath><clipPath id="511bdb0904"><path d="M 11.535156 17.550781 L 13.8125 17.550781 L 13.8125 19.828125 L 11.535156 19.828125 Z M 11.535156 17.550781 " clip-rule="nonzero"/></clipPath><clipPath id="8d70f47a82"><path d="M 12.667969 17.5625 C 13.566406 19.359375 12.144531 19.734375 11.917969 19.433594 C 11.617188 19.210938 11.84375 17.785156 12.21875 17.636719 C 12.519531 17.484375 13.71875 18.234375 13.792969 18.609375 C 13.867188 18.910156 13.042969 19.734375 12.667969 19.808594 C 12.292969 19.808594 11.542969 19.136719 11.542969 18.835938 C 11.542969 18.386719 12.667969 17.5625 12.667969 17.5625 " clip-rule="nonzero"/></clipPath><clipPath id="c421a70955"><path d="M 3 28.945312 L 5.265625 28.945312 L 5.265625 31.285156 L 3 31.285156 Z M 3 28.945312 " clip-rule="nonzero"/></clipPath><clipPath id="08e196c201"><path d="M 3 30.078125 C 4.871094 29.179688 5.171875 30.605469 4.949219 30.828125 C 4.722656 31.128906 3.222656 30.902344 3.074219 30.527344 C 3 30.230469 3.671875 29.03125 4.046875 28.953125 C 4.421875 28.878906 5.246094 29.703125 5.246094 30.078125 C 5.320312 30.453125 4.722656 31.277344 4.421875 31.277344 C 3.972656 31.351562 3 30.304688 3 30.304688 " clip-rule="nonzero"/></clipPath><clipPath id="fd783af056"><path d="M 3.96875 10.402344 L 6.078125 10.402344 L 6.078125 12.265625 L 3.96875 12.265625 Z M 3.96875 10.402344 " clip-rule="nonzero"/></clipPath><clipPath id="e4e8e0e25b"><path d="M 6.070312 11.113281 C 5.171875 12.613281 4.273438 12.3125 4.046875 12.011719 C 3.898438 11.640625 4.046875 10.738281 4.347656 10.515625 C 4.648438 10.289062 5.847656 10.589844 5.847656 10.589844 " clip-rule="nonzero"/></clipPath><clipPath id="85fe3bcf93"><path d="M 8.667969 67.53125 L 10.820312 67.53125 L 10.820312 69.652344 L 8.667969 69.652344 Z M 8.667969 67.53125 " clip-rule="nonzero"/></clipPath><clipPath id="2cbd858aeb"><path d="M 10.792969 68.160156 C 9.519531 69.808594 8.546875 68.609375 8.695312 68.308594 C 8.769531 67.933594 10.195312 67.558594 10.496094 67.707031 C 10.71875 67.933594 10.644531 69.359375 10.34375 69.582031 C 10.042969 69.808594 8.921875 69.433594 8.769531 69.132812 C 8.546875 68.757812 8.996094 67.707031 9.296875 67.558594 C 9.667969 67.410156 10.71875 68.007812 10.71875 68.007812 " clip-rule="nonzero"/></clipPath><clipPath id="f412f6ca3a"><path d="M 16.46875 48.285156 L 18.535156 48.285156 L 18.535156 50.414062 L 16.46875 50.414062 Z M 16.46875 48.285156 " clip-rule="nonzero"/></clipPath><clipPath id="fb9950b3cd"><path d="M 16.714844 48.445312 C 18.738281 49.117188 17.914062 50.316406 17.617188 50.394531 C 17.242188 50.394531 16.339844 49.195312 16.492188 48.894531 C 16.566406 48.519531 17.992188 48.144531 18.289062 48.371094 C 18.589844 48.59375 18.589844 49.71875 18.363281 50.019531 C 18.066406 50.316406 17.164062 50.394531 16.867188 50.167969 C 16.566406 49.941406 16.714844 48.519531 16.714844 48.519531 " clip-rule="nonzero"/></clipPath><clipPath id="f8cc5a213c"><path d="M 34.847656 13.28125 L 37.125 13.28125 L 37.125 15.554688 L 34.847656 15.554688 Z M 34.847656 13.28125 " clip-rule="nonzero"/></clipPath><clipPath id="5e78433114"><path d="M 35.980469 13.289062 C 36.878906 15.085938 35.457031 15.460938 35.15625 15.238281 C 34.929688 14.9375 35.15625 13.511719 35.457031 13.363281 C 35.832031 13.214844 37.03125 13.960938 37.105469 14.335938 C 37.105469 14.636719 36.355469 15.460938 35.980469 15.535156 C 35.605469 15.535156 34.855469 14.863281 34.855469 14.5625 C 34.78125 14.1875 35.90625 13.289062 35.90625 13.289062 " clip-rule="nonzero"/></clipPath><clipPath id="43e50b61bd"><path d="M 29.75 52.035156 L 32.027344 52.035156 L 32.027344 54.375 L 29.75 54.375 Z M 29.75 52.035156 " clip-rule="nonzero"/></clipPath><clipPath id="e76c3f15d5"><path d="M 32.007812 53.242188 C 30.132812 54.140625 29.835938 52.71875 30.058594 52.417969 C 30.285156 52.191406 31.78125 52.417969 31.933594 52.71875 C 32.082031 53.015625 31.332031 54.292969 30.957031 54.367188 C 30.582031 54.367188 29.757812 53.617188 29.757812 53.242188 C 29.757812 52.792969 30.582031 52.042969 30.957031 52.042969 C 31.332031 52.042969 32.007812 53.089844 32.007812 53.089844 " clip-rule="nonzero"/></clipPath><clipPath id="d64e151738"><path d="M 24.773438 29.066406 L 26.917969 29.066406 L 26.917969 30.898438 L 24.773438 30.898438 Z M 24.773438 29.066406 " clip-rule="nonzero"/></clipPath><clipPath id="3006569243"><path d="M 26.910156 29.703125 C 25.9375 31.203125 25.035156 30.976562 24.886719 30.605469 C 24.660156 30.304688 24.8125 29.40625 25.113281 29.179688 C 25.410156 28.953125 26.609375 29.253906 26.609375 29.253906 " clip-rule="nonzero"/></clipPath><clipPath id="ab93a119cf"><path d="M 31 62.269531 L 33.558594 62.269531 L 33.558594 64.644531 L 31 64.644531 Z M 31 62.269531 " clip-rule="nonzero"/></clipPath><clipPath id="2d5aa4fa37"><path d="M 32.457031 64.636719 C 30.957031 63.4375 31.933594 62.386719 32.308594 62.386719 C 32.683594 62.460938 33.28125 63.8125 33.132812 64.109375 C 32.980469 64.410156 31.558594 64.484375 31.257812 64.261719 C 31.035156 64.035156 30.957031 63.511719 31.035156 63.210938 C 31.183594 62.835938 31.707031 62.386719 32.082031 62.3125 C 32.457031 62.238281 33.355469 62.535156 33.507812 62.910156 C 33.730469 63.285156 33.132812 64.410156 33.132812 64.410156 " clip-rule="nonzero"/></clipPath><clipPath id="1374f674a7"><path d="M 20.683594 61.449219 L 22.792969 61.449219 L 22.792969 63.3125 L 20.683594 63.3125 Z M 20.683594 61.449219 " clip-rule="nonzero"/></clipPath><clipPath id="285f36d204"><path d="M 22.789062 62.085938 C 21.886719 63.660156 20.988281 63.359375 20.765625 63.0625 C 20.613281 62.6875 20.765625 61.785156 21.0625 61.5625 C 21.363281 61.335938 22.5625 61.636719 22.5625 61.636719 " clip-rule="nonzero"/></clipPath><clipPath id="700bec658e"><path d="M 41.667969 62.078125 L 43.945312 62.078125 L 43.945312 64.355469 L 41.667969 64.355469 Z M 41.667969 62.078125 " clip-rule="nonzero"/></clipPath><clipPath id="94cec3c685"><path d="M 42.800781 62.085938 C 43.777344 63.960938 42.277344 64.261719 42.050781 64.035156 C 41.828125 63.8125 42.050781 62.3125 42.351562 62.160156 C 42.652344 62.011719 43.925781 62.761719 43.925781 63.136719 C 44 63.511719 43.25 64.335938 42.800781 64.335938 C 42.425781 64.335938 41.753906 63.734375 41.679688 63.359375 C 41.679688 62.988281 42.800781 62.085938 42.800781 62.085938 " clip-rule="nonzero"/></clipPath><clipPath id="9942e145f5"><path d="M 71.957031 70.296875 L 74.066406 70.296875 L 74.066406 72.125 L 71.957031 72.125 Z M 71.957031 70.296875 " clip-rule="nonzero"/></clipPath><clipPath id="58fe302ba2"><path d="M 74.058594 70.933594 C 73.160156 72.429688 72.261719 72.207031 72.035156 71.832031 C 71.886719 71.53125 72.035156 70.632812 72.335938 70.40625 C 72.636719 70.183594 73.835938 70.480469 73.835938 70.480469 " clip-rule="nonzero"/></clipPath><clipPath id="2b12f03bf2"><path d="M 53.71875 65.253906 L 55.871094 65.253906 L 55.871094 67.433594 L 53.71875 67.433594 Z M 53.71875 65.253906 " clip-rule="nonzero"/></clipPath><clipPath id="856bc74d6a"><path d="M 54.269531 67.335938 C 54.347656 65.234375 55.769531 65.609375 55.84375 65.910156 C 55.996094 66.285156 55.09375 67.410156 54.796875 67.410156 C 54.421875 67.410156 53.671875 66.210938 53.746094 65.835938 C 53.894531 65.535156 54.945312 65.160156 55.320312 65.308594 C 55.621094 65.460938 55.996094 66.585938 55.769531 66.882812 C 55.621094 67.257812 54.347656 67.335938 54.347656 67.335938 " clip-rule="nonzero"/></clipPath><clipPath id="3002fe708e"><path d="M 62.8125 62.695312 L 65 62.695312 L 65 64.523438 L 62.8125 64.523438 Z M 62.8125 62.695312 " clip-rule="nonzero"/></clipPath><clipPath id="3005abc638"><path d="M 64.992188 63.359375 C 64.015625 64.859375 63.117188 64.5625 62.890625 64.261719 C 62.742188 63.960938 62.890625 63.0625 63.191406 62.835938 C 63.492188 62.535156 64.691406 62.910156 64.691406 62.910156 " clip-rule="nonzero"/></clipPath><clipPath id="9f9f92986f"><path d="M 80.5 58.675781 L 82.703125 58.675781 L 82.703125 60.539062 L 80.5 60.539062 Z M 80.5 58.675781 " clip-rule="nonzero"/></clipPath><clipPath id="72fa3f496d"><path d="M 82.679688 59.3125 C 81.707031 60.886719 80.808594 60.585938 80.582031 60.289062 C 80.433594 59.914062 80.582031 59.011719 80.882812 58.789062 C 81.183594 58.5625 82.382812 58.863281 82.382812 58.863281 " clip-rule="nonzero"/></clipPath><clipPath id="6e1ce31769"><path d="M 73.378906 38.0625 L 75.582031 38.0625 L 75.582031 39.925781 L 73.378906 39.925781 Z M 73.378906 38.0625 " clip-rule="nonzero"/></clipPath><clipPath id="0a2142228b"><path d="M 75.558594 38.773438 C 74.585938 40.273438 73.6875 39.972656 73.460938 39.675781 C 73.3125 39.375 73.460938 38.398438 73.761719 38.175781 C 74.058594 37.949219 75.261719 38.25 75.261719 38.25 " clip-rule="nonzero"/></clipPath><clipPath id="5747fa3fe2"><path d="M 74.847656 15.125 L 76.988281 15.125 L 76.988281 16.988281 L 74.847656 16.988281 Z M 74.847656 15.125 " clip-rule="nonzero"/></clipPath><clipPath id="c7523ec116"><path d="M 76.984375 15.761719 C 76.007812 17.335938 75.109375 17.035156 74.960938 16.734375 C 74.734375 16.359375 74.886719 15.460938 75.183594 15.238281 C 75.484375 15.011719 76.683594 15.3125 76.683594 15.3125 " clip-rule="nonzero"/></clipPath><clipPath id="f7f9650165"><path d="M 83.917969 9.578125 L 86.058594 9.578125 L 86.058594 11.410156 L 83.917969 11.410156 Z M 83.917969 9.578125 " clip-rule="nonzero"/></clipPath><clipPath id="4e903e2482"><path d="M 86.054688 10.214844 C 85.078125 11.714844 84.179688 11.488281 84.03125 11.113281 C 83.804688 10.8125 84.03125 9.914062 84.253906 9.691406 C 84.554688 9.464844 85.753906 9.765625 85.753906 9.765625 " clip-rule="nonzero"/></clipPath><clipPath id="5dbe5875ea"><path d="M 66.03125 2.035156 L 68.308594 2.035156 L 68.308594 4.3125 L 66.03125 4.3125 Z M 66.03125 2.035156 " clip-rule="nonzero"/></clipPath><clipPath id="f7f61e170c"><path d="M 67.164062 4.292969 C 66.265625 2.417969 67.6875 2.117188 67.988281 2.34375 C 68.214844 2.570312 67.988281 4.066406 67.6875 4.21875 C 67.3125 4.367188 66.113281 3.617188 66.039062 3.242188 C 66.039062 2.867188 66.789062 2.042969 67.164062 2.042969 C 67.539062 2.042969 68.289062 2.644531 68.289062 3.019531 C 68.363281 3.394531 67.238281 4.292969 67.238281 4.292969 " clip-rule="nonzero"/></clipPath><clipPath id="3839095592"><path d="M 51.253906 16.222656 L 53.457031 16.222656 L 53.457031 18.554688 L 51.253906 18.554688 Z M 51.253906 16.222656 " clip-rule="nonzero"/></clipPath><clipPath id="e624d8f01b"><path d="M 53.296875 18.011719 C 51.421875 18.085938 51.421875 16.660156 51.722656 16.4375 C 52.023438 16.285156 53.371094 16.8125 53.445312 17.1875 C 53.519531 17.484375 52.546875 18.460938 52.171875 18.535156 C 51.871094 18.535156 51.421875 18.160156 51.347656 17.859375 C 51.199219 17.5625 51.273438 16.8125 51.496094 16.585938 C 51.796875 16.285156 52.695312 16.136719 52.996094 16.285156 C 53.371094 16.511719 53.445312 17.710938 53.445312 17.710938 " clip-rule="nonzero"/></clipPath><clipPath id="afd4d21587"><path d="M 40.667969 25.171875 L 42.890625 25.171875 L 42.890625 27.492188 L 40.667969 27.492188 Z M 40.667969 25.171875 " clip-rule="nonzero"/></clipPath><clipPath id="ee5af634ae"><path d="M 42.800781 26.78125 C 40.703125 26.929688 41.003906 25.507812 41.304688 25.355469 C 41.601562 25.207031 42.878906 25.957031 42.878906 26.332031 C 42.878906 26.707031 41.753906 27.53125 41.378906 27.457031 C 41.078125 27.378906 40.554688 26.332031 40.703125 25.957031 C 40.851562 25.582031 41.902344 25.054688 42.277344 25.207031 C 42.578125 25.355469 42.878906 26.554688 42.878906 26.554688 " clip-rule="nonzero"/></clipPath><clipPath id="e7b302c25d"><path d="M 36.121094 41.164062 L 38.398438 41.164062 L 38.398438 43.441406 L 36.121094 43.441406 Z M 36.121094 41.164062 " clip-rule="nonzero"/></clipPath><clipPath id="88c12a7f30"><path d="M 38.378906 42.296875 C 36.503906 43.195312 36.207031 41.773438 36.429688 41.546875 C 36.730469 41.246094 38.15625 41.546875 38.304688 41.847656 C 38.453125 42.148438 37.703125 43.347656 37.328125 43.421875 C 37.03125 43.496094 36.128906 42.671875 36.128906 42.296875 C 36.128906 41.921875 37.03125 41.171875 37.40625 41.171875 C 37.78125 41.171875 38.378906 42.296875 38.378906 42.296875 " clip-rule="nonzero"/></clipPath><clipPath id="c63bf1eeed"><path d="M 28.925781 3.984375 L 31.203125 3.984375 L 31.203125 6.261719 L 28.925781 6.261719 Z M 28.925781 3.984375 " clip-rule="nonzero"/></clipPath><clipPath id="70fb9c2d62"><path d="M 30.058594 6.242188 C 29.160156 4.367188 30.582031 4.066406 30.808594 4.292969 C 31.035156 4.519531 30.808594 6.015625 30.507812 6.167969 C 30.207031 6.316406 28.933594 5.566406 28.933594 5.191406 C 28.859375 4.816406 29.683594 3.992188 30.058594 3.992188 C 30.433594 3.992188 31.183594 4.59375 31.183594 4.96875 C 31.183594 5.34375 30.058594 6.242188 30.058594 6.242188 " clip-rule="nonzero"/></clipPath><clipPath id="36fbb51120"><path d="M 46.675781 4.042969 L 48.824219 4.042969 L 48.824219 6.253906 L 46.675781 6.253906 Z M 46.675781 4.042969 " clip-rule="nonzero"/></clipPath><clipPath id="9555b11204"><path d="M 48.273438 4.144531 C 48.273438 6.242188 46.851562 5.867188 46.699219 5.566406 C 46.550781 5.265625 47.449219 4.066406 47.824219 4.066406 C 48.125 4.066406 48.949219 5.265625 48.800781 5.640625 C 48.648438 5.941406 47.597656 6.390625 47.226562 6.167969 C 46.925781 6.015625 46.550781 4.890625 46.773438 4.59375 C 46.925781 4.292969 48.199219 4.144531 48.199219 4.144531 " clip-rule="nonzero"/></clipPath><clipPath id="d1fb706841"><path d="M 98.011719 63.625 L 100.332031 63.625 L 100.332031 65.847656 L 98.011719 65.847656 Z M 98.011719 63.625 " clip-rule="nonzero"/></clipPath><clipPath id="c1c7a205ac"><path d="M 99.546875 63.660156 C 99.847656 65.761719 98.421875 65.609375 98.199219 65.308594 C 98.046875 65.011719 98.722656 63.660156 99.097656 63.660156 C 99.398438 63.585938 100.371094 64.710938 100.296875 65.085938 C 100.222656 65.386719 99.246094 65.910156 98.871094 65.835938 C 98.496094 65.761719 97.972656 64.933594 98.046875 64.5625 C 98.121094 64.1875 99.472656 63.660156 99.472656 63.660156 " clip-rule="nonzero"/></clipPath><clipPath id="b6532dd871"><path d="M 86.644531 66.5 L 88.921875 66.5 L 88.921875 68.777344 L 86.644531 68.777344 Z M 86.644531 66.5 " clip-rule="nonzero"/></clipPath><clipPath id="dc578fce53"><path d="M 87.777344 68.757812 C 86.878906 66.882812 88.304688 66.585938 88.527344 66.808594 C 88.828125 67.035156 88.601562 68.457031 88.226562 68.609375 C 87.929688 68.757812 86.730469 68.082031 86.652344 67.707031 C 86.578125 67.335938 87.402344 66.507812 87.777344 66.507812 C 88.152344 66.507812 88.902344 67.335938 88.902344 67.707031 C 88.902344 68.082031 87.851562 68.757812 87.851562 68.757812 " clip-rule="nonzero"/></clipPath><clipPath id="bf9930d15e"><path d="M 115.582031 63.277344 L 117.855469 63.277344 L 117.855469 65.554688 L 115.582031 65.554688 Z M 115.582031 63.277344 " clip-rule="nonzero"/></clipPath><clipPath id="c94dbf409c"><path d="M 116.710938 63.285156 C 117.613281 65.160156 116.1875 65.535156 115.886719 65.234375 C 115.664062 65.011719 115.886719 63.585938 116.1875 63.4375 C 116.5625 63.285156 117.761719 64.035156 117.835938 64.410156 C 117.835938 64.710938 117.085938 65.535156 116.710938 65.535156 C 116.339844 65.609375 115.589844 64.933594 115.589844 64.5625 C 115.511719 64.1875 116.636719 63.285156 116.636719 63.285156 " clip-rule="nonzero"/></clipPath><clipPath id="aa855b5eab"><path d="M 118.25 36.667969 L 120.390625 36.667969 L 120.390625 38.5 L 118.25 38.5 Z M 118.25 36.667969 " clip-rule="nonzero"/></clipPath><clipPath id="a7027371cb"><path d="M 120.386719 37.351562 C 119.484375 38.847656 118.585938 38.550781 118.363281 38.25 C 118.136719 37.949219 118.363281 36.976562 118.660156 36.75 C 118.960938 36.527344 120.085938 36.898438 120.085938 36.898438 " clip-rule="nonzero"/></clipPath><clipPath id="7cf183a78e"><path d="M 101.683594 45.707031 L 103.824219 45.707031 L 103.824219 47.570312 L 101.683594 47.570312 Z M 101.683594 45.707031 " clip-rule="nonzero"/></clipPath><clipPath id="177430a6bb"><path d="M 103.820312 46.34375 C 102.84375 47.917969 101.945312 47.621094 101.796875 47.320312 C 101.570312 46.945312 101.722656 46.046875 102.019531 45.820312 C 102.320312 45.59375 103.519531 45.894531 103.519531 45.894531 " clip-rule="nonzero"/></clipPath><clipPath id="6dee6f50d7"><path d="M 114.90625 24.75 L 117.179688 24.75 L 117.179688 27.023438 L 114.90625 27.023438 Z M 114.90625 24.75 " clip-rule="nonzero"/></clipPath><clipPath id="39de9bbfc7"><path d="M 114.914062 25.882812 C 116.789062 24.90625 117.085938 26.332031 116.863281 26.628906 C 116.636719 26.855469 115.136719 26.628906 114.988281 26.332031 C 114.839844 26.03125 115.589844 24.757812 115.964844 24.757812 C 116.339844 24.683594 117.164062 25.429688 117.164062 25.882812 C 117.164062 26.257812 116.339844 27.003906 115.964844 27.003906 C 115.589844 27.003906 114.914062 25.957031 114.914062 25.957031 " clip-rule="nonzero"/></clipPath><clipPath id="9d202bb8c6"><path d="M 104.757812 7.105469 L 106.898438 7.105469 L 106.898438 8.964844 L 104.757812 8.964844 Z M 104.757812 7.105469 " clip-rule="nonzero"/></clipPath><clipPath id="c673a7f452"><path d="M 106.894531 7.742188 C 105.917969 9.316406 105.019531 9.015625 104.867188 8.714844 C 104.644531 8.339844 104.792969 7.441406 105.09375 7.214844 C 105.394531 6.992188 106.59375 7.292969 106.59375 7.292969 " clip-rule="nonzero"/></clipPath><clipPath id="2b6d4f6140"><path d="M 88.566406 10.253906 L 90.707031 10.253906 L 90.707031 12.113281 L 88.566406 12.113281 Z M 88.566406 10.253906 " clip-rule="nonzero"/></clipPath><clipPath id="82131fcf86"><path d="M 90.703125 10.964844 C 89.726562 12.464844 88.828125 12.164062 88.675781 11.863281 C 88.453125 11.5625 88.601562 10.589844 88.902344 10.363281 C 89.203125 10.140625 90.402344 10.4375 90.402344 10.4375 " clip-rule="nonzero"/></clipPath><clipPath id="a2b2230753"><path d="M 121.035156 7.339844 L 123.28125 7.339844 L 123.28125 9.523438 L 121.035156 9.523438 Z M 121.035156 7.339844 " clip-rule="nonzero"/></clipPath><clipPath id="1ca929daf9"><path d="M 121.210938 7.964844 C 123.234375 7.964844 122.933594 9.390625 122.558594 9.464844 C 122.257812 9.613281 121.058594 8.789062 121.058594 8.414062 C 121.058594 8.039062 122.257812 7.292969 122.632812 7.367188 C 123.007812 7.515625 123.382812 8.566406 123.234375 8.941406 C 123.007812 9.316406 121.960938 9.613281 121.585938 9.464844 C 121.285156 9.316406 121.136719 8.039062 121.136719 8.039062 " clip-rule="nonzero"/></clipPath><clipPath id="1011fbe014"><path d="M 138 5.558594 L 140.269531 5.558594 L 140.269531 7.835938 L 138 7.835938 Z M 138 5.558594 " clip-rule="nonzero"/></clipPath><clipPath id="6c3c79bf0e"><path d="M 139.125 5.566406 C 140.023438 7.441406 138.601562 7.742188 138.375 7.515625 C 138.078125 7.292969 138.375 5.792969 138.675781 5.640625 C 138.976562 5.492188 140.175781 6.242188 140.25 6.617188 C 140.324219 6.992188 139.5 7.816406 139.125 7.816406 C 138.75 7.816406 138 6.992188 138 6.542969 C 138 6.242188 139.125 5.566406 139.125 5.566406 " clip-rule="nonzero"/></clipPath><clipPath id="bf1c8a7e9d"><path d="M 136.570312 21.824219 L 138.84375 21.824219 L 138.84375 24.164062 L 136.570312 24.164062 Z M 136.570312 21.824219 " clip-rule="nonzero"/></clipPath><clipPath id="da12394f3b"><path d="M 138.824219 23.03125 C 136.953125 23.933594 136.652344 22.507812 136.875 22.207031 C 137.101562 21.984375 138.601562 22.207031 138.75 22.507812 C 138.902344 22.882812 138.152344 24.082031 137.777344 24.15625 C 137.402344 24.15625 136.578125 23.40625 136.578125 23.03125 C 136.578125 22.65625 137.402344 21.832031 137.777344 21.832031 C 138.152344 21.832031 138.824219 22.882812 138.824219 22.882812 " clip-rule="nonzero"/></clipPath><clipPath id="5c2d30ed33"><path d="M 159.804688 7.28125 L 162.082031 7.28125 L 162.082031 9.558594 L 159.804688 9.558594 Z M 159.804688 7.28125 " clip-rule="nonzero"/></clipPath><clipPath id="ac9137581e"><path d="M 160.9375 7.292969 C 161.914062 9.164062 160.414062 9.464844 160.191406 9.238281 C 159.964844 9.015625 160.191406 7.515625 160.488281 7.367188 C 160.789062 7.292969 162.0625 7.964844 162.0625 8.339844 C 162.136719 8.714844 161.3125 9.539062 160.9375 9.539062 C 160.5625 9.539062 159.816406 8.714844 159.816406 8.339844 C 159.816406 7.964844 160.9375 7.292969 160.9375 7.292969 " clip-rule="nonzero"/></clipPath><clipPath id="09853267f8"><path d="M 154.371094 33.640625 L 156.753906 33.640625 L 156.753906 35.929688 L 154.371094 35.929688 Z M 154.371094 33.640625 " clip-rule="nonzero"/></clipPath><clipPath id="bd73390b4d"><path d="M 155.691406 35.925781 C 154.417969 34.203125 155.765625 33.675781 156.066406 33.828125 C 156.367188 34.050781 156.441406 35.476562 156.140625 35.699219 C 155.84375 35.925781 154.492188 35.402344 154.417969 35.027344 C 154.269531 34.726562 154.867188 33.753906 155.242188 33.675781 C 155.691406 33.601562 156.667969 34.203125 156.742188 34.578125 C 156.816406 34.875 155.917969 35.851562 155.917969 35.851562 " clip-rule="nonzero"/></clipPath><clipPath id="1d6796d25b"><path d="M 146.539062 56.53125 L 148.8125 56.53125 L 148.8125 58.871094 L 146.539062 58.871094 Z M 146.539062 56.53125 " clip-rule="nonzero"/></clipPath><clipPath id="ea9e52b8ee"><path d="M 148.796875 57.738281 C 146.921875 58.714844 146.621094 57.214844 146.847656 56.988281 C 147.070312 56.765625 148.496094 56.988281 148.644531 57.289062 C 148.796875 57.589844 148.046875 58.863281 147.671875 58.863281 C 147.371094 58.9375 146.546875 58.113281 146.546875 57.738281 C 146.546875 57.363281 147.296875 56.539062 147.746094 56.539062 C 148.046875 56.539062 148.796875 57.664062 148.796875 57.664062 " clip-rule="nonzero"/></clipPath><clipPath id="8490fa3f02"><path d="M 132.945312 58.015625 L 135.042969 58.015625 L 135.042969 60.085938 L 132.945312 60.085938 Z M 132.945312 58.015625 " clip-rule="nonzero"/></clipPath><clipPath id="47dcd2a742"><path d="M 134.777344 59.988281 C 132.753906 59.3125 133.578125 58.039062 133.953125 58.039062 C 134.253906 58.039062 135.152344 59.238281 135.003906 59.613281 C 134.851562 59.914062 133.503906 60.210938 133.203125 59.988281 C 132.902344 59.761719 132.902344 58.640625 133.128906 58.414062 C 133.429688 58.113281 134.402344 57.964844 134.628906 58.1875 C 134.929688 58.488281 134.851562 59.914062 134.851562 59.914062 " clip-rule="nonzero"/></clipPath><clipPath id="5c5dc6e13e"><path d="M 132.875 64.753906 L 135.109375 64.753906 L 135.109375 66.925781 L 132.875 66.925781 Z M 132.875 64.753906 " clip-rule="nonzero"/></clipPath><clipPath id="2f4cbeccbd"><path d="M 134.554688 64.859375 C 134.554688 66.960938 133.128906 66.585938 132.980469 66.285156 C 132.902344 65.910156 133.730469 64.710938 134.101562 64.785156 C 134.402344 64.785156 135.226562 65.984375 135.078125 66.359375 C 135.003906 66.660156 133.878906 67.035156 133.578125 66.882812 C 133.203125 66.734375 132.828125 65.835938 132.902344 65.535156 C 133.054688 65.160156 134.476562 64.859375 134.476562 64.859375 " clip-rule="nonzero"/></clipPath><clipPath id="79a7272517"><path d="M 121.699219 68.347656 L 123.839844 68.347656 L 123.839844 70.207031 L 121.699219 70.207031 Z M 121.699219 68.347656 " clip-rule="nonzero"/></clipPath><clipPath id="d41f20491f"><path d="M 123.832031 69.058594 C 122.859375 70.558594 121.960938 70.257812 121.808594 69.957031 C 121.585938 69.582031 121.734375 68.683594 122.035156 68.457031 C 122.335938 68.234375 123.535156 68.535156 123.535156 68.535156 " clip-rule="nonzero"/></clipPath><clipPath id="b4e4fad7f0"><path d="M 166.402344 38.015625 L 168.679688 38.015625 L 168.679688 40.292969 L 166.402344 40.292969 Z M 166.402344 38.015625 " clip-rule="nonzero"/></clipPath><clipPath id="5b53b81ed6"><path d="M 167.535156 38.023438 C 168.433594 39.824219 167.011719 40.199219 166.785156 39.898438 C 166.484375 39.675781 166.710938 38.25 167.085938 38.101562 C 167.386719 37.949219 168.585938 38.699219 168.660156 39.074219 C 168.734375 39.375 167.910156 40.273438 167.535156 40.273438 C 167.160156 40.273438 166.410156 39.375 166.410156 39 C 166.410156 38.625 167.460938 38.023438 167.460938 38.023438 " clip-rule="nonzero"/></clipPath><clipPath id="bb83531c47"><path d="M 175.476562 20.597656 L 177.679688 20.597656 L 177.679688 22.460938 L 175.476562 22.460938 Z M 175.476562 20.597656 " clip-rule="nonzero"/></clipPath><clipPath id="fac327a7e6"><path d="M 177.65625 21.308594 C 176.679688 22.808594 175.78125 22.507812 175.554688 22.207031 C 175.40625 21.910156 175.554688 20.933594 175.855469 20.707031 C 176.15625 20.484375 177.355469 20.785156 177.355469 20.785156 " clip-rule="nonzero"/></clipPath><clipPath id="779d81796f"><path d="M 158.054688 16.804688 L 160.195312 16.804688 L 160.195312 18.636719 L 158.054688 18.636719 Z M 158.054688 16.804688 " clip-rule="nonzero"/></clipPath><clipPath id="60dafb1d62"><path d="M 160.191406 17.484375 C 159.214844 18.984375 158.316406 18.683594 158.164062 18.386719 C 157.941406 18.085938 158.164062 17.109375 158.390625 16.886719 C 158.691406 16.660156 159.890625 17.035156 159.890625 17.035156 " clip-rule="nonzero"/></clipPath><clipPath id="0e28aceb43"><path d="M 166.554688 22.351562 L 168.757812 22.351562 L 168.757812 24.183594 L 166.554688 24.183594 Z M 166.554688 22.351562 " clip-rule="nonzero"/></clipPath><clipPath id="c493a9450e"><path d="M 168.734375 23.03125 C 167.761719 24.53125 166.859375 24.230469 166.636719 23.933594 C 166.484375 23.632812 166.636719 22.65625 166.9375 22.433594 C 167.234375 22.207031 168.433594 22.582031 168.433594 22.582031 " clip-rule="nonzero"/></clipPath><clipPath id="93e927b79d"><path d="M 159.355469 53.609375 L 161.632812 53.609375 L 161.632812 55.882812 L 159.355469 55.882812 Z M 159.355469 53.609375 " clip-rule="nonzero"/></clipPath><clipPath id="24d65f45c8"><path d="M 161.613281 54.742188 C 159.738281 55.640625 159.441406 54.214844 159.664062 53.992188 C 159.890625 53.691406 161.3125 53.992188 161.464844 54.292969 C 161.613281 54.589844 160.863281 55.863281 160.488281 55.863281 C 160.191406 55.941406 159.363281 55.117188 159.363281 54.742188 C 159.363281 54.367188 160.191406 53.617188 160.5625 53.617188 C 160.9375 53.617188 161.613281 54.742188 161.613281 54.742188 " clip-rule="nonzero"/></clipPath><clipPath id="bd30bd6326"><path d="M 159.132812 41.238281 L 161.40625 41.238281 L 161.40625 43.515625 L 159.132812 43.515625 Z M 159.132812 41.238281 " clip-rule="nonzero"/></clipPath><clipPath id="5d54f9f3b3"><path d="M 160.265625 43.496094 C 159.363281 41.621094 160.789062 41.324219 161.015625 41.546875 C 161.3125 41.773438 161.089844 43.195312 160.714844 43.347656 C 160.414062 43.496094 159.214844 42.746094 159.140625 42.371094 C 159.066406 42.074219 159.890625 41.246094 160.265625 41.246094 C 160.640625 41.171875 161.390625 41.773438 161.390625 42.148438 C 161.464844 42.523438 160.339844 43.496094 160.339844 43.496094 " clip-rule="nonzero"/></clipPath><clipPath id="c4c663d314"><path d="M 155.382812 69.949219 L 157.660156 69.949219 L 157.660156 72.226562 L 155.382812 72.226562 Z M 155.382812 69.949219 " clip-rule="nonzero"/></clipPath><clipPath id="73a1dcaf11"><path d="M 156.515625 72.207031 C 155.542969 70.332031 157.042969 70.03125 157.265625 70.257812 C 157.492188 70.480469 157.265625 71.980469 156.964844 72.054688 C 156.667969 72.207031 155.390625 71.53125 155.390625 71.15625 C 155.316406 70.78125 156.140625 69.957031 156.515625 69.957031 C 156.890625 69.957031 157.566406 70.558594 157.640625 70.933594 C 157.640625 71.308594 156.515625 72.207031 156.515625 72.207031 " clip-rule="nonzero"/></clipPath><clipPath id="0ebabf2854"><path d="M 149.6875 61.855469 L 151.960938 61.855469 L 151.960938 64.128906 L 149.6875 64.128906 Z M 149.6875 61.855469 " clip-rule="nonzero"/></clipPath><clipPath id="7a51a44072"><path d="M 150.820312 64.109375 C 149.921875 62.3125 151.34375 61.9375 151.570312 62.238281 C 151.792969 62.460938 151.570312 63.886719 151.269531 64.035156 C 150.96875 64.1875 149.695312 63.4375 149.695312 63.0625 C 149.621094 62.761719 150.445312 61.863281 150.820312 61.863281 C 151.195312 61.863281 151.945312 62.761719 151.945312 63.136719 C 151.945312 63.511719 150.820312 64.109375 150.820312 64.109375 " clip-rule="nonzero"/></clipPath><clipPath id="3f34a72b63"><path d="M 170.375 60.28125 L 172.652344 60.28125 L 172.652344 62.554688 L 170.375 62.554688 Z M 170.375 60.28125 " clip-rule="nonzero"/></clipPath><clipPath id="4ca70c4eda"><path d="M 171.507812 60.289062 C 172.40625 62.160156 170.984375 62.460938 170.757812 62.238281 C 170.460938 62.011719 170.683594 60.511719 171.058594 60.363281 C 171.359375 60.210938 172.558594 60.960938 172.632812 61.335938 C 172.632812 61.710938 171.882812 62.535156 171.507812 62.535156 C 171.132812 62.535156 170.382812 61.9375 170.382812 61.5625 C 170.308594 61.1875 171.433594 60.289062 171.433594 60.289062 " clip-rule="nonzero"/></clipPath><clipPath id="77493b3a5d"><path d="M 176.449219 32.050781 L 178.789062 32.050781 L 178.789062 34.457031 L 176.449219 34.457031 Z M 176.449219 32.050781 " clip-rule="nonzero"/></clipPath><clipPath id="a31653c541"><path d="M 176.457031 33.378906 C 177.804688 32.027344 178.78125 33.152344 178.703125 33.453125 C 178.554688 33.828125 177.207031 34.277344 176.90625 34.050781 C 176.605469 33.902344 176.679688 32.476562 176.980469 32.179688 C 177.207031 32.027344 177.804688 32.027344 178.03125 32.179688 C 178.40625 32.328125 178.78125 32.925781 178.78125 33.226562 C 178.703125 33.675781 178.179688 34.351562 177.804688 34.425781 C 177.429688 34.5 176.53125 33.675781 176.53125 33.675781 " clip-rule="nonzero"/></clipPath><clipPath id="9753c90a86"><path d="M 176.371094 8.707031 L 178.648438 8.707031 L 178.648438 10.980469 L 176.371094 10.980469 Z M 176.371094 8.707031 " clip-rule="nonzero"/></clipPath><clipPath id="b3bdc711fb"><path d="M 177.503906 8.714844 C 178.40625 10.589844 176.980469 10.964844 176.753906 10.664062 C 176.53125 10.4375 176.753906 9.015625 177.054688 8.867188 C 177.355469 8.714844 178.628906 9.464844 178.628906 9.839844 C 178.703125 10.140625 177.878906 11.039062 177.503906 10.964844 C 177.128906 10.964844 176.382812 10.140625 176.382812 9.765625 C 176.382812 9.390625 177.503906 8.714844 177.503906 8.714844 " clip-rule="nonzero"/></clipPath><clipPath id="9d4072e04d"><path d="M 191.710938 8.9375 L 194 8.9375 L 194 11.222656 L 191.710938 11.222656 Z M 191.710938 8.9375 " clip-rule="nonzero"/></clipPath><clipPath id="a00e959f15"><path d="M 193.246094 9.015625 C 193.546875 11.113281 192.046875 10.964844 191.898438 10.664062 C 191.746094 10.289062 192.421875 9.015625 192.722656 8.941406 C 193.097656 8.941406 194.070312 9.988281 193.996094 10.363281 C 193.921875 10.738281 192.871094 11.265625 192.570312 11.1875 C 192.199219 11.039062 191.671875 9.988281 191.746094 9.691406 C 191.898438 9.316406 193.097656 8.941406 193.097656 8.941406 " clip-rule="nonzero"/></clipPath><clipPath id="ef3beb44b8"><path d="M 202.984375 32.246094 L 205.257812 32.246094 L 205.257812 34.519531 L 202.984375 34.519531 Z M 202.984375 32.246094 " clip-rule="nonzero"/></clipPath><clipPath id="80aa14b391"><path d="M 205.242188 33.378906 C 203.367188 34.277344 203.066406 32.851562 203.292969 32.628906 C 203.515625 32.328125 205.015625 32.550781 205.089844 32.925781 C 205.242188 33.226562 204.566406 34.425781 204.191406 34.5 C 203.816406 34.578125 202.992188 33.753906 202.992188 33.378906 C 202.992188 33.003906 203.589844 32.253906 203.964844 32.253906 C 204.339844 32.179688 205.242188 33.300781 205.242188 33.300781 " clip-rule="nonzero"/></clipPath><clipPath id="6a9e5b2aad"><path d="M 192.867188 23.820312 L 194.976562 23.820312 L 194.976562 25.621094 L 192.867188 25.621094 Z M 192.867188 23.820312 " clip-rule="nonzero"/></clipPath><clipPath id="3b92e762cb"><path d="M 194.972656 24.457031 C 194.070312 25.957031 193.171875 25.65625 192.945312 25.355469 C 192.796875 25.054688 192.945312 24.15625 193.246094 23.933594 C 193.546875 23.707031 194.746094 24.007812 194.746094 24.007812 " clip-rule="nonzero"/></clipPath><clipPath id="5aca25a68a"><path d="M 190.1875 51.457031 L 192.355469 51.457031 L 192.355469 53.65625 L 190.1875 53.65625 Z M 190.1875 51.457031 " clip-rule="nonzero"/></clipPath><clipPath id="2ff852d098"><path d="M 192.199219 53.167969 C 190.171875 53.089844 190.546875 51.667969 190.847656 51.59375 C 191.222656 51.441406 192.347656 52.34375 192.347656 52.640625 C 192.347656 53.015625 191.148438 53.765625 190.773438 53.617188 C 190.472656 53.542969 190.097656 52.492188 190.25 52.117188 C 190.398438 51.742188 191.296875 51.367188 191.597656 51.515625 C 191.972656 51.667969 192.273438 53.089844 192.273438 53.089844 " clip-rule="nonzero"/></clipPath><clipPath id="27a186371f"><path d="M 178.320312 46.113281 L 180.597656 46.113281 L 180.597656 48.386719 L 178.320312 48.386719 Z M 178.320312 46.113281 " clip-rule="nonzero"/></clipPath><clipPath id="36f949032c"><path d="M 178.328125 47.246094 C 180.203125 46.34375 180.503906 47.769531 180.277344 47.996094 C 180.054688 48.21875 178.628906 47.996094 178.480469 47.695312 C 178.328125 47.394531 179.078125 46.121094 179.453125 46.121094 C 179.753906 46.046875 180.578125 46.871094 180.578125 47.246094 C 180.652344 47.621094 179.980469 48.371094 179.605469 48.371094 C 179.230469 48.371094 178.328125 47.246094 178.328125 47.246094 " clip-rule="nonzero"/></clipPath><clipPath id="ea3dea3832"><path d="M 192.640625 39.214844 L 194.914062 39.214844 L 194.914062 41.492188 L 192.640625 41.492188 Z M 192.640625 39.214844 " clip-rule="nonzero"/></clipPath><clipPath id="d6736fdc52"><path d="M 193.773438 39.222656 C 194.671875 41.097656 193.246094 41.398438 193.023438 41.171875 C 192.722656 40.875 193.023438 39.449219 193.320312 39.300781 C 193.621094 39.148438 194.820312 39.898438 194.894531 40.273438 C 194.972656 40.648438 194.144531 41.398438 193.773438 41.472656 C 193.398438 41.472656 192.648438 40.875 192.648438 40.5 C 192.648438 40.125 193.773438 39.222656 193.773438 39.222656 " clip-rule="nonzero"/></clipPath><clipPath id="85267e446c"><path d="M 200.882812 56.082031 L 203.226562 56.082031 L 203.226562 58.421875 L 200.882812 58.421875 Z M 200.882812 56.082031 " clip-rule="nonzero"/></clipPath><clipPath id="78f00c7beb"><path d="M 202.09375 56.089844 C 202.992188 57.964844 201.566406 58.339844 201.269531 58.039062 C 201.042969 57.8125 201.269531 56.390625 201.640625 56.238281 C 201.941406 56.089844 203.140625 56.839844 203.214844 57.214844 C 203.214844 57.515625 202.46875 58.339844 202.09375 58.414062 C 201.71875 58.414062 200.96875 57.8125 200.894531 57.4375 C 200.894531 57.066406 201.941406 56.089844 201.941406 56.089844 " clip-rule="nonzero"/></clipPath><clipPath id="6a7764fdc3"><path d="M 182.789062 62.5 L 184.933594 62.5 L 184.933594 64.332031 L 182.789062 64.332031 Z M 182.789062 62.5 " clip-rule="nonzero"/></clipPath><clipPath id="e054573c8d"><path d="M 184.925781 63.136719 C 183.953125 64.636719 183.050781 64.410156 182.902344 64.035156 C 182.675781 63.734375 182.828125 62.835938 183.128906 62.613281 C 183.425781 62.386719 184.625 62.6875 184.625 62.6875 " clip-rule="nonzero"/></clipPath><clipPath id="f8d63f5e92"><path d="M 207.78125 41.464844 L 210.054688 41.464844 L 210.054688 43.738281 L 207.78125 43.738281 Z M 207.78125 41.464844 " clip-rule="nonzero"/></clipPath><clipPath id="c4163678dc"><path d="M 208.914062 41.472656 C 209.8125 43.347656 208.390625 43.648438 208.164062 43.421875 C 207.863281 43.121094 208.164062 41.699219 208.464844 41.546875 C 208.761719 41.398438 209.964844 42.148438 210.039062 42.523438 C 210.113281 42.820312 209.289062 43.648438 208.914062 43.722656 C 208.539062 43.722656 207.789062 43.046875 207.789062 42.746094 C 207.789062 42.371094 208.914062 41.472656 208.914062 41.472656 " clip-rule="nonzero"/></clipPath><clipPath id="e9372fff00"><path d="M 206.628906 12 L 208.769531 12 L 208.769531 13.839844 L 206.628906 13.839844 Z M 206.628906 12 " clip-rule="nonzero"/></clipPath><clipPath id="2a09758786"><path d="M 208.761719 12.613281 C 207.789062 14.1875 206.890625 13.886719 206.738281 13.585938 C 206.515625 13.214844 206.664062 12.3125 206.964844 12.089844 C 207.265625 11.863281 208.464844 12.164062 208.464844 12.164062 " clip-rule="nonzero"/></clipPath><clipPath id="4d6d76fe9c"><path d="M 213.457031 60.484375 L 215.691406 60.484375 L 215.691406 62.714844 L 213.457031 62.714844 Z M 213.457031 60.484375 " clip-rule="nonzero"/></clipPath><clipPath id="8b99791adf"><path d="M 215.660156 61.335938 C 214.160156 62.761719 213.410156 61.488281 213.5625 61.1875 C 213.710938 60.886719 215.136719 60.664062 215.359375 60.886719 C 215.585938 61.113281 215.285156 62.535156 214.984375 62.6875 C 214.683594 62.835938 213.636719 62.386719 213.484375 62.011719 C 213.335938 61.636719 213.859375 60.585938 214.234375 60.511719 C 214.609375 60.363281 215.585938 61.1875 215.585938 61.1875 " clip-rule="nonzero"/></clipPath><clipPath id="a8d505c3b9"><path d="M 209.203125 22.503906 L 211.238281 22.503906 L 211.238281 24.574219 L 209.203125 24.574219 Z M 209.203125 22.503906 " clip-rule="nonzero"/></clipPath><clipPath id="f003b8b243"><path d="M 209.289062 24.308594 C 209.964844 22.359375 211.238281 23.109375 211.238281 23.484375 C 211.238281 23.855469 210.039062 24.683594 209.738281 24.53125 C 209.363281 24.457031 209.0625 23.03125 209.289062 22.734375 C 209.511719 22.507812 210.636719 22.433594 210.9375 22.734375 C 211.164062 22.957031 211.164062 24.15625 210.863281 24.382812 C 210.5625 24.605469 209.363281 24.308594 209.363281 24.308594 " clip-rule="nonzero"/></clipPath><clipPath id="de53189ba7"><path d="M 194.109375 67.074219 L 196.25 67.074219 L 196.25 68.871094 L 194.109375 68.871094 Z M 194.109375 67.074219 " clip-rule="nonzero"/></clipPath><clipPath id="8d34b0c4e6"><path d="M 196.246094 67.707031 C 195.269531 69.207031 194.371094 68.910156 194.222656 68.609375 C 193.996094 68.308594 194.222656 67.410156 194.445312 67.183594 C 194.746094 66.960938 195.945312 67.257812 195.945312 67.257812 " clip-rule="nonzero"/></clipPath><clipPath id="231a198fbc"><path d="M 176.867188 65.679688 L 179.011719 65.679688 L 179.011719 67.511719 L 176.867188 67.511719 Z M 176.867188 65.679688 " clip-rule="nonzero"/></clipPath><clipPath id="5f6127cc34"><path d="M 179.003906 66.359375 C 178.03125 67.859375 177.128906 67.558594 176.980469 67.257812 C 176.753906 66.960938 176.90625 66.058594 177.207031 65.761719 C 177.503906 65.535156 178.703125 65.910156 178.703125 65.910156 " clip-rule="nonzero"/></clipPath><clipPath id="4e511444f4"><path d="M 179.445312 48.585938 L 181.785156 48.585938 L 181.785156 50.859375 L 179.445312 50.859375 Z M 179.445312 48.585938 " clip-rule="nonzero"/></clipPath><clipPath id="5a52de9230"><path d="M 180.652344 48.59375 C 181.554688 50.46875 180.128906 50.769531 179.828125 50.542969 C 179.605469 50.316406 179.828125 48.820312 180.128906 48.667969 C 180.503906 48.519531 181.703125 49.269531 181.777344 49.644531 C 181.777344 50.019531 181.027344 50.84375 180.652344 50.84375 C 180.277344 50.84375 179.527344 50.242188 179.453125 49.867188 C 179.453125 49.492188 180.578125 48.59375 180.578125 48.59375 " clip-rule="nonzero"/></clipPath><clipPath id="57cf84524b"><path d="M 0.214844 0.0195312 L 4.433594 0.0195312 L 4.433594 1.890625 L 0.214844 1.890625 Z M 0.214844 0.0195312 " clip-rule="nonzero"/></clipPath><clipPath id="d7e06f39af"><path d="M 4.421875 -0.429688 C 2.546875 2.570312 0.75 2.042969 0.375 1.371094 C 0 0.769531 0.375 -1.105469 0.898438 -1.554688 C 1.5 -2.003906 3.898438 -1.328125 3.898438 -1.328125 " clip-rule="nonzero"/></clipPath><clipPath id="989d9b9c83"><path d="M 0 0.0195312 L 224.761719 0.0195312 L 224.761719 74.980469 L 0 74.980469 Z M 0 0.0195312 " clip-rule="nonzero"/></clipPath><clipPath id="79c50c4b00"><path d="M 1.875 -1.328125 C 13.867188 -0.953125 14.691406 -0.28125 17.390625 0.0195312 C 23.914062 0.542969 39.277344 -1.03125 51.421875 -1.105469 C 65.363281 -1.105469 83.730469 0.246094 96.398438 0.09375 C 105.617188 -0.0546875 111.691406 -1.253906 120.3125 -1.328125 C 130.582031 -1.480469 142.574219 -0.429688 153.816406 -0.355469 C 165.0625 -0.28125 176.378906 -0.804688 187.851562 -0.804688 C 199.46875 -0.730469 217.910156 -1.554688 223.082031 -0.0546875 C 224.730469 0.394531 225.480469 0.917969 226.003906 1.742188 C 226.453125 2.492188 226.230469 3.019531 226.230469 4.519531 C 226.378906 10.140625 225.855469 41.472656 224.953125 46.195312 C 224.730469 47.167969 224.65625 47.46875 224.28125 47.917969 C 223.90625 48.371094 223.230469 48.667969 222.632812 48.742188 C 222.105469 48.820312 221.355469 48.667969 220.832031 48.292969 C 220.308594 47.917969 219.484375 46.570312 219.707031 46.195312 C 220.082031 45.519531 224.503906 45.519531 224.953125 46.121094 C 225.179688 46.496094 224.65625 47.46875 224.28125 47.84375 C 223.90625 48.292969 223.230469 48.667969 222.632812 48.742188 C 222.105469 48.820312 221.355469 48.667969 220.832031 48.292969 C 220.308594 47.84375 219.484375 46.570312 219.707031 46.121094 C 220.082031 45.519531 223.980469 45.144531 224.953125 46.195312 C 226.230469 47.46875 225.328125 53.464844 224.878906 55.191406 C 224.65625 56.015625 224.429688 56.464844 224.054688 56.839844 C 223.605469 57.214844 222.855469 57.515625 222.257812 57.515625 C 221.730469 57.515625 220.980469 57.214844 220.53125 56.839844 C 220.15625 56.464844 219.78125 55.789062 219.707031 55.191406 C 219.632812 54.589844 219.933594 53.617188 220.308594 53.089844 C 220.683594 52.640625 221.355469 52.265625 221.882812 52.117188 C 222.480469 52.042969 223.230469 52.117188 223.753906 52.417969 C 224.207031 52.71875 224.582031 53.089844 224.878906 53.917969 C 225.703125 56.316406 225.328125 67.484375 224.804688 70.109375 C 224.582031 70.933594 224.503906 71.308594 224.128906 71.757812 C 223.679688 72.132812 223.082031 72.429688 222.480469 72.507812 C 221.957031 72.582031 221.207031 72.355469 220.757812 72.054688 C 220.308594 71.683594 219.933594 71.15625 219.859375 70.558594 C 219.707031 69.734375 220.082031 68.007812 220.683594 67.335938 C 221.058594 66.882812 221.730469 66.734375 222.332031 66.660156 C 222.855469 66.660156 223.605469 66.960938 223.980469 67.257812 C 224.429688 67.632812 224.65625 68.160156 224.878906 68.832031 C 225.179688 70.109375 225.328125 72.882812 225.03125 74.230469 C 224.804688 75.203125 224.355469 76.03125 223.753906 76.554688 C 223.15625 77.003906 222.480469 77.003906 221.433594 77.078125 C 219.257812 77.230469 213.859375 76.554688 210.863281 76.03125 C 208.539062 75.65625 206.964844 74.53125 204.867188 74.457031 C 202.542969 74.378906 200.96875 75.578125 197.371094 75.804688 C 188.222656 76.554688 159.890625 74.15625 148.570312 74.304688 C 142.425781 74.378906 140.699219 75.054688 134.476562 75.128906 C 122.183594 75.429688 96.472656 74.003906 79.832031 74.378906 C 65.816406 74.679688 51.722656 76.554688 41.003906 76.703125 C 33.582031 76.855469 28.335938 76.554688 22.039062 76.253906 C 15.742188 76.03125 7.046875 75.730469 3.296875 75.128906 C 1.574219 74.828125 0.523438 74.828125 -0.226562 74.15625 C -0.898438 73.628906 -1.125 72.882812 -1.347656 71.757812 C -1.875 69.734375 -2.023438 66.285156 -2.097656 62.613281 C -2.097656 56.988281 -0.675781 47.320312 -0.675781 41.472656 C -0.675781 37.273438 -1.199219 35.101562 -1.273438 30.753906 C -1.425781 23.855469 -1.949219 7.367188 -0.601562 4.144531 C -0.148438 3.242188 0.824219 3.316406 0.824219 2.71875 C 0.898438 2.042969 -0.824219 0.996094 -0.75 0.167969 C -0.675781 -0.578125 0.523438 -1.777344 1.273438 -2.078125 C 1.800781 -2.230469 2.398438 -2.152344 2.847656 -1.855469 C 3.375 -1.480469 4.046875 -0.578125 4.199219 0.09375 C 4.347656 0.621094 4.199219 1.21875 3.898438 1.667969 C 3.523438 2.195312 2.625 2.867188 1.949219 2.867188 C 1.199219 2.945312 0.226562 2.417969 -0.226562 1.96875 C -0.601562 1.59375 -0.824219 0.996094 -0.75 0.46875 C -0.75 -0.203125 -0.226562 -1.253906 0.300781 -1.628906 C 0.675781 -2.003906 1.347656 -2.078125 1.800781 -2.078125 C 2.097656 -2.152344 2.324219 -2.152344 2.625 -1.929688 C 3.296875 -1.328125 4.121094 0.917969 4.496094 3.46875 C 5.246094 9.015625 2.398438 26.707031 3.222656 31.054688 C 3.449219 32.476562 4.199219 32.777344 4.421875 33.753906 C 4.648438 34.726562 4.574219 35.324219 4.496094 36.898438 C 4.496094 41.472656 2.847656 57.289062 2.921875 63.660156 C 3 67.183594 4.347656 71.605469 3.746094 71.90625 C 3.375 72.054688 1.648438 70.480469 1.800781 70.03125 C 2.472656 68.457031 24.4375 72.207031 36.730469 72.207031 C 50.449219 72.28125 64.914062 69.957031 80.355469 69.582031 C 97.597656 69.207031 123.910156 70.632812 135.378906 70.257812 C 140.625 70.109375 141.75 69.582031 146.695312 69.433594 C 156.589844 69.207031 181.628906 70.632812 190.625 70.707031 C 194.597656 70.707031 196.84375 71.007812 199.242188 70.558594 C 201.042969 70.257812 202.015625 69.132812 203.816406 68.984375 C 206.589844 68.832031 210.789062 70.855469 214.011719 71.382812 C 216.859375 71.832031 222.03125 71.382812 222.257812 72.054688 C 222.332031 72.429688 220.234375 73.855469 219.78125 73.554688 C 219.257812 73.257812 219.558594 70.03125 219.859375 68.984375 C 220.007812 68.234375 220.15625 67.707031 220.683594 67.335938 C 221.28125 66.960938 222.78125 66.585938 223.457031 66.960938 C 224.207031 67.335938 224.804688 68.609375 224.878906 69.433594 C 224.953125 70.257812 224.582031 71.230469 224.128906 71.757812 C 223.605469 72.207031 222.554688 72.582031 221.882812 72.507812 C 221.207031 72.355469 220.382812 71.757812 220.007812 71.082031 C 219.632812 70.40625 219.707031 69.65625 219.632812 68.308594 C 219.40625 65.386719 219.109375 55.863281 220.007812 53.617188 C 220.308594 52.867188 220.757812 52.566406 221.28125 52.34375 C 221.804688 52.117188 222.632812 51.96875 223.15625 52.191406 C 223.832031 52.492188 224.878906 53.691406 225.03125 54.515625 C 225.105469 55.265625 224.503906 56.316406 224.054688 56.839844 C 223.605469 57.289062 222.855469 57.515625 222.257812 57.515625 C 221.582031 57.4375 220.605469 56.914062 220.15625 56.390625 C 219.707031 55.863281 219.707031 55.265625 219.632812 54.292969 C 219.40625 52.492188 218.507812 47.394531 219.707031 46.195312 C 220.757812 45.222656 224.582031 45.519531 224.953125 46.121094 C 225.179688 46.570312 224.355469 47.84375 223.832031 48.292969 C 223.378906 48.667969 222.632812 48.820312 222.03125 48.742188 C 221.433594 48.667969 220.757812 48.292969 220.382812 47.84375 C 220.007812 47.46875 219.484375 46.496094 219.707031 46.121094 C 220.15625 45.519531 224.582031 45.519531 224.953125 46.195312 C 225.179688 46.570312 224.355469 47.917969 223.832031 48.292969 C 223.378906 48.667969 222.632812 48.820312 222.03125 48.742188 C 221.433594 48.667969 220.757812 48.292969 220.382812 47.917969 C 220.007812 47.46875 219.933594 47.167969 219.707031 46.195312 C 218.957031 41.398438 219.332031 3.84375 221.132812 3.242188 C 221.582031 3.09375 222.78125 4.59375 222.554688 5.042969 C 221.882812 6.542969 205.839844 4.144531 195.195312 4.066406 C 180.578125 3.84375 155.917969 4.890625 142.722656 4.667969 C 134.777344 4.441406 130.957031 3.691406 123.683594 3.617188 C 113.9375 3.617188 99.773438 5.191406 89.726562 5.191406 C 81.632812 5.117188 76.683594 4.144531 67.988281 3.992188 C 54.945312 3.769531 31.410156 5.417969 19.113281 4.96875 C 11.695312 4.667969 3.824219 4.144531 1.273438 3.242188 C 0.523438 2.945312 0.226562 2.71875 -0.0742188 2.34375 C -0.375 1.894531 -0.523438 1.21875 -0.449219 0.695312 C -0.375 0.246094 -0.0742188 -0.429688 0.300781 -0.730469 C 0.675781 -1.105469 1.875 -1.328125 1.875 -1.328125 " clip-rule="nonzero"/></clipPath></defs><g clip-path="url(#e30e95a389)"><g clip-path="url(#451c01d6d3)"><path fill="#fffb47" d="M 40.851562 2.492188 L 75.109375 2.492188 L 75.109375 59.632812 L 40.851562 59.632812 Z M 40.851562 2.492188 " fill-opacity="1" fill-rule="nonzero"/></g></g><g clip-path="url(#f6c038fa66)"><g clip-path="url(#0df6e58a1e)"><path fill="#fffb47" d="M 78.109375 14.636719 L 117.988281 14.636719 L 117.988281 61.527344 L 78.109375 61.527344 Z M 78.109375 14.636719 " fill-opacity="1" fill-rule="nonzero"/></g></g><g clip-path="url(#38771bdab6)"><g clip-path="url(#3bf151b82e)"><path fill="#fffb47" d="M 123.382812 17.933594 L 148.71875 17.933594 L 148.71875 54.851562 L 123.382812 54.851562 Z M 123.382812 17.933594 " fill-opacity="1" fill-rule="nonzero"/></g></g><g clip-path="url(#85e359e211)"><g clip-path="url(#72e80a259a)"><path fill="#fffb47" d="M 123.382812 18.085938 L 152.992188 18.085938 L 152.992188 58.914062 L 123.382812 58.914062 Z M 123.382812 18.085938 " fill-opacity="1" fill-rule="nonzero"/></g></g><g clip-path="url(#1ab181ae7d)"><g clip-path="url(#b3d2ef9275)"><path fill="#fffb47" d="M 16.191406 12.464844 L 24.292969 12.464844 L 24.292969 20.410156 L 16.191406 20.410156 Z M 16.191406 12.464844 " fill-opacity="1" fill-rule="nonzero"/></g></g><g clip-path="url(#834b641f9a)"><g clip-path="url(#28f069fb1f)"><path fill="#fffb47" d="M 9.371094 8.039062 L 17.691406 8.039062 L 17.691406 16.359375 L 9.371094 16.359375 Z M 9.371094 8.039062 " fill-opacity="1" fill-rule="nonzero"/></g></g><g clip-path="url(#33460bcc2e)"><g clip-path="url(#fd7ca60305)"><path fill="#fffb47" d="M 8.695312 33.003906 L 16.941406 33.003906 L 16.941406 41.246094 L 8.695312 41.246094 Z M 8.695312 33.003906 " fill-opacity="1" fill-rule="nonzero"/></g></g><g clip-path="url(#45e53a4735)"><g clip-path="url(#8540aab02e)"><path fill="#fffb47" d="M 8.695312 52.265625 L 17.015625 52.265625 L 17.015625 60.652344 L 8.695312 60.652344 Z M 8.695312 52.265625 " fill-opacity="1" fill-rule="nonzero"/></g></g><g clip-path="url(#511bdb0904)"><g clip-path="url(#8d70f47a82)"><path fill="#fffb47" d="M 8.546875 14.5625 L 16.867188 14.5625 L 16.867188 22.882812 L 8.546875 22.882812 Z M 8.546875 14.5625 " fill-opacity="1" fill-rule="nonzero"/></g></g><g clip-path="url(#c421a70955)"><g clip-path="url(#08e196c201)"><path fill="#fffb47" d="M 0 25.957031 L 8.320312 25.957031 L 8.320312 34.339844 L 0 34.339844 Z M 0 25.957031 " fill-opacity="1" fill-rule="nonzero"/></g></g><g clip-path="url(#fd783af056)"><g clip-path="url(#e4e8e0e25b)"><path fill="#fffb47" d="M 1.050781 7.515625 L 9.148438 7.515625 L 9.148438 15.460938 L 1.050781 15.460938 Z M 1.050781 7.515625 " fill-opacity="1" fill-rule="nonzero"/></g></g><g clip-path="url(#85fe3bcf93)"><g clip-path="url(#2cbd858aeb)"><path fill="#fffb47" d="M 5.695312 64.5625 L 13.792969 64.5625 L 13.792969 72.8125 L 5.695312 72.8125 Z M 5.695312 64.5625 " fill-opacity="1" fill-rule="nonzero"/></g></g><g clip-path="url(#f412f6ca3a)"><g clip-path="url(#fb9950b3cd)"><path fill="#fffb47" d="M 13.492188 45.371094 L 21.578125 45.371094 L 21.578125 53.390625 L 13.492188 53.390625 Z M 13.492188 45.371094 " fill-opacity="1" fill-rule="nonzero"/></g></g><g clip-path="url(#f8cc5a213c)"><g clip-path="url(#5e78433114)"><path fill="#fffb47" d="M 31.859375 10.289062 L 40.179688 10.289062 L 40.179688 18.609375 L 31.859375 18.609375 Z M 31.859375 10.289062 " fill-opacity="1" fill-rule="nonzero"/></g></g><g clip-path="url(#43e50b61bd)"><g clip-path="url(#e76c3f15d5)"><path fill="#fffb47" d="M 26.761719 49.042969 L 35.082031 49.042969 L 35.082031 57.363281 L 26.761719 57.363281 Z M 26.761719 49.042969 " fill-opacity="1" fill-rule="nonzero"/></g></g><g clip-path="url(#d64e151738)"><g clip-path="url(#3006569243)"><path fill="#fffb47" d="M 21.886719 26.179688 L 29.988281 26.179688 L 29.988281 34.125 L 21.886719 34.125 Z M 21.886719 26.179688 " fill-opacity="1" fill-rule="nonzero"/></g></g><g clip-path="url(#ab93a119cf)"><g clip-path="url(#2d5aa4fa37)"><path fill="#fffb47" d="M 28.035156 59.3125 L 36.582031 59.3125 L 36.582031 67.632812 L 28.035156 67.632812 Z M 28.035156 59.3125 " fill-opacity="1" fill-rule="nonzero"/></g></g><g clip-path="url(#1374f674a7)"><g clip-path="url(#285f36d204)"><path fill="#fffb47" d="M 17.765625 58.5625 L 25.867188 58.5625 L 25.867188 66.507812 L 17.765625 66.507812 Z M 17.765625 58.5625 " fill-opacity="1" fill-rule="nonzero"/></g></g><g clip-path="url(#700bec658e)"><g clip-path="url(#94cec3c685)"><path fill="#fffb47" d="M 38.679688 59.089844 L 47 59.089844 L 47 67.410156 L 38.679688 67.410156 Z M 38.679688 59.089844 " fill-opacity="1" fill-rule="nonzero"/></g></g><g clip-path="url(#9942e145f5)"><g clip-path="url(#58fe302ba2)"><path fill="#fffb47" d="M 69.039062 67.410156 L 77.140625 67.410156 L 77.140625 75.355469 L 69.039062 75.355469 Z M 69.039062 67.410156 " fill-opacity="1" fill-rule="nonzero"/></g></g><g clip-path="url(#2b12f03bf2)"><g clip-path="url(#856bc74d6a)"><path fill="#fffb47" d="M 50.746094 62.3125 L 58.84375 62.3125 L 58.84375 70.46875 L 50.746094 70.46875 Z M 50.746094 62.3125 " fill-opacity="1" fill-rule="nonzero"/></g></g><g clip-path="url(#3002fe708e)"><g clip-path="url(#3005abc638)"><path fill="#fffb47" d="M 59.894531 59.839844 L 67.992188 59.839844 L 67.992188 67.785156 L 59.894531 67.785156 Z M 59.894531 59.839844 " fill-opacity="1" fill-rule="nonzero"/></g></g><g clip-path="url(#9f9f92986f)"><g clip-path="url(#72fa3f496d)"><path fill="#fffb47" d="M 77.582031 55.789062 L 85.683594 55.789062 L 85.683594 63.734375 L 77.582031 63.734375 Z M 77.582031 55.789062 " fill-opacity="1" fill-rule="nonzero"/></g></g><g clip-path="url(#6e1ce31769)"><g clip-path="url(#0a2142228b)"><path fill="#fffb47" d="M 70.460938 35.175781 L 78.5625 35.175781 L 78.5625 43.121094 L 70.460938 43.121094 Z M 70.460938 35.175781 " fill-opacity="1" fill-rule="nonzero"/></g></g><g clip-path="url(#5747fa3fe2)"><g clip-path="url(#c7523ec116)"><path fill="#fffb47" d="M 71.960938 12.238281 L 80.0625 12.238281 L 80.0625 20.183594 L 71.960938 20.183594 Z M 71.960938 12.238281 " fill-opacity="1" fill-rule="nonzero"/></g></g><g clip-path="url(#f7f9650165)"><g clip-path="url(#4e903e2482)"><path fill="#fffb47" d="M 81.03125 6.691406 L 89.132812 6.691406 L 89.132812 14.636719 L 81.03125 14.636719 Z M 81.03125 6.691406 " fill-opacity="1" fill-rule="nonzero"/></g></g><g clip-path="url(#5dbe5875ea)"><g clip-path="url(#f7f61e170c)"><path fill="#fffb47" d="M 63.042969 -0.953125 L 71.363281 -0.953125 L 71.363281 7.367188 L 63.042969 7.367188 Z M 63.042969 -0.953125 " fill-opacity="1" fill-rule="nonzero"/></g></g><g clip-path="url(#3839095592)"><g clip-path="url(#e624d8f01b)"><path fill="#fffb47" d="M 48.347656 13.289062 L 56.519531 13.289062 L 56.519531 21.523438 L 48.347656 21.523438 Z M 48.347656 13.289062 " fill-opacity="1" fill-rule="nonzero"/></g></g><g clip-path="url(#afd4d21587)"><g clip-path="url(#ee5af634ae)"><path fill="#fffb47" d="M 37.703125 22.207031 L 45.949219 22.207031 L 45.949219 30.453125 L 37.703125 30.453125 Z M 37.703125 22.207031 " fill-opacity="1" fill-rule="nonzero"/></g></g><g clip-path="url(#e7b302c25d)"><g clip-path="url(#88c12a7f30)"><path fill="#fffb47" d="M 33.132812 38.175781 L 41.453125 38.175781 L 41.453125 46.496094 L 33.132812 46.496094 Z M 33.132812 38.175781 " fill-opacity="1" fill-rule="nonzero"/></g></g><g clip-path="url(#c63bf1eeed)"><g clip-path="url(#70fb9c2d62)"><path fill="#fffb47" d="M 25.9375 0.996094 L 34.257812 0.996094 L 34.257812 9.316406 L 25.9375 9.316406 Z M 25.9375 0.996094 " fill-opacity="1" fill-rule="nonzero"/></g></g><g clip-path="url(#36fbb51120)"><g clip-path="url(#9555b11204)"><path fill="#fffb47" d="M 43.703125 1.070312 L 51.796875 1.070312 L 51.796875 9.226562 L 43.703125 9.226562 Z M 43.703125 1.070312 " fill-opacity="1" fill-rule="nonzero"/></g></g><g clip-path="url(#d1fb706841)"><g clip-path="url(#c1c7a205ac)"><path fill="#fffb47" d="M 95.050781 60.664062 L 103.359375 60.664062 L 103.359375 68.910156 L 95.050781 68.910156 Z M 95.050781 60.664062 " fill-opacity="1" fill-rule="nonzero"/></g></g><g clip-path="url(#b6532dd871)"><g clip-path="url(#dc578fce53)"><path fill="#fffb47" d="M 83.65625 63.511719 L 91.976562 63.511719 L 91.976562 71.832031 L 83.65625 71.832031 Z M 83.65625 63.511719 " fill-opacity="1" fill-rule="nonzero"/></g></g><g clip-path="url(#bf9930d15e)"><g clip-path="url(#c94dbf409c)"><path fill="#fffb47" d="M 112.589844 60.289062 L 120.910156 60.289062 L 120.910156 68.609375 L 112.589844 68.609375 Z M 112.589844 60.289062 " fill-opacity="1" fill-rule="nonzero"/></g></g><g clip-path="url(#aa855b5eab)"><g clip-path="url(#a7027371cb)"><path fill="#fffb47" d="M 115.363281 33.753906 L 123.464844 33.753906 L 123.464844 41.699219 L 115.363281 41.699219 Z M 115.363281 33.753906 " fill-opacity="1" fill-rule="nonzero"/></g></g><g clip-path="url(#7cf183a78e)"><g clip-path="url(#177430a6bb)"><path fill="#fffb47" d="M 98.796875 42.820312 L 106.898438 42.820312 L 106.898438 50.769531 L 98.796875 50.769531 Z M 98.796875 42.820312 " fill-opacity="1" fill-rule="nonzero"/></g></g><g clip-path="url(#6dee6f50d7)"><g clip-path="url(#39de9bbfc7)"><path fill="#fffb47" d="M 111.914062 21.757812 L 120.234375 21.757812 L 120.234375 30.078125 L 111.914062 30.078125 Z M 111.914062 21.757812 " fill-opacity="1" fill-rule="nonzero"/></g></g><g clip-path="url(#9d202bb8c6)"><g clip-path="url(#c673a7f452)"><path fill="#fffb47" d="M 101.871094 4.21875 L 109.972656 4.21875 L 109.972656 12.164062 L 101.871094 12.164062 Z M 101.871094 4.21875 " fill-opacity="1" fill-rule="nonzero"/></g></g><g clip-path="url(#2b6d4f6140)"><g clip-path="url(#82131fcf86)"><path fill="#fffb47" d="M 85.679688 7.367188 L 93.78125 7.367188 L 93.78125 15.3125 L 85.679688 15.3125 Z M 85.679688 7.367188 " fill-opacity="1" fill-rule="nonzero"/></g></g><g clip-path="url(#a2b2230753)"><g clip-path="url(#1ca929daf9)"><path fill="#fffb47" d="M 118.0625 4.367188 L 126.222656 4.367188 L 126.222656 12.464844 L 118.0625 12.464844 Z M 118.0625 4.367188 " fill-opacity="1" fill-rule="nonzero"/></g></g><g clip-path="url(#1011fbe014)"><g clip-path="url(#6c3c79bf0e)"><path fill="#fffb47" d="M 135.003906 2.570312 L 143.324219 2.570312 L 143.324219 10.890625 L 135.003906 10.890625 Z M 135.003906 2.570312 " fill-opacity="1" fill-rule="nonzero"/></g></g><g clip-path="url(#bf1c8a7e9d)"><g clip-path="url(#da12394f3b)"><path fill="#fffb47" d="M 133.578125 18.835938 L 141.898438 18.835938 L 141.898438 27.15625 L 133.578125 27.15625 Z M 133.578125 18.835938 " fill-opacity="1" fill-rule="nonzero"/></g></g><g clip-path="url(#5c2d30ed33)"><g clip-path="url(#ac9137581e)"><path fill="#fffb47" d="M 156.816406 4.292969 L 165.136719 4.292969 L 165.136719 12.613281 L 156.816406 12.613281 Z M 156.816406 4.292969 " fill-opacity="1" fill-rule="nonzero"/></g></g><g clip-path="url(#09853267f8)"><g clip-path="url(#bd73390b4d)"><path fill="#fffb47" d="M 151.34375 30.679688 L 159.75 30.679688 L 159.75 38.925781 L 151.34375 38.925781 Z M 151.34375 30.679688 " fill-opacity="1" fill-rule="nonzero"/></g></g><g clip-path="url(#1d6796d25b)"><g clip-path="url(#ea9e52b8ee)"><path fill="#fffb47" d="M 143.546875 53.542969 L 151.867188 53.542969 L 151.867188 61.863281 L 143.546875 61.863281 Z M 143.546875 53.542969 " fill-opacity="1" fill-rule="nonzero"/></g></g><g clip-path="url(#8490fa3f02)"><g clip-path="url(#47dcd2a742)"><path fill="#fffb47" d="M 129.90625 55.039062 L 137.988281 55.039062 L 137.988281 63.0625 L 129.90625 63.0625 Z M 129.90625 55.039062 " fill-opacity="1" fill-rule="nonzero"/></g></g><g clip-path="url(#5c5dc6e13e)"><g clip-path="url(#2f4cbeccbd)"><path fill="#fffb47" d="M 129.90625 61.785156 L 138.078125 61.785156 L 138.078125 69.957031 L 129.90625 69.957031 Z M 129.90625 61.785156 " fill-opacity="1" fill-rule="nonzero"/></g></g><g clip-path="url(#79a7272517)"><g clip-path="url(#d41f20491f)"><path fill="#fffb47" d="M 118.8125 65.460938 L 126.914062 65.460938 L 126.914062 73.40625 L 118.8125 73.40625 Z M 118.8125 65.460938 " fill-opacity="1" fill-rule="nonzero"/></g></g><g clip-path="url(#b4e4fad7f0)"><g clip-path="url(#5b53b81ed6)"><path fill="#fffb47" d="M 163.414062 35.027344 L 171.734375 35.027344 L 171.734375 43.347656 L 163.414062 43.347656 Z M 163.414062 35.027344 " fill-opacity="1" fill-rule="nonzero"/></g></g><g clip-path="url(#bb83531c47)"><g clip-path="url(#fac327a7e6)"><path fill="#fffb47" d="M 172.558594 17.710938 L 180.660156 17.710938 L 180.660156 25.65625 L 172.558594 25.65625 Z M 172.558594 17.710938 " fill-opacity="1" fill-rule="nonzero"/></g></g><g clip-path="url(#779d81796f)"><g clip-path="url(#60dafb1d62)"><path fill="#fffb47" d="M 155.167969 13.886719 L 163.269531 13.886719 L 163.269531 21.832031 L 155.167969 21.832031 Z M 155.167969 13.886719 " fill-opacity="1" fill-rule="nonzero"/></g></g><g clip-path="url(#0e28aceb43)"><g clip-path="url(#c493a9450e)"><path fill="#fffb47" d="M 163.636719 19.433594 L 171.738281 19.433594 L 171.738281 27.378906 L 163.636719 27.378906 Z M 163.636719 19.433594 " fill-opacity="1" fill-rule="nonzero"/></g></g><g clip-path="url(#93e927b79d)"><g clip-path="url(#24d65f45c8)"><path fill="#fffb47" d="M 156.367188 50.617188 L 164.6875 50.617188 L 164.6875 58.9375 L 156.367188 58.9375 Z M 156.367188 50.617188 " fill-opacity="1" fill-rule="nonzero"/></g></g><g clip-path="url(#bd30bd6326)"><g clip-path="url(#5d54f9f3b3)"><path fill="#fffb47" d="M 156.140625 38.25 L 164.460938 38.25 L 164.460938 46.570312 L 156.140625 46.570312 Z M 156.140625 38.25 " fill-opacity="1" fill-rule="nonzero"/></g></g><g clip-path="url(#c4c663d314)"><g clip-path="url(#73a1dcaf11)"><path fill="#fffb47" d="M 152.394531 66.960938 L 160.714844 66.960938 L 160.714844 75.28125 L 152.394531 75.28125 Z M 152.394531 66.960938 " fill-opacity="1" fill-rule="nonzero"/></g></g><g clip-path="url(#0ebabf2854)"><g clip-path="url(#7a51a44072)"><path fill="#fffb47" d="M 146.695312 58.863281 L 155.015625 58.863281 L 155.015625 67.183594 L 146.695312 67.183594 Z M 146.695312 58.863281 " fill-opacity="1" fill-rule="nonzero"/></g></g><g clip-path="url(#3f34a72b63)"><g clip-path="url(#4ca70c4eda)"><path fill="#fffb47" d="M 167.386719 57.289062 L 175.707031 57.289062 L 175.707031 65.609375 L 167.386719 65.609375 Z M 167.386719 57.289062 " fill-opacity="1" fill-rule="nonzero"/></g></g><g clip-path="url(#77493b3a5d)"><g clip-path="url(#a31653c541)"><path fill="#fffb47" d="M 173.457031 29.03125 L 181.777344 29.03125 L 181.777344 37.511719 L 173.457031 37.511719 Z M 173.457031 29.03125 " fill-opacity="1" fill-rule="nonzero"/></g></g><g clip-path="url(#9753c90a86)"><g clip-path="url(#b3bdc711fb)"><path fill="#fffb47" d="M 173.382812 5.71875 L 181.703125 5.71875 L 181.703125 14.039062 L 173.382812 14.039062 Z M 173.382812 5.71875 " fill-opacity="1" fill-rule="nonzero"/></g></g><g clip-path="url(#9d4072e04d)"><g clip-path="url(#a00e959f15)"><path fill="#fffb47" d="M 188.75 5.941406 L 196.996094 5.941406 L 196.996094 14.1875 L 188.75 14.1875 Z M 188.75 5.941406 " fill-opacity="1" fill-rule="nonzero"/></g></g><g clip-path="url(#ef3beb44b8)"><g clip-path="url(#80aa14b391)"><path fill="#fffb47" d="M 199.992188 29.253906 L 208.3125 29.253906 L 208.3125 37.574219 L 199.992188 37.574219 Z M 199.992188 29.253906 " fill-opacity="1" fill-rule="nonzero"/></g></g><g clip-path="url(#6a9e5b2aad)"><g clip-path="url(#3b92e762cb)"><path fill="#fffb47" d="M 189.949219 20.933594 L 198.050781 20.933594 L 198.050781 28.878906 L 189.949219 28.878906 Z M 189.949219 20.933594 " fill-opacity="1" fill-rule="nonzero"/></g></g><g clip-path="url(#5aca25a68a)"><g clip-path="url(#2ff852d098)"><path fill="#fffb47" d="M 187.25 48.519531 L 195.421875 48.519531 L 195.421875 56.691406 L 187.25 56.691406 Z M 187.25 48.519531 " fill-opacity="1" fill-rule="nonzero"/></g></g><g clip-path="url(#27a186371f)"><g clip-path="url(#36f949032c)"><path fill="#fffb47" d="M 175.332031 43.121094 L 183.652344 43.121094 L 183.652344 51.441406 L 175.332031 51.441406 Z M 175.332031 43.121094 " fill-opacity="1" fill-rule="nonzero"/></g></g><g clip-path="url(#ea3dea3832)"><g clip-path="url(#d6736fdc52)"><path fill="#fffb47" d="M 189.648438 36.226562 L 197.96875 36.226562 L 197.96875 44.546875 L 189.648438 44.546875 Z M 189.648438 36.226562 " fill-opacity="1" fill-rule="nonzero"/></g></g><g clip-path="url(#85267e446c)"><g clip-path="url(#78f00c7beb)"><path fill="#fffb47" d="M 197.894531 53.089844 L 206.214844 53.089844 L 206.214844 61.414062 L 197.894531 61.414062 Z M 197.894531 53.089844 " fill-opacity="1" fill-rule="nonzero"/></g></g><g clip-path="url(#6a7764fdc3)"><g clip-path="url(#e054573c8d)"><path fill="#fffb47" d="M 179.902344 59.613281 L 188.003906 59.613281 L 188.003906 67.558594 L 179.902344 67.558594 Z M 179.902344 59.613281 " fill-opacity="1" fill-rule="nonzero"/></g></g><g clip-path="url(#f8d63f5e92)"><g clip-path="url(#c4163678dc)"><path fill="#fffb47" d="M 204.789062 38.472656 L 213.109375 38.472656 L 213.109375 46.796875 L 204.789062 46.796875 Z M 204.789062 38.472656 " fill-opacity="1" fill-rule="nonzero"/></g></g><g clip-path="url(#e9372fff00)"><g clip-path="url(#2a09758786)"><path fill="#fffb47" d="M 203.742188 9.089844 L 211.84375 9.089844 L 211.84375 17.035156 L 203.742188 17.035156 Z M 203.742188 9.089844 " fill-opacity="1" fill-rule="nonzero"/></g></g><g clip-path="url(#4d6d76fe9c)"><g clip-path="url(#8b99791adf)"><path fill="#fffb47" d="M 210.488281 57.515625 L 218.660156 57.515625 L 218.660156 65.84375 L 210.488281 65.84375 Z M 210.488281 57.515625 " fill-opacity="1" fill-rule="nonzero"/></g></g><g clip-path="url(#a8d505c3b9)"><g clip-path="url(#f003b8b243)"><path fill="#fffb47" d="M 206.289062 19.433594 L 214.3125 19.433594 L 214.3125 27.519531 L 206.289062 27.519531 Z M 206.289062 19.433594 " fill-opacity="1" fill-rule="nonzero"/></g></g><g clip-path="url(#de53189ba7)"><g clip-path="url(#8d34b0c4e6)"><path fill="#fffb47" d="M 191.222656 64.1875 L 199.324219 64.1875 L 199.324219 72.132812 L 191.222656 72.132812 Z M 191.222656 64.1875 " fill-opacity="1" fill-rule="nonzero"/></g></g><g clip-path="url(#231a198fbc)"><g clip-path="url(#5f6127cc34)"><path fill="#fffb47" d="M 173.980469 62.761719 L 182.082031 62.761719 L 182.082031 70.707031 L 173.980469 70.707031 Z M 173.980469 62.761719 " fill-opacity="1" fill-rule="nonzero"/></g></g><g clip-path="url(#4e511444f4)"><g clip-path="url(#5a52de9230)"><path fill="#fffb47" d="M 176.457031 45.59375 L 184.777344 45.59375 L 184.777344 53.917969 L 176.457031 53.917969 Z M 176.457031 45.59375 " fill-opacity="1" fill-rule="nonzero"/></g></g><g clip-path="url(#57cf84524b)"><g clip-path="url(#d7e06f39af)"><path fill="#1e1e1e" d="M -2.625 -4.550781 L 7.503906 -4.550781 L 7.503906 5.265625 L -2.625 5.265625 Z M -2.625 -4.550781 " fill-opacity="1" fill-rule="nonzero"/></g></g><g clip-path="url(#989d9b9c83)"><g clip-path="url(#79c50c4b00)"><rect x="-22.487999" width="269.855988" fill="#1e1e1e" y="-7.5" height="89.999996" fill-opacity="1"/></g></g></svg>