<svg xmlns="http://www.w3.org/2000/svg" xmlns:xlink="http://www.w3.org/1999/xlink" width="300" zoomAndPan="magnify" viewBox="0 0 224.87999 74.999997" height="100" preserveAspectRatio="xMidYMid meet" version="1.0"><defs><clipPath id="d34ecc5a19"><path d="M 7.214844 12.6875 L 35.398438 12.6875 L 35.398438 46.589844 L 7.214844 46.589844 Z M 7.214844 12.6875 " clip-rule="nonzero"/></clipPath><clipPath id="0b1db3a3eb"><path d="M 10.195312 18.910156 C 16.492188 22.28125 18.816406 23.183594 20.539062 23.332031 C 21.886719 23.484375 23.011719 23.183594 24.210938 22.808594 C 25.488281 22.433594 27.359375 21.757812 27.960938 20.933594 C 28.410156 20.410156 28.484375 19.585938 28.335938 18.984375 C 28.183594 18.460938 27.660156 17.785156 26.984375 17.5625 C 26.085938 17.109375 24.0625 17.1875 22.789062 17.484375 C 21.511719 17.859375 20.015625 18.761719 19.265625 19.660156 C 18.664062 20.257812 18.515625 21.007812 18.214844 21.910156 C 17.765625 22.957031 17.164062 24.605469 17.089844 25.730469 C 17.015625 26.480469 17.164062 26.78125 17.316406 27.753906 C 17.839844 29.929688 19.488281 36.074219 20.6875 38.550781 C 21.4375 39.972656 22.1875 41.171875 23.085938 41.546875 C 23.6875 41.847656 24.285156 41.773438 25.113281 41.398438 C 26.910156 40.574219 30.734375 35.101562 32.53125 34.578125 C 33.355469 34.351562 34.105469 34.652344 34.632812 35.027344 C 35.082031 35.402344 35.457031 36.300781 35.382812 36.976562 C 35.304688 37.574219 34.78125 38.472656 34.257812 38.699219 C 33.582031 39 32.082031 38.773438 31.558594 38.25 C 31.109375 37.875 30.882812 36.898438 30.957031 36.300781 C 31.109375 35.699219 31.78125 34.875 32.308594 34.652344 C 32.90625 34.425781 33.957031 34.5 34.40625 34.875 C 35.007812 35.324219 35.53125 36.449219 35.304688 37.425781 C 34.855469 39.449219 29.308594 43.871094 27.359375 45.296875 C 26.386719 45.96875 25.9375 46.421875 24.960938 46.496094 C 23.835938 46.644531 22.261719 46.195312 21.0625 45.59375 C 19.863281 44.921875 18.664062 43.945312 17.765625 42.671875 C 16.792969 41.246094 15.964844 38.625 15.589844 37.050781 C 15.292969 36 15.066406 34.5 15.292969 34.351562 C 15.515625 34.277344 16.714844 36.074219 16.714844 36 C 16.714844 36 14.691406 33.976562 14.015625 32.550781 C 13.269531 30.902344 12.667969 28.578125 12.59375 26.554688 C 12.59375 24.53125 13.269531 22.433594 13.941406 20.558594 C 14.691406 18.761719 15.367188 16.734375 16.867188 15.460938 C 18.589844 13.960938 22.1875 12.914062 24.363281 12.761719 C 26.011719 12.613281 27.433594 12.6875 28.710938 13.4375 C 30.359375 14.414062 32.382812 16.8125 32.90625 18.535156 C 33.28125 19.882812 32.683594 21.832031 32.15625 22.808594 C 31.859375 23.484375 31.484375 23.78125 30.808594 24.308594 C 29.535156 25.207031 26.234375 26.855469 24.511719 27.304688 C 23.539062 27.605469 22.9375 27.605469 21.964844 27.605469 C 20.765625 27.605469 19.566406 27.605469 17.992188 27.15625 C 15.367188 26.332031 9.445312 23.855469 8.09375 22.132812 C 7.421875 21.308594 7.195312 20.257812 7.421875 19.660156 C 7.570312 19.210938 8.320312 18.761719 8.84375 18.609375 C 9.296875 18.535156 10.195312 18.910156 10.195312 18.910156 " clip-rule="nonzero"/></clipPath><clipPath id="fc1df428a0"><path d="M 41.316406 12.703125 L 77.808594 12.703125 L 77.808594 45.730469 L 41.316406 45.730469 Z M 41.316406 12.703125 " clip-rule="nonzero"/></clipPath><clipPath id="93fca978e7"><path d="M 46.699219 14.863281 C 46.101562 44.097656 45.652344 44.695312 45.050781 44.996094 C 44.453125 45.222656 43.476562 45.070312 43.027344 44.769531 C 42.503906 44.394531 42.277344 43.945312 42.050781 42.972656 C 41.304688 39.75 41.976562 26.105469 42.953125 21.082031 C 43.476562 18.386719 44.078125 16.4375 45.199219 15.011719 C 46.027344 13.960938 47.449219 13.0625 48.425781 12.839844 C 49.097656 12.6875 49.625 12.761719 50.375 13.0625 C 51.648438 13.585938 53.597656 15.3125 54.945312 16.886719 C 56.371094 18.535156 57.71875 20.183594 58.46875 22.882812 C 59.59375 27.378906 59.144531 39.222656 57.945312 41.921875 C 57.570312 42.820312 57.121094 43.195312 56.519531 43.421875 C 55.921875 43.570312 54.945312 43.421875 54.421875 43.046875 C 53.972656 42.671875 53.671875 41.996094 53.597656 41.097656 C 53.445312 39.675781 55.09375 36.898438 55.019531 34.800781 C 55.019531 32.777344 53.519531 30.304688 53.445312 28.730469 C 53.445312 27.753906 53.597656 27.378906 53.972656 26.40625 C 54.796875 24.308594 57.121094 19.433594 58.84375 17.335938 C 60.042969 15.910156 61.390625 14.9375 62.441406 14.414062 C 63.117188 14.113281 63.640625 13.886719 64.316406 14.039062 C 65.289062 14.1875 66.566406 14.863281 67.6875 15.988281 C 69.488281 17.785156 71.8125 21.535156 73.085938 24.683594 C 74.433594 27.90625 75.484375 31.804688 75.484375 35.027344 C 75.410156 37.800781 74.210938 42.820312 73.386719 42.972656 C 73.011719 43.046875 72.035156 41.847656 72.113281 41.246094 C 72.1875 40.574219 73.6875 39.375 74.433594 39 C 74.960938 38.699219 75.410156 38.550781 75.859375 38.699219 C 76.535156 38.925781 77.582031 39.972656 77.734375 40.648438 C 77.882812 41.324219 77.507812 42.222656 76.984375 42.671875 C 76.535156 43.046875 75.558594 43.273438 74.960938 43.121094 C 74.359375 42.972656 73.609375 42.296875 73.386719 41.699219 C 73.234375 41.097656 73.386719 40.125 73.761719 39.597656 C 74.058594 39.148438 75.035156 38.699219 75.632812 38.699219 C 76.234375 38.699219 77.058594 39.300781 77.433594 39.75 C 77.734375 40.125 77.882812 40.648438 77.734375 41.171875 C 77.582031 42.148438 76.160156 44.246094 74.960938 44.921875 C 73.6875 45.59375 71.363281 45.894531 70.386719 45.371094 C 69.5625 44.996094 69.113281 44.097656 68.964844 42.972656 C 68.664062 41.171875 70.988281 37.648438 70.988281 35.027344 C 71.0625 32.328125 70.164062 29.480469 69.1875 27.003906 C 68.136719 24.457031 66.414062 20.785156 65.066406 19.808594 C 64.390625 19.285156 63.714844 19.058594 63.042969 19.285156 C 62.140625 19.585938 61.316406 21.234375 60.492188 22.582031 C 59.519531 24.382812 57.945312 27.082031 57.792969 29.105469 C 57.71875 30.902344 59.21875 32.476562 59.441406 34.203125 C 59.59375 35.925781 59.292969 37.949219 58.917969 39.449219 C 58.617188 40.722656 58.09375 42.222656 57.417969 42.820312 C 56.96875 43.273438 56.445312 43.496094 55.996094 43.496094 C 55.46875 43.570312 54.871094 43.347656 54.421875 43.046875 C 54.046875 42.671875 53.820312 42.148438 53.597656 41.097656 C 53.070312 38.324219 54.496094 27.15625 54.195312 24.308594 C 54.046875 23.257812 54.046875 23.03125 53.597656 22.207031 C 52.847656 20.859375 50 17.035156 48.949219 17.261719 C 47.898438 17.5625 47.449219 20.558594 47 23.109375 C 46.175781 27.832031 47.523438 40.648438 46.398438 43.496094 C 46.027344 44.394531 45.574219 44.769531 45.050781 44.996094 C 44.453125 45.222656 43.476562 45.070312 43.027344 44.769531 C 42.503906 44.394531 42.277344 43.945312 42.050781 42.972656 C 41.152344 39.148438 41.003906 17.859375 42.878906 14.414062 C 43.402344 13.363281 44.375 12.914062 44.976562 12.988281 C 45.652344 13.0625 46.699219 14.863281 46.699219 14.863281 " clip-rule="nonzero"/></clipPath><clipPath id="d66e031042"><path d="M 78.589844 13 L 100.511719 13 L 100.511719 61.324219 L 78.589844 61.324219 Z M 78.589844 13 " clip-rule="nonzero"/></clipPath><clipPath id="3d6b5d0861"><path d="M 87.101562 15.011719 C 86.355469 32.851562 85.078125 44.394531 84.03125 47.769531 C 83.65625 48.96875 83.355469 49.570312 82.832031 50.019531 C 82.457031 50.394531 81.929688 50.617188 81.40625 50.542969 C 80.808594 50.46875 79.980469 50.019531 79.609375 49.570312 C 79.308594 49.117188 79.308594 48.070312 79.308594 48.070312 C 79.308594 48.070312 79.382812 49.269531 79.757812 49.570312 C 80.355469 49.941406 82.15625 48.894531 82.753906 49.195312 C 83.207031 49.492188 83.28125 50.167969 83.429688 50.992188 C 83.804688 52.640625 83.957031 57.066406 83.503906 58.789062 C 83.28125 59.761719 83.054688 60.585938 82.457031 60.960938 C 81.855469 61.335938 80.507812 61.261719 79.90625 60.886719 C 79.457031 60.664062 79.15625 60.136719 79.007812 59.613281 C 78.78125 58.789062 79.007812 57.964844 79.234375 56.316406 C 79.832031 51.890625 83.730469 38.472656 84.328125 31.203125 C 84.78125 25.730469 83.503906 19.585938 83.804688 16.734375 C 83.957031 15.535156 83.878906 14.710938 84.480469 14.1875 C 85.304688 13.4375 87.253906 13.363281 88.753906 13.289062 C 90.625 13.136719 93.101562 13.0625 94.824219 13.886719 C 96.625 14.710938 98.574219 16.734375 99.472656 18.386719 C 100.222656 19.808594 100.597656 21.308594 100.445312 23.03125 C 100.222656 25.507812 98.046875 29.179688 96.625 31.652344 C 95.5 33.753906 94.375 35.777344 92.949219 37.050781 C 91.824219 38.101562 90.625 38.699219 89.203125 39.148438 C 87.628906 39.597656 85.003906 40.199219 83.878906 39.597656 C 83.054688 39.222656 82.304688 38.101562 82.304688 37.425781 C 82.382812 36.675781 83.355469 35.550781 84.03125 35.402344 C 84.628906 35.175781 85.605469 35.476562 86.054688 35.925781 C 86.503906 36.300781 86.804688 37.273438 86.730469 37.875 C 86.652344 38.472656 86.054688 39.300781 85.453125 39.523438 C 84.929688 39.75 83.957031 39.75 83.429688 39.449219 C 82.90625 39.148438 82.382812 38.25 82.304688 37.648438 C 82.230469 37.199219 82.304688 36.75 82.679688 36.300781 C 83.65625 35.25 88.078125 35.402344 90.101562 33.601562 C 92.800781 31.277344 96.171875 24.757812 96.023438 21.984375 C 96.023438 20.484375 95.050781 19.359375 94 18.535156 C 92.726562 17.484375 89.351562 15.910156 88.304688 16.660156 C 86.953125 17.710938 89.050781 23.78125 88.902344 27.230469 C 88.828125 30.753906 88.226562 33.601562 87.554688 37.648438 C 86.652344 43.648438 84.855469 56.613281 83.355469 59.6875 C 82.90625 60.585938 82.53125 60.960938 82.007812 61.1875 C 81.40625 61.414062 80.433594 61.261719 79.90625 60.886719 C 79.457031 60.585938 79.15625 59.988281 79.007812 59.089844 C 78.484375 57.066406 78.632812 50.769531 79.082031 48.667969 C 79.234375 47.769531 79.382812 47.246094 79.832031 46.796875 C 80.207031 46.421875 80.957031 46.046875 81.554688 46.121094 C 82.15625 46.195312 83.128906 46.71875 83.429688 47.246094 C 83.730469 47.769531 83.804688 48.667969 83.503906 49.195312 C 83.128906 49.792969 81.632812 50.617188 80.882812 50.46875 C 80.207031 50.316406 79.609375 49.644531 79.308594 48.59375 C 78.40625 45.296875 82.230469 32.703125 82.832031 26.40625 C 83.28125 21.832031 82.230469 16.511719 83.355469 14.5625 C 83.804688 13.585938 84.78125 12.988281 85.453125 13.0625 C 86.054688 13.136719 87.101562 15.011719 87.101562 15.011719 " clip-rule="nonzero"/></clipPath><clipPath id="a09e0af387"><path d="M 101.136719 3.859375 L 109.613281 3.859375 L 109.613281 43.417969 L 101.136719 43.417969 Z M 101.136719 3.859375 " clip-rule="nonzero"/></clipPath><clipPath id="27ce6e8cb5"><path d="M 109.589844 5.792969 C 107.417969 33.675781 106.742188 36.527344 106.21875 38.699219 C 105.917969 40.046875 105.84375 41.171875 105.320312 41.996094 C 104.945312 42.597656 104.417969 43.195312 103.894531 43.347656 C 103.292969 43.496094 102.320312 43.273438 101.945312 42.898438 C 101.496094 42.371094 101.195312 41.023438 101.421875 40.347656 C 101.644531 39.824219 102.46875 39.300781 102.996094 39.222656 C 103.59375 39.074219 104.496094 39.449219 104.867188 39.824219 C 105.320312 40.273438 105.542969 41.171875 105.394531 41.773438 C 105.242188 42.371094 104.644531 43.046875 104.042969 43.273438 C 103.519531 43.496094 102.621094 43.347656 102.09375 43.046875 C 101.644531 42.671875 101.347656 42.148438 101.195312 41.246094 C 100.894531 38.925781 103.371094 32.925781 104.121094 27.90625 C 105.09375 21.382812 104.269531 8.265625 105.917969 5.34375 C 106.441406 4.367188 107.34375 3.84375 107.941406 3.917969 C 108.542969 3.992188 109.589844 5.792969 109.589844 5.792969 " clip-rule="nonzero"/></clipPath><clipPath id="17d121e550"><path d="M 98.058594 9.144531 L 116.449219 9.144531 L 116.449219 15.199219 L 98.058594 15.199219 Z M 98.058594 9.144531 " clip-rule="nonzero"/></clipPath><clipPath id="f20020f8a5"><path d="M 99.996094 9.164062 C 115.8125 11.414062 116.261719 11.789062 116.339844 12.386719 C 116.488281 13.0625 115.964844 14.414062 115.363281 14.710938 C 114.839844 15.085938 113.414062 14.863281 112.890625 14.488281 C 112.441406 14.113281 112.140625 13.136719 112.289062 12.613281 C 112.363281 12.011719 112.890625 11.265625 113.488281 11.039062 C 114.089844 10.8125 115.4375 11.113281 115.964844 11.640625 C 116.339844 12.011719 116.5625 12.988281 116.339844 13.511719 C 116.113281 14.113281 115.363281 14.789062 114.3125 15.011719 C 111.691406 15.6875 101.195312 14.261719 99.097656 12.839844 C 98.347656 12.238281 97.972656 11.488281 98.121094 10.890625 C 98.199219 10.214844 99.996094 9.164062 99.996094 9.164062 " clip-rule="nonzero"/></clipPath><clipPath id="43eef5017f"><path d="M 117.136719 15.96875 L 123.328125 15.96875 L 123.328125 44.832031 L 117.136719 44.832031 Z M 117.136719 15.96875 " clip-rule="nonzero"/></clipPath><clipPath id="5948c3e236"><path d="M 123.308594 17.933594 C 120.984375 44.320312 120.085938 44.769531 119.410156 44.769531 C 118.8125 44.769531 118.0625 44.171875 117.6875 43.722656 C 117.460938 43.347656 117.386719 42.820312 117.386719 42.371094 C 117.460938 41.921875 117.6875 41.472656 117.988281 41.171875 C 118.4375 40.796875 119.335938 40.421875 119.859375 40.5 C 120.386719 40.574219 120.835938 40.796875 121.136719 41.171875 C 121.433594 41.546875 121.808594 42.523438 121.660156 43.046875 C 121.433594 43.722656 120.3125 44.621094 119.636719 44.769531 C 119.1875 44.847656 118.738281 44.695312 118.363281 44.394531 C 117.910156 44.023438 117.613281 43.570312 117.386719 42.597656 C 116.710938 39.148438 117.6875 20.632812 119.5625 17.410156 C 120.085938 16.4375 120.984375 15.910156 121.660156 15.988281 C 122.257812 16.0625 123.308594 17.933594 123.308594 17.933594 " clip-rule="nonzero"/></clipPath><clipPath id="5a4f130418"><path d="M 121.207031 7 L 124.808594 7 L 124.808594 9.976562 L 121.207031 9.976562 Z M 121.207031 7 " clip-rule="nonzero"/></clipPath><clipPath id="6e3f3a0f46"><path d="M 124.808594 8.039062 C 123.234375 10.515625 121.734375 10.066406 121.359375 9.539062 C 121.058594 9.015625 121.359375 7.515625 121.808594 7.140625 C 122.335938 6.765625 124.359375 7.292969 124.359375 7.292969 " clip-rule="nonzero"/></clipPath><clipPath id="34ea42f1e7"><path d="M 119.371094 7.214844 L 122.9375 7.214844 L 122.9375 10.273438 L 119.371094 10.273438 Z M 119.371094 7.214844 " clip-rule="nonzero"/></clipPath><clipPath id="1898ba511e"><path d="M 122.933594 8.265625 C 121.359375 10.8125 119.859375 10.363281 119.5625 9.839844 C 119.1875 9.316406 119.484375 7.742188 120.011719 7.367188 C 120.460938 6.992188 122.484375 7.515625 122.484375 7.515625 " clip-rule="nonzero"/></clipPath><clipPath id="629e39b5e9"><path d="M 120.082031 7.289062 L 123.613281 7.289062 L 123.613281 10.347656 L 120.082031 10.347656 Z M 120.082031 7.289062 " clip-rule="nonzero"/></clipPath><clipPath id="3b51ae2a51"><path d="M 123.609375 8.414062 C 122.035156 10.890625 120.535156 10.4375 120.234375 9.914062 C 119.9375 9.390625 120.160156 7.816406 120.6875 7.441406 C 121.136719 7.066406 123.160156 7.589844 123.160156 7.589844 " clip-rule="nonzero"/></clipPath><clipPath id="0762e403d8"><path d="M 121.433594 9.199219 L 124.960938 9.199219 L 124.960938 12.226562 L 121.433594 12.226562 Z M 121.433594 9.199219 " clip-rule="nonzero"/></clipPath><clipPath id="f183fd3d2d"><path d="M 124.957031 10.289062 C 123.382812 12.761719 121.886719 12.3125 121.585938 11.789062 C 121.285156 11.265625 121.585938 9.765625 122.035156 9.390625 C 122.558594 8.941406 124.507812 9.539062 124.507812 9.539062 " clip-rule="nonzero"/></clipPath><clipPath id="dbc73360d9"><path d="M 119.78125 9.199219 L 123.3125 9.199219 L 123.3125 12.226562 L 119.78125 12.226562 Z M 119.78125 9.199219 " clip-rule="nonzero"/></clipPath><clipPath id="35ad2bd8c5"><path d="M 123.308594 10.289062 C 121.734375 12.761719 120.234375 12.3125 119.9375 11.789062 C 119.636719 11.265625 119.9375 9.765625 120.386719 9.390625 C 120.910156 8.941406 122.859375 9.539062 122.859375 9.539062 " clip-rule="nonzero"/></clipPath><clipPath id="a045ebeb75"><path d="M 127.742188 15.601562 L 152.585938 15.601562 L 152.585938 43.992188 L 127.742188 43.992188 Z M 127.742188 15.601562 " clip-rule="nonzero"/></clipPath><clipPath id="d68ce9f6aa"><path d="M 132.078125 17.859375 C 134.703125 41.324219 134.851562 41.699219 134.476562 42.222656 C 134.101562 42.898438 132.828125 44.023438 132.078125 43.945312 C 131.40625 43.945312 130.582031 43.195312 130.207031 42.222656 C 129.304688 40.199219 130.28125 33.976562 130.730469 30.605469 C 131.179688 28.054688 131.703125 26.03125 132.527344 23.855469 C 133.355469 21.757812 134.253906 19.136719 135.675781 17.785156 C 136.800781 16.660156 138.527344 15.910156 139.949219 15.761719 C 141.226562 15.613281 142.796875 15.835938 143.847656 16.660156 C 145.273438 17.710938 146.398438 19.808594 146.996094 22.28125 C 147.972656 26.179688 146.097656 35.550781 146.546875 38.175781 C 146.773438 39.074219 147.519531 39.75 147.296875 39.898438 C 147.144531 40.125 145.421875 39.824219 145.273438 39.375 C 145.046875 38.550781 147.972656 35.027344 149.246094 34.425781 C 149.996094 34.050781 150.820312 34.125 151.34375 34.425781 C 151.867188 34.726562 152.394531 35.625 152.46875 36.226562 C 152.542969 36.824219 152.167969 37.726562 151.644531 38.175781 C 151.195312 38.550781 150.21875 38.699219 149.621094 38.550781 C 149.019531 38.398438 148.347656 37.648438 148.121094 37.050781 C 147.972656 36.449219 148.121094 35.476562 148.496094 35.027344 C 149.019531 34.5 150.445312 34.050781 151.121094 34.351562 C 151.792969 34.652344 152.542969 35.777344 152.46875 36.675781 C 152.320312 38.398438 148.347656 42.898438 146.695312 43.570312 C 145.871094 43.871094 145.046875 43.648438 144.449219 43.347656 C 143.921875 43.046875 143.625 42.449219 143.25 41.847656 C 142.796875 40.875 142.425781 39.597656 142.199219 37.800781 C 141.75 34.425781 143.097656 25.28125 142.648438 22.808594 C 142.425781 21.910156 142.273438 21.457031 141.898438 21.007812 C 141.449219 20.558594 140.625 20.183594 140.023438 20.183594 C 139.425781 20.183594 138.902344 20.558594 138.375 21.160156 C 137.328125 22.359375 136.128906 25.730469 135.453125 28.65625 C 134.628906 32.402344 135.527344 41.472656 134.402344 41.921875 C 133.953125 42.148438 133.203125 40.574219 132.527344 40.347656 C 131.929688 40.199219 131.03125 41.023438 130.503906 40.574219 C 128.554688 39 126.980469 21.082031 128.257812 17.933594 C 128.632812 16.8125 129.457031 16.210938 130.128906 16.210938 C 130.730469 16.136719 132.078125 17.859375 132.078125 17.859375 " clip-rule="nonzero"/></clipPath><clipPath id="abc3737180"><path d="M 154.730469 13.390625 L 176.035156 13.390625 L 176.035156 44.234375 L 154.730469 44.234375 Z M 154.730469 13.390625 " clip-rule="nonzero"/></clipPath><clipPath id="8f1db2f1f9"><path d="M 156.667969 23.632812 C 165.660156 24.007812 165.960938 23.632812 166.261719 22.957031 C 166.785156 22.132812 167.535156 20.035156 167.011719 19.136719 C 166.484375 18.234375 164.011719 17.335938 162.964844 17.859375 C 161.613281 18.386719 160.714844 21.457031 160.191406 23.40625 C 159.664062 25.355469 159.515625 27.378906 159.738281 29.40625 C 159.964844 31.351562 160.789062 33.675781 161.539062 35.324219 C 162.136719 36.601562 162.886719 37.800781 163.636719 38.472656 C 164.164062 39 164.539062 39.375 165.285156 39.523438 C 166.261719 39.675781 167.683594 39.375 168.960938 39 C 170.382812 38.472656 172.109375 36.449219 173.382812 36.375 C 174.355469 36.375 175.480469 36.976562 175.855469 37.648438 C 176.15625 38.324219 175.78125 39.824219 175.257812 40.347656 C 174.808594 40.796875 173.832031 40.949219 173.234375 40.796875 C 172.632812 40.648438 171.808594 39.972656 171.660156 39.375 C 171.507812 38.699219 171.882812 37.199219 172.484375 36.75 C 173.082031 36.375 174.65625 36.527344 175.257812 36.898438 C 175.632812 37.125 175.929688 37.648438 176.007812 38.101562 C 176.082031 38.699219 175.929688 39.449219 175.480469 40.125 C 174.582031 41.324219 171.734375 42.746094 170.007812 43.421875 C 168.660156 43.945312 167.386719 44.246094 165.960938 44.097656 C 164.3125 43.871094 161.988281 42.898438 160.640625 41.847656 C 159.441406 40.875 158.839844 39.824219 158.089844 38.398438 C 157.042969 36.300781 155.691406 32.851562 155.316406 30.304688 C 155.015625 28.203125 155.167969 26.332031 155.542969 24.230469 C 156.066406 21.757812 157.117188 18.234375 158.390625 16.4375 C 159.214844 15.160156 160.191406 14.261719 161.390625 13.8125 C 162.664062 13.289062 164.238281 13.289062 165.660156 13.738281 C 167.3125 14.1875 170.007812 15.535156 170.832031 17.109375 C 171.660156 18.683594 171.207031 21.308594 170.757812 23.03125 C 170.382812 24.53125 169.410156 26.179688 168.660156 27.003906 C 168.136719 27.605469 167.835938 27.832031 167.011719 28.054688 C 164.988281 28.503906 157.265625 28.503906 155.691406 27.230469 C 154.941406 26.707031 154.640625 25.429688 154.867188 24.832031 C 155.015625 24.308594 156.667969 23.632812 156.667969 23.632812 " clip-rule="nonzero"/></clipPath><clipPath id="25f8345b91"><path d="M 178.476562 14.816406 L 194.082031 14.816406 L 194.082031 43.523438 L 178.476562 43.523438 Z M 178.476562 14.816406 " clip-rule="nonzero"/></clipPath><clipPath id="3242a5f0bf"><path d="M 190.921875 18.984375 C 187.324219 19.210938 186.800781 19.507812 186.425781 20.035156 C 185.824219 20.933594 185.375 23.03125 185.601562 24.308594 C 185.902344 25.582031 186.800781 26.628906 187.851562 27.679688 C 189.125 28.953125 192.121094 29.554688 193.097656 31.128906 C 194.070312 32.703125 194.144531 35.324219 193.921875 37.050781 C 193.695312 38.472656 193.246094 39.824219 192.347656 40.796875 C 191.222656 41.996094 189.125 43.273438 187.175781 43.421875 C 184.777344 43.648438 179.980469 42.074219 179.003906 40.722656 C 178.40625 39.972656 178.554688 38.550781 178.929688 37.949219 C 179.378906 37.425781 180.878906 36.976562 181.628906 37.199219 C 182.226562 37.425781 182.902344 38.175781 182.976562 38.847656 C 183.050781 39.523438 182.527344 40.949219 181.851562 41.324219 C 181.179688 41.699219 179.679688 41.398438 179.15625 40.875 C 178.628906 40.5 178.40625 39.449219 178.554688 38.847656 C 178.78125 38.175781 179.753906 37.273438 180.652344 37.050781 C 181.851562 36.824219 184.25 38.550781 185.527344 38.773438 C 186.277344 38.925781 186.875 39 187.398438 38.773438 C 188 38.625 188.675781 38.324219 188.972656 37.726562 C 189.425781 36.824219 189.722656 34.953125 189.125 33.675781 C 188.300781 31.804688 183.726562 29.929688 182.601562 28.578125 C 182.078125 27.90625 181.929688 27.53125 181.703125 26.855469 C 181.402344 25.730469 181.328125 23.933594 181.476562 22.433594 C 181.628906 21.007812 182.003906 19.285156 182.753906 18.160156 C 183.425781 17.035156 184.402344 15.988281 185.601562 15.460938 C 187.25 14.863281 190.699219 14.636719 191.824219 15.3125 C 192.496094 15.835938 192.871094 17.109375 192.722656 17.710938 C 192.570312 18.308594 190.921875 18.984375 190.921875 18.984375 " clip-rule="nonzero"/></clipPath><clipPath id="01378d396e"><path d="M 194.1875 14.453125 L 212.972656 14.453125 L 212.972656 45.472656 L 194.1875 45.472656 Z M 194.1875 14.453125 " clip-rule="nonzero"/></clipPath><clipPath id="f5955431b1"><path d="M 209.589844 20.335938 C 203.816406 19.058594 203.367188 19.433594 202.839844 20.035156 C 202.015625 21.082031 200.519531 24.007812 200.894531 25.429688 C 201.191406 26.707031 202.542969 27.53125 203.890625 28.28125 C 205.765625 29.328125 210.335938 29.328125 211.6875 30.378906 C 212.4375 30.902344 212.738281 31.429688 212.886719 32.253906 C 213.109375 33.378906 212.660156 35.324219 212.136719 36.675781 C 211.535156 38.101562 210.488281 39.898438 209.664062 40.574219 C 209.136719 41.023438 208.6875 41.171875 208.164062 41.171875 C 207.640625 41.246094 207.039062 41.023438 206.664062 40.722656 C 206.214844 40.421875 205.839844 39.824219 205.839844 39.300781 C 205.765625 38.625 206.363281 37.199219 206.964844 36.824219 C 207.5625 36.449219 208.539062 36.375 209.0625 36.601562 C 209.589844 36.75 210.039062 37.273438 210.261719 37.726562 C 210.488281 38.175781 210.5625 38.773438 210.414062 39.300781 C 210.1875 40.046875 209.589844 40.875 208.761719 41.621094 C 207.640625 42.746094 205.316406 44.320312 203.589844 44.921875 C 202.09375 45.445312 200.292969 45.519531 199.167969 45.371094 C 198.417969 45.222656 198.042969 45.070312 197.445312 44.621094 C 196.46875 43.945312 194.820312 42.148438 194.445312 41.171875 C 194.222656 40.574219 194.222656 40.046875 194.371094 39.523438 C 194.519531 39.074219 194.894531 38.472656 195.421875 38.324219 C 196.019531 38.023438 197.445312 38.023438 197.96875 38.472656 C 198.492188 39 198.867188 40.5 198.570312 41.171875 C 198.417969 41.773438 197.445312 42.371094 196.917969 42.523438 C 196.394531 42.597656 195.871094 42.523438 195.496094 42.296875 C 194.972656 41.921875 194.371094 41.097656 194.296875 40.5 C 194.222656 39.898438 194.597656 38.925781 195.046875 38.550781 C 195.570312 38.101562 196.546875 37.875 197.144531 38.101562 C 197.746094 38.25 198.492188 38.925781 198.71875 39.523438 C 198.867188 40.125 198.71875 41.097656 198.34375 41.621094 C 197.96875 42.148438 197.070312 42.597656 196.394531 42.523438 C 195.71875 42.449219 194.519531 41.324219 194.296875 40.648438 C 194.144531 40.125 194.371094 39.449219 194.597656 39.074219 C 194.894531 38.625 195.347656 38.175781 195.871094 38.101562 C 196.46875 37.949219 197.371094 38.101562 197.96875 38.472656 C 198.644531 38.925781 199.019531 40.273438 199.695312 40.648438 C 200.21875 40.949219 200.816406 41.023438 201.566406 40.796875 C 203.066406 40.421875 205.988281 36.898438 207.488281 36.527344 C 208.3125 36.375 209.0625 36.527344 209.589844 36.898438 C 210.039062 37.273438 210.5625 38.101562 210.488281 38.773438 C 210.414062 39.523438 209.4375 40.875 208.6875 41.097656 C 208.015625 41.324219 206.738281 40.875 206.289062 40.273438 C 205.839844 39.824219 205.765625 39.074219 205.914062 38.25 C 206.140625 36.824219 207.714844 32.925781 208.464844 32.851562 C 208.839844 32.777344 209.738281 34.125 209.589844 34.277344 C 209.4375 34.652344 206.816406 33.902344 205.691406 33.601562 C 204.941406 33.378906 203.667969 32.925781 203.667969 32.777344 C 203.667969 32.628906 205.617188 32.777344 205.617188 32.851562 C 205.617188 32.925781 204.117188 33.378906 203.214844 33.152344 C 201.867188 32.703125 199.695312 30.605469 198.570312 29.253906 C 197.59375 28.128906 196.769531 27.082031 196.546875 25.804688 C 196.320312 24.53125 196.769531 23.03125 197.292969 21.609375 C 197.894531 19.882812 199.394531 17.410156 200.292969 16.210938 C 200.816406 15.613281 201.117188 15.085938 201.71875 14.863281 C 202.316406 14.5625 203.066406 14.488281 204.042969 14.5625 C 205.839844 14.789062 210.636719 15.988281 211.613281 17.1875 C 212.136719 17.785156 212.210938 18.835938 211.988281 19.359375 C 211.613281 19.882812 209.589844 20.335938 209.589844 20.335938 " clip-rule="nonzero"/></clipPath><clipPath id="70ce16b446"><path d="M 209.699219 18.308594 L 213.265625 18.308594 L 213.265625 21.296875 L 209.699219 21.296875 Z M 209.699219 18.308594 " clip-rule="nonzero"/></clipPath><clipPath id="a58bfb7ba9"><path d="M 213.261719 19.359375 C 211.6875 21.910156 210.1875 21.382812 209.886719 20.859375 C 209.511719 20.335938 209.8125 18.835938 210.335938 18.460938 C 210.789062 18.085938 212.8125 18.609375 212.8125 18.609375 " clip-rule="nonzero"/></clipPath><clipPath id="1150b0006c"><path d="M 16.351562 50.710938 L 74.578125 50.710938 L 74.578125 62 L 16.351562 62 Z M 16.351562 50.710938 " clip-rule="nonzero"/></clipPath><clipPath id="edf25cfdb2"><path d="M 19.714844 55.191406 C 37.03125 58.714844 37.480469 59.839844 37.253906 60.511719 C 37.105469 61.113281 36.054688 61.785156 35.007812 61.9375 C 33.207031 62.160156 28.410156 61.039062 27.210938 59.839844 C 26.609375 59.238281 26.386719 58.1875 26.609375 57.589844 C 26.761719 56.988281 27.285156 56.613281 28.484375 56.164062 C 33.433594 54.441406 67.988281 52.640625 72.785156 54.816406 C 73.984375 55.339844 74.511719 56.238281 74.511719 56.914062 C 74.433594 57.589844 73.6875 58.488281 72.636719 58.863281 C 69.789062 59.914062 58.167969 58.039062 54.722656 56.988281 C 53.222656 56.539062 51.949219 56.015625 51.648438 55.339844 C 51.347656 54.742188 51.648438 53.839844 52.097656 53.390625 C 52.695312 52.867188 54.347656 52.71875 55.546875 52.867188 C 56.96875 53.015625 59.292969 53.992188 60.191406 54.742188 C 60.71875 55.191406 61.09375 55.789062 61.09375 56.316406 C 61.167969 56.914062 60.71875 57.890625 60.042969 58.265625 C 59.21875 58.863281 58.09375 58.714844 56.070312 58.789062 C 49.921875 59.011719 22.710938 58.339844 18.289062 56.839844 C 17.242188 56.464844 16.714844 56.164062 16.492188 55.566406 C 16.339844 54.964844 16.714844 53.839844 17.390625 53.242188 C 18.363281 52.492188 20.3125 52.566406 22.636719 52.417969 C 27.210938 52.117188 36.054688 53.089844 43.328125 52.941406 C 51.421875 52.71875 65.441406 50.019531 68.738281 50.917969 C 69.636719 51.144531 70.011719 51.59375 70.3125 52.042969 C 70.539062 52.417969 70.6875 52.941406 70.460938 53.390625 C 70.3125 53.917969 69.261719 54.890625 68.589844 55.039062 C 68.214844 55.117188 67.6875 54.964844 67.3125 54.742188 C 66.9375 54.367188 66.414062 53.542969 66.414062 53.015625 C 66.339844 52.566406 66.488281 52.117188 66.789062 51.742188 C 67.089844 51.367188 67.914062 50.84375 68.511719 50.917969 C 69.1875 50.992188 70.3125 51.816406 70.460938 52.492188 C 70.613281 53.089844 70.238281 54.214844 69.488281 54.816406 C 67.914062 55.941406 63.117188 55.714844 59.367188 56.015625 C 54.644531 56.464844 48.425781 56.839844 43.476562 56.765625 C 38.980469 56.691406 35.007812 55.714844 30.734375 55.789062 C 26.609375 55.789062 20.464844 57.4375 18.289062 56.839844 C 17.316406 56.613281 16.714844 56.164062 16.492188 55.566406 C 16.265625 55.117188 16.417969 54.292969 16.714844 53.839844 C 17.015625 53.464844 17.390625 53.242188 18.289062 53.089844 C 21.589844 52.417969 35.90625 54.890625 43.402344 55.117188 C 49.546875 55.339844 57.945312 53.390625 60.117188 54.816406 C 60.941406 55.339844 61.242188 56.613281 61.015625 57.214844 C 60.792969 57.8125 59.96875 58.488281 59.144531 58.488281 C 57.945312 58.5625 54.644531 56.988281 54.195312 55.941406 C 53.894531 55.117188 54.269531 53.765625 55.171875 53.242188 C 57.496094 51.742188 70.835938 53.464844 73.234375 54.964844 C 74.136719 55.492188 74.585938 56.316406 74.511719 56.914062 C 74.433594 57.589844 73.835938 58.339844 72.636719 58.863281 C 67.6875 61.039062 34.929688 60.4375 29.757812 60.289062 C 28.558594 60.289062 28.183594 60.363281 27.660156 60.136719 C 27.210938 59.914062 26.761719 59.539062 26.609375 59.089844 C 26.460938 58.5625 26.460938 57.664062 26.761719 57.140625 C 27.136719 56.691406 27.660156 56.316406 28.484375 56.164062 C 30.132812 56.015625 35.382812 57.066406 36.582031 58.339844 C 37.179688 59.011719 37.40625 60.363281 37.105469 60.960938 C 36.804688 61.488281 36.054688 61.785156 35.007812 61.9375 C 32.234375 62.238281 21.363281 60.585938 19.039062 58.9375 C 18.140625 58.339844 17.617188 57.4375 17.765625 56.765625 C 17.839844 56.164062 19.714844 55.191406 19.714844 55.191406 " clip-rule="nonzero"/></clipPath><clipPath id="72f5760ac0"><path d="M 86.3125 47.90625 L 212.742188 47.90625 L 212.742188 57.558594 L 86.3125 57.558594 Z M 86.3125 47.90625 " clip-rule="nonzero"/></clipPath><clipPath id="36d821f096"><path d="M 91.75 52.867188 C 112.816406 52.492188 120.386719 51.367188 128.855469 50.992188 C 139.425781 50.46875 153.066406 50.167969 164.460938 50.394531 C 174.882812 50.691406 186.050781 52.265625 194.519531 52.417969 C 200.742188 52.492188 207.9375 50.992188 210.710938 51.816406 C 211.761719 52.117188 212.4375 52.566406 212.660156 53.167969 C 212.8125 53.691406 212.585938 54.589844 212.136719 55.117188 C 211.460938 55.863281 209.964844 56.316406 208.613281 56.691406 C 206.964844 57.140625 205.765625 57.363281 203.066406 57.515625 C 195.796875 57.8125 173.90625 55.492188 162.8125 55.640625 C 155.015625 55.714844 150.070312 56.691406 142.722656 56.988281 C 134.027344 57.289062 123.234375 57.664062 113.863281 57.363281 C 104.867188 57.066406 90.476562 56.988281 87.476562 55.117188 C 86.652344 54.515625 86.355469 53.765625 86.355469 53.167969 C 86.429688 52.417969 87.101562 51.59375 88.304688 51.066406 C 91.902344 49.492188 104.042969 51.441406 114.464844 51.144531 C 130.128906 50.769531 159.664062 48.445312 172.933594 48.070312 C 179.753906 47.917969 183.128906 47.84375 188.449219 48.144531 C 194.222656 48.371094 203.742188 48.371094 206.140625 49.867188 C 207.039062 50.394531 207.414062 51.21875 207.488281 51.742188 C 207.488281 52.191406 207.339844 52.640625 207.039062 52.867188 C 206.664062 53.242188 205.839844 53.617188 205.390625 53.542969 C 204.941406 53.542969 204.492188 53.390625 204.265625 53.015625 C 203.890625 52.71875 203.589844 51.890625 203.667969 51.367188 C 203.742188 50.84375 204.339844 50.167969 204.789062 49.941406 C 205.089844 49.71875 205.617188 49.644531 205.988281 49.792969 C 206.515625 50.019531 207.339844 50.992188 207.488281 51.59375 C 207.5625 51.96875 207.414062 52.417969 207.113281 52.71875 C 206.816406 53.089844 206.441406 53.390625 205.539062 53.617188 C 202.917969 54.066406 194.597656 52.042969 188.523438 51.667969 C 181.628906 51.292969 175.179688 51.21875 166.1875 51.441406 C 152.542969 51.816406 128.929688 54.292969 114.613281 54.816406 C 104.417969 55.191406 89.503906 56.765625 88.527344 55.039062 C 88.226562 54.589844 89.726562 53.765625 89.726562 53.089844 C 89.800781 52.566406 88.675781 51.742188 88.976562 51.367188 C 90.101562 49.941406 104.121094 53.839844 113.863281 54.140625 C 127.433594 54.589844 147.894531 51.742188 162.8125 51.742188 C 175.40625 51.816406 190.25 53.542969 197.667969 53.617188 C 201.191406 53.617188 203.214844 53.617188 205.316406 53.242188 C 206.964844 53.015625 209.214844 51.742188 209.589844 52.191406 C 209.886719 52.492188 208.6875 53.617188 208.914062 54.214844 C 209.0625 54.816406 210.863281 55.414062 210.710938 55.789062 C 210.636719 56.089844 209.664062 56.089844 208.3125 56.164062 C 202.542969 56.464844 175.257812 54.214844 161.015625 54.140625 C 149.320312 53.992188 138.976562 54.292969 128.929688 54.816406 C 120.160156 55.265625 111.015625 56.613281 104.121094 56.839844 C 99.320312 56.988281 94 57.589844 91.75 56.691406 C 90.703125 56.316406 89.953125 55.640625 89.800781 54.964844 C 89.726562 54.515625 90.101562 53.691406 90.476562 53.316406 C 90.777344 53.015625 91.75 52.867188 91.75 52.867188 " clip-rule="nonzero"/></clipPath></defs><g clip-path="url(#d34ecc5a19)"><g clip-path="url(#0b1db3a3eb)"><path fill="#fffb47" d="M 4.421875 9.765625 L 38.453125 9.765625 L 38.453125 49.511719 L 4.421875 49.511719 Z M 4.421875 9.765625 " fill-opacity="1" fill-rule="nonzero"/></g></g><g clip-path="url(#fc1df428a0)"><g clip-path="url(#93fca978e7)"><path fill="#fffb47" d="M 39.054688 9.839844 L 80.824219 9.839844 L 80.824219 48.445312 L 39.054688 48.445312 Z M 39.054688 9.839844 " fill-opacity="1" fill-rule="nonzero"/></g></g><g clip-path="url(#d66e031042)"><g clip-path="url(#3d6b5d0861)"><path fill="#fffb47" d="M 76.007812 10.066406 L 103.519531 10.066406 L 103.519531 64.226562 L 76.007812 64.226562 Z M 76.007812 10.066406 " fill-opacity="1" fill-rule="nonzero"/></g></g><g clip-path="url(#a09e0af387)"><g clip-path="url(#27ce6e8cb5)"><path fill="#fffb47" d="M 98.199219 0.917969 L 112.664062 0.917969 L 112.664062 46.355469 L 98.199219 46.355469 Z M 98.199219 0.917969 " fill-opacity="1" fill-rule="nonzero"/></g></g><g clip-path="url(#17d121e550)"><g clip-path="url(#f20020f8a5)"><path fill="#fffb47" d="M 95.125 6.167969 L 119.425781 6.167969 L 119.425781 18.085938 L 95.125 18.085938 Z M 95.125 6.167969 " fill-opacity="1" fill-rule="nonzero"/></g></g><g clip-path="url(#43eef5017f)"><g clip-path="url(#5948c3e236)"><path fill="#fffb47" d="M 114.390625 12.988281 L 126.308594 12.988281 L 126.308594 47.765625 L 114.390625 47.765625 Z M 114.390625 12.988281 " fill-opacity="1" fill-rule="nonzero"/></g></g><g clip-path="url(#5a4f130418)"><g clip-path="url(#6e3f3a0f46)"><path fill="#fffb47" d="M 118.363281 4.144531 L 127.796875 4.144531 L 127.796875 13.363281 L 118.363281 13.363281 Z M 118.363281 4.144531 " fill-opacity="1" fill-rule="nonzero"/></g></g><g clip-path="url(#34ea42f1e7)"><g clip-path="url(#1898ba511e)"><path fill="#fffb47" d="M 116.5625 4.367188 L 126 4.367188 L 126 13.585938 L 116.5625 13.585938 Z M 116.5625 4.367188 " fill-opacity="1" fill-rule="nonzero"/></g></g><g clip-path="url(#629e39b5e9)"><g clip-path="url(#3b51ae2a51)"><path fill="#fffb47" d="M 117.238281 4.441406 L 126.671875 4.441406 L 126.671875 13.664062 L 117.238281 13.664062 Z M 117.238281 4.441406 " fill-opacity="1" fill-rule="nonzero"/></g></g><g clip-path="url(#0762e403d8)"><g clip-path="url(#f183fd3d2d)"><path fill="#fffb47" d="M 118.585938 6.390625 L 128.023438 6.390625 L 128.023438 15.613281 L 118.585938 15.613281 Z M 118.585938 6.390625 " fill-opacity="1" fill-rule="nonzero"/></g></g><g clip-path="url(#dbc73360d9)"><g clip-path="url(#35ad2bd8c5)"><path fill="#fffb47" d="M 116.9375 6.390625 L 126.375 6.390625 L 126.375 15.613281 L 116.9375 15.613281 Z M 116.9375 6.390625 " fill-opacity="1" fill-rule="nonzero"/></g></g><g clip-path="url(#a045ebeb75)"><g clip-path="url(#d68ce9f6aa)"><path fill="#fffb47" d="M 125.257812 12.761719 L 155.542969 12.761719 L 155.542969 46.949219 L 125.257812 46.949219 Z M 125.257812 12.761719 " fill-opacity="1" fill-rule="nonzero"/></g></g><g clip-path="url(#abc3737180)"><g clip-path="url(#8f1db2f1f9)"><path fill="#fffb47" d="M 151.867188 10.738281 L 179.003906 10.738281 L 179.003906 47.203125 L 151.867188 47.203125 Z M 151.867188 10.738281 " fill-opacity="1" fill-rule="nonzero"/></g></g><g clip-path="url(#25f8345b91)"><g clip-path="url(#3242a5f0bf)"><path fill="#fffb47" d="M 175.554688 12.3125 L 196.917969 12.3125 L 196.917969 46.445312 L 175.554688 46.445312 Z M 175.554688 12.3125 " fill-opacity="1" fill-rule="nonzero"/></g></g><g clip-path="url(#01378d396e)"><g clip-path="url(#f5955431b1)"><path fill="#fffb47" d="M 191.296875 11.5625 L 215.960938 11.5625 L 215.960938 48.363281 L 191.296875 48.363281 Z M 191.296875 11.5625 " fill-opacity="1" fill-rule="nonzero"/></g></g><g clip-path="url(#70ce16b446)"><g clip-path="url(#a58bfb7ba9)"><path fill="#fffb47" d="M 206.890625 15.460938 L 216.324219 15.460938 L 216.324219 24.683594 L 206.890625 24.683594 Z M 206.890625 15.460938 " fill-opacity="1" fill-rule="nonzero"/></g></g><g clip-path="url(#1150b0006c)"><g clip-path="url(#edf25cfdb2)"><path fill="#fffb47" d="M 13.492188 47.917969 L 77.5 47.917969 L 77.5 64.933594 L 13.492188 64.933594 Z M 13.492188 47.917969 " fill-opacity="1" fill-rule="nonzero"/></g></g><g clip-path="url(#72f5760ac0)"><g clip-path="url(#36d821f096)"><path fill="#fffb47" d="M 83.355469 45.070312 L 215.636719 45.070312 L 215.636719 60.511719 L 83.355469 60.511719 Z M 83.355469 45.070312 " fill-opacity="1" fill-rule="nonzero"/></g></g></svg>