<svg xmlns="http://www.w3.org/2000/svg" xmlns:xlink="http://www.w3.org/1999/xlink" width="50" zoomAndPan="magnify" viewBox="0 0 37.5 37.499999" height="50" preserveAspectRatio="xMidYMid meet" version="1.0"><defs><g/><clipPath id="d5be6ebda4"><path d="M 15.015625 25.804688 L 26.105469 25.804688 L 26.105469 35.253906 L 15.015625 35.253906 Z M 15.015625 25.804688 " clip-rule="nonzero"/></clipPath><clipPath id="e4aeaaaccf"><path d="M 15.246094 34.046875 C 21.832031 33.898438 22.351562 33.304688 23.019531 32.566406 C 23.90625 31.675781 25.3125 29.976562 25.238281 28.9375 C 25.089844 27.902344 22.796875 26.792969 22.871094 26.273438 C 22.945312 26.125 23.460938 25.90625 23.460938 25.90625 C 23.535156 25.980469 23.019531 26.496094 22.945312 26.421875 C 22.945312 26.421875 23.09375 25.90625 23.238281 25.832031 C 23.683594 25.757812 25.609375 27.3125 25.980469 28.125 C 26.199219 28.792969 25.980469 29.457031 25.683594 30.125 C 25.3125 31.085938 24.425781 32.34375 23.535156 33.082031 C 22.796875 33.898438 21.980469 34.5625 20.871094 34.933594 C 19.316406 35.378906 15.542969 35.304688 15.097656 34.785156 C 14.949219 34.636719 15.246094 34.046875 15.246094 34.046875 " clip-rule="nonzero"/></clipPath><clipPath id="e9b680d3af"><path d="M 21.4375 22.675781 L 28.429688 22.675781 L 28.429688 29.234375 L 21.4375 29.234375 Z M 21.4375 22.675781 " clip-rule="nonzero"/></clipPath><clipPath id="bd4125db95"><path d="M 21.464844 29.160156 C 22.128906 23.019531 28.421875 22.574219 28.421875 22.722656 C 28.496094 22.796875 22.722656 23.460938 21.832031 24.792969 C 21.09375 25.832031 22.648438 28.71875 22.203125 29.160156 C 22.054688 29.308594 21.464844 29.160156 21.464844 29.160156 " clip-rule="nonzero"/></clipPath><clipPath id="586a0390d0"><path d="M 21.378906 23.597656 L 25.546875 23.597656 L 25.546875 28.867188 L 21.378906 28.867188 Z M 21.378906 23.597656 " clip-rule="nonzero"/></clipPath><clipPath id="6222d5bf37"><path d="M 21.390625 28.71875 C 22.128906 24.128906 25.460938 23.535156 25.535156 23.609375 C 25.535156 23.757812 22.722656 24.574219 22.203125 25.460938 C 21.6875 26.347656 22.5 28.496094 22.128906 28.792969 C 21.90625 28.9375 21.390625 28.71875 21.390625 28.71875 " clip-rule="nonzero"/></clipPath><clipPath id="8ed0664477"><path d="M 28.089844 22.554688 L 28.441406 22.554688 L 28.441406 22.832031 L 28.089844 22.832031 Z M 28.089844 22.554688 " clip-rule="nonzero"/></clipPath><clipPath id="8e24aea890"><path d="M 28.421875 22.722656 C 27.753906 23.019531 28.347656 22.574219 28.347656 22.574219 " clip-rule="nonzero"/></clipPath><clipPath id="a680f621cf"><path d="M 26.683594 22.703125 L 27.035156 22.703125 L 27.035156 22.980469 L 26.683594 22.980469 Z M 26.683594 22.703125 " clip-rule="nonzero"/></clipPath><clipPath id="c6ac59fc6f"><path d="M 27.015625 22.871094 C 26.347656 23.167969 26.941406 22.722656 26.941406 22.722656 " clip-rule="nonzero"/></clipPath><clipPath id="b1069ecbae"><path d="M 20.773438 22.546875 L 28 22.546875 L 28 29.683594 L 20.773438 29.683594 Z M 20.773438 22.546875 " clip-rule="nonzero"/></clipPath><clipPath id="62df67affe"><path d="M 20.796875 29.457031 C 21.90625 24.277344 22.054688 24.792969 22.425781 24.867188 C 23.238281 24.941406 26.71875 22.425781 27.53125 22.574219 C 27.753906 22.648438 27.976562 22.945312 27.976562 23.09375 C 27.976562 23.167969 27.457031 23.386719 27.386719 23.3125 C 27.3125 23.238281 27.386719 22.648438 27.457031 22.574219 C 27.53125 22.574219 27.902344 23.09375 27.828125 23.3125 C 27.53125 23.90625 24.203125 25.164062 23.09375 25.089844 C 22.5 25.015625 21.761719 24.351562 21.761719 24.351562 C 21.761719 24.351562 22.277344 24.425781 22.425781 24.644531 C 22.796875 25.3125 22.054688 29.160156 21.539062 29.605469 C 21.316406 29.753906 20.796875 29.457031 20.796875 29.457031 " clip-rule="nonzero"/></clipPath></defs><path stroke-linecap="butt" transform="matrix(0.539632, -0.516906, 0.516906, 0.539632, -0.717116, 18.896243)" fill="none" stroke-linejoin="miter" d="M 8.570464 15.481295 L 15.295692 15.480832 L 15.296163 24.269107 C 14.407732 24.56181 13.481075 24.796181 12.523581 24.972059 C 11.566088 25.147937 10.480881 25.230434 9.264502 25.230717 C 7.582331 25.233624 6.151691 24.898372 4.976517 24.235967 C 3.797568 23.569945 2.907583 22.587142 2.295554 21.291492 C 1.687142 19.992066 1.379176 18.394098 1.37905 16.497429 C 1.377851 14.72279 1.721885 13.184742 2.403761 11.883444 C 3.089411 10.585762 4.091844 9.577044 5.407601 8.868455 C 6.726974 8.156091 8.33877 7.803462 10.239055 7.79956 C 11.133845 7.802497 12.019535 7.89806 12.896285 8.093641 C 13.769261 8.285605 14.562206 8.538446 15.274963 8.844773 L 14.07608 11.721115 C 13.560218 11.458616 12.967625 11.238438 12.305691 11.06042 C 11.636367 10.882562 10.946777 10.793872 10.214748 10.794829 C 9.172138 10.795071 8.264038 11.03274 7.497997 11.515066 C 6.72818 11.993776 6.132491 12.660996 5.711087 13.524118 C 5.289684 14.387239 5.078567 15.40112 5.081512 16.569377 C 5.07941 17.67489 5.229817 18.651418 5.529276 19.510125 C 5.83235 20.365058 6.308835 21.0314 6.958888 21.516542 C 7.605167 21.998068 8.453307 22.238631 9.495917 22.238388 C 10.009831 22.238426 10.438192 22.214423 10.792007 22.162446 C 11.142205 22.114245 11.473847 22.062745 11.779541 22.008106 L 11.781077 18.469836 L 8.571946 18.472312 Z M 26.51076 25.000257 L 22.427649 11.700459 L 22.3204 11.699069 C 22.338243 12.012948 22.363359 12.493046 22.399203 13.128197 C 22.435207 13.770738 22.468231 14.446619 22.494818 15.167004 C 22.528795 15.88723 22.546401 16.533865 22.540403 17.114457 L 22.543652 25.000551 L 19.330746 24.999411 L 19.332151 8.047641 L 24.227228 8.045873 L 28.240282 21.010732 L 28.306801 21.009301 L 32.564492 8.047709 L 37.459569 8.045941 L 37.458165 24.997712 L 34.104829 24.999592 L 34.105951 16.97291 C 34.10567 16.444214 34.118265 15.826508 34.132885 15.131117 C 34.154896 14.435566 34.181319 13.773196 34.212152 13.144006 C 34.23921 12.5112 34.265991 12.03738 34.277712 11.722865 L 34.177854 11.721315 L 29.804967 24.999649 Z M 26.51076 25.000257 " stroke="#fffb47" stroke-width="0.890745" stroke-opacity="1" stroke-miterlimit="4"/><g fill="#000000" fill-opacity="1"><g transform="translate(3.700658, 35.409592)"><g><path d="M 1.171875 -0.75 C 1.242188 -0.75 1.320312 -0.753906 1.40625 -0.765625 C 1.488281 -0.773438 1.566406 -0.773438 1.640625 -0.765625 C 1.671875 -0.765625 1.703125 -0.753906 1.734375 -0.734375 C 1.773438 -0.722656 1.796875 -0.707031 1.796875 -0.6875 C 1.804688 -0.65625 1.804688 -0.617188 1.796875 -0.578125 C 1.785156 -0.546875 1.769531 -0.519531 1.75 -0.5 C 1.601562 -0.382812 1.445312 -0.296875 1.28125 -0.234375 C 1.125 -0.179688 0.945312 -0.175781 0.75 -0.21875 C 0.570312 -0.25 0.425781 -0.332031 0.3125 -0.46875 C 0.207031 -0.613281 0.148438 -0.773438 0.140625 -0.953125 C 0.140625 -1.128906 0.164062 -1.289062 0.21875 -1.4375 C 0.28125 -1.59375 0.363281 -1.726562 0.46875 -1.84375 C 0.582031 -1.96875 0.710938 -2.0625 0.859375 -2.125 C 0.953125 -2.164062 1.039062 -2.1875 1.125 -2.1875 C 1.21875 -2.1875 1.3125 -2.160156 1.40625 -2.109375 C 1.488281 -2.054688 1.550781 -1.984375 1.59375 -1.890625 C 1.644531 -1.796875 1.648438 -1.707031 1.609375 -1.625 C 1.585938 -1.570312 1.566406 -1.546875 1.546875 -1.546875 C 1.523438 -1.546875 1.503906 -1.539062 1.484375 -1.53125 C 1.453125 -1.507812 1.421875 -1.503906 1.390625 -1.515625 C 1.367188 -1.535156 1.351562 -1.554688 1.34375 -1.578125 C 1.289062 -1.648438 1.238281 -1.695312 1.1875 -1.71875 C 1.144531 -1.738281 1.085938 -1.71875 1.015625 -1.65625 C 0.910156 -1.570312 0.832031 -1.472656 0.78125 -1.359375 C 0.738281 -1.253906 0.71875 -1.140625 0.71875 -1.015625 C 0.71875 -0.941406 0.734375 -0.878906 0.765625 -0.828125 C 0.804688 -0.785156 0.863281 -0.757812 0.9375 -0.75 C 0.976562 -0.75 1.015625 -0.75 1.046875 -0.75 C 1.085938 -0.75 1.128906 -0.75 1.171875 -0.75 Z M 1.171875 -0.75 "/></g></g></g><g fill="#000000" fill-opacity="1"><g transform="translate(5.65717, 35.409592)"><g><path d="M 0.71875 -2.53125 C 0.726562 -2.269531 0.742188 -2.007812 0.765625 -1.75 C 0.785156 -1.488281 0.800781 -1.226562 0.8125 -0.96875 C 0.8125 -0.882812 0.804688 -0.800781 0.796875 -0.71875 C 0.785156 -0.632812 0.769531 -0.550781 0.75 -0.46875 C 0.726562 -0.382812 0.6875 -0.320312 0.625 -0.28125 C 0.570312 -0.25 0.519531 -0.234375 0.46875 -0.234375 C 0.40625 -0.234375 0.347656 -0.253906 0.296875 -0.296875 C 0.242188 -0.335938 0.207031 -0.398438 0.1875 -0.484375 C 0.175781 -0.523438 0.164062 -0.570312 0.15625 -0.625 C 0.15625 -0.675781 0.148438 -0.722656 0.140625 -0.765625 C 0.140625 -0.816406 0.140625 -0.898438 0.140625 -1.015625 C 0.148438 -1.128906 0.15625 -1.257812 0.15625 -1.40625 C 0.15625 -1.5625 0.15625 -1.71875 0.15625 -1.875 C 0.164062 -2.03125 0.175781 -2.175781 0.1875 -2.3125 C 0.195312 -2.445312 0.203125 -2.554688 0.203125 -2.640625 C 0.210938 -2.671875 0.21875 -2.703125 0.21875 -2.734375 C 0.226562 -2.773438 0.242188 -2.804688 0.265625 -2.828125 C 0.285156 -2.859375 0.3125 -2.890625 0.34375 -2.921875 C 0.382812 -2.953125 0.421875 -2.96875 0.453125 -2.96875 C 0.492188 -2.957031 0.53125 -2.9375 0.5625 -2.90625 C 0.601562 -2.882812 0.632812 -2.859375 0.65625 -2.828125 C 0.675781 -2.785156 0.6875 -2.734375 0.6875 -2.671875 C 0.695312 -2.617188 0.707031 -2.570312 0.71875 -2.53125 Z M 0.71875 -2.53125 "/></g></g></g><g fill="#000000" fill-opacity="1"><g transform="translate(6.613686, 35.409592)"><g><path d="M 0.734375 -1.6875 C 0.734375 -1.644531 0.734375 -1.578125 0.734375 -1.484375 C 0.734375 -1.398438 0.734375 -1.3125 0.734375 -1.21875 C 0.734375 -1.125 0.734375 -1.035156 0.734375 -0.953125 C 0.734375 -0.867188 0.734375 -0.8125 0.734375 -0.78125 C 0.722656 -0.75 0.71875 -0.710938 0.71875 -0.671875 C 0.71875 -0.628906 0.710938 -0.585938 0.703125 -0.546875 C 0.679688 -0.441406 0.640625 -0.359375 0.578125 -0.296875 C 0.523438 -0.242188 0.46875 -0.222656 0.40625 -0.234375 C 0.332031 -0.234375 0.269531 -0.265625 0.21875 -0.328125 C 0.164062 -0.390625 0.144531 -0.472656 0.15625 -0.578125 C 0.164062 -0.765625 0.1875 -0.957031 0.21875 -1.15625 C 0.25 -1.351562 0.28125 -1.546875 0.3125 -1.734375 C 0.332031 -1.785156 0.359375 -1.828125 0.390625 -1.859375 C 0.429688 -1.890625 0.484375 -1.90625 0.546875 -1.90625 C 0.609375 -1.894531 0.65625 -1.867188 0.6875 -1.828125 C 0.71875 -1.785156 0.734375 -1.738281 0.734375 -1.6875 Z M 0.4375 -2.234375 C 0.375 -2.242188 0.320312 -2.269531 0.28125 -2.3125 C 0.238281 -2.363281 0.21875 -2.425781 0.21875 -2.5 C 0.21875 -2.5625 0.238281 -2.617188 0.28125 -2.671875 C 0.332031 -2.722656 0.390625 -2.75 0.453125 -2.75 C 0.523438 -2.75 0.582031 -2.722656 0.625 -2.671875 C 0.675781 -2.628906 0.695312 -2.570312 0.6875 -2.5 C 0.6875 -2.425781 0.660156 -2.363281 0.609375 -2.3125 C 0.554688 -2.257812 0.5 -2.234375 0.4375 -2.234375 Z M 0.4375 -2.234375 "/></g></g></g><g fill="#000000" fill-opacity="1"><g transform="translate(7.499056, 35.409592)"><g><path d="M 1.171875 -0.75 C 1.242188 -0.75 1.320312 -0.753906 1.40625 -0.765625 C 1.488281 -0.773438 1.566406 -0.773438 1.640625 -0.765625 C 1.671875 -0.765625 1.703125 -0.753906 1.734375 -0.734375 C 1.773438 -0.722656 1.796875 -0.707031 1.796875 -0.6875 C 1.804688 -0.65625 1.804688 -0.617188 1.796875 -0.578125 C 1.785156 -0.546875 1.769531 -0.519531 1.75 -0.5 C 1.601562 -0.382812 1.445312 -0.296875 1.28125 -0.234375 C 1.125 -0.179688 0.945312 -0.175781 0.75 -0.21875 C 0.570312 -0.25 0.425781 -0.332031 0.3125 -0.46875 C 0.207031 -0.613281 0.148438 -0.773438 0.140625 -0.953125 C 0.140625 -1.128906 0.164062 -1.289062 0.21875 -1.4375 C 0.28125 -1.59375 0.363281 -1.726562 0.46875 -1.84375 C 0.582031 -1.96875 0.710938 -2.0625 0.859375 -2.125 C 0.953125 -2.164062 1.039062 -2.1875 1.125 -2.1875 C 1.21875 -2.1875 1.3125 -2.160156 1.40625 -2.109375 C 1.488281 -2.054688 1.550781 -1.984375 1.59375 -1.890625 C 1.644531 -1.796875 1.648438 -1.707031 1.609375 -1.625 C 1.585938 -1.570312 1.566406 -1.546875 1.546875 -1.546875 C 1.523438 -1.546875 1.503906 -1.539062 1.484375 -1.53125 C 1.453125 -1.507812 1.421875 -1.503906 1.390625 -1.515625 C 1.367188 -1.535156 1.351562 -1.554688 1.34375 -1.578125 C 1.289062 -1.648438 1.238281 -1.695312 1.1875 -1.71875 C 1.144531 -1.738281 1.085938 -1.71875 1.015625 -1.65625 C 0.910156 -1.570312 0.832031 -1.472656 0.78125 -1.359375 C 0.738281 -1.253906 0.71875 -1.140625 0.71875 -1.015625 C 0.71875 -0.941406 0.734375 -0.878906 0.765625 -0.828125 C 0.804688 -0.785156 0.863281 -0.757812 0.9375 -0.75 C 0.976562 -0.75 1.015625 -0.75 1.046875 -0.75 C 1.085938 -0.75 1.128906 -0.75 1.171875 -0.75 Z M 1.171875 -0.75 "/></g></g></g><g fill="#000000" fill-opacity="1"><g transform="translate(9.455568, 35.409592)"><g><path d="M 2 -0.671875 C 2.050781 -0.617188 2.082031 -0.554688 2.09375 -0.484375 C 2.101562 -0.421875 2.085938 -0.363281 2.046875 -0.3125 C 2.015625 -0.25 1.960938 -0.207031 1.890625 -0.1875 C 1.816406 -0.164062 1.75 -0.171875 1.6875 -0.203125 C 1.644531 -0.222656 1.601562 -0.242188 1.5625 -0.265625 C 1.53125 -0.296875 1.492188 -0.328125 1.453125 -0.359375 C 1.367188 -0.429688 1.285156 -0.507812 1.203125 -0.59375 C 1.117188 -0.675781 1.03125 -0.765625 0.9375 -0.859375 C 0.914062 -0.804688 0.890625 -0.753906 0.859375 -0.703125 C 0.835938 -0.648438 0.820312 -0.597656 0.8125 -0.546875 C 0.78125 -0.453125 0.734375 -0.378906 0.671875 -0.328125 C 0.609375 -0.273438 0.539062 -0.25 0.46875 -0.25 C 0.382812 -0.257812 0.3125 -0.296875 0.25 -0.359375 C 0.195312 -0.421875 0.164062 -0.5 0.15625 -0.59375 C 0.144531 -0.71875 0.144531 -0.835938 0.15625 -0.953125 C 0.175781 -1.242188 0.195312 -1.535156 0.21875 -1.828125 C 0.25 -2.128906 0.28125 -2.425781 0.3125 -2.71875 C 0.3125 -2.738281 0.3125 -2.753906 0.3125 -2.765625 C 0.3125 -2.785156 0.316406 -2.800781 0.328125 -2.8125 C 0.347656 -2.84375 0.367188 -2.875 0.390625 -2.90625 C 0.421875 -2.9375 0.445312 -2.953125 0.46875 -2.953125 C 0.5 -2.960938 0.53125 -2.953125 0.5625 -2.921875 C 0.601562 -2.898438 0.632812 -2.875 0.65625 -2.84375 C 0.6875 -2.800781 0.707031 -2.753906 0.71875 -2.703125 C 0.726562 -2.660156 0.734375 -2.617188 0.734375 -2.578125 C 0.742188 -2.429688 0.753906 -2.285156 0.765625 -2.140625 C 0.773438 -1.992188 0.785156 -1.851562 0.796875 -1.71875 C 0.796875 -1.675781 0.796875 -1.632812 0.796875 -1.59375 C 0.796875 -1.550781 0.800781 -1.503906 0.8125 -1.453125 C 0.863281 -1.492188 0.910156 -1.53125 0.953125 -1.5625 C 1.003906 -1.601562 1.054688 -1.640625 1.109375 -1.671875 C 1.160156 -1.710938 1.210938 -1.75 1.265625 -1.78125 C 1.328125 -1.8125 1.390625 -1.84375 1.453125 -1.875 C 1.523438 -1.914062 1.585938 -1.929688 1.640625 -1.921875 C 1.703125 -1.910156 1.75 -1.882812 1.78125 -1.84375 C 1.84375 -1.738281 1.8125 -1.632812 1.6875 -1.53125 C 1.632812 -1.476562 1.578125 -1.425781 1.515625 -1.375 C 1.460938 -1.332031 1.40625 -1.289062 1.34375 -1.25 C 1.332031 -1.226562 1.316406 -1.207031 1.296875 -1.1875 C 1.273438 -1.175781 1.253906 -1.160156 1.234375 -1.140625 C 1.328125 -1.085938 1.414062 -1.035156 1.5 -0.984375 C 1.582031 -0.941406 1.664062 -0.894531 1.75 -0.84375 C 1.789062 -0.820312 1.832031 -0.796875 1.875 -0.765625 C 1.914062 -0.742188 1.957031 -0.710938 2 -0.671875 Z M 2 -0.671875 "/></g></g></g><g clip-path="url(#d5be6ebda4)"><g clip-path="url(#e4aeaaaccf)"><path fill="#000000" d="M 12.136719 22.871094 L 28.921875 22.871094 L 28.921875 37.894531 L 12.136719 37.894531 Z M 12.136719 22.871094 " fill-opacity="1" fill-rule="nonzero"/></g></g><g clip-path="url(#e9b680d3af)"><g clip-path="url(#bd4125db95)"><path fill="#000000" d="M 18.132812 19.761719 L 31.394531 19.761719 L 31.394531 32.195312 L 18.132812 32.195312 Z M 18.132812 19.761719 " fill-opacity="1" fill-rule="nonzero"/></g></g><g clip-path="url(#586a0390d0)"><g clip-path="url(#6222d5bf37)"><path fill="#000000" d="M 18.429688 20.648438 L 28.496094 20.648438 L 28.496094 31.816406 L 18.429688 31.816406 Z M 18.429688 20.648438 " fill-opacity="1" fill-rule="nonzero"/></g></g><g clip-path="url(#8ed0664477)"><g clip-path="url(#8e24aea890)"><path fill="#000000" d="M 24.792969 19.613281 L 31.460938 19.613281 L 31.460938 26.050781 L 24.792969 26.050781 Z M 24.792969 19.613281 " fill-opacity="1" fill-rule="nonzero"/></g></g><g clip-path="url(#a680f621cf)"><g clip-path="url(#c6ac59fc6f)"><path fill="#000000" d="M 23.386719 19.761719 L 30.054688 19.761719 L 30.054688 26.199219 L 23.386719 26.199219 Z M 23.386719 19.761719 " fill-opacity="1" fill-rule="nonzero"/><path fill="#000000" d="M 23.386719 19.761719 L 30.054688 19.761719 L 30.054688 26.199219 L 23.386719 26.199219 Z M 23.386719 19.761719 " fill-opacity="1" fill-rule="nonzero"/></g></g><g clip-path="url(#b1069ecbae)"><g clip-path="url(#62df67affe)"><path fill="#1e1e1e" d="M 17.835938 19.613281 L 30.992188 19.613281 L 30.992188 32.566406 L 17.835938 32.566406 Z M 17.835938 19.613281 " fill-opacity="1" fill-rule="nonzero"/></g></g></svg>