<svg xmlns="http://www.w3.org/2000/svg" xmlns:xlink="http://www.w3.org/1999/xlink" width="300" zoomAndPan="magnify" viewBox="0 0 224.87999 74.999997" height="100" preserveAspectRatio="xMidYMid meet" version="1.0"><defs><clipPath id="de493640ca"><path d="M 0 0.0195312 L 224.761719 0.0195312 L 224.761719 74.980469 L 0 74.980469 Z M 0 0.0195312 " clip-rule="nonzero"/></clipPath><clipPath id="1c9bb99855"><path d="M 3.296875 1.742188 C 2.097656 18.683594 3.972656 51.144531 3.746094 62.011719 C 3.597656 66.808594 3.824219 72.054688 2.921875 72.355469 C 2.472656 72.507812 0.972656 71.007812 1.125 70.632812 C 1.574219 69.734375 12.96875 72.28125 16.566406 71.832031 C 18.515625 71.53125 19.265625 70.558594 20.988281 70.183594 C 23.085938 69.734375 24.660156 69.582031 28.261719 69.433594 C 38.53125 68.910156 77.207031 69.058594 87.777344 70.183594 C 91.675781 70.632812 92.050781 71.605469 95.722656 71.90625 C 104.269531 72.507812 126.980469 68.609375 138.226562 68.984375 C 145.574219 69.28125 149.394531 71.15625 156.515625 71.605469 C 166.5625 72.207031 184.703125 71.382812 192.796875 70.707031 C 196.917969 70.332031 198.417969 69.582031 202.167969 69.28125 C 207.714844 68.910156 221.28125 71.90625 223.082031 69.359375 C 224.207031 67.859375 221.355469 65.308594 220.683594 61.9375 C 219.40625 55.339844 218.957031 41.996094 218.660156 31.953125 C 218.359375 21.910156 217.609375 2.117188 219.03125 1.59375 C 219.40625 1.519531 220.605469 3.09375 220.457031 3.542969 C 220.308594 3.917969 219.40625 3.84375 218.285156 3.992188 C 213.9375 4.519531 197.070312 4.816406 187.773438 4.667969 C 179.902344 4.519531 171.582031 3.242188 166.035156 3.394531 C 162.664062 3.46875 161.390625 4.144531 157.941406 4.292969 C 152.019531 4.59375 140.476562 4.59375 133.652344 3.917969 C 128.480469 3.394531 124.132812 1.667969 120.234375 1.519531 C 117.238281 1.445312 114.390625 2.417969 112.289062 2.34375 C 110.867188 2.269531 109.742188 1.445312 108.765625 1.59375 C 107.941406 1.742188 107.566406 2.644531 106.742188 2.867188 C 105.542969 3.09375 103.445312 1.96875 102.019531 2.117188 C 100.894531 2.269531 100.070312 3.167969 99.023438 3.316406 C 97.898438 3.394531 96.847656 2.792969 95.5 2.792969 C 93.699219 2.792969 90.703125 3.917969 89.050781 3.769531 C 87.929688 3.691406 87.253906 2.867188 86.355469 2.867188 C 85.378906 2.867188 84.855469 3.617188 83.503906 3.84375 C 80.433594 4.292969 72.710938 3.09375 68.511719 3.394531 C 65.363281 3.542969 62.816406 4.519531 60.417969 4.59375 C 58.617188 4.742188 57.195312 4.816406 55.621094 4.441406 C 53.972656 3.992188 52.097656 2.117188 50.824219 2.195312 C 49.921875 2.269531 49.472656 3.46875 48.574219 3.769531 C 47.597656 4.144531 47 3.992188 45.199219 4.066406 C 39.429688 4.367188 16.792969 5.117188 7.570312 4.519531 C 2.097656 4.144531 -3.597656 4.066406 -5.320312 2.492188 C -6.148438 1.742188 -6.371094 0.320312 -6.070312 -0.429688 C -5.773438 -1.179688 -4.273438 -1.929688 -3.449219 -1.929688 C -2.773438 -1.855469 -1.949219 -1.105469 -1.574219 -0.578125 C -1.273438 -0.128906 -1.199219 0.46875 -1.347656 0.996094 C -1.5 1.667969 -2.175781 2.570312 -2.773438 2.867188 C -3.449219 3.09375 -4.574219 3.09375 -5.097656 2.644531 C -5.773438 2.195312 -6.445312 0.621094 -6.148438 -0.128906 C -5.921875 -0.953125 -4.949219 -1.628906 -3.746094 -1.929688 C -1.199219 -2.605469 3.898438 -0.578125 9.21875 -0.28125 C 17.914062 0.167969 35.832031 -0.503906 43.476562 -0.953125 C 47.300781 -1.253906 49.699219 -2.152344 52.171875 -1.929688 C 54.046875 -1.777344 55.09375 -0.804688 57.121094 -0.578125 C 60.34375 -0.28125 65.214844 -1.480469 69.789062 -1.628906 C 75.335938 -1.929688 85.003906 -2.753906 88.078125 -1.628906 C 89.277344 -1.179688 90.25 0.167969 90.25 0.167969 C 90.25 0.167969 88.453125 -1.03125 88.527344 -1.402344 C 88.753906 -1.929688 91.453125 -1.929688 93.625 -2.152344 C 97.449219 -2.527344 107.042969 -3.578125 109.890625 -2.753906 C 111.015625 -2.453125 112.066406 -1.402344 111.988281 -1.402344 C 111.988281 -1.402344 109.964844 -2.230469 110.042969 -2.527344 C 110.042969 -2.828125 111.242188 -2.976562 112.214844 -3.128906 C 114.015625 -3.429688 117.011719 -3.804688 119.9375 -3.652344 C 123.757812 -3.429688 129.382812 -1.554688 133.203125 -1.328125 C 136.050781 -1.105469 138.902344 -1.777344 140.773438 -1.554688 C 141.898438 -1.402344 142.125 -0.953125 143.398438 -0.804688 C 146.320312 -0.355469 154.492188 -0.578125 158.390625 -0.953125 C 160.863281 -1.179688 161.839844 -2.003906 164.460938 -2.152344 C 169.632812 -2.453125 178.78125 -0.730469 187.023438 -0.578125 C 197.21875 -0.355469 216.335938 -2.605469 220.980469 -1.554688 C 222.257812 -1.253906 222.78125 -1.03125 223.304688 -0.355469 C 223.90625 0.394531 223.90625 1.21875 224.128906 2.792969 C 224.65625 7.515625 223.457031 21.007812 223.832031 31.203125 C 224.28125 43.195312 227.503906 65.160156 227.203125 70.40625 C 227.128906 71.832031 227.355469 72.28125 226.753906 72.957031 C 225.929688 73.929688 223.980469 74.457031 221.730469 74.828125 C 217.535156 75.503906 208.164062 74.082031 202.839844 74.378906 C 199.019531 74.605469 197.292969 75.429688 193.023438 75.804688 C 185.078125 76.402344 168.734375 77.003906 158.691406 76.554688 C 150.746094 76.253906 145.722656 74.378906 137.476562 74.15625 C 125.78125 73.929688 103.746094 77.527344 95.050781 76.929688 C 91.152344 76.628906 90.703125 75.578125 86.578125 75.203125 C 76.160156 74.082031 41.226562 74.378906 30.957031 74.605469 C 27.0625 74.679688 25.5625 74.679688 22.863281 75.054688 C 20.238281 75.503906 18.140625 76.777344 15.140625 77.078125 C 10.945312 77.378906 2.472656 76.855469 -0.0742188 75.65625 C -1.125 75.128906 -1.574219 74.53125 -1.949219 73.855469 C -2.324219 73.105469 -2.175781 72.429688 -2.175781 71.308594 C -2.175781 69.207031 -1.5 66.585938 -1.347656 62.3125 C -0.972656 52.042969 -2.921875 19.359375 -2.175781 9.015625 C -1.875 4.742188 -1.949219 1.371094 -0.75 -0.0546875 C -0.148438 -0.804688 1.050781 -0.953125 1.722656 -0.804688 C 2.25 -0.730469 2.773438 -0.28125 3 0.167969 C 3.296875 0.621094 3.296875 1.742188 3.296875 1.742188 " clip-rule="nonzero"/></clipPath><clipPath id="6167fc396b"><path d="M 39.625 9.320312 L 73 9.320312 L 73 62.703125 L 39.625 62.703125 Z M 39.625 9.320312 " clip-rule="nonzero"/></clipPath><clipPath id="c0d1173da7"><path d="M 69.835938 17.894531 C 64.410156 13.765625 63.113281 13.589844 61.640625 13.472656 C 59.871094 13.296875 57.394531 13.355469 55.742188 13.707031 C 54.386719 14.003906 53.441406 14.121094 52.324219 15.003906 C 50.257812 16.597656 46.898438 21.550781 46.132812 24.027344 C 45.660156 25.5 45.71875 26.679688 46.074219 27.800781 C 46.484375 28.921875 47.132812 29.804688 48.492188 30.6875 C 51.027344 32.457031 59.695312 34.34375 62.109375 35.347656 C 62.996094 35.703125 63.289062 35.761719 63.9375 36.230469 C 64.941406 37 66.472656 38.238281 67.417969 39.652344 C 68.539062 41.304688 69.71875 44.132812 70.070312 45.605469 C 70.308594 46.433594 70.367188 46.964844 70.246094 47.613281 C 70.1875 48.261719 69.835938 48.851562 69.421875 49.558594 C 68.773438 50.617188 67.710938 52.035156 66.652344 53.09375 C 65.589844 54.097656 64.117188 55.21875 62.996094 55.691406 C 62.230469 55.984375 61.519531 56.21875 60.929688 56.101562 C 60.460938 56.042969 60.046875 55.75 59.8125 55.394531 C 59.457031 54.921875 59.28125 54.039062 59.398438 53.507812 C 59.515625 53.035156 59.871094 52.566406 60.28125 52.328125 C 60.8125 52.09375 62.230469 51.976562 62.640625 52.445312 C 63.113281 52.976562 63.171875 54.6875 62.640625 55.75 C 61.699219 57.457031 58.21875 59.523438 55.507812 60.644531 C 52.5 61.882812 47.78125 62.941406 45.304688 62.53125 C 43.773438 62.292969 42.59375 61.585938 41.769531 60.644531 C 40.882812 59.757812 40.351562 58.34375 40.117188 57.222656 C 39.882812 56.160156 39.644531 54.804688 40.058594 54.097656 C 40.472656 53.507812 41.769531 52.976562 42.417969 53.15625 C 43.066406 53.332031 43.890625 54.511719 43.949219 55.160156 C 44.007812 55.75 43.476562 56.574219 43.007812 56.871094 C 42.535156 57.222656 41.589844 57.339844 41.121094 57.105469 C 40.53125 56.808594 39.761719 55.632812 39.761719 54.980469 C 39.824219 54.394531 40.351562 53.566406 40.882812 53.332031 C 41.472656 53.09375 42.710938 53.273438 43.359375 53.742188 C 44.125 54.332031 44.1875 56.339844 44.777344 57.164062 C 45.1875 57.753906 45.425781 58.226562 46.191406 58.460938 C 47.78125 58.875 52.382812 57.578125 54.800781 56.457031 C 56.863281 55.511719 59.222656 52.210938 59.988281 52.566406 C 60.519531 52.800781 60.34375 55.691406 60.164062 55.75 C 59.988281 55.808594 59.457031 54.921875 59.339844 54.511719 C 59.28125 54.039062 59.398438 53.449219 59.574219 53.035156 C 59.8125 52.625 60.28125 52.269531 60.753906 52.09375 C 61.285156 51.976562 62.523438 52.625 62.640625 52.445312 C 62.699219 52.269531 61.875 51.796875 61.875 51.503906 C 61.933594 51.03125 63.113281 50.796875 63.703125 50.148438 C 64.527344 49.320312 66.003906 48.082031 66.121094 46.785156 C 66.238281 45.195312 64.175781 42.480469 63.289062 41.304688 C 62.757812 40.59375 62.582031 40.359375 61.757812 39.828125 C 59.457031 38.472656 49.964844 36.644531 47.015625 34.875 C 45.484375 33.992188 44.835938 33.226562 44.007812 32.164062 C 43.183594 31.160156 42.417969 30.101562 42.0625 28.742188 C 41.652344 27.09375 41.828125 24.144531 42.0625 22.789062 C 42.179688 22.023438 42.238281 21.84375 42.652344 21.136719 C 43.773438 19.132812 47.605469 13.355469 50.316406 11.46875 C 52.382812 10.050781 54.621094 9.757812 56.746094 9.460938 C 58.75 9.226562 60.992188 9.402344 62.757812 9.640625 C 64.175781 9.816406 65.648438 10.167969 66.652344 10.582031 C 67.417969 10.878906 67.769531 11.113281 68.480469 11.703125 C 69.660156 12.644531 72.664062 14.886719 72.902344 16.183594 C 73.078125 16.890625 72.664062 17.777344 72.253906 18.128906 C 71.957031 18.425781 71.425781 18.484375 71.015625 18.484375 C 70.601562 18.425781 69.835938 17.894531 69.835938 17.894531 " clip-rule="nonzero"/></clipPath><clipPath id="ab992b8ea1"><path d="M 79.589844 29.808594 L 105.167969 29.808594 L 105.167969 60.136719 L 79.589844 60.136719 Z M 79.589844 29.808594 " clip-rule="nonzero"/></clipPath><clipPath id="1c48f4f60d"><path d="M 92.351562 35.101562 C 87.703125 36.527344 86.953125 37.050781 86.503906 37.648438 C 86.054688 38.25 85.980469 38.847656 85.753906 39.824219 C 85.378906 41.398438 84.78125 44.621094 85.003906 46.644531 C 85.230469 48.371094 85.753906 49.941406 86.503906 51.367188 C 87.253906 52.640625 88.527344 54.742188 89.503906 54.664062 C 90.550781 54.664062 91.675781 52.492188 92.574219 50.992188 C 93.699219 49.042969 94.972656 46.496094 95.125 43.796875 C 95.425781 40.347656 92.277344 34.203125 92.875 32.027344 C 93.101562 31.054688 93.773438 30.378906 94.449219 30.078125 C 95.125 29.777344 96.324219 29.929688 96.921875 30.304688 C 97.597656 30.679688 97.824219 31.351562 98.199219 32.476562 C 99.246094 35.777344 98.574219 48.820312 100.597656 52.792969 C 101.722656 54.964844 104.570312 55.714844 105.019531 56.839844 C 105.242188 57.4375 105.167969 58.039062 104.867188 58.488281 C 104.570312 59.089844 103.667969 59.914062 102.921875 60.0625 C 102.246094 60.136719 101.046875 59.839844 100.597656 59.3125 C 100.070312 58.640625 99.847656 56.914062 100.222656 56.089844 C 100.519531 55.492188 101.570312 54.890625 102.320312 54.816406 C 102.996094 54.816406 104.121094 55.265625 104.570312 55.863281 C 105.019531 56.390625 105.242188 57.589844 104.945312 58.265625 C 104.644531 59.011719 103.371094 60.0625 102.394531 60.0625 C 100.820312 60.0625 97.898438 57.8125 96.625 56.238281 C 95.574219 54.816406 95.425781 53.542969 94.898438 51.367188 C 93.925781 47.167969 92.277344 35.851562 92.800781 32.703125 C 93.023438 31.503906 93.324219 30.902344 93.851562 30.453125 C 94.449219 30.003906 95.648438 29.777344 96.324219 30.003906 C 97.074219 30.230469 97.597656 30.902344 98.121094 31.804688 C 99.171875 33.828125 100.371094 39.449219 100.519531 42.371094 C 100.597656 44.394531 100.296875 45.671875 99.847656 47.46875 C 99.171875 49.644531 97.972656 52.566406 96.773438 54.515625 C 95.875 56.089844 95.050781 57.515625 93.773438 58.414062 C 92.574219 59.3125 90.851562 60.0625 89.425781 59.988281 C 88.003906 59.988281 86.503906 59.011719 85.304688 58.113281 C 84.03125 57.214844 82.980469 56.015625 82.15625 54.515625 C 81.105469 52.71875 80.207031 50.019531 79.90625 47.996094 C 79.609375 46.269531 79.683594 44.996094 79.90625 43.273438 C 80.28125 41.097656 80.882812 37.875 81.929688 35.925781 C 82.753906 34.425781 83.65625 33.226562 85.078125 32.328125 C 86.878906 31.277344 90.550781 30.453125 91.976562 30.527344 C 92.652344 30.605469 93.101562 30.828125 93.476562 31.203125 C 93.851562 31.503906 94.148438 32.101562 94.226562 32.628906 C 94.226562 33.152344 94.074219 33.828125 93.773438 34.203125 C 93.476562 34.652344 92.351562 35.101562 92.351562 35.101562 " clip-rule="nonzero"/></clipPath><clipPath id="22782caf2b"><path d="M 114.910156 8.527344 L 133.394531 8.527344 L 133.394531 58 L 114.910156 58 Z M 114.910156 8.527344 " clip-rule="nonzero"/></clipPath><clipPath id="3da18b6216"><path d="M 119.15625 10.445312 C 119.839844 26.929688 121.085938 29.542969 121.519531 32.40625 C 121.894531 35.144531 121.332031 37.941406 121.957031 40.617188 C 122.578125 43.355469 124.753906 46.402344 125.191406 48.703125 C 125.5625 50.320312 124.445312 52.125 125.3125 53.058594 C 126.371094 54.179688 131.597656 52.746094 132.65625 53.679688 C 133.277344 54.304688 133.402344 55.671875 133.089844 56.292969 C 132.78125 56.855469 131.410156 57.539062 130.726562 57.351562 C 130.042969 57.226562 129.109375 56.046875 129.046875 55.421875 C 128.921875 54.800781 129.359375 53.867188 129.855469 53.554688 C 130.414062 53.183594 131.910156 53.183594 132.46875 53.554688 C 132.964844 53.867188 133.339844 54.800781 133.339844 55.359375 C 133.277344 55.984375 132.964844 56.667969 132.28125 57.101562 C 130.914062 57.972656 125.6875 58.160156 123.882812 57.664062 C 122.949219 57.414062 122.328125 56.976562 121.894531 56.355469 C 121.457031 55.796875 121.332031 55.113281 121.207031 54.242188 C 121.023438 52.996094 121.457031 50.945312 121.085938 49.449219 C 120.773438 48.082031 119.777344 47.148438 119.21875 45.71875 C 118.535156 43.914062 117.910156 41.800781 117.601562 39.683594 C 117.226562 37.257812 117.539062 34.582031 117.226562 31.785156 C 116.855469 28.550781 115.546875 24.941406 115.238281 21.332031 C 114.925781 17.664062 114.800781 11.816406 115.359375 10.011719 C 115.546875 9.390625 115.796875 9.140625 116.109375 8.890625 C 116.480469 8.640625 117.039062 8.519531 117.476562 8.582031 C 117.847656 8.640625 118.347656 8.890625 118.65625 9.203125 C 118.90625 9.511719 119.15625 10.445312 119.15625 10.445312 " clip-rule="nonzero"/></clipPath><clipPath id="49c2e86357"><path d="M 142.054688 22 L 168 22 L 168 58.863281 L 142.054688 58.863281 Z M 142.054688 22 " clip-rule="nonzero"/></clipPath><clipPath id="e153a60537"><path d="M 144.824219 33.300781 C 152.917969 34.277344 155.015625 33.753906 156.292969 33.378906 C 157.191406 33.078125 157.941406 32.851562 158.464844 32.328125 C 159.066406 31.804688 159.589844 30.902344 159.738281 30.152344 C 159.890625 29.40625 159.964844 28.128906 159.515625 27.832031 C 158.765625 27.378906 155.542969 28.804688 154.417969 29.777344 C 153.667969 30.527344 153.441406 31.351562 153.066406 32.550781 C 152.46875 34.5 151.867188 37.875 151.792969 40.796875 C 151.71875 44.023438 151.121094 48.96875 152.917969 51.144531 C 154.566406 53.089844 158.839844 53.464844 161.3125 53.691406 C 163.1875 53.839844 165.136719 52.492188 166.261719 53.015625 C 167.160156 53.390625 167.984375 54.742188 167.984375 55.566406 C 167.984375 56.316406 167.3125 57.214844 166.710938 57.589844 C 166.035156 57.964844 164.910156 57.964844 164.3125 57.664062 C 163.636719 57.363281 162.964844 56.464844 162.886719 55.714844 C 162.8125 54.964844 163.636719 53.390625 164.386719 53.015625 C 165.136719 52.71875 166.785156 53.242188 167.386719 53.765625 C 167.835938 54.140625 167.984375 54.742188 167.984375 55.265625 C 167.910156 55.941406 167.609375 56.914062 166.9375 57.4375 C 165.8125 58.339844 162.589844 58.789062 161.015625 58.863281 C 159.890625 58.863281 159.363281 58.714844 158.164062 58.414062 C 156.066406 57.8125 151.34375 56.238281 149.769531 55.039062 C 148.871094 54.441406 148.644531 53.992188 148.195312 53.015625 C 147.445312 51.292969 146.996094 47.769531 146.773438 44.996094 C 146.546875 42.222656 146.546875 39.222656 146.921875 36.375 C 147.296875 33.601562 148.046875 30.078125 149.019531 28.28125 C 149.621094 27.15625 149.996094 26.707031 150.96875 25.957031 C 152.695312 24.605469 156.890625 22.359375 158.765625 22.132812 C 159.816406 21.984375 160.5625 22.28125 161.3125 22.65625 C 162.0625 23.03125 162.664062 23.558594 163.261719 24.382812 C 163.9375 25.507812 164.539062 27.304688 164.6875 28.804688 C 164.835938 30.304688 164.835938 32.101562 164.085938 33.453125 C 163.261719 34.953125 161.238281 36.300781 159.589844 37.199219 C 157.941406 38.023438 156.292969 38.550781 154.191406 38.773438 C 151.34375 39.074219 145.722656 38.398438 143.921875 37.800781 C 143.25 37.574219 142.875 37.425781 142.574219 36.976562 C 142.199219 36.449219 142.050781 35.476562 142.199219 34.875 C 142.347656 34.351562 142.796875 33.828125 143.25 33.601562 C 143.699219 33.300781 144.824219 33.300781 144.824219 33.300781 " clip-rule="nonzero"/></clipPath><clipPath id="52c1795068"><path d="M 18.640625 19.308594 L 20.789062 19.308594 L 20.789062 21.367188 L 18.640625 21.367188 Z M 18.640625 19.308594 " clip-rule="nonzero"/></clipPath><clipPath id="e0c36c3392"><path d="M 18.664062 20.859375 C 19.9375 19.210938 20.839844 20.335938 20.765625 20.707031 C 20.613281 21.007812 19.265625 21.457031 18.964844 21.234375 C 18.664062 21.007812 18.816406 19.585938 19.113281 19.359375 C 19.414062 19.210938 20.464844 19.507812 20.6875 19.808594 C 20.839844 20.183594 20.6875 21.082031 20.3125 21.308594 C 20.015625 21.535156 18.664062 20.933594 18.664062 20.933594 " clip-rule="nonzero"/></clipPath><clipPath id="96e2679574"><path d="M 10.035156 5.933594 L 12.375 5.933594 L 12.375 8.207031 L 10.035156 8.207031 Z M 10.035156 5.933594 " clip-rule="nonzero"/></clipPath><clipPath id="9d78a5b5cb"><path d="M 11.167969 8.191406 C 10.269531 6.316406 11.695312 6.015625 11.992188 6.242188 C 12.21875 6.464844 11.992188 7.964844 11.695312 8.117188 C 11.320312 8.191406 10.121094 7.515625 10.042969 7.140625 C 10.042969 6.765625 10.792969 5.941406 11.167969 5.941406 C 11.542969 5.941406 12.292969 6.542969 12.367188 6.917969 C 12.367188 7.292969 11.242188 8.191406 11.242188 8.191406 " clip-rule="nonzero"/></clipPath><clipPath id="e28e3a2fd0"><path d="M 9.886719 13.503906 L 12.160156 13.503906 L 12.160156 15.78125 L 9.886719 15.78125 Z M 9.886719 13.503906 " clip-rule="nonzero"/></clipPath><clipPath id="487d664220"><path d="M 12.144531 14.636719 C 10.269531 15.535156 9.96875 14.113281 10.195312 13.886719 C 10.496094 13.585938 11.917969 13.8125 12.070312 14.1875 C 12.21875 14.488281 11.46875 15.6875 11.09375 15.761719 C 10.71875 15.835938 9.96875 15.011719 9.894531 14.636719 C 9.894531 14.261719 10.496094 13.511719 10.871094 13.511719 C 11.242188 13.4375 12.144531 14.5625 12.144531 14.5625 " clip-rule="nonzero"/></clipPath><clipPath id="bbfcbbefc4"><path d="M 9.738281 31.269531 L 12 31.269531 L 12 33.609375 L 9.738281 33.609375 Z M 9.738281 31.269531 " clip-rule="nonzero"/></clipPath><clipPath id="6890411e99"><path d="M 11.992188 32.476562 C 10.121094 33.378906 9.746094 31.953125 10.042969 31.652344 C 10.269531 31.429688 11.695312 31.652344 11.84375 31.953125 C 11.992188 32.253906 11.242188 33.527344 10.871094 33.601562 C 10.570312 33.601562 9.746094 32.851562 9.746094 32.476562 C 9.746094 32.027344 10.570312 31.277344 10.945312 31.277344 C 11.320312 31.277344 11.992188 32.402344 11.992188 32.402344 " clip-rule="nonzero"/></clipPath><clipPath id="ba50bfeead"><path d="M 8.316406 57.175781 L 10.425781 57.175781 L 10.425781 59.039062 L 8.316406 59.039062 Z M 8.316406 57.175781 " clip-rule="nonzero"/></clipPath><clipPath id="94ba111193"><path d="M 10.417969 57.8125 C 9.519531 59.386719 8.621094 59.089844 8.394531 58.789062 C 8.246094 58.414062 8.394531 57.515625 8.695312 57.289062 C 8.996094 57.066406 10.195312 57.363281 10.195312 57.363281 " clip-rule="nonzero"/></clipPath><clipPath id="df6c5df438"><path d="M 19.855469 42.289062 L 22.132812 42.289062 L 22.132812 44.5625 L 19.855469 44.5625 Z M 19.855469 42.289062 " clip-rule="nonzero"/></clipPath><clipPath id="1e85e1c537"><path d="M 20.988281 42.296875 C 21.964844 44.171875 20.464844 44.472656 20.238281 44.246094 C 20.015625 44.023438 20.238281 42.523438 20.539062 42.371094 C 20.839844 42.222656 22.113281 42.972656 22.113281 43.347656 C 22.1875 43.722656 21.363281 44.546875 20.988281 44.546875 C 20.613281 44.546875 19.863281 43.648438 19.863281 43.273438 C 19.863281 42.898438 20.988281 42.296875 20.988281 42.296875 " clip-rule="nonzero"/></clipPath><clipPath id="163853d204"><path d="M 24.652344 47.085938 L 26.929688 47.085938 L 26.929688 49.363281 L 24.652344 49.363281 Z M 24.652344 47.085938 " clip-rule="nonzero"/></clipPath><clipPath id="2edc751b68"><path d="M 25.785156 47.09375 C 26.6875 48.96875 25.261719 49.269531 24.960938 49.042969 C 24.738281 48.820312 24.960938 47.320312 25.261719 47.167969 C 25.636719 47.09375 26.835938 47.769531 26.910156 48.144531 C 26.910156 48.519531 26.160156 49.34375 25.785156 49.34375 C 25.410156 49.34375 24.585938 48.519531 24.660156 48.144531 C 24.660156 47.769531 25.710938 47.09375 25.710938 47.09375 " clip-rule="nonzero"/></clipPath><clipPath id="05cffcf259"><path d="M 29.824219 11.554688 L 32.101562 11.554688 L 32.101562 13.832031 L 29.824219 13.832031 Z M 29.824219 11.554688 " clip-rule="nonzero"/></clipPath><clipPath id="6b17f7daa3"><path d="M 30.957031 11.5625 C 31.859375 13.4375 30.433594 13.738281 30.132812 13.511719 C 29.910156 13.289062 30.132812 11.789062 30.433594 11.714844 C 30.808594 11.5625 32.007812 12.238281 32.082031 12.613281 C 32.082031 12.988281 31.332031 13.8125 30.957031 13.8125 C 30.582031 13.8125 29.835938 13.214844 29.835938 12.839844 C 29.757812 12.464844 30.882812 11.5625 30.882812 11.5625 " clip-rule="nonzero"/></clipPath><clipPath id="9f3f3eddf9"><path d="M 65.507812 12.980469 L 67.847656 12.980469 L 67.847656 15.253906 L 65.507812 15.253906 Z M 65.507812 12.980469 " clip-rule="nonzero"/></clipPath><clipPath id="cd36941133"><path d="M 66.714844 12.988281 C 67.613281 14.863281 66.191406 15.160156 65.890625 14.9375 C 65.664062 14.710938 65.890625 13.214844 66.191406 13.0625 C 66.566406 12.914062 67.765625 13.664062 67.839844 14.039062 C 67.839844 14.414062 67.089844 15.238281 66.714844 15.238281 C 66.339844 15.238281 65.589844 14.636719 65.515625 14.261719 C 65.515625 13.886719 66.640625 12.988281 66.640625 12.988281 " clip-rule="nonzero"/></clipPath><clipPath id="50c224ce18"><path d="M 50.371094 9.578125 L 52.722656 9.578125 L 52.722656 11.867188 L 50.371094 11.867188 Z M 50.371094 9.578125 " clip-rule="nonzero"/></clipPath><clipPath id="cb9c3c35e3"><path d="M 51.199219 11.789062 C 50.746094 9.765625 52.246094 9.839844 52.472656 10.140625 C 52.621094 10.4375 52.023438 11.789062 51.722656 11.863281 C 51.347656 11.863281 50.375 10.890625 50.375 10.515625 C 50.449219 10.140625 51.347656 9.539062 51.796875 9.613281 C 52.171875 9.691406 52.773438 10.4375 52.695312 10.8125 C 52.695312 11.1875 51.421875 11.863281 51.421875 11.863281 " clip-rule="nonzero"/></clipPath><clipPath id="5376d82539"><path d="M 18.253906 67.445312 L 20.394531 67.445312 L 20.394531 69.277344 L 18.253906 69.277344 Z M 18.253906 67.445312 " clip-rule="nonzero"/></clipPath><clipPath id="cc0284a77f"><path d="M 20.390625 68.082031 C 19.414062 69.582031 18.515625 69.359375 18.363281 68.984375 C 18.140625 68.683594 18.289062 67.785156 18.589844 67.558594 C 18.890625 67.335938 20.089844 67.632812 20.089844 67.632812 " clip-rule="nonzero"/></clipPath><clipPath id="bc9844413b"><path d="M 53.886719 66.050781 L 56.226562 66.050781 L 56.226562 68.328125 L 53.886719 68.328125 Z M 53.886719 66.050781 " clip-rule="nonzero"/></clipPath><clipPath id="73a5d5f4fd"><path d="M 55.09375 66.058594 C 55.996094 67.933594 54.570312 68.308594 54.347656 68.007812 C 54.046875 67.785156 54.269531 66.359375 54.644531 66.210938 C 54.945312 66.058594 56.144531 66.808594 56.21875 67.183594 C 56.296875 67.484375 55.46875 68.308594 55.09375 68.308594 C 54.722656 68.382812 53.894531 67.558594 53.894531 67.109375 C 53.894531 66.808594 54.945312 66.058594 54.945312 66.058594 " clip-rule="nonzero"/></clipPath><clipPath id="0e52509c38"><path d="M 75.609375 60.261719 L 77.757812 60.261719 L 77.757812 62.445312 L 75.609375 62.445312 Z M 75.609375 60.261719 " clip-rule="nonzero"/></clipPath><clipPath id="4f1dd6aab5"><path d="M 75.785156 60.585938 C 77.882812 60.886719 77.359375 62.238281 76.984375 62.3125 C 76.683594 62.386719 75.558594 61.414062 75.632812 61.039062 C 75.710938 60.738281 76.984375 60.136719 77.285156 60.289062 C 77.660156 60.4375 77.882812 61.488281 77.660156 61.863281 C 77.507812 62.160156 76.609375 62.535156 76.234375 62.386719 C 75.933594 62.160156 75.710938 60.738281 75.710938 60.738281 " clip-rule="nonzero"/></clipPath><clipPath id="69605aef6a"><path d="M 74.023438 41.359375 L 76.164062 41.359375 L 76.164062 43.191406 L 74.023438 43.191406 Z M 74.023438 41.359375 " clip-rule="nonzero"/></clipPath><clipPath id="df77b7d167"><path d="M 76.160156 41.996094 C 75.183594 43.496094 74.285156 43.273438 74.136719 42.898438 C 73.910156 42.597656 74.136719 41.699219 74.359375 41.472656 C 74.660156 41.246094 75.859375 41.546875 75.859375 41.546875 " clip-rule="nonzero"/></clipPath><clipPath id="09d531f644"><path d="M 106.9375 47.8125 L 109.234375 47.8125 L 109.234375 49.984375 L 106.9375 49.984375 Z M 106.9375 47.8125 " clip-rule="nonzero"/></clipPath><clipPath id="3d82c99338"><path d="M 108.617188 47.917969 C 108.617188 50.019531 107.191406 49.644531 107.117188 49.34375 C 106.96875 49.042969 107.792969 47.84375 108.167969 47.84375 C 108.542969 47.84375 109.292969 49.042969 109.214844 49.417969 C 109.066406 49.71875 108.015625 50.09375 107.640625 49.941406 C 107.269531 49.792969 106.816406 48.96875 106.96875 48.667969 C 107.042969 48.292969 108.46875 47.84375 108.46875 47.84375 " clip-rule="nonzero"/></clipPath><clipPath id="d8c63ff6c9"><path d="M 89.761719 18 L 91.828125 18 L 91.828125 20.074219 L 89.761719 20.074219 Z M 89.761719 18 " clip-rule="nonzero"/></clipPath><clipPath id="2a3fce8039"><path d="M 89.878906 19.808594 C 90.550781 17.785156 91.824219 18.609375 91.824219 18.984375 C 91.824219 19.285156 90.625 20.183594 90.328125 20.035156 C 89.953125 19.960938 89.578125 18.535156 89.878906 18.234375 C 90.027344 17.933594 91.226562 17.933594 91.453125 18.160156 C 91.75 18.460938 91.675781 19.585938 91.453125 19.882812 C 91.152344 20.109375 89.953125 19.808594 89.953125 19.808594 " clip-rule="nonzero"/></clipPath><clipPath id="ea711ef06e"><path d="M 79.046875 19.9375 L 81.117188 19.9375 L 81.117188 22 L 79.046875 22 Z M 79.046875 19.9375 " clip-rule="nonzero"/></clipPath><clipPath id="0a40f41a90"><path d="M 80.808594 21.910156 C 78.859375 21.160156 79.683594 19.960938 80.058594 19.960938 C 80.355469 19.960938 81.183594 21.160156 81.105469 21.457031 C 80.957031 21.832031 79.53125 22.132812 79.308594 21.910156 C 79.007812 21.683594 79.007812 20.558594 79.234375 20.257812 C 79.53125 20.035156 80.507812 19.960938 80.730469 20.183594 C 81.03125 20.410156 80.882812 21.832031 80.882812 21.832031 " clip-rule="nonzero"/></clipPath><clipPath id="451f49c753"><path d="M 90.019531 13.503906 L 92.292969 13.503906 L 92.292969 15.78125 L 90.019531 15.78125 Z M 90.019531 13.503906 " clip-rule="nonzero"/></clipPath><clipPath id="a763ac25e5"><path d="M 91.152344 13.511719 C 92.050781 15.386719 90.625 15.761719 90.402344 15.460938 C 90.101562 15.238281 90.402344 13.8125 90.703125 13.664062 C 91 13.511719 92.199219 14.261719 92.277344 14.636719 C 92.351562 14.9375 91.527344 15.761719 91.152344 15.761719 C 90.777344 15.835938 90.027344 15.160156 90.027344 14.789062 C 90.027344 14.414062 91.152344 13.511719 91.152344 13.511719 " clip-rule="nonzero"/></clipPath><clipPath id="780b1eb6a1"><path d="M 90.09375 54.957031 L 92.367188 54.957031 L 92.367188 57.234375 L 90.09375 57.234375 Z M 90.09375 54.957031 " clip-rule="nonzero"/></clipPath><clipPath id="e0f2ae0630"><path d="M 92.351562 56.089844 C 90.476562 56.988281 90.175781 55.566406 90.402344 55.339844 C 90.625 55.039062 92.125 55.265625 92.277344 55.640625 C 92.425781 55.941406 91.675781 57.140625 91.300781 57.214844 C 90.925781 57.289062 90.101562 56.464844 90.101562 56.089844 C 90.101562 55.714844 90.703125 54.964844 91.078125 54.964844 C 91.453125 54.890625 92.351562 56.015625 92.351562 56.015625 " clip-rule="nonzero"/></clipPath><clipPath id="3a1f2b152d"><path d="M 90.523438 65.28125 L 92.753906 65.28125 L 92.753906 67.449219 L 90.523438 67.449219 Z M 90.523438 65.28125 " clip-rule="nonzero"/></clipPath><clipPath id="9e765256b9"><path d="M 92.199219 65.386719 C 92.125 67.484375 90.703125 67.109375 90.625 66.808594 C 90.476562 66.433594 91.375 65.308594 91.675781 65.308594 C 92.050781 65.308594 92.800781 66.507812 92.726562 66.882812 C 92.574219 67.183594 91.527344 67.558594 91.152344 67.410156 C 90.851562 67.257812 90.402344 66.359375 90.550781 66.058594 C 90.703125 65.683594 92.125 65.386719 92.125 65.386719 " clip-rule="nonzero"/></clipPath><clipPath id="ee964ba262"><path d="M 117.15625 11.195312 L 119.265625 11.195312 L 119.265625 13.027344 L 117.15625 13.027344 Z M 117.15625 11.195312 " clip-rule="nonzero"/></clipPath><clipPath id="c2bb13e092"><path d="M 119.261719 11.863281 C 118.363281 13.363281 117.460938 13.0625 117.238281 12.761719 C 117.085938 12.464844 117.238281 11.5625 117.539062 11.339844 C 117.835938 11.039062 119.035156 11.414062 119.035156 11.414062 " clip-rule="nonzero"/></clipPath><clipPath id="4f31d220a3"><path d="M 90.617188 39.289062 L 92.894531 39.289062 L 92.894531 41.632812 L 90.617188 41.632812 Z M 90.617188 39.289062 " clip-rule="nonzero"/></clipPath><clipPath id="95466f6216"><path d="M 92.875 40.5 C 91 41.398438 90.703125 39.972656 90.925781 39.675781 C 91.152344 39.449219 92.652344 39.675781 92.800781 39.972656 C 92.949219 40.273438 92.199219 41.546875 91.824219 41.621094 C 91.453125 41.621094 90.625 40.875 90.625 40.5 C 90.625 40.125 91.226562 39.375 91.601562 39.300781 C 91.976562 39.300781 92.875 40.421875 92.875 40.421875 " clip-rule="nonzero"/></clipPath><clipPath id="a69b374828"><path d="M 146.386719 21.675781 L 148.730469 21.675781 L 148.730469 23.949219 L 146.386719 23.949219 Z M 146.386719 21.675781 " clip-rule="nonzero"/></clipPath><clipPath id="c7702d0447"><path d="M 147.597656 21.683594 C 148.496094 23.484375 147.070312 23.855469 146.773438 23.632812 C 146.546875 23.332031 146.773438 21.910156 147.070312 21.757812 C 147.445312 21.609375 148.644531 22.359375 148.71875 22.734375 C 148.71875 23.03125 147.972656 23.855469 147.597656 23.933594 C 147.222656 23.933594 146.398438 23.332031 146.398438 23.03125 C 146.320312 22.65625 147.371094 21.683594 147.371094 21.683594 " clip-rule="nonzero"/></clipPath><clipPath id="5be3dd7d7e"><path d="M 126.476562 24.816406 L 128.625 24.816406 L 128.625 26.9375 L 126.476562 26.9375 Z M 126.476562 24.816406 " clip-rule="nonzero"/></clipPath><clipPath id="633c02011c"><path d="M 126.832031 26.78125 C 127.132812 24.757812 128.480469 25.28125 128.554688 25.582031 C 128.632812 25.957031 127.65625 27.003906 127.28125 26.929688 C 126.980469 26.929688 126.308594 25.582031 126.53125 25.28125 C 126.683594 24.980469 127.730469 24.683594 128.105469 24.90625 C 128.40625 25.054688 128.78125 26.03125 128.554688 26.332031 C 128.40625 26.707031 126.980469 26.855469 126.980469 26.855469 " clip-rule="nonzero"/></clipPath><clipPath id="e3fb50b272"><path d="M 130.832031 65.433594 L 132.855469 65.433594 L 132.855469 67.488281 L 130.832031 67.488281 Z M 130.832031 65.433594 " clip-rule="nonzero"/></clipPath><clipPath id="33ccf95508"><path d="M 132.527344 67.484375 C 130.65625 66.507812 131.628906 65.386719 132.003906 65.460938 C 132.304688 65.460938 132.980469 66.808594 132.828125 67.109375 C 132.679688 67.410156 131.253906 67.558594 130.957031 67.257812 C 130.730469 67.035156 130.878906 65.910156 131.179688 65.683594 C 131.480469 65.386719 132.453125 65.386719 132.679688 65.609375 C 132.980469 65.910156 132.753906 67.335938 132.753906 67.335938 " clip-rule="nonzero"/></clipPath><clipPath id="9ba5263423"><path d="M 143.816406 65.730469 L 146.050781 65.730469 L 146.050781 67.996094 L 143.816406 67.996094 Z M 143.816406 65.730469 " clip-rule="nonzero"/></clipPath><clipPath id="19733a0471"><path d="M 145.496094 65.910156 C 145.421875 68.007812 144 67.632812 143.921875 67.257812 C 143.773438 66.960938 144.671875 65.761719 144.972656 65.761719 C 145.347656 65.761719 146.097656 67.035156 146.023438 67.335938 C 145.871094 67.707031 144.824219 68.082031 144.449219 67.933594 C 144.148438 67.785156 143.699219 66.882812 143.847656 66.585938 C 144 66.210938 145.421875 65.835938 145.421875 65.835938 " clip-rule="nonzero"/></clipPath><clipPath id="dc864cb281"><path d="M 168.488281 64.777344 L 170.585938 64.777344 L 170.585938 66.8125 L 168.488281 66.8125 Z M 168.488281 64.777344 " clip-rule="nonzero"/></clipPath><clipPath id="1183fe25f9"><path d="M 168.808594 64.933594 C 170.757812 65.535156 170.007812 66.808594 169.632812 66.808594 C 169.257812 66.808594 168.433594 65.609375 168.511719 65.308594 C 168.660156 65.011719 170.007812 64.636719 170.308594 64.859375 C 170.609375 65.011719 170.683594 66.210938 170.382812 66.433594 C 170.160156 66.734375 169.183594 66.808594 168.886719 66.585938 C 168.585938 66.359375 168.734375 64.933594 168.734375 64.933594 " clip-rule="nonzero"/></clipPath><clipPath id="c0fa522bd0"><path d="M 168.800781 44.011719 L 171.078125 44.011719 L 171.078125 46.289062 L 168.800781 46.289062 Z M 168.800781 44.011719 " clip-rule="nonzero"/></clipPath><clipPath id="56afbda757"><path d="M 168.808594 45.144531 C 170.683594 44.246094 170.984375 45.671875 170.757812 45.894531 C 170.535156 46.195312 169.109375 45.96875 168.960938 45.59375 C 168.808594 45.296875 169.558594 44.097656 169.933594 44.023438 C 170.234375 44.023438 171.058594 44.769531 171.058594 45.144531 C 171.132812 45.519531 170.460938 46.269531 170.085938 46.269531 C 169.710938 46.34375 168.808594 45.222656 168.808594 45.222656 " clip-rule="nonzero"/></clipPath><clipPath id="dbb678cae4"><path d="M 163.78125 23.96875 L 165.890625 23.96875 L 165.890625 25.769531 L 163.78125 25.769531 Z M 163.78125 23.96875 " clip-rule="nonzero"/></clipPath><clipPath id="5d707f9f1d"><path d="M 165.886719 24.605469 C 164.988281 26.105469 164.085938 25.804688 163.863281 25.507812 C 163.710938 25.207031 163.863281 24.308594 164.164062 24.082031 C 164.460938 23.855469 165.660156 24.15625 165.660156 24.15625 " clip-rule="nonzero"/></clipPath><clipPath id="049afc797b"><path d="M 150.4375 12.457031 L 152.710938 12.457031 L 152.710938 14.730469 L 150.4375 14.730469 Z M 150.4375 12.457031 " clip-rule="nonzero"/></clipPath><clipPath id="b40b86b7c8"><path d="M 151.570312 14.710938 C 150.667969 12.914062 152.09375 12.539062 152.320312 12.839844 C 152.617188 13.0625 152.394531 14.488281 152.019531 14.636719 C 151.71875 14.789062 150.519531 14.039062 150.445312 13.664062 C 150.371094 13.363281 151.195312 12.464844 151.570312 12.464844 C 151.945312 12.464844 152.695312 13.363281 152.695312 13.738281 C 152.695312 14.113281 151.570312 14.710938 151.570312 14.710938 " clip-rule="nonzero"/></clipPath><clipPath id="c36b204104"><path d="M 136.417969 31.34375 L 138.695312 31.34375 L 138.695312 33.621094 L 136.417969 33.621094 Z M 136.417969 31.34375 " clip-rule="nonzero"/></clipPath><clipPath id="31a4cb7d09"><path d="M 136.425781 32.476562 C 138.300781 31.578125 138.601562 33.003906 138.375 33.226562 C 138.152344 33.527344 136.726562 33.226562 136.578125 32.925781 C 136.425781 32.628906 137.101562 31.429688 137.476562 31.351562 C 137.851562 31.277344 138.675781 32.101562 138.675781 32.476562 C 138.75 32.851562 138.078125 33.601562 137.703125 33.601562 C 137.328125 33.601562 136.425781 32.476562 136.425781 32.476562 " clip-rule="nonzero"/></clipPath><clipPath id="90d6aad82f"><path d="M 186.417969 16.550781 L 188.625 16.550781 L 188.625 18.378906 L 186.417969 18.378906 Z M 186.417969 16.550781 " clip-rule="nonzero"/></clipPath><clipPath id="22f1c5002c"><path d="M 188.597656 17.1875 C 187.625 18.683594 186.726562 18.460938 186.5 18.160156 C 186.351562 17.785156 186.5 16.886719 186.800781 16.660156 C 187.101562 16.4375 188.300781 16.734375 188.300781 16.734375 " clip-rule="nonzero"/></clipPath><clipPath id="ff236e0900"><path d="M 210.527344 11.078125 L 212.667969 11.078125 L 212.667969 12.910156 L 210.527344 12.910156 Z M 210.527344 11.078125 " clip-rule="nonzero"/></clipPath><clipPath id="56e5a23a18"><path d="M 212.660156 11.714844 C 211.6875 13.214844 210.789062 12.988281 210.636719 12.613281 C 210.414062 12.3125 210.5625 11.414062 210.863281 11.1875 C 211.164062 10.964844 212.363281 11.265625 212.363281 11.265625 " clip-rule="nonzero"/></clipPath><clipPath id="2321436e9c"><path d="M 207.257812 8.03125 L 209.53125 8.03125 L 209.53125 10.308594 L 207.257812 10.308594 Z M 207.257812 8.03125 " clip-rule="nonzero"/></clipPath><clipPath id="48721731f8"><path d="M 208.390625 10.289062 C 207.488281 8.414062 208.914062 8.117188 209.136719 8.339844 C 209.4375 8.566406 209.136719 9.988281 208.839844 10.140625 C 208.539062 10.289062 207.339844 9.539062 207.265625 9.164062 C 207.1875 8.867188 208.015625 8.039062 208.390625 8.039062 C 208.761719 8.039062 209.589844 8.867188 209.511719 9.238281 C 209.511719 9.613281 208.464844 10.289062 208.464844 10.289062 " clip-rule="nonzero"/></clipPath><clipPath id="7446754f2a"><path d="M 183.003906 9.0625 L 185.183594 9.0625 L 185.183594 11.214844 L 183.003906 11.214844 Z M 183.003906 9.0625 " clip-rule="nonzero"/></clipPath><clipPath id="9f11e8c9b2"><path d="M 184.550781 11.1875 C 182.902344 9.914062 184.027344 9.015625 184.402344 9.089844 C 184.703125 9.238281 185.152344 10.664062 184.925781 10.890625 C 184.703125 11.1875 183.277344 11.039062 183.050781 10.738281 C 182.902344 10.4375 183.203125 9.316406 183.578125 9.164062 C 183.875 9.015625 185 9.390625 185.152344 9.765625 C 185.300781 10.066406 184.625 11.1875 184.625 11.1875 " clip-rule="nonzero"/></clipPath><clipPath id="9eef2d4510"><path d="M 196.21875 11.3125 L 198.371094 11.3125 L 198.371094 13.527344 L 196.21875 13.527344 Z M 196.21875 11.3125 " clip-rule="nonzero"/></clipPath><clipPath id="30e82a2057"><path d="M 198.34375 11.9375 C 197.070312 13.585938 196.171875 12.464844 196.246094 12.089844 C 196.320312 11.789062 197.746094 11.339844 198.042969 11.5625 C 198.34375 11.789062 198.195312 13.214844 197.894531 13.4375 C 197.59375 13.664062 196.46875 13.289062 196.320312 12.988281 C 196.171875 12.613281 196.546875 11.5625 196.917969 11.339844 C 197.21875 11.1875 198.269531 11.863281 198.269531 11.863281 " clip-rule="nonzero"/></clipPath><clipPath id="7475614677"><path d="M 190.0625 49.457031 L 192.203125 49.457031 L 192.203125 51.257812 L 190.0625 51.257812 Z M 190.0625 49.457031 " clip-rule="nonzero"/></clipPath><clipPath id="b108d2f05f"><path d="M 192.199219 50.09375 C 191.296875 51.59375 190.398438 51.292969 190.171875 50.992188 C 189.949219 50.691406 190.171875 49.792969 190.472656 49.570312 C 190.773438 49.34375 191.898438 49.644531 191.898438 49.644531 " clip-rule="nonzero"/></clipPath><clipPath id="32f9a11d92"><path d="M 188.59375 27.898438 L 190.703125 27.898438 L 190.703125 29.730469 L 188.59375 29.730469 Z M 188.59375 27.898438 " clip-rule="nonzero"/></clipPath><clipPath id="7ce46cb093"><path d="M 190.699219 28.578125 C 189.796875 30.078125 188.898438 29.777344 188.675781 29.480469 C 188.523438 29.179688 188.675781 28.203125 188.972656 27.980469 C 189.273438 27.753906 190.472656 28.128906 190.472656 28.128906 " clip-rule="nonzero"/></clipPath><clipPath id="1ffb460999"><path d="M 218.574219 62.828125 L 220.851562 62.828125 L 220.851562 65.101562 L 218.574219 65.101562 Z M 218.574219 62.828125 " clip-rule="nonzero"/></clipPath><clipPath id="09d1ea2ef9"><path d="M 219.707031 62.835938 C 220.605469 64.710938 219.183594 65.011719 218.957031 64.785156 C 218.660156 64.5625 218.957031 63.136719 219.257812 62.988281 C 219.558594 62.835938 220.832031 63.511719 220.832031 63.886719 C 220.90625 64.261719 220.082031 65.085938 219.707031 65.085938 C 219.332031 65.085938 218.582031 64.484375 218.582031 64.109375 C 218.582031 63.734375 219.707031 62.835938 219.707031 62.835938 " clip-rule="nonzero"/></clipPath><clipPath id="3551ca648e"><path d="M 203.582031 65.226562 L 205.921875 65.226562 L 205.921875 67.503906 L 203.582031 67.503906 Z M 203.582031 65.226562 " clip-rule="nonzero"/></clipPath><clipPath id="12a9bb3210"><path d="M 204.714844 67.484375 C 203.816406 65.609375 205.242188 65.234375 205.464844 65.535156 C 205.765625 65.761719 205.539062 67.183594 205.164062 67.335938 C 204.867188 67.484375 203.667969 66.734375 203.589844 66.359375 C 203.515625 66.058594 204.339844 65.234375 204.714844 65.234375 C 205.089844 65.160156 205.914062 65.984375 205.914062 66.359375 C 205.914062 66.734375 204.867188 67.484375 204.867188 67.484375 " clip-rule="nonzero"/></clipPath><clipPath id="65c3dff9bb"><path d="M 194.441406 56.726562 L 196.550781 56.726562 L 196.550781 58.558594 L 194.441406 58.558594 Z M 194.441406 56.726562 " clip-rule="nonzero"/></clipPath><clipPath id="2e6d8eb5ae"><path d="M 196.546875 57.363281 C 195.644531 58.863281 194.746094 58.640625 194.519531 58.339844 C 194.371094 57.964844 194.519531 57.066406 194.820312 56.839844 C 195.121094 56.613281 196.320312 56.914062 196.320312 56.914062 " clip-rule="nonzero"/></clipPath><clipPath id="4b768d9188"><path d="M 185.21875 42.738281 L 187.492188 42.738281 L 187.492188 45 L 185.21875 45 Z M 185.21875 42.738281 " clip-rule="nonzero"/></clipPath><clipPath id="5eee560689"><path d="M 185.226562 43.871094 C 187.101562 42.972656 187.398438 44.394531 187.175781 44.621094 C 186.949219 44.921875 185.449219 44.621094 185.300781 44.320312 C 185.152344 44.023438 185.902344 42.820312 186.277344 42.746094 C 186.648438 42.671875 187.476562 43.496094 187.476562 43.871094 C 187.476562 44.246094 186.875 44.996094 186.5 44.996094 C 186.125 44.996094 185.226562 43.871094 185.226562 43.871094 " clip-rule="nonzero"/></clipPath><clipPath id="6a1f292b99"><path d="M 163.328125 33.742188 L 165.605469 33.742188 L 165.605469 36.082031 L 163.328125 36.082031 Z M 163.328125 33.742188 " clip-rule="nonzero"/></clipPath><clipPath id="1d57aaa833"><path d="M 163.335938 34.875 C 165.210938 33.976562 165.585938 35.402344 165.285156 35.699219 C 165.0625 35.925781 163.636719 35.699219 163.488281 35.402344 C 163.335938 35.101562 164.085938 33.828125 164.460938 33.753906 C 164.761719 33.753906 165.585938 34.5 165.585938 34.875 C 165.660156 35.25 165.0625 36 164.6875 36.074219 C 164.3125 36.074219 163.335938 35.027344 163.335938 35.027344 " clip-rule="nonzero"/></clipPath><clipPath id="94144ac751"><path d="M 163.226562 10.476562 L 165.367188 10.476562 L 165.367188 12.308594 L 163.226562 12.308594 Z M 163.226562 10.476562 " clip-rule="nonzero"/></clipPath><clipPath id="e91e7bc316"><path d="M 165.363281 11.113281 C 164.386719 12.613281 163.488281 12.386719 163.335938 12.011719 C 163.113281 11.714844 163.261719 10.8125 163.5625 10.589844 C 163.863281 10.363281 165.0625 10.664062 165.0625 10.664062 " clip-rule="nonzero"/></clipPath><clipPath id="e6847ef124"><path d="M 113.636719 23.460938 L 115.703125 23.460938 L 115.703125 25.527344 L 113.636719 25.527344 Z M 113.636719 23.460938 " clip-rule="nonzero"/></clipPath><clipPath id="8698438d40"><path d="M 115.363281 25.429688 C 113.414062 24.683594 114.238281 23.484375 114.613281 23.484375 C 114.988281 23.484375 115.8125 24.683594 115.664062 24.980469 C 115.511719 25.28125 114.164062 25.65625 113.863281 25.429688 C 113.5625 25.207031 113.5625 24.082031 113.863281 23.78125 C 114.089844 23.484375 115.0625 23.40625 115.289062 23.707031 C 115.589844 23.933594 115.4375 25.355469 115.4375 25.355469 " clip-rule="nonzero"/></clipPath><clipPath id="304fc34230"><path d="M 208.355469 33.953125 L 210.421875 33.953125 L 210.421875 36.023438 L 208.355469 36.023438 Z M 208.355469 33.953125 " clip-rule="nonzero"/></clipPath><clipPath id="8fe66144ba"><path d="M 210.113281 35.925781 C 208.164062 35.175781 208.988281 33.976562 209.363281 33.976562 C 209.664062 33.976562 210.488281 35.175781 210.414062 35.476562 C 210.261719 35.851562 208.914062 36.152344 208.613281 35.925781 C 208.3125 35.699219 208.3125 34.5 208.539062 34.277344 C 208.839844 33.976562 209.964844 34.050781 210.261719 34.351562 C 210.488281 34.652344 210.1875 35.851562 210.1875 35.851562 " clip-rule="nonzero"/></clipPath><clipPath id="3185c8a067"><path d="M 201.378906 21.226562 L 203.523438 21.226562 L 203.523438 23.058594 L 201.378906 23.058594 Z M 201.378906 21.226562 " clip-rule="nonzero"/></clipPath><clipPath id="ed9aa33a45"><path d="M 203.515625 21.910156 C 202.542969 23.40625 201.71875 23.109375 201.492188 22.808594 C 201.265625 22.507812 201.492188 21.535156 201.792969 21.308594 C 202.015625 21.082031 203.214844 21.457031 203.214844 21.457031 " clip-rule="nonzero"/></clipPath><clipPath id="4f43997547"><path d="M 203.566406 51.867188 L 205.714844 51.867188 L 205.714844 54.046875 L 203.566406 54.046875 Z M 203.566406 51.867188 " clip-rule="nonzero"/></clipPath><clipPath id="482e5b4376"><path d="M 205.691406 52.492188 C 204.414062 54.140625 203.515625 53.015625 203.589844 52.640625 C 203.667969 52.34375 205.089844 51.890625 205.390625 52.117188 C 205.617188 52.34375 205.539062 53.765625 205.242188 53.992188 C 204.941406 54.140625 203.816406 53.839844 203.667969 53.464844 C 203.515625 53.167969 203.890625 52.042969 204.191406 51.890625 C 204.566406 51.742188 205.617188 52.417969 205.617188 52.417969 " clip-rule="nonzero"/></clipPath><clipPath id="1e681f19bd"><path d="M 174.777344 30.636719 L 176.945312 30.636719 L 176.945312 32.902344 L 174.777344 32.902344 Z M 174.777344 30.636719 " clip-rule="nonzero"/></clipPath><clipPath id="16298e92f7"><path d="M 174.808594 32.027344 C 176.304688 30.605469 177.054688 31.878906 176.90625 32.179688 C 176.753906 32.476562 175.257812 32.703125 175.03125 32.476562 C 174.808594 32.253906 175.105469 30.828125 175.480469 30.679688 C 175.78125 30.527344 176.832031 30.976562 176.90625 31.351562 C 177.054688 31.726562 176.53125 32.777344 176.230469 32.851562 C 175.855469 33.003906 174.808594 32.253906 174.808594 32.253906 " clip-rule="nonzero"/></clipPath><clipPath id="55b1d62c5d"><path d="M 134.621094 40.863281 L 136.894531 40.863281 L 136.894531 43.140625 L 134.621094 43.140625 Z M 134.621094 40.863281 " clip-rule="nonzero"/></clipPath><clipPath id="edcfa75da8"><path d="M 135.753906 40.875 C 136.652344 42.746094 135.226562 43.046875 135.003906 42.820312 C 134.777344 42.597656 135.003906 41.097656 135.304688 40.949219 C 135.601562 40.796875 136.875 41.546875 136.875 41.921875 C 136.953125 42.296875 136.128906 43.121094 135.753906 43.121094 C 135.378906 43.121094 134.628906 42.296875 134.628906 41.847656 C 134.628906 41.546875 135.753906 40.875 135.753906 40.875 " clip-rule="nonzero"/></clipPath><clipPath id="a1f876c81e"><path d="M 40.082031 43.175781 L 42.148438 43.175781 L 42.148438 45.273438 L 40.082031 45.273438 Z M 40.082031 43.175781 " clip-rule="nonzero"/></clipPath><clipPath id="98e590cceb"><path d="M 42.050781 43.496094 C 41.378906 45.445312 40.105469 44.695312 40.105469 44.320312 C 40.105469 43.945312 41.304688 43.121094 41.601562 43.195312 C 41.976562 43.347656 42.277344 44.695312 42.050781 45.070312 C 41.902344 45.296875 40.703125 45.371094 40.476562 45.070312 C 40.179688 44.769531 40.179688 43.648438 40.476562 43.421875 C 40.703125 43.121094 41.976562 43.421875 41.976562 43.421875 " clip-rule="nonzero"/></clipPath><clipPath id="185808cf75"><path d="M 31.925781 26.921875 L 34.199219 26.921875 L 34.199219 29.261719 L 31.925781 29.261719 Z M 31.925781 26.921875 " clip-rule="nonzero"/></clipPath><clipPath id="088caf6d7c"><path d="M 31.933594 28.054688 C 33.808594 27.15625 34.105469 28.578125 33.882812 28.804688 C 33.582031 29.105469 32.15625 28.804688 32.007812 28.503906 C 31.859375 28.203125 32.609375 27.003906 32.980469 26.929688 C 33.355469 26.855469 34.183594 27.679688 34.183594 28.054688 C 34.183594 28.429688 33.355469 29.253906 32.980469 29.253906 C 32.609375 29.253906 31.933594 28.203125 31.933594 28.203125 " clip-rule="nonzero"/></clipPath><clipPath id="9cd14d57f0"><path d="M 28.6875 55.542969 L 30.753906 55.542969 L 30.753906 57.640625 L 28.6875 57.640625 Z M 28.6875 55.542969 " clip-rule="nonzero"/></clipPath><clipPath id="8c94825fc5"><path d="M 30.660156 55.863281 C 29.984375 57.8125 28.710938 56.988281 28.710938 56.691406 C 28.710938 56.316406 29.910156 55.492188 30.207031 55.566406 C 30.582031 55.714844 30.882812 57.066406 30.660156 57.363281 C 30.433594 57.664062 29.308594 57.738281 29.007812 57.4375 C 28.785156 57.140625 28.785156 56.015625 29.085938 55.714844 C 29.382812 55.492188 30.582031 55.789062 30.582031 55.789062 " clip-rule="nonzero"/></clipPath><clipPath id="ce4edc6782"><path d="M 66.03125 24.148438 L 68.308594 24.148438 L 68.308594 26.425781 L 66.03125 26.425781 Z M 66.03125 24.148438 " clip-rule="nonzero"/></clipPath><clipPath id="cad49d9525"><path d="M 66.039062 25.28125 C 67.914062 24.382812 68.214844 25.804688 67.988281 26.03125 C 67.765625 26.332031 66.265625 26.03125 66.113281 25.730469 C 65.964844 25.429688 66.714844 24.230469 67.089844 24.15625 C 67.464844 24.082031 68.289062 24.90625 68.289062 25.28125 C 68.289062 25.65625 67.6875 26.40625 67.3125 26.40625 C 66.9375 26.480469 66.039062 25.355469 66.039062 25.355469 " clip-rule="nonzero"/></clipPath><clipPath id="ca5c44bb24"><path d="M 38.640625 9.773438 L 40.785156 9.773438 L 40.785156 11.601562 L 38.640625 11.601562 Z M 38.640625 9.773438 " clip-rule="nonzero"/></clipPath><clipPath id="9f15461d7d"><path d="M 40.777344 10.4375 C 39.804688 11.9375 38.902344 11.640625 38.753906 11.339844 C 38.53125 11.039062 38.679688 10.140625 38.980469 9.914062 C 39.277344 9.613281 40.476562 9.988281 40.476562 9.988281 " clip-rule="nonzero"/></clipPath><clipPath id="91b5b54d31"><path d="M 113.035156 63.175781 L 115.144531 63.175781 L 115.144531 65.035156 L 113.035156 65.035156 Z M 113.035156 63.175781 " clip-rule="nonzero"/></clipPath><clipPath id="b1d122d11c"><path d="M 115.136719 63.8125 C 114.238281 65.386719 113.339844 65.085938 113.113281 64.785156 C 112.964844 64.410156 113.113281 63.511719 113.414062 63.285156 C 113.714844 63.0625 114.914062 63.359375 114.914062 63.359375 " clip-rule="nonzero"/></clipPath></defs><g clip-path="url(#de493640ca)"><g clip-path="url(#1c9bb99855)"><rect x="-22.487999" width="269.855988" fill="#1e1e1e" y="-7.5" height="89.999996" fill-opacity="1"/></g></g><g clip-path="url(#6167fc396b)"><g clip-path="url(#c0d1173da7)"><path fill="#fffb47" d="M 37.40625 7.105469 L 75.261719 7.105469 L 75.261719 64.921875 L 37.40625 64.921875 Z M 37.40625 7.105469 " fill-opacity="1" fill-rule="nonzero"/></g></g><g clip-path="url(#ab992b8ea1)"><g clip-path="url(#1c48f4f60d)"><path fill="#fffb47" d="M 76.910156 27.003906 L 108.09375 27.003906 L 108.09375 63.0625 L 76.910156 63.0625 Z M 76.910156 27.003906 " fill-opacity="1" fill-rule="nonzero"/></g></g><g clip-path="url(#22782caf2b)"><g clip-path="url(#3da18b6216)"><path fill="#fffb47" d="M 112.75 6.089844 L 135.828125 6.089844 L 135.828125 60.183594 L 112.75 60.183594 Z M 112.75 6.089844 " fill-opacity="1" fill-rule="nonzero"/></g></g><g clip-path="url(#49c2e86357)"><g clip-path="url(#e153a60537)"><path fill="#fffb47" d="M 139.199219 19.136719 L 170.984375 19.136719 L 170.984375 61.84375 L 139.199219 61.84375 Z M 139.199219 19.136719 " fill-opacity="1" fill-rule="nonzero"/></g></g><g clip-path="url(#52c1795068)"><g clip-path="url(#e0c36c3392)"><path fill="#fffb47" d="M 15.667969 16.210938 L 23.761719 16.210938 L 23.761719 24.308594 L 15.667969 24.308594 Z M 15.667969 16.210938 " fill-opacity="1" fill-rule="nonzero"/></g></g><g clip-path="url(#96e2679574)"><g clip-path="url(#9d78a5b5cb)"><path fill="#fffb47" d="M 7.046875 2.945312 L 15.367188 2.945312 L 15.367188 11.265625 L 7.046875 11.265625 Z M 7.046875 2.945312 " fill-opacity="1" fill-rule="nonzero"/></g></g><g clip-path="url(#e28e3a2fd0)"><g clip-path="url(#487d664220)"><path fill="#fffb47" d="M 6.894531 10.515625 L 15.21875 10.515625 L 15.21875 18.835938 L 6.894531 18.835938 Z M 6.894531 10.515625 " fill-opacity="1" fill-rule="nonzero"/></g></g><g clip-path="url(#bbfcbbefc4)"><g clip-path="url(#6890411e99)"><path fill="#fffb47" d="M 6.746094 28.28125 L 15.066406 28.28125 L 15.066406 36.601562 L 6.746094 36.601562 Z M 6.746094 28.28125 " fill-opacity="1" fill-rule="nonzero"/></g></g><g clip-path="url(#ba50bfeead)"><g clip-path="url(#94ba111193)"><path fill="#fffb47" d="M 5.398438 54.292969 L 13.5 54.292969 L 13.5 62.238281 L 5.398438 62.238281 Z M 5.398438 54.292969 " fill-opacity="1" fill-rule="nonzero"/></g></g><g clip-path="url(#df6c5df438)"><g clip-path="url(#1e85e1c537)"><path fill="#fffb47" d="M 16.867188 39.300781 L 25.1875 39.300781 L 25.1875 47.621094 L 16.867188 47.621094 Z M 16.867188 39.300781 " fill-opacity="1" fill-rule="nonzero"/></g></g><g clip-path="url(#163853d204)"><g clip-path="url(#2edc751b68)"><path fill="#fffb47" d="M 21.664062 44.097656 L 29.984375 44.097656 L 29.984375 52.417969 L 21.664062 52.417969 Z M 21.664062 44.097656 " fill-opacity="1" fill-rule="nonzero"/></g></g><g clip-path="url(#05cffcf259)"><g clip-path="url(#6b17f7daa3)"><path fill="#fffb47" d="M 26.835938 8.566406 L 35.15625 8.566406 L 35.15625 16.886719 L 26.835938 16.886719 Z M 26.835938 8.566406 " fill-opacity="1" fill-rule="nonzero"/></g></g><g clip-path="url(#9f3f3eddf9)"><g clip-path="url(#cd36941133)"><path fill="#fffb47" d="M 62.515625 9.988281 L 70.835938 9.988281 L 70.835938 18.308594 L 62.515625 18.308594 Z M 62.515625 9.988281 " fill-opacity="1" fill-rule="nonzero"/></g></g><g clip-path="url(#50c224ce18)"><g clip-path="url(#cb9c3c35e3)"><path fill="#fffb47" d="M 47.375 6.617188 L 55.78125 6.617188 L 55.78125 14.863281 L 47.375 14.863281 Z M 47.375 6.617188 " fill-opacity="1" fill-rule="nonzero"/></g></g><g clip-path="url(#5376d82539)"><g clip-path="url(#cc0284a77f)"><path fill="#fffb47" d="M 15.367188 64.5625 L 23.46875 64.5625 L 23.46875 72.507812 L 15.367188 72.507812 Z M 15.367188 64.5625 " fill-opacity="1" fill-rule="nonzero"/></g></g><g clip-path="url(#bc9844413b)"><g clip-path="url(#73a5d5f4fd)"><path fill="#fffb47" d="M 50.898438 63.0625 L 59.21875 63.0625 L 59.21875 71.382812 L 50.898438 71.382812 Z M 50.898438 63.0625 " fill-opacity="1" fill-rule="nonzero"/></g></g><g clip-path="url(#0e52509c38)"><g clip-path="url(#4f1dd6aab5)"><path fill="#fffb47" d="M 72.636719 57.289062 L 80.730469 57.289062 L 80.730469 65.386719 L 72.636719 65.386719 Z M 72.636719 57.289062 " fill-opacity="1" fill-rule="nonzero"/></g></g><g clip-path="url(#69605aef6a)"><g clip-path="url(#df77b7d167)"><path fill="#fffb47" d="M 71.136719 38.472656 L 79.238281 38.472656 L 79.238281 46.421875 L 71.136719 46.421875 Z M 71.136719 38.472656 " fill-opacity="1" fill-rule="nonzero"/></g></g><g clip-path="url(#09d531f644)"><g clip-path="url(#3d82c99338)"><path fill="#fffb47" d="M 103.96875 44.847656 L 112.203125 44.847656 L 112.203125 53.015625 L 103.96875 53.015625 Z M 103.96875 44.847656 " fill-opacity="1" fill-rule="nonzero"/></g></g><g clip-path="url(#d8c63ff6c9)"><g clip-path="url(#2a3fce8039)"><path fill="#fffb47" d="M 86.878906 14.9375 L 94.898438 14.9375 L 94.898438 23.019531 L 86.878906 23.019531 Z M 86.878906 14.9375 " fill-opacity="1" fill-rule="nonzero"/></g></g><g clip-path="url(#ea711ef06e)"><g clip-path="url(#0a40f41a90)"><path fill="#fffb47" d="M 76.007812 16.960938 L 84.09375 16.960938 L 84.09375 24.980469 L 76.007812 24.980469 Z M 76.007812 16.960938 " fill-opacity="1" fill-rule="nonzero"/></g></g><g clip-path="url(#451f49c753)"><g clip-path="url(#a763ac25e5)"><path fill="#fffb47" d="M 87.027344 10.515625 L 95.347656 10.515625 L 95.347656 18.835938 L 87.027344 18.835938 Z M 87.027344 10.515625 " fill-opacity="1" fill-rule="nonzero"/></g></g><g clip-path="url(#780b1eb6a1)"><g clip-path="url(#e0f2ae0630)"><path fill="#fffb47" d="M 87.101562 51.96875 L 95.425781 51.96875 L 95.425781 60.289062 L 87.101562 60.289062 Z M 87.101562 51.96875 " fill-opacity="1" fill-rule="nonzero"/></g></g><g clip-path="url(#3a1f2b152d)"><g clip-path="url(#9e765256b9)"><path fill="#fffb47" d="M 87.554688 62.3125 L 95.722656 62.3125 L 95.722656 70.480469 L 87.554688 70.480469 Z M 87.554688 62.3125 " fill-opacity="1" fill-rule="nonzero"/></g></g><g clip-path="url(#ee964ba262)"><g clip-path="url(#c2bb13e092)"><path fill="#fffb47" d="M 114.238281 8.339844 L 122.339844 8.339844 L 122.339844 16.285156 L 114.238281 16.285156 Z M 114.238281 8.339844 " fill-opacity="1" fill-rule="nonzero"/></g></g><g clip-path="url(#4f31d220a3)"><g clip-path="url(#95466f6216)"><path fill="#fffb47" d="M 87.628906 36.300781 L 95.949219 36.300781 L 95.949219 44.621094 L 87.628906 44.621094 Z M 87.628906 36.300781 " fill-opacity="1" fill-rule="nonzero"/></g></g><g clip-path="url(#a69b374828)"><g clip-path="url(#c7702d0447)"><path fill="#fffb47" d="M 143.398438 18.683594 L 151.785156 18.683594 L 151.785156 27.003906 L 143.398438 27.003906 Z M 143.398438 18.683594 " fill-opacity="1" fill-rule="nonzero"/></g></g><g clip-path="url(#5be3dd7d7e)"><g clip-path="url(#633c02011c)"><path fill="#fffb47" d="M 123.535156 21.910156 L 131.628906 21.910156 L 131.628906 30.003906 L 123.535156 30.003906 Z M 123.535156 21.910156 " fill-opacity="1" fill-rule="nonzero"/></g></g><g clip-path="url(#e3fb50b272)"><g clip-path="url(#33ccf95508)"><path fill="#fffb47" d="M 127.730469 62.460938 L 135.828125 62.460938 L 135.828125 70.558594 L 127.730469 70.558594 Z M 127.730469 62.460938 " fill-opacity="1" fill-rule="nonzero"/></g></g><g clip-path="url(#9ba5263423)"><g clip-path="url(#19733a0471)"><path fill="#fffb47" d="M 140.851562 62.761719 L 149.019531 62.761719 L 149.019531 70.933594 L 140.851562 70.933594 Z M 140.851562 62.761719 " fill-opacity="1" fill-rule="nonzero"/></g></g><g clip-path="url(#dc864cb281)"><g clip-path="url(#1183fe25f9)"><path fill="#fffb47" d="M 165.511719 61.863281 L 173.59375 61.863281 L 173.59375 69.882812 L 165.511719 69.882812 Z M 165.511719 61.863281 " fill-opacity="1" fill-rule="nonzero"/></g></g><g clip-path="url(#c0fa522bd0)"><g clip-path="url(#56afbda757)"><path fill="#fffb47" d="M 165.8125 41.023438 L 174.132812 41.023438 L 174.132812 49.34375 L 165.8125 49.34375 Z M 165.8125 41.023438 " fill-opacity="1" fill-rule="nonzero"/></g></g><g clip-path="url(#dbb678cae4)"><g clip-path="url(#5d707f9f1d)"><path fill="#fffb47" d="M 160.863281 21.082031 L 168.964844 21.082031 L 168.964844 29.03125 L 160.863281 29.03125 Z M 160.863281 21.082031 " fill-opacity="1" fill-rule="nonzero"/></g></g><g clip-path="url(#049afc797b)"><g clip-path="url(#b40b86b7c8)"><path fill="#fffb47" d="M 147.445312 9.464844 L 155.765625 9.464844 L 155.765625 17.785156 L 147.445312 17.785156 Z M 147.445312 9.464844 " fill-opacity="1" fill-rule="nonzero"/></g></g><g clip-path="url(#c36b204104)"><g clip-path="url(#31a4cb7d09)"><path fill="#fffb47" d="M 133.429688 28.355469 L 141.75 28.355469 L 141.75 36.675781 L 133.429688 36.675781 Z M 133.429688 28.355469 " fill-opacity="1" fill-rule="nonzero"/></g></g><g clip-path="url(#90d6aad82f)"><g clip-path="url(#22f1c5002c)"><path fill="#fffb47" d="M 183.503906 13.664062 L 191.601562 13.664062 L 191.601562 21.609375 L 183.503906 21.609375 Z M 183.503906 13.664062 " fill-opacity="1" fill-rule="nonzero"/></g></g><g clip-path="url(#ff236e0900)"><g clip-path="url(#56e5a23a18)"><path fill="#fffb47" d="M 207.640625 8.191406 L 215.738281 8.191406 L 215.738281 16.136719 L 207.640625 16.136719 Z M 207.640625 8.191406 " fill-opacity="1" fill-rule="nonzero"/></g></g><g clip-path="url(#2321436e9c)"><g clip-path="url(#48721731f8)"><path fill="#fffb47" d="M 204.265625 5.042969 L 212.585938 5.042969 L 212.585938 13.363281 L 204.265625 13.363281 Z M 204.265625 5.042969 " fill-opacity="1" fill-rule="nonzero"/></g></g><g clip-path="url(#7446754f2a)"><g clip-path="url(#9f11e8c9b2)"><path fill="#fffb47" d="M 179.902344 6.089844 L 188.15625 6.089844 L 188.15625 14.1875 L 179.902344 14.1875 Z M 179.902344 6.089844 " fill-opacity="1" fill-rule="nonzero"/></g></g><g clip-path="url(#9eef2d4510)"><g clip-path="url(#30e82a2057)"><path fill="#fffb47" d="M 193.246094 8.339844 L 201.34375 8.339844 L 201.34375 16.59375 L 193.246094 16.59375 Z M 193.246094 8.339844 " fill-opacity="1" fill-rule="nonzero"/></g></g><g clip-path="url(#7475614677)"><g clip-path="url(#b108d2f05f)"><path fill="#fffb47" d="M 187.175781 46.570312 L 195.277344 46.570312 L 195.277344 54.515625 L 187.175781 54.515625 Z M 187.175781 46.570312 " fill-opacity="1" fill-rule="nonzero"/></g></g><g clip-path="url(#32f9a11d92)"><g clip-path="url(#7ce46cb093)"><path fill="#fffb47" d="M 185.675781 24.980469 L 193.777344 24.980469 L 193.777344 32.925781 L 185.675781 32.925781 Z M 185.675781 24.980469 " fill-opacity="1" fill-rule="nonzero"/></g></g><g clip-path="url(#1ffb460999)"><g clip-path="url(#09d1ea2ef9)"><path fill="#fffb47" d="M 215.585938 59.839844 L 223.90625 59.839844 L 223.90625 68.160156 L 215.585938 68.160156 Z M 215.585938 59.839844 " fill-opacity="1" fill-rule="nonzero"/></g></g><g clip-path="url(#3551ca648e)"><g clip-path="url(#12a9bb3210)"><path fill="#fffb47" d="M 200.59375 62.238281 L 208.976562 62.238281 L 208.976562 70.558594 L 200.59375 70.558594 Z M 200.59375 62.238281 " fill-opacity="1" fill-rule="nonzero"/></g></g><g clip-path="url(#65c3dff9bb)"><g clip-path="url(#2e6d8eb5ae)"><path fill="#fffb47" d="M 191.523438 53.839844 L 199.625 53.839844 L 199.625 61.785156 L 191.523438 61.785156 Z M 191.523438 53.839844 " fill-opacity="1" fill-rule="nonzero"/></g></g><g clip-path="url(#4b768d9188)"><g clip-path="url(#5eee560689)"><path fill="#fffb47" d="M 182.226562 39.75 L 190.546875 39.75 L 190.546875 48.070312 L 182.226562 48.070312 Z M 182.226562 39.75 " fill-opacity="1" fill-rule="nonzero"/></g></g><g clip-path="url(#6a1f292b99)"><g clip-path="url(#1d57aaa833)"><path fill="#fffb47" d="M 160.339844 30.753906 L 168.660156 30.753906 L 168.660156 39.074219 L 160.339844 39.074219 Z M 160.339844 30.753906 " fill-opacity="1" fill-rule="nonzero"/></g></g><g clip-path="url(#94144ac751)"><g clip-path="url(#e91e7bc316)"><path fill="#fffb47" d="M 160.339844 7.589844 L 168.441406 7.589844 L 168.441406 15.535156 L 160.339844 15.535156 Z M 160.339844 7.589844 " fill-opacity="1" fill-rule="nonzero"/></g></g><g clip-path="url(#e6847ef124)"><g clip-path="url(#8698438d40)"><path fill="#fffb47" d="M 110.566406 20.484375 L 118.648438 20.484375 L 118.648438 28.503906 L 110.566406 28.503906 Z M 110.566406 20.484375 " fill-opacity="1" fill-rule="nonzero"/></g></g><g clip-path="url(#304fc34230)"><g clip-path="url(#8fe66144ba)"><path fill="#fffb47" d="M 205.316406 30.976562 L 213.398438 30.976562 L 213.398438 39 L 205.316406 39 Z M 205.316406 30.976562 " fill-opacity="1" fill-rule="nonzero"/></g></g><g clip-path="url(#3185c8a067)"><g clip-path="url(#ed9aa33a45)"><path fill="#fffb47" d="M 198.492188 18.308594 L 206.59375 18.308594 L 206.59375 26.257812 L 198.492188 26.257812 Z M 198.492188 18.308594 " fill-opacity="1" fill-rule="nonzero"/></g></g><g clip-path="url(#4f43997547)"><g clip-path="url(#482e5b4376)"><path fill="#fffb47" d="M 200.59375 48.894531 L 208.6875 48.894531 L 208.6875 57.148438 L 200.59375 57.148438 Z M 200.59375 48.894531 " fill-opacity="1" fill-rule="nonzero"/></g></g><g clip-path="url(#1e681f19bd)"><g clip-path="url(#16298e92f7)"><path fill="#fffb47" d="M 171.808594 27.605469 L 179.980469 27.605469 L 179.980469 35.933594 L 171.808594 35.933594 Z M 171.808594 27.605469 " fill-opacity="1" fill-rule="nonzero"/></g></g><g clip-path="url(#55b1d62c5d)"><g clip-path="url(#edcfa75da8)"><path fill="#fffb47" d="M 131.628906 37.875 L 139.949219 37.875 L 139.949219 46.195312 L 131.628906 46.195312 Z M 131.628906 37.875 " fill-opacity="1" fill-rule="nonzero"/></g></g><g clip-path="url(#a1f876c81e)"><g clip-path="url(#98e590cceb)"><path fill="#fffb47" d="M 37.105469 40.199219 L 45.125 40.199219 L 45.125 48.28125 L 37.105469 48.28125 Z M 37.105469 40.199219 " fill-opacity="1" fill-rule="nonzero"/></g></g><g clip-path="url(#185808cf75)"><g clip-path="url(#088caf6d7c)"><path fill="#fffb47" d="M 28.933594 23.933594 L 37.253906 23.933594 L 37.253906 32.316406 L 28.933594 32.316406 Z M 28.933594 23.933594 " fill-opacity="1" fill-rule="nonzero"/></g></g><g clip-path="url(#9cd14d57f0)"><g clip-path="url(#8c94825fc5)"><path fill="#fffb47" d="M 25.710938 52.566406 L 33.730469 52.566406 L 33.730469 60.648438 L 25.710938 60.648438 Z M 25.710938 52.566406 " fill-opacity="1" fill-rule="nonzero"/></g></g><g clip-path="url(#ce4edc6782)"><g clip-path="url(#cad49d9525)"><path fill="#fffb47" d="M 63.042969 21.160156 L 71.363281 21.160156 L 71.363281 29.480469 L 63.042969 29.480469 Z M 63.042969 21.160156 " fill-opacity="1" fill-rule="nonzero"/></g></g><g clip-path="url(#ca5c44bb24)"><g clip-path="url(#9f15461d7d)"><path fill="#fffb47" d="M 35.757812 6.917969 L 43.855469 6.917969 L 43.855469 14.863281 L 35.757812 14.863281 Z M 35.757812 6.917969 " fill-opacity="1" fill-rule="nonzero"/></g></g><g clip-path="url(#91b5b54d31)"><g clip-path="url(#b1d122d11c)"><path fill="#fffb47" d="M 110.117188 60.289062 L 118.21875 60.289062 L 118.21875 68.234375 L 110.117188 68.234375 Z M 110.117188 60.289062 " fill-opacity="1" fill-rule="nonzero"/></g></g></svg>