<svg xmlns="http://www.w3.org/2000/svg" xmlns:xlink="http://www.w3.org/1999/xlink" width="300" zoomAndPan="magnify" viewBox="0 0 224.87999 74.999997" height="100" preserveAspectRatio="xMidYMid meet" version="1.0"><defs><clipPath id="8ce6cb6140"><path d="M 0 0.0195312 L 224.761719 0.0195312 L 224.761719 74.980469 L 0 74.980469 Z M 0 0.0195312 " clip-rule="nonzero"/></clipPath><clipPath id="135a52c16f"><path d="M 1.761719 -1.328125 C 48.6875 -3.203125 71.25 -1.328125 88.191406 -1.105469 C 102.65625 -0.878906 116.226562 -1.628906 128.445312 -1.328125 C 138.5625 -1.105469 145.011719 -0.355469 156.253906 0.0195312 C 173.570312 0.542969 214.421875 -1.179688 221.992188 1.070312 C 223.792969 1.59375 224.242188 2.042969 224.992188 3.019531 C 225.816406 4.144531 226.117188 5.566406 226.492188 7.816406 C 227.316406 12.539062 227.617188 24.308594 227.390625 30.304688 C 227.242188 34.425781 226.492188 36.152344 226.117188 40.574219 C 225.441406 48.742188 226.117188 69.882812 224.394531 75.355469 C 223.792969 77.304688 223.195312 78.351562 222.21875 78.953125 C 221.46875 79.402344 221.019531 79.179688 219.59375 79.179688 C 214.046875 79.402344 185.5625 79.628906 178.742188 78.277344 C 176.417969 77.828125 175.519531 76.554688 174.167969 76.554688 C 173.121094 76.480469 172.519531 77.230469 171.171875 77.453125 C 168.773438 77.902344 165.175781 78.128906 160.828125 78.128906 C 153.40625 78.054688 137.4375 75.804688 130.542969 76.03125 C 126.871094 76.179688 125.519531 77.078125 122.222656 77.230469 C 117.273438 77.527344 109.03125 76.402344 103.707031 76.480469 C 99.660156 76.628906 95.984375 77.453125 93.0625 77.453125 C 90.964844 77.378906 90.140625 76.929688 87.742188 76.855469 C 83.019531 76.554688 69.675781 77.304688 66.152344 77.230469 C 65.027344 77.230469 64.578125 77.453125 63.902344 77.152344 C 63.152344 76.855469 62.480469 75.28125 61.804688 75.28125 C 61.128906 75.28125 60.90625 76.554688 59.855469 76.929688 C 57.90625 77.679688 51.835938 77.828125 49.511719 77.378906 C 48.3125 77.152344 47.636719 76.03125 46.8125 76.105469 C 46.136719 76.253906 45.761719 77.378906 44.9375 77.679688 C 43.8125 78.128906 42.238281 77.976562 40.742188 78.128906 C 38.867188 78.277344 36.167969 78.878906 34.59375 78.503906 C 33.621094 78.277344 33.167969 77.304688 32.269531 77.230469 C 31.222656 77.078125 30.019531 78.203125 28.671875 78.351562 C 26.949219 78.652344 24.175781 78.503906 22.601562 78.351562 C 21.625 78.277344 20.953125 78.277344 20.203125 77.976562 C 19.527344 77.605469 19.226562 76.402344 18.550781 76.253906 C 17.652344 76.105469 16.679688 77.378906 15.105469 77.605469 C 11.65625 78.054688 0.113281 77.976562 -1.761719 76.179688 C -2.585938 75.429688 -2.511719 73.855469 -2.210938 73.179688 C -1.910156 72.507812 -0.863281 71.980469 -0.261719 71.832031 C 0.335938 71.757812 0.9375 71.90625 1.3125 72.207031 C 1.835938 72.65625 2.511719 73.554688 2.511719 74.304688 C 2.511719 74.980469 2.0625 76.03125 1.460938 76.402344 C 0.9375 76.777344 -0.1875 77.003906 -0.863281 76.777344 C -1.613281 76.402344 -2.511719 74.980469 -2.511719 74.15625 C -2.511719 73.480469 -1.835938 72.582031 -1.238281 72.207031 C -0.785156 71.90625 -0.1875 71.832031 0.335938 71.832031 C 0.785156 71.90625 0.9375 72.355469 1.761719 72.582031 C 5.585938 73.554688 27.246094 74.003906 35.71875 73.628906 C 40.816406 73.40625 43.589844 72.507812 47.9375 72.207031 C 52.882812 71.832031 58.730469 71.683594 63.902344 71.757812 C 68.777344 71.832031 73.648438 72.582031 77.996094 72.507812 C 81.820312 72.429688 85.566406 71.457031 88.640625 71.53125 C 90.890625 71.605469 92.386719 72.355469 94.5625 72.355469 C 97.1875 72.429688 99.808594 71.53125 103.257812 71.382812 C 108.28125 71.15625 117.199219 72.507812 121.921875 72.207031 C 124.847656 71.980469 125.820312 71.007812 129.042969 70.78125 C 135.789062 70.332031 152.429688 73.03125 160.601562 73.03125 C 165.699219 73.03125 169.671875 71.980469 173.121094 72.132812 C 175.445312 72.28125 176.269531 72.882812 179.042969 73.179688 C 185.1875 73.707031 201.378906 73.105469 209.175781 73.554688 C 214.199219 73.78125 221.09375 73.480469 221.542969 74.605469 C 221.769531 75.203125 219.894531 77.230469 219.296875 77.003906 C 217.195312 76.105469 222.742188 32.550781 222.070312 26.105469 C 221.917969 24.53125 221.542969 24.605469 221.320312 23.257812 C 221.019531 20.410156 221.84375 12.839844 221.394531 9.464844 C 221.167969 7.367188 219.820312 4.742188 220.121094 4.519531 C 220.34375 4.367188 222.070312 5.71875 221.917969 6.167969 C 220.945312 8.492188 173.421875 5.640625 156.179688 5.042969 C 144.933594 4.667969 138.339844 3.84375 128.367188 3.691406 C 116.75 3.46875 104.53125 4.21875 90.589844 3.992188 C 73.421875 3.769531 49.210938 1.894531 33.019531 1.894531 C 21.101562 1.96875 5.734375 3.691406 1.988281 3.242188 C 1.160156 3.09375 0.863281 3.019531 0.488281 2.71875 C 0.0390625 2.417969 -0.335938 1.820312 -0.335938 1.292969 C -0.414062 0.695312 -0.113281 -0.28125 0.261719 -0.730469 C 0.636719 -1.105469 1.761719 -1.328125 1.761719 -1.328125 " clip-rule="nonzero"/></clipPath><clipPath id="af0be6e83e"><path d="M 55.390625 5.011719 L 64 5.011719 L 64 66.914062 L 55.390625 66.914062 Z M 55.390625 5.011719 " clip-rule="nonzero"/></clipPath><clipPath id="e468938a99"><path d="M 59.542969 7.011719 C 61.558594 26.4375 61.089844 29.058594 61.289062 33.5625 C 61.558594 40.488281 63.574219 54.535156 63.777344 59.78125 C 63.910156 62 64.113281 63.34375 63.84375 64.484375 C 63.644531 65.359375 63.375 66.164062 62.769531 66.433594 C 62.164062 66.839844 60.550781 66.769531 59.945312 66.300781 C 59.339844 65.828125 59.070312 64.214844 59.339844 63.542969 C 59.542969 62.9375 60.417969 62.265625 61.089844 62.199219 C 61.695312 62.066406 62.703125 62.402344 63.171875 62.871094 C 63.644531 63.34375 63.980469 64.417969 63.777344 65.023438 C 63.574219 65.761719 62.296875 66.703125 61.558594 66.839844 C 61.089844 66.972656 60.550781 66.769531 60.148438 66.433594 C 59.675781 66.097656 59.40625 65.628906 59.140625 64.484375 C 57.996094 60.519531 57.257812 43.042969 56.921875 35.109375 C 56.785156 29.800781 57.191406 26.304688 56.988281 21.734375 C 56.71875 16.960938 55.171875 9.429688 55.441406 7.144531 C 55.507812 6.472656 55.578125 6.136719 55.914062 5.800781 C 56.179688 5.464844 56.652344 5.128906 57.121094 5.0625 C 57.660156 4.996094 58.535156 5.332031 58.9375 5.667969 C 59.273438 6.003906 59.542969 7.011719 59.542969 7.011719 " clip-rule="nonzero"/></clipPath><clipPath id="b642d151aa"><path d="M 55 3.191406 L 90.289062 3.191406 L 90.289062 65.523438 L 55 65.523438 Z M 55 3.191406 " clip-rule="nonzero"/></clipPath><clipPath id="03addc93f7"><path d="M 57.15625 3.382812 C 71.339844 2.976562 72.617188 3.515625 73.894531 4.457031 C 75.171875 5.332031 76.046875 6.472656 77.121094 8.085938 C 78.734375 10.640625 81.355469 16.289062 81.828125 18.574219 C 82.027344 19.582031 81.960938 20.050781 81.757812 20.925781 C 81.488281 22.136719 80.953125 24.152344 80.011719 25.226562 C 79.203125 26.101562 77.726562 27.109375 76.851562 26.976562 C 76.113281 26.910156 75.304688 25.898438 75.105469 25.296875 C 74.902344 24.960938 75.035156 24.554688 75.171875 24.152344 C 75.371094 23.683594 75.84375 23.144531 76.3125 22.875 C 76.71875 22.605469 77.457031 22.472656 77.925781 22.671875 C 78.597656 22.875 79.539062 23.75 79.742188 24.625 C 80.011719 25.832031 79.070312 27.78125 78.464844 29.195312 C 77.859375 30.605469 76.917969 32.21875 76.179688 33.226562 C 75.640625 33.898438 75.371094 34.304688 74.699219 34.707031 C 73.691406 35.242188 71.542969 35.175781 70.601562 35.714844 C 69.929688 36.183594 69.792969 37.058594 69.253906 37.328125 C 68.582031 37.597656 67.574219 37.460938 66.902344 37.261719 C 66.296875 37.058594 65.691406 36.855469 65.425781 36.320312 C 65.019531 35.714844 64.886719 34.234375 65.222656 33.628906 C 65.558594 33.027344 66.164062 32.691406 67.171875 32.421875 C 69.660156 31.882812 77.925781 32.757812 81.488281 34.101562 C 83.910156 35.042969 85.925781 36.722656 87.136719 37.933594 C 87.875 38.605469 88.144531 39.007812 88.546875 39.949219 C 89.289062 41.5625 90.363281 44.789062 90.230469 47.210938 C 90.160156 49.5625 88.953125 52.453125 87.941406 54.335938 C 87.136719 55.8125 86.195312 56.957031 85.054688 57.832031 C 83.976562 58.773438 82.699219 59.242188 81.152344 59.78125 C 79.339844 60.519531 76.851562 60.585938 74.835938 61.394531 C 72.75 62.199219 70.800781 64.015625 68.917969 64.753906 C 67.441406 65.292969 66.027344 65.5625 64.550781 65.492188 C 63.136719 65.492188 61.121094 65.292969 60.382812 64.550781 C 59.84375 64.015625 59.644531 63.007812 59.710938 62.402344 C 59.777344 61.929688 60.113281 61.394531 60.515625 61.125 C 60.988281 60.789062 62.0625 60.519531 62.667969 60.652344 C 63.136719 60.722656 63.675781 61.058594 63.945312 61.460938 C 64.28125 62 64.414062 63.074219 64.28125 63.679688 C 64.214844 64.148438 63.8125 64.621094 63.40625 64.890625 C 62.871094 65.15625 61.792969 65.292969 61.1875 65.089844 C 60.71875 64.957031 60.316406 64.550781 60.046875 64.148438 C 59.777344 63.746094 59.644531 63.140625 59.710938 62.671875 C 59.84375 62.066406 60.25 61.191406 60.921875 60.855469 C 61.996094 60.25 64.347656 61.125 66.097656 60.652344 C 68.113281 60.117188 69.929688 58.367188 72.214844 57.359375 C 74.96875 56.21875 79.40625 56.015625 81.757812 54.335938 C 83.707031 52.921875 85.523438 50.636719 85.859375 48.824219 C 86.128906 47.277344 84.714844 45.527344 84.582031 44.25 C 84.449219 43.378906 84.984375 42.773438 84.714844 42.035156 C 84.246094 40.957031 82.902344 39.613281 81.085938 38.875 C 78.0625 37.460938 69.121094 38 66.902344 37.261719 C 66.097656 36.992188 65.691406 36.789062 65.425781 36.320312 C 65.019531 35.847656 64.820312 34.773438 65.019531 34.167969 C 65.222656 33.496094 65.828125 32.957031 66.566406 32.554688 C 67.710938 31.949219 70.128906 31.546875 71.40625 31.75 C 72.214844 31.882812 73.421875 32.621094 73.421875 32.824219 C 73.355469 32.957031 70.53125 33.027344 70.332031 32.554688 C 70.128906 32.015625 72.28125 30.738281 73.15625 29.464844 C 74.164062 27.851562 74.699219 24.152344 75.84375 23.210938 C 76.449219 22.671875 77.324219 22.472656 77.925781 22.671875 C 78.667969 22.875 79.808594 24.625 79.742188 24.625 C 79.742188 24.691406 78.734375 23.480469 78.0625 23.210938 C 77.390625 22.941406 76.113281 23.480469 75.84375 23.078125 C 75.441406 22.472656 77.253906 20.722656 77.1875 19.246094 C 77.054688 16.757812 74.027344 11.582031 72.886719 9.902344 C 72.347656 9.09375 72.011719 8.824219 71.472656 8.421875 C 70.867188 7.953125 70.464844 7.480469 69.390625 7.210938 C 67.039062 6.539062 58.636719 8.085938 56.617188 7.480469 C 55.945312 7.28125 55.675781 7.011719 55.40625 6.675781 C 55.140625 6.273438 55.003906 5.667969 55.070312 5.195312 C 55.140625 4.726562 55.40625 4.1875 55.746094 3.917969 C 56.082031 3.582031 57.15625 3.382812 57.15625 3.382812 " clip-rule="nonzero"/></clipPath><clipPath id="8e0aa88494"><path d="M 96.691406 28.753906 L 131.355469 28.753906 L 131.355469 62.503906 L 96.691406 62.503906 Z M 96.691406 28.753906 " clip-rule="nonzero"/></clipPath><clipPath id="293917c9fc"><path d="M 101.21875 32.085938 C 103.234375 49.429688 103.574219 50.90625 104.3125 51.847656 C 104.78125 52.453125 105.1875 52.65625 106.125 52.921875 C 108.277344 53.664062 114.730469 54.804688 117.554688 54.066406 C 119.503906 53.59375 121.117188 51.980469 122.125 50.972656 C 122.664062 50.4375 123 50.101562 123.269531 49.292969 C 123.738281 47.882812 123.605469 45.191406 123.46875 42.90625 C 123.402344 40.351562 122.527344 36.925781 122.597656 34.640625 C 122.664062 32.957031 122.730469 31.277344 123.269531 30.269531 C 123.671875 29.597656 124.277344 29.058594 124.8125 28.859375 C 125.285156 28.722656 125.957031 28.859375 126.425781 29.058594 C 126.832031 29.328125 127.101562 29.597656 127.4375 30.269531 C 128.578125 32.488281 131.132812 41.292969 131.199219 45.863281 C 131.335938 49.429688 129.316406 52.722656 129.386719 55.476562 C 129.453125 57.5625 131.335938 59.847656 130.863281 60.988281 C 130.527344 61.796875 129.183594 62.402344 128.445312 62.402344 C 127.839844 62.402344 126.964844 61.730469 126.695312 61.191406 C 126.425781 60.789062 126.292969 60.25 126.425781 59.78125 C 126.5625 59.175781 127.234375 58.367188 127.703125 58.03125 C 128.175781 57.832031 128.714844 57.761719 129.183594 57.898438 C 129.789062 58.03125 130.59375 58.703125 130.863281 59.242188 C 131.066406 59.847656 130.929688 60.921875 130.59375 61.394531 C 130.394531 61.863281 129.921875 62.199219 129.453125 62.335938 C 128.847656 62.46875 127.972656 62.402344 127.300781 61.929688 C 126.359375 61.257812 125.351562 59.109375 125.015625 57.5625 C 124.679688 56.015625 124.949219 54.46875 125.152344 52.722656 C 125.417969 50.570312 126.695312 48.417969 126.695312 45.664062 C 126.628906 41.628906 122.664062 33.226562 123.132812 30.808594 C 123.335938 29.867188 123.804688 29.394531 124.34375 29.058594 C 124.882812 28.789062 125.824219 28.789062 126.425781 29.058594 C 126.964844 29.394531 127.367188 30.066406 127.570312 30.808594 C 127.839844 31.882812 127.101562 33.292969 127.03125 35.175781 C 126.898438 38.605469 128.445312 46.199219 127.773438 49.496094 C 127.4375 51.308594 126.898438 52.386719 125.957031 53.59375 C 124.882812 55.007812 123 56.417969 121.386719 57.292969 C 119.972656 58.03125 118.898438 58.636719 116.949219 58.839844 C 113.65625 59.109375 105.253906 57.832031 102.898438 56.753906 C 102.027344 56.351562 101.757812 56.015625 101.21875 55.34375 C 100.480469 54.402344 99.671875 52.921875 99.136719 51.175781 C 98.261719 48.621094 97.792969 44.585938 97.457031 41.292969 C 97.117188 38 96.378906 33.027344 97.253906 31.34375 C 97.722656 30.539062 98.664062 30.203125 99.269531 30.136719 C 99.742188 30.066406 100.277344 30.402344 100.613281 30.738281 C 100.949219 31.007812 101.21875 32.085938 101.21875 32.085938 " clip-rule="nonzero"/></clipPath><clipPath id="9457e508a0"><path d="M 132 23.628906 L 159.082031 23.628906 L 159.082031 49 L 132 49 Z M 132 23.628906 " clip-rule="nonzero"/></clipPath><clipPath id="988055e4a6"><path d="M 135.90625 24.890625 C 139.402344 29.933594 142.15625 31.414062 143.703125 32.890625 C 145.046875 34.167969 145.453125 35.242188 146.996094 36.65625 C 149.6875 39.210938 158.023438 43.78125 158.894531 46 C 159.230469 46.804688 159.03125 47.613281 158.558594 48.082031 C 158.15625 48.621094 156.675781 49.023438 156.003906 48.824219 C 155.398438 48.6875 154.726562 47.882812 154.59375 47.277344 C 154.460938 46.671875 154.726562 45.730469 155.132812 45.261719 C 155.398438 44.855469 155.871094 44.585938 156.339844 44.519531 C 156.945312 44.453125 157.953125 44.65625 158.359375 45.191406 C 158.828125 45.730469 159.097656 47.210938 158.695312 47.882812 C 158.359375 48.488281 157.28125 49.023438 156.207031 48.957031 C 153.71875 48.621094 148.410156 43.714844 144.710938 40.554688 C 140.878906 37.328125 135.636719 32.890625 133.6875 29.867188 C 132.613281 28.117188 131.738281 26.101562 132.074219 25.09375 C 132.277344 24.355469 133.285156 23.683594 133.957031 23.683594 C 134.5625 23.613281 135.90625 24.890625 135.90625 24.890625 " clip-rule="nonzero"/></clipPath><clipPath id="ea5980e211"><path d="M 139.332031 25.363281 L 167.636719 25.363281 L 167.636719 68.078125 L 139.332031 68.078125 Z M 139.332031 25.363281 " clip-rule="nonzero"/></clipPath><clipPath id="d2fd47f5c9"><path d="M 167.5 28.253906 C 160.578125 43.242188 159.367188 47.613281 157.820312 50.972656 C 156.542969 53.796875 155.535156 56.082031 153.785156 58.503906 C 151.769531 61.324219 148.410156 65.292969 145.921875 66.769531 C 144.242188 67.710938 142.15625 68.25 141.015625 67.914062 C 140.273438 67.644531 139.738281 66.839844 139.535156 66.300781 C 139.335938 65.828125 139.402344 65.226562 139.601562 64.753906 C 139.871094 64.214844 140.679688 63.542969 141.285156 63.34375 C 141.753906 63.207031 142.359375 63.277344 142.828125 63.542969 C 143.367188 63.8125 143.972656 64.6875 144.105469 65.292969 C 144.242188 65.761719 144.105469 66.367188 143.90625 66.769531 C 143.636719 67.175781 143.234375 67.644531 142.761719 67.847656 C 142.226562 68.046875 141.148438 68.046875 140.542969 67.710938 C 140.007812 67.308594 139.535156 66.367188 139.402344 65.761719 C 139.335938 65.292969 139.46875 64.753906 139.871094 64.285156 C 140.476562 63.613281 142.226562 63.613281 143.570312 62.601562 C 145.789062 60.988281 148.542969 58.167969 151.097656 54.335938 C 155.332031 47.949219 161.585938 28.859375 163.9375 26.167969 C 164.40625 25.632812 164.742188 25.496094 165.148438 25.429688 C 165.617188 25.296875 166.222656 25.429688 166.625 25.632812 C 167.03125 25.898438 167.367188 26.371094 167.566406 26.773438 C 167.703125 27.246094 167.5 28.253906 167.5 28.253906 " clip-rule="nonzero"/></clipPath><clipPath id="0bf8251b9a"><path d="M 0 0.0195312 L 4.734375 0.0195312 L 4.734375 74.980469 L 0 74.980469 Z M 0 0.0195312 " clip-rule="nonzero"/></clipPath><clipPath id="ee7083c856"><path d="M 3.824219 2.117188 C 4.496094 44.320312 3.746094 50.09375 3.898438 54.816406 C 3.972656 58.039062 4.722656 60.0625 4.722656 62.910156 C 4.648438 66.210938 3.597656 70.558594 3.597656 73.40625 C 3.523438 75.355469 4.273438 77.078125 3.972656 78.351562 C 3.824219 79.253906 3.523438 80.003906 3 80.453125 C 2.398438 80.828125 1.347656 80.976562 0.675781 80.75 C 0 80.527344 -0.675781 79.703125 -0.898438 79.027344 C -1.050781 78.351562 -0.75 77.304688 -0.300781 76.777344 C 0.148438 76.253906 1.199219 75.878906 1.875 75.953125 C 2.546875 76.03125 3.523438 76.703125 3.746094 77.304688 C 4.046875 78.054688 3.746094 79.703125 3.148438 80.226562 C 2.699219 80.75 1.574219 80.976562 0.898438 80.828125 C 0.300781 80.675781 -0.375 79.925781 -0.824219 79.253906 C -1.273438 78.503906 -1.347656 77.679688 -1.425781 76.328125 C -1.648438 73.628906 -0.449219 67.785156 -0.375 63.960938 C -0.375 60.664062 -0.898438 59.089844 -1.050781 54.816406 C -1.347656 44.472656 -1.722656 7.214844 -0.75 2.117188 C -0.601562 1.21875 -0.523438 0.996094 -0.148438 0.621094 C 0.148438 0.246094 0.75 -0.128906 1.273438 -0.128906 C 1.800781 -0.203125 2.472656 -0.128906 2.847656 0.246094 C 3.375 0.621094 3.824219 2.117188 3.824219 2.117188 " clip-rule="nonzero"/></clipPath><clipPath id="b550ba8efc"><path d="M 13.917969 7.59375 L 15.394531 7.59375 L 15.394531 8.8125 L 13.917969 8.8125 Z M 13.917969 7.59375 " clip-rule="nonzero"/></clipPath><clipPath id="e600a6ec59"><path d="M 15.367188 8.039062 C 14.691406 9.015625 14.09375 8.867188 14.015625 8.640625 C 13.867188 8.414062 13.941406 7.816406 14.167969 7.664062 C 14.390625 7.515625 15.140625 7.742188 15.140625 7.742188 " clip-rule="nonzero"/></clipPath><clipPath id="beaf6616c6"><path d="M 9.433594 15.226562 L 10.972656 15.226562 L 10.972656 16.761719 L 9.433594 16.761719 Z M 9.433594 15.226562 " clip-rule="nonzero"/></clipPath><clipPath id="454028c64c"><path d="M 10.945312 15.988281 C 9.746094 16.585938 9.519531 15.613281 9.667969 15.460938 C 9.820312 15.3125 10.792969 15.460938 10.871094 15.6875 C 11.019531 15.910156 10.496094 16.734375 10.269531 16.734375 C 10.042969 16.734375 9.445312 16.210938 9.445312 15.988281 C 9.445312 15.761719 10.042969 15.238281 10.269531 15.238281 C 10.570312 15.238281 10.945312 15.988281 10.945312 15.988281 " clip-rule="nonzero"/></clipPath><clipPath id="c300893713"><path d="M 9.207031 36.859375 L 10.671875 36.859375 L 10.671875 38.5 L 9.207031 38.5 Z M 9.207031 36.859375 " clip-rule="nonzero"/></clipPath><clipPath id="4c8a4f6891"><path d="M 10.644531 37.875 C 9.445312 38.324219 9.144531 37.425781 9.296875 37.199219 C 9.445312 37.050781 10.417969 37.125 10.570312 37.351562 C 10.644531 37.5 10.195312 38.398438 9.96875 38.472656 C 9.746094 38.472656 9.144531 37.574219 9.21875 37.351562 C 9.296875 37.125 9.894531 36.824219 10.121094 36.898438 C 10.34375 36.898438 10.644531 37.726562 10.644531 37.726562 " clip-rule="nonzero"/></clipPath><clipPath id="9ce4e7b8de"><path d="M 11.828125 61.25 L 13.265625 61.25 L 13.265625 62.625 L 11.828125 62.625 Z M 11.828125 61.25 " clip-rule="nonzero"/></clipPath><clipPath id="1adee23ac4"><path d="M 13.191406 61.414062 C 12.742188 62.761719 11.84375 62.160156 11.84375 61.9375 C 11.84375 61.710938 12.667969 61.1875 12.894531 61.261719 C 13.117188 61.335938 13.34375 62.238281 13.191406 62.460938 C 13.042969 62.613281 12.292969 62.6875 12.070312 62.460938 C 11.917969 62.3125 11.917969 61.5625 12.144531 61.335938 C 12.292969 61.1875 13.117188 61.414062 13.117188 61.414062 " clip-rule="nonzero"/></clipPath><clipPath id="1b36627162"><path d="M 13.105469 47.757812 L 14.644531 47.757812 L 14.644531 49.296875 L 13.105469 49.296875 Z M 13.105469 47.757812 " clip-rule="nonzero"/></clipPath><clipPath id="a54d83711a"><path d="M 13.867188 47.769531 C 14.46875 48.96875 13.566406 49.195312 13.34375 49.042969 C 13.191406 48.894531 13.34375 47.917969 13.566406 47.769531 C 13.792969 47.695312 14.617188 48.21875 14.617188 48.445312 C 14.691406 48.667969 14.167969 49.195312 13.867188 49.269531 C 13.644531 49.269531 13.117188 48.820312 13.117188 48.59375 C 13.117188 48.371094 13.792969 47.769531 13.792969 47.769531 " clip-rule="nonzero"/></clipPath><clipPath id="e8cc8e2748"><path d="M 62.804688 8.628906 L 64.34375 8.628906 L 64.34375 10.167969 L 62.804688 10.167969 Z M 62.804688 8.628906 " clip-rule="nonzero"/></clipPath><clipPath id="f84600389d"><path d="M 63.566406 8.640625 C 64.164062 9.914062 63.191406 10.140625 63.042969 9.988281 C 62.890625 9.839844 63.042969 8.867188 63.265625 8.714844 C 63.417969 8.640625 64.242188 9.164062 64.316406 9.390625 C 64.316406 9.613281 63.789062 10.140625 63.566406 10.140625 C 63.265625 10.140625 62.816406 9.613281 62.816406 9.316406 C 62.816406 9.089844 63.492188 8.640625 63.492188 8.640625 " clip-rule="nonzero"/></clipPath><clipPath id="e3cedc5f32"><path d="M 33.210938 8.792969 L 34.65625 8.792969 L 34.65625 10.042969 L 33.210938 10.042969 Z M 33.210938 8.792969 " clip-rule="nonzero"/></clipPath><clipPath id="1656d1597d"><path d="M 34.632812 9.238281 C 33.957031 10.289062 33.355469 10.066406 33.28125 9.839844 C 33.132812 9.691406 33.28125 9.015625 33.433594 8.867188 C 33.65625 8.714844 34.40625 8.941406 34.40625 8.941406 " clip-rule="nonzero"/></clipPath><clipPath id="4b6a282f78"><path d="M 75.46875 24.894531 L 76.875 24.894531 L 76.875 26.296875 L 75.46875 26.296875 Z M 75.46875 24.894531 " clip-rule="nonzero"/></clipPath><clipPath id="1c13c215b4"><path d="M 76.757812 25.132812 C 76.308594 26.40625 75.484375 25.882812 75.484375 25.65625 C 75.484375 25.429688 76.308594 24.832031 76.535156 24.90625 C 76.683594 24.980469 76.984375 25.957031 76.835938 26.105469 C 76.683594 26.332031 75.859375 26.332031 75.710938 26.179688 C 75.558594 25.957031 75.558594 25.207031 75.710938 25.054688 C 75.933594 24.90625 76.757812 25.054688 76.757812 25.054688 " clip-rule="nonzero"/></clipPath><clipPath id="6cdd882a1c"><path d="M 69.027344 55.027344 L 70.566406 55.027344 L 70.566406 56.566406 L 69.027344 56.566406 Z M 69.027344 55.027344 " clip-rule="nonzero"/></clipPath><clipPath id="f66ef1910d"><path d="M 70.539062 55.789062 C 69.261719 56.390625 69.113281 55.492188 69.261719 55.265625 C 69.414062 55.117188 70.386719 55.265625 70.460938 55.492188 C 70.539062 55.714844 70.085938 56.539062 69.863281 56.539062 C 69.5625 56.613281 69.039062 56.089844 69.039062 55.789062 C 69.039062 55.566406 69.414062 55.039062 69.636719 55.039062 C 69.9375 54.964844 70.539062 55.714844 70.539062 55.714844 " clip-rule="nonzero"/></clipPath><clipPath id="77c223f5bc"><path d="M 40.839844 63.273438 L 42.378906 63.273438 L 42.378906 64.871094 L 40.839844 64.871094 Z M 40.839844 63.273438 " clip-rule="nonzero"/></clipPath><clipPath id="e4d1937b21"><path d="M 41.601562 64.859375 C 41.003906 63.585938 41.902344 63.359375 42.128906 63.511719 C 42.277344 63.660156 42.128906 64.636719 41.902344 64.785156 C 41.679688 64.859375 40.851562 64.335938 40.851562 64.109375 C 40.777344 63.886719 41.304688 63.359375 41.601562 63.285156 C 41.828125 63.285156 42.351562 63.660156 42.351562 63.886719 C 42.425781 64.1875 41.679688 64.859375 41.679688 64.859375 " clip-rule="nonzero"/></clipPath><clipPath id="37e14cab68"><path d="M 82.144531 38.613281 L 83.636719 38.613281 L 83.636719 40.164062 L 82.144531 40.164062 Z M 82.144531 38.613281 " clip-rule="nonzero"/></clipPath><clipPath id="d5e6b78102"><path d="M 82.230469 39 C 83.65625 39 83.429688 39.972656 83.207031 40.046875 C 82.980469 40.125 82.15625 39.523438 82.15625 39.300781 C 82.15625 39.074219 82.980469 38.550781 83.207031 38.625 C 83.429688 38.699219 83.730469 39.375 83.582031 39.675781 C 83.503906 39.898438 82.90625 40.199219 82.679688 40.125 C 82.457031 39.972656 82.230469 39.074219 82.230469 39.074219 " clip-rule="nonzero"/></clipPath><clipPath id="4ddc39a304"><path d="M 83.765625 63.199219 L 85.242188 63.199219 L 85.242188 64.734375 L 83.765625 64.734375 Z M 83.765625 63.199219 " clip-rule="nonzero"/></clipPath><clipPath id="f2eef9f534"><path d="M 85.15625 64.335938 C 83.804688 64.335938 84.03125 63.359375 84.253906 63.285156 C 84.480469 63.210938 85.230469 63.8125 85.230469 64.035156 C 85.230469 64.261719 84.40625 64.785156 84.179688 64.710938 C 83.957031 64.636719 83.730469 63.886719 83.804688 63.660156 C 83.957031 63.4375 84.480469 63.136719 84.703125 63.210938 C 85.003906 63.359375 85.230469 64.261719 85.230469 64.261719 " clip-rule="nonzero"/></clipPath><clipPath id="9fbff41725"><path d="M 48.101562 13.664062 L 49.351562 13.664062 L 49.351562 14.992188 L 48.101562 14.992188 Z M 48.101562 13.664062 " clip-rule="nonzero"/></clipPath><clipPath id="a2b8ffd9c0"><path d="M 48.113281 14.605469 C 48.855469 13.597656 49.390625 14.269531 49.324219 14.472656 C 49.257812 14.675781 48.449219 14.941406 48.25 14.808594 C 48.113281 14.675781 48.183594 13.867188 48.382812 13.734375 C 48.519531 13.597656 49.191406 13.800781 49.257812 14.003906 C 49.390625 14.203125 49.191406 14.875 48.988281 14.941406 C 48.785156 15.078125 48.113281 14.675781 48.113281 14.675781 " clip-rule="nonzero"/></clipPath><clipPath id="8c0a7bb714"><path d="M 66.953125 32.089844 L 68.390625 32.089844 L 68.390625 33.523438 L 66.953125 33.523438 Z M 66.953125 32.089844 " clip-rule="nonzero"/></clipPath><clipPath id="5ad0183a0f"><path d="M 68.136719 33.378906 C 66.863281 32.925781 67.390625 32.101562 67.613281 32.101562 C 67.839844 32.101562 68.4375 32.925781 68.363281 33.152344 C 68.214844 33.378906 67.3125 33.601562 67.089844 33.453125 C 66.9375 33.300781 66.9375 32.550781 67.089844 32.328125 C 67.238281 32.101562 67.914062 32.027344 68.0625 32.179688 C 68.289062 32.328125 68.214844 33.300781 68.214844 33.300781 " clip-rule="nonzero"/></clipPath><clipPath id="d241eb5950"><path d="M 87.601562 14.046875 L 88.875 14.046875 L 88.875 15.140625 L 87.601562 15.140625 Z M 87.601562 14.046875 " clip-rule="nonzero"/></clipPath><clipPath id="aae0ba20b4"><path d="M 88.851562 14.40625 C 88.3125 15.347656 87.773438 15.144531 87.640625 15.011719 C 87.574219 14.808594 87.640625 14.269531 87.84375 14.136719 C 87.976562 13.933594 88.714844 14.136719 88.714844 14.136719 " clip-rule="nonzero"/></clipPath><clipPath id="6cbd6466bb"><path d="M 89.445312 30.59375 L 90.878906 30.59375 L 90.878906 31.976562 L 89.445312 31.976562 Z M 89.445312 30.59375 " clip-rule="nonzero"/></clipPath><clipPath id="c78705f254"><path d="M 90.128906 31.949219 C 89.457031 31.007812 90.195312 30.539062 90.398438 30.671875 C 90.597656 30.738281 90.734375 31.613281 90.53125 31.75 C 90.398438 31.882812 89.523438 31.679688 89.457031 31.480469 C 89.386719 31.34375 89.992188 30.605469 90.261719 30.605469 C 90.464844 30.605469 90.867188 31.007812 90.867188 31.277344 C 90.867188 31.480469 90.261719 31.949219 90.261719 31.949219 " clip-rule="nonzero"/></clipPath><clipPath id="3a2661b655"><path d="M 94.285156 54.863281 L 95.664062 54.863281 L 95.664062 56.242188 L 94.285156 56.242188 Z M 94.285156 54.863281 " clip-rule="nonzero"/></clipPath><clipPath id="551424e0e4"><path d="M 95.640625 55.546875 C 94.566406 56.148438 94.363281 55.277344 94.496094 55.140625 C 94.632812 54.941406 95.503906 55.074219 95.574219 55.277344 C 95.707031 55.476562 95.238281 56.21875 95.035156 56.21875 C 94.832031 56.285156 94.296875 55.8125 94.296875 55.546875 C 94.296875 55.34375 94.632812 54.871094 94.832031 54.871094 C 95.101562 54.871094 95.640625 55.476562 95.640625 55.476562 " clip-rule="nonzero"/></clipPath><clipPath id="e565d9f60a"><path d="M 107.324219 62.121094 L 108.652344 62.121094 L 108.652344 63.371094 L 107.324219 63.371094 Z M 107.324219 62.121094 " clip-rule="nonzero"/></clipPath><clipPath id="8231d3f358"><path d="M 107.671875 62.132812 C 108.679688 62.871094 108.007812 63.410156 107.808594 63.34375 C 107.605469 63.277344 107.335938 62.46875 107.472656 62.265625 C 107.605469 62.132812 108.480469 62.199219 108.613281 62.335938 C 108.679688 62.535156 108.546875 63.207031 108.277344 63.277344 C 108.078125 63.410156 107.472656 63.207031 107.335938 63.007812 C 107.269531 62.804688 107.605469 62.132812 107.605469 62.132812 " clip-rule="nonzero"/></clipPath><clipPath id="559ef218b7"><path d="M 119.359375 63.667969 L 120.738281 63.667969 L 120.738281 65.046875 L 119.359375 65.046875 Z M 119.359375 63.667969 " clip-rule="nonzero"/></clipPath><clipPath id="05bdc6cbee"><path d="M 120.042969 63.679688 C 120.578125 64.820312 119.707031 64.957031 119.570312 64.820312 C 119.4375 64.6875 119.570312 63.8125 119.773438 63.746094 C 119.90625 63.679688 120.648438 64.082031 120.714844 64.285156 C 120.714844 64.550781 120.242188 65.023438 120.042969 65.023438 C 119.773438 65.023438 119.371094 64.484375 119.371094 64.285156 C 119.371094 64.082031 119.972656 63.679688 119.972656 63.679688 " clip-rule="nonzero"/></clipPath><clipPath id="bb505eebe6"><path d="M 134.347656 56.945312 L 135.730469 56.945312 L 135.730469 58.324219 L 134.347656 58.324219 Z M 134.347656 56.945312 " clip-rule="nonzero"/></clipPath><clipPath id="3c95a73ad5"><path d="M 135.03125 56.957031 C 135.570312 58.097656 134.695312 58.234375 134.5625 58.097656 C 134.425781 57.964844 134.5625 57.089844 134.761719 57.023438 C 134.898438 56.957031 135.636719 57.359375 135.703125 57.628906 C 135.703125 57.832031 135.234375 58.300781 135.03125 58.300781 C 134.761719 58.300781 134.292969 57.832031 134.359375 57.5625 C 134.359375 57.359375 134.964844 56.957031 134.964844 56.957031 " clip-rule="nonzero"/></clipPath><clipPath id="83ba0a1cd7"><path d="M 135.167969 33.5 L 136.46875 33.5 L 136.46875 34.617188 L 135.167969 34.617188 Z M 135.167969 33.5 " clip-rule="nonzero"/></clipPath><clipPath id="8ce3648ce1"><path d="M 136.445312 33.898438 C 135.90625 34.839844 135.367188 34.640625 135.234375 34.4375 C 135.097656 34.304688 135.234375 33.699219 135.367188 33.5625 C 135.570312 33.429688 136.308594 33.628906 136.308594 33.628906 " clip-rule="nonzero"/></clipPath><clipPath id="3f59943539"><path d="M 137.886719 42.398438 L 139.226562 42.398438 L 139.226562 43.738281 L 137.886719 43.738281 Z M 137.886719 42.398438 " clip-rule="nonzero"/></clipPath><clipPath id="ac227bf4bb"><path d="M 139.199219 42.839844 C 138.324219 43.714844 137.855469 42.972656 137.988281 42.773438 C 138.058594 42.570312 138.929688 42.4375 139.066406 42.636719 C 139.199219 42.773438 139.066406 43.578125 138.863281 43.714844 C 138.660156 43.78125 138.058594 43.511719 137.921875 43.3125 C 137.855469 43.042969 138.058594 42.503906 138.257812 42.4375 C 138.460938 42.300781 139.199219 42.773438 139.199219 42.773438 " clip-rule="nonzero"/></clipPath><clipPath id="8cb2882efb"><path d="M 142.953125 49.621094 L 144.386719 49.621094 L 144.386719 51 L 142.953125 51 Z M 142.953125 49.621094 " clip-rule="nonzero"/></clipPath><clipPath id="cb870ebe56"><path d="M 143.703125 49.628906 C 144.242188 50.703125 143.367188 50.90625 143.234375 50.773438 C 143.03125 50.636719 143.234375 49.765625 143.367188 49.695312 C 143.570312 49.5625 144.308594 50.03125 144.375 50.234375 C 144.375 50.4375 143.90625 50.972656 143.703125 50.972656 C 143.433594 50.972656 142.964844 50.4375 142.964844 50.234375 C 142.964844 50.03125 143.636719 49.628906 143.636719 49.628906 " clip-rule="nonzero"/></clipPath><clipPath id="96e29116ba"><path d="M 153.84375 61.785156 L 155.222656 61.785156 L 155.222656 63.21875 L 153.84375 63.21875 Z M 153.84375 61.785156 " clip-rule="nonzero"/></clipPath><clipPath id="aa37f14a23"><path d="M 155.199219 62.535156 C 154.054688 63.074219 153.855469 62.199219 153.988281 62.066406 C 154.191406 61.863281 154.996094 62.066406 155.132812 62.199219 C 155.199219 62.402344 154.796875 63.140625 154.527344 63.207031 C 154.324219 63.207031 153.855469 62.738281 153.855469 62.535156 C 153.785156 62.265625 154.191406 61.863281 154.390625 61.796875 C 154.660156 61.796875 155.199219 62.46875 155.199219 62.46875 " clip-rule="nonzero"/></clipPath><clipPath id="5bb0d888df"><path d="M 162.515625 61.585938 L 163.949219 61.585938 L 163.949219 62.964844 L 162.515625 62.964844 Z M 162.515625 61.585938 " clip-rule="nonzero"/></clipPath><clipPath id="5cac71c8bf"><path d="M 163.265625 61.59375 C 163.804688 62.738281 162.929688 62.871094 162.792969 62.738281 C 162.660156 62.601562 162.792969 61.730469 162.996094 61.664062 C 163.128906 61.59375 163.871094 62 163.9375 62.199219 C 163.9375 62.402344 163.464844 62.9375 163.265625 62.9375 C 162.996094 62.9375 162.527344 62.46875 162.527344 62.199219 C 162.527344 62 163.199219 61.59375 163.199219 61.59375 " clip-rule="nonzero"/></clipPath><clipPath id="9ba28b6020"><path d="M 163.882812 44.640625 L 165.09375 44.640625 L 165.09375 45.878906 L 163.882812 45.878906 Z M 163.882812 44.640625 " clip-rule="nonzero"/></clipPath><clipPath id="d8ce4fe2a1"><path d="M 164.945312 45.796875 C 163.804688 45.394531 164.273438 44.65625 164.476562 44.65625 C 164.675781 44.65625 165.148438 45.394531 165.078125 45.597656 C 165.011719 45.796875 164.207031 45.933594 164.003906 45.796875 C 163.871094 45.664062 163.871094 44.992188 164.003906 44.855469 C 164.140625 44.65625 164.878906 44.722656 165.011719 44.855469 C 165.148438 45.058594 164.945312 45.796875 164.945312 45.796875 " clip-rule="nonzero"/></clipPath><clipPath id="ab831339ba"><path d="M 159.269531 54 L 160.53125 54 L 160.53125 55.195312 L 159.269531 55.195312 Z M 159.269531 54 " clip-rule="nonzero"/></clipPath><clipPath id="c16d67d814"><path d="M 160.308594 55.140625 C 159.164062 54.738281 159.636719 54 159.835938 54 C 160.039062 54 160.578125 54.738281 160.507812 54.871094 C 160.441406 55.074219 159.566406 55.277344 159.433594 55.140625 C 159.230469 55.007812 159.230469 54.335938 159.367188 54.199219 C 159.566406 54 160.105469 54 160.308594 54.132812 C 160.441406 54.269531 160.375 55.140625 160.375 55.140625 " clip-rule="nonzero"/></clipPath><clipPath id="76aba79761"><path d="M 153.921875 25.566406 L 155.222656 25.566406 L 155.222656 26.660156 L 153.921875 26.660156 Z M 153.921875 25.566406 " clip-rule="nonzero"/></clipPath><clipPath id="a644b6b01d"><path d="M 155.199219 25.96875 C 154.59375 26.839844 154.054688 26.707031 153.988281 26.503906 C 153.855469 26.304688 153.988281 25.765625 154.121094 25.632812 C 154.324219 25.496094 154.996094 25.699219 154.996094 25.699219 " clip-rule="nonzero"/></clipPath><clipPath id="af3aa864e3"><path d="M 162.984375 13.386719 L 164.363281 13.386719 L 164.363281 14.765625 L 162.984375 14.765625 Z M 162.984375 13.386719 " clip-rule="nonzero"/></clipPath><clipPath id="88548a2314"><path d="M 163.667969 13.398438 C 164.207031 14.472656 163.332031 14.675781 163.199219 14.539062 C 163.0625 14.40625 163.199219 13.53125 163.398438 13.464844 C 163.535156 13.328125 164.273438 13.800781 164.339844 14.003906 C 164.339844 14.203125 163.871094 14.742188 163.667969 14.742188 C 163.398438 14.742188 162.929688 14.203125 162.996094 14.003906 C 162.996094 13.734375 163.601562 13.398438 163.601562 13.398438 " clip-rule="nonzero"/></clipPath><clipPath id="199110a9ff"><path d="M 145.855469 14.207031 L 147.15625 14.207031 L 147.15625 15.328125 L 145.855469 15.328125 Z M 145.855469 14.207031 " clip-rule="nonzero"/></clipPath><clipPath id="b3f6bb1c0c"><path d="M 147.132812 14.605469 C 146.59375 15.546875 146.054688 15.347656 145.921875 15.144531 C 145.789062 14.941406 145.921875 14.40625 146.054688 14.269531 C 146.257812 14.136719 146.996094 14.339844 146.996094 14.339844 " clip-rule="nonzero"/></clipPath><clipPath id="a5653efdb0"><path d="M 148.664062 22.125 L 149.875 22.125 L 149.875 23.382812 L 148.664062 23.382812 Z M 148.664062 22.125 " clip-rule="nonzero"/></clipPath><clipPath id="59d0960f48"><path d="M 149.820312 22.335938 C 149.417969 23.480469 148.679688 23.007812 148.679688 22.808594 C 148.609375 22.605469 149.351562 22.070312 149.550781 22.136719 C 149.753906 22.203125 149.957031 23.078125 149.820312 23.210938 C 149.6875 23.414062 149.015625 23.414062 148.8125 23.277344 C 148.679688 23.144531 148.609375 22.539062 148.746094 22.40625 C 148.878906 22.203125 149.753906 22.269531 149.753906 22.269531 " clip-rule="nonzero"/></clipPath><clipPath id="07a7cd35ec"><path d="M 125.609375 14.597656 L 127.054688 14.597656 L 127.054688 15.960938 L 125.609375 15.960938 Z M 125.609375 14.597656 " clip-rule="nonzero"/></clipPath><clipPath id="fa903bf994"><path d="M 126.089844 15.882812 C 125.890625 14.675781 126.765625 14.742188 126.898438 14.941406 C 126.964844 15.144531 126.5625 15.882812 126.359375 15.953125 C 126.160156 15.953125 125.621094 15.277344 125.621094 15.078125 C 125.6875 14.875 126.292969 14.539062 126.496094 14.605469 C 126.695312 14.675781 127.03125 15.144531 127.03125 15.347656 C 126.964844 15.617188 126.226562 15.953125 126.226562 15.953125 " clip-rule="nonzero"/></clipPath><clipPath id="b6105a18b5"><path d="M 118.121094 29.117188 L 119.449219 29.117188 L 119.449219 30.441406 L 118.121094 30.441406 Z M 118.121094 29.117188 " clip-rule="nonzero"/></clipPath><clipPath id="6fd2c18fd3"><path d="M 119.371094 30.136719 C 118.160156 30.136719 118.359375 29.261719 118.5625 29.195312 C 118.765625 29.125 119.503906 29.664062 119.4375 29.867188 C 119.4375 30.066406 118.695312 30.539062 118.496094 30.402344 C 118.292969 30.335938 118.09375 29.730469 118.160156 29.53125 C 118.292969 29.328125 118.832031 29.058594 119.035156 29.125 C 119.234375 29.195312 119.4375 30.066406 119.4375 30.066406 " clip-rule="nonzero"/></clipPath><clipPath id="e1509e78ff"><path d="M 106.398438 17.699219 L 107.695312 17.699219 L 107.695312 18.820312 L 106.398438 18.820312 Z M 106.398438 17.699219 " clip-rule="nonzero"/></clipPath><clipPath id="42cf85f34b"><path d="M 107.671875 18.101562 C 107.066406 19.042969 106.53125 18.84375 106.460938 18.640625 C 106.328125 18.507812 106.460938 17.902344 106.597656 17.765625 C 106.800781 17.632812 107.472656 17.832031 107.472656 17.832031 " clip-rule="nonzero"/></clipPath><clipPath id="20b3276ffa"><path d="M 97.378906 18.628906 L 98.757812 18.628906 L 98.757812 20.0625 L 97.378906 20.0625 Z M 97.378906 18.628906 " clip-rule="nonzero"/></clipPath><clipPath id="94d7924dbc"><path d="M 98.730469 19.378906 C 97.589844 19.917969 97.457031 19.042969 97.589844 18.910156 C 97.722656 18.773438 98.597656 18.910156 98.664062 19.109375 C 98.730469 19.246094 98.328125 19.984375 98.128906 20.050781 C 97.925781 20.050781 97.386719 19.582031 97.386719 19.378906 C 97.386719 19.179688 97.722656 18.707031 97.925781 18.640625 C 98.195312 18.640625 98.730469 19.3125 98.730469 19.3125 " clip-rule="nonzero"/></clipPath><clipPath id="d07c34b91a"><path d="M 87.820312 24.558594 L 89.144531 24.558594 L 89.144531 25.679688 L 87.820312 25.679688 Z M 87.820312 24.558594 " clip-rule="nonzero"/></clipPath><clipPath id="016280b937"><path d="M 89.121094 24.960938 C 88.515625 25.898438 87.976562 25.699219 87.910156 25.496094 C 87.773438 25.363281 87.84375 24.757812 88.042969 24.625 C 88.246094 24.488281 88.917969 24.691406 88.917969 24.691406 " clip-rule="nonzero"/></clipPath><clipPath id="20bd0273ef"><path d="M 92.304688 8.492188 L 93.632812 8.492188 L 93.632812 9.585938 L 92.304688 9.585938 Z M 92.304688 8.492188 " clip-rule="nonzero"/></clipPath><clipPath id="b1a9763ce6"><path d="M 93.625 8.894531 C 93.019531 9.765625 92.480469 9.632812 92.347656 9.429688 C 92.277344 9.230469 92.347656 8.691406 92.546875 8.558594 C 92.683594 8.421875 93.421875 8.625 93.421875 8.625 " clip-rule="nonzero"/></clipPath><clipPath id="78796ace7c"><path d="M 108.871094 9.152344 L 110.171875 9.152344 L 110.171875 10.503906 L 108.871094 10.503906 Z M 108.871094 9.152344 " clip-rule="nonzero"/></clipPath><clipPath id="a0d6e61257"><path d="M 110.160156 9.566406 C 109.351562 10.507812 108.816406 9.835938 108.882812 9.632812 C 108.949219 9.429688 109.757812 9.164062 109.957031 9.296875 C 110.09375 9.429688 110.027344 10.304688 109.890625 10.4375 C 109.691406 10.574219 109.015625 10.371094 108.949219 10.171875 C 108.816406 9.902344 109.015625 9.296875 109.21875 9.164062 C 109.421875 9.09375 110.09375 9.429688 110.09375 9.429688 " clip-rule="nonzero"/></clipPath><clipPath id="fffc83faf9"><path d="M 116.9375 16.609375 L 118.222656 16.609375 L 118.222656 17.847656 L 116.9375 17.847656 Z M 116.9375 16.609375 " clip-rule="nonzero"/></clipPath><clipPath id="f5622b6aa7"><path d="M 118.09375 16.757812 C 117.6875 17.96875 116.949219 17.496094 116.949219 17.230469 C 116.949219 17.027344 117.6875 16.554688 117.890625 16.625 C 118.09375 16.691406 118.292969 17.496094 118.160156 17.699219 C 118.023438 17.832031 117.351562 17.902344 117.152344 17.699219 C 117.015625 17.566406 117.015625 16.894531 117.21875 16.691406 C 117.351562 16.554688 118.09375 16.757812 118.09375 16.757812 " clip-rule="nonzero"/></clipPath><clipPath id="70cf58c49b"><path d="M 104.113281 24.757812 L 105.410156 24.757812 L 105.410156 25.855469 L 104.113281 25.855469 Z M 104.113281 24.757812 " clip-rule="nonzero"/></clipPath><clipPath id="08484dac9c"><path d="M 105.386719 25.160156 C 104.847656 26.035156 104.3125 25.898438 104.175781 25.699219 C 104.042969 25.496094 104.175781 24.960938 104.3125 24.824219 C 104.511719 24.691406 105.253906 24.890625 105.253906 24.890625 " clip-rule="nonzero"/></clipPath><clipPath id="87b3d401f6"><path d="M 135.570312 14.542969 L 136.871094 14.542969 L 136.871094 15.636719 L 135.570312 15.636719 Z M 135.570312 14.542969 " clip-rule="nonzero"/></clipPath><clipPath id="f01ef62e29"><path d="M 136.847656 14.941406 C 136.308594 15.816406 135.769531 15.683594 135.636719 15.480469 C 135.503906 15.277344 135.636719 14.742188 135.839844 14.605469 C 135.972656 14.472656 136.710938 14.675781 136.710938 14.675781 " clip-rule="nonzero"/></clipPath><clipPath id="659823f9d1"><path d="M 106.867188 27.648438 L 108.167969 27.648438 L 108.167969 28.746094 L 106.867188 28.746094 Z M 106.867188 27.648438 " clip-rule="nonzero"/></clipPath><clipPath id="193528a700"><path d="M 108.144531 28.050781 C 107.539062 28.925781 107 28.789062 106.933594 28.589844 C 106.800781 28.386719 106.933594 27.851562 107.066406 27.714844 C 107.269531 27.582031 107.941406 27.78125 107.941406 27.78125 " clip-rule="nonzero"/></clipPath><clipPath id="d5fe243fe5"><path d="M 48.304688 48.945312 L 49.738281 48.945312 L 49.738281 50.378906 L 48.304688 50.378906 Z M 48.304688 48.945312 " clip-rule="nonzero"/></clipPath><clipPath id="dee2d14b33"><path d="M 48.988281 50.367188 C 48.316406 49.429688 49.054688 48.957031 49.257812 49.023438 C 49.460938 49.160156 49.59375 50.03125 49.460938 50.167969 C 49.257812 50.300781 48.382812 50.101562 48.316406 49.898438 C 48.25 49.695312 48.855469 48.957031 49.121094 48.957031 C 49.324219 48.957031 49.726562 49.429688 49.726562 49.695312 C 49.726562 49.898438 49.121094 50.367188 49.121094 50.367188 " clip-rule="nonzero"/></clipPath><clipPath id="6e05dafa8d"><path d="M 49.714844 25.792969 L 50.949219 25.792969 L 50.949219 27.054688 L 49.714844 27.054688 Z M 49.714844 25.792969 " clip-rule="nonzero"/></clipPath><clipPath id="99fc8b80df"><path d="M 49.863281 25.898438 C 51.074219 26.304688 50.601562 27.042969 50.398438 27.042969 C 50.199219 27.042969 49.660156 26.371094 49.726562 26.167969 C 49.796875 25.96875 50.601562 25.699219 50.804688 25.832031 C 50.9375 25.96875 51.003906 26.707031 50.871094 26.839844 C 50.667969 26.976562 49.996094 26.976562 49.863281 26.839844 C 49.660156 26.707031 49.863281 25.96875 49.863281 25.96875 " clip-rule="nonzero"/></clipPath><clipPath id="78be7ee2d0"><path d="M 64.378906 63.574219 L 65.917969 63.574219 L 65.917969 65.113281 L 64.378906 65.113281 Z M 64.378906 63.574219 " clip-rule="nonzero"/></clipPath><clipPath id="2493221191"><path d="M 65.140625 63.585938 C 65.738281 64.785156 64.765625 65.011719 64.617188 64.859375 C 64.464844 64.710938 64.617188 63.734375 64.839844 63.660156 C 64.992188 63.511719 65.816406 64.035156 65.890625 64.261719 C 65.890625 64.484375 65.363281 65.085938 65.140625 65.085938 C 64.839844 65.085938 64.316406 64.484375 64.390625 64.261719 C 64.390625 64.035156 65.066406 63.585938 65.066406 63.585938 " clip-rule="nonzero"/></clipPath><clipPath id="1305d070e9"><path d="M 21.632812 68.070312 L 23.039062 68.070312 L 23.039062 69.503906 L 21.632812 69.503906 Z M 21.632812 68.070312 " clip-rule="nonzero"/></clipPath><clipPath id="032ded91e2"><path d="M 22.789062 69.359375 C 21.511719 68.910156 22.039062 68.082031 22.261719 68.082031 C 22.488281 68.082031 23.085938 68.910156 23.011719 69.132812 C 22.9375 69.359375 21.964844 69.582031 21.8125 69.433594 C 21.589844 69.28125 21.589844 68.457031 21.738281 68.308594 C 21.964844 68.160156 22.710938 68.160156 22.863281 68.382812 C 23.085938 68.535156 22.863281 69.359375 22.863281 69.359375 " clip-rule="nonzero"/></clipPath><clipPath id="82593c06bc"><path d="M 11.632812 23.691406 L 13.066406 23.691406 L 13.066406 25.042969 L 11.632812 25.042969 Z M 11.632812 23.691406 " clip-rule="nonzero"/></clipPath><clipPath id="be51388a1a"><path d="M 12.816406 24.980469 C 11.542969 24.53125 12.070312 23.707031 12.292969 23.707031 C 12.519531 23.707031 13.117188 24.457031 13.042969 24.683594 C 12.96875 24.90625 11.992188 25.132812 11.769531 24.980469 C 11.617188 24.832031 11.617188 24.082031 11.769531 23.855469 C 11.992188 23.707031 12.742188 23.707031 12.894531 23.933594 C 13.042969 24.082031 12.894531 24.90625 12.894531 24.90625 " clip-rule="nonzero"/></clipPath><clipPath id="b3c0ccc6a1"><path d="M 28.777344 23.175781 L 31.050781 23.175781 L 31.050781 25.449219 L 28.777344 25.449219 Z M 28.777344 23.175781 " clip-rule="nonzero"/></clipPath><clipPath id="3dbbf4c826"><path d="M 29.910156 23.183594 C 30.808594 25.054688 29.382812 25.355469 29.160156 25.132812 C 28.933594 24.90625 29.160156 23.40625 29.460938 23.257812 C 29.757812 23.109375 31.035156 23.855469 31.035156 24.230469 C 31.109375 24.605469 30.285156 25.429688 29.910156 25.429688 C 29.535156 25.429688 28.785156 24.832031 28.785156 24.457031 C 28.785156 24.082031 29.910156 23.183594 29.910156 23.183594 " clip-rule="nonzero"/></clipPath><clipPath id="addf0e42e7"><path d="M 33.035156 37.101562 L 35.101562 37.101562 L 35.101562 39.171875 L 33.035156 39.171875 Z M 33.035156 37.101562 " clip-rule="nonzero"/></clipPath><clipPath id="9754a15461"><path d="M 34.929688 37.351562 C 34.257812 39.375 33.058594 38.550781 33.058594 38.175781 C 33.058594 37.875 34.183594 36.976562 34.554688 37.125 C 34.855469 37.273438 35.230469 38.625 35.007812 38.925781 C 34.78125 39.222656 33.65625 39.222656 33.355469 39 C 33.058594 38.699219 32.980469 37.800781 33.207031 37.5 C 33.507812 37.199219 34.929688 37.351562 34.929688 37.351562 " clip-rule="nonzero"/></clipPath><clipPath id="45ba998f03"><path d="M 32.367188 45.3125 L 34.488281 45.3125 L 34.488281 47.496094 L 32.367188 47.496094 Z M 32.367188 45.3125 " clip-rule="nonzero"/></clipPath><clipPath id="af12a31f0c"><path d="M 34.332031 47.09375 C 32.234375 46.796875 32.832031 45.445312 33.132812 45.371094 C 33.507812 45.296875 34.554688 46.269531 34.480469 46.644531 C 34.480469 47.019531 33.132812 47.621094 32.832031 47.46875 C 32.53125 47.320312 32.234375 46.195312 32.457031 45.820312 C 32.683594 45.519531 33.582031 45.222656 33.882812 45.371094 C 34.257812 45.519531 34.40625 46.945312 34.40625 46.945312 " clip-rule="nonzero"/></clipPath><clipPath id="498ae618f3"><path d="M 23.382812 53.128906 L 25.585938 53.128906 L 25.585938 54.960938 L 23.382812 54.960938 Z M 23.382812 53.128906 " clip-rule="nonzero"/></clipPath><clipPath id="6ab4fd64c6"><path d="M 25.5625 53.765625 C 24.585938 55.265625 23.6875 55.039062 23.460938 54.664062 C 23.3125 54.367188 23.460938 53.464844 23.761719 53.242188 C 24.0625 53.015625 25.261719 53.316406 25.261719 53.316406 " clip-rule="nonzero"/></clipPath><clipPath id="61d268ade0"><path d="M 21.484375 19.351562 L 23.652344 19.351562 L 23.652344 21.585938 L 21.484375 21.585938 Z M 21.484375 19.351562 " clip-rule="nonzero"/></clipPath><clipPath id="b559924d80"><path d="M 21.511719 20.785156 C 23.011719 19.359375 23.761719 20.632812 23.613281 20.933594 C 23.460938 21.234375 21.964844 21.457031 21.738281 21.234375 C 21.511719 20.933594 21.8125 19.585938 22.1875 19.433594 C 22.488281 19.210938 23.460938 19.734375 23.613281 20.109375 C 23.761719 20.410156 23.460938 21.382812 23.164062 21.535156 C 22.789062 21.683594 21.511719 20.933594 21.511719 20.933594 " clip-rule="nonzero"/></clipPath><clipPath id="109fadc1f6"><path d="M 39.40625 22.9375 L 41.476562 22.9375 L 41.476562 25 L 39.40625 25 Z M 39.40625 22.9375 " clip-rule="nonzero"/></clipPath><clipPath id="9bb0781d53"><path d="M 41.378906 23.183594 C 40.703125 25.207031 39.429688 24.382812 39.429688 24.007812 C 39.429688 23.707031 40.628906 22.808594 40.929688 22.957031 C 41.226562 23.03125 41.601562 24.457031 41.378906 24.757812 C 41.152344 25.054688 40.027344 25.054688 39.730469 24.832031 C 39.503906 24.53125 39.355469 23.558594 39.652344 23.332031 C 39.878906 23.03125 41.304688 23.183594 41.304688 23.183594 " clip-rule="nonzero"/></clipPath><clipPath id="c5d42b5347"><path d="M 48.472656 30.097656 L 50.625 30.097656 L 50.625 32.183594 L 48.472656 32.183594 Z M 48.472656 30.097656 " clip-rule="nonzero"/></clipPath><clipPath id="0cde3e2d8a"><path d="M 50.597656 30.605469 C 49.324219 32.253906 48.425781 31.128906 48.5 30.828125 C 48.574219 30.453125 50 30.003906 50.296875 30.230469 C 50.597656 30.453125 50.449219 31.878906 50.148438 32.101562 C 49.847656 32.328125 48.800781 31.953125 48.574219 31.652344 C 48.347656 31.277344 48.574219 30.378906 48.875 30.152344 C 49.25 29.929688 50.523438 30.527344 50.523438 30.527344 " clip-rule="nonzero"/></clipPath><clipPath id="0bb3443b5f"><path d="M 190.242188 40.566406 L 192.582031 40.566406 L 192.582031 42.839844 L 190.242188 42.839844 Z M 190.242188 40.566406 " clip-rule="nonzero"/></clipPath><clipPath id="3b7242fbb4"><path d="M 191.449219 40.574219 C 192.347656 42.449219 190.921875 42.746094 190.699219 42.523438 C 190.398438 42.296875 190.625 40.875 191 40.722656 C 191.296875 40.574219 192.496094 41.324219 192.570312 41.621094 C 192.648438 41.996094 191.824219 42.820312 191.449219 42.820312 C 191.074219 42.898438 190.324219 42.296875 190.25 41.921875 C 190.25 41.546875 191.371094 40.574219 191.371094 40.574219 " clip-rule="nonzero"/></clipPath><clipPath id="87f163406a"><path d="M 195.621094 57.9375 L 197.769531 57.9375 L 197.769531 60.152344 L 195.621094 60.152344 Z M 195.621094 57.9375 " clip-rule="nonzero"/></clipPath><clipPath id="72d7e7d8c6"><path d="M 197.746094 58.5625 C 196.46875 60.210938 195.496094 59.089844 195.644531 58.789062 C 195.71875 58.414062 197.144531 57.964844 197.371094 58.1875 C 197.667969 58.414062 197.59375 59.839844 197.292969 60.0625 C 196.996094 60.289062 195.871094 59.914062 195.71875 59.613281 C 195.496094 59.238281 195.871094 58.1875 196.246094 57.964844 C 196.546875 57.8125 197.667969 58.488281 197.667969 58.488281 " clip-rule="nonzero"/></clipPath><clipPath id="49ec110f9d"><path d="M 205 34.640625 L 207.0625 34.640625 L 207.0625 36.679688 L 205 36.679688 Z M 205 34.640625 " clip-rule="nonzero"/></clipPath><clipPath id="795baa9387"><path d="M 205.242188 34.800781 C 207.265625 35.402344 206.441406 36.675781 206.140625 36.675781 C 205.765625 36.675781 204.867188 35.550781 205.015625 35.175781 C 205.089844 34.875 206.515625 34.5 206.816406 34.726562 C 207.113281 34.953125 207.113281 36.074219 206.890625 36.375 C 206.664062 36.601562 205.691406 36.75 205.390625 36.527344 C 205.089844 36.226562 205.242188 34.800781 205.242188 34.800781 " clip-rule="nonzero"/></clipPath><clipPath id="6a49377485"><path d="M 205.085938 22.769531 L 207.289062 22.769531 L 207.289062 24.632812 L 205.085938 24.632812 Z M 205.085938 22.769531 " clip-rule="nonzero"/></clipPath><clipPath id="5404aa4375"><path d="M 207.265625 23.484375 C 206.289062 24.980469 205.390625 24.683594 205.164062 24.382812 C 205.015625 24.082031 205.164062 23.109375 205.464844 22.882812 C 205.765625 22.65625 206.964844 22.957031 206.964844 22.957031 " clip-rule="nonzero"/></clipPath><clipPath id="494a669a27"><path d="M 185.726562 20.214844 L 187.90625 20.214844 L 187.90625 22.363281 L 185.726562 22.363281 Z M 185.726562 20.214844 " clip-rule="nonzero"/></clipPath><clipPath id="6c9ea95f23"><path d="M 186.125 22.207031 C 186.351562 20.109375 187.773438 20.632812 187.851562 21.007812 C 187.925781 21.308594 186.875 22.433594 186.574219 22.359375 C 186.199219 22.28125 185.601562 21.007812 185.75 20.632812 C 185.902344 20.335938 187.023438 20.109375 187.324219 20.335938 C 187.699219 20.484375 188 21.382812 187.851562 21.683594 C 187.699219 22.058594 186.277344 22.28125 186.277344 22.28125 " clip-rule="nonzero"/></clipPath><clipPath id="3f1850cc62"><path d="M 176.296875 59.90625 L 178.574219 59.90625 L 178.574219 62.246094 L 176.296875 62.246094 Z M 176.296875 59.90625 " clip-rule="nonzero"/></clipPath><clipPath id="1718680dd3"><path d="M 178.554688 61.113281 C 176.679688 62.011719 176.382812 60.585938 176.605469 60.289062 C 176.832031 60.0625 178.328125 60.289062 178.480469 60.585938 C 178.628906 60.886719 177.878906 62.160156 177.503906 62.238281 C 177.128906 62.238281 176.304688 61.488281 176.304688 61.113281 C 176.304688 60.738281 176.90625 59.988281 177.28125 59.914062 C 177.65625 59.914062 178.554688 60.960938 178.554688 60.960938 " clip-rule="nonzero"/></clipPath><clipPath id="3d345151c8"><path d="M 196.085938 63.503906 L 198.425781 63.503906 L 198.425781 65.777344 L 196.085938 65.777344 Z M 196.085938 63.503906 " clip-rule="nonzero"/></clipPath><clipPath id="1c386b6393"><path d="M 197.292969 63.511719 C 198.195312 65.386719 196.769531 65.683594 196.46875 65.460938 C 196.246094 65.160156 196.46875 63.734375 196.769531 63.585938 C 197.144531 63.4375 198.34375 64.1875 198.417969 64.5625 C 198.417969 64.933594 197.667969 65.683594 197.292969 65.761719 C 196.917969 65.761719 196.171875 65.160156 196.09375 64.785156 C 196.09375 64.410156 197.21875 63.511719 197.21875 63.511719 " clip-rule="nonzero"/></clipPath><clipPath id="d963e8343a"><path d="M 210.179688 61.105469 L 212.453125 61.105469 L 212.453125 63.378906 L 210.179688 63.378906 Z M 210.179688 61.105469 " clip-rule="nonzero"/></clipPath><clipPath id="4e7d0c85dd"><path d="M 211.3125 61.113281 C 212.285156 62.988281 210.789062 63.285156 210.5625 63.0625 C 210.335938 62.835938 210.5625 61.335938 210.863281 61.1875 C 211.164062 61.039062 212.4375 61.785156 212.4375 62.160156 C 212.511719 62.535156 211.6875 63.359375 211.3125 63.359375 C 210.9375 63.359375 210.1875 62.460938 210.1875 62.085938 C 210.1875 61.710938 211.3125 61.113281 211.3125 61.113281 " clip-rule="nonzero"/></clipPath><clipPath id="43f542f630"><path d="M 210.105469 33.367188 L 212.378906 33.367188 L 212.378906 35.644531 L 210.105469 35.644531 Z M 210.105469 33.367188 " clip-rule="nonzero"/></clipPath><clipPath id="58285eadc9"><path d="M 210.113281 34.5 C 211.988281 33.601562 212.285156 35.027344 212.0625 35.25 C 211.835938 35.550781 210.414062 35.324219 210.261719 34.953125 C 210.113281 34.652344 210.863281 33.453125 211.238281 33.378906 C 211.535156 33.300781 212.363281 34.125 212.363281 34.5 C 212.363281 34.875 211.535156 35.699219 211.164062 35.625 C 210.789062 35.625 210.113281 34.578125 210.113281 34.578125 " clip-rule="nonzero"/></clipPath><clipPath id="3250b35359"><path d="M 213.75 15.875 L 215.890625 15.875 L 215.890625 17.707031 L 213.75 17.707031 Z M 213.75 15.875 " clip-rule="nonzero"/></clipPath><clipPath id="c0b485b2f5"><path d="M 215.886719 16.511719 C 214.910156 18.011719 214.011719 17.785156 213.859375 17.410156 C 213.636719 17.109375 213.785156 16.210938 214.085938 15.988281 C 214.386719 15.761719 215.585938 16.0625 215.585938 16.0625 " clip-rule="nonzero"/></clipPath><clipPath id="366bab7e11"><path d="M 195.3125 11.230469 L 197.628906 11.230469 L 197.628906 13.453125 L 195.3125 13.453125 Z M 195.3125 11.230469 " clip-rule="nonzero"/></clipPath><clipPath id="51208132b8"><path d="M 196.09375 13.363281 C 195.796875 11.339844 197.292969 11.488281 197.445312 11.789062 C 197.59375 12.089844 196.917969 13.4375 196.546875 13.4375 C 196.246094 13.511719 195.269531 12.386719 195.347656 12.011719 C 195.421875 11.714844 196.46875 11.113281 196.84375 11.265625 C 197.21875 11.339844 197.667969 12.386719 197.59375 12.761719 C 197.445312 13.136719 196.246094 13.4375 196.246094 13.4375 " clip-rule="nonzero"/></clipPath><clipPath id="2db46246ae"><path d="M 178.519531 12.425781 L 180.660156 12.425781 L 180.660156 14.289062 L 178.519531 14.289062 Z M 178.519531 12.425781 " clip-rule="nonzero"/></clipPath><clipPath id="7fb23fd445"><path d="M 180.652344 13.136719 C 179.679688 14.636719 178.855469 14.335938 178.628906 14.039062 C 178.40625 13.664062 178.628906 12.761719 178.929688 12.539062 C 179.15625 12.3125 180.355469 12.613281 180.355469 12.613281 " clip-rule="nonzero"/></clipPath><clipPath id="5c7612bb3c"><path d="M 178.53125 42.425781 L 180.601562 42.425781 L 180.601562 44.523438 L 178.53125 44.523438 Z M 178.53125 42.425781 " clip-rule="nonzero"/></clipPath><clipPath id="20a6b00fbe"><path d="M 180.429688 42.746094 C 179.753906 44.695312 178.554688 43.871094 178.554688 43.570312 C 178.554688 43.195312 179.753906 42.371094 180.054688 42.449219 C 180.355469 42.597656 180.730469 43.945312 180.503906 44.246094 C 180.277344 44.546875 179.15625 44.621094 178.855469 44.320312 C 178.628906 44.023438 178.628906 42.898438 178.929688 42.671875 C 179.15625 42.371094 180.429688 42.671875 180.429688 42.671875 " clip-rule="nonzero"/></clipPath><clipPath id="f220ce1efc"><path d="M 172.550781 28.722656 L 174.824219 28.722656 L 174.824219 30.996094 L 172.550781 30.996094 Z M 172.550781 28.722656 " clip-rule="nonzero"/></clipPath><clipPath id="94a1fd7c89"><path d="M 172.558594 29.855469 C 174.433594 28.953125 174.730469 30.378906 174.507812 30.605469 C 174.207031 30.902344 172.78125 30.605469 172.632812 30.304688 C 172.484375 30.003906 173.234375 28.804688 173.605469 28.730469 C 173.980469 28.65625 174.808594 29.480469 174.808594 29.855469 C 174.808594 30.230469 173.90625 30.976562 173.53125 30.976562 C 173.15625 30.976562 172.558594 29.855469 172.558594 29.855469 " clip-rule="nonzero"/></clipPath><clipPath id="22ce85ff3d"><path d="M 166.851562 16.953125 L 169.128906 16.953125 L 169.128906 19.292969 L 166.851562 19.292969 Z M 166.851562 16.953125 " clip-rule="nonzero"/></clipPath><clipPath id="8eda18124c"><path d="M 166.859375 18.085938 C 168.734375 17.1875 169.035156 18.609375 168.808594 18.835938 C 168.585938 19.136719 167.085938 18.835938 166.9375 18.535156 C 166.859375 18.234375 167.535156 17.035156 167.910156 16.960938 C 168.285156 16.886719 169.109375 17.710938 169.109375 18.085938 C 169.109375 18.460938 168.285156 19.285156 167.910156 19.285156 C 167.535156 19.210938 166.859375 18.160156 166.859375 18.160156 " clip-rule="nonzero"/></clipPath><clipPath id="63394f7f29"><path d="M 207.082031 48.199219 L 209.179688 48.199219 L 209.179688 50.296875 L 207.082031 50.296875 Z M 207.082031 48.199219 " clip-rule="nonzero"/></clipPath><clipPath id="f7fedd60fd"><path d="M 208.914062 50.167969 C 206.890625 49.492188 207.714844 48.21875 208.089844 48.21875 C 208.390625 48.21875 209.289062 49.417969 209.136719 49.792969 C 208.988281 50.09375 207.640625 50.46875 207.339844 50.167969 C 207.039062 50.019531 207.039062 48.894531 207.265625 48.59375 C 207.5625 48.292969 208.464844 48.144531 208.761719 48.292969 C 209.0625 48.519531 209.0625 50.019531 209.0625 50.019531 " clip-rule="nonzero"/></clipPath></defs><g clip-path="url(#8ce6cb6140)"><g clip-path="url(#135a52c16f)"><rect x="-22.487999" width="269.855988" fill="#1e1e1e" y="-7.5" height="89.999996" fill-opacity="1"/></g></g><g clip-path="url(#af0be6e83e)"><g clip-path="url(#e468938a99)"><path fill="#fffb47" d="M 52.753906 2.371094 L 66.535156 2.371094 L 66.535156 69.605469 L 52.753906 69.605469 Z M 52.753906 2.371094 " fill-opacity="1" fill-rule="nonzero"/></g></g><g clip-path="url(#b642d151aa)"><g clip-path="url(#03addc93f7)"><path fill="#fffb47" d="M 52.382812 0.0195312 L 92.984375 0.0195312 L 92.984375 68.21875 L 52.382812 68.21875 Z M 52.382812 0.0195312 " fill-opacity="1" fill-rule="nonzero"/></g></g><g clip-path="url(#8e0aa88494)"><g clip-path="url(#293917c9fc)"><path fill="#fffb47" d="M 94.566406 26.167969 L 133.941406 26.167969 L 133.941406 65.089844 L 94.566406 65.089844 Z M 94.566406 26.167969 " fill-opacity="1" fill-rule="nonzero"/></g></g><g clip-path="url(#9457e508a0)"><g clip-path="url(#988055e4a6)"><path fill="#fffb47" d="M 129.386719 20.992188 L 161.59375 20.992188 L 161.59375 51.644531 L 129.386719 51.644531 Z M 129.386719 20.992188 " fill-opacity="1" fill-rule="nonzero"/></g></g><g clip-path="url(#ea5980e211)"><g clip-path="url(#d2fd47f5c9)"><path fill="#fffb47" d="M 136.710938 22.742188 L 170.257812 22.742188 L 170.257812 70.699219 L 136.710938 70.699219 Z M 136.710938 22.742188 " fill-opacity="1" fill-rule="nonzero"/></g></g><g clip-path="url(#0bf8251b9a)"><g clip-path="url(#ee7083c856)"><path fill="#1e1e1e" d="M -4.421875 -3.128906 L 7.722656 -3.128906 L 7.722656 83.917969 L -4.421875 83.917969 Z M -4.421875 -3.128906 " fill-opacity="1" fill-rule="nonzero"/></g></g><g clip-path="url(#b550ba8efc)"><g clip-path="url(#e600a6ec59)"><path fill="#fffb47" d="M 11.019531 4.667969 L 18.433594 4.667969 L 18.433594 11.9375 L 11.019531 11.9375 Z M 11.019531 4.667969 " fill-opacity="1" fill-rule="nonzero"/></g></g><g clip-path="url(#beaf6616c6)"><g clip-path="url(#454028c64c)"><path fill="#fffb47" d="M 6.445312 12.238281 L 14.015625 12.238281 L 14.015625 19.808594 L 6.445312 19.808594 Z M 6.445312 12.238281 " fill-opacity="1" fill-rule="nonzero"/></g></g><g clip-path="url(#c300893713)"><g clip-path="url(#4c8a4f6891)"><path fill="#fffb47" d="M 6.222656 33.902344 L 13.71875 33.902344 L 13.71875 41.542969 L 6.222656 41.542969 Z M 6.222656 33.902344 " fill-opacity="1" fill-rule="nonzero"/></g></g><g clip-path="url(#9ce4e7b8de)"><g clip-path="url(#1adee23ac4)"><path fill="#fffb47" d="M 8.84375 58.265625 L 16.191406 58.265625 L 16.191406 65.695312 L 8.84375 65.695312 Z M 8.84375 58.265625 " fill-opacity="1" fill-rule="nonzero"/></g></g><g clip-path="url(#1b36627162)"><g clip-path="url(#a54d83711a)"><path fill="#fffb47" d="M 10.121094 44.769531 L 17.691406 44.769531 L 17.691406 52.34375 L 10.121094 52.34375 Z M 10.121094 44.769531 " fill-opacity="1" fill-rule="nonzero"/></g></g><g clip-path="url(#e8cc8e2748)"><g clip-path="url(#f84600389d)"><path fill="#fffb47" d="M 59.816406 5.640625 L 67.390625 5.640625 L 67.390625 13.214844 L 59.816406 13.214844 Z M 59.816406 5.640625 " fill-opacity="1" fill-rule="nonzero"/></g></g><g clip-path="url(#e3cedc5f32)"><g clip-path="url(#1656d1597d)"><path fill="#fffb47" d="M 30.285156 5.867188 L 37.695312 5.867188 L 37.695312 13.136719 L 30.285156 13.136719 Z M 30.285156 5.867188 " fill-opacity="1" fill-rule="nonzero"/></g></g><g clip-path="url(#4b6a282f78)"><g clip-path="url(#1c13c215b4)"><path fill="#fffb47" d="M 72.484375 21.910156 L 79.832031 21.910156 L 79.832031 29.339844 L 72.484375 29.339844 Z M 72.484375 21.910156 " fill-opacity="1" fill-rule="nonzero"/></g></g><g clip-path="url(#6cdd882a1c)"><g clip-path="url(#f66ef1910d)"><path fill="#fffb47" d="M 66.039062 52.042969 L 73.609375 52.042969 L 73.609375 59.613281 L 66.039062 59.613281 Z M 66.039062 52.042969 " fill-opacity="1" fill-rule="nonzero"/></g></g><g clip-path="url(#77c223f5bc)"><g clip-path="url(#e4d1937b21)"><path fill="#fffb47" d="M 37.855469 60.289062 L 45.425781 60.289062 L 45.425781 67.859375 L 37.855469 67.859375 Z M 37.855469 60.289062 " fill-opacity="1" fill-rule="nonzero"/></g></g><g clip-path="url(#37e14cab68)"><g clip-path="url(#d5e6b78102)"><path fill="#fffb47" d="M 79.15625 35.625 L 86.652344 35.625 L 86.652344 43.121094 L 79.15625 43.121094 Z M 79.15625 35.625 " fill-opacity="1" fill-rule="nonzero"/></g></g><g clip-path="url(#4ddc39a304)"><g clip-path="url(#f2eef9f534)"><path fill="#fffb47" d="M 80.808594 60.210938 L 88.226562 60.210938 L 88.226562 67.722656 L 80.808594 67.722656 Z M 80.808594 60.210938 " fill-opacity="1" fill-rule="nonzero"/></g></g><g clip-path="url(#9fbff41725)"><g clip-path="url(#a2b8ffd9c0)"><path fill="#fffb47" d="M 45.425781 10.910156 L 52.082031 10.910156 L 52.082031 17.644531 L 45.425781 17.644531 Z M 45.425781 10.910156 " fill-opacity="1" fill-rule="nonzero"/></g></g><g clip-path="url(#8c0a7bb714)"><g clip-path="url(#5ad0183a0f)"><path fill="#fffb47" d="M 63.941406 29.105469 L 71.371094 29.105469 L 71.371094 36.449219 L 63.941406 36.449219 Z M 63.941406 29.105469 " fill-opacity="1" fill-rule="nonzero"/></g></g><g clip-path="url(#d241eb5950)"><g clip-path="url(#aae0ba20b4)"><path fill="#fffb47" d="M 84.953125 11.449219 L 91.601562 11.449219 L 91.601562 17.96875 L 84.953125 17.96875 Z M 84.953125 11.449219 " fill-opacity="1" fill-rule="nonzero"/></g></g><g clip-path="url(#6cbd6466bb)"><g clip-path="url(#c78705f254)"><path fill="#fffb47" d="M 86.765625 27.917969 L 93.636719 27.917969 L 93.636719 34.707031 L 86.765625 34.707031 Z M 86.765625 27.917969 " fill-opacity="1" fill-rule="nonzero"/></g></g><g clip-path="url(#3a2661b655)"><g clip-path="url(#551424e0e4)"><path fill="#fffb47" d="M 91.605469 52.183594 L 98.394531 52.183594 L 98.394531 58.972656 L 91.605469 58.972656 Z M 91.605469 52.183594 " fill-opacity="1" fill-rule="nonzero"/></g></g><g clip-path="url(#e565d9f60a)"><g clip-path="url(#8231d3f358)"><path fill="#fffb47" d="M 104.648438 59.445312 L 111.378906 59.445312 L 111.378906 66.097656 L 104.648438 66.097656 Z M 104.648438 59.445312 " fill-opacity="1" fill-rule="nonzero"/></g></g><g clip-path="url(#559ef218b7)"><g clip-path="url(#05bdc6cbee)"><path fill="#fffb47" d="M 116.679688 60.988281 L 123.46875 60.988281 L 123.46875 67.777344 L 116.679688 67.777344 Z M 116.679688 60.988281 " fill-opacity="1" fill-rule="nonzero"/></g></g><g clip-path="url(#bb505eebe6)"><g clip-path="url(#3c95a73ad5)"><path fill="#fffb47" d="M 131.671875 54.269531 L 138.460938 54.269531 L 138.460938 61.058594 L 131.671875 61.058594 Z M 131.671875 54.269531 " fill-opacity="1" fill-rule="nonzero"/></g></g><g clip-path="url(#83ba0a1cd7)"><g clip-path="url(#8ce3648ce1)"><path fill="#fffb47" d="M 132.542969 30.875 L 139.191406 30.875 L 139.191406 37.394531 L 132.542969 37.394531 Z M 132.542969 30.875 " fill-opacity="1" fill-rule="nonzero"/></g></g><g clip-path="url(#3f59943539)"><g clip-path="url(#ac227bf4bb)"><path fill="#fffb47" d="M 135.234375 39.746094 L 141.957031 39.746094 L 141.957031 46.46875 L 135.234375 46.46875 Z M 135.234375 39.746094 " fill-opacity="1" fill-rule="nonzero"/></g></g><g clip-path="url(#8cb2882efb)"><g clip-path="url(#cb870ebe56)"><path fill="#fffb47" d="M 140.273438 46.941406 L 147.066406 46.941406 L 147.066406 53.730469 L 140.273438 53.730469 Z M 140.273438 46.941406 " fill-opacity="1" fill-rule="nonzero"/></g></g><g clip-path="url(#96e29116ba)"><g clip-path="url(#aa37f14a23)"><path fill="#fffb47" d="M 151.164062 59.109375 L 157.953125 59.109375 L 157.953125 65.898438 L 151.164062 65.898438 Z M 151.164062 59.109375 " fill-opacity="1" fill-rule="nonzero"/></g></g><g clip-path="url(#5bb0d888df)"><g clip-path="url(#5cac71c8bf)"><path fill="#fffb47" d="M 159.835938 58.90625 L 166.625 58.90625 L 166.625 65.695312 L 159.835938 65.695312 Z M 159.835938 58.90625 " fill-opacity="1" fill-rule="nonzero"/></g></g><g clip-path="url(#9ba28b6020)"><g clip-path="url(#d8ce4fe2a1)"><path fill="#fffb47" d="M 161.179688 41.964844 L 167.847656 41.964844 L 167.847656 48.554688 L 161.179688 48.554688 Z M 161.179688 41.964844 " fill-opacity="1" fill-rule="nonzero"/></g></g><g clip-path="url(#ab831339ba)"><g clip-path="url(#c16d67d814)"><path fill="#fffb47" d="M 156.542969 51.308594 L 163.207031 51.308594 L 163.207031 57.898438 L 156.542969 57.898438 Z M 156.542969 51.308594 " fill-opacity="1" fill-rule="nonzero"/></g></g><g clip-path="url(#76aba79761)"><g clip-path="url(#a644b6b01d)"><path fill="#fffb47" d="M 151.300781 22.941406 L 157.949219 22.941406 L 157.949219 29.464844 L 151.300781 29.464844 Z M 151.300781 22.941406 " fill-opacity="1" fill-rule="nonzero"/></g></g><g clip-path="url(#af3aa864e3)"><g clip-path="url(#88548a2314)"><path fill="#fffb47" d="M 160.308594 10.707031 L 167.097656 10.707031 L 167.097656 17.496094 L 160.308594 17.496094 Z M 160.308594 10.707031 " fill-opacity="1" fill-rule="nonzero"/></g></g><g clip-path="url(#199110a9ff)"><g clip-path="url(#b3f6bb1c0c)"><path fill="#fffb47" d="M 143.234375 11.582031 L 149.882812 11.582031 L 149.882812 18.101562 L 143.234375 18.101562 Z M 143.234375 11.582031 " fill-opacity="1" fill-rule="nonzero"/></g></g><g clip-path="url(#a5653efdb0)"><g clip-path="url(#59d0960f48)"><path fill="#fffb47" d="M 145.988281 19.445312 L 152.578125 19.445312 L 152.578125 26.113281 L 145.988281 26.113281 Z M 145.988281 19.445312 " fill-opacity="1" fill-rule="nonzero"/></g></g><g clip-path="url(#07a7cd35ec)"><g clip-path="url(#fa903bf994)"><path fill="#fffb47" d="M 122.933594 11.917969 L 129.734375 11.917969 L 129.734375 18.640625 L 122.933594 18.640625 Z M 122.933594 11.917969 " fill-opacity="1" fill-rule="nonzero"/></g></g><g clip-path="url(#b6105a18b5)"><g clip-path="url(#6fd2c18fd3)"><path fill="#fffb47" d="M 115.46875 26.4375 L 122.125 26.4375 L 122.125 33.171875 L 115.46875 33.171875 Z M 115.46875 26.4375 " fill-opacity="1" fill-rule="nonzero"/></g></g><g clip-path="url(#e1509e78ff)"><g clip-path="url(#42cf85f34b)"><path fill="#fffb47" d="M 103.773438 15.078125 L 110.421875 15.078125 L 110.421875 21.597656 L 103.773438 21.597656 Z M 103.773438 15.078125 " fill-opacity="1" fill-rule="nonzero"/></g></g><g clip-path="url(#20b3276ffa)"><g clip-path="url(#94d7924dbc)"><path fill="#fffb47" d="M 94.699219 15.953125 L 101.488281 15.953125 L 101.488281 22.742188 L 94.699219 22.742188 Z M 94.699219 15.953125 " fill-opacity="1" fill-rule="nonzero"/></g></g><g clip-path="url(#d07c34b91a)"><g clip-path="url(#016280b937)"><path fill="#fffb47" d="M 85.222656 21.933594 L 91.867188 21.933594 L 91.867188 28.453125 L 85.222656 28.453125 Z M 85.222656 21.933594 " fill-opacity="1" fill-rule="nonzero"/></g></g><g clip-path="url(#20bd0273ef)"><g clip-path="url(#b1a9763ce6)"><path fill="#fffb47" d="M 89.65625 5.867188 L 96.304688 5.867188 L 96.304688 12.390625 L 89.65625 12.390625 Z M 89.65625 5.867188 " fill-opacity="1" fill-rule="nonzero"/></g></g><g clip-path="url(#78796ace7c)"><g clip-path="url(#a0d6e61257)"><path fill="#fffb47" d="M 106.195312 6.472656 L 112.847656 6.472656 L 112.847656 13.207031 L 106.195312 13.207031 Z M 106.195312 6.472656 " fill-opacity="1" fill-rule="nonzero"/></g></g><g clip-path="url(#fffc83faf9)"><g clip-path="url(#f5622b6aa7)"><path fill="#fffb47" d="M 114.261719 13.933594 L 120.847656 13.933594 L 120.847656 20.601562 L 114.261719 20.601562 Z M 114.261719 13.933594 " fill-opacity="1" fill-rule="nonzero"/></g></g><g clip-path="url(#70cf58c49b)"><g clip-path="url(#08484dac9c)"><path fill="#fffb47" d="M 101.488281 22.136719 L 108.136719 22.136719 L 108.136719 28.65625 L 101.488281 28.65625 Z M 101.488281 22.136719 " fill-opacity="1" fill-rule="nonzero"/></g></g><g clip-path="url(#87b3d401f6)"><g clip-path="url(#f01ef62e29)"><path fill="#fffb47" d="M 132.949219 11.917969 L 139.597656 11.917969 L 139.597656 18.4375 L 132.949219 18.4375 Z M 132.949219 11.917969 " fill-opacity="1" fill-rule="nonzero"/></g></g><g clip-path="url(#659823f9d1)"><g clip-path="url(#193528a700)"><path fill="#fffb47" d="M 104.246094 25.027344 L 110.890625 25.027344 L 110.890625 31.546875 L 104.246094 31.546875 Z M 104.246094 25.027344 " fill-opacity="1" fill-rule="nonzero"/></g></g><g clip-path="url(#d5fe243fe5)"><g clip-path="url(#dee2d14b33)"><path fill="#fffb47" d="M 45.628906 46.269531 L 52.496094 46.269531 L 52.496094 53.058594 L 45.628906 53.058594 Z M 45.628906 46.269531 " fill-opacity="1" fill-rule="nonzero"/></g></g><g clip-path="url(#6e05dafa8d)"><g clip-path="url(#99fc8b80df)"><path fill="#fffb47" d="M 47.039062 23.144531 L 53.703125 23.144531 L 53.703125 29.730469 L 47.039062 29.730469 Z M 47.039062 23.144531 " fill-opacity="1" fill-rule="nonzero"/></g></g><g clip-path="url(#78be7ee2d0)"><g clip-path="url(#2493221191)"><path fill="#fffb47" d="M 61.390625 60.585938 L 68.964844 60.585938 L 68.964844 68.160156 L 61.390625 68.160156 Z M 61.390625 60.585938 " fill-opacity="1" fill-rule="nonzero"/></g></g><g clip-path="url(#1305d070e9)"><g clip-path="url(#032ded91e2)"><path fill="#fffb47" d="M 18.589844 65.085938 L 26.023438 65.085938 L 26.023438 72.429688 L 18.589844 72.429688 Z M 18.589844 65.085938 " fill-opacity="1" fill-rule="nonzero"/></g></g><g clip-path="url(#82593c06bc)"><g clip-path="url(#be51388a1a)"><path fill="#fffb47" d="M 8.621094 20.707031 L 16.050781 20.707031 L 16.050781 28.054688 L 8.621094 28.054688 Z M 8.621094 20.707031 " fill-opacity="1" fill-rule="nonzero"/></g></g><g clip-path="url(#b3c0ccc6a1)"><g clip-path="url(#3dbbf4c826)"><path fill="#fffb47" d="M 25.785156 20.183594 L 34.105469 20.183594 L 34.105469 28.503906 L 25.785156 28.503906 Z M 25.785156 20.183594 " fill-opacity="1" fill-rule="nonzero"/></g></g><g clip-path="url(#addf0e42e7)"><g clip-path="url(#9754a15461)"><path fill="#fffb47" d="M 30.058594 34.125 L 38.078125 34.125 L 38.078125 42.210938 L 30.058594 42.210938 Z M 30.058594 34.125 " fill-opacity="1" fill-rule="nonzero"/></g></g><g clip-path="url(#45ba998f03)"><g clip-path="url(#af12a31f0c)"><path fill="#fffb47" d="M 29.460938 42.371094 L 37.554688 42.371094 L 37.554688 50.46875 L 29.460938 50.46875 Z M 29.460938 42.371094 " fill-opacity="1" fill-rule="nonzero"/></g></g><g clip-path="url(#498ae618f3)"><g clip-path="url(#6ab4fd64c6)"><path fill="#fffb47" d="M 20.464844 50.242188 L 28.566406 50.242188 L 28.566406 58.1875 L 20.464844 58.1875 Z M 20.464844 50.242188 " fill-opacity="1" fill-rule="nonzero"/></g></g><g clip-path="url(#61d268ade0)"><g clip-path="url(#b559924d80)"><path fill="#fffb47" d="M 18.515625 16.285156 L 26.6875 16.285156 L 26.6875 24.519531 L 18.515625 24.519531 Z M 18.515625 16.285156 " fill-opacity="1" fill-rule="nonzero"/></g></g><g clip-path="url(#109fadc1f6)"><g clip-path="url(#9bb0781d53)"><path fill="#fffb47" d="M 36.429688 19.960938 L 44.453125 19.960938 L 44.453125 28.042969 L 36.429688 28.042969 Z M 36.429688 19.960938 " fill-opacity="1" fill-rule="nonzero"/></g></g><g clip-path="url(#c5d42b5347)"><g clip-path="url(#0cde3e2d8a)"><path fill="#fffb47" d="M 45.5 27.15625 L 53.597656 27.15625 L 53.597656 35.25 L 45.5 35.25 Z M 45.5 27.15625 " fill-opacity="1" fill-rule="nonzero"/></g></g><g clip-path="url(#0bb3443b5f)"><g clip-path="url(#3b7242fbb4)"><path fill="#fffb47" d="M 187.25 37.574219 L 195.570312 37.574219 L 195.570312 45.894531 L 187.25 45.894531 Z M 187.25 37.574219 " fill-opacity="1" fill-rule="nonzero"/></g></g><g clip-path="url(#87f163406a)"><g clip-path="url(#72d7e7d8c6)"><path fill="#fffb47" d="M 192.648438 54.964844 L 200.742188 54.964844 L 200.742188 63.21875 L 192.648438 63.21875 Z M 192.648438 54.964844 " fill-opacity="1" fill-rule="nonzero"/></g></g><g clip-path="url(#49ec110f9d)"><g clip-path="url(#795baa9387)"><path fill="#fffb47" d="M 202.015625 31.726562 L 210.101562 31.726562 L 210.101562 39.75 L 202.015625 39.75 Z M 202.015625 31.726562 " fill-opacity="1" fill-rule="nonzero"/></g></g><g clip-path="url(#6a49377485)"><g clip-path="url(#5404aa4375)"><path fill="#fffb47" d="M 202.167969 19.882812 L 210.269531 19.882812 L 210.269531 27.832031 L 202.167969 27.832031 Z M 202.167969 19.882812 " fill-opacity="1" fill-rule="nonzero"/></g></g><g clip-path="url(#494a669a27)"><g clip-path="url(#6c9ea95f23)"><path fill="#fffb47" d="M 182.753906 17.335938 L 190.910156 17.335938 L 190.910156 25.429688 L 182.753906 25.429688 Z M 182.753906 17.335938 " fill-opacity="1" fill-rule="nonzero"/></g></g><g clip-path="url(#3f1850cc62)"><g clip-path="url(#1718680dd3)"><path fill="#fffb47" d="M 173.308594 56.914062 L 181.628906 56.914062 L 181.628906 65.234375 L 173.308594 65.234375 Z M 173.308594 56.914062 " fill-opacity="1" fill-rule="nonzero"/></g></g><g clip-path="url(#3d345151c8)"><g clip-path="url(#1c386b6393)"><path fill="#fffb47" d="M 193.097656 60.511719 L 201.417969 60.511719 L 201.417969 68.832031 L 193.097656 68.832031 Z M 193.097656 60.511719 " fill-opacity="1" fill-rule="nonzero"/></g></g><g clip-path="url(#d963e8343a)"><g clip-path="url(#4e7d0c85dd)"><path fill="#fffb47" d="M 207.1875 58.113281 L 215.511719 58.113281 L 215.511719 66.433594 L 207.1875 66.433594 Z M 207.1875 58.113281 " fill-opacity="1" fill-rule="nonzero"/></g></g><g clip-path="url(#43f542f630)"><g clip-path="url(#58285eadc9)"><path fill="#fffb47" d="M 207.113281 30.378906 L 215.433594 30.378906 L 215.433594 38.699219 L 207.113281 38.699219 Z M 207.113281 30.378906 " fill-opacity="1" fill-rule="nonzero"/></g></g><g clip-path="url(#3250b35359)"><g clip-path="url(#c0b485b2f5)"><path fill="#fffb47" d="M 210.863281 12.988281 L 218.964844 12.988281 L 218.964844 20.933594 L 210.863281 20.933594 Z M 210.863281 12.988281 " fill-opacity="1" fill-rule="nonzero"/></g></g><g clip-path="url(#366bab7e11)"><g clip-path="url(#51208132b8)"><path fill="#fffb47" d="M 192.347656 8.265625 L 200.59375 8.265625 L 200.59375 16.511719 L 192.347656 16.511719 Z M 192.347656 8.265625 " fill-opacity="1" fill-rule="nonzero"/></g></g><g clip-path="url(#2db46246ae)"><g clip-path="url(#7fb23fd445)"><path fill="#fffb47" d="M 175.632812 9.539062 L 183.730469 9.539062 L 183.730469 17.484375 L 175.632812 17.484375 Z M 175.632812 9.539062 " fill-opacity="1" fill-rule="nonzero"/></g></g><g clip-path="url(#5c7612bb3c)"><g clip-path="url(#20a6b00fbe)"><path fill="#fffb47" d="M 175.554688 39.449219 L 183.578125 39.449219 L 183.578125 47.53125 L 175.554688 47.53125 Z M 175.554688 39.449219 " fill-opacity="1" fill-rule="nonzero"/></g></g><g clip-path="url(#f220ce1efc)"><g clip-path="url(#94a1fd7c89)"><path fill="#fffb47" d="M 169.558594 25.730469 L 177.878906 25.730469 L 177.878906 34.050781 L 169.558594 34.050781 Z M 169.558594 25.730469 " fill-opacity="1" fill-rule="nonzero"/></g></g><g clip-path="url(#22ce85ff3d)"><g clip-path="url(#8eda18124c)"><path fill="#fffb47" d="M 163.863281 13.960938 L 172.183594 13.960938 L 172.183594 22.28125 L 163.863281 22.28125 Z M 163.863281 13.960938 " fill-opacity="1" fill-rule="nonzero"/></g></g><g clip-path="url(#63394f7f29)"><g clip-path="url(#f7fedd60fd)"><path fill="#fffb47" d="M 204.042969 45.222656 L 212.125 45.222656 L 212.125 53.242188 L 204.042969 53.242188 Z M 204.042969 45.222656 " fill-opacity="1" fill-rule="nonzero"/></g></g></svg>