<svg xmlns="http://www.w3.org/2000/svg" xmlns:xlink="http://www.w3.org/1999/xlink" width="300" zoomAndPan="magnify" viewBox="0 0 224.87999 74.999997" height="100" preserveAspectRatio="xMidYMid meet" version="1.0"><defs><clipPath id="f1910cef73"><path d="M 6.820312 14.441406 L 26.722656 14.441406 L 26.722656 70.859375 L 6.820312 70.859375 Z M 6.820312 14.441406 " clip-rule="nonzero"/></clipPath><clipPath id="3021596581"><path d="M 17.667969 17.523438 C 13.769531 38.226562 13.578125 49.347656 12.746094 53.179688 C 12.425781 54.585938 11.789062 54.90625 11.722656 56.054688 C 11.660156 57.652344 12.554688 60.335938 13.128906 61.808594 C 13.578125 62.765625 13.769531 63.597656 14.535156 64.042969 C 15.683594 64.683594 19.007812 63.726562 19.902344 64.234375 C 20.285156 64.492188 20.285156 65.257812 20.542969 65.195312 C 20.925781 65.195312 21.246094 63.214844 21.882812 62.703125 C 22.394531 62.253906 23.164062 62.128906 23.738281 62.191406 C 24.375 62.191406 25.078125 62.445312 25.589844 62.894531 C 26.101562 63.46875 26.742188 64.683594 26.613281 65.578125 C 26.550781 66.410156 25.78125 67.496094 25.015625 67.941406 C 24.25 68.324219 22.90625 68.324219 22.140625 67.878906 C 21.4375 67.496094 20.671875 66.410156 20.542969 65.515625 C 20.476562 64.683594 20.988281 63.40625 21.628906 62.894531 C 22.269531 62.320312 23.609375 62.128906 24.441406 62.253906 C 25.078125 62.382812 25.65625 62.894531 26.039062 63.339844 C 26.421875 63.851562 26.742188 64.492188 26.613281 65.195312 C 26.484375 66.410156 24.886719 68.515625 23.480469 69.476562 C 22.011719 70.433594 19.710938 70.753906 17.921875 70.816406 C 16.132812 70.882812 14.089844 70.308594 12.746094 69.796875 C 11.722656 69.410156 11.085938 69.09375 10.382812 68.390625 C 9.359375 67.367188 8.144531 65.898438 7.507812 63.851562 C 6.484375 60.464844 6.867188 54.457031 7.058594 49.089844 C 7.3125 42.765625 8.207031 34.394531 9.421875 28.320312 C 10.382812 23.464844 11.339844 17.140625 13.128906 15.347656 C 13.960938 14.519531 15.175781 14.390625 15.941406 14.582031 C 16.515625 14.648438 17.089844 15.222656 17.347656 15.734375 C 17.667969 16.179688 17.667969 17.523438 17.667969 17.523438 " clip-rule="nonzero"/></clipPath><clipPath id="954b4754f3"><path d="M 32.0625 38.566406 L 57.652344 38.566406 L 57.652344 69.773438 L 32.0625 69.773438 Z M 32.0625 38.566406 " clip-rule="nonzero"/></clipPath><clipPath id="9892656c52"><path d="M 45.527344 44.875 C 41.054688 47.75 40.160156 50.175781 39.394531 52.03125 C 38.628906 53.753906 37.988281 55.417969 37.796875 57.207031 C 37.539062 59.125 37.347656 62.636719 38.242188 63.214844 C 38.820312 63.597656 40.160156 63.023438 40.992188 62.382812 C 42.140625 61.488281 43.035156 58.738281 44.121094 57.84375 C 44.761719 57.269531 45.335938 56.886719 46.039062 56.886719 C 46.804688 56.886719 48.085938 57.269531 48.597656 57.972656 C 49.171875 58.675781 49.234375 60.335938 49.042969 61.105469 C 48.914062 61.617188 48.597656 61.933594 48.210938 62.253906 C 47.703125 62.574219 46.871094 62.957031 46.167969 62.957031 C 45.527344 62.894531 44.699219 62.574219 44.1875 62.128906 C 43.738281 61.617188 43.355469 60.976562 43.292969 60.144531 C 43.164062 58.804688 44.378906 56.824219 44.699219 54.585938 C 45.144531 51.261719 44.570312 44.9375 45.335938 42.253906 C 45.71875 40.785156 46.230469 39.695312 47.0625 39.1875 C 47.765625 38.675781 49.042969 38.484375 49.808594 38.738281 C 50.578125 39.058594 51.214844 39.632812 51.726562 40.785156 C 53.003906 43.722656 53.644531 55.929688 53.132812 58.355469 C 53.003906 59.058594 52.8125 59.25 52.429688 59.636719 C 52.046875 60.082031 51.214844 60.53125 50.578125 60.59375 C 49.9375 60.722656 49.042969 60.464844 48.53125 60.144531 C 47.957031 59.761719 47.445312 58.996094 47.316406 58.355469 C 47.125 57.71875 47.253906 56.824219 47.574219 56.246094 C 47.894531 55.671875 48.53125 55.035156 49.171875 54.84375 C 49.808594 54.585938 50.640625 54.585938 51.28125 54.84375 C 51.917969 55.097656 52.429688 55.480469 52.878906 56.246094 C 53.644531 57.589844 53.261719 61.425781 54.21875 62.828125 C 54.859375 63.851562 56.390625 63.980469 56.96875 64.746094 C 57.414062 65.386719 57.605469 66.152344 57.605469 66.792969 C 57.542969 67.429688 57.160156 68.261719 56.777344 68.773438 C 56.390625 69.15625 55.945312 69.347656 55.496094 69.539062 C 55.113281 69.667969 54.601562 69.730469 54.089844 69.605469 C 53.515625 69.476562 52.558594 69.15625 52.238281 68.515625 C 51.855469 67.621094 52.367188 64.683594 53.132812 63.980469 C 53.773438 63.46875 55.242188 63.597656 56.007812 63.980469 C 56.710938 64.363281 57.480469 65.449219 57.605469 66.28125 C 57.671875 67.113281 57.160156 68.390625 56.582031 68.902344 C 55.945312 69.476562 54.601562 69.796875 53.835938 69.539062 C 53.003906 69.347656 52.046875 68.453125 51.726562 67.621094 C 51.472656 66.855469 51.664062 65.515625 52.175781 64.875 C 52.6875 64.171875 53.898438 63.597656 54.730469 63.660156 C 55.5625 63.660156 56.710938 64.363281 57.160156 65.066406 C 57.605469 65.769531 57.480469 67.238281 57.351562 67.878906 C 57.222656 68.261719 56.902344 68.773438 56.777344 68.710938 C 56.582031 68.644531 56.710938 64.8125 56.96875 64.746094 C 57.09375 64.746094 57.480469 65.578125 57.542969 66.089844 C 57.605469 66.664062 57.605469 67.621094 57.222656 68.199219 C 56.777344 68.835938 55.5625 69.539062 54.792969 69.667969 C 54.285156 69.730469 53.964844 69.667969 53.390625 69.410156 C 52.429688 69.027344 50.578125 68.007812 49.617188 66.726562 C 48.53125 65.320312 47.894531 62.957031 47.507812 61.167969 C 47.191406 59.699219 47 57.972656 47.316406 56.886719 C 47.507812 56.121094 48.019531 55.546875 48.53125 55.160156 C 48.914062 54.84375 49.363281 54.714844 49.875 54.648438 C 50.449219 54.648438 51.40625 54.714844 51.917969 55.160156 C 52.558594 55.671875 53.132812 56.824219 53.195312 57.652344 C 53.261719 58.355469 52.878906 59.125 52.429688 59.636719 C 52.046875 60.144531 51.214844 60.53125 50.578125 60.59375 C 49.9375 60.722656 49.042969 60.464844 48.53125 60.144531 C 47.957031 59.761719 47.636719 59.316406 47.316406 58.355469 C 46.359375 55.546875 45.082031 42.828125 46.167969 40.273438 C 46.488281 39.378906 47.125 39.058594 47.703125 38.800781 C 48.148438 38.609375 48.597656 38.546875 49.105469 38.609375 C 49.746094 38.738281 50.578125 39.058594 51.023438 39.570312 C 51.472656 40.015625 51.792969 40.847656 51.792969 41.550781 C 51.855469 42.316406 51.214844 42.957031 50.960938 44.171875 C 50.511719 46.789062 50.894531 53.820312 50.386719 56.886719 C 50.066406 58.738281 49.683594 60.082031 49.042969 61.105469 C 48.660156 61.808594 48.210938 62.382812 47.574219 62.636719 C 46.871094 62.957031 45.527344 62.957031 44.824219 62.511719 C 44.058594 62.0625 43.292969 60.65625 43.292969 59.828125 C 43.292969 58.933594 43.929688 57.78125 44.632812 57.335938 C 45.335938 56.886719 46.679688 56.757812 47.445312 57.078125 C 48.210938 57.398438 48.980469 58.421875 49.234375 59.25 C 49.492188 60.082031 49.300781 61.039062 48.851562 62.0625 C 48.277344 63.46875 46.679688 65.515625 45.210938 66.664062 C 43.738281 67.816406 41.757812 68.773438 40.222656 69.15625 C 39.011719 69.476562 37.859375 69.539062 36.835938 69.285156 C 35.816406 69.09375 34.792969 68.453125 34.089844 67.75 C 33.386719 67.046875 33.003906 66.28125 32.683594 65.257812 C 32.238281 63.851562 32.109375 61.550781 32.109375 59.761719 C 32.109375 57.910156 32.171875 56.3125 32.683594 54.265625 C 33.449219 51.390625 35.175781 46.535156 36.964844 44.171875 C 38.242188 42.507812 39.777344 41.359375 41.3125 40.589844 C 42.652344 39.953125 44.441406 39.570312 45.464844 39.695312 C 46.167969 39.761719 46.742188 40.082031 47.125 40.527344 C 47.507812 40.976562 47.765625 41.679688 47.765625 42.253906 C 47.828125 42.828125 47.507812 43.53125 47.125 43.976562 C 46.742188 44.425781 45.527344 44.875 45.527344 44.875 " clip-rule="nonzero"/></clipPath><clipPath id="8730c20d2c"><path d="M 62.636719 36.421875 L 88.800781 36.421875 L 88.800781 70 L 62.636719 70 Z M 62.636719 36.421875 " clip-rule="nonzero"/></clipPath><clipPath id="7ff69e5531"><path d="M 70.132812 39.503906 C 67.957031 47.367188 66.488281 47.558594 65.722656 47.367188 C 65.148438 47.238281 64.570312 46.664062 64.253906 46.152344 C 63.996094 45.640625 63.867188 44.296875 63.996094 44.234375 C 64.1875 44.171875 65.660156 47.238281 65.53125 47.300781 C 65.464844 47.300781 64.125 46.023438 63.996094 45.320312 C 63.804688 44.679688 63.933594 43.914062 64.316406 43.402344 C 64.699219 42.828125 65.785156 42.253906 66.425781 42.125 C 66.9375 41.996094 67.320312 42.0625 67.703125 42.316406 C 68.34375 42.765625 69.046875 43.851562 69.300781 45.128906 C 69.875 47.621094 68.277344 53.246094 68.46875 56.3125 C 68.597656 58.484375 68.726562 61.105469 69.621094 61.871094 C 70.257812 62.382812 71.34375 62.0625 72.175781 62.0625 C 73.070312 62 74.03125 62.191406 74.925781 61.679688 C 76.203125 60.976562 77.542969 59.441406 78.566406 57.207031 C 80.484375 53.179688 80.484375 40.785156 82.335938 38.097656 C 82.976562 37.140625 83.808594 36.695312 84.636719 36.628906 C 85.40625 36.566406 86.617188 37.140625 87.128906 37.714844 C 87.578125 38.226562 87.640625 38.738281 87.769531 39.695312 C 88.089844 41.933594 87.195312 47.109375 87.195312 51.261719 C 87.320312 56.246094 89.367188 64.746094 88.472656 67.558594 C 88.089844 68.710938 87.449219 69.410156 86.683594 69.730469 C 85.914062 70.050781 84.574219 69.921875 83.871094 69.476562 C 83.167969 69.027344 82.527344 67.816406 82.527344 66.984375 C 82.464844 66.152344 83.105469 64.9375 83.808594 64.492188 C 84.445312 63.980469 85.789062 63.851562 86.617188 64.109375 C 87.386719 64.425781 88.28125 65.449219 88.472656 66.28125 C 88.664062 67.046875 88.214844 68.390625 87.703125 68.964844 C 87.320312 69.476562 86.617188 69.796875 86.042969 69.921875 C 85.46875 70.050781 84.703125 69.921875 84.125 69.605469 C 83.613281 69.347656 83.105469 68.902344 82.785156 68.261719 C 82.335938 67.429688 82.273438 66.34375 82.082031 64.875 C 81.699219 61.808594 81.441406 55.609375 81.441406 51.261719 C 81.441406 47.171875 81.25 41.871094 81.890625 39.441406 C 82.273438 38.289062 82.65625 37.523438 83.296875 37.078125 C 83.808594 36.695312 84.703125 36.566406 85.339844 36.695312 C 85.980469 36.820312 86.746094 37.269531 87.128906 37.714844 C 87.449219 38.097656 87.640625 38.417969 87.703125 38.992188 C 87.960938 40.144531 87.640625 42.253906 87.386719 44.425781 C 87.003906 47.8125 86.042969 53.949219 84.957031 57.269531 C 84.191406 59.441406 83.550781 60.976562 82.402344 62.574219 C 81.1875 64.234375 79.207031 66.21875 77.734375 67.046875 C 76.714844 67.621094 75.882812 67.6875 74.734375 67.816406 C 73.070312 68.007812 70.132812 68.070312 68.597656 67.6875 C 67.574219 67.496094 66.871094 67.113281 66.167969 66.664062 C 65.464844 66.152344 64.828125 65.515625 64.378906 64.8125 C 63.867188 64.109375 63.613281 63.214844 63.484375 62.320312 C 63.359375 61.359375 63.933594 60.273438 63.804688 59.316406 C 63.675781 58.421875 62.910156 57.972656 62.78125 56.757812 C 62.398438 54.265625 63.101562 44.875 63.933594 44.679688 C 64.316406 44.617188 65.59375 47.238281 65.53125 47.300781 C 65.464844 47.300781 64.445312 46.46875 64.1875 45.960938 C 63.933594 45.382812 63.867188 44.617188 64.0625 44.042969 C 64.1875 43.46875 64.699219 42.828125 65.210938 42.507812 C 65.722656 42.1875 66.554688 41.871094 67.128906 42.125 C 67.957031 42.507812 69.429688 44.488281 69.300781 45.449219 C 69.171875 46.277344 67.832031 47.429688 67 47.492188 C 66.167969 47.621094 64.761719 47.046875 64.253906 46.152344 C 63.484375 44.746094 64.378906 40.273438 65.019531 38.609375 C 65.339844 37.714844 65.851562 37.011719 66.425781 36.695312 C 67 36.4375 67.765625 36.375 68.277344 36.566406 C 68.851562 36.757812 69.492188 37.203125 69.75 37.652344 C 70.066406 38.164062 70.132812 39.503906 70.132812 39.503906 " clip-rule="nonzero"/></clipPath><clipPath id="e6911b2836"><path d="M 95.761719 36.121094 L 127.515625 36.121094 L 127.515625 71 L 95.761719 71 Z M 95.761719 36.121094 " clip-rule="nonzero"/></clipPath><clipPath id="79b38912b1"><path d="M 101.0625 38.675781 C 103.425781 50.816406 103.488281 57.269531 102.914062 59.828125 C 102.59375 60.914062 102.273438 61.679688 101.699219 62.128906 C 101.253906 62.574219 100.421875 62.703125 99.78125 62.636719 C 99.207031 62.574219 98.441406 62.191406 97.992188 61.742188 C 97.609375 61.296875 97.035156 60.335938 97.289062 59.890625 C 97.675781 59.1875 101.890625 58.355469 102.785156 59.1875 C 103.617188 59.953125 103.296875 64.042969 102.402344 64.8125 C 101.699219 65.515625 99.464844 65.257812 98.695312 64.683594 C 98.058594 64.171875 97.992188 62.957031 97.929688 62 C 97.800781 60.914062 98.058594 60.082031 98.3125 58.546875 C 98.761719 55.480469 100.167969 48.386719 101.125 45 C 101.699219 42.957031 102.019531 41.230469 102.914062 40.082031 C 103.554688 39.121094 104.382812 38.675781 105.40625 38.097656 C 106.8125 37.332031 108.730469 36.375 110.710938 36.246094 C 113.203125 36.183594 117.484375 37.523438 119.335938 38.484375 C 120.421875 39.121094 121 39.695312 121.574219 40.527344 C 122.214844 41.292969 122.46875 42.0625 122.914062 43.148438 C 123.617188 44.746094 124.578125 47.171875 125.152344 49.15625 C 125.726562 51.136719 126.238281 52.859375 126.429688 55.097656 C 126.621094 58.039062 125.023438 63.46875 125.726562 65.195312 C 125.984375 65.960938 126.8125 66.023438 127.070312 66.535156 C 127.324219 67.113281 127.515625 67.816406 127.324219 68.453125 C 127.132812 69.21875 126.367188 70.308594 125.601562 70.691406 C 124.832031 71.007812 123.492188 70.882812 122.789062 70.433594 C 122.085938 70.050781 121.382812 68.835938 121.382812 68.007812 C 121.316406 67.175781 121.957031 65.960938 122.597656 65.449219 C 123.300781 65.003906 124.640625 64.8125 125.40625 65.066406 C 126.175781 65.320312 127.070312 66.34375 127.324219 67.175781 C 127.515625 67.941406 127.199219 69.285156 126.621094 69.921875 C 126.109375 70.5 124.960938 71.074219 124.003906 70.882812 C 122.722656 70.691406 120.617188 69.15625 119.847656 67.304688 C 118.570312 64.363281 120.742188 57.015625 120.296875 53.5625 C 120.039062 51.390625 119.464844 50.050781 118.761719 48.386719 C 117.929688 46.664062 117.101562 44.617188 115.632812 43.402344 C 114.226562 42.125 110.007812 41.230469 110.070312 40.910156 C 110.136719 40.71875 113.714844 41.039062 113.714844 41.292969 C 113.777344 41.550781 109.625 41.230469 108.152344 42.636719 C 105.726562 45.066406 105.152344 53.691406 104.320312 58.230469 C 103.679688 61.617188 104 65.195312 103.167969 67.238281 C 102.59375 68.582031 101.890625 69.730469 100.933594 70.050781 C 99.972656 70.371094 98.058594 69.796875 97.355469 69.09375 C 96.714844 68.453125 96.714844 67.304688 96.652344 66.152344 C 96.585938 64.621094 96.394531 61.617188 97.417969 60.53125 C 98.503906 59.507812 102.464844 59.25 102.914062 59.828125 C 103.167969 60.144531 102.660156 61.234375 102.210938 61.679688 C 101.828125 62.128906 101.125 62.574219 100.484375 62.636719 C 99.847656 62.703125 99.015625 62.574219 98.503906 62.191406 C 97.992188 61.871094 97.609375 61.425781 97.355469 60.59375 C 96.652344 58.355469 97.992188 51.457031 97.609375 47.492188 C 97.355469 44.234375 95.628906 40.335938 95.882812 38.609375 C 96.011719 37.84375 96.332031 37.332031 96.714844 37.011719 C 97.164062 36.628906 97.929688 36.308594 98.503906 36.375 C 99.078125 36.375 99.78125 36.628906 100.230469 37.011719 C 100.613281 37.394531 101.0625 38.675781 101.0625 38.675781 " clip-rule="nonzero"/></clipPath><clipPath id="7dedb07e71"><path d="M 129.105469 33.574219 L 146.292969 33.574219 L 146.292969 69.589844 L 129.105469 69.589844 Z M 129.105469 33.574219 " clip-rule="nonzero"/></clipPath><clipPath id="5db17b6e7f"><path d="M 140.234375 38.675781 C 136.015625 41.421875 135.886719 41.933594 135.632812 43.082031 C 135.058594 45.894531 134.164062 54.140625 135.058594 57.589844 C 135.632812 59.636719 136.527344 61.296875 137.933594 62.253906 C 139.46875 63.277344 142.855469 62.636719 144.195312 63.214844 C 144.960938 63.53125 145.410156 63.851562 145.730469 64.363281 C 146.050781 64.875 146.242188 65.578125 146.242188 66.21875 C 146.175781 66.792969 145.921875 67.496094 145.539062 68.007812 C 145.15625 68.453125 144.515625 68.835938 143.875 68.964844 C 143.300781 69.09375 142.535156 69.09375 142.023438 68.773438 C 141.320312 68.390625 140.425781 67.367188 140.296875 66.535156 C 140.167969 65.707031 140.617188 64.425781 141.191406 63.851562 C 141.832031 63.339844 143.109375 63.023438 143.875 63.148438 C 144.515625 63.214844 145.15625 63.597656 145.539062 64.109375 C 145.984375 64.746094 146.367188 66.023438 146.113281 66.855469 C 145.921875 67.621094 145.21875 68.453125 144.195312 68.902344 C 142.597656 69.605469 138.253906 69.730469 136.464844 69.15625 C 135.378906 68.773438 134.800781 68.007812 134.164062 67.304688 C 133.523438 66.601562 132.949219 65.769531 132.691406 64.875 C 132.375 63.980469 132.886719 62.703125 132.4375 61.933594 C 131.988281 61.105469 130.519531 60.847656 130.007812 60.019531 C 129.433594 59.125 129.371094 58.164062 129.242188 56.695312 C 128.988281 53.882812 129.179688 47.75 129.625 44.617188 C 129.945312 42.574219 130.394531 40.976562 130.96875 39.632812 C 131.414062 38.609375 131.796875 37.90625 132.4375 37.203125 C 133.078125 36.375 133.84375 35.671875 134.867188 35.097656 C 136.207031 34.394531 138.765625 33.433594 139.976562 33.625 C 140.679688 33.691406 141.191406 34.136719 141.574219 34.585938 C 141.894531 35.03125 142.214844 35.734375 142.085938 36.375 C 141.960938 37.140625 140.234375 38.675781 140.234375 38.675781 " clip-rule="nonzero"/></clipPath><clipPath id="f30fb386b1"><path d="M 139.679688 32.84375 L 144.710938 32.84375 L 144.710938 37.875 L 139.679688 37.875 Z M 139.679688 32.84375 " clip-rule="nonzero"/></clipPath><clipPath id="708da83659"><path d="M 144.707031 34.585938 C 144.578125 36.375 143.941406 37.394531 143.300781 37.714844 C 142.664062 37.972656 141.511719 37.78125 140.9375 37.523438 C 140.554688 37.332031 140.296875 37.011719 140.042969 36.695312 C 139.851562 36.308594 139.660156 35.925781 139.722656 35.480469 C 139.722656 34.902344 140.105469 33.753906 140.679688 33.371094 C 141.257812 32.921875 142.40625 32.796875 142.980469 32.921875 C 143.429688 32.988281 144.066406 33.5625 144.066406 33.5625 " clip-rule="nonzero"/></clipPath><clipPath id="a4ebcf3101"><path d="M 147.070312 11.496094 L 170.351562 11.496094 L 170.351562 69.972656 L 147.070312 69.972656 Z M 147.070312 11.496094 " clip-rule="nonzero"/></clipPath><clipPath id="3397f278ce"><path d="M 154.738281 14.136719 C 154.546875 23.527344 154.164062 23.785156 153.910156 25 C 153.398438 27.554688 153.207031 32.988281 153.015625 37.460938 C 152.757812 42.699219 152.632812 49.347656 152.695312 54.394531 C 152.824219 58.421875 154.613281 64.171875 153.335938 65.449219 C 152.566406 66.21875 150.394531 65.769531 149.5625 65.195312 C 148.796875 64.8125 148.414062 64.042969 148.15625 63.023438 C 147.710938 61.167969 148.285156 57.269531 148.859375 54.523438 C 149.5 51.773438 150.140625 48.324219 151.609375 46.535156 C 152.824219 45.128906 156.527344 44.425781 156.402344 44.042969 C 156.335938 43.785156 153.84375 44.425781 153.652344 44.042969 C 153.398438 43.660156 154.484375 42.445312 154.996094 41.742188 C 155.507812 41.101562 156.019531 40.464844 156.785156 39.953125 C 157.679688 39.25 159.148438 38.164062 160.234375 38.164062 C 161.128906 38.226562 161.769531 38.800781 162.664062 39.570312 C 164.132812 40.847656 166.625 43.339844 167.648438 46.023438 C 168.925781 49.347656 168.222656 54.777344 168.734375 58.421875 C 169.183594 61.296875 170.394531 64.425781 170.269531 66.089844 C 170.269531 66.917969 170.011719 67.429688 169.695312 67.941406 C 169.308594 68.390625 168.671875 68.835938 168.097656 69.027344 C 167.457031 69.15625 166.691406 69.15625 166.113281 68.902344 C 165.539062 68.710938 164.964844 68.261719 164.644531 67.6875 C 164.324219 66.984375 164.199219 65.578125 164.515625 64.8125 C 164.707031 64.234375 165.21875 63.660156 165.796875 63.40625 C 166.5625 63.085938 167.902344 63.023438 168.671875 63.40625 C 169.4375 63.789062 170.140625 65.003906 170.269531 65.769531 C 170.394531 66.410156 170.140625 67.113281 169.886719 67.6875 C 169.566406 68.199219 168.925781 68.710938 168.351562 68.902344 C 167.839844 69.15625 167.007812 69.15625 166.433594 69.027344 C 165.859375 68.835938 165.285156 68.582031 164.835938 67.941406 C 163.878906 66.601562 163.429688 63.023438 162.917969 60.082031 C 162.28125 56.441406 162.917969 50.6875 161.707031 47.8125 C 160.9375 45.894531 158.0625 44.042969 158.320312 43.660156 C 158.445312 43.402344 160.683594 43.851562 160.8125 44.363281 C 161.066406 45.128906 158.125 48.003906 156.785156 48.515625 C 155.828125 48.964844 153.972656 48.386719 153.972656 48.515625 C 153.972656 48.644531 156.59375 48.578125 156.914062 49.28125 C 157.425781 50.175781 155.570312 52.15625 154.996094 54.265625 C 154.164062 57.84375 155.058594 66.984375 153.207031 68.964844 C 152.3125 69.988281 150.394531 70.113281 149.4375 69.730469 C 148.605469 69.410156 148.09375 68.324219 147.648438 67.046875 C 146.878906 64.621094 147.199219 59.890625 147.199219 55.480469 C 147.136719 49.730469 147.261719 41.484375 147.648438 35.605469 C 148.03125 30.8125 147.964844 25 149.246094 22.632812 C 149.820312 21.484375 151.542969 20.527344 151.542969 20.527344 C 151.542969 20.527344 149.753906 22.632812 149.308594 22.441406 C 148.542969 22.058594 149.050781 15.15625 149.5625 13.496094 C 149.820312 12.730469 150.203125 12.28125 150.648438 11.960938 C 151.097656 11.644531 151.863281 11.453125 152.4375 11.515625 C 153.015625 11.578125 153.71875 11.960938 154.101562 12.410156 C 154.484375 12.855469 154.738281 14.136719 154.738281 14.136719 " clip-rule="nonzero"/></clipPath><clipPath id="c986e942bf"><path d="M 169.644531 32.472656 L 195.257812 32.472656 L 195.257812 67.925781 L 169.644531 67.925781 Z M 169.644531 32.472656 " clip-rule="nonzero"/></clipPath><clipPath id="11e4220f64"><path d="M 175.636719 39.058594 C 182.792969 38.609375 184.390625 35.925781 185.667969 35.992188 C 186.628906 36.054688 188.289062 37.589844 188.160156 38.097656 C 187.90625 38.738281 183.175781 38.226562 181.003906 38.675781 C 179.023438 39.058594 176.46875 39.121094 175.574219 40.398438 C 174.679688 41.742188 175.574219 44.296875 175.828125 46.664062 C 176.210938 49.730469 176.148438 55.035156 177.746094 57.335938 C 178.894531 58.996094 181.066406 59.570312 182.859375 60.335938 C 184.582031 61.039062 187.394531 60.976562 188.417969 61.871094 C 189.054688 62.445312 188.992188 64.109375 189.3125 64.042969 C 189.632812 64.042969 189.757812 62.0625 190.335938 61.488281 C 190.78125 61.039062 191.484375 60.847656 192.058594 60.785156 C 192.636719 60.785156 193.335938 60.976562 193.847656 61.296875 C 194.359375 61.617188 194.808594 62.191406 195 62.765625 C 195.191406 63.339844 195.191406 64.042969 195 64.621094 C 194.808594 65.195312 194.425781 65.832031 193.914062 66.152344 C 193.273438 66.535156 191.933594 66.726562 191.164062 66.472656 C 190.398438 66.152344 189.566406 65.195312 189.375 64.363281 C 189.183594 63.597656 189.566406 62.320312 190.078125 61.742188 C 190.652344 61.167969 191.867188 60.722656 192.699219 60.847656 C 193.464844 60.976562 194.488281 61.933594 194.871094 62.445312 C 195.0625 62.765625 195.253906 63.023438 195.128906 63.40625 C 194.808594 64.363281 191.355469 67.046875 189.824219 67.621094 C 188.863281 68.007812 188.289062 67.878906 187.203125 67.6875 C 185.222656 67.367188 181.453125 66.023438 179.152344 64.9375 C 177.296875 64.042969 175.574219 63.023438 174.421875 62 C 173.589844 61.234375 173.144531 60.847656 172.570312 59.636719 C 171.417969 56.949219 170.269531 49.347656 169.949219 45.511719 C 169.695312 42.890625 169.4375 40.527344 169.949219 38.929688 C 170.269531 37.78125 170.84375 37.011719 171.738281 36.246094 C 172.886719 35.222656 174.742188 34.394531 176.785156 33.753906 C 179.535156 32.921875 184.457031 32.347656 186.949219 32.539062 C 188.417969 32.605469 189.757812 32.730469 190.460938 33.5 C 191.230469 34.394531 191.292969 36.566406 190.972656 37.78125 C 190.71875 38.867188 189.886719 39.695312 188.929688 40.527344 C 187.714844 41.679688 185.351562 42.957031 183.945312 43.59375 C 182.921875 44.042969 182.410156 44.296875 181.261719 44.363281 C 179.535156 44.617188 175.636719 44.875 174.292969 43.976562 C 173.464844 43.402344 172.953125 42.0625 173.015625 41.292969 C 173.015625 40.71875 173.464844 40.082031 173.910156 39.695312 C 174.359375 39.3125 175.636719 39.058594 175.636719 39.058594 " clip-rule="nonzero"/></clipPath><clipPath id="e4c1505768"><path d="M 194.914062 30 L 218.671875 30 L 218.671875 70.886719 L 194.914062 70.886719 Z M 194.914062 30 " clip-rule="nonzero"/></clipPath><clipPath id="1e6a11e549"><path d="M 213.5625 39.75 C 208.390625 36.898438 204.941406 36.152344 203.589844 36.824219 C 202.765625 37.351562 202.390625 38.625 202.167969 39.597656 C 202.015625 40.5 202.167969 41.699219 202.542969 42.597656 C 202.992188 43.421875 203.742188 44.320312 204.789062 44.847656 C 206.289062 45.519531 209.363281 44.921875 211.011719 45.445312 C 212.210938 45.820312 213.1875 46.421875 214.011719 47.09375 C 214.910156 47.769531 215.585938 48.667969 216.183594 49.570312 C 216.859375 50.46875 217.910156 52.34375 217.757812 52.417969 C 217.609375 52.566406 216.335938 51.292969 216.335938 51.367188 C 216.257812 51.367188 217.757812 52.492188 218.058594 53.242188 C 218.359375 53.992188 218.359375 55.039062 218.132812 55.789062 C 217.832031 56.539062 217.234375 57.363281 216.484375 57.738281 C 215.585938 58.113281 213.109375 57.964844 213.109375 57.8125 C 213.109375 57.589844 216.109375 56.164062 217.007812 56.539062 C 217.757812 56.988281 218.132812 58.789062 218.132812 59.839844 C 218.132812 60.8125 217.683594 61.636719 217.160156 62.6875 C 216.410156 64.261719 215.058594 67.109375 213.785156 68.234375 C 212.886719 69.058594 211.910156 69.28125 210.9375 69.65625 C 209.886719 70.109375 208.6875 70.558594 207.640625 70.707031 C 206.589844 70.855469 205.617188 70.855469 204.566406 70.558594 C 203.589844 70.332031 202.390625 69.808594 201.566406 69.132812 C 200.742188 68.535156 199.992188 67.632812 199.542969 66.808594 C 199.167969 65.984375 199.46875 64.933594 198.945312 64.261719 C 198.34375 63.4375 196.546875 63.285156 196.019531 62.535156 C 195.496094 61.863281 195.421875 60.960938 195.421875 60.210938 C 195.496094 59.464844 195.871094 58.640625 196.394531 58.113281 C 196.917969 57.589844 197.746094 57.066406 198.417969 56.988281 C 199.167969 56.839844 200.066406 56.914062 200.742188 57.289062 C 201.566406 57.8125 202.617188 59.089844 202.765625 60.136719 C 202.839844 61.113281 202.167969 62.613281 201.492188 63.285156 C 200.96875 63.886719 200.066406 64.1875 199.394531 64.1875 C 198.644531 64.261719 197.746094 64.035156 197.070312 63.660156 C 196.46875 63.210938 195.871094 62.460938 195.644531 61.785156 C 195.421875 61.113281 195.421875 60.136719 195.644531 59.464844 C 195.871094 58.789062 196.394531 57.964844 196.996094 57.589844 C 197.59375 57.140625 198.269531 56.765625 199.242188 56.914062 C 201.269531 57.289062 206.066406 64.1875 208.089844 63.8125 C 209.589844 63.511719 210.636719 60.0625 211.085938 58.488281 C 211.386719 57.363281 210.863281 56.390625 211.085938 55.492188 C 211.3125 54.441406 211.613281 53.242188 212.4375 52.566406 C 213.261719 51.816406 215.359375 50.992188 216.335938 51.367188 C 217.234375 51.667969 218.132812 53.089844 218.285156 54.066406 C 218.433594 55.039062 217.910156 56.539062 217.160156 57.214844 C 216.410156 57.890625 214.835938 58.1875 213.9375 58.039062 C 213.1875 57.964844 212.660156 57.589844 212.136719 57.066406 C 211.386719 56.316406 211.460938 54.589844 210.335938 53.691406 C 208.539062 52.191406 203.214844 51.96875 201.191406 50.917969 C 199.992188 50.316406 199.46875 49.792969 198.570312 48.894531 C 197.445312 47.695312 195.796875 45.671875 195.269531 43.796875 C 194.746094 41.847656 194.972656 39.300781 195.570312 37.351562 C 196.171875 35.476562 197.667969 33.300781 198.792969 32.179688 C 199.695312 31.277344 200.367188 30.828125 201.492188 30.453125 C 203.140625 30.003906 205.765625 29.855469 207.863281 30.152344 C 210.039062 30.527344 212.4375 31.429688 214.160156 32.476562 C 215.734375 33.300781 217.382812 34.652344 218.058594 35.699219 C 218.507812 36.449219 218.660156 37.125 218.582031 37.800781 C 218.507812 38.472656 218.132812 39.300781 217.609375 39.75 C 217.085938 40.199219 216.257812 40.5 215.585938 40.5 C 214.910156 40.5 213.5625 39.75 213.5625 39.75 " clip-rule="nonzero"/></clipPath><clipPath id="989b31c77a"><path d="M 198.867188 4.40625 L 222.21875 4.40625 L 222.21875 27.640625 L 198.867188 27.640625 Z M 198.867188 4.40625 " clip-rule="nonzero"/></clipPath><clipPath id="8b2f3401db"><path d="M 202.542969 11.1875 C 210.039062 9.914062 210.1875 5.941406 211.011719 5.042969 C 211.3125 4.59375 211.6875 4.441406 212.0625 4.441406 C 212.511719 4.367188 213.109375 4.519531 213.5625 4.96875 C 214.683594 6.015625 216.785156 11.863281 216.257812 12.539062 C 216.035156 12.761719 214.761719 12.386719 214.683594 12.238281 C 214.683594 12.011719 215.734375 11.5625 216.410156 11.488281 C 217.308594 11.339844 218.734375 11.488281 219.707031 11.863281 C 220.683594 12.238281 222.03125 12.761719 222.179688 13.664062 C 222.480469 15.238281 218.285156 21.160156 217.007812 21.234375 C 216.335938 21.234375 215.285156 19.285156 215.433594 19.136719 C 215.585938 18.984375 217.382812 19.960938 218.132812 20.632812 C 218.882812 21.308594 219.558594 22.28125 219.933594 23.183594 C 220.308594 24.15625 220.53125 25.429688 220.308594 26.179688 C 220.082031 26.78125 219.558594 27.457031 218.882812 27.53125 C 217.910156 27.753906 215.886719 26.707031 214.386719 25.882812 C 212.585938 24.90625 208.839844 22.433594 208.988281 22.058594 C 209.0625 21.910156 210.414062 21.832031 210.488281 22.132812 C 210.636719 22.582031 207.863281 24.980469 206.890625 25.730469 C 206.289062 26.257812 205.839844 26.554688 205.316406 26.707031 C 204.714844 26.78125 203.816406 26.707031 203.367188 26.332031 C 202.917969 26.03125 202.691406 25.582031 202.617188 24.980469 C 202.542969 23.707031 203.816406 20.035156 204.867188 19.136719 C 205.539062 18.609375 206.738281 18.386719 207.1875 18.683594 C 207.714844 18.984375 208.238281 20.707031 208.015625 20.933594 C 207.640625 21.234375 204.640625 19.960938 204.640625 19.507812 C 204.640625 19.136719 206.214844 18.308594 206.816406 18.460938 C 207.414062 18.683594 208.3125 20.183594 208.089844 20.558594 C 207.863281 20.933594 204.941406 20.785156 204.492188 20.109375 C 204.117188 19.507812 205.015625 17.636719 205.539062 16.734375 C 205.988281 15.988281 206.664062 14.9375 207.339844 14.863281 C 208.015625 14.789062 209.214844 15.535156 209.363281 16.136719 C 209.589844 16.660156 209.214844 17.710938 208.761719 18.085938 C 208.164062 18.535156 206.738281 18.386719 205.765625 18.234375 C 204.640625 18.011719 203.441406 17.636719 202.316406 17.035156 C 201.117188 16.359375 199.320312 15.160156 199.019531 14.261719 C 198.792969 13.664062 199.019531 12.988281 199.320312 12.613281 C 199.695312 12.238281 200.441406 11.9375 200.894531 11.9375 C 201.417969 12.011719 202.09375 12.464844 202.316406 12.914062 C 202.542969 13.363281 202.617188 14.1875 202.316406 14.5625 C 201.941406 15.085938 200.367188 15.613281 199.84375 15.3125 C 199.320312 15.085938 198.867188 13.8125 199.019531 13.289062 C 199.167969 12.6875 199.917969 12.011719 200.742188 11.9375 C 202.09375 11.863281 205.164062 14.9375 206.589844 15.238281 C 207.265625 15.3125 207.789062 14.789062 208.238281 14.9375 C 208.613281 15.011719 209.0625 15.3125 209.214844 15.761719 C 209.511719 16.585938 208.988281 19.734375 208.164062 20.335938 C 207.339844 20.785156 204.714844 19.960938 204.640625 19.507812 C 204.566406 19.285156 205.464844 18.609375 205.988281 18.460938 C 206.363281 18.386719 206.890625 18.386719 207.265625 18.683594 C 207.640625 19.058594 208.238281 20.707031 208.015625 20.933594 C 207.640625 21.234375 204.714844 20.035156 204.640625 19.507812 C 204.640625 19.136719 205.839844 18.386719 206.363281 18.386719 C 206.964844 18.460938 207.863281 18.984375 208.015625 19.660156 C 208.3125 20.632812 206.890625 24.230469 206.140625 24.382812 C 205.691406 24.457031 204.566406 23.484375 204.566406 22.882812 C 204.640625 21.910156 208.238281 19.359375 209.589844 19.136719 C 210.414062 18.984375 210.9375 19.285156 211.761719 19.660156 C 213.410156 20.484375 218.207031 23.855469 218.058594 24.605469 C 217.984375 24.90625 217.007812 25.207031 216.484375 24.980469 C 215.511719 24.605469 213.410156 21.234375 213.636719 19.585938 C 213.859375 17.859375 218.132812 15.085938 218.058594 14.9375 C 217.984375 14.863281 216.785156 15.835938 216.710938 15.761719 C 216.632812 15.613281 217.234375 14.710938 217.683594 14.335938 C 218.058594 13.960938 218.660156 13.363281 219.03125 13.4375 C 219.40625 13.585938 220.082031 15.238281 219.859375 15.460938 C 219.484375 15.835938 215.734375 13.738281 215.660156 13.886719 C 215.585938 13.960938 217.160156 14.710938 217.085938 14.9375 C 217.007812 15.3125 214.910156 15.6875 214.160156 15.386719 C 213.484375 15.160156 213.1875 14.488281 212.738281 13.585938 C 211.910156 12.011719 210.261719 7.214844 210.636719 5.792969 C 210.789062 5.117188 211.238281 4.667969 211.6875 4.519531 C 212.136719 4.367188 213.261719 4.519531 213.5625 4.96875 C 214.011719 5.492188 213.9375 6.617188 213.710938 7.664062 C 213.410156 9.238281 212.585938 12.3125 211.011719 13.4375 C 209.0625 14.789062 203.964844 14.9375 202.46875 14.261719 C 201.71875 13.960938 201.117188 13.214844 201.117188 12.6875 C 201.191406 12.164062 202.542969 11.1875 202.542969 11.1875 " clip-rule="nonzero"/></clipPath><clipPath id="a313a608cf"><path d="M 206.195312 13.277344 L 209.066406 13.277344 L 209.066406 15.714844 L 206.195312 15.714844 Z M 206.195312 13.277344 " clip-rule="nonzero"/></clipPath><clipPath id="809cda98c1"><path d="M 209.0625 14.113281 C 207.789062 16.136719 206.589844 15.761719 206.289062 15.386719 C 206.066406 14.9375 206.289062 13.738281 206.664062 13.4375 C 207.039062 13.0625 208.6875 13.511719 208.6875 13.511719 " clip-rule="nonzero"/></clipPath><clipPath id="09d795dbae"><path d="M 210.167969 13.277344 L 213.039062 13.277344 L 213.039062 15.714844 L 210.167969 15.714844 Z M 210.167969 13.277344 " clip-rule="nonzero"/></clipPath><clipPath id="66766dcc58"><path d="M 213.035156 14.113281 C 211.761719 16.136719 210.5625 15.761719 210.261719 15.386719 C 210.039062 14.9375 210.261719 13.738281 210.636719 13.4375 C 211.011719 13.0625 212.660156 13.511719 212.660156 13.511719 " clip-rule="nonzero"/></clipPath><clipPath id="fc63964125"><path d="M 209.042969 15.257812 L 211.847656 15.257812 L 211.847656 17.695312 L 209.042969 17.695312 Z M 209.042969 15.257812 " clip-rule="nonzero"/></clipPath><clipPath id="a639dbf7c6"><path d="M 211.835938 16.136719 C 210.5625 18.160156 209.363281 17.785156 209.136719 17.335938 C 208.914062 16.960938 209.136719 15.6875 209.511719 15.386719 C 209.886719 15.085938 211.460938 15.535156 211.460938 15.535156 " clip-rule="nonzero"/></clipPath><clipPath id="fffd29620d"><path d="M 208.902344 18.257812 L 211.773438 18.257812 L 211.773438 20.695312 L 208.902344 20.695312 Z M 208.902344 18.257812 " clip-rule="nonzero"/></clipPath><clipPath id="bcdd297a9e"><path d="M 211.761719 19.136719 C 210.488281 21.160156 209.289062 20.785156 209.0625 20.335938 C 208.761719 19.960938 208.988281 18.683594 209.4375 18.386719 C 209.8125 18.085938 211.386719 18.535156 211.386719 18.535156 " clip-rule="nonzero"/></clipPath><clipPath id="f38a10c77d"><path d="M 212.414062 17.3125 L 215.460938 17.3125 L 215.460938 20.359375 L 212.414062 20.359375 Z M 212.414062 17.3125 " clip-rule="nonzero"/></clipPath><clipPath id="dd2d7f638a"><path d="M 213.9375 17.335938 C 215.433594 18.308594 215.511719 18.984375 215.359375 19.359375 C 215.210938 19.734375 214.683594 20.183594 214.234375 20.257812 C 213.859375 20.335938 213.1875 20.183594 212.886719 19.882812 C 212.585938 19.585938 212.363281 18.984375 212.4375 18.535156 C 212.511719 18.160156 212.960938 17.636719 213.335938 17.410156 C 213.710938 17.261719 214.386719 17.335938 214.683594 17.484375 C 215.058594 17.710938 215.511719 18.308594 215.433594 18.761719 C 215.359375 19.210938 214.460938 20.257812 213.9375 20.335938 C 213.484375 20.335938 212.4375 19.507812 212.4375 18.984375 C 212.363281 18.460938 213.9375 17.335938 213.9375 17.335938 " clip-rule="nonzero"/></clipPath><clipPath id="8620741327"><path d="M 212.789062 15.363281 L 215.835938 15.363281 L 215.835938 18.410156 L 212.789062 18.410156 Z M 212.789062 15.363281 " clip-rule="nonzero"/></clipPath><clipPath id="e8508b395e"><path d="M 212.8125 16.886719 C 213.859375 15.386719 214.535156 15.3125 214.910156 15.460938 C 215.285156 15.613281 215.734375 16.136719 215.808594 16.511719 C 215.886719 16.960938 215.734375 17.636719 215.433594 17.933594 C 215.136719 18.234375 214.460938 18.386719 214.085938 18.386719 C 213.710938 18.308594 213.109375 17.859375 212.960938 17.484375 C 212.8125 17.109375 212.8125 16.4375 213.035156 16.0625 C 213.261719 15.761719 213.859375 15.3125 214.234375 15.386719 C 214.761719 15.460938 215.808594 16.359375 215.808594 16.886719 C 215.808594 17.410156 214.683594 18.386719 214.160156 18.386719 C 213.710938 18.386719 212.8125 16.886719 212.8125 16.886719 " clip-rule="nonzero"/></clipPath><clipPath id="c8eb6a67e0"><path d="M 211.664062 13.640625 L 214.710938 13.640625 L 214.710938 16.6875 L 211.664062 16.6875 Z M 211.664062 13.640625 " clip-rule="nonzero"/></clipPath><clipPath id="e139236722"><path d="M 213.1875 16.660156 C 211.6875 15.613281 211.613281 14.9375 211.761719 14.5625 C 211.910156 14.1875 212.4375 13.738281 212.8125 13.664062 C 213.261719 13.585938 213.859375 13.738281 214.160156 14.039062 C 214.460938 14.335938 214.683594 14.9375 214.609375 15.386719 C 214.535156 15.761719 214.160156 16.285156 213.785156 16.511719 C 213.410156 16.660156 212.738281 16.660156 212.363281 16.4375 C 211.988281 16.210938 211.613281 15.613281 211.6875 15.238281 C 211.6875 14.710938 212.660156 13.664062 213.1875 13.664062 C 213.636719 13.664062 214.683594 14.789062 214.683594 15.3125 C 214.683594 15.761719 213.261719 16.660156 213.261719 16.660156 " clip-rule="nonzero"/></clipPath><clipPath id="23afd96d05"><path d="M 209.789062 16.414062 L 212.835938 16.414062 L 212.835938 19.460938 L 209.789062 19.460938 Z M 209.789062 16.414062 " clip-rule="nonzero"/></clipPath><clipPath id="186ed4d0dd"><path d="M 212.8125 17.933594 C 211.835938 19.433594 211.164062 19.507812 210.789062 19.285156 C 210.414062 19.136719 209.964844 18.683594 209.886719 18.234375 C 209.8125 17.859375 209.964844 17.1875 210.261719 16.886719 C 210.5625 16.585938 211.164062 16.359375 211.613281 16.4375 C 211.988281 16.511719 212.511719 16.886719 212.738281 17.261719 C 212.886719 17.636719 212.8125 18.308594 212.585938 18.683594 C 212.4375 19.058594 211.835938 19.433594 211.386719 19.433594 C 210.9375 19.359375 209.886719 18.460938 209.8125 17.933594 C 209.8125 17.410156 210.636719 16.4375 211.164062 16.4375 C 211.6875 16.359375 212.8125 17.859375 212.8125 17.859375 " clip-rule="nonzero"/></clipPath><clipPath id="7117988db7"><path d="M 209.339844 12.964844 L 212.386719 12.964844 L 212.386719 16.011719 L 209.339844 16.011719 Z M 209.339844 12.964844 " clip-rule="nonzero"/></clipPath><clipPath id="93496706e6"><path d="M 209.363281 14.488281 C 210.414062 12.988281 211.085938 12.914062 211.460938 13.0625 C 211.835938 13.214844 212.285156 13.738281 212.363281 14.1875 C 212.4375 14.5625 212.285156 15.238281 211.988281 15.535156 C 211.6875 15.835938 211.085938 16.0625 210.636719 15.988281 C 210.261719 15.910156 209.738281 15.460938 209.511719 15.085938 C 209.363281 14.710938 209.363281 14.039062 209.589844 13.738281 C 209.8125 13.363281 210.414062 12.914062 210.789062 12.988281 C 211.3125 13.0625 212.363281 13.960938 212.363281 14.488281 C 212.4375 14.9375 211.613281 15.988281 211.085938 15.988281 C 210.5625 16.0625 209.363281 14.488281 209.363281 14.488281 " clip-rule="nonzero"/></clipPath><clipPath id="0f52263208"><path d="M 212.867188 13.386719 L 215.738281 13.386719 L 215.738281 15.855469 L 212.867188 15.855469 Z M 212.867188 13.386719 " clip-rule="nonzero"/></clipPath><clipPath id="88887d7324"><path d="M 215.734375 14.261719 C 214.460938 16.285156 213.261719 15.910156 212.960938 15.535156 C 212.738281 15.085938 212.960938 13.886719 213.335938 13.511719 C 213.710938 13.214844 215.359375 13.664062 215.359375 13.664062 " clip-rule="nonzero"/></clipPath><clipPath id="42aaa4d99b"><path d="M 209.578125 17.738281 L 212.597656 17.738281 L 212.597656 20.726562 L 209.578125 20.726562 Z M 209.578125 17.738281 " clip-rule="nonzero"/></clipPath><clipPath id="dd131852b4"><path d="M 211.761719 20.558594 C 209.964844 20.335938 209.664062 19.734375 209.589844 19.359375 C 209.589844 18.910156 209.8125 18.308594 210.1875 18.085938 C 210.488281 17.785156 211.164062 17.710938 211.535156 17.785156 C 211.910156 17.933594 212.4375 18.386719 212.511719 18.835938 C 212.660156 19.210938 212.511719 19.882812 212.285156 20.183594 C 211.988281 20.484375 211.386719 20.785156 210.9375 20.707031 C 210.5625 20.707031 209.964844 20.335938 209.8125 19.960938 C 209.589844 19.507812 209.964844 18.160156 210.414062 17.859375 C 210.863281 17.636719 212.136719 17.933594 212.363281 18.386719 C 212.660156 18.761719 211.835938 20.558594 211.835938 20.558594 " clip-rule="nonzero"/></clipPath><clipPath id="90cf8ac56e"><path d="M 175.375 12.734375 L 194.757812 12.734375 L 194.757812 25.464844 L 175.375 25.464844 Z M 175.375 12.734375 " clip-rule="nonzero"/></clipPath><clipPath id="0f9cc74348"><path d="M 175.480469 23.78125 C 181.328125 16.585938 182.976562 15.613281 185.078125 14.789062 C 187.550781 13.8125 192.421875 12.238281 193.773438 12.914062 C 194.445312 13.214844 194.820312 14.488281 194.671875 14.789062 C 194.445312 15.160156 192.871094 15.238281 192.570312 14.9375 C 192.273438 14.636719 192.496094 13.363281 192.871094 13.136719 C 193.246094 12.914062 194.445312 13.136719 194.671875 13.511719 C 194.894531 13.886719 194.671875 14.789062 194.144531 15.238281 C 192.945312 16.4375 187.324219 16.511719 184.925781 17.636719 C 183.128906 18.460938 181.851562 19.433594 180.578125 20.707031 C 179.230469 21.984375 178.105469 24.980469 177.054688 25.355469 C 176.53125 25.582031 175.855469 25.355469 175.554688 25.132812 C 175.332031 24.832031 175.480469 23.78125 175.480469 23.78125 " clip-rule="nonzero"/></clipPath><clipPath id="08a868c794"><path d="M 179.96875 17.261719 L 195.167969 17.261719 L 195.167969 29.269531 L 179.96875 29.269531 Z M 179.96875 17.261719 " clip-rule="nonzero"/></clipPath><clipPath id="7914806bcb"><path d="M 180.054688 27.378906 C 186.050781 20.632812 188.523438 18.835938 190.472656 18.085938 C 191.824219 17.5625 193.621094 17.035156 194.296875 17.484375 C 194.746094 17.785156 195.046875 19.058594 194.820312 19.433594 C 194.597656 19.734375 193.320312 19.808594 193.023438 19.507812 C 192.722656 19.210938 193.023438 17.710938 193.398438 17.484375 C 193.695312 17.335938 194.820312 17.785156 195.046875 18.160156 C 195.195312 18.535156 195.046875 19.210938 194.671875 19.585938 C 193.996094 20.257812 191.972656 20.109375 190.699219 20.707031 C 189.199219 21.457031 187.625 22.582031 186.125 23.855469 C 184.476562 25.28125 182.601562 28.804688 181.402344 29.179688 C 180.878906 29.328125 180.355469 29.179688 180.128906 28.878906 C 179.828125 28.65625 180.054688 27.378906 180.054688 27.378906 " clip-rule="nonzero"/></clipPath><clipPath id="d105db58b3"><path d="M 187.671875 20.066406 L 200.882812 20.066406 L 200.882812 29.65625 L 187.671875 29.65625 Z M 187.671875 20.066406 " clip-rule="nonzero"/></clipPath><clipPath id="0ee7d234e2"><path d="M 187.773438 27.753906 C 192.347656 22.808594 194.445312 21.683594 196.171875 21.007812 C 197.519531 20.484375 199.320312 19.808594 200.066406 20.183594 C 200.519531 20.335938 200.894531 21.007812 200.816406 21.457031 C 200.816406 21.832031 200.144531 22.507812 199.84375 22.507812 C 199.394531 22.507812 198.34375 21.457031 198.417969 21.007812 C 198.417969 20.632812 199.542969 19.960938 199.917969 20.109375 C 200.292969 20.257812 200.816406 21.457031 200.59375 22.058594 C 200.066406 23.332031 194.820312 24.082031 192.796875 25.582031 C 191.222656 26.707031 190.097656 29.179688 189.125 29.554688 C 188.597656 29.703125 188.074219 29.554688 187.851562 29.253906 C 187.550781 29.03125 187.773438 27.753906 187.773438 27.753906 " clip-rule="nonzero"/></clipPath><clipPath id="41c54f0834"><path d="M 77.273438 1.890625 L 83.746094 1.890625 L 83.746094 15.691406 L 77.273438 15.691406 Z M 77.273438 1.890625 " clip-rule="nonzero"/></clipPath><clipPath id="4d3cf284e6"><path d="M 82.957031 3.71875 C 78.945312 4.5 80.039062 5.90625 80.089844 7.210938 C 80.195312 9.085938 79.726562 13.980469 79.207031 14.191406 C 79.050781 14.242188 78.582031 13.824219 78.632812 13.667969 C 78.683594 13.410156 82.332031 13.355469 83.0625 13.773438 C 83.476562 13.980469 83.738281 14.398438 83.6875 14.660156 C 83.632812 14.972656 83.007812 15.492188 82.695312 15.492188 C 82.488281 15.492188 82.125 15.285156 82.019531 15.023438 C 81.914062 14.765625 82.019531 14.191406 82.175781 13.980469 C 82.382812 13.824219 82.75 13.667969 83.007812 13.773438 C 83.269531 13.824219 83.6875 14.296875 83.6875 14.554688 C 83.6875 14.867188 83.425781 15.285156 83.113281 15.441406 C 82.539062 15.753906 81.289062 15.648438 80.351562 15.597656 C 79.464844 15.492188 78.113281 15.597656 77.589844 14.972656 C 77.019531 14.242188 77.382812 12.261719 77.488281 10.960938 C 77.644531 9.816406 78.214844 8.875 78.320312 7.679688 C 78.425781 6.324219 77.488281 4.136719 77.902344 3.25 C 78.164062 2.675781 78.789062 2.417969 79.414062 2.207031 C 80.351562 1.894531 82.226562 1.792969 82.957031 2.105469 C 83.375 2.3125 83.738281 2.730469 83.738281 2.988281 C 83.738281 3.25 82.957031 3.71875 82.957031 3.71875 " clip-rule="nonzero"/></clipPath><clipPath id="20210e4393"><path d="M 84.046875 4.855469 L 88.558594 4.855469 L 88.558594 12.386719 L 84.046875 12.386719 Z M 84.046875 4.855469 " clip-rule="nonzero"/></clipPath><clipPath id="73c9af3bed"><path d="M 85.457031 4.96875 C 85.09375 10.910156 86.03125 11.429688 86.707031 11.742188 C 87.28125 12.054688 88.53125 11.949219 88.53125 12.054688 C 88.53125 12.160156 87.074219 12.523438 86.449219 12.261719 C 85.613281 12.003906 84.570312 11.222656 84.207031 10.230469 C 83.789062 8.980469 84.46875 5.28125 84.988281 4.917969 C 85.09375 4.8125 85.457031 4.96875 85.457031 4.96875 " clip-rule="nonzero"/></clipPath><clipPath id="465f014f68"><path d="M 82.273438 6.632812 L 87.800781 6.632812 L 87.800781 7.371094 L 82.273438 7.371094 Z M 82.273438 6.632812 " clip-rule="nonzero"/></clipPath><clipPath id="f1fd4fdf41"><path d="M 82.382812 6.6875 C 87.957031 6.84375 87.75 7.15625 87.699219 7.15625 C 87.644531 7.15625 87.699219 6.636719 87.699219 6.636719 C 87.699219 6.636719 87.855469 7.054688 87.75 7.15625 C 87.488281 7.417969 86.136719 7.261719 85.300781 7.261719 C 84.363281 7.261719 82.59375 7.523438 82.332031 7.210938 C 82.175781 7.105469 82.382812 6.6875 82.382812 6.6875 " clip-rule="nonzero"/></clipPath><clipPath id="b317911c0f"><path d="M 89.636719 6.765625 L 94.445312 6.765625 L 94.445312 12.128906 L 89.636719 12.128906 Z M 89.636719 6.765625 " clip-rule="nonzero"/></clipPath><clipPath id="e070c192ae"><path d="M 91.292969 7.679688 C 90.144531 9.65625 89.988281 10.285156 90.199219 10.648438 C 90.457031 11.066406 91.292969 11.480469 91.8125 11.378906 C 92.492188 11.273438 93.6875 10.179688 93.84375 9.605469 C 93.949219 9.1875 93.792969 8.773438 93.480469 8.40625 C 92.960938 7.886719 90.71875 7.730469 90.511719 7.3125 C 90.457031 7.15625 90.71875 6.84375 90.71875 6.84375 C 90.71875 6.84375 90.5625 7.367188 90.5625 7.367188 C 90.5625 7.367188 90.511719 6.898438 90.667969 6.84375 C 90.980469 6.636719 92.074219 7 92.648438 7.261719 C 93.21875 7.523438 93.84375 7.886719 94.105469 8.304688 C 94.367188 8.617188 94.46875 9.03125 94.417969 9.398438 C 94.417969 9.867188 94.15625 10.386719 93.792969 10.804688 C 93.324219 11.324219 92.230469 11.949219 91.605469 12.054688 C 91.242188 12.160156 90.929688 12.105469 90.667969 11.949219 C 90.300781 11.792969 89.886719 11.429688 89.78125 11.011719 C 89.574219 10.441406 89.675781 9.449219 89.886719 8.824219 C 90.09375 8.199219 90.667969 7.3125 90.929688 7.3125 C 91.085938 7.3125 91.292969 7.679688 91.292969 7.679688 " clip-rule="nonzero"/></clipPath><clipPath id="850c1552f1"><path d="M 99.003906 5.023438 L 100.160156 5.023438 L 100.160156 12.523438 L 99.003906 12.523438 Z M 99.003906 5.023438 " clip-rule="nonzero"/></clipPath><clipPath id="20da057815"><path d="M 100.148438 5.125 C 99.574219 12.523438 99.210938 12.367188 99.210938 12.367188 C 99.210938 12.367188 99.734375 12.472656 99.734375 12.472656 C 99.734375 12.472656 99.367188 12.574219 99.210938 12.417969 C 98.742188 11.847656 99.160156 5.492188 99.679688 5.074219 C 99.785156 4.96875 100.148438 5.125 100.148438 5.125 " clip-rule="nonzero"/></clipPath><clipPath id="3deeb81a6f"><path d="M 97.410156 7.25 L 99.648438 7.25 L 99.648438 7.9375 L 97.410156 7.9375 Z M 97.410156 7.25 " clip-rule="nonzero"/></clipPath><clipPath id="fe49a2a545"><path d="M 97.492188 7.261719 C 102.128906 7.574219 97.855469 8.148438 97.492188 7.835938 C 97.335938 7.679688 97.492188 7.261719 97.492188 7.261719 " clip-rule="nonzero"/></clipPath><clipPath id="4d7cb7b9f0"><path d="M 101.519531 6.410156 L 106.488281 6.410156 L 106.488281 11.800781 L 101.519531 11.800781 Z M 101.519531 6.410156 " clip-rule="nonzero"/></clipPath><clipPath id="6c89b57648"><path d="M 101.972656 9.1875 C 104.371094 8.5625 104.527344 7.992188 104.421875 7.679688 C 104.371094 7.46875 104.109375 7.261719 103.898438 7.105469 C 103.691406 7 103.429688 6.898438 103.273438 6.949219 C 102.960938 7.054688 102.648438 7.625 102.492188 8.09375 C 102.285156 8.617188 101.972656 9.5 102.179688 9.972656 C 102.441406 10.542969 103.328125 11.011719 104.003906 11.167969 C 104.683594 11.324219 106.035156 10.648438 106.296875 10.910156 C 106.402344 11.011719 106.246094 11.429688 106.246094 11.429688 C 106.246094 11.429688 106.191406 10.910156 106.246094 10.910156 C 106.296875 10.855469 106.503906 11.167969 106.453125 11.324219 C 106.347656 11.585938 104.785156 11.898438 104.003906 11.742188 C 103.222656 11.585938 102.078125 10.910156 101.710938 10.285156 C 101.398438 9.710938 101.554688 8.824219 101.816406 8.199219 C 102.078125 7.523438 102.859375 6.480469 103.429688 6.429688 C 103.898438 6.324219 104.683594 6.949219 104.890625 7.367188 C 105.046875 7.730469 104.941406 8.304688 104.734375 8.667969 C 104.527344 9.085938 103.953125 9.398438 103.484375 9.554688 C 103.015625 9.761719 102.078125 9.867188 101.867188 9.65625 C 101.816406 9.554688 101.972656 9.1875 101.972656 9.1875 " clip-rule="nonzero"/></clipPath><clipPath id="ee9f9b23d9"><path d="M 107 5.535156 L 110.527344 5.535156 L 110.527344 12.527344 L 107 12.527344 Z M 107 5.535156 " clip-rule="nonzero"/></clipPath><clipPath id="abd9e8d435"><path d="M 108.015625 5.648438 C 107.597656 11.742188 107.339844 11.792969 107.234375 11.691406 C 106.972656 11.429688 107.859375 8.199219 108.535156 7.730469 C 109.007812 7.46875 109.839844 7.574219 110.152344 7.9375 C 110.570312 8.355469 110.414062 9.605469 110.464844 10.441406 C 110.464844 11.117188 110.621094 12.210938 110.359375 12.417969 C 110.257812 12.574219 109.890625 12.523438 109.890625 12.472656 C 109.890625 12.472656 110.414062 12.316406 110.414062 12.316406 C 110.414062 12.316406 109.996094 12.523438 109.839844 12.417969 C 109.527344 12.160156 110.152344 9.292969 109.839844 8.667969 C 109.632812 8.355469 109.320312 8.09375 109.058594 8.148438 C 108.589844 8.304688 108.171875 11.324219 107.753906 11.636719 C 107.546875 11.792969 107.339844 11.847656 107.234375 11.691406 C 106.816406 11.273438 107.078125 6.011719 107.546875 5.59375 C 107.703125 5.492188 108.015625 5.648438 108.015625 5.648438 " clip-rule="nonzero"/></clipPath><clipPath id="26d57450f9"><path d="M 114.457031 8.265625 L 121.039062 8.265625 L 121.039062 13.203125 L 114.457031 13.203125 Z M 114.457031 8.265625 " clip-rule="nonzero"/></clipPath><clipPath id="9a8fee5331"><path d="M 115.101562 8.355469 C 115.363281 12.210938 115.101562 12.316406 114.996094 12.261719 C 114.789062 12.054688 115.726562 8.773438 116.195312 8.460938 C 116.402344 8.304688 116.714844 8.40625 116.925781 8.5625 C 117.289062 8.773438 117.707031 9.605469 117.863281 10.179688 C 118.019531 10.753906 117.863281 12.003906 117.914062 12.003906 C 117.96875 12.003906 117.863281 9.554688 118.28125 9.03125 C 118.59375 8.667969 119.320312 8.460938 119.738281 8.5625 C 120.15625 8.667969 120.519531 9.242188 120.726562 9.761719 C 121.039062 10.542969 121.144531 12.628906 120.832031 13.042969 C 120.675781 13.199219 120.363281 13.253906 120.257812 13.097656 C 119.945312 12.886719 120.414062 10.910156 120.207031 10.179688 C 120.101562 9.710938 119.894531 9.292969 119.582031 9.136719 C 119.375 9.03125 119.007812 9.136719 118.75 9.34375 C 118.332031 9.710938 118.28125 11.949219 117.914062 12.003906 C 117.496094 12.054688 116.871094 9.03125 116.402344 9.03125 C 115.882812 9.085938 115.308594 12.316406 114.996094 12.261719 C 114.683594 12.210938 114.269531 8.667969 114.582031 8.355469 C 114.683594 8.199219 115.101562 8.355469 115.101562 8.355469 " clip-rule="nonzero"/></clipPath><clipPath id="2b13e70303"><path d="M 122.160156 7.464844 L 129.230469 7.464844 L 129.230469 12.804688 L 122.160156 12.804688 Z M 122.160156 7.464844 " clip-rule="nonzero"/></clipPath><clipPath id="f9b2e0eb9b"><path d="M 122.65625 9.449219 C 126.40625 9.292969 126.25 8.667969 125.9375 8.460938 C 125.519531 8.09375 123.800781 7.9375 123.28125 8.355469 C 122.8125 8.71875 122.605469 9.917969 122.761719 10.492188 C 122.96875 11.066406 123.542969 11.636719 124.269531 11.898438 C 125.363281 12.367188 128.648438 11.378906 129.117188 11.742188 C 129.21875 11.847656 129.21875 12.160156 129.167969 12.210938 C 129.117188 12.261719 128.699219 12.105469 128.699219 12.054688 C 128.699219 11.949219 129.0625 11.742188 129.167969 11.792969 C 129.21875 11.847656 129.21875 12.105469 129.117188 12.261719 C 128.960938 12.523438 128.125 12.679688 127.449219 12.785156 C 126.457031 12.835938 124.792969 12.785156 123.855469 12.367188 C 123.175781 12.054688 122.550781 11.535156 122.289062 10.855469 C 122.03125 10.128906 122.289062 8.667969 122.707031 8.09375 C 122.96875 7.730469 123.4375 7.574219 123.90625 7.523438 C 124.480469 7.417969 125.519531 7.523438 126.042969 7.835938 C 126.457031 8.042969 126.824219 8.511719 126.929688 8.875 C 126.980469 9.242188 126.875 9.761719 126.511719 9.972656 C 125.9375 10.441406 122.863281 10.285156 122.605469 9.917969 C 122.449219 9.816406 122.65625 9.449219 122.65625 9.449219 " clip-rule="nonzero"/></clipPath><clipPath id="42a7b37d12"><path d="M 128.4375 7.816406 L 135.507812 7.816406 L 135.507812 13.054688 L 128.4375 13.054688 Z M 128.4375 7.816406 " clip-rule="nonzero"/></clipPath><clipPath id="c6970d46fa"><path d="M 129.011719 7.9375 C 131.511719 12.417969 131.929688 8.199219 132.347656 8.09375 C 132.503906 8.042969 132.710938 8.199219 132.816406 8.460938 C 133.128906 9.03125 132.710938 11.949219 133.074219 12.054688 C 133.441406 12.160156 134.480469 9.136719 135.003906 8.980469 C 135.160156 8.929688 135.472656 9.085938 135.472656 9.136719 C 135.472656 9.242188 135.160156 9.449219 135.105469 9.449219 C 135.003906 9.398438 134.898438 9.03125 134.949219 8.980469 C 135.003906 8.929688 135.417969 9.136719 135.417969 9.292969 C 135.523438 9.816406 133.597656 12.730469 133.074219 12.628906 C 132.503906 12.523438 132.035156 8.5625 132.292969 8.355469 C 132.398438 8.25 132.660156 8.355469 132.710938 8.511719 C 132.917969 8.929688 131.980469 11.585938 131.511719 12.316406 C 131.25 12.679688 130.992188 13.097656 130.730469 13.042969 C 130.105469 12.941406 128.90625 10.128906 128.648438 9.136719 C 128.492188 8.617188 128.386719 8.042969 128.542969 7.886719 C 128.59375 7.78125 129.011719 7.9375 129.011719 7.9375 " clip-rule="nonzero"/></clipPath><clipPath id="6fc68937d9"><path d="M 136.992188 8.175781 L 141.4375 8.175781 L 141.4375 13.386719 L 136.992188 13.386719 Z M 136.992188 8.175781 " clip-rule="nonzero"/></clipPath><clipPath id="5984c3643f"><path d="M 137.609375 8.511719 C 137.921875 12.886719 137.710938 12.992188 137.609375 12.941406 C 137.347656 12.785156 137.296875 10.960938 137.453125 10.128906 C 137.554688 9.449219 137.921875 8.5625 138.335938 8.304688 C 138.597656 8.148438 138.960938 8.199219 139.328125 8.304688 C 139.796875 8.460938 140.628906 8.980469 140.941406 9.554688 C 141.308594 10.074219 141.359375 10.960938 141.410156 11.585938 C 141.410156 12.160156 141.410156 12.992188 141.203125 13.253906 C 141.097656 13.355469 140.839844 13.410156 140.734375 13.355469 C 140.683594 13.304688 140.734375 12.941406 140.785156 12.886719 C 140.890625 12.835938 141.253906 13.042969 141.203125 13.097656 C 141.203125 13.199219 140.785156 13.355469 140.683594 13.253906 C 140.367188 12.992188 141.097656 10.855469 140.683594 10.128906 C 140.316406 9.449219 139.117188 8.617188 138.597656 8.824219 C 137.972656 9.085938 137.867188 12.992188 137.609375 12.941406 C 137.347656 12.941406 136.773438 8.875 137.085938 8.511719 C 137.191406 8.40625 137.609375 8.511719 137.609375 8.511719 " clip-rule="nonzero"/></clipPath><clipPath id="4c5fb4feb1"><path d="M 139.609375 2.492188 L 145.9375 2.492188 L 145.9375 15.75 L 139.609375 15.75 Z M 139.609375 2.492188 " clip-rule="nonzero"/></clipPath><clipPath id="6ff1ce7ea6"><path d="M 141.097656 2.519531 C 145.164062 3.09375 145.527344 3.300781 145.734375 3.980469 C 146.359375 5.59375 145.371094 12.261719 144.640625 14.136719 C 144.328125 14.921875 143.910156 15.441406 143.496094 15.648438 C 143.183594 15.804688 142.972656 15.703125 142.609375 15.703125 C 142.035156 15.648438 140.683594 15.703125 140.160156 15.335938 C 139.847656 15.128906 139.585938 14.710938 139.640625 14.398438 C 139.640625 14.085938 140.109375 13.667969 140.421875 13.617188 C 140.628906 13.566406 141.046875 13.722656 141.203125 13.878906 C 141.410156 14.085938 141.515625 14.453125 141.464844 14.710938 C 141.359375 15.023438 140.890625 15.441406 140.578125 15.441406 C 140.265625 15.441406 139.742188 15.078125 139.640625 14.816406 C 139.585938 14.503906 139.742188 13.929688 140.054688 13.722656 C 140.527344 13.410156 142.140625 14.398438 142.871094 13.824219 C 144.171875 12.730469 145.578125 5.960938 144.589844 4.550781 C 143.910156 3.667969 141.253906 4.449219 140.628906 4.03125 C 140.367188 3.824219 140.210938 3.40625 140.265625 3.199219 C 140.316406 2.9375 141.097656 2.519531 141.097656 2.519531 " clip-rule="nonzero"/></clipPath><clipPath id="d1db2d2f11"><path d="M 0 0.0195312 L 224.761719 0.0195312 L 224.761719 74.980469 L 0 74.980469 Z M 0 0.0195312 " clip-rule="nonzero"/></clipPath><clipPath id="bb4b24b5ad"><path d="M 2.847656 0.996094 C 1.199219 32.402344 -1.050781 31.878906 -1.050781 32.101562 C -1.050781 32.253906 1.125 32.402344 1.125 32.476562 C 1.125 32.550781 -0.148438 32.925781 -0.75 32.628906 C -1.425781 32.328125 -2.546875 31.203125 -2.625 30.378906 C -2.699219 29.554688 -1.875 27.980469 -1.125 27.832031 C -0.226562 27.605469 1.800781 28.878906 2.546875 30.378906 C 3.824219 32.777344 2.773438 40.574219 2.324219 42.746094 C 2.175781 43.648438 2.023438 44.097656 1.648438 44.546875 C 1.273438 44.921875 0.523438 45.296875 0 45.371094 C -0.601562 45.445312 -1.347656 45.222656 -1.875 44.847656 C -2.324219 44.546875 -3.074219 43.722656 -2.921875 43.347656 C -2.625 42.597656 1.722656 41.621094 2.25 42.148438 C 2.625 42.449219 2.324219 43.496094 2.023438 44.023438 C 1.648438 44.621094 0.675781 45.222656 0 45.371094 C -0.601562 45.445312 -1.347656 45.222656 -1.875 44.847656 C -2.324219 44.546875 -3.074219 43.722656 -2.921875 43.347656 C -2.625 42.671875 1.273438 41.699219 2.324219 42.523438 C 3.824219 43.722656 2.472656 50.46875 3.148438 52.566406 C 3.449219 53.691406 4.046875 53.691406 4.347656 54.890625 C 5.171875 57.964844 0.226562 68.609375 4.121094 72.582031 C 12.144531 80.601562 61.917969 73.105469 78.035156 72.28125 C 85.980469 71.832031 92.351562 70.632812 95.800781 70.558594 C 97.148438 70.480469 97.824219 70.40625 98.648438 70.632812 C 99.398438 70.855469 99.847656 71.605469 100.671875 71.757812 C 101.945312 71.980469 103.371094 71.082031 105.769531 70.933594 C 111.242188 70.632812 124.207031 71.90625 133.429688 71.980469 C 142.722656 71.980469 151.792969 71.082031 161.390625 71.007812 C 171.582031 70.855469 182.527344 71.605469 192.796875 71.457031 C 202.765625 71.308594 219.332031 73.855469 222.179688 70.183594 C 223.832031 68.082031 220.683594 64.109375 220.15625 60.585938 C 219.558594 56.164062 219.109375 51.367188 219.332031 45.59375 C 219.707031 37.5 223.53125 24.15625 223.304688 16.4375 C 223.15625 11.265625 220.007812 4.144531 220.90625 3.542969 C 221.28125 3.316406 223.007812 4.59375 222.929688 4.890625 C 222.78125 5.492188 215.359375 5.191406 212.960938 4.816406 C 211.613281 4.59375 210.5625 4.441406 209.8125 3.84375 C 209.0625 3.316406 209.0625 2.042969 208.390625 1.667969 C 207.789062 1.371094 207.039062 1.519531 205.988281 1.667969 C 203.667969 1.96875 198.269531 4.59375 195.195312 4.667969 C 192.945312 4.742188 191.898438 3.691406 189.273438 3.46875 C 183.875 3.019531 171.882812 4.21875 164.988281 3.992188 C 159.816406 3.84375 154.191406 3.46875 151.496094 2.867188 C 150.292969 2.644531 149.769531 1.894531 148.945312 1.96875 C 148.121094 1.96875 147.671875 2.71875 146.695312 2.792969 C 144.824219 2.945312 140.25 2.117188 138.601562 1.292969 C 137.777344 0.84375 136.875 -0.355469 136.875 -0.355469 C 136.953125 -0.429688 138.976562 0.769531 138.902344 1.070312 C 138.824219 1.445312 137.101562 1.519531 136.128906 1.445312 C 135.226562 1.371094 133.878906 1.144531 133.355469 0.46875 C 132.828125 -0.355469 132.753906 -2.453125 133.203125 -3.203125 C 133.652344 -3.878906 134.851562 -4.328125 135.601562 -4.253906 C 136.351562 -4.101562 137.625 -3.054688 137.851562 -2.304688 C 138.152344 -1.628906 138.078125 -0.578125 137.402344 0.09375 C 135.753906 1.667969 128.480469 2.417969 123.984375 2.570312 C 119.636719 2.71875 115.4375 1.144531 110.941406 1.070312 C 106.070312 1.070312 98.796875 2.492188 95.800781 2.492188 C 94.523438 2.492188 93.925781 2.492188 93.175781 2.195312 C 92.277344 1.820312 91.601562 0.394531 90.851562 0.320312 C 90.175781 0.246094 89.425781 1.519531 88.828125 1.371094 C 88.003906 1.292969 86.578125 -0.953125 86.578125 -0.953125 C 86.578125 -0.953125 88.453125 0.695312 88.304688 0.917969 C 88.152344 1.21875 86.128906 0.0195312 84.78125 0.0195312 C 83.207031 -0.0546875 80.808594 1.292969 79.53125 0.996094 C 78.558594 0.695312 77.433594 -0.804688 77.433594 -0.878906 C 77.507812 -0.878906 79.308594 -0.0546875 79.382812 0.46875 C 79.457031 0.996094 78.484375 1.96875 77.734375 2.492188 C 76.535156 3.242188 74.660156 3.542969 72.5625 3.769531 C 69.636719 4.066406 65.289062 3.84375 61.765625 3.394531 C 58.320312 2.945312 54.945312 1.371094 51.496094 1.21875 C 48.125 1.070312 45.050781 2.34375 41.378906 2.417969 C 37.03125 2.492188 29.910156 0.695312 27.210938 1.445312 C 26.011719 1.820312 25.710938 2.867188 24.8125 3.242188 C 23.761719 3.691406 22.863281 3.691406 21.363281 3.84375 C 18.515625 4.066406 11.769531 4.667969 9.371094 4.144531 C 8.320312 3.992188 8.09375 3.316406 7.195312 3.242188 C 5.773438 3.019531 3.597656 4.367188 1.722656 4.144531 C -0.375 3.84375 -4.121094 2.417969 -4.722656 1.371094 C -5.023438 0.84375 -4.796875 0.246094 -4.574219 -0.28125 C -4.273438 -0.878906 -3.296875 -1.554688 -2.625 -1.703125 C -2.097656 -1.855469 -1.5 -1.777344 -1.050781 -1.480469 C -0.449219 -1.105469 0.226562 -0.128906 0.375 0.542969 C 0.449219 1.070312 0.300781 1.667969 0 2.117188 C -0.375 2.644531 -1.347656 3.316406 -2.097656 3.394531 C -2.773438 3.394531 -3.824219 2.867188 -4.273438 2.34375 C -4.648438 1.96875 -4.871094 1.371094 -4.796875 0.84375 C -4.722656 0.167969 -4.199219 -0.878906 -3.671875 -1.328125 C -3.222656 -1.703125 -2.625 -1.929688 -2.097656 -1.777344 C -1.347656 -1.628906 -0.0742188 0.394531 0.300781 0.246094 C 0.523438 0.167969 0.226562 -0.65625 0.601562 -0.953125 C 1.347656 -1.628906 4.121094 -1.480469 6.445312 -1.554688 C 9.96875 -1.703125 15.742188 -0.730469 19.488281 -1.105469 C 22.5625 -1.480469 24.8125 -2.828125 27.511719 -3.203125 C 30.285156 -3.652344 34.105469 -3.804688 35.980469 -3.503906 C 37.105469 -3.277344 37.253906 -2.753906 38.378906 -2.605469 C 41.152344 -2.230469 48.574219 -4.328125 52.546875 -4.027344 C 55.621094 -3.804688 57.496094 -2.378906 60.492188 -2.003906 C 64.316406 -1.480469 70.3125 -1.03125 73.535156 -1.703125 C 75.484375 -2.078125 76.757812 -3.503906 78.109375 -3.878906 C 79.007812 -4.101562 79.757812 -4.179688 80.507812 -3.953125 C 81.257812 -3.726562 82.53125 -2.378906 82.605469 -2.378906 C 82.605469 -2.453125 80.582031 -3.804688 80.730469 -4.179688 C 80.882812 -4.628906 83.730469 -4.476562 85.753906 -4.402344 C 88.675781 -4.253906 92.726562 -2.976562 96.699219 -2.828125 C 101.347656 -2.679688 107.191406 -4.101562 112.140625 -4.027344 C 116.789062 -3.953125 123.007812 -2.230469 125.484375 -2.679688 C 126.53125 -2.902344 126.609375 -3.503906 127.507812 -3.804688 C 129.382812 -4.328125 135.902344 -4.476562 135.976562 -4.179688 C 135.976562 -4.027344 133.277344 -3.277344 133.277344 -3.277344 C 133.277344 -3.351562 134.851562 -4.328125 135.601562 -4.253906 C 136.351562 -4.101562 137.625 -3.054688 137.851562 -2.304688 C 138.152344 -1.628906 137.625 0.09375 137.402344 0.09375 C 137.101562 0.09375 135.828125 -3.203125 136.277344 -3.878906 C 136.578125 -4.328125 137.625 -4.179688 138.601562 -4.179688 C 140.476562 -4.101562 143.25 -2.902344 146.472656 -2.453125 C 151.34375 -1.777344 158.539062 -1.328125 165.136719 -1.179688 C 172.707031 -1.03125 184.328125 -2.230469 189.347656 -1.777344 C 191.746094 -1.554688 192.347656 -0.578125 194.445312 -0.65625 C 198.195312 -0.65625 206.816406 -4.851562 209.664062 -4.328125 C 210.863281 -4.101562 211.6875 -3.429688 211.988281 -2.753906 C 212.363281 -2.078125 211.460938 -1.03125 211.910156 -0.503906 C 213.109375 0.769531 222.105469 -1.328125 224.207031 -0.28125 C 225.253906 0.246094 225.480469 0.84375 226.003906 1.96875 C 227.054688 4.292969 228.253906 10.363281 228.554688 13.363281 C 228.777344 15.160156 228.777344 16.210938 228.554688 17.933594 C 228.328125 20.109375 227.355469 22.207031 226.828125 25.355469 C 225.929688 30.378906 224.503906 38.324219 224.429688 45.445312 C 224.429688 53.464844 227.128906 67.183594 227.054688 71.082031 C 227.054688 72.28125 227.203125 72.730469 226.753906 73.332031 C 226.304688 74.082031 225.328125 74.605469 224.054688 75.054688 C 221.355469 75.953125 216.785156 75.730469 211.011719 75.953125 C 199.84375 76.328125 175.554688 75.730469 161.539062 76.03125 C 151.042969 76.253906 143.398438 77.078125 134.101562 77.152344 C 124.507812 77.230469 109.441406 75.804688 105.019531 76.328125 C 103.667969 76.554688 103.292969 77.003906 102.394531 77.078125 C 101.496094 77.230469 100.519531 77.230469 99.621094 77.003906 C 98.648438 76.777344 98.121094 75.953125 96.699219 75.730469 C 93.25 75.128906 85.828125 77.152344 78.707031 77.527344 C 68.289062 77.976562 53.148438 77.003906 40.402344 77.152344 C 27.660156 77.304688 6.746094 79.550781 2.023438 78.351562 C 0.898438 78.128906 0.601562 77.828125 0.0742188 77.230469 C -0.523438 76.628906 -0.972656 76.105469 -1.273438 74.90625 C -2.097656 71.457031 -2.097656 55.039062 -0.898438 54.589844 C -0.449219 54.441406 0.972656 56.765625 0.898438 56.914062 C 0.824219 56.988281 -0.824219 56.015625 -1.347656 55.339844 C -1.800781 54.742188 -1.949219 54.214844 -2.175781 53.167969 C -2.625 50.992188 -4.273438 44.621094 -2.921875 42.972656 C -2.023438 41.773438 1.800781 41.773438 2.25 42.148438 C 2.472656 42.296875 2.398438 42.523438 2.324219 42.746094 C 2.25 43.195312 2.023438 44.097656 1.648438 44.546875 C 1.273438 44.921875 0.523438 45.296875 0 45.371094 C -0.601562 45.445312 -1.347656 45.222656 -1.875 44.847656 C -2.324219 44.546875 -3.074219 43.722656 -2.921875 43.347656 C -2.625 42.597656 1.722656 41.621094 2.25 42.148438 C 2.625 42.449219 2.324219 43.496094 2.023438 44.023438 C 1.648438 44.621094 0.675781 45.222656 0 45.371094 C -0.601562 45.445312 -1.347656 45.222656 -1.875 44.847656 C -2.324219 44.546875 -2.625 44.171875 -2.921875 43.347656 C -3.523438 41.097656 -4.046875 31.054688 -2.625 30.230469 C -1.800781 29.777344 1.199219 32.179688 1.125 32.476562 C 1.050781 32.703125 -0.675781 32.777344 -1.273438 32.402344 C -1.949219 32.101562 -2.546875 31.128906 -2.625 30.378906 C -2.625 29.554688 -1.800781 28.128906 -1.125 27.832031 C -0.523438 27.53125 1.050781 28.128906 1.050781 28.28125 C 1.050781 28.429688 -1.722656 29.628906 -2.546875 28.953125 C -4.574219 27.378906 -3.222656 14.488281 -2.847656 9.089844 C -2.546875 5.265625 -2.546875 0.917969 -1.347656 -0.578125 C -0.75 -1.402344 0.375 -1.628906 1.050781 -1.554688 C 1.648438 -1.480469 2.097656 -1.03125 2.398438 -0.578125 C 2.699219 -0.203125 2.847656 0.996094 2.847656 0.996094 " clip-rule="nonzero"/></clipPath></defs><g clip-path="url(#f1910cef73)"><g clip-path="url(#3021596581)"><path fill="#fffb47" d="M 4.503906 12.027344 L 29.234375 12.027344 L 29.234375 73.46875 L 4.503906 73.46875 Z M 4.503906 12.027344 " fill-opacity="1" fill-rule="nonzero"/></g></g><g clip-path="url(#954b4754f3)"><g clip-path="url(#9892656c52)"><path fill="#fffb47" d="M 29.550781 36.054688 L 60.164062 36.054688 L 60.164062 72.164062 L 29.550781 72.164062 Z M 29.550781 36.054688 " fill-opacity="1" fill-rule="nonzero"/></g></g><g clip-path="url(#8730c20d2c)"><g clip-path="url(#7ff69e5531)"><path fill="#fffb47" d="M 60.226562 34.007812 L 91.09375 34.007812 L 91.09375 72.472656 L 60.226562 72.472656 Z M 60.226562 34.007812 " fill-opacity="1" fill-rule="nonzero"/></g></g><g clip-path="url(#e6911b2836)"><g clip-path="url(#79b38912b1)"><path fill="#fffb47" d="M 93.328125 33.691406 L 129.945312 33.691406 L 129.945312 73.453125 L 93.328125 73.453125 Z M 93.328125 33.691406 " fill-opacity="1" fill-rule="nonzero"/></g></g><g clip-path="url(#7dedb07e71)"><g clip-path="url(#5db17b6e7f)"><path fill="#fffb47" d="M 126.6875 31.070312 L 148.796875 31.070312 L 148.796875 71.75 L 126.6875 71.75 Z M 126.6875 31.070312 " fill-opacity="1" fill-rule="nonzero"/></g></g><g clip-path="url(#f30fb386b1)"><g clip-path="url(#708da83659)"><path fill="#fffb47" d="M 137.167969 30.367188 L 147.382812 30.367188 L 147.382812 40.273438 L 137.167969 40.273438 Z M 137.167969 30.367188 " fill-opacity="1" fill-rule="nonzero"/></g></g><g clip-path="url(#a4ebcf3101)"><g clip-path="url(#3397f278ce)"><path fill="#fffb47" d="M 144.644531 8.960938 L 172.886719 8.960938 L 172.886719 72.289062 L 144.644531 72.289062 Z M 144.644531 8.960938 " fill-opacity="1" fill-rule="nonzero"/></g></g><g clip-path="url(#c986e942bf)"><g clip-path="url(#11e4220f64)"><path fill="#fffb47" d="M 167.394531 29.984375 L 197.746094 29.984375 L 197.746094 70.296875 L 167.394531 70.296875 Z M 167.394531 29.984375 " fill-opacity="1" fill-rule="nonzero"/></g></g><g clip-path="url(#e4c1505768)"><g clip-path="url(#1e6a11e549)"><path fill="#fffb47" d="M 192.273438 27.15625 L 221.65625 27.15625 L 221.65625 73.757812 L 192.273438 73.757812 Z M 192.273438 27.15625 " fill-opacity="1" fill-rule="nonzero"/></g></g><g clip-path="url(#989b31c77a)"><g clip-path="url(#8b2f3401db)"><path fill="#fffb47" d="M 196.019531 1.445312 L 225.292969 1.445312 L 225.292969 30.605469 L 196.019531 30.605469 Z M 196.019531 1.445312 " fill-opacity="1" fill-rule="nonzero"/></g></g><g clip-path="url(#a313a608cf)"><g clip-path="url(#809cda98c1)"><path fill="#fffb47" d="M 203.292969 10.4375 L 212.070312 10.4375 L 212.070312 18.984375 L 203.292969 18.984375 Z M 203.292969 10.4375 " fill-opacity="1" fill-rule="nonzero"/></g></g><g clip-path="url(#09d795dbae)"><g clip-path="url(#66766dcc58)"><path fill="#fffb47" d="M 207.265625 10.4375 L 216.042969 10.4375 L 216.042969 18.984375 L 207.265625 18.984375 Z M 207.265625 10.4375 " fill-opacity="1" fill-rule="nonzero"/></g></g><g clip-path="url(#fc63964125)"><g clip-path="url(#a639dbf7c6)"><path fill="#fffb47" d="M 206.140625 12.386719 L 214.917969 12.386719 L 214.917969 20.933594 L 206.140625 20.933594 Z M 206.140625 12.386719 " fill-opacity="1" fill-rule="nonzero"/></g></g><g clip-path="url(#fffd29620d)"><g clip-path="url(#bcdd297a9e)"><path fill="#fffb47" d="M 206.066406 15.386719 L 214.84375 15.386719 L 214.84375 23.933594 L 206.066406 23.933594 Z M 206.066406 15.386719 " fill-opacity="1" fill-rule="nonzero"/></g></g><g clip-path="url(#f38a10c77d)"><g clip-path="url(#dd2d7f638a)"><path fill="#fffb47" d="M 209.4375 14.335938 L 218.507812 14.335938 L 218.507812 23.40625 L 209.4375 23.40625 Z M 209.4375 14.335938 " fill-opacity="1" fill-rule="nonzero"/></g></g><g clip-path="url(#8620741327)"><g clip-path="url(#e8508b395e)"><path fill="#fffb47" d="M 209.8125 12.386719 L 218.882812 12.386719 L 218.882812 21.457031 L 209.8125 21.457031 Z M 209.8125 12.386719 " fill-opacity="1" fill-rule="nonzero"/></g></g><g clip-path="url(#c8eb6a67e0)"><g clip-path="url(#e139236722)"><path fill="#fffb47" d="M 208.6875 10.664062 L 217.757812 10.664062 L 217.757812 19.734375 L 208.6875 19.734375 Z M 208.6875 10.664062 " fill-opacity="1" fill-rule="nonzero"/></g></g><g clip-path="url(#23afd96d05)"><g clip-path="url(#186ed4d0dd)"><path fill="#fffb47" d="M 206.816406 13.4375 L 215.886719 13.4375 L 215.886719 22.507812 L 206.816406 22.507812 Z M 206.816406 13.4375 " fill-opacity="1" fill-rule="nonzero"/></g></g><g clip-path="url(#7117988db7)"><g clip-path="url(#93496706e6)"><path fill="#fffb47" d="M 206.363281 9.988281 L 215.433594 9.988281 L 215.433594 19.058594 L 206.363281 19.058594 Z M 206.363281 9.988281 " fill-opacity="1" fill-rule="nonzero"/></g></g><g clip-path="url(#0f52263208)"><g clip-path="url(#88887d7324)"><path fill="#fffb47" d="M 209.964844 10.515625 L 218.742188 10.515625 L 218.742188 19.058594 L 209.964844 19.058594 Z M 209.964844 10.515625 " fill-opacity="1" fill-rule="nonzero"/></g></g><g clip-path="url(#42aaa4d99b)"><g clip-path="url(#dd131852b4)"><path fill="#fffb47" d="M 206.589844 14.789062 L 215.585938 14.789062 L 215.585938 23.78125 L 206.589844 23.78125 Z M 206.589844 14.789062 " fill-opacity="1" fill-rule="nonzero"/></g></g><g clip-path="url(#90cf8ac56e)"><g clip-path="url(#0f9cc74348)"><path fill="#fffb47" d="M 172.484375 9.914062 L 197.652344 9.914062 L 197.652344 28.429688 L 172.484375 28.429688 Z M 172.484375 9.914062 " fill-opacity="1" fill-rule="nonzero"/></g></g><g clip-path="url(#08a868c794)"><g clip-path="url(#7914806bcb)"><path fill="#fffb47" d="M 177.054688 14.488281 L 198.152344 14.488281 L 198.152344 32.253906 L 177.054688 32.253906 Z M 177.054688 14.488281 " fill-opacity="1" fill-rule="nonzero"/></g></g><g clip-path="url(#d105db58b3)"><g clip-path="url(#0ee7d234e2)"><path fill="#fffb47" d="M 184.777344 17.109375 L 203.898438 17.109375 L 203.898438 32.550781 L 184.777344 32.550781 Z M 184.777344 17.109375 " fill-opacity="1" fill-rule="nonzero"/></g></g><g clip-path="url(#41c54f0834)"><g clip-path="url(#4d3cf284e6)"><path fill="#fffb47" d="M 75.402344 0.0195312 L 85.820312 0.0195312 L 85.820312 17.683594 L 75.402344 17.683594 Z M 75.402344 0.0195312 " fill-opacity="1" fill-rule="nonzero"/></g></g><g clip-path="url(#20210e4393)"><g clip-path="url(#73c9af3bed)"><path fill="#fffb47" d="M 82.125 2.832031 L 90.617188 2.832031 L 90.617188 14.410156 L 82.125 14.410156 Z M 82.125 2.832031 " fill-opacity="1" fill-rule="nonzero"/></g></g><g clip-path="url(#465f014f68)"><g clip-path="url(#f1fd4fdf41)"><path fill="#fffb47" d="M 80.246094 4.550781 L 89.996094 4.550781 L 89.996094 9.398438 L 80.246094 9.398438 Z M 80.246094 4.550781 " fill-opacity="1" fill-rule="nonzero"/></g></g><g clip-path="url(#b317911c0f)"><g clip-path="url(#e070c192ae)"><path fill="#fffb47" d="M 87.699219 4.761719 L 96.554688 4.761719 L 96.554688 14.207031 L 87.699219 14.207031 Z M 87.699219 4.761719 " fill-opacity="1" fill-rule="nonzero"/></g></g><g clip-path="url(#850c1552f1)"><g clip-path="url(#20da057815)"><path fill="#fffb47" d="M 97.128906 2.988281 L 102.234375 2.988281 L 102.234375 14.617188 L 97.128906 14.617188 Z M 97.128906 2.988281 " fill-opacity="1" fill-rule="nonzero"/></g></g><g clip-path="url(#3deeb81a6f)"><g clip-path="url(#fe49a2a545)"><path fill="#fffb47" d="M 95.410156 5.175781 L 104.261719 5.175781 L 104.261719 9.917969 L 95.410156 9.917969 Z M 95.410156 5.175781 " fill-opacity="1" fill-rule="nonzero"/></g></g><g clip-path="url(#4d7cb7b9f0)"><g clip-path="url(#6c89b57648)"><path fill="#fffb47" d="M 99.628906 4.34375 L 108.589844 4.34375 L 108.589844 13.863281 L 99.628906 13.863281 Z M 99.628906 4.34375 " fill-opacity="1" fill-rule="nonzero"/></g></g><g clip-path="url(#ee9f9b23d9)"><g clip-path="url(#abd9e8d435)"><path fill="#fffb47" d="M 105.152344 3.511719 L 112.546875 3.511719 L 112.546875 14.550781 L 105.152344 14.550781 Z M 105.152344 3.511719 " fill-opacity="1" fill-rule="nonzero"/></g></g><g clip-path="url(#26d57450f9)"><g clip-path="url(#9a8fee5331)"><path fill="#fffb47" d="M 112.496094 6.273438 L 122.960938 6.273438 L 122.960938 15.234375 L 112.496094 15.234375 Z M 112.496094 6.273438 " fill-opacity="1" fill-rule="nonzero"/></g></g><g clip-path="url(#2b13e70303)"><g clip-path="url(#f9b2e0eb9b)"><path fill="#fffb47" d="M 120.207031 5.4375 L 131.292969 5.4375 L 131.292969 14.867188 L 120.207031 14.867188 Z M 120.207031 5.4375 " fill-opacity="1" fill-rule="nonzero"/></g></g><g clip-path="url(#42a7b37d12)"><g clip-path="url(#c6970d46fa)"><path fill="#fffb47" d="M 126.457031 5.804688 L 137.59375 5.804688 L 137.59375 15.179688 L 126.457031 15.179688 Z M 126.457031 5.804688 " fill-opacity="1" fill-rule="nonzero"/></g></g><g clip-path="url(#6fc68937d9)"><g clip-path="url(#5984c3643f)"><path fill="#fffb47" d="M 135.003906 6.21875 L 143.496094 6.21875 L 143.496094 15.507812 L 135.003906 15.507812 Z M 135.003906 6.21875 " fill-opacity="1" fill-rule="nonzero"/></g></g><g clip-path="url(#4c5fb4feb1)"><g clip-path="url(#6ff1ce7ea6)"><path fill="#fffb47" d="M 137.554688 0.4375 L 147.871094 0.4375 L 147.871094 17.804688 L 137.554688 17.804688 Z M 137.554688 0.4375 " fill-opacity="1" fill-rule="nonzero"/></g></g><g clip-path="url(#d1db2d2f11)"><g clip-path="url(#bb4b24b5ad)"><rect x="-22.487999" width="269.855988" fill="#1e1e1e" y="-7.5" height="89.999996" fill-opacity="1"/></g></g></svg>