<svg xmlns="http://www.w3.org/2000/svg" xmlns:xlink="http://www.w3.org/1999/xlink" width="300" zoomAndPan="magnify" viewBox="0 0 224.87999 74.999997" height="100" preserveAspectRatio="xMidYMid meet" version="1.0"><defs><clipPath id="82ea339e5c"><path d="M 12 4.167969 L 43.457031 4.167969 L 43.457031 68.148438 L 12 68.148438 Z M 12 4.167969 " clip-rule="nonzero"/></clipPath><clipPath id="23e4c1f7c3"><path d="M 17.464844 6.617188 C 18.363281 51.292969 19.789062 54.441406 20.613281 56.613281 C 21.0625 57.8125 21.289062 58.5625 21.886719 59.3125 C 22.339844 59.914062 22.710938 60.363281 23.6875 60.738281 C 25.5625 61.636719 30.285156 62.386719 33.355469 62.613281 C 36.128906 62.761719 39.730469 61.414062 41.378906 62.238281 C 42.425781 62.6875 43.402344 63.886719 43.402344 64.710938 C 43.402344 65.535156 42.277344 66.960938 41.527344 67.335938 C 40.851562 67.558594 39.652344 67.257812 39.128906 66.808594 C 38.53125 66.359375 38.003906 65.308594 38.15625 64.5625 C 38.230469 63.734375 39.503906 62.460938 40.253906 62.160156 C 40.777344 62.011719 41.453125 62.085938 41.902344 62.386719 C 42.503906 62.761719 43.328125 63.660156 43.402344 64.410156 C 43.402344 65.234375 42.800781 66.585938 41.828125 67.183594 C 40.253906 68.234375 36.28125 68.160156 33.582031 68.082031 C 31.035156 68.007812 28.484375 67.632812 26.085938 67.035156 C 23.6875 66.359375 20.914062 65.609375 19.191406 64.261719 C 17.765625 63.0625 17.164062 61.335938 16.265625 59.6875 C 15.292969 57.738281 14.242188 55.265625 13.566406 53.242188 C 13.042969 51.441406 12.894531 50.691406 12.667969 48.21875 C 11.992188 41.097656 11.617188 11.488281 12.816406 6.617188 C 13.117188 5.492188 13.34375 5.117188 13.867188 4.742188 C 14.242188 4.367188 14.917969 4.292969 15.441406 4.292969 C 15.964844 4.367188 16.566406 4.742188 16.867188 5.117188 C 17.242188 5.492188 17.464844 6.617188 17.464844 6.617188 " clip-rule="nonzero"/></clipPath><clipPath id="ea08cce3b6"><path d="M 45.851562 28.4375 L 72.855469 28.4375 L 72.855469 65.628906 L 45.851562 65.628906 Z M 45.851562 28.4375 " clip-rule="nonzero"/></clipPath><clipPath id="53b6f495cf"><path d="M 59.59375 32.851562 C 55.019531 35.851562 54.570312 37.125 53.894531 38.847656 C 52.847656 41.773438 51.421875 48.519531 51.347656 50.917969 C 51.347656 51.96875 51.347656 52.492188 51.722656 53.167969 C 52.246094 54.066406 54.046875 54.664062 54.570312 55.492188 C 55.019531 56.089844 55.246094 56.691406 55.246094 57.289062 C 55.171875 57.964844 54.644531 59.011719 54.046875 59.464844 C 53.445312 59.839844 51.648438 59.839844 51.648438 59.6875 C 51.574219 59.613281 53.972656 58.339844 54.871094 58.488281 C 55.546875 58.640625 55.996094 59.761719 56.667969 59.839844 C 57.34375 59.988281 58.09375 59.613281 58.84375 59.011719 C 60.042969 58.039062 62.742188 53.765625 62.441406 53.390625 C 62.367188 53.167969 61.316406 53.691406 61.316406 53.691406 C 61.316406 53.617188 61.992188 53.089844 62.441406 53.015625 C 63.042969 52.941406 64.316406 53.015625 64.839844 53.542969 C 65.441406 54.066406 65.816406 55.714844 65.664062 56.390625 C 65.664062 56.839844 65.441406 57.363281 65.066406 57.4375 C 64.242188 57.664062 61.390625 56.539062 60.566406 54.964844 C 59.292969 52.34375 62.816406 44.921875 62.742188 40.648438 C 62.589844 37.273438 60.417969 33.152344 60.792969 31.429688 C 60.867188 30.679688 61.242188 30.230469 61.691406 29.855469 C 62.140625 29.554688 62.890625 29.253906 63.492188 29.328125 C 64.164062 29.480469 65.140625 30.003906 65.738281 31.128906 C 67.539062 34.578125 69.1875 54.664062 67.6875 55.640625 C 67.238281 55.863281 65.816406 54.441406 65.738281 54.515625 C 65.664062 54.589844 68.136719 56.839844 69.339844 57.515625 C 70.3125 58.039062 71.738281 57.8125 72.335938 58.414062 C 72.785156 58.9375 72.9375 60.136719 72.710938 60.8125 C 72.410156 61.488281 71.585938 62.238281 70.914062 62.460938 C 70.238281 62.613281 69.113281 62.386719 68.589844 61.9375 C 67.988281 61.488281 67.613281 60.363281 67.6875 59.6875 C 67.765625 58.9375 68.363281 57.964844 69.039062 57.664062 C 69.789062 57.363281 71.511719 57.664062 72.113281 58.1875 C 72.636719 58.714844 72.9375 59.839844 72.785156 60.511719 C 72.5625 61.261719 71.960938 62.085938 71.210938 62.386719 C 70.085938 62.761719 67.390625 62.460938 66.488281 61.785156 C 65.816406 61.261719 66.039062 60.210938 65.515625 59.539062 C 64.914062 58.789062 63.640625 58.714844 62.964844 57.515625 C 61.390625 54.742188 61.09375 44.996094 60.792969 40.273438 C 60.566406 37.050781 60.34375 33.902344 60.71875 32.027344 C 60.941406 31.054688 61.167969 30.304688 61.691406 29.855469 C 62.292969 29.40625 63.417969 29.253906 64.089844 29.480469 C 64.765625 29.703125 65.289062 30.304688 65.738281 31.128906 C 66.488281 32.550781 67.089844 35.476562 67.390625 37.648438 C 67.6875 39.75 67.765625 41.546875 67.613281 44.023438 C 67.464844 47.394531 67.390625 55.265625 65.816406 56.089844 C 64.691406 56.613281 61.242188 54.214844 61.316406 53.691406 C 61.390625 53.316406 62.964844 52.792969 63.714844 52.941406 C 64.464844 53.167969 65.515625 54.292969 65.816406 55.117188 C 66.039062 55.941406 65.589844 56.914062 65.214844 58.039062 C 64.617188 59.539062 63.417969 62.011719 62.292969 63.210938 C 61.46875 64.1875 60.492188 64.859375 59.519531 65.234375 C 58.695312 65.535156 57.71875 65.609375 56.820312 65.535156 C 55.921875 65.386719 55.09375 65.011719 54.269531 64.636719 C 53.445312 64.261719 52.621094 63.960938 51.949219 63.210938 C 51.046875 62.238281 50.074219 59.914062 49.921875 58.5625 C 49.773438 57.664062 49.773438 56.613281 50.296875 56.015625 C 50.824219 55.265625 52.773438 54.664062 53.519531 54.816406 C 54.046875 54.816406 54.347656 55.117188 54.570312 55.492188 C 54.945312 56.164062 55.320312 57.8125 54.945312 58.488281 C 54.496094 59.238281 53.148438 59.914062 52.246094 59.839844 C 51.121094 59.839844 49.773438 58.640625 48.800781 57.664062 C 47.75 56.539062 46.625 55.039062 46.175781 53.542969 C 45.800781 52.042969 46.027344 50.691406 46.324219 48.667969 C 46.925781 45.070312 48.875 36.976562 50.671875 33.902344 C 51.648438 32.179688 52.773438 31.351562 54.046875 30.453125 C 55.246094 29.628906 57.042969 28.65625 58.09375 28.503906 C 58.769531 28.429688 59.292969 28.578125 59.742188 28.804688 C 60.191406 29.03125 60.644531 29.554688 60.792969 30.078125 C 60.941406 30.527344 60.867188 31.277344 60.71875 31.726562 C 60.492188 32.179688 59.59375 32.851562 59.59375 32.851562 " clip-rule="nonzero"/></clipPath><clipPath id="37e8fd15df"><path d="M 80.84375 27.714844 L 112 27.714844 L 112 66.609375 L 80.84375 66.609375 Z M 80.84375 27.714844 " clip-rule="nonzero"/></clipPath><clipPath id="fb4e1dab8c"><path d="M 86.652344 30.304688 C 86.503906 53.617188 87.554688 53.617188 88.152344 54.515625 C 89.050781 55.640625 89.277344 58.1875 90.25 59.089844 C 90.925781 59.6875 91.675781 59.761719 92.726562 59.839844 C 94.300781 59.914062 97.746094 59.386719 99.023438 58.640625 C 99.773438 58.113281 99.996094 57.363281 100.445312 56.691406 C 100.820312 55.941406 101.195312 55.414062 101.496094 54.367188 C 102.09375 52.265625 102.546875 48.070312 102.769531 44.769531 C 102.921875 41.324219 101.722656 36 102.621094 34.125 C 103.070312 33.152344 104.042969 32.550781 104.792969 32.476562 C 105.46875 32.402344 106.292969 32.777344 106.816406 33.378906 C 107.867188 34.578125 108.46875 37.351562 109.066406 40.199219 C 109.890625 44.472656 109.667969 52.792969 110.339844 57.140625 C 110.789062 59.914062 112.140625 62.238281 111.988281 63.886719 C 111.839844 64.785156 111.464844 65.609375 110.941406 65.984375 C 110.492188 66.359375 109.964844 66.585938 109.367188 66.507812 C 108.617188 66.359375 107.269531 65.386719 106.96875 64.636719 C 106.742188 63.960938 107.117188 62.835938 107.492188 62.3125 C 107.867188 61.863281 108.390625 61.5625 108.917969 61.488281 C 109.589844 61.414062 110.714844 61.636719 111.164062 62.160156 C 111.691406 62.613281 112.066406 63.734375 111.914062 64.410156 C 111.839844 65.085938 111.089844 65.984375 110.492188 66.285156 C 109.816406 66.585938 108.765625 66.585938 108.09375 66.132812 C 106.96875 65.308594 106.441406 62.6875 105.84375 59.988281 C 104.792969 55.339844 104.867188 44.921875 104.042969 40.347656 C 103.59375 37.875 102.394531 35.925781 102.546875 34.652344 C 102.546875 33.976562 102.84375 33.453125 103.21875 33.152344 C 103.746094 32.703125 104.71875 32.328125 105.394531 32.476562 C 106.144531 32.703125 106.816406 33.453125 107.269531 34.5 C 108.09375 36.226562 107.941406 39.972656 107.867188 42.972656 C 107.867188 46.421875 107.71875 50.769531 106.816406 54.066406 C 106.144531 56.765625 104.71875 59.761719 103.519531 61.335938 C 102.84375 62.238281 102.394531 62.6875 101.347656 63.210938 C 99.398438 64.109375 94.75 65.160156 92.199219 65.085938 C 90.402344 65.011719 88.675781 64.484375 87.628906 63.734375 C 86.804688 63.210938 86.355469 62.535156 85.828125 61.636719 C 85.230469 60.511719 83.957031 57.363281 84.253906 57.140625 C 84.40625 57.066406 86.054688 58.5625 85.980469 58.714844 C 85.980469 58.789062 84.253906 58.1875 83.582031 57.664062 C 82.832031 57.066406 82.082031 56.539062 81.632812 55.339844 C 80.65625 52.71875 80.957031 46.121094 81.105469 41.621094 C 81.257812 37.351562 81.03125 30.753906 82.382812 28.878906 C 82.980469 28.054688 84.105469 27.832031 84.78125 27.832031 C 85.304688 27.90625 85.902344 28.355469 86.203125 28.730469 C 86.503906 29.105469 86.652344 30.304688 86.652344 30.304688 " clip-rule="nonzero"/></clipPath><clipPath id="6388033a12"><path d="M 120.578125 29 L 157.371094 29 L 157.371094 66.785156 L 120.578125 66.785156 Z M 120.578125 29 " clip-rule="nonzero"/></clipPath><clipPath id="8545234757"><path d="M 125.332031 31.429688 C 127.730469 49.195312 128.40625 60.289062 127.355469 63.734375 C 126.980469 65.011719 126.382812 65.835938 125.632812 66.210938 C 124.957031 66.507812 123.832031 66.285156 123.234375 65.910156 C 122.632812 65.460938 122.257812 64.785156 122.109375 63.734375 C 121.734375 60.8125 124.132812 52.492188 125.859375 47.246094 C 127.582031 42.296875 130.804688 35.851562 132.378906 33.300781 C 133.054688 32.179688 133.355469 31.503906 134.027344 31.054688 C 134.703125 30.605469 135.378906 30.378906 136.425781 30.378906 C 138.152344 30.378906 142.050781 31.429688 143.625 32.402344 C 144.671875 33.078125 144.898438 33.601562 145.722656 34.726562 C 147.144531 36.675781 149.09375 40.347656 150.820312 43.796875 C 152.992188 48.144531 156.667969 54.890625 157.191406 59.011719 C 157.566406 61.636719 157.117188 64.484375 156.292969 65.683594 C 155.765625 66.433594 154.792969 66.734375 154.117188 66.734375 C 153.367188 66.660156 152.394531 66.058594 152.019531 65.460938 C 151.644531 64.859375 151.644531 63.734375 151.945312 63.0625 C 152.242188 62.460938 153.144531 61.710938 153.816406 61.636719 C 154.492188 61.488281 155.617188 61.863281 156.066406 62.386719 C 156.589844 62.910156 156.890625 64.035156 156.742188 64.710938 C 156.589844 65.386719 155.84375 66.285156 155.167969 66.507812 C 154.417969 66.734375 152.917969 66.507812 152.167969 65.683594 C 151.121094 64.484375 152.019531 61.039062 151.269531 58.1875 C 150.144531 54.140625 147.070312 47.84375 145.199219 44.023438 C 143.921875 41.324219 143.171875 38.625 141.523438 37.273438 C 140.25 36.152344 138.375 35.101562 136.953125 35.699219 C 134.554688 36.75 132.527344 44.023438 130.957031 48.667969 C 129.15625 53.691406 128.707031 62.535156 127.058594 64.933594 C 126.457031 65.835938 125.707031 66.210938 125.035156 66.359375 C 124.433594 66.433594 123.683594 66.285156 123.234375 65.910156 C 122.710938 65.460938 122.335938 64.859375 122.109375 63.734375 C 121.285156 60.363281 122.785156 48.445312 122.410156 42.523438 C 122.109375 38.25 120.535156 33.453125 120.761719 31.503906 C 120.835938 30.753906 120.984375 30.378906 121.285156 30.003906 C 121.660156 29.554688 122.257812 29.253906 122.785156 29.179688 C 123.234375 29.105469 123.910156 29.253906 124.359375 29.554688 C 124.808594 29.929688 125.332031 31.429688 125.332031 31.429688 " clip-rule="nonzero"/></clipPath><clipPath id="a222ed3c0e"><path d="M 159.894531 31.726562 L 185 31.726562 L 185 63.980469 L 159.894531 63.980469 Z M 159.894531 31.726562 " clip-rule="nonzero"/></clipPath><clipPath id="a48ccb421b"><path d="M 178.179688 38.699219 C 170.683594 36.75 168.210938 37.125 167.085938 37.800781 C 166.335938 38.324219 165.960938 38.773438 165.585938 39.75 C 164.910156 41.847656 164.460938 47.917969 165.8125 51.066406 C 167.085938 53.992188 170.683594 56.988281 173.15625 58.113281 C 174.957031 58.9375 177.207031 58.9375 178.703125 58.488281 C 179.902344 58.1875 180.652344 56.613281 181.554688 56.316406 C 182.152344 56.089844 182.675781 56.089844 183.203125 56.316406 C 183.875 56.691406 185 58.113281 185 58.9375 C 184.925781 59.761719 183.726562 61.113281 182.902344 61.335938 C 182.226562 61.5625 181.101562 61.113281 180.578125 60.664062 C 180.128906 60.363281 179.828125 59.761719 179.828125 59.238281 C 179.753906 58.5625 180.054688 57.363281 180.578125 56.914062 C 181.101562 56.390625 182.226562 56.164062 182.902344 56.238281 C 183.503906 56.316406 184.027344 56.691406 184.328125 57.140625 C 184.777344 57.664062 185.152344 58.640625 184.851562 59.464844 C 184.550781 60.738281 182.902344 62.613281 181.179688 63.359375 C 178.855469 64.261719 174.132812 63.886719 171.660156 63.136719 C 169.710938 62.460938 168.511719 61.414062 166.9375 59.988281 C 164.988281 58.1875 162.214844 55.789062 161.089844 52.792969 C 159.664062 49.042969 159.738281 41.996094 160.640625 38.773438 C 161.164062 36.675781 162.289062 35.402344 163.5625 34.277344 C 164.835938 33.152344 166.710938 32.476562 168.136719 32.101562 C 169.257812 31.804688 170.160156 31.804688 171.359375 31.878906 C 172.78125 31.953125 174.730469 32.253906 176.304688 32.777344 C 177.804688 33.300781 179.753906 34.050781 180.578125 34.800781 C 181.027344 35.25 181.328125 35.699219 181.402344 36.226562 C 181.476562 36.675781 181.328125 37.351562 181.101562 37.800781 C 180.804688 38.25 180.277344 38.699219 179.753906 38.847656 C 179.304688 39 178.179688 38.699219 178.179688 38.699219 " clip-rule="nonzero"/></clipPath><clipPath id="6a29c5af5e"><path d="M 188.648438 5.164062 L 221.457031 5.164062 L 221.457031 67.515625 L 188.648438 67.515625 Z M 188.648438 5.164062 " clip-rule="nonzero"/></clipPath><clipPath id="8b36d94c40"><path d="M 193.773438 7.515625 C 195.195312 29.554688 194.597656 31.351562 194.746094 34.125 C 194.972656 37.351562 196.546875 40.949219 196.84375 44.472656 C 197.144531 48.144531 196.46875 52.566406 196.621094 55.789062 C 196.769531 58.1875 197.667969 60.664062 197.445312 62.011719 C 197.292969 62.835938 197.070312 63.359375 196.621094 63.734375 C 196.246094 64.1875 195.570312 64.5625 194.972656 64.484375 C 194.144531 64.484375 192.945312 63.960938 192.421875 62.988281 C 191.371094 61.039062 192.199219 55.492188 192.945312 51.667969 C 193.773438 47.46875 195.644531 42.222656 197.445312 38.773438 C 198.792969 36.074219 200.59375 33.453125 201.941406 32.101562 C 202.617188 31.429688 203.066406 31.054688 203.964844 30.753906 C 205.164062 30.304688 207.265625 30.230469 208.839844 30.453125 C 210.414062 30.753906 212.0625 31.429688 213.410156 32.402344 C 214.761719 33.378906 216.035156 34.425781 216.785156 36.226562 C 217.984375 38.925781 217.234375 44.023438 217.910156 47.695312 C 218.582031 51.21875 220.382812 54.664062 220.90625 57.738281 C 221.28125 60.289062 221.65625 63.0625 221.132812 64.785156 C 220.757812 65.910156 220.007812 67.035156 219.183594 67.335938 C 218.359375 67.558594 216.710938 66.734375 216.257812 66.132812 C 215.886719 65.683594 215.734375 65.011719 215.886719 64.484375 C 216.035156 63.8125 216.710938 62.835938 217.234375 62.460938 C 217.757812 62.160156 218.359375 62.011719 218.882812 62.160156 C 219.558594 62.3125 220.53125 63.0625 220.90625 63.660156 C 221.132812 64.1875 221.207031 64.785156 221.058594 65.308594 C 220.832031 65.984375 220.15625 66.960938 219.484375 67.183594 C 218.808594 67.484375 217.609375 67.257812 217.007812 66.960938 C 216.484375 66.660156 216.257812 66.285156 215.960938 65.609375 C 215.433594 64.109375 216.035156 60.289062 215.585938 57.964844 C 215.136719 56.015625 214.3125 54.890625 213.710938 52.640625 C 212.660156 48.894531 212.960938 39.972656 210.9375 37.199219 C 209.8125 35.550781 207.789062 34.425781 206.441406 34.726562 C 204.789062 35.175781 203.292969 38.925781 202.09375 41.171875 C 200.894531 43.421875 200.066406 46.121094 199.320312 48.371094 C 198.71875 50.167969 198.269531 51.367188 197.894531 53.390625 C 197.445312 56.089844 198.042969 61.5625 197.070312 63.210938 C 196.546875 64.035156 195.644531 64.484375 194.972656 64.484375 C 194.144531 64.484375 193.023438 63.886719 192.421875 62.988281 C 191.371094 61.414062 191.523438 57.8125 191.371094 54.964844 C 191.222656 51.742188 191.898438 47.917969 191.671875 44.394531 C 191.371094 40.949219 189.796875 37.273438 189.648438 34.050781 C 189.574219 31.277344 189.648438 27.679688 190.546875 26.257812 C 191 25.429688 192.421875 25.054688 192.347656 24.90625 C 192.347656 24.757812 190.546875 26.03125 189.949219 25.582031 C 188.300781 24.457031 188.75 10.214844 189.125 7.515625 C 189.273438 6.691406 189.425781 6.316406 189.722656 5.941406 C 190.097656 5.566406 190.699219 5.265625 191.148438 5.191406 C 191.671875 5.117188 192.347656 5.265625 192.796875 5.566406 C 193.246094 5.941406 193.773438 7.515625 193.773438 7.515625 " clip-rule="nonzero"/></clipPath><clipPath id="11b53e4e35"><path d="M 27.050781 11.03125 L 29.328125 11.03125 L 29.328125 13.304688 L 27.050781 13.304688 Z M 27.050781 11.03125 " clip-rule="nonzero"/></clipPath><clipPath id="25ac9aa433"><path d="M 28.183594 11.039062 C 29.085938 12.914062 27.660156 13.214844 27.433594 12.988281 C 27.136719 12.6875 27.359375 11.265625 27.734375 11.113281 C 28.035156 10.964844 29.234375 11.714844 29.308594 12.089844 C 29.382812 12.464844 28.558594 13.289062 28.183594 13.289062 C 27.808594 13.289062 27.0625 12.6875 27.0625 12.3125 C 26.984375 11.9375 28.109375 11.039062 28.109375 11.039062 " clip-rule="nonzero"/></clipPath><clipPath id="21ed9e0b09"><path d="M 55.972656 11.765625 L 58.105469 11.765625 L 58.105469 13.804688 L 55.972656 13.804688 Z M 55.972656 11.765625 " clip-rule="nonzero"/></clipPath><clipPath id="cf3202ff69"><path d="M 57.945312 12.011719 C 57.269531 13.960938 56.070312 13.214844 55.996094 12.839844 C 55.996094 12.464844 57.195312 11.640625 57.570312 11.789062 C 57.867188 11.863281 58.242188 13.289062 58.019531 13.585938 C 57.792969 13.8125 56.59375 13.886719 56.371094 13.585938 C 56.070312 13.363281 56.144531 12.164062 56.445312 11.9375 C 56.667969 11.714844 57.945312 12.011719 57.945312 12.011719 " clip-rule="nonzero"/></clipPath><clipPath id="e0f2e43725"><path d="M 68.878906 19.652344 L 71.15625 19.652344 L 71.15625 21.925781 L 68.878906 21.925781 Z M 68.878906 19.652344 " clip-rule="nonzero"/></clipPath><clipPath id="d637d3a4df"><path d="M 70.011719 19.660156 C 70.988281 21.457031 69.488281 21.832031 69.261719 21.609375 C 69.039062 21.308594 69.261719 19.882812 69.5625 19.734375 C 69.863281 19.585938 71.136719 20.335938 71.136719 20.707031 C 71.210938 21.007812 70.386719 21.832031 70.011719 21.910156 C 69.636719 21.910156 68.964844 21.234375 68.886719 20.933594 C 68.886719 20.558594 70.011719 19.660156 70.011719 19.660156 " clip-rule="nonzero"/></clipPath><clipPath id="396a11332f"><path d="M 92.867188 6.082031 L 95.207031 6.082031 L 95.207031 8.359375 L 92.867188 8.359375 Z M 92.867188 6.082031 " clip-rule="nonzero"/></clipPath><clipPath id="aeaacaf2cb"><path d="M 94.074219 6.089844 C 94.972656 7.964844 93.550781 8.265625 93.25 8.039062 C 93.023438 7.816406 93.25 6.316406 93.550781 6.167969 C 93.925781 6.015625 95.125 6.765625 95.199219 7.140625 C 95.199219 7.515625 94.449219 8.339844 94.074219 8.339844 C 93.699219 8.339844 92.875 7.515625 92.875 7.140625 C 92.875 6.765625 94 6.089844 94 6.089844 " clip-rule="nonzero"/></clipPath><clipPath id="78d6861df6"><path d="M 119.308594 17.308594 L 121.429688 17.308594 L 121.429688 19.492188 L 119.308594 19.492188 Z M 119.308594 17.308594 " clip-rule="nonzero"/></clipPath><clipPath id="76f902e582"><path d="M 121.136719 17.5625 C 120.761719 19.585938 119.410156 18.984375 119.335938 18.683594 C 119.261719 18.308594 120.386719 17.261719 120.6875 17.335938 C 121.058594 17.410156 121.585938 18.761719 121.359375 19.058594 C 121.210938 19.433594 120.085938 19.585938 119.785156 19.359375 C 119.410156 19.136719 119.261719 18.011719 119.484375 17.710938 C 119.636719 17.410156 120.910156 17.410156 120.910156 17.410156 " clip-rule="nonzero"/></clipPath><clipPath id="b34c87b43d"><path d="M 140.542969 8.707031 L 142.882812 8.707031 L 142.882812 10.980469 L 140.542969 10.980469 Z M 140.542969 8.707031 " clip-rule="nonzero"/></clipPath><clipPath id="c3f93d0796"><path d="M 141.75 8.714844 C 142.648438 10.589844 141.226562 10.964844 140.925781 10.664062 C 140.699219 10.4375 140.925781 9.015625 141.226562 8.867188 C 141.523438 8.714844 142.796875 9.464844 142.875 9.839844 C 142.875 10.140625 142.125 10.964844 141.75 10.964844 C 141.375 11.039062 140.625 10.4375 140.550781 10.066406 C 140.550781 9.691406 141.597656 8.714844 141.597656 8.714844 " clip-rule="nonzero"/></clipPath><clipPath id="47b3877f1e"><path d="M 152.746094 19.789062 L 154.8125 19.789062 L 154.8125 21.855469 L 152.746094 21.855469 Z M 152.746094 19.789062 " clip-rule="nonzero"/></clipPath><clipPath id="1b2fb1c16b"><path d="M 154.640625 20.035156 C 153.96875 22.058594 152.769531 21.234375 152.769531 20.859375 C 152.769531 20.558594 153.96875 19.660156 154.269531 19.808594 C 154.566406 19.960938 154.941406 21.308594 154.71875 21.609375 C 154.492188 21.910156 153.367188 21.910156 153.066406 21.683594 C 152.769531 21.382812 152.695312 20.410156 152.917969 20.183594 C 153.21875 19.882812 154.640625 20.035156 154.640625 20.035156 " clip-rule="nonzero"/></clipPath><clipPath id="678ebf088f"><path d="M 166.386719 9.0625 L 168.535156 9.0625 L 168.535156 11.152344 L 166.386719 11.152344 Z M 166.386719 9.0625 " clip-rule="nonzero"/></clipPath><clipPath id="f8cdde7045"><path d="M 167.011719 9.089844 C 168.660156 10.289062 167.535156 11.265625 167.160156 11.113281 C 166.859375 11.039062 166.410156 9.613281 166.636719 9.390625 C 166.785156 9.089844 168.285156 9.164062 168.433594 9.464844 C 168.660156 9.765625 168.359375 10.890625 167.984375 11.039062 C 167.683594 11.265625 166.5625 10.890625 166.410156 10.515625 C 166.261719 10.214844 166.9375 9.089844 166.9375 9.089844 " clip-rule="nonzero"/></clipPath><clipPath id="68c7ca9264"><path d="M 136.121094 8.558594 L 138.394531 8.558594 L 138.394531 10.832031 L 136.121094 10.832031 Z M 136.121094 8.558594 " clip-rule="nonzero"/></clipPath><clipPath id="0ede756558"><path d="M 137.25 10.8125 C 136.351562 9.015625 137.777344 8.640625 138 8.867188 C 138.300781 9.164062 138.078125 10.589844 137.703125 10.738281 C 137.402344 10.890625 136.203125 10.140625 136.128906 9.765625 C 136.050781 9.464844 136.875 8.640625 137.25 8.566406 C 137.625 8.566406 138.375 9.164062 138.375 9.539062 C 138.449219 9.914062 137.328125 10.8125 137.328125 10.8125 " clip-rule="nonzero"/></clipPath><clipPath id="34a231cbea"><path d="M 102.765625 8.152344 L 104.875 8.152344 L 104.875 9.984375 L 102.765625 9.984375 Z M 102.765625 8.152344 " clip-rule="nonzero"/></clipPath><clipPath id="c9e1fd9d3d"><path d="M 104.867188 8.789062 C 103.96875 10.289062 103.070312 10.066406 102.84375 9.691406 C 102.695312 9.390625 102.84375 8.492188 103.144531 8.265625 C 103.445312 8.039062 104.644531 8.339844 104.644531 8.339844 " clip-rule="nonzero"/></clipPath><clipPath id="c060f573c3"><path d="M 77.351562 11.480469 L 79.691406 11.480469 L 79.691406 13.753906 L 77.351562 13.753906 Z M 77.351562 11.480469 " clip-rule="nonzero"/></clipPath><clipPath id="636dd3bc3c"><path d="M 78.484375 13.738281 C 77.582031 11.863281 79.007812 11.5625 79.308594 11.789062 C 79.53125 12.011719 79.308594 13.4375 79.007812 13.585938 C 78.632812 13.738281 77.433594 12.988281 77.359375 12.613281 C 77.359375 12.3125 78.109375 11.488281 78.484375 11.488281 C 78.859375 11.488281 79.683594 12.3125 79.683594 12.6875 C 79.683594 13.0625 78.558594 13.738281 78.558594 13.738281 " clip-rule="nonzero"/></clipPath><clipPath id="8dc7f254cd"><path d="M 50.1875 5.5625 L 52.328125 5.5625 L 52.328125 7.390625 L 50.1875 7.390625 Z M 50.1875 5.5625 " clip-rule="nonzero"/></clipPath><clipPath id="79179922ef"><path d="M 52.320312 6.242188 C 51.347656 7.742188 50.449219 7.441406 50.296875 7.140625 C 50.074219 6.839844 50.222656 5.867188 50.523438 5.640625 C 50.824219 5.417969 52.023438 5.792969 52.023438 5.792969 " clip-rule="nonzero"/></clipPath><clipPath id="2a02ef3e0e"><path d="M 37.320312 12.457031 L 39.660156 12.457031 L 39.660156 14.894531 L 37.320312 14.894531 Z M 37.320312 12.457031 " clip-rule="nonzero"/></clipPath><clipPath id="9ec2d45785"><path d="M 39.652344 13.738281 C 37.78125 14.636719 37.40625 13.214844 37.703125 12.914062 C 37.929688 12.6875 39.355469 12.914062 39.503906 13.214844 C 39.652344 13.511719 38.902344 14.789062 38.53125 14.863281 C 38.230469 14.863281 37.40625 14.113281 37.328125 13.738281 C 37.328125 13.289062 37.855469 12.539062 38.230469 12.464844 C 38.605469 12.386719 39.652344 13.4375 39.652344 13.4375 " clip-rule="nonzero"/></clipPath><clipPath id="0571ae3026"><path d="M 21.476562 1.855469 L 23.617188 1.855469 L 23.617188 3.71875 L 21.476562 3.71875 Z M 21.476562 1.855469 " clip-rule="nonzero"/></clipPath><clipPath id="421527ac03"><path d="M 23.613281 2.492188 C 22.636719 4.066406 21.738281 3.769531 21.589844 3.46875 C 21.363281 3.09375 21.589844 2.195312 21.8125 1.96875 C 22.113281 1.742188 23.3125 2.042969 23.3125 2.042969 " clip-rule="nonzero"/></clipPath><clipPath id="fbe4122983"><path d="M 5.390625 0.160156 L 7.664062 0.160156 L 7.664062 2.5 L 5.390625 2.5 Z M 5.390625 0.160156 " clip-rule="nonzero"/></clipPath><clipPath id="70cc41c276"><path d="M 7.644531 1.371094 C 5.773438 2.269531 5.472656 0.84375 5.695312 0.542969 C 5.921875 0.320312 7.421875 0.542969 7.570312 0.917969 C 7.722656 1.21875 6.972656 2.417969 6.597656 2.492188 C 6.222656 2.492188 5.398438 1.742188 5.398438 1.371094 C 5.398438 0.996094 5.996094 0.246094 6.296875 0.167969 C 6.671875 0.167969 7.644531 1.21875 7.644531 1.21875 " clip-rule="nonzero"/></clipPath><clipPath id="26a3148534"><path d="M 5.390625 8.933594 L 7.664062 8.933594 L 7.664062 11.207031 L 5.390625 11.207031 Z M 5.390625 8.933594 " clip-rule="nonzero"/></clipPath><clipPath id="7fccc16e3e"><path d="M 7.644531 10.066406 C 5.773438 10.964844 5.472656 9.539062 5.695312 9.316406 C 5.921875 9.015625 7.421875 9.316406 7.570312 9.613281 C 7.722656 9.914062 6.972656 11.113281 6.597656 11.1875 C 6.222656 11.265625 5.398438 10.4375 5.398438 10.066406 C 5.398438 9.691406 6.222656 8.867188 6.597656 8.941406 C 6.972656 8.941406 7.644531 9.988281 7.644531 9.988281 " clip-rule="nonzero"/></clipPath><clipPath id="fe6e21cdc1"><path d="M 5.015625 34.042969 L 7.289062 34.042969 L 7.289062 36.382812 L 5.015625 36.382812 Z M 5.015625 34.042969 " clip-rule="nonzero"/></clipPath><clipPath id="1a5635395d"><path d="M 7.269531 35.25 C 5.398438 36.152344 5.023438 34.726562 5.320312 34.5 C 5.546875 34.203125 6.972656 34.425781 7.121094 34.800781 C 7.269531 35.101562 6.523438 36.300781 6.148438 36.375 C 5.847656 36.449219 5.023438 35.625 5.023438 35.25 C 5.023438 34.875 5.847656 34.050781 6.222656 34.050781 C 6.597656 34.125 7.269531 35.175781 7.269531 35.175781 " clip-rule="nonzero"/></clipPath><clipPath id="b8727b8a0e"><path d="M 4.6875 18.199219 L 6.828125 18.199219 L 6.828125 20.0625 L 4.6875 20.0625 Z M 4.6875 18.199219 " clip-rule="nonzero"/></clipPath><clipPath id="3317667ad2"><path d="M 6.820312 18.835938 C 5.847656 20.410156 4.949219 20.109375 4.796875 19.808594 C 4.574219 19.433594 4.722656 18.535156 5.023438 18.308594 C 5.320312 18.085938 6.523438 18.386719 6.523438 18.386719 " clip-rule="nonzero"/></clipPath><clipPath id="5affc1d6d0"><path d="M 2.089844 59.304688 L 4.367188 59.304688 L 4.367188 61.644531 L 2.089844 61.644531 Z M 2.089844 59.304688 " clip-rule="nonzero"/></clipPath><clipPath id="b810e499c2"><path d="M 4.347656 60.511719 C 2.472656 61.488281 2.175781 59.988281 2.398438 59.761719 C 2.625 59.539062 4.121094 59.761719 4.199219 60.0625 C 4.347656 60.363281 3.671875 61.636719 3.296875 61.636719 C 2.921875 61.710938 2.097656 60.886719 2.097656 60.511719 C 2.097656 60.136719 2.921875 59.3125 3.296875 59.3125 C 3.671875 59.3125 4.347656 60.4375 4.347656 60.4375 " clip-rule="nonzero"/></clipPath><clipPath id="6c38aa5828"><path d="M 2.539062 26.023438 L 4.816406 26.023438 L 4.816406 28.296875 L 2.539062 28.296875 Z M 2.539062 26.023438 " clip-rule="nonzero"/></clipPath><clipPath id="5159bc26b8"><path d="M 2.546875 27.15625 C 4.421875 26.179688 4.722656 27.605469 4.496094 27.90625 C 4.273438 28.128906 2.847656 27.90625 2.699219 27.605469 C 2.546875 27.304688 3.222656 26.03125 3.597656 26.03125 C 3.972656 25.957031 4.796875 26.707031 4.796875 27.15625 C 4.796875 27.457031 4.199219 28.203125 3.824219 28.28125 C 3.449219 28.28125 2.546875 27.15625 2.546875 27.15625 " clip-rule="nonzero"/></clipPath><clipPath id="0410a0313d"><path d="M 8.011719 25.949219 L 10.351562 25.949219 L 10.351562 28.222656 L 8.011719 28.222656 Z M 8.011719 25.949219 " clip-rule="nonzero"/></clipPath><clipPath id="1c0c2450b5"><path d="M 9.21875 25.957031 C 10.121094 27.753906 8.695312 28.128906 8.394531 27.832031 C 8.171875 27.605469 8.394531 26.179688 8.695312 26.03125 C 8.996094 25.882812 10.269531 26.628906 10.34375 27.003906 C 10.34375 27.304688 9.59375 28.128906 9.21875 28.203125 C 8.84375 28.203125 8.09375 27.53125 8.019531 27.230469 C 8.019531 26.78125 9.144531 25.957031 9.144531 25.957031 " clip-rule="nonzero"/></clipPath><clipPath id="a017ea4423"><path d="M 5.300781 55.394531 L 7.367188 55.394531 L 7.367188 57.460938 L 5.300781 57.460938 Z M 5.300781 55.394531 " clip-rule="nonzero"/></clipPath><clipPath id="5362b8f6d7"><path d="M 7.269531 55.640625 C 6.597656 57.664062 5.320312 56.839844 5.320312 56.539062 C 5.320312 56.164062 6.523438 55.265625 6.820312 55.414062 C 7.195312 55.566406 7.496094 56.914062 7.269531 57.214844 C 7.046875 57.515625 5.921875 57.515625 5.621094 57.289062 C 5.398438 56.988281 5.398438 55.863281 5.695312 55.566406 C 5.996094 55.339844 7.195312 55.640625 7.195312 55.640625 " clip-rule="nonzero"/></clipPath><clipPath id="2c54be9883"><path d="M 0.890625 3.011719 L 3.167969 3.011719 L 3.167969 5.285156 L 0.890625 5.285156 Z M 0.890625 3.011719 " clip-rule="nonzero"/></clipPath><clipPath id="97559498d5"><path d="M 2.023438 5.265625 C 1.050781 3.394531 2.546875 3.09375 2.773438 3.316406 C 3 3.617188 2.773438 5.042969 2.472656 5.191406 C 2.175781 5.34375 0.898438 4.59375 0.898438 4.21875 C 0.824219 3.84375 1.648438 3.019531 2.023438 3.019531 C 2.398438 3.019531 3.148438 3.917969 3.148438 4.292969 C 3.148438 4.667969 2.023438 5.265625 2.023438 5.265625 " clip-rule="nonzero"/></clipPath><clipPath id="2d97b83808"><path d="M 1.117188 40.414062 L 3.390625 40.414062 L 3.390625 42.691406 L 1.117188 42.691406 Z M 1.117188 40.414062 " clip-rule="nonzero"/></clipPath><clipPath id="14e12b0476"><path d="M 1.125 41.546875 C 3 40.648438 3.296875 42.074219 3.074219 42.296875 C 2.847656 42.597656 1.347656 42.296875 1.199219 41.996094 C 1.050781 41.699219 1.800781 40.5 2.175781 40.421875 C 2.546875 40.347656 3.375 41.171875 3.375 41.546875 C 3.375 41.921875 2.773438 42.671875 2.398438 42.671875 C 2.023438 42.671875 1.125 41.546875 1.125 41.546875 " clip-rule="nonzero"/></clipPath><clipPath id="8cdc7db091"><path d="M 6.125 63.1875 L 8.191406 63.1875 L 8.191406 65.289062 L 6.125 65.289062 Z M 6.125 63.1875 " clip-rule="nonzero"/></clipPath><clipPath id="53fd5a7f33"><path d="M 8.019531 63.511719 C 7.347656 65.460938 6.148438 64.710938 6.148438 64.335938 C 6.148438 63.960938 7.347656 63.136719 7.644531 63.210938 C 7.945312 63.359375 8.320312 64.785156 8.09375 65.085938 C 7.871094 65.308594 6.746094 65.386719 6.445312 65.085938 C 6.222656 64.785156 6.222656 63.660156 6.523438 63.4375 C 6.746094 63.136719 8.019531 63.4375 8.019531 63.4375 " clip-rule="nonzero"/></clipPath><clipPath id="e6d68ba52f"><path d="M 8.261719 71.582031 L 10.382812 71.582031 L 10.382812 73.761719 L 8.261719 73.761719 Z M 8.261719 71.582031 " clip-rule="nonzero"/></clipPath><clipPath id="a9bd056f43"><path d="M 9.820312 71.683594 C 9.820312 73.78125 8.394531 73.40625 8.320312 73.105469 C 8.171875 72.730469 8.996094 71.53125 9.371094 71.605469 C 9.746094 71.605469 10.496094 72.804688 10.34375 73.179688 C 10.269531 73.480469 9.144531 73.855469 8.84375 73.707031 C 8.46875 73.554688 8.171875 72.429688 8.320312 72.132812 C 8.546875 71.757812 9.746094 71.683594 9.746094 71.683594 " clip-rule="nonzero"/></clipPath><clipPath id="0be689248f"><path d="M 45.554688 66.5625 L 47.621094 66.5625 L 47.621094 68.628906 L 45.554688 68.628906 Z M 45.554688 66.5625 " clip-rule="nonzero"/></clipPath><clipPath id="a51e196331"><path d="M 47.449219 66.808594 C 46.851562 68.832031 45.574219 68.007812 45.574219 67.632812 C 45.574219 67.335938 46.773438 66.433594 47.074219 66.585938 C 47.375 66.660156 47.75 68.082031 47.523438 68.382812 C 47.300781 68.683594 46.175781 68.683594 45.875 68.457031 C 45.652344 68.160156 45.5 67.183594 45.800781 66.960938 C 46.027344 66.660156 47.449219 66.808594 47.449219 66.808594 " clip-rule="nonzero"/></clipPath><clipPath id="f799d478f5"><path d="M 25.402344 70.847656 L 27.679688 70.847656 L 27.679688 73.125 L 25.402344 73.125 Z M 25.402344 70.847656 " clip-rule="nonzero"/></clipPath><clipPath id="d91564046e"><path d="M 27.660156 71.980469 C 25.859375 72.882812 25.488281 71.457031 25.785156 71.15625 C 26.011719 70.933594 27.433594 71.15625 27.585938 71.53125 C 27.734375 71.832031 26.984375 73.03125 26.609375 73.105469 C 26.3125 73.105469 25.488281 72.355469 25.410156 71.980469 C 25.410156 71.605469 26.085938 70.855469 26.386719 70.855469 C 26.761719 70.78125 27.660156 71.90625 27.660156 71.90625 " clip-rule="nonzero"/></clipPath><clipPath id="e36c06d6bd"><path d="M 28.101562 51.132812 L 30.375 51.132812 L 30.375 53.410156 L 28.101562 53.410156 Z M 28.101562 51.132812 " clip-rule="nonzero"/></clipPath><clipPath id="9ace13b355"><path d="M 28.109375 52.265625 C 29.910156 51.367188 30.285156 52.792969 29.984375 53.015625 C 29.757812 53.316406 28.335938 53.015625 28.183594 52.71875 C 28.035156 52.417969 28.785156 51.144531 29.160156 51.144531 C 29.460938 51.066406 30.359375 51.890625 30.359375 52.265625 C 30.359375 52.640625 29.460938 53.390625 29.085938 53.390625 C 28.710938 53.390625 28.109375 52.34375 28.109375 52.34375 " clip-rule="nonzero"/></clipPath><clipPath id="1d825e938a"><path d="M 24.054688 25.5 L 26.328125 25.5 L 26.328125 27.773438 L 24.054688 27.773438 Z M 24.054688 25.5 " clip-rule="nonzero"/></clipPath><clipPath id="0a46240b5c"><path d="M 26.3125 26.628906 C 24.4375 27.53125 24.136719 26.105469 24.363281 25.882812 C 24.660156 25.582031 26.085938 25.882812 26.234375 26.179688 C 26.386719 26.480469 25.636719 27.679688 25.261719 27.753906 C 24.886719 27.832031 24.0625 27.003906 24.0625 26.628906 C 24.0625 26.257812 24.960938 25.507812 25.335938 25.507812 C 25.710938 25.507812 26.3125 26.628906 26.3125 26.628906 " clip-rule="nonzero"/></clipPath><clipPath id="4713070527"><path d="M 39.121094 26.324219 L 41.394531 26.324219 L 41.394531 28.597656 L 39.121094 28.597656 Z M 39.121094 26.324219 " clip-rule="nonzero"/></clipPath><clipPath id="961431a8ed"><path d="M 40.253906 26.332031 C 41.226562 28.203125 39.730469 28.503906 39.503906 28.28125 C 39.277344 28.054688 39.503906 26.554688 39.804688 26.40625 C 40.105469 26.257812 41.378906 27.003906 41.378906 27.378906 C 41.453125 27.753906 40.628906 28.578125 40.253906 28.578125 C 39.878906 28.578125 39.128906 27.753906 39.128906 27.378906 C 39.128906 27.003906 40.179688 26.332031 40.179688 26.332031 " clip-rule="nonzero"/></clipPath><clipPath id="8b7d370f39"><path d="M 38.65625 46.773438 L 40.726562 46.773438 L 40.726562 48.839844 L 38.65625 48.839844 Z M 38.65625 46.773438 " clip-rule="nonzero"/></clipPath><clipPath id="2ebb29ae56"><path d="M 40.554688 47.09375 C 39.878906 49.042969 38.679688 48.21875 38.679688 47.917969 C 38.605469 47.542969 39.804688 46.71875 40.179688 46.796875 C 40.476562 46.945312 40.851562 48.292969 40.628906 48.59375 C 40.402344 48.894531 39.203125 48.894531 38.980469 48.667969 C 38.679688 48.371094 38.753906 47.246094 39.054688 46.945312 C 39.277344 46.71875 40.554688 47.019531 40.554688 47.019531 " clip-rule="nonzero"/></clipPath><clipPath id="8a25d595af"><path d="M 34.171875 35.84375 L 36.449219 35.84375 L 36.449219 38.117188 L 34.171875 38.117188 Z M 34.171875 35.84375 " clip-rule="nonzero"/></clipPath><clipPath id="a7e88462cb"><path d="M 35.304688 38.101562 C 34.40625 36.226562 35.832031 35.925781 36.054688 36.152344 C 36.355469 36.449219 36.128906 37.875 35.757812 38.023438 C 35.457031 38.175781 34.257812 37.425781 34.183594 37.050781 C 34.183594 36.75 34.929688 35.925781 35.304688 35.851562 C 35.679688 35.851562 36.429688 36.449219 36.429688 36.824219 C 36.503906 37.199219 35.382812 38.101562 35.382812 38.101562 " clip-rule="nonzero"/></clipPath><clipPath id="b48fb32158"><path d="M 25 36.039062 L 27.140625 36.039062 L 27.140625 37.902344 L 25 37.902344 Z M 25 36.039062 " clip-rule="nonzero"/></clipPath><clipPath id="c69c77abef"><path d="M 27.136719 36.75 C 26.160156 38.25 25.261719 37.949219 25.113281 37.648438 C 24.886719 37.351562 25.035156 36.375 25.335938 36.152344 C 25.636719 35.925781 26.835938 36.226562 26.835938 36.226562 " clip-rule="nonzero"/></clipPath><clipPath id="4c402338f6"><path d="M 50.738281 18.828125 L 53.078125 18.828125 L 53.078125 21.101562 L 50.738281 21.101562 Z M 50.738281 18.828125 " clip-rule="nonzero"/></clipPath><clipPath id="403e48ca65"><path d="M 51.871094 21.082031 C 50.972656 19.210938 52.398438 18.910156 52.695312 19.136719 C 52.921875 19.359375 52.695312 20.859375 52.398438 21.007812 C 52.023438 21.160156 50.824219 20.410156 50.746094 20.035156 C 50.746094 19.660156 51.496094 18.835938 51.871094 18.835938 C 52.320312 18.835938 53.070312 19.660156 53.070312 20.035156 C 53.070312 20.410156 52.023438 21.082031 52.023438 21.082031 " clip-rule="nonzero"/></clipPath><clipPath id="3c52e8c7df"><path d="M 39.945312 5.933594 L 42.21875 5.933594 L 42.21875 8.273438 L 39.945312 8.273438 Z M 39.945312 5.933594 " clip-rule="nonzero"/></clipPath><clipPath id="320e0b1855"><path d="M 39.953125 7.066406 C 41.828125 6.167969 42.128906 7.589844 41.902344 7.890625 C 41.679688 8.117188 40.253906 7.890625 40.105469 7.589844 C 39.953125 7.214844 40.628906 6.015625 41.003906 5.941406 C 41.378906 5.941406 42.203125 6.691406 42.203125 7.066406 C 42.203125 7.441406 41.378906 8.265625 41.003906 8.265625 C 40.628906 8.191406 39.953125 7.140625 39.953125 7.140625 " clip-rule="nonzero"/></clipPath><clipPath id="3e4f8f0bb4"><path d="M 69.03125 6.535156 L 71.304688 6.535156 L 71.304688 8.808594 L 69.03125 8.808594 Z M 69.03125 6.535156 " clip-rule="nonzero"/></clipPath><clipPath id="bb08d080be"><path d="M 70.164062 6.542969 C 71.136719 8.414062 69.636719 8.714844 69.414062 8.492188 C 69.1875 8.265625 69.414062 6.765625 69.710938 6.617188 C 70.011719 6.464844 71.285156 7.214844 71.285156 7.589844 C 71.363281 7.964844 70.539062 8.789062 70.164062 8.789062 C 69.789062 8.789062 69.039062 7.964844 69.039062 7.515625 C 69.039062 7.214844 70.164062 6.542969 70.164062 6.542969 " clip-rule="nonzero"/></clipPath><clipPath id="78fcdd35ba"><path d="M 72.929688 33.21875 L 75.203125 33.21875 L 75.203125 35.558594 L 72.929688 35.558594 Z M 72.929688 33.21875 " clip-rule="nonzero"/></clipPath><clipPath id="fc05c4258b"><path d="M 72.9375 34.351562 C 74.808594 33.453125 75.183594 34.875 74.886719 35.101562 C 74.660156 35.402344 73.234375 35.175781 73.085938 34.800781 C 72.9375 34.5 73.6875 33.300781 74.058594 33.226562 C 74.359375 33.226562 75.183594 33.976562 75.183594 34.351562 C 75.183594 34.726562 74.359375 35.550781 73.984375 35.550781 C 73.609375 35.550781 72.9375 34.425781 72.9375 34.425781 " clip-rule="nonzero"/></clipPath><clipPath id="6585e09d93"><path d="M 68.476562 67 L 70.796875 67 L 70.796875 69.222656 L 68.476562 69.222656 Z M 68.476562 67 " clip-rule="nonzero"/></clipPath><clipPath id="67fd716a00"><path d="M 69.789062 69.207031 C 68.511719 67.558594 69.863281 66.960938 70.164062 67.183594 C 70.460938 67.335938 70.539062 68.832031 70.238281 69.058594 C 69.9375 69.207031 68.589844 68.757812 68.511719 68.382812 C 68.363281 68.082031 68.964844 67.109375 69.339844 67.035156 C 69.710938 66.882812 70.613281 67.257812 70.761719 67.632812 C 70.914062 68.007812 70.085938 69.207031 70.085938 69.207031 " clip-rule="nonzero"/></clipPath><clipPath id="b281d8171e"><path d="M 61.460938 67.371094 L 63.664062 67.371094 L 63.664062 69.234375 L 61.460938 69.234375 Z M 61.460938 67.371094 " clip-rule="nonzero"/></clipPath><clipPath id="120d319452"><path d="M 63.640625 68.007812 C 62.667969 69.582031 61.765625 69.28125 61.542969 68.984375 C 61.390625 68.609375 61.542969 67.707031 61.84375 67.484375 C 62.140625 67.257812 63.339844 67.558594 63.339844 67.558594 " clip-rule="nonzero"/></clipPath><clipPath id="d83a6e5158"><path d="M 97.140625 66.125 L 99.414062 66.125 L 99.414062 68.402344 L 97.140625 68.402344 Z M 97.140625 66.125 " clip-rule="nonzero"/></clipPath><clipPath id="00f122de70"><path d="M 98.273438 66.132812 C 99.246094 68.007812 97.746094 68.308594 97.523438 68.082031 C 97.296875 67.859375 97.523438 66.359375 97.824219 66.210938 C 98.121094 66.058594 99.398438 66.808594 99.398438 67.183594 C 99.472656 67.558594 98.648438 68.382812 98.273438 68.382812 C 97.898438 68.382812 97.148438 67.484375 97.148438 67.109375 C 97.148438 66.808594 98.273438 66.132812 98.273438 66.132812 " clip-rule="nonzero"/></clipPath><clipPath id="3368a07733"><path d="M 82.898438 66.726562 L 85.171875 66.726562 L 85.171875 69 L 82.898438 69 Z M 82.898438 66.726562 " clip-rule="nonzero"/></clipPath><clipPath id="50a07fb0a6"><path d="M 84.03125 68.984375 C 83.128906 67.109375 84.554688 66.808594 84.855469 67.035156 C 85.078125 67.257812 84.855469 68.757812 84.554688 68.910156 C 84.179688 69.058594 82.980469 68.308594 82.90625 67.933594 C 82.90625 67.558594 83.65625 66.734375 84.03125 66.734375 C 84.40625 66.734375 85.15625 67.335938 85.15625 67.707031 C 85.230469 68.082031 84.105469 68.984375 84.105469 68.984375 " clip-rule="nonzero"/></clipPath><clipPath id="941c258f73"><path d="M 73.347656 44.507812 L 75.492188 44.507812 L 75.492188 46.308594 L 73.347656 46.308594 Z M 73.347656 44.507812 " clip-rule="nonzero"/></clipPath><clipPath id="e28e9a04ac"><path d="M 75.484375 45.144531 C 74.511719 46.644531 73.609375 46.34375 73.460938 46.046875 C 73.234375 45.746094 73.386719 44.847656 73.6875 44.621094 C 73.984375 44.394531 75.183594 44.695312 75.183594 44.695312 " clip-rule="nonzero"/></clipPath><clipPath id="7f5d982a2b"><path d="M 101.789062 19.949219 L 104.0625 19.949219 L 104.0625 22.226562 L 101.789062 22.226562 Z M 101.789062 19.949219 " clip-rule="nonzero"/></clipPath><clipPath id="3c68c38dee"><path d="M 102.921875 22.207031 C 101.945312 20.335938 103.445312 20.035156 103.667969 20.257812 C 103.894531 20.484375 103.667969 21.910156 103.371094 22.058594 C 103.070312 22.207031 101.796875 21.457031 101.796875 21.082031 C 101.722656 20.785156 102.546875 19.960938 102.921875 19.960938 C 103.292969 19.882812 103.96875 20.558594 104.042969 20.933594 C 104.042969 21.308594 102.921875 22.207031 102.921875 22.207031 " clip-rule="nonzero"/></clipPath><clipPath id="3abaae3da0"><path d="M 118.726562 6.609375 L 121 6.609375 L 121 8.882812 L 118.726562 8.882812 Z M 118.726562 6.609375 " clip-rule="nonzero"/></clipPath><clipPath id="adb8606c02"><path d="M 119.859375 6.617188 C 120.761719 8.492188 119.335938 8.789062 119.113281 8.566406 C 118.8125 8.339844 119.035156 6.917969 119.410156 6.765625 C 119.710938 6.617188 120.910156 7.367188 120.984375 7.742188 C 121.058594 8.039062 120.234375 8.867188 119.859375 8.867188 C 119.484375 8.867188 118.738281 8.039062 118.738281 7.664062 C 118.738281 7.292969 119.785156 6.617188 119.785156 6.617188 " clip-rule="nonzero"/></clipPath><clipPath id="74b6f17ec8"><path d="M 82.523438 3.085938 L 84.796875 3.085938 L 84.796875 5.359375 L 82.523438 5.359375 Z M 82.523438 3.085938 " clip-rule="nonzero"/></clipPath><clipPath id="2afc194ee0"><path d="M 83.65625 3.09375 C 84.628906 4.96875 83.128906 5.265625 82.90625 5.042969 C 82.679688 4.816406 82.90625 3.316406 83.207031 3.167969 C 83.503906 3.019531 84.78125 3.769531 84.78125 4.144531 C 84.855469 4.519531 84.03125 5.34375 83.65625 5.34375 C 83.28125 5.34375 82.53125 4.441406 82.53125 4.066406 C 82.53125 3.691406 83.65625 3.09375 83.65625 3.09375 " clip-rule="nonzero"/></clipPath><clipPath id="2546dae5ec"><path d="M 92.703125 18.363281 L 94.835938 18.363281 L 94.835938 20.398438 L 92.703125 20.398438 Z M 92.703125 18.363281 " clip-rule="nonzero"/></clipPath><clipPath id="c3bac686f9"><path d="M 94.675781 18.609375 C 94 20.558594 92.800781 19.808594 92.726562 19.433594 C 92.726562 19.058594 93.925781 18.234375 94.300781 18.386719 C 94.597656 18.460938 94.972656 19.882812 94.75 20.183594 C 94.523438 20.410156 93.398438 20.484375 93.101562 20.183594 C 92.800781 19.960938 92.726562 18.984375 92.949219 18.683594 C 93.175781 18.386719 94.675781 18.535156 94.675781 18.535156 " clip-rule="nonzero"/></clipPath><clipPath id="09e1f544fc"><path d="M 113.527344 33.339844 L 115.667969 33.339844 L 115.667969 35.171875 L 113.527344 35.171875 Z M 113.527344 33.339844 " clip-rule="nonzero"/></clipPath><clipPath id="7af19e43b0"><path d="M 115.664062 33.976562 C 114.6875 35.476562 113.789062 35.25 113.640625 34.875 C 113.414062 34.578125 113.5625 33.675781 113.863281 33.453125 C 114.164062 33.226562 115.363281 33.527344 115.363281 33.527344 " clip-rule="nonzero"/></clipPath><clipPath id="95940b555d"><path d="M 114.378906 53.007812 L 116.65625 53.007812 L 116.65625 55.285156 L 114.378906 55.285156 Z M 114.378906 53.007812 " clip-rule="nonzero"/></clipPath><clipPath id="be50c48bc8"><path d="M 116.636719 54.140625 C 114.765625 55.039062 114.464844 53.617188 114.6875 53.390625 C 114.988281 53.167969 116.414062 53.390625 116.5625 53.691406 C 116.710938 53.992188 115.964844 55.265625 115.589844 55.265625 C 115.214844 55.339844 114.390625 54.515625 114.390625 54.140625 C 114.390625 53.765625 115.214844 53.015625 115.664062 53.015625 C 115.964844 53.015625 116.636719 54.066406 116.636719 54.066406 " clip-rule="nonzero"/></clipPath><clipPath id="640f0da4b0"><path d="M 116.074219 70.144531 L 118.21875 70.144531 L 118.21875 72 L 116.074219 72 Z M 116.074219 70.144531 " clip-rule="nonzero"/></clipPath><clipPath id="a376891b4a"><path d="M 118.210938 70.855469 C 117.238281 72.355469 116.339844 72.054688 116.1875 71.757812 C 115.964844 71.457031 116.113281 70.480469 116.414062 70.257812 C 116.710938 70.03125 117.910156 70.332031 117.910156 70.332031 " clip-rule="nonzero"/></clipPath><clipPath id="77a94ce547"><path d="M 114.308594 39.742188 L 116.417969 39.742188 L 116.417969 41.574219 L 114.308594 41.574219 Z M 114.308594 39.742188 " clip-rule="nonzero"/></clipPath><clipPath id="92913fe695"><path d="M 116.414062 40.421875 C 115.511719 41.921875 114.613281 41.621094 114.390625 41.324219 C 114.238281 41.023438 114.390625 40.046875 114.6875 39.824219 C 114.988281 39.597656 116.1875 39.972656 116.1875 39.972656 " clip-rule="nonzero"/></clipPath><clipPath id="b3f70b8811"><path d="M 156.285156 25.046875 L 158.558594 25.046875 L 158.558594 27.324219 L 156.285156 27.324219 Z M 156.285156 25.046875 " clip-rule="nonzero"/></clipPath><clipPath id="5215fefb69"><path d="M 157.414062 25.054688 C 158.316406 26.929688 156.890625 27.230469 156.667969 27.003906 C 156.367188 26.78125 156.589844 25.28125 156.964844 25.132812 C 157.265625 24.980469 158.464844 25.730469 158.539062 26.105469 C 158.617188 26.480469 157.789062 27.304688 157.414062 27.304688 C 157.042969 27.304688 156.292969 26.707031 156.292969 26.332031 C 156.214844 25.957031 157.339844 25.054688 157.339844 25.054688 " clip-rule="nonzero"/></clipPath><clipPath id="16e76e2cfd"><path d="M 207.003906 16.625 L 209.144531 16.625 L 209.144531 18.488281 L 207.003906 18.488281 Z M 207.003906 16.625 " clip-rule="nonzero"/></clipPath><clipPath id="b10a172f9c"><path d="M 209.136719 17.335938 C 208.164062 18.835938 207.265625 18.535156 207.113281 18.234375 C 206.890625 17.933594 207.039062 16.960938 207.339844 16.734375 C 207.640625 16.511719 208.839844 16.8125 208.839844 16.8125 " clip-rule="nonzero"/></clipPath><clipPath id="c0a5bfc7db"><path d="M 211.605469 6.457031 L 213.878906 6.457031 L 213.878906 8.734375 L 211.605469 8.734375 Z M 211.605469 6.457031 " clip-rule="nonzero"/></clipPath><clipPath id="64dc23e751"><path d="M 212.738281 6.464844 C 213.636719 8.339844 212.210938 8.640625 211.988281 8.414062 C 211.6875 8.191406 211.910156 6.691406 212.285156 6.542969 C 212.585938 6.390625 213.785156 7.140625 213.859375 7.515625 C 213.9375 7.890625 213.109375 8.714844 212.738281 8.714844 C 212.363281 8.714844 211.613281 8.117188 211.613281 7.742188 C 211.535156 7.367188 212.660156 6.464844 212.660156 6.464844 " clip-rule="nonzero"/></clipPath><clipPath id="5b7791f68a"><path d="M 218.859375 39.503906 L 220.929688 39.503906 L 220.929688 41.570312 L 218.859375 41.570312 Z M 218.859375 39.503906 " clip-rule="nonzero"/></clipPath><clipPath id="e707e0ee68"><path d="M 220.757812 39.75 C 220.082031 41.699219 218.882812 40.949219 218.882812 40.574219 C 218.882812 40.273438 220.082031 39.375 220.382812 39.523438 C 220.683594 39.597656 221.058594 41.023438 220.832031 41.324219 C 220.605469 41.621094 219.484375 41.621094 219.183594 41.324219 C 218.957031 41.097656 218.957031 39.898438 219.257812 39.675781 C 219.558594 39.449219 220.757812 39.75 220.757812 39.75 " clip-rule="nonzero"/></clipPath><clipPath id="cb3a9d0e5f"><path d="M 200.808594 67.777344 L 203.148438 67.777344 L 203.148438 70.050781 L 200.808594 70.050781 Z M 200.808594 67.777344 " clip-rule="nonzero"/></clipPath><clipPath id="1550fca974"><path d="M 202.015625 67.785156 C 202.917969 69.65625 201.492188 69.957031 201.191406 69.734375 C 200.96875 69.507812 201.191406 68.082031 201.492188 67.933594 C 201.867188 67.785156 203.066406 68.535156 203.140625 68.832031 C 203.140625 69.207031 202.390625 70.03125 202.015625 70.03125 C 201.640625 70.109375 200.894531 69.433594 200.816406 69.132812 C 200.816406 68.757812 201.941406 67.785156 201.941406 67.785156 " clip-rule="nonzero"/></clipPath><clipPath id="a25f950cef"><path d="M 221.09375 69.503906 L 223.238281 69.503906 L 223.238281 71.332031 L 221.09375 71.332031 Z M 221.09375 69.503906 " clip-rule="nonzero"/></clipPath><clipPath id="9ee3f733d8"><path d="M 223.230469 70.183594 C 222.257812 71.683594 221.355469 71.382812 221.207031 71.082031 C 220.980469 70.78125 221.132812 69.808594 221.433594 69.582031 C 221.730469 69.359375 222.929688 69.734375 222.929688 69.734375 " clip-rule="nonzero"/></clipPath><clipPath id="7bca64878b"><path d="M 201.113281 20.445312 L 203.316406 20.445312 L 203.316406 22.246094 L 201.113281 22.246094 Z M 201.113281 20.445312 " clip-rule="nonzero"/></clipPath><clipPath id="5065376f80"><path d="M 203.292969 21.082031 C 202.316406 22.582031 201.417969 22.28125 201.191406 21.984375 C 201.042969 21.683594 201.191406 20.785156 201.492188 20.558594 C 201.792969 20.335938 202.992188 20.632812 202.992188 20.632812 " clip-rule="nonzero"/></clipPath><clipPath id="9a9e545269"><path d="M 179.894531 4.285156 L 182.171875 4.285156 L 182.171875 6.558594 L 179.894531 6.558594 Z M 179.894531 4.285156 " clip-rule="nonzero"/></clipPath><clipPath id="d245c7e547"><path d="M 182.152344 5.417969 C 180.277344 6.316406 179.980469 4.890625 180.203125 4.667969 C 180.503906 4.367188 181.929688 4.59375 182.078125 4.96875 C 182.226562 5.265625 181.476562 6.464844 181.101562 6.542969 C 180.804688 6.617188 179.980469 5.792969 179.902344 5.417969 C 179.902344 5.042969 180.578125 4.292969 180.878906 4.292969 C 181.253906 4.21875 182.152344 5.417969 182.152344 5.417969 " clip-rule="nonzero"/></clipPath><clipPath id="7117eddd90"><path d="M 178.695312 22.875 L 180.972656 22.875 L 180.972656 25.148438 L 178.695312 25.148438 Z M 178.695312 22.875 " clip-rule="nonzero"/></clipPath><clipPath id="73323a8781"><path d="M 180.953125 24.007812 C 179.078125 24.90625 178.78125 23.484375 179.003906 23.257812 C 179.304688 22.957031 180.730469 23.257812 180.878906 23.558594 C 181.027344 23.855469 180.277344 25.054688 179.902344 25.132812 C 179.527344 25.207031 178.703125 24.382812 178.703125 24.007812 C 178.703125 23.632812 179.605469 22.882812 179.980469 22.882812 C 180.355469 22.882812 180.953125 24.007812 180.953125 24.007812 " clip-rule="nonzero"/></clipPath><clipPath id="50277491d0"><path d="M 166.460938 19.902344 L 168.609375 19.902344 L 168.609375 22.148438 L 166.460938 22.148438 Z M 166.460938 19.902344 " clip-rule="nonzero"/></clipPath><clipPath id="2118146da2"><path d="M 167.011719 21.984375 C 167.011719 19.882812 168.433594 20.257812 168.585938 20.632812 C 168.660156 20.933594 167.835938 22.132812 167.460938 22.132812 C 167.085938 22.132812 166.335938 20.859375 166.484375 20.558594 C 166.5625 20.183594 167.683594 19.808594 167.984375 19.960938 C 168.359375 20.183594 168.660156 21.234375 168.511719 21.609375 C 168.359375 21.910156 167.085938 22.058594 167.085938 22.058594 " clip-rule="nonzero"/></clipPath><clipPath id="1a13de76b2"><path d="M 149.390625 5.605469 L 151.59375 5.605469 L 151.59375 7.4375 L 149.390625 7.4375 Z M 149.390625 5.605469 " clip-rule="nonzero"/></clipPath><clipPath id="87546f1ee0"><path d="M 151.570312 6.242188 C 150.59375 7.742188 149.695312 7.515625 149.46875 7.140625 C 149.320312 6.839844 149.46875 5.941406 149.769531 5.71875 C 150.070312 5.492188 151.269531 5.792969 151.269531 5.792969 " clip-rule="nonzero"/></clipPath><clipPath id="5007cd0a34"><path d="M 138.839844 21.472656 L 141 21.472656 L 141 23.671875 L 138.839844 23.671875 Z M 138.839844 21.472656 " clip-rule="nonzero"/></clipPath><clipPath id="a523a49595"><path d="M 140.851562 23.109375 C 138.824219 23.109375 139.199219 21.683594 139.5 21.535156 C 139.875 21.457031 141 22.28125 141 22.65625 C 141 23.03125 139.800781 23.78125 139.425781 23.632812 C 139.125 23.558594 138.75 22.433594 138.902344 22.132812 C 139.050781 21.757812 139.949219 21.382812 140.25 21.535156 C 140.625 21.609375 140.925781 23.03125 140.925781 23.03125 " clip-rule="nonzero"/></clipPath><clipPath id="dfc78e4013"><path d="M 128.21875 13.402344 L 130.359375 13.402344 L 130.359375 15.230469 L 128.21875 15.230469 Z M 128.21875 13.402344 " clip-rule="nonzero"/></clipPath><clipPath id="2ecf31ce03"><path d="M 130.355469 14.039062 C 129.382812 15.535156 128.554688 15.3125 128.332031 14.9375 C 128.105469 14.636719 128.332031 13.738281 128.632812 13.511719 C 128.929688 13.289062 130.054688 13.585938 130.054688 13.585938 " clip-rule="nonzero"/></clipPath><clipPath id="8298333ba3"><path d="M 153.285156 34.644531 L 155.558594 34.644531 L 155.558594 36.917969 L 153.285156 36.917969 Z M 153.285156 34.644531 " clip-rule="nonzero"/></clipPath><clipPath id="19d7344fee"><path d="M 154.417969 34.652344 C 155.390625 36.527344 153.894531 36.824219 153.667969 36.601562 C 153.441406 36.375 153.667969 34.875 153.96875 34.726562 C 154.269531 34.578125 155.542969 35.324219 155.542969 35.699219 C 155.617188 36.074219 154.867188 36.898438 154.417969 36.898438 C 154.042969 36.898438 153.367188 36.300781 153.292969 35.925781 C 153.292969 35.550781 154.417969 34.652344 154.417969 34.652344 " clip-rule="nonzero"/></clipPath><clipPath id="b207e80ba8"><path d="M 160.613281 64.246094 L 162.765625 64.246094 L 162.765625 66.332031 L 160.613281 66.332031 Z M 160.613281 64.246094 " clip-rule="nonzero"/></clipPath><clipPath id="ca69cdead8"><path d="M 162.738281 64.785156 C 161.464844 66.433594 160.5625 65.308594 160.640625 64.933594 C 160.789062 64.636719 162.136719 64.1875 162.4375 64.410156 C 162.738281 64.636719 162.589844 66.058594 162.289062 66.285156 C 161.988281 66.433594 160.9375 66.132812 160.714844 65.761719 C 160.488281 65.460938 160.714844 64.484375 161.015625 64.335938 C 161.3125 64.109375 162.664062 64.5625 162.664062 64.5625 " clip-rule="nonzero"/></clipPath><clipPath id="e5d52c590c"><path d="M 136.175781 69.824219 L 138.359375 69.824219 L 138.359375 72.070312 L 136.175781 72.070312 Z M 136.175781 69.824219 " clip-rule="nonzero"/></clipPath><clipPath id="a44a8ee00b"><path d="M 136.726562 71.90625 C 136.800781 69.808594 138.226562 70.183594 138.300781 70.558594 C 138.449219 70.855469 137.550781 72.054688 137.25 72.054688 C 136.875 72.054688 136.128906 70.78125 136.203125 70.480469 C 136.351562 70.109375 137.402344 69.734375 137.777344 69.882812 C 138.152344 70.109375 138.449219 71.15625 138.300781 71.53125 C 138.078125 71.832031 136.800781 71.980469 136.800781 71.980469 " clip-rule="nonzero"/></clipPath><clipPath id="075b10771b"><path d="M 129.5 70.003906 L 131.734375 70.003906 L 131.734375 72.171875 L 129.5 72.171875 Z M 129.5 70.003906 " clip-rule="nonzero"/></clipPath><clipPath id="83d77e74b5"><path d="M 131.179688 70.109375 C 131.105469 72.207031 129.679688 71.832031 129.605469 71.53125 C 129.457031 71.230469 130.355469 70.03125 130.65625 70.03125 C 131.03125 70.03125 131.78125 71.230469 131.703125 71.605469 C 131.554688 71.90625 130.503906 72.28125 130.128906 72.132812 C 129.832031 71.980469 129.382812 71.15625 129.53125 70.78125 C 129.679688 70.40625 131.03125 70.109375 131.03125 70.109375 " clip-rule="nonzero"/></clipPath><clipPath id="656c4e58a9"><path d="M 153.8125 69.664062 L 155.921875 69.664062 L 155.921875 71.496094 L 153.8125 71.496094 Z M 153.8125 69.664062 " clip-rule="nonzero"/></clipPath><clipPath id="0ea06cfe5a"><path d="M 155.917969 70.332031 C 155.015625 71.832031 154.117188 71.53125 153.894531 71.230469 C 153.742188 70.933594 153.894531 70.03125 154.191406 69.808594 C 154.492188 69.507812 155.691406 69.882812 155.691406 69.882812 " clip-rule="nonzero"/></clipPath><clipPath id="23a843fc8c"><path d="M 146.238281 68.75 L 148.578125 68.75 L 148.578125 71.023438 L 146.238281 71.023438 Z M 146.238281 68.75 " clip-rule="nonzero"/></clipPath><clipPath id="9186f86469"><path d="M 147.371094 71.007812 C 146.472656 69.132812 147.894531 68.832031 148.195312 69.058594 C 148.421875 69.28125 148.195312 70.78125 147.894531 70.933594 C 147.519531 71.007812 146.320312 70.332031 146.246094 69.957031 C 146.246094 69.582031 146.996094 68.757812 147.371094 68.757812 C 147.746094 68.757812 148.496094 69.359375 148.570312 69.734375 C 148.570312 70.109375 147.445312 71.007812 147.445312 71.007812 " clip-rule="nonzero"/></clipPath><clipPath id="07ecda2f38"><path d="M 179.296875 69.425781 L 181.570312 69.425781 L 181.570312 71.699219 L 179.296875 71.699219 Z M 179.296875 69.425781 " clip-rule="nonzero"/></clipPath><clipPath id="278568d2b7"><path d="M 180.429688 69.433594 C 181.328125 71.308594 179.902344 71.605469 179.679688 71.382812 C 179.378906 71.082031 179.679688 69.65625 179.980469 69.507812 C 180.277344 69.359375 181.476562 70.109375 181.554688 70.480469 C 181.628906 70.855469 180.804688 71.683594 180.429688 71.683594 C 180.054688 71.683594 179.304688 70.78125 179.304688 70.40625 C 179.304688 70.03125 180.429688 69.433594 180.429688 69.433594 " clip-rule="nonzero"/></clipPath><clipPath id="832eebcb70"><path d="M 190.464844 67.25 L 192.742188 67.25 L 192.742188 69.589844 L 190.464844 69.589844 Z M 190.464844 67.25 " clip-rule="nonzero"/></clipPath><clipPath id="eb82a4a7d3"><path d="M 191.597656 67.257812 C 192.496094 69.132812 191.074219 69.507812 190.773438 69.207031 C 190.546875 68.984375 190.773438 67.558594 191.074219 67.410156 C 191.449219 67.257812 192.648438 68.007812 192.722656 68.382812 C 192.722656 68.683594 191.972656 69.507812 191.597656 69.582031 C 191.222656 69.582031 190.472656 68.910156 190.472656 68.609375 C 190.398438 68.160156 191.523438 67.257812 191.523438 67.257812 " clip-rule="nonzero"/></clipPath><clipPath id="122b86a52b"><path d="M 157.691406 44.339844 L 159.839844 44.339844 L 159.839844 46.363281 L 157.691406 46.363281 Z M 157.691406 44.339844 " clip-rule="nonzero"/></clipPath><clipPath id="9ebde3873c"><path d="M 159.816406 44.847656 C 158.539062 46.496094 157.640625 45.296875 157.714844 44.996094 C 157.867188 44.621094 159.289062 44.246094 159.515625 44.472656 C 159.816406 44.621094 159.664062 46.121094 159.363281 46.269531 C 159.066406 46.496094 158.015625 46.195312 157.789062 45.820312 C 157.640625 45.519531 157.867188 44.546875 158.164062 44.394531 C 158.464844 44.171875 159.816406 44.769531 159.816406 44.769531 " clip-rule="nonzero"/></clipPath><clipPath id="1e1ee88fea"><path d="M 157.40625 50.535156 L 159.683594 50.535156 L 159.683594 52.808594 L 157.40625 52.808594 Z M 157.40625 50.535156 " clip-rule="nonzero"/></clipPath><clipPath id="8cb0157479"><path d="M 159.664062 51.667969 C 157.789062 52.640625 157.492188 51.144531 157.714844 50.917969 C 157.941406 50.691406 159.363281 50.917969 159.515625 51.21875 C 159.664062 51.515625 158.914062 52.792969 158.617188 52.792969 C 158.242188 52.867188 157.414062 52.042969 157.414062 51.667969 C 157.414062 51.292969 158.242188 50.542969 158.617188 50.542969 C 158.988281 50.542969 159.664062 51.59375 159.664062 51.59375 " clip-rule="nonzero"/></clipPath><clipPath id="d0dbbae8cc"><path d="M 185.59375 45.363281 L 187.867188 45.363281 L 187.867188 47.636719 L 185.59375 47.636719 Z M 185.59375 45.363281 " clip-rule="nonzero"/></clipPath><clipPath id="dff59a100e"><path d="M 186.726562 45.371094 C 187.625 47.246094 186.199219 47.542969 185.976562 47.320312 C 185.675781 47.019531 185.902344 45.59375 186.277344 45.445312 C 186.574219 45.296875 187.773438 46.046875 187.851562 46.421875 C 187.925781 46.796875 187.101562 47.542969 186.726562 47.621094 C 186.351562 47.621094 185.601562 47.019531 185.601562 46.644531 C 185.527344 46.269531 186.726562 45.371094 186.726562 45.371094 " clip-rule="nonzero"/></clipPath><clipPath id="7e09be484c"><path d="M 185.441406 34.941406 L 187.71875 34.941406 L 187.71875 37.21875 L 185.441406 37.21875 Z M 185.441406 34.941406 " clip-rule="nonzero"/></clipPath><clipPath id="9b696fc830"><path d="M 187.699219 36.074219 C 185.824219 36.976562 185.527344 35.550781 185.75 35.324219 C 185.976562 35.027344 187.398438 35.25 187.550781 35.625 C 187.699219 35.925781 187.023438 37.125 186.648438 37.199219 C 186.277344 37.199219 185.449219 36.449219 185.449219 36.074219 C 185.449219 35.699219 186.277344 34.875 186.648438 34.953125 C 187.023438 34.953125 187.699219 36 187.699219 36 " clip-rule="nonzero"/></clipPath><clipPath id="10f7a27e73"><path d="M 186.164062 57.628906 L 188.304688 57.628906 L 188.304688 59.457031 L 186.164062 59.457031 Z M 186.164062 57.628906 " clip-rule="nonzero"/></clipPath><clipPath id="573bd5c531"><path d="M 188.300781 58.265625 C 187.324219 59.761719 186.425781 59.539062 186.277344 59.164062 C 186.050781 58.863281 186.199219 57.964844 186.5 57.738281 C 186.800781 57.515625 188 57.8125 188 57.8125 " clip-rule="nonzero"/></clipPath><clipPath id="6eb6bbe94e"><path d="M 218.472656 23.777344 L 220.613281 23.777344 L 220.613281 25.609375 L 218.472656 25.609375 Z M 218.472656 23.777344 " clip-rule="nonzero"/></clipPath><clipPath id="7989f7684b"><path d="M 220.605469 24.457031 C 219.707031 25.957031 218.808594 25.65625 218.582031 25.355469 C 218.359375 25.054688 218.582031 24.15625 218.882812 23.855469 C 219.183594 23.632812 220.308594 24.007812 220.308594 24.007812 " clip-rule="nonzero"/></clipPath><clipPath id="c7571a6293"><path d="M 218.472656 7.855469 L 220.613281 7.855469 L 220.613281 9.683594 L 218.472656 9.683594 Z M 218.472656 7.855469 " clip-rule="nonzero"/></clipPath><clipPath id="ac3ac88dc9"><path d="M 220.605469 8.492188 C 219.707031 9.988281 218.808594 9.765625 218.582031 9.390625 C 218.359375 9.089844 218.582031 8.191406 218.882812 7.964844 C 219.183594 7.742188 220.308594 8.039062 220.308594 8.039062 " clip-rule="nonzero"/></clipPath><clipPath id="471b6adbf9"><path d="M 200.289062 6.6875 L 202.398438 6.6875 L 202.398438 8.515625 L 200.289062 8.515625 Z M 200.289062 6.6875 " clip-rule="nonzero"/></clipPath><clipPath id="1986caa62b"><path d="M 202.390625 7.367188 C 201.492188 8.867188 200.59375 8.566406 200.367188 8.265625 C 200.21875 7.964844 200.367188 7.066406 200.667969 6.765625 C 200.96875 6.542969 202.167969 6.917969 202.167969 6.917969 " clip-rule="nonzero"/></clipPath><clipPath id="db91574b8b"><path d="M 219.820312 47.839844 L 221.960938 47.839844 L 221.960938 49.667969 L 219.820312 49.667969 Z M 219.820312 47.839844 " clip-rule="nonzero"/></clipPath><clipPath id="0e7b6f8a13"><path d="M 221.957031 48.519531 C 220.980469 50.019531 220.082031 49.71875 219.933594 49.417969 C 219.707031 49.117188 219.933594 48.21875 220.234375 47.917969 C 220.457031 47.695312 221.65625 48.070312 221.65625 48.070312 " clip-rule="nonzero"/></clipPath><clipPath id="80295167ee"><path d="M 179.265625 12.90625 L 181.410156 12.90625 L 181.410156 14.738281 L 179.265625 14.738281 Z M 179.265625 12.90625 " clip-rule="nonzero"/></clipPath><clipPath id="23a1098f2f"><path d="M 181.402344 13.585938 C 180.429688 15.085938 179.527344 14.789062 179.378906 14.488281 C 179.15625 14.1875 179.304688 13.214844 179.605469 12.988281 C 179.902344 12.761719 181.101562 13.136719 181.101562 13.136719 " clip-rule="nonzero"/></clipPath><clipPath id="9bacc536d1"><path d="M 80.128906 19.414062 L 82.195312 19.414062 L 82.195312 21.542969 L 80.128906 21.542969 Z M 80.128906 19.414062 " clip-rule="nonzero"/></clipPath><clipPath id="52ae054c35"><path d="M 81.929688 21.382812 C 79.90625 20.707031 80.730469 19.507812 81.105469 19.433594 C 81.480469 19.433594 82.304688 20.632812 82.15625 21.007812 C 82.082031 21.308594 80.65625 21.683594 80.355469 21.457031 C 80.058594 21.234375 80.058594 20.035156 80.355469 19.808594 C 80.582031 19.507812 81.78125 19.507812 82.007812 19.808594 C 82.230469 20.109375 82.007812 21.308594 82.007812 21.308594 " clip-rule="nonzero"/></clipPath><clipPath id="77bd0baa72"><path d="M 111.664062 15.40625 L 113.816406 15.40625 L 113.816406 17.648438 L 111.664062 17.648438 Z M 111.664062 15.40625 " clip-rule="nonzero"/></clipPath><clipPath id="3cc7b6a9d0"><path d="M 112.214844 17.484375 C 112.214844 15.386719 113.640625 15.761719 113.789062 16.0625 C 113.863281 16.4375 113.039062 17.636719 112.664062 17.636719 C 112.289062 17.5625 111.539062 16.359375 111.691406 16.0625 C 111.765625 15.6875 112.890625 15.3125 113.191406 15.460938 C 113.5625 15.613281 113.863281 16.734375 113.714844 17.109375 C 113.5625 17.410156 112.289062 17.5625 112.289062 17.5625 " clip-rule="nonzero"/></clipPath><clipPath id="e3265c78cd"><path d="M 101.5625 69.5 L 103.902344 69.5 L 103.902344 71.773438 L 101.5625 71.773438 Z M 101.5625 69.5 " clip-rule="nonzero"/></clipPath><clipPath id="8abc6d801f"><path d="M 102.695312 71.757812 C 101.796875 69.882812 103.21875 69.582031 103.519531 69.808594 C 103.746094 70.109375 103.519531 71.53125 103.21875 71.683594 C 102.84375 71.832031 101.644531 71.082031 101.570312 70.707031 C 101.570312 70.332031 102.320312 69.582031 102.695312 69.507812 C 103.070312 69.507812 103.820312 70.109375 103.894531 70.480469 C 103.894531 70.855469 102.769531 71.757812 102.769531 71.757812 " clip-rule="nonzero"/></clipPath><clipPath id="90c8f13a4e"><path d="M 75.328125 58.332031 L 77.601562 58.332031 L 77.601562 60.605469 L 75.328125 60.605469 Z M 75.328125 58.332031 " clip-rule="nonzero"/></clipPath><clipPath id="d93196110e"><path d="M 76.460938 58.339844 C 77.359375 60.210938 75.933594 60.511719 75.632812 60.289062 C 75.410156 60.0625 75.632812 58.5625 76.007812 58.414062 C 76.308594 58.265625 77.507812 59.011719 77.582031 59.386719 C 77.582031 59.761719 76.835938 60.585938 76.460938 60.585938 C 76.085938 60.585938 75.261719 59.6875 75.335938 59.3125 C 75.335938 58.9375 76.382812 58.339844 76.382812 58.339844 " clip-rule="nonzero"/></clipPath><clipPath id="7455ed9f2a"><path d="M 0 0.0195312 L 5.234375 0.0195312 L 5.234375 74.980469 L 0 74.980469 Z M 0 0.0195312 " clip-rule="nonzero"/></clipPath><clipPath id="fb8de7bc85"><path d="M 4.421875 2.417969 C 4.273438 32.179688 3.746094 33.378906 3.671875 37.425781 C 3.375 45.820312 6.070312 71.605469 4.949219 75.953125 C 4.648438 77.003906 4.347656 77.304688 3.898438 77.679688 C 3.449219 78.054688 2.699219 78.429688 2.023438 78.429688 C 1.273438 78.351562 -0.0742188 77.828125 -0.601562 77.152344 C -1.050781 76.480469 -1.199219 75.128906 -1.050781 74.304688 C -0.898438 73.707031 -0.375 73.105469 0.148438 72.730469 C 0.675781 72.429688 1.425781 72.207031 2.097656 72.207031 C 2.699219 72.28125 3.449219 72.582031 3.898438 72.957031 C 4.347656 73.332031 4.796875 74.003906 4.949219 74.679688 C 5.023438 75.429688 4.722656 76.855469 4.121094 77.453125 C 3.523438 78.054688 2.175781 78.429688 1.425781 78.351562 C 0.75 78.277344 0.0742188 77.902344 -0.375 77.453125 C -0.75 77.003906 -0.972656 76.628906 -1.199219 75.65625 C -2.25 71.15625 -2.472656 49.941406 -2.398438 37.425781 C -2.324219 25.355469 -2.25 5.867188 -0.898438 1.742188 C -0.601562 0.84375 -0.300781 0.542969 0.148438 0.167969 C 0.675781 -0.128906 1.425781 -0.355469 2.023438 -0.28125 C 2.625 -0.203125 3.296875 0.167969 3.746094 0.621094 C 4.121094 1.070312 4.421875 2.417969 4.421875 2.417969 " clip-rule="nonzero"/></clipPath><clipPath id="11c84b7628"><path d="M 0.269531 0.0195312 L 224.761719 0.0195312 L 224.761719 6.121094 L 0.269531 6.121094 Z M 0.269531 0.0195312 " clip-rule="nonzero"/></clipPath><clipPath id="87eaadbc1b"><path d="M 2.921875 -1.480469 C 24.4375 -1.777344 25.488281 -1.105469 29.535156 -0.878906 C 40.027344 -0.28125 68.738281 -2.078125 86.355469 -1.929688 C 101.570312 -1.777344 118.738281 -0.203125 128.929688 -0.355469 C 134.554688 -0.503906 137.027344 -1.179688 142.125 -1.328125 C 149.09375 -1.480469 158.765625 -0.503906 166.710938 -0.804688 C 174.058594 -0.953125 179.980469 -2.453125 188.148438 -2.527344 C 198.945312 -2.605469 221.730469 -1.703125 225.855469 -0.128906 C 226.753906 0.246094 227.054688 0.542969 227.355469 1.144531 C 227.652344 1.820312 227.804688 3.167969 227.503906 3.917969 C 227.277344 4.519531 226.753906 5.042969 226.230469 5.34375 C 225.703125 5.640625 224.953125 5.867188 224.355469 5.71875 C 223.53125 5.492188 222.40625 4.667969 222.03125 3.992188 C 221.730469 3.46875 221.65625 2.71875 221.804688 2.117188 C 222.03125 1.371094 222.929688 0.320312 223.605469 -0.0546875 C 224.207031 -0.355469 224.953125 -0.429688 225.554688 -0.203125 C 226.230469 0.09375 227.355469 0.917969 227.578125 1.742188 C 227.878906 2.492188 227.578125 3.84375 227.203125 4.519531 C 226.828125 5.042969 226.304688 5.34375 225.628906 5.640625 C 224.429688 6.015625 223.007812 6.089844 220.683594 6.089844 C 214.683594 6.167969 196.546875 3.769531 188.972656 3.46875 C 184.703125 3.316406 182.828125 3.394531 179.003906 3.542969 C 173.90625 3.84375 166.261719 5.265625 161.164062 5.265625 C 157.414062 5.265625 155.46875 4.519531 151.269531 4.367188 C 144.074219 4.21875 132.003906 5.417969 121.734375 5.417969 C 110.492188 5.34375 99.546875 4.066406 86.355469 3.917969 C 69.636719 3.769531 40.402344 5.640625 29.535156 5.042969 C 25.1875 4.816406 23.914062 4.066406 20.3125 3.84375 C 15.292969 3.542969 4.949219 4.59375 2.324219 3.769531 C 1.425781 3.46875 1.050781 3.167969 0.75 2.71875 C 0.375 2.195312 0.226562 1.445312 0.300781 0.84375 C 0.375 0.246094 0.75 -0.429688 1.199219 -0.804688 C 1.574219 -1.253906 2.921875 -1.480469 2.921875 -1.480469 " clip-rule="nonzero"/></clipPath><clipPath id="87e11267c7"><path d="M 220.125 2.6875 L 224.761719 2.6875 L 224.761719 74.980469 L 220.125 74.980469 Z M 220.125 2.6875 " clip-rule="nonzero"/></clipPath><clipPath id="ce7e11a258"><path d="M 225.78125 5.265625 C 229.078125 54.742188 228.703125 61.335938 228.253906 66.734375 C 227.953125 70.40625 227.878906 74.53125 226.980469 76.03125 C 226.527344 76.703125 225.929688 76.929688 225.328125 77.152344 C 224.730469 77.304688 223.980469 77.304688 223.378906 77.003906 C 222.707031 76.628906 221.730469 75.65625 221.582031 74.828125 C 221.355469 74.003906 221.730469 72.730469 222.332031 72.054688 C 222.929688 71.457031 224.207031 71.007812 225.03125 71.15625 C 225.855469 71.308594 226.902344 72.207031 227.277344 72.882812 C 227.652344 73.480469 227.652344 74.230469 227.503906 74.828125 C 227.355469 75.429688 227.054688 76.105469 226.527344 76.480469 C 225.855469 77.003906 224.503906 77.304688 223.753906 77.078125 C 223.082031 77.003906 222.480469 76.480469 222.105469 76.03125 C 221.730469 75.503906 221.65625 75.203125 221.507812 74.15625 C 220.980469 70.40625 223.082031 55.714844 222.929688 46.71875 C 222.78125 38.023438 221.132812 28.578125 220.757812 21.082031 C 220.382812 15.238281 219.78125 8.265625 220.382812 5.492188 C 220.605469 4.367188 220.90625 3.691406 221.433594 3.242188 C 221.957031 2.792969 222.707031 2.644531 223.304688 2.71875 C 223.90625 2.792969 224.582031 3.09375 225.03125 3.542969 C 225.40625 3.992188 225.78125 5.265625 225.78125 5.265625 " clip-rule="nonzero"/></clipPath><clipPath id="e7c60fd1bb"><path d="M 0.867188 68.433594 L 224.761719 68.433594 L 224.761719 74.980469 L 0.867188 74.980469 Z M 0.867188 68.433594 " clip-rule="nonzero"/></clipPath><clipPath id="a083cb0825"><path d="M 3.523438 70.933594 C 18.890625 70.480469 21.140625 68.910156 25.488281 68.535156 C 33.355469 67.933594 45.652344 70.332031 58.769531 70.707031 C 77.882812 71.230469 105.542969 69.65625 129.007812 69.882812 C 152.542969 70.03125 186.5 70.78125 199.84375 71.757812 C 205.164062 72.207031 206.589844 72.804688 210.863281 73.179688 C 216.632812 73.628906 228.703125 72.957031 231.476562 74.003906 C 232.226562 74.378906 232.527344 74.679688 232.75 75.203125 C 233.050781 75.65625 233.277344 76.328125 233.125 76.929688 C 232.976562 77.679688 232.300781 78.726562 231.625 79.101562 C 231.175781 79.402344 230.425781 79.476562 229.902344 79.328125 C 229.300781 79.253906 228.703125 78.953125 228.328125 78.503906 C 227.878906 77.902344 227.503906 76.703125 227.652344 75.953125 C 227.804688 75.203125 228.703125 74.304688 229.378906 74.003906 C 229.902344 73.78125 230.652344 73.78125 231.175781 73.929688 C 231.703125 74.082031 232.300781 74.53125 232.601562 74.980469 C 232.976562 75.429688 233.199219 76.105469 233.199219 76.628906 C 233.125 77.230469 232.976562 77.902344 232.601562 78.351562 C 232.074219 78.878906 231.550781 79.179688 230.203125 79.402344 C 224.128906 80.527344 194.972656 77.152344 178.105469 76.554688 C 162.136719 75.953125 146.097656 75.503906 131.703125 75.578125 C 119.035156 75.65625 108.167969 76.480469 96.097656 76.628906 C 83.65625 76.777344 69.863281 76.929688 57.945312 76.554688 C 47.375 76.328125 32.980469 75.878906 28.183594 75.054688 C 26.6875 74.753906 26.535156 74.15625 25.1875 74.082031 C 22.863281 74.003906 18.816406 76.03125 15.367188 76.480469 C 11.695312 76.855469 5.773438 76.777344 3.523438 76.328125 C 2.699219 76.179688 2.25 76.03125 1.800781 75.65625 C 1.347656 75.28125 0.898438 74.605469 0.898438 74.003906 C 0.824219 73.257812 1.273438 72.132812 1.800781 71.605469 C 2.175781 71.230469 3.523438 70.933594 3.523438 70.933594 " clip-rule="nonzero"/></clipPath></defs><g clip-path="url(#82ea339e5c)"><g clip-path="url(#23e4c1f7c3)"><path fill="#fffb47" d="M 9.667969 1.292969 L 46.476562 1.292969 L 46.476562 71.023438 L 9.667969 71.023438 Z M 9.667969 1.292969 " fill-opacity="1" fill-rule="nonzero"/></g></g><g clip-path="url(#ea08cce3b6)"><g clip-path="url(#53b6f495cf)"><path fill="#fffb47" d="M 43.175781 25.507812 L 75.785156 25.507812 L 75.785156 68.558594 L 43.175781 68.558594 Z M 43.175781 25.507812 " fill-opacity="1" fill-rule="nonzero"/></g></g><g clip-path="url(#37e8fd15df)"><g clip-path="url(#fb4e1dab8c)"><path fill="#fffb47" d="M 78.109375 24.832031 L 114.988281 24.832031 L 114.988281 69.492188 L 78.109375 69.492188 Z M 78.109375 24.832031 " fill-opacity="1" fill-rule="nonzero"/></g></g><g clip-path="url(#6388033a12)"><g clip-path="url(#8545234757)"><path fill="#fffb47" d="M 117.761719 26.179688 L 160.191406 26.179688 L 160.191406 69.769531 L 117.761719 69.769531 Z M 117.761719 26.179688 " fill-opacity="1" fill-rule="nonzero"/></g></g><g clip-path="url(#a222ed3c0e)"><g clip-path="url(#a48ccb421b)"><path fill="#fffb47" d="M 157.640625 28.878906 L 188 28.878906 L 188 66.472656 L 157.640625 66.472656 Z M 157.640625 28.878906 " fill-opacity="1" fill-rule="nonzero"/></g></g><g clip-path="url(#6a29c5af5e)"><g clip-path="url(#8b36d94c40)"><path fill="#fffb47" d="M 186.125 2.195312 L 224.128906 2.195312 L 224.128906 70.335938 L 186.125 70.335938 Z M 186.125 2.195312 " fill-opacity="1" fill-rule="nonzero"/></g></g><g clip-path="url(#11b53e4e35)"><g clip-path="url(#25ac9aa433)"><path fill="#fffb47" d="M 24.0625 8.039062 L 32.382812 8.039062 L 32.382812 16.359375 L 24.0625 16.359375 Z M 24.0625 8.039062 " fill-opacity="1" fill-rule="nonzero"/></g></g><g clip-path="url(#21ed9e0b09)"><g clip-path="url(#cf3202ff69)"><path fill="#fffb47" d="M 52.996094 8.789062 L 61.015625 8.789062 L 61.015625 16.875 L 52.996094 16.875 Z M 52.996094 8.789062 " fill-opacity="1" fill-rule="nonzero"/></g></g><g clip-path="url(#e0f2e43725)"><g clip-path="url(#d637d3a4df)"><path fill="#fffb47" d="M 65.890625 16.660156 L 74.210938 16.660156 L 74.210938 24.980469 L 65.890625 24.980469 Z M 65.890625 16.660156 " fill-opacity="1" fill-rule="nonzero"/></g></g><g clip-path="url(#396a11332f)"><g clip-path="url(#aeaacaf2cb)"><path fill="#fffb47" d="M 89.878906 3.09375 L 98.199219 3.09375 L 98.199219 11.414062 L 89.878906 11.414062 Z M 89.878906 3.09375 " fill-opacity="1" fill-rule="nonzero"/></g></g><g clip-path="url(#78d6861df6)"><g clip-path="url(#76f902e582)"><path fill="#fffb47" d="M 116.339844 14.335938 L 124.433594 14.335938 L 124.433594 22.433594 L 116.339844 22.433594 Z M 116.339844 14.335938 " fill-opacity="1" fill-rule="nonzero"/></g></g><g clip-path="url(#b34c87b43d)"><g clip-path="url(#c3f93d0796)"><path fill="#fffb47" d="M 137.550781 5.71875 L 145.871094 5.71875 L 145.871094 14.039062 L 137.550781 14.039062 Z M 137.550781 5.71875 " fill-opacity="1" fill-rule="nonzero"/></g></g><g clip-path="url(#47b3877f1e)"><g clip-path="url(#1b2fb1c16b)"><path fill="#fffb47" d="M 149.769531 16.8125 L 157.789062 16.8125 L 157.789062 24.894531 L 149.769531 24.894531 Z M 149.769531 16.8125 " fill-opacity="1" fill-rule="nonzero"/></g></g><g clip-path="url(#678ebf088f)"><g clip-path="url(#f8cdde7045)"><path fill="#fffb47" d="M 163.414062 6.089844 L 171.667969 6.089844 L 171.667969 14.1875 L 163.414062 14.1875 Z M 163.414062 6.089844 " fill-opacity="1" fill-rule="nonzero"/></g></g><g clip-path="url(#68c7ca9264)"><g clip-path="url(#0ede756558)"><path fill="#fffb47" d="M 133.128906 5.566406 L 141.449219 5.566406 L 141.449219 13.886719 L 133.128906 13.886719 Z M 133.128906 5.566406 " fill-opacity="1" fill-rule="nonzero"/></g></g><g clip-path="url(#34a231cbea)"><g clip-path="url(#c9e1fd9d3d)"><path fill="#fffb47" d="M 99.847656 5.265625 L 107.949219 5.265625 L 107.949219 13.214844 L 99.847656 13.214844 Z M 99.847656 5.265625 " fill-opacity="1" fill-rule="nonzero"/></g></g><g clip-path="url(#c060f573c3)"><g clip-path="url(#636dd3bc3c)"><path fill="#fffb47" d="M 74.359375 8.492188 L 82.679688 8.492188 L 82.679688 16.8125 L 74.359375 16.8125 Z M 74.359375 8.492188 " fill-opacity="1" fill-rule="nonzero"/></g></g><g clip-path="url(#8dc7f254cd)"><g clip-path="url(#79179922ef)"><path fill="#fffb47" d="M 47.300781 2.644531 L 55.402344 2.644531 L 55.402344 10.589844 L 47.300781 10.589844 Z M 47.300781 2.644531 " fill-opacity="1" fill-rule="nonzero"/></g></g><g clip-path="url(#2a02ef3e0e)"><g clip-path="url(#9ec2d45785)"><path fill="#fffb47" d="M 34.332031 9.464844 L 42.652344 9.464844 L 42.652344 17.851562 L 34.332031 17.851562 Z M 34.332031 9.464844 " fill-opacity="1" fill-rule="nonzero"/></g></g><g clip-path="url(#0571ae3026)"><g clip-path="url(#421527ac03)"><path fill="#fffb47" d="M 18.589844 -1.03125 L 26.691406 -1.03125 L 26.691406 6.917969 L 18.589844 6.917969 Z M 18.589844 -1.03125 " fill-opacity="1" fill-rule="nonzero"/></g></g><g clip-path="url(#fbe4122983)"><g clip-path="url(#70cc41c276)"><path fill="#fffb47" d="M 2.398438 -2.828125 L 10.71875 -2.828125 L 10.71875 5.492188 L 2.398438 5.492188 Z M 2.398438 -2.828125 " fill-opacity="1" fill-rule="nonzero"/></g></g><g clip-path="url(#26a3148534)"><g clip-path="url(#7fccc16e3e)"><path fill="#fffb47" d="M 2.398438 5.941406 L 10.71875 5.941406 L 10.71875 14.261719 L 2.398438 14.261719 Z M 2.398438 5.941406 " fill-opacity="1" fill-rule="nonzero"/></g></g><g clip-path="url(#fe6e21cdc1)"><g clip-path="url(#1a5635395d)"><path fill="#fffb47" d="M 2.023438 31.054688 L 10.34375 31.054688 L 10.34375 39.375 L 2.023438 39.375 Z M 2.023438 31.054688 " fill-opacity="1" fill-rule="nonzero"/></g></g><g clip-path="url(#b8727b8a0e)"><g clip-path="url(#3317667ad2)"><path fill="#fffb47" d="M 1.800781 15.3125 L 9.898438 15.3125 L 9.898438 23.257812 L 1.800781 23.257812 Z M 1.800781 15.3125 " fill-opacity="1" fill-rule="nonzero"/></g></g><g clip-path="url(#5affc1d6d0)"><g clip-path="url(#b810e499c2)"><path fill="#fffb47" d="M -0.898438 56.316406 L 7.421875 56.316406 L 7.421875 64.636719 L -0.898438 64.636719 Z M -0.898438 56.316406 " fill-opacity="1" fill-rule="nonzero"/></g></g><g clip-path="url(#6c38aa5828)"><g clip-path="url(#5159bc26b8)"><path fill="#fffb47" d="M -0.449219 23.03125 L 7.871094 23.03125 L 7.871094 31.351562 L -0.449219 31.351562 Z M -0.449219 23.03125 " fill-opacity="1" fill-rule="nonzero"/></g></g><g clip-path="url(#0410a0313d)"><g clip-path="url(#1c0c2450b5)"><path fill="#fffb47" d="M 5.023438 22.957031 L 13.34375 22.957031 L 13.34375 31.277344 L 5.023438 31.277344 Z M 5.023438 22.957031 " fill-opacity="1" fill-rule="nonzero"/></g></g><g clip-path="url(#a017ea4423)"><g clip-path="url(#5362b8f6d7)"><path fill="#fffb47" d="M 2.324219 52.417969 L 10.34375 52.417969 L 10.34375 60.5 L 2.324219 60.5 Z M 2.324219 52.417969 " fill-opacity="1" fill-rule="nonzero"/></g></g><g clip-path="url(#2c54be9883)"><g clip-path="url(#97559498d5)"><path fill="#fffb47" d="M -2.097656 0.0195312 L 6.222656 0.0195312 L 6.222656 8.339844 L -2.097656 8.339844 Z M -2.097656 0.0195312 " fill-opacity="1" fill-rule="nonzero"/></g></g><g clip-path="url(#2d97b83808)"><g clip-path="url(#14e12b0476)"><path fill="#fffb47" d="M -1.875 37.425781 L 6.445312 37.425781 L 6.445312 45.746094 L -1.875 45.746094 Z M -1.875 37.425781 " fill-opacity="1" fill-rule="nonzero"/></g></g><g clip-path="url(#8cdc7db091)"><g clip-path="url(#53fd5a7f33)"><path fill="#fffb47" d="M 3.148438 60.210938 L 11.167969 60.210938 L 11.167969 68.296875 L 3.148438 68.296875 Z M 3.148438 60.210938 " fill-opacity="1" fill-rule="nonzero"/></g></g><g clip-path="url(#e6d68ba52f)"><g clip-path="url(#a9bd056f43)"><path fill="#fffb47" d="M 5.320312 68.609375 L 13.417969 68.609375 L 13.417969 76.765625 L 5.320312 76.765625 Z M 5.320312 68.609375 " fill-opacity="1" fill-rule="nonzero"/></g></g><g clip-path="url(#0be689248f)"><g clip-path="url(#a51e196331)"><path fill="#fffb47" d="M 42.578125 63.585938 L 50.597656 63.585938 L 50.597656 71.667969 L 42.578125 71.667969 Z M 42.578125 63.585938 " fill-opacity="1" fill-rule="nonzero"/></g></g><g clip-path="url(#f799d478f5)"><g clip-path="url(#d91564046e)"><path fill="#fffb47" d="M 22.414062 67.859375 L 30.734375 67.859375 L 30.734375 76.179688 L 22.414062 76.179688 Z M 22.414062 67.859375 " fill-opacity="1" fill-rule="nonzero"/></g></g><g clip-path="url(#e36c06d6bd)"><g clip-path="url(#9ace13b355)"><path fill="#fffb47" d="M 25.113281 48.144531 L 33.433594 48.144531 L 33.433594 56.464844 L 25.113281 56.464844 Z M 25.113281 48.144531 " fill-opacity="1" fill-rule="nonzero"/></g></g><g clip-path="url(#1d825e938a)"><g clip-path="url(#0a46240b5c)"><path fill="#fffb47" d="M 21.0625 22.507812 L 29.382812 22.507812 L 29.382812 30.828125 L 21.0625 30.828125 Z M 21.0625 22.507812 " fill-opacity="1" fill-rule="nonzero"/></g></g><g clip-path="url(#4713070527)"><g clip-path="url(#961431a8ed)"><path fill="#fffb47" d="M 36.128906 23.332031 L 44.453125 23.332031 L 44.453125 31.652344 L 36.128906 31.652344 Z M 36.128906 23.332031 " fill-opacity="1" fill-rule="nonzero"/></g></g><g clip-path="url(#8b7d370f39)"><g clip-path="url(#2ebb29ae56)"><path fill="#fffb47" d="M 35.679688 43.796875 L 43.703125 43.796875 L 43.703125 51.878906 L 35.679688 51.878906 Z M 35.679688 43.796875 " fill-opacity="1" fill-rule="nonzero"/></g></g><g clip-path="url(#8a25d595af)"><g clip-path="url(#a7e88462cb)"><path fill="#fffb47" d="M 31.183594 32.851562 L 39.503906 32.851562 L 39.503906 41.171875 L 31.183594 41.171875 Z M 31.183594 32.851562 " fill-opacity="1" fill-rule="nonzero"/></g></g><g clip-path="url(#b48fb32158)"><g clip-path="url(#c69c77abef)"><path fill="#fffb47" d="M 22.113281 33.152344 L 30.214844 33.152344 L 30.214844 41.097656 L 22.113281 41.097656 Z M 22.113281 33.152344 " fill-opacity="1" fill-rule="nonzero"/></g></g><g clip-path="url(#4c402338f6)"><g clip-path="url(#403e48ca65)"><path fill="#fffb47" d="M 47.75 15.835938 L 56.070312 15.835938 L 56.070312 24.15625 L 47.75 24.15625 Z M 47.75 15.835938 " fill-opacity="1" fill-rule="nonzero"/></g></g><g clip-path="url(#3c52e8c7df)"><g clip-path="url(#320e0b1855)"><path fill="#fffb47" d="M 36.957031 2.945312 L 45.277344 2.945312 L 45.277344 11.265625 L 36.957031 11.265625 Z M 36.957031 2.945312 " fill-opacity="1" fill-rule="nonzero"/></g></g><g clip-path="url(#3e4f8f0bb4)"><g clip-path="url(#bb08d080be)"><path fill="#fffb47" d="M 66.039062 3.542969 L 74.359375 3.542969 L 74.359375 11.863281 L 66.039062 11.863281 Z M 66.039062 3.542969 " fill-opacity="1" fill-rule="nonzero"/></g></g><g clip-path="url(#78fcdd35ba)"><g clip-path="url(#fc05c4258b)"><path fill="#fffb47" d="M 69.9375 30.230469 L 78.257812 30.230469 L 78.257812 38.550781 L 69.9375 38.550781 Z M 69.9375 30.230469 " fill-opacity="1" fill-rule="nonzero"/></g></g><g clip-path="url(#6585e09d93)"><g clip-path="url(#67fd716a00)"><path fill="#fffb47" d="M 65.515625 64.035156 L 73.824219 64.035156 L 73.824219 72.28125 L 65.515625 72.28125 Z M 65.515625 64.035156 " fill-opacity="1" fill-rule="nonzero"/></g></g><g clip-path="url(#b281d8171e)"><g clip-path="url(#120d319452)"><path fill="#fffb47" d="M 58.542969 64.484375 L 66.644531 64.484375 L 66.644531 72.429688 L 58.542969 72.429688 Z M 58.542969 64.484375 " fill-opacity="1" fill-rule="nonzero"/></g></g><g clip-path="url(#d83a6e5158)"><g clip-path="url(#00f122de70)"><path fill="#fffb47" d="M 94.148438 63.136719 L 102.46875 63.136719 L 102.46875 71.457031 L 94.148438 71.457031 Z M 94.148438 63.136719 " fill-opacity="1" fill-rule="nonzero"/></g></g><g clip-path="url(#3368a07733)"><g clip-path="url(#50a07fb0a6)"><path fill="#fffb47" d="M 79.90625 63.734375 L 88.226562 63.734375 L 88.226562 72.054688 L 79.90625 72.054688 Z M 79.90625 63.734375 " fill-opacity="1" fill-rule="nonzero"/></g></g><g clip-path="url(#941c258f73)"><g clip-path="url(#e28e9a04ac)"><path fill="#fffb47" d="M 70.460938 41.621094 L 78.5625 41.621094 L 78.5625 49.570312 L 70.460938 49.570312 Z M 70.460938 41.621094 " fill-opacity="1" fill-rule="nonzero"/></g></g><g clip-path="url(#7f5d982a2b)"><g clip-path="url(#3c68c38dee)"><path fill="#fffb47" d="M 98.796875 16.960938 L 107.117188 16.960938 L 107.117188 25.28125 L 98.796875 25.28125 Z M 98.796875 16.960938 " fill-opacity="1" fill-rule="nonzero"/></g></g><g clip-path="url(#3abaae3da0)"><g clip-path="url(#adb8606c02)"><path fill="#fffb47" d="M 115.738281 3.617188 L 124.058594 3.617188 L 124.058594 11.9375 L 115.738281 11.9375 Z M 115.738281 3.617188 " fill-opacity="1" fill-rule="nonzero"/></g></g><g clip-path="url(#74b6f17ec8)"><g clip-path="url(#2afc194ee0)"><path fill="#fffb47" d="M 79.53125 0.09375 L 87.851562 0.09375 L 87.851562 8.414062 L 79.53125 8.414062 Z M 79.53125 0.09375 " fill-opacity="1" fill-rule="nonzero"/></g></g><g clip-path="url(#2546dae5ec)"><g clip-path="url(#c3bac686f9)"><path fill="#fffb47" d="M 89.726562 15.386719 L 97.746094 15.386719 L 97.746094 23.46875 L 89.726562 23.46875 Z M 89.726562 15.386719 " fill-opacity="1" fill-rule="nonzero"/></g></g><g clip-path="url(#09e1f544fc)"><g clip-path="url(#7af19e43b0)"><path fill="#fffb47" d="M 110.640625 30.453125 L 118.742188 30.453125 L 118.742188 38.398438 L 110.640625 38.398438 Z M 110.640625 30.453125 " fill-opacity="1" fill-rule="nonzero"/></g></g><g clip-path="url(#95940b555d)"><g clip-path="url(#be50c48bc8)"><path fill="#fffb47" d="M 111.390625 50.019531 L 119.710938 50.019531 L 119.710938 58.339844 L 111.390625 58.339844 Z M 111.390625 50.019531 " fill-opacity="1" fill-rule="nonzero"/></g></g><g clip-path="url(#640f0da4b0)"><g clip-path="url(#a376891b4a)"><path fill="#fffb47" d="M 113.191406 67.257812 L 121.289062 67.257812 L 121.289062 75.203125 L 113.191406 75.203125 Z M 113.191406 67.257812 " fill-opacity="1" fill-rule="nonzero"/></g></g><g clip-path="url(#77a94ce547)"><g clip-path="url(#92913fe695)"><path fill="#fffb47" d="M 111.390625 36.824219 L 119.492188 36.824219 L 119.492188 44.769531 L 111.390625 44.769531 Z M 111.390625 36.824219 " fill-opacity="1" fill-rule="nonzero"/></g></g><g clip-path="url(#b3f70b8811)"><g clip-path="url(#5215fefb69)"><path fill="#fffb47" d="M 153.292969 22.058594 L 161.613281 22.058594 L 161.613281 30.378906 L 153.292969 30.378906 Z M 153.292969 22.058594 " fill-opacity="1" fill-rule="nonzero"/></g></g><g clip-path="url(#16e76e2cfd)"><g clip-path="url(#b10a172f9c)"><path fill="#fffb47" d="M 204.117188 13.738281 L 212.21875 13.738281 L 212.21875 21.683594 L 204.117188 21.683594 Z M 204.117188 13.738281 " fill-opacity="1" fill-rule="nonzero"/></g></g><g clip-path="url(#c0a5bfc7db)"><g clip-path="url(#64dc23e751)"><path fill="#fffb47" d="M 208.613281 3.46875 L 216.933594 3.46875 L 216.933594 11.789062 L 208.613281 11.789062 Z M 208.613281 3.46875 " fill-opacity="1" fill-rule="nonzero"/></g></g><g clip-path="url(#5b7791f68a)"><g clip-path="url(#e707e0ee68)"><path fill="#fffb47" d="M 215.886719 36.527344 L 223.90625 36.527344 L 223.90625 44.609375 L 215.886719 44.609375 Z M 215.886719 36.527344 " fill-opacity="1" fill-rule="nonzero"/></g></g><g clip-path="url(#cb3a9d0e5f)"><g clip-path="url(#1550fca974)"><path fill="#fffb47" d="M 197.820312 64.785156 L 206.140625 64.785156 L 206.140625 73.105469 L 197.820312 73.105469 Z M 197.820312 64.785156 " fill-opacity="1" fill-rule="nonzero"/></g></g><g clip-path="url(#a25f950cef)"><g clip-path="url(#9ee3f733d8)"><path fill="#fffb47" d="M 218.207031 66.585938 L 226.308594 66.585938 L 226.308594 74.53125 L 218.207031 74.53125 Z M 218.207031 66.585938 " fill-opacity="1" fill-rule="nonzero"/></g></g><g clip-path="url(#7bca64878b)"><g clip-path="url(#5065376f80)"><path fill="#fffb47" d="M 198.195312 17.5625 L 206.296875 17.5625 L 206.296875 25.507812 L 198.195312 25.507812 Z M 198.195312 17.5625 " fill-opacity="1" fill-rule="nonzero"/></g></g><g clip-path="url(#9a9e545269)"><g clip-path="url(#d245c7e547)"><path fill="#fffb47" d="M 176.90625 1.292969 L 185.226562 1.292969 L 185.226562 9.613281 L 176.90625 9.613281 Z M 176.90625 1.292969 " fill-opacity="1" fill-rule="nonzero"/></g></g><g clip-path="url(#7117eddd90)"><g clip-path="url(#73323a8781)"><path fill="#fffb47" d="M 175.707031 19.882812 L 184.027344 19.882812 L 184.027344 28.203125 L 175.707031 28.203125 Z M 175.707031 19.882812 " fill-opacity="1" fill-rule="nonzero"/></g></g><g clip-path="url(#50277491d0)"><g clip-path="url(#2118146da2)"><path fill="#fffb47" d="M 163.488281 16.960938 L 171.582031 16.960938 L 171.582031 25.121094 L 163.488281 25.121094 Z M 163.488281 16.960938 " fill-opacity="1" fill-rule="nonzero"/></g></g><g clip-path="url(#1a13de76b2)"><g clip-path="url(#87546f1ee0)"><path fill="#fffb47" d="M 146.472656 2.71875 L 154.574219 2.71875 L 154.574219 10.664062 L 146.472656 10.664062 Z M 146.472656 2.71875 " fill-opacity="1" fill-rule="nonzero"/></g></g><g clip-path="url(#5007cd0a34)"><g clip-path="url(#a523a49595)"><path fill="#fffb47" d="M 135.902344 18.535156 L 144.074219 18.535156 L 144.074219 26.707031 L 135.902344 26.707031 Z M 135.902344 18.535156 " fill-opacity="1" fill-rule="nonzero"/></g></g><g clip-path="url(#dfc78e4013)"><g clip-path="url(#2ecf31ce03)"><path fill="#fffb47" d="M 125.332031 10.515625 L 133.433594 10.515625 L 133.433594 18.460938 L 125.332031 18.460938 Z M 125.332031 10.515625 " fill-opacity="1" fill-rule="nonzero"/></g></g><g clip-path="url(#8298333ba3)"><g clip-path="url(#19d7344fee)"><path fill="#fffb47" d="M 150.292969 31.652344 L 158.617188 31.652344 L 158.617188 39.972656 L 150.292969 39.972656 Z M 150.292969 31.652344 " fill-opacity="1" fill-rule="nonzero"/></g></g><g clip-path="url(#b207e80ba8)"><g clip-path="url(#ca69cdead8)"><path fill="#fffb47" d="M 157.640625 61.335938 L 165.738281 61.335938 L 165.738281 69.496094 L 157.640625 69.496094 Z M 157.640625 61.335938 " fill-opacity="1" fill-rule="nonzero"/></g></g><g clip-path="url(#e5d52c590c)"><g clip-path="url(#a44a8ee00b)"><path fill="#fffb47" d="M 133.203125 66.882812 L 141.300781 66.882812 L 141.300781 75.042969 L 133.203125 75.042969 Z M 133.203125 66.882812 " fill-opacity="1" fill-rule="nonzero"/></g></g><g clip-path="url(#075b10771b)"><g clip-path="url(#83d77e74b5)"><path fill="#fffb47" d="M 126.53125 67.035156 L 134.703125 67.035156 L 134.703125 75.203125 L 126.53125 75.203125 Z M 126.53125 67.035156 " fill-opacity="1" fill-rule="nonzero"/></g></g><g clip-path="url(#656c4e58a9)"><g clip-path="url(#0ea06cfe5a)"><path fill="#fffb47" d="M 150.894531 66.808594 L 158.996094 66.808594 L 158.996094 74.753906 L 150.894531 74.753906 Z M 150.894531 66.808594 " fill-opacity="1" fill-rule="nonzero"/></g></g><g clip-path="url(#23a843fc8c)"><g clip-path="url(#9186f86469)"><path fill="#fffb47" d="M 143.25 65.761719 L 151.570312 65.761719 L 151.570312 74.082031 L 143.25 74.082031 Z M 143.25 65.761719 " fill-opacity="1" fill-rule="nonzero"/></g></g><g clip-path="url(#07ecda2f38)"><g clip-path="url(#278568d2b7)"><path fill="#fffb47" d="M 176.304688 66.433594 L 184.625 66.433594 L 184.625 74.753906 L 176.304688 74.753906 Z M 176.304688 66.433594 " fill-opacity="1" fill-rule="nonzero"/></g></g><g clip-path="url(#832eebcb70)"><g clip-path="url(#eb82a4a7d3)"><path fill="#fffb47" d="M 187.476562 64.261719 L 195.796875 64.261719 L 195.796875 72.582031 L 187.476562 72.582031 Z M 187.476562 64.261719 " fill-opacity="1" fill-rule="nonzero"/></g></g><g clip-path="url(#122b86a52b)"><g clip-path="url(#9ebde3873c)"><path fill="#fffb47" d="M 154.71875 41.398438 L 162.8125 41.398438 L 162.8125 49.492188 L 154.71875 49.492188 Z M 154.71875 41.398438 " fill-opacity="1" fill-rule="nonzero"/></g></g><g clip-path="url(#1e1ee88fea)"><g clip-path="url(#8cb0157479)"><path fill="#fffb47" d="M 154.417969 47.542969 L 162.738281 47.542969 L 162.738281 55.863281 L 154.417969 55.863281 Z M 154.417969 47.542969 " fill-opacity="1" fill-rule="nonzero"/></g></g><g clip-path="url(#d0dbbae8cc)"><g clip-path="url(#dff59a100e)"><path fill="#fffb47" d="M 182.601562 42.371094 L 190.921875 42.371094 L 190.921875 50.691406 L 182.601562 50.691406 Z M 182.601562 42.371094 " fill-opacity="1" fill-rule="nonzero"/></g></g><g clip-path="url(#7e09be484c)"><g clip-path="url(#9b696fc830)"><path fill="#fffb47" d="M 182.453125 31.953125 L 190.773438 31.953125 L 190.773438 40.273438 L 182.453125 40.273438 Z M 182.453125 31.953125 " fill-opacity="1" fill-rule="nonzero"/></g></g><g clip-path="url(#10f7a27e73)"><g clip-path="url(#573bd5c531)"><path fill="#fffb47" d="M 183.277344 54.742188 L 191.378906 54.742188 L 191.378906 62.6875 L 183.277344 62.6875 Z M 183.277344 54.742188 " fill-opacity="1" fill-rule="nonzero"/></g></g><g clip-path="url(#6eb6bbe94e)"><g clip-path="url(#7989f7684b)"><path fill="#fffb47" d="M 215.585938 20.859375 L 223.6875 20.859375 L 223.6875 28.804688 L 215.585938 28.804688 Z M 215.585938 20.859375 " fill-opacity="1" fill-rule="nonzero"/></g></g><g clip-path="url(#c7571a6293)"><g clip-path="url(#ac3ac88dc9)"><path fill="#fffb47" d="M 215.585938 4.96875 L 223.6875 4.96875 L 223.6875 12.914062 L 215.585938 12.914062 Z M 215.585938 4.96875 " fill-opacity="1" fill-rule="nonzero"/></g></g><g clip-path="url(#471b6adbf9)"><g clip-path="url(#1986caa62b)"><path fill="#fffb47" d="M 197.371094 3.769531 L 205.46875 3.769531 L 205.46875 11.714844 L 197.371094 11.714844 Z M 197.371094 3.769531 " fill-opacity="1" fill-rule="nonzero"/></g></g><g clip-path="url(#db91574b8b)"><g clip-path="url(#0e7b6f8a13)"><path fill="#fffb47" d="M 216.933594 44.921875 L 225.035156 44.921875 L 225.035156 52.867188 L 216.933594 52.867188 Z M 216.933594 44.921875 " fill-opacity="1" fill-rule="nonzero"/></g></g><g clip-path="url(#80295167ee)"><g clip-path="url(#23a1098f2f)"><path fill="#fffb47" d="M 176.382812 9.988281 L 184.480469 9.988281 L 184.480469 17.933594 L 176.382812 17.933594 Z M 176.382812 9.988281 " fill-opacity="1" fill-rule="nonzero"/></g></g><g clip-path="url(#9bacc536d1)"><g clip-path="url(#52ae054c35)"><path fill="#fffb47" d="M 77.058594 16.4375 L 85.140625 16.4375 L 85.140625 24.457031 L 77.058594 24.457031 Z M 77.058594 16.4375 " fill-opacity="1" fill-rule="nonzero"/></g></g><g clip-path="url(#77bd0baa72)"><g clip-path="url(#3cc7b6a9d0)"><path fill="#fffb47" d="M 108.691406 12.464844 L 116.789062 12.464844 L 116.789062 20.621094 L 108.691406 20.621094 Z M 108.691406 12.464844 " fill-opacity="1" fill-rule="nonzero"/></g></g><g clip-path="url(#e3265c78cd)"><g clip-path="url(#8abc6d801f)"><path fill="#fffb47" d="M 98.574219 66.507812 L 106.894531 66.507812 L 106.894531 74.828125 L 98.574219 74.828125 Z M 98.574219 66.507812 " fill-opacity="1" fill-rule="nonzero"/></g></g><g clip-path="url(#90c8f13a4e)"><g clip-path="url(#d93196110e)"><path fill="#fffb47" d="M 72.335938 55.339844 L 80.65625 55.339844 L 80.65625 63.660156 L 72.335938 63.660156 Z M 72.335938 55.339844 " fill-opacity="1" fill-rule="nonzero"/></g></g><g clip-path="url(#7455ed9f2a)"><g clip-path="url(#fb8de7bc85)"><path fill="#1e1e1e" d="M -5.398438 -3.277344 L 7.945312 -3.277344 L 7.945312 81.417969 L -5.398438 81.417969 Z M -5.398438 -3.277344 " fill-opacity="1" fill-rule="nonzero"/></g></g><g clip-path="url(#11c84b7628)"><g clip-path="url(#87eaadbc1b)"><path fill="#1e1e1e" d="M -2.699219 -5.527344 L 230.664062 -5.527344 L 230.664062 9.089844 L -2.699219 9.089844 Z M -2.699219 -5.527344 " fill-opacity="1" fill-rule="nonzero"/></g></g><g clip-path="url(#87e11267c7)"><g clip-path="url(#ce7e11a258)"><path fill="#1e1e1e" d="M 217.382812 -0.28125 L 232 -0.28125 L 232 80.171875 L 217.382812 80.171875 Z M 217.382812 -0.28125 " fill-opacity="1" fill-rule="nonzero"/></g></g><g clip-path="url(#e7c60fd1bb)"><g clip-path="url(#a083cb0825)"><path fill="#1e1e1e" d="M -2.097656 65.535156 L 236.199219 65.535156 L 236.199219 82.402344 L -2.097656 82.402344 Z M -2.097656 65.535156 " fill-opacity="1" fill-rule="nonzero"/></g></g></svg>