<svg xmlns="http://www.w3.org/2000/svg" xmlns:xlink="http://www.w3.org/1999/xlink" width="40" zoomAndPan="magnify" viewBox="0 0 30 30.000001" height="40" preserveAspectRatio="xMidYMid meet" version="1.0"><defs><clipPath id="89a4ec7eeb"><path d="M 1.683594 1.003906 L 27.878906 1.003906 L 27.878906 28.570312 L 1.683594 28.570312 Z M 1.683594 1.003906 " clip-rule="nonzero"/></clipPath><clipPath id="149b945697"><path d="M 25.742188 4.355469 C 19.644531 10.597656 14.566406 13.210938 11.296875 14.734375 C 8.757812 15.96875 5.78125 17.347656 4.257812 17.347656 C 3.53125 17.347656 3.023438 17.128906 2.589844 16.695312 C 2.152344 16.332031 1.789062 15.675781 1.71875 15.097656 C 1.71875 14.445312 2.007812 13.355469 2.589844 12.917969 C 3.167969 12.410156 4.039062 12.265625 5.347656 12.484375 C 9.121094 13.066406 24.144531 21.121094 26.757812 23.734375 C 27.554688 24.53125 27.847656 25.183594 27.847656 25.839844 C 27.917969 26.417969 27.703125 27 27.339844 27.433594 C 26.902344 27.945312 25.886719 28.523438 25.160156 28.453125 C 24.289062 28.304688 22.984375 27.21875 22.765625 26.417969 C 22.546875 25.695312 22.910156 24.53125 23.417969 24.097656 C 24 23.515625 25.742188 23.152344 26.539062 23.589844 C 27.265625 23.953125 27.847656 25.621094 27.773438 26.417969 C 27.773438 27 27.410156 27.507812 26.976562 27.796875 C 26.394531 28.234375 25.667969 28.523438 24.582031 28.304688 C 21.386719 27.871094 9.195312 21.046875 6.726562 18.871094 C 5.925781 18.144531 6.074219 17.347656 5.417969 17.054688 C 4.839844 16.765625 3.675781 17.417969 3.097656 17.054688 C 2.445312 16.765625 1.789062 15.824219 1.71875 15.097656 C 1.71875 14.371094 2.152344 13.425781 3.097656 12.554688 C 5.128906 10.667969 12.675781 8.347656 15.726562 6.75 C 17.539062 5.804688 18.703125 5.152344 19.933594 4.210938 C 21.097656 3.265625 21.894531 1.523438 22.910156 1.160156 C 23.710938 0.871094 24.871094 1.089844 25.378906 1.453125 C 25.816406 1.742188 26.105469 2.394531 26.175781 2.832031 C 26.175781 3.339844 25.742188 4.355469 25.742188 4.355469 " clip-rule="nonzero"/></clipPath></defs><g clip-path="url(#89a4ec7eeb)"><g clip-path="url(#149b945697)"><rect x="-3" width="36" fill="#fffb47" y="-3" height="36.000001" fill-opacity="1"/></g></g></svg>