<svg xmlns="http://www.w3.org/2000/svg" xmlns:xlink="http://www.w3.org/1999/xlink" width="600" zoomAndPan="magnify" viewBox="0 0 450 149.999998" height="200" preserveAspectRatio="xMidYMid meet" version="1.0"><defs><clipPath id="2bcd7d7307"><path d="M 99.382812 67.566406 L 100.832031 67.566406 L 100.832031 68.820312 L 99.382812 68.820312 Z M 99.382812 67.566406 " clip-rule="nonzero"/></clipPath><clipPath id="37e5eeedb9"><path d="M 100.828125 68.03125 C 100.210938 69.0625 99.59375 68.855469 99.4375 68.648438 C 99.335938 68.445312 99.4375 67.773438 99.644531 67.621094 C 99.851562 67.464844 100.671875 67.722656 100.671875 67.722656 " clip-rule="nonzero"/></clipPath><clipPath id="b2cb53d543"><path d="M 7 48.171875 L 16.710938 48.171875 L 16.710938 100.820312 L 7 100.820312 Z M 7 48.171875 " clip-rule="nonzero"/></clipPath><clipPath id="bfbfa2bd8a"><path d="M 16.699219 50.085938 C 13.871094 63.042969 13.921875 66.644531 13.355469 70.089844 C 12.789062 73.636719 11.660156 76.671875 11.144531 80.734375 C 10.527344 86.082031 11.96875 97.035156 10.628906 99.554688 C 10.21875 100.378906 9.449219 100.738281 8.933594 100.789062 C 8.574219 100.839844 8.160156 100.6875 7.90625 100.429688 C 7.597656 100.121094 7.234375 99.402344 7.234375 98.9375 C 7.289062 98.476562 7.75 97.804688 8.109375 97.550781 C 8.417969 97.34375 8.832031 97.242188 9.191406 97.34375 C 9.652344 97.445312 10.320312 97.910156 10.527344 98.269531 C 10.734375 98.578125 10.785156 99.039062 10.683594 99.402344 C 10.578125 99.8125 10.117188 100.480469 9.703125 100.632812 C 9.242188 100.839844 8.46875 100.738281 8.058594 100.53125 C 7.75 100.378906 7.542969 100.070312 7.339844 99.65625 C 7.132812 99.144531 7.082031 98.578125 7.03125 97.496094 C 6.929688 94.359375 7.441406 85.875 8.316406 78.984375 C 9.394531 70.242188 11.710938 52.605469 13.714844 49.367188 C 14.28125 48.542969 14.898438 48.234375 15.359375 48.183594 C 15.824219 48.183594 16.339844 48.644531 16.542969 49.003906 C 16.75 49.261719 16.699219 50.085938 16.699219 50.085938 " clip-rule="nonzero"/></clipPath><clipPath id="0d04250a6d"><path d="M 18.832031 49.105469 L 30 49.105469 L 30 101.78125 L 18.832031 101.78125 Z M 18.832031 49.105469 " clip-rule="nonzero"/></clipPath><clipPath id="daf285cb25"><path d="M 29.964844 51.011719 C 28.9375 59.085938 29.453125 61.5 29.039062 64.382812 C 28.472656 68.289062 25.902344 74.152344 25.234375 77.699219 C 24.824219 80.015625 25.082031 81.300781 24.773438 83.511719 C 24.308594 86.597656 22.816406 91.277344 22.40625 94.414062 C 22.148438 96.777344 22.867188 99.503906 22.253906 100.6875 C 21.890625 101.355469 21.121094 101.765625 20.605469 101.765625 C 20.144531 101.816406 19.527344 101.355469 19.269531 100.996094 C 19.0625 100.6875 19.011719 100.324219 19.0625 99.964844 C 19.167969 99.554688 19.578125 98.9375 19.9375 98.730469 C 20.195312 98.527344 20.605469 98.476562 20.964844 98.527344 C 21.378906 98.628906 21.945312 99.09375 22.148438 99.453125 C 22.355469 99.761719 22.40625 100.171875 22.304688 100.480469 C 22.097656 100.941406 21.273438 101.765625 20.761719 101.765625 C 20.246094 101.816406 19.476562 101.355469 19.113281 100.6875 C 18.5 99.453125 19.113281 96.625 19.371094 93.898438 C 19.835938 89.527344 21.273438 82.277344 22.40625 76.980469 C 23.433594 72.300781 25.183594 67.722656 25.75 63.765625 C 26.160156 60.679688 25.75 57.796875 26.007812 55.382812 C 26.160156 53.53125 26.46875 51.472656 26.828125 50.496094 C 27.035156 50.035156 27.136719 49.777344 27.394531 49.519531 C 27.652344 49.3125 28.113281 49.160156 28.472656 49.160156 C 28.835938 49.160156 29.246094 49.3125 29.503906 49.621094 C 29.8125 49.929688 29.964844 51.011719 29.964844 51.011719 " clip-rule="nonzero"/></clipPath><clipPath id="11a8a5744a"><path d="M 5.316406 61.535156 L 36.773438 61.535156 L 36.773438 68.5625 L 5.316406 68.5625 Z M 5.316406 61.535156 " clip-rule="nonzero"/></clipPath><clipPath id="03ecc86243"><path d="M 6.722656 61.550781 C 24.515625 62.839844 33.410156 64.382812 35.570312 65.460938 C 36.238281 65.820312 36.496094 66.078125 36.652344 66.4375 C 36.804688 66.746094 36.804688 67.15625 36.652344 67.464844 C 36.445312 67.878906 35.570312 68.496094 35.109375 68.546875 C 34.800781 68.546875 34.4375 68.390625 34.183594 68.1875 C 33.875 67.878906 33.617188 67.210938 33.617188 66.847656 C 33.617188 66.488281 33.769531 66.128906 34.027344 65.921875 C 34.335938 65.667969 35.003906 65.410156 35.417969 65.460938 C 35.726562 65.460938 36.085938 65.613281 36.289062 65.871094 C 36.546875 66.230469 36.753906 66.902344 36.703125 67.3125 C 36.652344 67.621094 36.445312 67.929688 36.1875 68.136719 C 35.878906 68.390625 35.519531 68.496094 34.800781 68.496094 C 32.382812 68.496094 24.101562 65.511719 19.167969 64.84375 C 14.691406 64.226562 8.265625 65.359375 6.363281 64.382812 C 5.695312 63.96875 5.230469 63.25 5.332031 62.785156 C 5.386719 62.324219 6.722656 61.550781 6.722656 61.550781 " clip-rule="nonzero"/></clipPath><clipPath id="85106e6a15"><path d="M 4.503906 77.742188 L 32.941406 77.742188 L 32.941406 84.21875 L 4.503906 84.21875 Z M 4.503906 77.742188 " clip-rule="nonzero"/></clipPath><clipPath id="3cd1778cba"><path d="M 5.949219 77.75 C 18.191406 78.472656 23.589844 80.375 26.828125 80.835938 C 28.886719 81.144531 30.941406 80.632812 31.917969 81.195312 C 32.484375 81.554688 32.84375 82.277344 32.898438 82.738281 C 32.898438 83.046875 32.742188 83.40625 32.484375 83.613281 C 32.226562 83.871094 31.609375 84.179688 31.199219 84.078125 C 30.789062 84.023438 30.222656 83.613281 30.070312 83.253906 C 29.863281 82.996094 29.8125 82.636719 29.914062 82.328125 C 30.015625 81.917969 30.480469 81.402344 30.789062 81.195312 C 31.097656 81.09375 31.457031 81.042969 31.765625 81.144531 C 32.175781 81.351562 32.792969 82.121094 32.898438 82.585938 C 32.949219 82.894531 32.84375 83.253906 32.589844 83.511719 C 32.382812 83.769531 31.917969 84.023438 31.355469 84.128906 C 30.273438 84.332031 28.320312 84.023438 26.519531 83.714844 C 24.101562 83.253906 21.273438 81.710938 18.191406 81.195312 C 14.4375 80.578125 7.441406 81.609375 5.589844 80.578125 C 4.871094 80.21875 4.460938 79.5 4.511719 79.035156 C 4.5625 78.574219 5.949219 77.75 5.949219 77.75 " clip-rule="nonzero"/></clipPath><clipPath id="7f6a0450e7"><path d="M 34.804688 54.257812 L 68.578125 54.257812 L 68.578125 98.601562 L 34.804688 98.601562 Z M 34.804688 54.257812 " clip-rule="nonzero"/></clipPath><clipPath id="78cea330da"><path d="M 44.261719 56 C 42.976562 68.238281 42.511719 68.1875 42.050781 69.164062 C 40.96875 71.476562 38.914062 78.625 38.347656 81.863281 C 38.039062 83.871094 38.089844 84.898438 38.140625 86.75 C 38.191406 89.117188 39.324219 93.433594 38.863281 94.925781 C 38.65625 95.542969 38.246094 95.957031 37.78125 96.109375 C 37.320312 96.316406 36.546875 96.210938 36.136719 95.957031 C 35.777344 95.648438 35.570312 95.234375 35.417969 94.515625 C 34.902344 92.304688 35.3125 83.253906 35.671875 80.734375 C 35.777344 79.808594 35.878906 79.601562 36.1875 78.832031 C 36.652344 77.492188 37.578125 75.488281 38.65625 73.484375 C 40.097656 70.757812 42.871094 65.253906 44.414062 64.019531 C 45.085938 63.507812 45.699219 63.351562 46.214844 63.507812 C 46.679688 63.609375 47.242188 64.125 47.449219 64.585938 C 47.605469 65.050781 47.191406 66.179688 47.242188 66.179688 C 47.242188 66.179688 47.398438 65.511719 47.347656 65.511719 C 47.347656 65.460938 47.140625 66.335938 46.832031 66.644531 C 46.574219 66.902344 46.113281 67.105469 45.699219 67.15625 C 45.339844 67.15625 44.828125 67.054688 44.519531 66.796875 C 44.160156 66.488281 43.746094 65.820312 43.851562 65.308594 C 44.054688 64.277344 46.933594 62.222656 48.015625 61.605469 C 48.632812 61.246094 49.042969 61.089844 49.558594 61.089844 C 50.019531 61.039062 50.535156 61.089844 51.050781 61.347656 C 51.871094 61.707031 53.15625 62.476562 53.824219 63.507812 C 54.597656 64.636719 54.804688 66.230469 55.007812 68.1875 C 55.367188 71.066406 55.113281 77.492188 54.75 79.292969 C 54.648438 79.910156 54.597656 80.21875 54.289062 80.527344 C 53.980469 80.886719 53.210938 81.144531 52.695312 81.144531 C 52.285156 81.09375 51.820312 80.835938 51.5625 80.527344 C 51.253906 80.21875 51.152344 79.910156 51.101562 79.292969 C 50.84375 77.75 51.152344 72.917969 51.71875 70.65625 C 52.128906 69.113281 52.59375 68.082031 53.414062 66.902344 C 54.390625 65.511719 55.984375 63.765625 57.324219 62.941406 C 58.300781 62.324219 59.277344 62.015625 60.355469 61.914062 C 61.488281 61.859375 62.824219 61.964844 63.90625 62.53125 C 65.085938 63.148438 66.320312 64.585938 67.09375 65.71875 C 67.761719 66.746094 68.226562 67.3125 68.429688 68.90625 C 68.894531 73.070312 64.058594 89.527344 64.367188 92.714844 C 64.417969 93.539062 64.523438 93.847656 64.933594 94.257812 C 65.449219 94.773438 66.9375 94.722656 67.503906 95.234375 C 67.917969 95.648438 68.277344 96.316406 68.171875 96.828125 C 68.121094 97.394531 67.300781 98.371094 66.734375 98.476562 C 66.117188 98.578125 65.035156 98.011719 64.726562 97.496094 C 64.417969 97.035156 64.472656 96.210938 64.726562 95.75 C 65.085938 95.285156 66.21875 94.722656 66.785156 94.875 C 67.351562 95.03125 68.121094 96.007812 68.171875 96.625 C 68.277344 97.136719 67.8125 97.859375 67.453125 98.167969 C 67.144531 98.421875 66.785156 98.476562 66.320312 98.527344 C 65.550781 98.527344 64.109375 98.21875 63.339844 97.859375 C 62.773438 97.601562 62.363281 97.34375 62.003906 96.828125 C 61.4375 96.058594 61.027344 94.824219 60.871094 93.433594 C 60.664062 91.222656 61.28125 88.035156 61.796875 84.796875 C 62.414062 80.734375 64.265625 73.429688 64.574219 70.859375 C 64.675781 69.933594 64.832031 69.472656 64.675781 68.855469 C 64.523438 68.289062 64.164062 67.828125 63.800781 67.3125 C 63.441406 66.847656 62.980469 66.230469 62.464844 65.921875 C 62.003906 65.667969 61.488281 65.5625 60.972656 65.5625 C 60.410156 65.5625 59.84375 65.667969 59.277344 65.976562 C 58.503906 66.386719 57.632812 67.363281 56.964844 68.238281 C 56.292969 69.164062 55.625 70.039062 55.265625 71.425781 C 54.648438 73.484375 55.214844 78.316406 54.699219 79.757812 C 54.546875 80.324219 54.289062 80.578125 53.980469 80.835938 C 53.621094 81.042969 53.105469 81.246094 52.695312 81.144531 C 52.179688 80.992188 51.511719 80.527344 51.152344 79.757812 C 50.328125 77.90625 51.613281 71.683594 51.359375 69.0625 C 51.253906 67.464844 51.253906 65.921875 50.636719 65.359375 C 50.277344 65 49.609375 65 49.042969 65.152344 C 48.167969 65.359375 46.265625 67.210938 46.113281 67.054688 C 46.0625 67.003906 47.347656 65.460938 47.347656 65.511719 C 47.398438 65.511719 46.933594 66.644531 46.523438 66.902344 C 46.113281 67.15625 45.339844 67.210938 44.878906 67.003906 C 44.414062 66.746094 43.851562 65.820312 43.851562 65.253906 C 43.851562 64.792969 44.261719 64.175781 44.621094 63.867188 C 44.929688 63.609375 45.394531 63.402344 45.804688 63.457031 C 46.265625 63.457031 46.988281 63.816406 47.242188 64.175781 C 47.5 64.585938 47.605469 65.101562 47.449219 65.820312 C 46.988281 67.773438 42.871094 72.96875 41.433594 75.796875 C 40.40625 77.75 39.683594 78.78125 39.222656 80.9375 C 38.449219 84.4375 39.683594 92.816406 38.863281 94.925781 C 38.554688 95.59375 38.246094 95.957031 37.78125 96.109375 C 37.320312 96.316406 36.546875 96.160156 36.136719 95.957031 C 35.828125 95.75 35.621094 95.441406 35.46875 94.925781 C 35.003906 93.691406 34.953125 90.554688 34.953125 88.34375 C 34.953125 86.03125 34.902344 83.921875 35.417969 81.246094 C 36.035156 77.597656 38.246094 70.808594 39.117188 68.445312 C 39.480469 67.519531 39.53125 66.953125 39.992188 66.539062 C 40.457031 66.128906 41.84375 65.921875 41.84375 65.976562 C 41.84375 65.976562 40.40625 67.054688 39.992188 66.796875 C 39.117188 66.128906 40.558594 57.234375 41.125 55.585938 C 41.332031 55.074219 41.484375 54.867188 41.792969 54.660156 C 42.050781 54.457031 42.511719 54.351562 42.871094 54.40625 C 43.234375 54.457031 43.644531 54.660156 43.851562 54.917969 C 44.105469 55.175781 44.261719 56 44.261719 56 " clip-rule="nonzero"/></clipPath><clipPath id="4562d87d13"><path d="M 72.09375 60.230469 L 93.976562 60.230469 L 93.976562 100.261719 L 72.09375 100.261719 Z M 72.09375 60.230469 " clip-rule="nonzero"/></clipPath><clipPath id="b2bba2caf7"><path d="M 76.65625 70.347656 C 87.921875 70.601562 89.050781 70.039062 89.617188 69.421875 C 89.976562 69.007812 90.183594 68.496094 90.183594 67.980469 C 90.183594 67.414062 89.875 66.847656 89.460938 66.285156 C 88.949219 65.5625 88.226562 64.585938 87.097656 64.175781 C 85.503906 63.558594 81.644531 63.660156 80.207031 64.074219 C 79.488281 64.328125 79.179688 64.691406 78.714844 65.203125 C 77.996094 65.921875 77.121094 67.15625 76.65625 68.289062 C 76.195312 69.421875 75.9375 70.808594 75.835938 71.835938 C 75.734375 72.558594 75.734375 72.917969 75.835938 73.6875 C 75.988281 74.972656 77.070312 76.980469 77.328125 78.882812 C 77.636719 81.09375 77.070312 84.589844 77.378906 86.082031 C 77.480469 86.75 77.582031 86.957031 77.890625 87.523438 C 78.507812 88.550781 79.796875 90.042969 81.183594 91.328125 C 82.984375 93.074219 88.175781 95.800781 88.023438 96.726562 C 87.972656 97.136719 86.429688 97.601562 86.273438 97.445312 C 85.964844 97.035156 89.71875 91.222656 91.210938 90.554688 C 91.980469 90.195312 92.960938 90.351562 93.421875 90.761719 C 93.832031 91.171875 93.9375 92.40625 93.78125 92.921875 C 93.628906 93.28125 93.320312 93.589844 92.960938 93.691406 C 92.496094 93.898438 91.675781 93.898438 91.261719 93.640625 C 90.800781 93.382812 90.386719 92.664062 90.386719 92.203125 C 90.335938 91.6875 90.644531 90.96875 91.058594 90.660156 C 91.46875 90.351562 92.238281 90.195312 92.753906 90.351562 C 93.214844 90.503906 93.78125 91.121094 93.886719 91.585938 C 94.039062 92.046875 93.832031 92.5625 93.578125 93.230469 C 92.960938 94.566406 90.59375 97.394531 89.667969 98.476562 C 89.207031 99.039062 89.050781 99.402344 88.640625 99.710938 C 88.175781 99.964844 87.765625 100.273438 87.046875 100.121094 C 85.246094 99.761719 80.257812 95.492188 78.046875 93.382812 C 76.554688 91.945312 75.371094 90.554688 74.652344 89.21875 C 74.085938 88.140625 73.882812 87.367188 73.675781 86.082031 C 73.367188 84.230469 73.933594 81.09375 73.625 78.984375 C 73.367188 77.238281 72.390625 75.898438 72.234375 74.304688 C 72.03125 72.660156 72.082031 70.964844 72.542969 69.265625 C 73.058594 67.363281 74.292969 64.945312 75.371094 63.507812 C 76.246094 62.425781 77.328125 61.5 78.199219 60.988281 C 78.765625 60.679688 79.074219 60.574219 79.847656 60.472656 C 81.390625 60.214844 85.347656 60.164062 86.890625 60.371094 C 87.714844 60.523438 88.125 60.628906 88.742188 60.988281 C 89.566406 61.398438 90.542969 62.066406 91.3125 62.839844 C 92.085938 63.710938 92.960938 64.792969 93.371094 65.921875 C 93.730469 67.003906 93.78125 68.445312 93.679688 69.367188 C 93.628906 70.039062 93.578125 70.5 93.164062 71.015625 C 92.652344 71.734375 91.417969 72.402344 90.386719 72.917969 C 89.359375 73.484375 88.484375 73.945312 87.046875 74.152344 C 84.472656 74.5625 77.636719 74.046875 76.09375 73.429688 C 75.578125 73.226562 75.371094 73.019531 75.167969 72.710938 C 75.011719 72.453125 74.910156 71.992188 75.011719 71.632812 C 75.0625 71.273438 75.320312 70.859375 75.578125 70.65625 C 75.886719 70.449219 76.65625 70.347656 76.65625 70.347656 " clip-rule="nonzero"/></clipPath><clipPath id="a7921c5dc6"><path d="M 98.40625 59.472656 L 140.40625 59.472656 L 140.40625 99.425781 L 98.40625 99.425781 Z M 98.40625 59.472656 " clip-rule="nonzero"/></clipPath><clipPath id="e6d6113ce9"><path d="M 103.296875 61.246094 C 103.605469 78.832031 102.882812 81.609375 102.730469 84.898438 C 102.574219 88.449219 103.449219 93.898438 102.832031 95.902344 C 102.574219 96.777344 102.214844 97.394531 101.648438 97.601562 C 101.136719 97.804688 100.160156 97.601562 99.695312 97.085938 C 98.925781 96.316406 99.128906 94.050781 99.027344 91.996094 C 98.769531 88.910156 98.152344 84.230469 98.925781 80.167969 C 99.746094 75.4375 102.730469 68.289062 104.53125 65.5625 C 105.351562 64.328125 106.074219 63.816406 107 63.199219 C 107.871094 62.582031 108.953125 62.066406 109.980469 61.859375 C 111.113281 61.65625 112.707031 61.808594 113.632812 62.066406 C 114.199219 62.222656 114.507812 62.375 114.96875 62.839844 C 115.996094 63.816406 117.746094 66.179688 118.464844 68.289062 C 119.289062 70.65625 119.75 76.207031 119.183594 76.515625 C 118.875 76.621094 118.261719 75.128906 117.644531 75.027344 C 117.078125 74.921875 116.046875 76.207031 115.6875 75.953125 C 115.121094 75.539062 116.152344 71.734375 116.71875 69.984375 C 117.230469 68.546875 117.953125 66.695312 118.773438 66.230469 C 119.289062 65.921875 120.007812 65.976562 120.472656 66.179688 C 120.933594 66.4375 121.398438 67.054688 121.449219 67.570312 C 121.5 68.238281 120.882812 69.367188 120.417969 69.730469 C 120.058594 70.039062 119.546875 70.089844 119.132812 70.039062 C 118.671875 69.933594 118.003906 69.523438 117.746094 69.0625 C 117.539062 68.597656 117.488281 67.980469 117.796875 67.363281 C 118.363281 66.078125 121.292969 64.019531 123.144531 62.890625 C 124.789062 61.914062 126.589844 60.9375 128.132812 60.832031 C 129.367188 60.730469 130.703125 61.246094 131.527344 61.707031 C 132.144531 62.015625 132.503906 62.375 132.863281 62.941406 C 133.429688 63.710938 133.894531 64.84375 134.253906 66.230469 C 134.816406 68.390625 135.332031 71.632812 135.332031 74.769531 C 135.382812 78.625 134.203125 83.921875 134.046875 87.574219 C 133.945312 90.296875 133.480469 93.742188 134.253906 94.722656 C 134.613281 95.183594 135.332031 95.285156 135.847656 95.183594 C 136.566406 95.03125 137.234375 93.796875 137.957031 93.589844 C 138.519531 93.488281 139.292969 93.539062 139.652344 93.898438 C 140.0625 94.308594 140.476562 95.492188 140.21875 96.058594 C 140.011719 96.570312 138.933594 97.242188 138.316406 97.1875 C 137.75 97.085938 136.875 96.210938 136.722656 95.648438 C 136.617188 95.132812 136.875 94.308594 137.285156 94 C 137.75 93.640625 138.984375 93.539062 139.496094 93.796875 C 139.960938 94 140.421875 94.667969 140.371094 95.234375 C 140.269531 96.160156 138.210938 97.960938 137.234375 98.578125 C 136.667969 98.988281 136.207031 99.09375 135.640625 99.195312 C 135.023438 99.296875 134.304688 99.296875 133.6875 99.144531 C 133.070312 98.9375 132.402344 98.527344 131.988281 98.113281 C 131.578125 97.703125 131.320312 97.292969 131.117188 96.675781 C 130.753906 95.851562 130.5 94.773438 130.394531 93.488281 C 130.191406 91.6875 130.34375 89.425781 130.445312 86.851562 C 130.652344 83.253906 131.835938 77.597656 131.734375 73.792969 C 131.628906 70.859375 131.117188 67.414062 130.445312 65.921875 C 130.085938 65.203125 129.726562 64.792969 129.265625 64.535156 C 128.800781 64.328125 128.289062 64.328125 127.566406 64.535156 C 125.871094 65.101562 121.34375 69.933594 119.597656 70.039062 C 118.773438 70.089844 118.003906 69.574219 117.746094 69.0625 C 117.488281 68.496094 117.695312 67.3125 118.105469 66.796875 C 118.515625 66.335938 119.492188 65.921875 120.058594 66.027344 C 120.625 66.179688 121.242188 66.796875 121.449219 67.570312 C 121.910156 69.265625 120.109375 74.820312 119.390625 76.570312 C 119.03125 77.390625 118.875 77.957031 118.363281 78.214844 C 117.746094 78.472656 116.511719 78.472656 115.945312 77.90625 C 114.867188 76.824219 115.6875 71.632812 115.019531 69.574219 C 114.609375 68.238281 113.890625 67.210938 113.273438 66.4375 C 112.859375 65.976562 112.550781 65.613281 112.039062 65.410156 C 111.523438 65.253906 110.804688 65.308594 110.1875 65.5625 C 109.363281 65.871094 108.4375 66.4375 107.613281 67.519531 C 105.867188 69.832031 103.296875 75.746094 102.472656 80.324219 C 101.546875 85.257812 103.808594 94 102.78125 96.367188 C 102.421875 97.1875 101.804688 97.601562 101.238281 97.703125 C 100.777344 97.804688 100.003906 97.445312 99.695312 97.085938 C 99.386719 96.828125 99.335938 96.519531 99.234375 95.902344 C 98.875 93.949219 98.875 86.851562 99.285156 83.152344 C 99.59375 80.269531 101.03125 75.589844 100.980469 75.539062 C 100.929688 75.539062 100.621094 77.03125 100.46875 77.03125 C 100.261719 77.03125 100.054688 75.230469 99.953125 73.738281 C 99.746094 70.910156 99.746094 63.09375 100.105469 61.246094 C 100.210938 60.679688 100.261719 60.421875 100.519531 60.164062 C 100.722656 59.90625 101.136719 59.703125 101.496094 59.648438 C 101.855469 59.597656 102.320312 59.703125 102.574219 59.90625 C 102.9375 60.164062 103.296875 61.246094 103.296875 61.246094 " clip-rule="nonzero"/></clipPath><clipPath id="01032a93cd"><path d="M 138.820312 57.628906 L 162.488281 57.628906 L 162.488281 94.480469 L 138.820312 94.480469 Z M 138.820312 57.628906 " clip-rule="nonzero"/></clipPath><clipPath id="c7516da6e4"><path d="M 142.015625 68.1875 C 155.746094 68.339844 156.726562 67.773438 157.238281 66.953125 C 157.753906 66.078125 157.597656 64.535156 157.445312 63.710938 C 157.289062 63.148438 157.035156 62.683594 156.671875 62.324219 C 156.3125 61.964844 155.851562 61.757812 155.234375 61.550781 C 154.308594 61.296875 152.558594 61.089844 151.632812 61.246094 C 150.964844 61.398438 150.707031 61.605469 150.039062 61.964844 C 148.601562 62.683594 144.898438 64.125 143.664062 65.820312 C 142.632812 67.210938 142.582031 69.421875 142.429688 71.015625 C 142.324219 72.300781 142.378906 73.175781 142.582031 74.5625 C 142.839844 76.570312 143.046875 79.449219 144.175781 81.8125 C 145.410156 84.539062 148.394531 88.394531 150.246094 89.734375 C 151.324219 90.503906 152.199219 90.863281 153.28125 90.761719 C 154.667969 90.605469 156.671875 88.910156 157.753906 87.882812 C 158.574219 87.058594 158.882812 85.824219 159.605469 85.414062 C 160.117188 85.105469 160.839844 85.105469 161.300781 85.207031 C 161.660156 85.363281 162.019531 85.617188 162.175781 85.980469 C 162.382812 86.390625 162.535156 87.265625 162.277344 87.675781 C 161.96875 88.191406 160.890625 88.808594 160.324219 88.753906 C 159.808594 88.703125 159.140625 88.191406 158.9375 87.675781 C 158.730469 87.160156 159.039062 85.925781 159.449219 85.515625 C 159.808594 85.15625 160.632812 85 161.097656 85.15625 C 161.660156 85.363281 162.433594 86.234375 162.433594 86.90625 C 162.484375 87.933594 161.097656 89.527344 160.117188 90.660156 C 158.988281 91.945312 156.980469 93.433594 155.851562 94 C 155.285156 94.308594 154.976562 94.359375 154.359375 94.414062 C 153.433594 94.515625 151.839844 94.414062 150.757812 94.050781 C 149.628906 93.742188 148.753906 93.230469 147.675781 92.304688 C 145.925781 90.8125 143.148438 87.316406 141.964844 85.308594 C 141.144531 84.023438 140.886719 83.304688 140.421875 81.917969 C 139.804688 79.960938 139.136719 76.824219 138.933594 74.460938 C 138.777344 72.351562 138.878906 70.089844 139.085938 68.390625 C 139.242188 67.210938 139.394531 66.335938 139.859375 65.359375 C 140.371094 64.328125 140.886719 63.351562 142.015625 62.425781 C 143.816406 60.832031 147.984375 58.46875 150.554688 57.851562 C 152.507812 57.4375 154.410156 57.695312 155.902344 58.054688 C 157.085938 58.363281 158.113281 58.980469 158.832031 59.546875 C 159.347656 59.957031 159.707031 60.371094 160.015625 60.882812 C 160.324219 61.449219 160.632812 61.964844 160.789062 62.683594 C 161.042969 63.816406 161.351562 65.667969 160.992188 66.953125 C 160.632812 68.1875 159.65625 69.421875 158.730469 70.242188 C 157.855469 71.015625 157.085938 71.476562 155.644531 71.835938 C 152.664062 72.453125 143.457031 71.941406 141.605469 71.324219 C 141.09375 71.117188 140.886719 70.964844 140.679688 70.65625 C 140.476562 70.347656 140.371094 69.933594 140.421875 69.574219 C 140.476562 69.214844 140.679688 68.804688 140.988281 68.597656 C 141.246094 68.339844 142.015625 68.1875 142.015625 68.1875 " clip-rule="nonzero"/></clipPath><clipPath id="94b1215c12"><path d="M 165.234375 57.265625 L 184.777344 57.265625 L 184.777344 97.464844 L 165.234375 97.464844 Z M 165.234375 57.265625 " clip-rule="nonzero"/></clipPath><clipPath id="c60062e5be"><path d="M 182.023438 64.125 C 179.042969 61.757812 177.757812 61.089844 176.882812 60.882812 C 176.316406 60.730469 175.957031 60.679688 175.339844 60.78125 C 174.515625 60.9375 173.128906 61.089844 172.359375 61.964844 C 171.125 63.402344 170.558594 67.621094 170.402344 70.039062 C 170.199219 71.890625 170.351562 73.636719 170.761719 75.027344 C 171.070312 76.15625 171.484375 77.132812 172.203125 77.90625 C 172.921875 78.625 173.898438 79.140625 175.03125 79.550781 C 176.421875 80.066406 178.886719 79.910156 179.867188 80.476562 C 180.480469 80.785156 180.738281 81.144531 181.046875 81.660156 C 181.5625 82.429688 182.078125 83.714844 182.28125 84.796875 C 182.488281 85.875 182.488281 87.214844 182.332031 88.140625 C 182.179688 88.753906 182.128906 89.0625 181.714844 89.679688 C 180.945312 90.914062 178.167969 93.640625 176.984375 94.515625 C 176.421875 94.976562 175.597656 95.441406 175.546875 95.339844 C 175.441406 95.234375 176.78125 93.640625 176.882812 93.691406 C 176.933594 93.742188 176.574219 95.03125 175.957031 95.59375 C 175.03125 96.417969 172.304688 97.085938 171.019531 97.34375 C 170.300781 97.445312 169.734375 97.496094 169.167969 97.394531 C 168.605469 97.242188 168.039062 97.035156 167.523438 96.625 C 166.804688 96.058594 165.570312 94.976562 165.414062 94.105469 C 165.261719 93.382812 165.519531 92.304688 165.980469 91.945312 C 166.339844 91.585938 167.214844 91.429688 167.679688 91.636719 C 168.242188 91.839844 168.964844 92.871094 168.964844 93.488281 C 169.015625 94 168.550781 94.722656 168.089844 94.976562 C 167.679688 95.234375 166.804688 95.339844 166.339844 95.082031 C 165.828125 94.773438 165.210938 93.691406 165.261719 93.125 C 165.363281 92.507812 166.1875 91.636719 166.90625 91.53125 C 167.882812 91.429688 169.527344 93.539062 170.761719 93.640625 C 171.894531 93.691406 173.746094 92.046875 174.105469 92.355469 C 174.363281 92.613281 173.488281 94.617188 173.386719 94.566406 C 173.28125 94.566406 173.078125 93.539062 173.335938 92.871094 C 173.847656 91.429688 178.066406 88.601562 178.632812 87.160156 C 178.886719 86.441406 178.734375 86.03125 178.632812 85.414062 C 178.476562 84.539062 177.398438 82.535156 177.449219 82.480469 C 177.5 82.480469 178.527344 83.714844 178.324219 83.972656 C 178.015625 84.4375 173.539062 83.203125 171.945312 82.429688 C 170.867188 81.863281 170.199219 81.144531 169.476562 80.324219 C 168.707031 79.449219 168.039062 78.472656 167.574219 77.132812 C 166.957031 75.335938 166.648438 72.558594 166.753906 70.191406 C 166.855469 67.570312 167.78125 64.125 168.5 62.167969 C 168.964844 60.9375 169.21875 60.0625 170.042969 59.289062 C 171.125 58.363281 173.644531 57.644531 174.773438 57.386719 C 175.441406 57.285156 175.699219 57.285156 176.367188 57.386719 C 177.5 57.59375 179.453125 58.3125 180.789062 59.085938 C 182.128906 59.804688 183.722656 61.140625 184.289062 61.914062 C 184.597656 62.324219 184.75 62.582031 184.75 62.941406 C 184.75 63.351562 184.441406 64.019531 184.132812 64.277344 C 183.824219 64.535156 183.363281 64.636719 183.054688 64.636719 C 182.695312 64.585938 182.023438 64.125 182.023438 64.125 " clip-rule="nonzero"/></clipPath><clipPath id="a05a944704"><path d="M 190.519531 57.785156 L 219.304688 57.785156 L 219.304688 95.542969 L 190.519531 95.542969 Z M 190.519531 57.785156 " clip-rule="nonzero"/></clipPath><clipPath id="a86d05ece1"><path d="M 204.824219 63.976562 C 197.25 63.898438 196.800781 64.273438 196.5 64.726562 C 196.199219 65.175781 196.273438 65.476562 196.125 66.226562 C 195.675781 68.476562 193.574219 75.898438 194.023438 79.949219 C 194.476562 83.550781 196.125 87.601562 198.074219 89.550781 C 199.648438 91.050781 202.125 91.648438 203.925781 91.875 C 205.425781 92.023438 206.925781 91.875 208.125 91.351562 C 209.175781 90.976562 210.074219 90.148438 210.898438 89.324219 C 211.726562 88.5 212.25 87.601562 212.851562 86.398438 C 213.75 84.675781 214.949219 82.050781 215.398438 79.574219 C 215.925781 76.875 215.925781 73.050781 215.625 70.800781 C 215.476562 69.375 215.324219 68.476562 214.648438 67.273438 C 213.675781 65.699219 211.5 63.449219 209.699219 62.476562 C 208.199219 61.648438 205.425781 62.25 204.75 61.425781 C 204.300781 60.976562 204.226562 59.925781 204.675781 59.476562 C 205.726562 58.425781 214.199219 59.324219 216.148438 59.925781 C 216.824219 60.148438 217.273438 60.449219 217.5 60.824219 C 217.726562 61.273438 217.726562 62.023438 217.5 62.476562 C 217.273438 62.925781 216.601562 63.300781 216.148438 63.375 C 215.699219 63.449219 214.949219 63.148438 214.648438 62.773438 C 214.351562 62.476562 214.125 61.648438 214.273438 61.199219 C 214.425781 60.675781 215.398438 60 215.925781 59.925781 C 216.449219 59.925781 217.125 60.300781 217.351562 60.675781 C 217.648438 61.050781 217.726562 61.875 217.574219 62.324219 C 217.351562 62.773438 217.050781 63.074219 216.300781 63.375 C 214.5 63.976562 207.675781 63.824219 205.125 63.148438 C 203.625 62.699219 202.425781 62.023438 201.824219 61.273438 C 201.375 60.75 201.148438 59.925781 201.375 59.398438 C 201.523438 58.800781 202.050781 58.273438 202.875 57.976562 C 204.449219 57.523438 208.875 58.351562 211.199219 59.398438 C 213.148438 60.226562 214.726562 61.800781 215.925781 63.226562 C 217.125 64.648438 218.101562 66.074219 218.625 68.023438 C 219.449219 70.800781 219.226562 75.601562 218.851562 78.675781 C 218.550781 81.226562 218.175781 83.25 217.199219 85.425781 C 216.074219 87.824219 214.199219 90.824219 212.476562 92.476562 C 211.125 93.75 209.699219 94.574219 208.199219 95.023438 C 206.773438 95.476562 205.425781 95.625 203.773438 95.398438 C 201.523438 95.023438 197.851562 94.050781 195.824219 92.25 C 193.800781 90.523438 192.601562 87.148438 191.699219 84.824219 C 191.023438 83.023438 190.726562 81.449219 190.574219 79.648438 C 190.5 77.550781 190.800781 75.375 191.175781 72.898438 C 191.699219 69.898438 192.449219 64.800781 193.800781 62.851562 C 194.550781 61.726562 195.523438 61.273438 196.5 60.898438 C 197.476562 60.449219 198.523438 60.300781 199.800781 60.226562 C 201.523438 60.226562 204.898438 60.449219 205.875 61.199219 C 206.398438 61.648438 206.625 62.398438 206.476562 62.851562 C 206.324219 63.375 204.824219 63.976562 204.824219 63.976562 " clip-rule="nonzero"/></clipPath><clipPath id="ffe3ebef15"><path d="M 222 58.195312 L 253 58.195312 L 253 93.863281 L 222 93.863281 Z M 222 58.195312 " clip-rule="nonzero"/></clipPath><clipPath id="76ea7cec65"><path d="M 225.675781 59.699219 C 226.199219 77.851562 228.75 85.050781 228.976562 88.425781 C 229.050781 90 228.976562 91.199219 228.601562 92.023438 C 228.375 92.550781 228 93 227.550781 93.074219 C 227.101562 93.226562 226.199219 93.148438 225.75 92.699219 C 225.074219 91.949219 225 90 225 87.824219 C 225.074219 83.699219 226.199219 74.398438 227.851562 69.75 C 228.976562 66.523438 230.324219 63.976562 232.125 62.023438 C 233.625 60.449219 235.5 59.023438 237.375 58.648438 C 239.175781 58.351562 241.574219 59.101562 242.925781 59.925781 C 244.050781 60.523438 244.800781 61.273438 245.398438 62.550781 C 246.375 64.425781 246.449219 67.425781 246.601562 70.726562 C 246.976562 75.75 243.976562 87.601562 246.148438 89.851562 C 247.273438 90.976562 250.425781 89.25 251.625 89.773438 C 252.300781 90.074219 252.898438 90.824219 252.976562 91.351562 C 253.050781 91.875 252.675781 92.625 252.300781 92.925781 C 251.925781 93.226562 251.101562 93.375 250.648438 93.148438 C 250.125 92.925781 249.449219 91.949219 249.449219 91.425781 C 249.449219 90.898438 249.824219 90.148438 250.273438 90 C 250.875 89.773438 252.449219 90.148438 252.75 90.675781 C 253.125 91.125 252.976562 92.25 252.449219 92.773438 C 251.699219 93.601562 248.625 93.675781 247.351562 93.75 C 246.523438 93.824219 246.074219 93.824219 245.398438 93.601562 C 244.574219 93.226562 243.601562 92.773438 243 91.425781 C 241.351562 87.75 243.675781 70.949219 242.851562 66.601562 C 242.625 64.949219 242.476562 64.050781 241.726562 63.375 C 240.976562 62.625 239.550781 62.175781 238.5 62.25 C 237.449219 62.324219 236.476562 62.925781 235.5 63.75 C 234.148438 64.875 232.800781 66.976562 231.824219 69 C 230.773438 71.398438 230.398438 74.175781 229.800781 77.25 C 229.125 81.226562 229.648438 90.226562 228.375 90.824219 C 227.925781 91.125 227.175781 89.699219 226.648438 89.773438 C 226.125 89.851562 225.449219 91.125 225.226562 91.050781 C 224.925781 90.898438 225.601562 89.25 225.523438 87.75 C 225.300781 84.675781 222.976562 78.148438 222.523438 73.425781 C 222.074219 68.851562 221.773438 61.949219 222.675781 59.699219 C 222.976562 58.875 223.5 58.273438 224.023438 58.199219 C 224.550781 58.199219 225.675781 59.699219 225.675781 59.699219 " clip-rule="nonzero"/></clipPath><clipPath id="8bfd9cfa37"><path d="M 255.738281 57.949219 L 305.144531 57.949219 L 305.144531 94.464844 L 255.738281 94.464844 Z M 255.738281 57.949219 " clip-rule="nonzero"/></clipPath><clipPath id="289e7ab007"><path d="M 259.5 59.476562 C 260.101562 77.398438 262.199219 82.800781 262.5 86.625 C 262.726562 89.324219 262.726562 92.324219 262.125 93.449219 C 261.898438 93.898438 261.601562 94.125 261.226562 94.199219 C 260.773438 94.351562 260.023438 94.351562 259.648438 94.050781 C 259.125 93.449219 259.125 91.949219 259.199219 90.226562 C 259.351562 86.023438 261.375 74.398438 263.773438 69.300781 C 265.351562 65.851562 267.898438 62.851562 269.773438 61.5 C 270.898438 60.75 271.875 60.523438 272.925781 60.523438 C 273.898438 60.449219 275.101562 60.675781 275.925781 61.273438 C 276.824219 61.949219 277.351562 63.449219 277.800781 64.574219 C 278.25 65.550781 278.476562 66.375 278.625 67.648438 C 278.851562 69.523438 279.300781 74.023438 278.398438 74.851562 C 277.949219 75.226562 276.601562 75 276.226562 74.625 C 275.851562 74.25 276 73.425781 276.148438 72.449219 C 276.523438 70.199219 278.324219 63.898438 280.273438 61.800781 C 281.625 60.375 283.574219 59.699219 285.074219 59.476562 C 286.199219 59.324219 287.398438 59.625 288.300781 60 C 288.976562 60.300781 289.351562 60.601562 289.875 61.273438 C 290.925781 62.625 292.351562 65.324219 293.023438 68.25 C 294.074219 72.675781 292.5 81.675781 293.476562 85.425781 C 294 87.449219 294.75 89.101562 295.800781 89.773438 C 296.625 90.300781 297.75 90.226562 298.800781 89.925781 C 300.148438 89.625 301.949219 87.148438 303.074219 87.226562 C 303.824219 87.300781 304.949219 88.273438 305.023438 88.875 C 305.101562 89.398438 304.351562 90.375 303.824219 90.601562 C 303.375 90.824219 302.625 90.675781 302.25 90.375 C 301.875 90.074219 301.5 89.398438 301.5 88.875 C 301.574219 88.425781 301.949219 87.75 302.324219 87.523438 C 302.851562 87.226562 304.050781 87.300781 304.425781 87.675781 C 304.875 88.050781 305.023438 89.101562 304.800781 89.773438 C 304.574219 90.601562 303.449219 91.425781 302.625 91.949219 C 301.726562 92.550781 300.675781 93.074219 299.550781 93.300781 C 298.125 93.601562 295.800781 93.824219 294.75 93.449219 C 294.148438 93.226562 293.925781 93 293.476562 92.476562 C 292.574219 91.273438 291.300781 88.726562 290.625 85.949219 C 289.574219 81.601562 290.625 72.675781 289.648438 68.699219 C 289.050781 66.449219 288.148438 64.425781 287.324219 63.601562 C 286.949219 63.074219 286.574219 62.925781 286.050781 62.851562 C 285.226562 62.773438 284.023438 62.851562 283.125 63.675781 C 281.175781 65.398438 279.75 75 278.324219 76.726562 C 277.875 77.324219 277.5 77.476562 276.976562 77.550781 C 276.449219 77.625 275.625 77.625 275.25 77.101562 C 274.351562 75.976562 275.550781 71.023438 275.175781 68.699219 C 274.800781 66.824219 274.351562 64.5 273.523438 64.050781 C 273.074219 63.75 272.476562 63.976562 271.875 64.351562 C 270.601562 65.101562 268.5 67.273438 267.148438 70.050781 C 264.824219 75 263.699219 90.226562 262.273438 93.074219 C 261.898438 93.75 261.675781 94.050781 261.226562 94.199219 C 260.773438 94.425781 260.023438 94.273438 259.648438 94.050781 C 259.273438 93.75 259.050781 93.300781 258.898438 92.625 C 258.601562 91.125 259.425781 87.898438 259.125 85.125 C 258.824219 81.523438 256.875 77.023438 256.425781 72.75 C 255.898438 68.398438 255.449219 61.125 256.5 59.101562 C 256.875 58.351562 257.699219 57.898438 258.148438 57.976562 C 258.675781 58.050781 259.5 59.476562 259.5 59.476562 " clip-rule="nonzero"/></clipPath><clipPath id="feba86c37b"><path d="M 302.105469 59.558594 L 327.394531 59.558594 L 327.394531 91.6875 L 302.105469 91.6875 Z M 302.105469 59.558594 " clip-rule="nonzero"/></clipPath><clipPath id="c2b698a33c"><path d="M 315.074219 64.574219 C 308.773438 66.449219 306.523438 70.5 305.851562 73.574219 C 305.101562 76.726562 305.851562 81.375 306.449219 83.699219 C 306.75 85.050781 307.199219 85.949219 307.800781 86.699219 C 308.25 87.226562 308.699219 87.675781 309.300781 87.898438 C 309.824219 88.125 310.273438 88.125 311.101562 87.976562 C 312.824219 87.675781 317.25 86.25 319.273438 84.523438 C 320.925781 83.101562 322.125 80.625 322.648438 78.824219 C 323.023438 77.550781 323.101562 76.5 322.875 75.148438 C 322.574219 73.425781 321.523438 70.949219 320.476562 69.226562 C 319.5 67.648438 318.375 66.148438 316.875 65.023438 C 315.449219 63.898438 312.300781 63.523438 311.699219 62.476562 C 311.25 61.800781 311.398438 60.601562 311.773438 60.148438 C 312 59.773438 312.523438 59.699219 313.273438 59.625 C 315.449219 59.398438 323.925781 60.074219 325.949219 61.273438 C 326.851562 61.875 327.449219 62.851562 327.375 63.375 C 327.300781 63.976562 326.324219 64.726562 325.800781 64.800781 C 325.273438 64.800781 324.601562 64.425781 324.300781 64.050781 C 324 63.675781 323.851562 62.925781 324.074219 62.476562 C 324.300781 61.949219 325.199219 61.273438 325.800781 61.273438 C 326.324219 61.351562 327.300781 62.101562 327.375 62.625 C 327.449219 63.226562 326.851562 64.351562 325.949219 64.726562 C 323.851562 65.699219 314.25 64.125 312.300781 62.925781 C 311.625 62.476562 311.25 61.800781 311.25 61.273438 C 311.324219 60.75 311.773438 59.925781 312.449219 59.699219 C 313.648438 59.398438 316.949219 60.976562 318.75 62.175781 C 320.398438 63.300781 321.675781 65.023438 322.875 66.75 C 324.148438 68.699219 325.5 71.324219 326.023438 73.425781 C 326.476562 75.148438 326.398438 76.800781 326.25 78.375 C 326.101562 79.726562 325.648438 80.851562 325.050781 82.050781 C 324.375 83.550781 323.550781 85.351562 322.125 86.625 C 320.175781 88.273438 316.351562 89.773438 314.023438 90.601562 C 312.375 91.199219 310.726562 91.648438 309.523438 91.648438 C 308.773438 91.648438 308.398438 91.5 307.726562 91.125 C 306.601562 90.523438 304.726562 89.175781 303.75 87.300781 C 302.324219 84.449219 301.949219 77.324219 302.175781 74.398438 C 302.324219 72.824219 302.625 72.226562 303.148438 70.875 C 304.125 68.773438 306.300781 64.800781 307.800781 63.300781 C 308.625 62.476562 309.300781 62.101562 310.351562 61.800781 C 311.773438 61.351562 314.550781 61.050781 315.601562 61.574219 C 316.199219 61.875 316.726562 62.773438 316.648438 63.300781 C 316.574219 63.824219 315.074219 64.574219 315.074219 64.574219 " clip-rule="nonzero"/></clipPath><clipPath id="c01ed60bce"><path d="M 325.386719 38.449219 L 352.847656 38.449219 L 352.847656 96.320312 L 325.386719 96.320312 Z M 325.386719 38.449219 " clip-rule="nonzero"/></clipPath><clipPath id="cba7e74735"><path d="M 341.476562 65.699219 C 334.800781 68.476562 331.726562 70.800781 330.449219 73.574219 C 328.949219 76.648438 327.898438 83.175781 329.324219 85.199219 C 330.300781 86.625 333.675781 87 334.875 86.773438 C 335.476562 86.625 335.625 86.324219 336.148438 85.648438 C 337.726562 83.773438 341.625 76.800781 342.898438 72.75 C 343.949219 69.601562 343.875 67.5 344.101562 63.75 C 344.398438 57.75 342.449219 42.898438 343.273438 39.976562 C 343.425781 39.226562 343.648438 38.925781 344.023438 38.699219 C 344.398438 38.476562 345.148438 38.476562 345.523438 38.625 C 345.976562 38.851562 346.273438 39.148438 346.425781 39.824219 C 347.175781 42.226562 345.601562 51.824219 345.824219 57.074219 C 346.125 61.726562 347.398438 65.699219 347.625 69.898438 C 347.925781 74.023438 347.25 78.449219 347.550781 82.125 C 347.773438 85.050781 347.851562 87.976562 348.976562 90.074219 C 349.800781 91.726562 352.574219 92.773438 352.726562 93.976562 C 352.875 94.726562 352.050781 95.925781 351.449219 96.148438 C 351.074219 96.300781 350.25 96.074219 349.875 95.699219 C 349.574219 95.398438 349.273438 94.648438 349.351562 94.199219 C 349.425781 93.75 349.875 93.074219 350.324219 92.851562 C 350.773438 92.699219 351.523438 92.699219 351.976562 92.925781 C 352.425781 93.226562 352.875 94.351562 352.800781 94.875 C 352.648438 95.398438 351.824219 96.148438 351.074219 96.226562 C 350.023438 96.226562 347.773438 94.726562 346.648438 93.074219 C 345.074219 90.675781 344.550781 86.023438 344.175781 82.351562 C 343.726562 78.75 344.550781 75.148438 344.324219 71.25 C 344.101562 66.824219 342.75 61.351562 342.523438 57.074219 C 342.300781 53.699219 342.523438 50.851562 342.675781 47.851562 C 342.824219 45 342.375 40.949219 343.351562 39.601562 C 343.875 38.851562 345 38.476562 345.523438 38.625 C 345.976562 38.773438 346.199219 39.148438 346.425781 39.824219 C 347.476562 42.824219 347.550781 59.25 347.324219 64.949219 C 347.25 67.875 347.175781 69.601562 346.726562 71.550781 C 346.351562 73.351562 345.898438 74.476562 345.148438 76.351562 C 343.949219 79.125 341.699219 84.148438 339.824219 86.550781 C 338.550781 88.199219 337.050781 89.625 335.925781 90.074219 C 335.25 90.375 334.800781 90.375 333.976562 90.226562 C 332.699219 90.074219 330.300781 89.25 328.875 88.425781 C 327.75 87.824219 326.550781 87.375 325.949219 86.101562 C 324.976562 83.925781 325.726562 78.300781 326.398438 75.449219 C 326.851562 73.351562 327.449219 71.773438 328.574219 70.199219 C 329.925781 68.324219 332.550781 66.449219 334.199219 65.25 C 335.398438 64.425781 336.300781 63.976562 337.5 63.523438 C 338.851562 63.148438 341.175781 62.476562 342 62.851562 C 342.523438 63.148438 342.824219 63.976562 342.75 64.5 C 342.675781 64.949219 341.476562 65.699219 341.476562 65.699219 " clip-rule="nonzero"/></clipPath><clipPath id="387c0abb52"><path d="M 358.519531 57.769531 L 384 57.769531 L 384 91.527344 L 358.519531 91.527344 Z M 358.519531 57.769531 " clip-rule="nonzero"/></clipPath><clipPath id="9a833aad40"><path d="M 362.398438 61.125 C 362.101562 75.449219 363 84.675781 364.273438 86.699219 C 364.726562 87.375 365.175781 87.449219 365.851562 87.675781 C 366.75 87.976562 368.25 88.050781 369.375 87.898438 C 370.425781 87.75 371.773438 87.375 372.523438 86.773438 C 373.050781 86.398438 373.199219 85.949219 373.574219 85.199219 C 374.476562 83.476562 375.898438 79.351562 376.351562 76.5 C 376.800781 73.875 376.800781 71.398438 376.574219 68.699219 C 376.273438 65.773438 373.949219 61.351562 374.476562 59.550781 C 374.773438 58.648438 375.75 57.898438 376.273438 57.824219 C 376.800781 57.75 377.25 58.050781 377.625 58.648438 C 378.75 60.300781 379.574219 66.449219 379.800781 70.574219 C 380.023438 75 378.523438 81.523438 378.976562 84.375 C 379.199219 85.800781 379.425781 86.699219 380.101562 87.375 C 380.773438 87.976562 382.199219 87.75 382.875 88.125 C 383.398438 88.5 383.851562 88.875 383.925781 89.398438 C 384 89.925781 383.550781 91.050781 383.101562 91.273438 C 382.574219 91.574219 381.375 91.351562 381 90.976562 C 380.625 90.675781 380.476562 89.925781 380.550781 89.398438 C 380.625 88.949219 381.148438 88.351562 381.601562 88.199219 C 382.050781 87.976562 382.800781 88.050781 383.175781 88.351562 C 383.625 88.574219 384 89.25 384 89.773438 C 383.925781 90.300781 383.324219 91.199219 382.726562 91.425781 C 381.976562 91.726562 380.550781 91.273438 379.726562 91.050781 C 379.125 90.898438 378.675781 90.75 378.148438 90.300781 C 377.398438 89.550781 376.5 88.125 376.050781 86.25 C 375.148438 82.574219 376.875 74.175781 376.5 69.375 C 376.125 65.625 373.875 61.425781 374.476562 59.550781 C 374.773438 58.648438 375.75 57.898438 376.273438 57.824219 C 376.800781 57.75 377.25 58.050781 377.625 58.648438 C 378.75 60.226562 379.648438 66.675781 379.949219 70.050781 C 380.175781 72.675781 380.175781 74.625 379.726562 77.175781 C 379.273438 80.175781 377.851562 84.601562 376.726562 86.773438 C 376.125 88.050781 375.523438 88.875 374.699219 89.550781 C 373.800781 90.300781 372.75 90.824219 371.476562 91.125 C 369.675781 91.5 366.449219 91.5 364.726562 91.050781 C 363.523438 90.675781 362.550781 90.300781 361.800781 89.324219 C 360.75 88.050781 360.675781 85.574219 360.226562 83.101562 C 359.550781 79.351562 358.574219 73.351562 358.574219 69.226562 C 358.574219 66 358.648438 61.726562 359.550781 60.449219 C 359.925781 59.851562 360.601562 59.550781 361.050781 59.625 C 361.574219 59.699219 362.398438 61.125 362.398438 61.125 " clip-rule="nonzero"/></clipPath><clipPath id="b07b3df99c"><path d="M 389.355469 40 L 405.359375 40 L 405.359375 92.183594 L 389.355469 92.183594 Z M 389.355469 40 " clip-rule="nonzero"/></clipPath><clipPath id="0dcec3bd99"><path d="M 395.925781 41.625 C 395.476562 54.976562 394.5 57.976562 394.351562 61.273438 C 394.199219 64.726562 394.949219 68.25 394.800781 72 C 394.648438 76.199219 392.625 82.425781 393.148438 85.199219 C 393.449219 86.550781 393.898438 87.375 394.875 87.976562 C 396.074219 88.800781 399 88.875 400.574219 88.574219 C 401.925781 88.351562 403.125 86.851562 403.949219 87 C 404.550781 87.148438 405.300781 88.050781 405.300781 88.574219 C 405.375 89.175781 404.699219 90.148438 404.25 90.375 C 403.800781 90.601562 402.976562 90.449219 402.601562 90.148438 C 402.148438 89.773438 401.851562 88.648438 402 88.125 C 402.074219 87.675781 402.675781 87.148438 403.199219 87.074219 C 403.726562 87 404.851562 87.375 405.148438 87.898438 C 405.375 88.425781 404.925781 89.625 404.398438 90.300781 C 403.648438 91.125 401.925781 91.800781 400.5 92.023438 C 398.925781 92.324219 396.898438 92.023438 395.476562 91.726562 C 394.273438 91.425781 393.226562 91.273438 392.324219 90.523438 C 391.273438 89.625 390.449219 88.574219 389.925781 86.398438 C 388.273438 79.5 390.898438 46.125 392.851562 41.550781 C 393.226562 40.574219 393.75 40.125 394.199219 40.050781 C 394.726562 40.050781 395.925781 41.625 395.925781 41.625 " clip-rule="nonzero"/></clipPath><clipPath id="4d2fe992fc"><path d="M 406.921875 57.390625 L 427.605469 57.390625 L 427.605469 91.3125 L 406.921875 91.3125 Z M 406.921875 57.390625 " clip-rule="nonzero"/></clipPath><clipPath id="1d5c1b0c4f"><path d="M 410.398438 59.175781 C 410.324219 65.550781 411.375 68.625 411.375 70.125 C 411.375 70.949219 411.375 71.625 411 72 C 410.625 72.375 409.050781 72.601562 409.050781 72.523438 C 409.050781 72.449219 410.398438 71.324219 410.851562 71.550781 C 412.199219 72.300781 411 84.675781 412.199219 86.625 C 412.648438 87.300781 413.175781 87.523438 413.699219 87.523438 C 414.148438 87.523438 414.523438 87.148438 415.050781 86.773438 C 416.101562 86.101562 418.5 84.449219 419.324219 83.476562 C 419.699219 82.875 419.773438 82.726562 420 81.824219 C 420.601562 78.976562 419.101562 65.175781 420.523438 61.875 C 421.050781 60.601562 422.023438 59.699219 422.699219 59.625 C 423.226562 59.550781 423.976562 60.074219 424.273438 60.523438 C 424.574219 60.976562 424.425781 61.351562 424.5 62.175781 C 424.875 65.324219 424.726562 79.949219 425.773438 84.449219 C 426.226562 86.398438 427.574219 87.601562 427.5 88.574219 C 427.425781 89.175781 426.976562 89.699219 426.523438 89.925781 C 426.074219 90.148438 425.324219 90.148438 424.875 89.925781 C 424.425781 89.699219 423.976562 89.023438 423.976562 88.5 C 423.976562 87.976562 424.574219 86.925781 425.101562 86.699219 C 425.550781 86.476562 426.375 86.625 426.75 86.925781 C 427.125 87.226562 427.5 87.898438 427.5 88.425781 C 427.5 88.875 427.125 89.550781 426.675781 89.851562 C 426.300781 90.074219 425.625 90.226562 425.023438 90 C 424.199219 89.625 423.148438 88.648438 422.550781 87 C 420.824219 82.800781 418.949219 63.601562 420.976562 61.875 C 421.648438 61.199219 423.300781 61.574219 423.976562 62.398438 C 425.550781 64.273438 424.351562 74.25 423.976562 78.148438 C 423.824219 80.398438 423.675781 82.050781 423.074219 83.550781 C 422.550781 84.824219 421.949219 85.648438 420.976562 86.699219 C 419.699219 88.050781 417.226562 90 415.425781 90.675781 C 414.074219 91.199219 412.574219 91.425781 411.449219 91.050781 C 410.398438 90.675781 409.5 90.074219 408.824219 88.726562 C 407.398438 85.800781 407.550781 74.773438 407.773438 72 C 407.851562 71.101562 407.851562 70.648438 408.148438 70.199219 C 408.449219 69.75 409.648438 69.375 409.574219 69.300781 C 409.574219 69.148438 408.300781 70.050781 407.851562 69.75 C 406.875 69.074219 406.875 63.898438 407.023438 61.648438 C 407.101562 60.148438 407.25 58.425781 407.851562 57.824219 C 408.300781 57.449219 409.199219 57.375 409.574219 57.601562 C 410.023438 57.824219 410.398438 59.175781 410.398438 59.175781 " clip-rule="nonzero"/></clipPath><clipPath id="ffe8cbb770"><path d="M 429.105469 55 L 447 55 L 447 92.878906 L 429.105469 92.878906 Z M 429.105469 55 " clip-rule="nonzero"/></clipPath><clipPath id="f36bb4d2ac"><path d="M 444.300781 62.324219 C 439.574219 58.800781 437.023438 58.050781 435.898438 58.574219 C 435 59.023438 434.625 60.300781 434.25 61.5 C 433.726562 63.226562 433.199219 66.226562 433.726562 68.175781 C 434.25 69.824219 435.601562 71.398438 437.023438 72.449219 C 438.449219 73.574219 440.851562 73.726562 442.199219 74.550781 C 443.324219 75.226562 444.148438 75.976562 444.824219 76.875 C 445.574219 77.699219 446.25 78.601562 446.398438 79.800781 C 446.699219 81.601562 445.949219 84.976562 445.199219 86.550781 C 444.675781 87.675781 444.148438 88.273438 443.175781 89.023438 C 441.523438 90.300781 437.699219 92.175781 435.675781 92.625 C 434.398438 92.925781 433.425781 92.925781 432.375 92.625 C 431.324219 92.25 429.898438 91.425781 429.523438 90.601562 C 429.148438 89.925781 429.226562 88.875 429.523438 88.425781 C 429.824219 87.976562 430.574219 87.675781 431.101562 87.675781 C 431.550781 87.75 432.226562 88.199219 432.523438 88.574219 C 432.75 89.023438 432.75 89.851562 432.601562 90.300781 C 432.375 90.75 431.699219 91.199219 431.25 91.273438 C 430.726562 91.351562 429.976562 91.125 429.601562 90.75 C 429.300781 90.375 429.074219 89.550781 429.226562 89.101562 C 429.300781 88.574219 429.75 87.976562 430.273438 87.824219 C 431.25 87.523438 433.050781 89.175781 434.625 89.101562 C 436.5 88.949219 439.425781 87.226562 440.625 86.398438 C 441.226562 86.023438 441.523438 85.800781 441.824219 85.273438 C 442.351562 84.449219 442.726562 82.875 442.875 81.976562 C 442.949219 81.375 443.023438 80.925781 442.800781 80.398438 C 442.574219 79.574219 441.824219 78.449219 440.851562 77.625 C 439.425781 76.574219 436.273438 76.5 434.550781 75.226562 C 432.824219 73.875 431.175781 71.851562 430.574219 69.75 C 429.824219 67.425781 430.351562 64.125 430.726562 61.875 C 430.949219 60 431.25 57.976562 432.074219 56.851562 C 432.675781 56.023438 433.574219 55.5 434.699219 55.199219 C 436.273438 54.824219 439.273438 55.125 441.074219 55.800781 C 442.726562 56.324219 444.375 57.601562 445.351562 58.574219 C 446.101562 59.25 446.773438 60 446.925781 60.75 C 447.074219 61.425781 447 62.550781 446.550781 62.773438 C 446.101562 63.074219 444.300781 62.324219 444.300781 62.324219 " clip-rule="nonzero"/></clipPath></defs><g clip-path="url(#2bcd7d7307)"><g clip-path="url(#37e5eeedb9)"><path fill="#fffb47" d="M 97.382812 65.5625 L 102.9375 65.5625 L 102.9375 71.015625 L 97.382812 71.015625 Z M 97.382812 65.5625 " fill-opacity="1" fill-rule="nonzero"/></g></g><g clip-path="url(#b2cb53d543)"><g clip-path="url(#bfbfa2bd8a)"><path fill="#fffb47" d="M 4.972656 46.125 L 18.753906 46.125 L 18.753906 102.867188 L 4.972656 102.867188 Z M 4.972656 46.125 " fill-opacity="1" fill-rule="nonzero"/></g></g><g clip-path="url(#0d04250a6d)"><g clip-path="url(#daf285cb25)"><path fill="#fffb47" d="M 17.007812 47.101562 L 32.074219 47.101562 L 32.074219 103.898438 L 17.007812 103.898438 Z M 17.007812 47.101562 " fill-opacity="1" fill-rule="nonzero"/></g></g><g clip-path="url(#11a8a5744a)"><g clip-path="url(#03ecc86243)"><path fill="#fffb47" d="M 3.277344 59.496094 L 38.8125 59.496094 L 38.8125 70.601562 L 3.277344 70.601562 Z M 3.277344 59.496094 " fill-opacity="1" fill-rule="nonzero"/></g></g><g clip-path="url(#85106e6a15)"><g clip-path="url(#3cd1778cba)"><path fill="#fffb47" d="M 2.453125 75.695312 L 34.949219 75.695312 L 34.949219 86.183594 L 2.453125 86.183594 Z M 2.453125 75.695312 " fill-opacity="1" fill-rule="nonzero"/></g></g><g clip-path="url(#7f6a0450e7)"><g clip-path="url(#78cea330da)"><path fill="#fffb47" d="M 32.898438 52.347656 L 70.488281 52.347656 L 70.488281 100.511719 L 32.898438 100.511719 Z M 32.898438 52.347656 " fill-opacity="1" fill-rule="nonzero"/></g></g><g clip-path="url(#4562d87d13)"><g clip-path="url(#b2bba2caf7)"><path fill="#fffb47" d="M 70.179688 58.3125 L 95.992188 58.3125 L 95.992188 102.179688 L 70.179688 102.179688 Z M 70.179688 58.3125 " fill-opacity="1" fill-rule="nonzero"/></g></g><g clip-path="url(#a7921c5dc6)"><g clip-path="url(#e6d6113ce9)"><path fill="#fffb47" d="M 96.867188 57.59375 L 142.457031 57.59375 L 142.457031 101.304688 L 96.867188 101.304688 Z M 96.867188 57.59375 " fill-opacity="1" fill-rule="nonzero"/></g></g><g clip-path="url(#01032a93cd)"><g clip-path="url(#c7516da6e4)"><path fill="#fffb47" d="M 136.875 55.792969 L 164.542969 55.792969 L 164.542969 96.535156 L 136.875 96.535156 Z M 136.875 55.792969 " fill-opacity="1" fill-rule="nonzero"/></g></g><g clip-path="url(#94b1215c12)"><g clip-path="url(#c60062e5be)"><path fill="#fffb47" d="M 163.203125 55.332031 L 186.808594 55.332031 L 186.808594 99.496094 L 163.203125 99.496094 Z M 163.203125 55.332031 " fill-opacity="1" fill-rule="nonzero"/></g></g><g clip-path="url(#a05a944704)"><g clip-path="url(#a86d05ece1)"><path fill="#fffb47" d="M 187.574219 54.976562 L 221.851562 54.976562 L 221.851562 98.355469 L 187.574219 98.355469 Z M 187.574219 54.976562 " fill-opacity="1" fill-rule="nonzero"/></g></g><g clip-path="url(#ffe3ebef15)"><g clip-path="url(#76ea7cec65)"><path fill="#fffb47" d="M 219.523438 55.199219 L 256.050781 55.199219 L 256.050781 96.71875 L 219.523438 96.71875 Z M 219.523438 55.199219 " fill-opacity="1" fill-rule="nonzero"/></g></g><g clip-path="url(#8bfd9cfa37)"><g clip-path="url(#289e7ab007)"><path fill="#fffb47" d="M 253.425781 54.976562 L 308.117188 54.976562 L 308.117188 97.273438 L 253.425781 97.273438 Z M 253.425781 54.976562 " fill-opacity="1" fill-rule="nonzero"/></g></g><g clip-path="url(#feba86c37b)"><g clip-path="url(#c2b698a33c)"><path fill="#fffb47" d="M 299.175781 56.625 L 330.449219 56.625 L 330.449219 94.621094 L 299.175781 94.621094 Z M 299.175781 56.625 " fill-opacity="1" fill-rule="nonzero"/></g></g><g clip-path="url(#c01ed60bce)"><g clip-path="url(#cba7e74735)"><path fill="#fffb47" d="M 322.949219 35.625 L 355.800781 35.625 L 355.800781 99.273438 L 322.949219 99.273438 Z M 322.949219 35.625 " fill-opacity="1" fill-rule="nonzero"/></g></g><g clip-path="url(#387c0abb52)"><g clip-path="url(#9a833aad40)"><path fill="#fffb47" d="M 355.574219 54.824219 L 387 54.824219 L 387 94.472656 L 355.574219 94.472656 Z M 355.574219 54.824219 " fill-opacity="1" fill-rule="nonzero"/></g></g><g clip-path="url(#b07b3df99c)"><g clip-path="url(#0dcec3bd99)"><path fill="#fffb47" d="M 386.925781 37.050781 L 408.375 37.050781 L 408.375 95.03125 L 386.925781 95.03125 Z M 386.925781 37.050781 " fill-opacity="1" fill-rule="nonzero"/></g></g><g clip-path="url(#4d2fe992fc)"><g clip-path="url(#1d5c1b0c4f)"><path fill="#fffb47" d="M 404.023438 54.601562 L 430.5 54.601562 L 430.5 94.003906 L 404.023438 94.003906 Z M 404.023438 54.601562 " fill-opacity="1" fill-rule="nonzero"/></g></g><g clip-path="url(#ffe8cbb770)"><g clip-path="url(#f36bb4d2ac)"><path fill="#fffb47" d="M 426.226562 52.199219 L 450 52.199219 L 450 95.664062 L 426.226562 95.664062 Z M 426.226562 52.199219 " fill-opacity="1" fill-rule="nonzero"/></g></g></svg>