<svg xmlns="http://www.w3.org/2000/svg" xmlns:xlink="http://www.w3.org/1999/xlink" width="100" zoomAndPan="magnify" viewBox="0 0 75 74.999997" height="100" preserveAspectRatio="xMidYMid meet" version="1.0"><defs><clipPath id="16f7092df1"><path d="M 13.777344 1.027344 L 61.070312 1.027344 L 61.070312 56.410156 L 13.777344 56.410156 Z M 13.777344 1.027344 " clip-rule="nonzero"/></clipPath><clipPath id="0defe5cbf1"><path d="M 39.824219 5.101562 C 38.101562 16.351562 36.226562 18.675781 34.125 21.675781 C 31.199219 25.875 24.601562 31.949219 22.574219 35.925781 C 21.449219 38.324219 20.550781 40.5 21.074219 42.148438 C 21.675781 43.875 24.226562 45.148438 26.101562 46.199219 C 27.976562 47.25 30.300781 47.851562 32.476562 48.375 C 34.648438 48.824219 36.601562 49.351562 39.148438 49.273438 C 42.675781 49.125 49.574219 48 51.675781 46.5 C 52.648438 45.75 52.949219 44.851562 53.25 43.875 C 53.476562 42.976562 53.699219 42.226562 53.324219 40.875 C 52.351562 37.574219 44.925781 29.023438 42.675781 24.75 C 41.25 22.125 40.574219 20.25 39.898438 18.074219 C 39.300781 16.050781 38.925781 13.726562 38.699219 12 C 38.476562 10.726562 38.25 9.449219 38.476562 8.773438 C 38.625 8.324219 39.226562 8.175781 39.226562 7.875 C 39.226562 7.351562 37.949219 6.75 37.726562 6.074219 C 37.425781 5.398438 37.351562 4.5 37.574219 3.824219 C 37.800781 3.074219 38.25 2.324219 38.851562 1.875 C 39.449219 1.425781 40.351562 1.125 41.023438 1.125 C 41.773438 1.125 42.675781 1.425781 43.273438 1.875 C 43.800781 2.324219 44.324219 3.074219 44.550781 3.75 C 44.773438 4.5 44.773438 5.398438 44.476562 6.074219 C 44.023438 6.898438 42.824219 8.101562 41.851562 8.324219 C 40.875 8.476562 39.300781 8.101562 38.550781 7.425781 C 37.875 6.675781 37.351562 5.175781 37.5 4.199219 C 37.648438 3.226562 38.699219 1.949219 39.523438 1.5 C 40.199219 1.050781 41.25 1.125 41.851562 1.199219 C 42.300781 1.273438 42.523438 1.273438 42.898438 1.648438 C 43.875 2.625 45.226562 6.824219 45.824219 9.300781 C 46.425781 11.476562 46.199219 13.648438 46.800781 15.75 C 47.398438 17.925781 48.300781 19.949219 49.5 22.050781 C 50.925781 24.601562 53.175781 26.773438 54.898438 29.625 C 57 32.925781 60.375 38.175781 60.898438 40.800781 C 61.199219 42.148438 61.050781 42.898438 60.675781 44.101562 C 60.300781 45.75 58.875 48.449219 57.976562 49.949219 C 57.300781 50.925781 56.773438 51.675781 55.949219 52.273438 C 55.050781 52.875 54.148438 53.101562 52.574219 53.550781 C 49.648438 54.449219 42.375 56.101562 39.226562 56.324219 C 37.648438 56.476562 36.898438 56.324219 35.476562 56.175781 C 33.449219 55.875 30.675781 55.425781 28.125 54.523438 C 25.273438 53.625 21.824219 52.050781 19.351562 50.476562 C 17.324219 49.199219 15.148438 47.625 14.324219 46.050781 C 13.726562 44.925781 13.726562 43.875 13.875 42.449219 C 14.101562 39.976562 15.074219 36.449219 16.949219 32.925781 C 19.875 27.226562 29.851562 16.425781 32.101562 12.75 C 32.925781 11.476562 33.074219 11.175781 33.449219 10.050781 C 33.976562 8.25 33.375 4.273438 34.425781 3.074219 C 35.175781 2.175781 36.898438 1.875 37.800781 2.175781 C 38.699219 2.550781 39.824219 5.101562 39.824219 5.101562 " clip-rule="nonzero"/></clipPath><clipPath id="16208e8769"><path d="M 1.664062 54.835938 L 16 54.835938 L 16 73.257812 L 1.664062 73.257812 Z M 1.664062 54.835938 " clip-rule="nonzero"/></clipPath><clipPath id="a46f311d96"><path d="M 1.726562 72.300781 C 5.625 60 5.175781 56.550781 5.851562 55.648438 C 6.074219 55.273438 6.449219 55.125 6.675781 55.125 C 6.976562 55.199219 7.273438 55.425781 7.425781 55.800781 C 8.175781 57.226562 7.5 66.074219 8.398438 66.375 C 8.925781 66.523438 10.050781 64.875 10.5 63.675781 C 11.175781 61.800781 10.199219 57.074219 10.648438 55.800781 C 10.875 55.273438 11.175781 54.976562 11.476562 54.898438 C 11.773438 54.898438 12.148438 55.125 12.449219 55.574219 C 13.425781 57.300781 12.300781 68.398438 13.726562 70.199219 C 14.324219 70.949219 15.601562 70.574219 15.824219 70.949219 C 16.050781 71.25 15.976562 71.851562 15.75 72.074219 C 15.601562 72.226562 14.925781 72.449219 14.773438 72.300781 C 14.476562 72.074219 14.550781 70.800781 14.773438 70.648438 C 14.925781 70.574219 15.976562 71.398438 15.976562 71.699219 C 15.976562 71.925781 15.523438 72.300781 15.074219 72.375 C 14.398438 72.449219 12.824219 71.925781 12.074219 70.875 C 10.726562 68.851562 10.875 61.5 10.726562 58.726562 C 10.648438 57.375 10.425781 56.175781 10.726562 55.574219 C 10.875 55.199219 11.175781 54.898438 11.476562 54.898438 C 11.773438 54.898438 12.226562 55.199219 12.449219 55.574219 C 12.75 56.101562 12.601562 57 12.601562 58.050781 C 12.601562 59.773438 12.75 63.523438 11.851562 65.25 C 11.175781 66.601562 9.675781 67.875 8.773438 68.175781 C 8.175781 68.398438 7.574219 68.476562 7.125 68.101562 C 5.925781 66.898438 5.25 55.875 6.074219 55.273438 C 6.449219 55.125 7.199219 55.5 7.5 56.023438 C 8.023438 57 7.425781 59.925781 6.898438 62.25 C 6.226562 65.324219 4.273438 71.699219 3.148438 72.824219 C 2.851562 73.125 2.398438 73.273438 2.175781 73.199219 C 1.949219 73.125 1.726562 72.300781 1.726562 72.300781 " clip-rule="nonzero"/></clipPath><clipPath id="f353199070"><path d="M 15.804688 60.953125 L 23.910156 60.953125 L 23.910156 71.636719 L 15.804688 71.636719 Z M 15.804688 60.953125 " clip-rule="nonzero"/></clipPath><clipPath id="ba201c0b6b"><path d="M 19.949219 63.226562 C 17.773438 64.125 17.550781 64.648438 17.550781 65.324219 C 17.550781 66.375 18.449219 69.300781 19.050781 69.75 C 19.273438 69.976562 19.574219 69.976562 19.800781 69.898438 C 20.324219 69.675781 21 68.625 21.375 67.875 C 21.75 66.976562 22.273438 65.625 21.898438 64.726562 C 21.523438 63.75 18.898438 63.074219 18.449219 62.324219 C 18.226562 61.949219 18.074219 61.425781 18.300781 61.199219 C 18.75 60.675781 22.5 61.125 23.25 61.648438 C 23.625 61.949219 23.851562 62.550781 23.773438 62.851562 C 23.699219 63.074219 23.101562 63.449219 22.875 63.375 C 22.574219 63.300781 22.199219 62.023438 22.351562 61.875 C 22.5 61.726562 23.773438 62.175781 23.851562 62.476562 C 23.925781 62.699219 23.398438 63.226562 22.949219 63.375 C 22.199219 63.601562 20.023438 62.851562 19.199219 62.550781 C 18.75 62.398438 18.375 62.25 18.226562 62.023438 C 18.148438 61.726562 18.226562 61.199219 18.449219 61.050781 C 18.976562 60.75 21.75 61.726562 22.574219 62.625 C 23.324219 63.375 23.625 64.425781 23.699219 65.476562 C 23.699219 66.75 23.101562 68.550781 22.351562 69.601562 C 21.601562 70.574219 20.25 71.625 19.351562 71.625 C 18.601562 71.699219 17.773438 71.101562 17.25 70.351562 C 16.425781 69.300781 15.601562 66.449219 15.898438 64.949219 C 16.125 63.675781 17.175781 62.25 18.074219 61.800781 C 18.75 61.425781 19.949219 61.5 20.398438 61.800781 C 20.625 61.949219 20.773438 62.324219 20.773438 62.550781 C 20.699219 62.851562 19.949219 63.226562 19.949219 63.226562 " clip-rule="nonzero"/></clipPath><clipPath id="6ed20847e6"><path d="M 22.828125 56.523438 L 39.113281 56.523438 L 39.113281 72.722656 L 22.828125 72.722656 Z M 22.828125 56.523438 " clip-rule="nonzero"/></clipPath><clipPath id="963106d8a5"><path d="M 27.148438 68.476562 C 24.601562 68.625 24.601562 69 24.675781 69.300781 C 24.675781 69.75 24.675781 70.648438 25.050781 70.875 C 25.425781 71.101562 26.324219 70.875 26.851562 70.5 C 27.523438 70.050781 28.125 68.851562 28.574219 67.648438 C 29.175781 66.148438 29.625 63.75 29.550781 61.949219 C 29.550781 60.375 28.425781 58.351562 28.726562 57.449219 C 28.800781 57 29.25 56.625 29.550781 56.625 C 29.773438 56.550781 30.226562 56.773438 30.375 57.148438 C 30.898438 58.125 29.476562 62.773438 29.550781 64.949219 C 29.625 66.523438 30 68.25 30.375 69 C 30.523438 69.375 30.601562 69.675781 30.824219 69.75 C 31.199219 69.824219 31.949219 69.300781 32.398438 68.699219 C 33.148438 67.726562 33.601562 63.898438 34.273438 63.675781 C 34.574219 63.601562 34.949219 63.976562 35.175781 64.351562 C 35.625 65.101562 34.800781 67.800781 35.324219 68.324219 C 35.625 68.625 36.449219 68.699219 36.75 68.398438 C 37.199219 67.949219 36.226562 65.324219 36.601562 64.574219 C 36.75 64.199219 37.273438 63.824219 37.5 63.898438 C 37.800781 63.898438 38.101562 64.125 38.324219 64.5 C 38.773438 65.476562 39.375 69.675781 38.851562 70.574219 C 38.550781 71.023438 37.648438 71.25 37.5 71.101562 C 37.273438 70.949219 37.574219 69.601562 37.800781 69.523438 C 38.023438 69.449219 38.851562 70.574219 38.773438 70.800781 C 38.699219 71.023438 37.648438 71.175781 37.351562 70.949219 C 36.75 70.574219 36.601562 68.925781 36.449219 67.875 C 36.375 66.824219 36.226562 65.25 36.601562 64.574219 C 36.75 64.199219 37.273438 63.75 37.5 63.898438 C 38.101562 64.050781 39.074219 66.449219 38.925781 67.574219 C 38.851562 68.625 37.800781 69.976562 37.050781 70.351562 C 36.523438 70.648438 35.773438 70.574219 35.175781 70.351562 C 34.648438 70.199219 34.050781 69.824219 33.675781 69.226562 C 33.148438 68.25 33.074219 65.175781 33.523438 64.351562 C 33.675781 63.976562 34.125 63.675781 34.425781 63.675781 C 34.726562 63.75 35.023438 64.050781 35.175781 64.351562 C 35.398438 64.875 35.324219 65.851562 35.101562 66.75 C 34.726562 67.875 33.976562 70.050781 33 70.800781 C 32.25 71.324219 30.824219 71.476562 30.074219 71.175781 C 29.550781 71.023438 29.175781 70.574219 28.800781 69.898438 C 28.199219 68.699219 27.898438 66.148438 27.898438 64.125 C 27.824219 61.949219 28.050781 58.273438 28.726562 57.226562 C 29.023438 56.851562 29.398438 56.476562 29.699219 56.625 C 30.375 56.851562 31.273438 60.226562 31.273438 62.25 C 31.351562 64.648438 30.300781 68.25 29.398438 69.898438 C 28.949219 70.949219 28.425781 71.550781 27.675781 72 C 26.925781 72.449219 25.875 72.75 25.125 72.601562 C 24.375 72.375 23.476562 71.625 23.101562 70.949219 C 22.800781 70.351562 22.875 69.300781 23.175781 68.625 C 23.398438 67.949219 24.074219 67.199219 24.824219 66.898438 C 25.5 66.601562 27 66.75 27.449219 67.050781 C 27.75 67.199219 27.898438 67.574219 27.898438 67.800781 C 27.824219 68.023438 27.148438 68.476562 27.148438 68.476562 " clip-rule="nonzero"/></clipPath><clipPath id="484faaed3d"><path d="M 42.0625 57.742188 L 49.210938 57.742188 L 49.210938 71.375 L 42.0625 71.375 Z M 42.0625 57.742188 " clip-rule="nonzero"/></clipPath><clipPath id="9a32251362"><path d="M 44.101562 58.5 C 43.949219 67.949219 43.949219 69.074219 44.476562 69.375 C 45.226562 69.75 47.550781 67.800781 48.375 67.949219 C 48.75 68.101562 49.199219 68.550781 49.199219 68.851562 C 49.125 69.148438 48.226562 69.675781 48 69.601562 C 47.773438 69.449219 47.773438 68.25 48 68.023438 C 48.148438 67.875 48.824219 68.023438 48.976562 68.25 C 49.125 68.476562 49.199219 68.925781 49.050781 69.300781 C 48.675781 69.976562 46.351562 71.25 45.300781 71.324219 C 44.550781 71.398438 43.800781 71.101562 43.273438 70.574219 C 42.601562 69.824219 42.449219 68.101562 42.226562 66.523438 C 42 64.273438 42.074219 59.699219 42.523438 58.5 C 42.75 58.050781 42.976562 57.75 43.199219 57.75 C 43.5 57.75 44.101562 58.5 44.101562 58.5 " clip-rule="nonzero"/></clipPath><clipPath id="afbe2a8979"><path d="M 50.480469 60.414062 L 58.460938 60.414062 L 58.460938 69.792969 L 50.480469 69.792969 Z M 50.480469 60.414062 " clip-rule="nonzero"/></clipPath><clipPath id="807f13d69c"><path d="M 52.199219 61.800781 C 52.726562 66.226562 53.476562 67.800781 54 67.800781 C 54.523438 67.800781 55.199219 66.523438 55.425781 65.625 C 55.800781 64.351562 54.824219 61.726562 55.273438 61.050781 C 55.574219 60.675781 56.324219 60.449219 56.699219 60.75 C 57.675781 61.351562 58.726562 67.425781 58.351562 68.773438 C 58.199219 69.300781 57.824219 69.675781 57.523438 69.75 C 57.300781 69.75 56.773438 69.375 56.699219 69.148438 C 56.625 68.851562 57 68.101562 57.300781 68.023438 C 57.601562 67.949219 58.273438 68.398438 58.351562 68.699219 C 58.425781 68.925781 57.898438 69.675781 57.675781 69.675781 C 57.375 69.75 57 69.601562 56.699219 69.226562 C 56.023438 68.25 55.125 64.199219 55.199219 62.625 C 55.351562 61.648438 55.800781 60.449219 56.101562 60.449219 C 56.476562 60.523438 57.148438 62.25 57.226562 63.300781 C 57.375 64.574219 57.148438 66.601562 56.625 67.648438 C 56.175781 68.476562 55.5 69.226562 54.75 69.375 C 54.074219 69.601562 53.023438 69.523438 52.425781 69 C 51.449219 68.25 50.851562 65.773438 50.625 64.425781 C 50.476562 63.375 50.398438 61.949219 50.699219 61.425781 C 50.925781 61.125 51.449219 60.976562 51.675781 61.050781 C 51.898438 61.125 52.199219 61.800781 52.199219 61.800781 " clip-rule="nonzero"/></clipPath><clipPath id="6361224b41"><path d="M 59.320312 60.421875 L 66.300781 60.421875 L 66.300781 71.117188 L 59.320312 71.117188 Z M 59.320312 60.421875 " clip-rule="nonzero"/></clipPath><clipPath id="a474b3b3b0"><path d="M 64.050781 62.101562 C 62.476562 62.324219 62.101562 63.148438 62.25 63.523438 C 62.550781 64.199219 65.175781 64.199219 65.773438 65.023438 C 66.375 65.851562 66.375 67.5 66.074219 68.476562 C 65.773438 69.300781 65.023438 70.050781 64.125 70.425781 C 63.074219 70.949219 60.824219 71.324219 60.074219 70.949219 C 59.625 70.648438 59.25 69.675781 59.398438 69.449219 C 59.550781 69.300781 60.75 69.375 60.898438 69.601562 C 60.976562 69.898438 60.148438 70.949219 59.925781 70.875 C 59.699219 70.875 59.324219 69.675781 59.550781 69.375 C 59.925781 68.851562 62.324219 69.449219 63.226562 68.925781 C 63.898438 68.550781 64.800781 67.648438 64.648438 67.050781 C 64.5 66.226562 61.648438 65.925781 61.050781 64.949219 C 60.523438 64.050781 60.675781 62.398438 60.976562 61.648438 C 61.199219 61.125 61.574219 60.824219 62.101562 60.601562 C 62.625 60.375 63.601562 60.375 64.125 60.601562 C 64.425781 60.75 64.800781 61.050781 64.800781 61.273438 C 64.875 61.574219 64.050781 62.101562 64.050781 62.101562 " clip-rule="nonzero"/></clipPath><clipPath id="b3adc07955"><path d="M 27.078125 67.425781 L 28.527344 67.425781 L 28.527344 68.621094 L 27.078125 68.621094 Z M 27.078125 67.425781 " clip-rule="nonzero"/></clipPath><clipPath id="3c60d3e2c2"><path d="M 28.5 67.875 C 27.824219 68.851562 27.226562 68.625 27.148438 68.476562 C 27 68.25 27.148438 67.648438 27.300781 67.5 C 27.523438 67.351562 28.273438 67.5 28.273438 67.5 " clip-rule="nonzero"/></clipPath><clipPath id="2ba5dd1959"><path d="M 37.601562 28.621094 L 45.839844 28.621094 L 45.839844 31.214844 L 37.601562 31.214844 Z M 37.601562 28.621094 " clip-rule="nonzero"/></clipPath><clipPath id="fd8ee511d3"><path d="M 45.074219 31.199219 C 37.648438 30 37.648438 29.101562 37.800781 28.949219 C 38.023438 28.875 39.074219 29.550781 39.074219 29.699219 C 39 29.925781 37.800781 30.300781 37.648438 30.148438 C 37.574219 30 37.800781 29.101562 38.25 28.800781 C 39.226562 28.273438 44.25 29.101562 45.226562 29.699219 C 45.601562 29.925781 45.824219 30.300781 45.824219 30.523438 C 45.75 30.75 45.074219 31.199219 45.074219 31.199219 " clip-rule="nonzero"/></clipPath><clipPath id="b7212df45a"><path d="M 38.304688 34.527344 L 49.367188 34.527344 L 49.367188 36.847656 L 38.304688 36.847656 Z M 38.304688 34.527344 " clip-rule="nonzero"/></clipPath><clipPath id="4b3aa17364"><path d="M 48.601562 36.824219 C 38.398438 36.074219 38.25 35.625 38.324219 35.324219 C 38.398438 35.101562 38.925781 34.800781 39.148438 34.800781 C 39.449219 34.875 39.898438 35.476562 39.898438 35.773438 C 39.824219 36 39.226562 36.449219 38.925781 36.375 C 38.699219 36.375 38.324219 35.925781 38.324219 35.699219 C 38.324219 35.398438 38.625 35.023438 39.074219 34.800781 C 40.5 34.273438 47.550781 34.648438 48.824219 35.324219 C 49.199219 35.550781 49.425781 35.925781 49.351562 36.148438 C 49.351562 36.449219 48.601562 36.824219 48.601562 36.824219 " clip-rule="nonzero"/></clipPath><clipPath id="af2c05af51"><path d="M 40.628906 40.605469 L 51.089844 40.605469 L 51.089844 43.21875 L 40.628906 43.21875 Z M 40.628906 40.605469 " clip-rule="nonzero"/></clipPath><clipPath id="8135996e61"><path d="M 50.324219 43.199219 C 40.949219 42.148438 40.648438 41.699219 40.648438 41.398438 C 40.726562 41.175781 41.175781 40.726562 41.398438 40.726562 C 41.699219 40.726562 42.300781 41.25 42.300781 41.550781 C 42.300781 41.773438 41.476562 42.375 41.25 42.375 C 40.949219 42.300781 40.648438 41.773438 40.648438 41.550781 C 40.726562 41.25 41.101562 40.875 41.550781 40.726562 C 42.976562 40.351562 49.351562 41.023438 50.550781 41.699219 C 50.925781 41.925781 51.148438 42.300781 51.074219 42.523438 C 51.074219 42.824219 50.324219 43.199219 50.324219 43.199219 " clip-rule="nonzero"/></clipPath></defs><g clip-path="url(#16f7092df1)"><g clip-path="url(#0defe5cbf1)"><path fill="#1e1e1e" d="M 10.875 -1.875 L 63.976562 -1.875 L 63.976562 59.3125 L 10.875 59.3125 Z M 10.875 -1.875 " fill-opacity="1" fill-rule="nonzero"/></g></g><g clip-path="url(#16208e8769)"><g clip-path="url(#a46f311d96)"><path fill="#1e1e1e" d="M -1.273438 51.898438 L 19.050781 51.898438 L 19.050781 76.195312 L -1.273438 76.195312 Z M -1.273438 51.898438 " fill-opacity="1" fill-rule="nonzero"/></g></g><g clip-path="url(#f353199070)"><g clip-path="url(#ba201c0b6b)"><path fill="#1e1e1e" d="M 12.898438 58.050781 L 26.925781 58.050781 L 26.925781 74.703125 L 12.898438 74.703125 Z M 12.898438 58.050781 " fill-opacity="1" fill-rule="nonzero"/></g></g><g clip-path="url(#6ed20847e6)"><g clip-path="url(#963106d8a5)"><path fill="#1e1e1e" d="M 20.101562 53.625 L 41.925781 53.625 L 41.925781 75.621094 L 20.101562 75.621094 Z M 20.101562 53.625 " fill-opacity="1" fill-rule="nonzero"/></g></g><g clip-path="url(#484faaed3d)"><g clip-path="url(#9a32251362)"><path fill="#1e1e1e" d="M 39.226562 54.75 L 52.199219 54.75 L 52.199219 74.414062 L 39.226562 74.414062 Z M 39.226562 54.75 " fill-opacity="1" fill-rule="nonzero"/></g></g><g clip-path="url(#afbe2a8979)"><g clip-path="url(#807f13d69c)"><path fill="#1e1e1e" d="M 47.625 57.449219 L 61.425781 57.449219 L 61.425781 72.757812 L 47.625 72.757812 Z M 47.625 57.449219 " fill-opacity="1" fill-rule="nonzero"/></g></g><g clip-path="url(#6361224b41)"><g clip-path="url(#a474b3b3b0)"><path fill="#1e1e1e" d="M 56.398438 57.601562 L 69.074219 57.601562 L 69.074219 73.9375 L 56.398438 73.9375 Z M 56.398438 57.601562 " fill-opacity="1" fill-rule="nonzero"/></g></g><g clip-path="url(#b3adc07955)"><g clip-path="url(#3c60d3e2c2)"><path fill="#1e1e1e" d="M 24.148438 64.5 L 31.566406 64.5 L 31.566406 71.773438 L 24.148438 71.773438 Z M 24.148438 64.5 " fill-opacity="1" fill-rule="nonzero"/></g></g><g clip-path="url(#2ba5dd1959)"><g clip-path="url(#fd8ee511d3)"><path fill="#1e1e1e" d="M 34.648438 25.800781 L 48.824219 25.800781 L 48.824219 34.199219 L 34.648438 34.199219 Z M 34.648438 25.800781 " fill-opacity="1" fill-rule="nonzero"/></g></g><g clip-path="url(#b7212df45a)"><g clip-path="url(#4b3aa17364)"><path fill="#1e1e1e" d="M 35.324219 31.800781 L 52.410156 31.800781 L 52.410156 39.824219 L 35.324219 39.824219 Z M 35.324219 31.800781 " fill-opacity="1" fill-rule="nonzero"/></g></g><g clip-path="url(#af2c05af51)"><g clip-path="url(#8135996e61)"><path fill="#1e1e1e" d="M 37.648438 37.726562 L 54.136719 37.726562 L 54.136719 46.199219 L 37.648438 46.199219 Z M 37.648438 37.726562 " fill-opacity="1" fill-rule="nonzero"/></g></g></svg>