<svg xmlns="http://www.w3.org/2000/svg" xmlns:xlink="http://www.w3.org/1999/xlink" width="100" zoomAndPan="magnify" viewBox="0 0 75 74.999997" height="100" preserveAspectRatio="xMidYMid meet" version="1.0"><defs><filter x="0%" y="0%" width="100%" height="100%" id="479dc9821a"><feColorMatrix values="0 0 0 0 1 0 0 0 0 1 0 0 0 0 1 0 0 0 1 0" color-interpolation-filters="sRGB"/></filter><mask id="2fa6a49036"><g filter="url(#479dc9821a)"><rect x="-7.5" width="90" fill="#000000" y="-7.5" height="89.999996" fill-opacity="0.62"/></g></mask><clipPath id="18b8db6149"><path d="M 3.777344 1.027344 L 51.070312 1.027344 L 51.070312 56.410156 L 3.777344 56.410156 Z M 3.777344 1.027344 " clip-rule="nonzero"/></clipPath><clipPath id="c37d1c7d70"><path d="M 29.824219 5.101562 C 28.101562 16.351562 26.226562 18.675781 24.125 21.675781 C 21.199219 25.875 14.601562 31.949219 12.574219 35.925781 C 11.449219 38.324219 10.550781 40.5 11.074219 42.148438 C 11.675781 43.875 14.226562 45.148438 16.101562 46.199219 C 17.976562 47.25 20.300781 47.851562 22.476562 48.375 C 24.648438 48.824219 26.601562 49.351562 29.148438 49.273438 C 32.675781 49.125 39.574219 48 41.675781 46.5 C 42.648438 45.75 42.949219 44.851562 43.25 43.875 C 43.476562 42.976562 43.699219 42.226562 43.324219 40.875 C 42.351562 37.574219 34.925781 29.023438 32.675781 24.75 C 31.25 22.125 30.574219 20.25 29.898438 18.074219 C 29.300781 16.050781 28.925781 13.726562 28.699219 12 C 28.476562 10.726562 28.25 9.449219 28.476562 8.773438 C 28.625 8.324219 29.226562 8.175781 29.226562 7.875 C 29.226562 7.351562 27.949219 6.75 27.726562 6.074219 C 27.425781 5.398438 27.351562 4.5 27.574219 3.824219 C 27.800781 3.074219 28.25 2.324219 28.851562 1.875 C 29.449219 1.425781 30.351562 1.125 31.023438 1.125 C 31.773438 1.125 32.675781 1.425781 33.273438 1.875 C 33.800781 2.324219 34.324219 3.074219 34.550781 3.75 C 34.773438 4.5 34.773438 5.398438 34.476562 6.074219 C 34.023438 6.898438 32.824219 8.101562 31.851562 8.324219 C 30.875 8.476562 29.300781 8.101562 28.550781 7.425781 C 27.875 6.675781 27.351562 5.175781 27.5 4.199219 C 27.648438 3.226562 28.699219 1.949219 29.523438 1.5 C 30.199219 1.050781 31.25 1.125 31.851562 1.199219 C 32.300781 1.273438 32.523438 1.273438 32.898438 1.648438 C 33.875 2.625 35.226562 6.824219 35.824219 9.300781 C 36.425781 11.476562 36.199219 13.648438 36.800781 15.75 C 37.398438 17.925781 38.300781 19.949219 39.5 22.050781 C 40.925781 24.601562 43.175781 26.773438 44.898438 29.625 C 47 32.925781 50.375 38.175781 50.898438 40.800781 C 51.199219 42.148438 51.050781 42.898438 50.675781 44.101562 C 50.300781 45.75 48.875 48.449219 47.976562 49.949219 C 47.300781 50.925781 46.773438 51.675781 45.949219 52.273438 C 45.050781 52.875 44.148438 53.101562 42.574219 53.550781 C 39.648438 54.449219 32.375 56.101562 29.226562 56.324219 C 27.648438 56.476562 26.898438 56.324219 25.476562 56.175781 C 23.449219 55.875 20.675781 55.425781 18.125 54.523438 C 15.273438 53.625 11.824219 52.050781 9.351562 50.476562 C 7.324219 49.199219 5.148438 47.625 4.324219 46.050781 C 3.726562 44.925781 3.726562 43.875 3.875 42.449219 C 4.101562 39.976562 5.074219 36.449219 6.949219 32.925781 C 9.875 27.226562 19.851562 16.425781 22.101562 12.75 C 22.925781 11.476562 23.074219 11.175781 23.449219 10.050781 C 23.976562 8.25 23.375 4.273438 24.425781 3.074219 C 25.175781 2.175781 26.898438 1.875 27.800781 2.175781 C 28.699219 2.550781 29.824219 5.101562 29.824219 5.101562 " clip-rule="nonzero"/></clipPath><clipPath id="d499e3d350"><rect x="0" width="55" y="0" height="60"/></clipPath><mask id="4063146cd6"><g filter="url(#479dc9821a)"><rect x="-7.5" width="90" fill="#000000" y="-7.5" height="89.999996" fill-opacity="0.62"/></g></mask><clipPath id="58a7f394cb"><path d="M 1.664062 3.835938 L 16 3.835938 L 16 22.257812 L 1.664062 22.257812 Z M 1.664062 3.835938 " clip-rule="nonzero"/></clipPath><clipPath id="90ca15321a"><path d="M 1.726562 21.300781 C 5.625 9 5.175781 5.550781 5.851562 4.648438 C 6.074219 4.273438 6.449219 4.125 6.675781 4.125 C 6.976562 4.199219 7.273438 4.425781 7.425781 4.800781 C 8.175781 6.226562 7.5 15.074219 8.398438 15.375 C 8.925781 15.523438 10.050781 13.875 10.5 12.675781 C 11.175781 10.800781 10.199219 6.074219 10.648438 4.800781 C 10.875 4.273438 11.175781 3.976562 11.476562 3.898438 C 11.773438 3.898438 12.148438 4.125 12.449219 4.574219 C 13.425781 6.300781 12.300781 17.398438 13.726562 19.199219 C 14.324219 19.949219 15.601562 19.574219 15.824219 19.949219 C 16.050781 20.25 15.976562 20.851562 15.75 21.074219 C 15.601562 21.226562 14.925781 21.449219 14.773438 21.300781 C 14.476562 21.074219 14.550781 19.800781 14.773438 19.648438 C 14.925781 19.574219 15.976562 20.398438 15.976562 20.699219 C 15.976562 20.925781 15.523438 21.300781 15.074219 21.375 C 14.398438 21.449219 12.824219 20.925781 12.074219 19.875 C 10.726562 17.851562 10.875 10.5 10.726562 7.726562 C 10.648438 6.375 10.425781 5.175781 10.726562 4.574219 C 10.875 4.199219 11.175781 3.898438 11.476562 3.898438 C 11.773438 3.898438 12.226562 4.199219 12.449219 4.574219 C 12.75 5.101562 12.601562 6 12.601562 7.050781 C 12.601562 8.773438 12.75 12.523438 11.851562 14.25 C 11.175781 15.601562 9.675781 16.875 8.773438 17.175781 C 8.175781 17.398438 7.574219 17.476562 7.125 17.101562 C 5.925781 15.898438 5.25 4.875 6.074219 4.273438 C 6.449219 4.125 7.199219 4.5 7.5 5.023438 C 8.023438 6 7.425781 8.925781 6.898438 11.25 C 6.226562 14.324219 4.273438 20.699219 3.148438 21.824219 C 2.851562 22.125 2.398438 22.273438 2.175781 22.199219 C 1.949219 22.125 1.726562 21.300781 1.726562 21.300781 " clip-rule="nonzero"/></clipPath><clipPath id="8500b133d5"><rect x="0" width="20" y="0" height="24"/></clipPath><mask id="4e1f4818b6"><g filter="url(#479dc9821a)"><rect x="-7.5" width="90" fill="#000000" y="-7.5" height="89.999996" fill-opacity="0.62"/></g></mask><clipPath id="8bc61f7f62"><path d="M 3.804688 3.953125 L 11.910156 3.953125 L 11.910156 14.636719 L 3.804688 14.636719 Z M 3.804688 3.953125 " clip-rule="nonzero"/></clipPath><clipPath id="67782612f0"><path d="M 7.949219 6.226562 C 5.773438 7.125 5.550781 7.648438 5.550781 8.324219 C 5.550781 9.375 6.449219 12.300781 7.050781 12.75 C 7.273438 12.976562 7.574219 12.976562 7.800781 12.898438 C 8.324219 12.675781 9 11.625 9.375 10.875 C 9.75 9.976562 10.273438 8.625 9.898438 7.726562 C 9.523438 6.75 6.898438 6.074219 6.449219 5.324219 C 6.226562 4.949219 6.074219 4.425781 6.300781 4.199219 C 6.75 3.675781 10.5 4.125 11.25 4.648438 C 11.625 4.949219 11.851562 5.550781 11.773438 5.851562 C 11.699219 6.074219 11.101562 6.449219 10.875 6.375 C 10.574219 6.300781 10.199219 5.023438 10.351562 4.875 C 10.5 4.726562 11.773438 5.175781 11.851562 5.476562 C 11.925781 5.699219 11.398438 6.226562 10.949219 6.375 C 10.199219 6.601562 8.023438 5.851562 7.199219 5.550781 C 6.75 5.398438 6.375 5.25 6.226562 5.023438 C 6.148438 4.726562 6.226562 4.199219 6.449219 4.050781 C 6.976562 3.75 9.75 4.726562 10.574219 5.625 C 11.324219 6.375 11.625 7.425781 11.699219 8.476562 C 11.699219 9.75 11.101562 11.550781 10.351562 12.601562 C 9.601562 13.574219 8.25 14.625 7.351562 14.625 C 6.601562 14.699219 5.773438 14.101562 5.25 13.351562 C 4.425781 12.300781 3.601562 9.449219 3.898438 7.949219 C 4.125 6.675781 5.175781 5.25 6.074219 4.800781 C 6.75 4.425781 7.949219 4.5 8.398438 4.800781 C 8.625 4.949219 8.773438 5.324219 8.773438 5.550781 C 8.699219 5.851562 7.949219 6.226562 7.949219 6.226562 " clip-rule="nonzero"/></clipPath><clipPath id="beb107964d"><rect x="0" width="16" y="0" height="18"/></clipPath><mask id="dba4a9bf9b"><g filter="url(#479dc9821a)"><rect x="-7.5" width="90" fill="#000000" y="-7.5" height="89.999996" fill-opacity="0.62"/></g></mask><clipPath id="07915c810c"><path d="M 3.828125 3.523438 L 20.113281 3.523438 L 20.113281 19.722656 L 3.828125 19.722656 Z M 3.828125 3.523438 " clip-rule="nonzero"/></clipPath><clipPath id="10f357eb2e"><path d="M 8.148438 15.476562 C 5.601562 15.625 5.601562 16 5.675781 16.300781 C 5.675781 16.75 5.675781 17.648438 6.050781 17.875 C 6.425781 18.101562 7.324219 17.875 7.851562 17.5 C 8.523438 17.050781 9.125 15.851562 9.574219 14.648438 C 10.175781 13.148438 10.625 10.75 10.550781 8.949219 C 10.550781 7.375 9.425781 5.351562 9.726562 4.449219 C 9.800781 4 10.25 3.625 10.550781 3.625 C 10.773438 3.550781 11.226562 3.773438 11.375 4.148438 C 11.898438 5.125 10.476562 9.773438 10.550781 11.949219 C 10.625 13.523438 11 15.25 11.375 16 C 11.523438 16.375 11.601562 16.675781 11.824219 16.75 C 12.199219 16.824219 12.949219 16.300781 13.398438 15.699219 C 14.148438 14.726562 14.601562 10.898438 15.273438 10.675781 C 15.574219 10.601562 15.949219 10.976562 16.175781 11.351562 C 16.625 12.101562 15.800781 14.800781 16.324219 15.324219 C 16.625 15.625 17.449219 15.699219 17.75 15.398438 C 18.199219 14.949219 17.226562 12.324219 17.601562 11.574219 C 17.75 11.199219 18.273438 10.824219 18.5 10.898438 C 18.800781 10.898438 19.101562 11.125 19.324219 11.5 C 19.773438 12.476562 20.375 16.675781 19.851562 17.574219 C 19.550781 18.023438 18.648438 18.25 18.5 18.101562 C 18.273438 17.949219 18.574219 16.601562 18.800781 16.523438 C 19.023438 16.449219 19.851562 17.574219 19.773438 17.800781 C 19.699219 18.023438 18.648438 18.175781 18.351562 17.949219 C 17.75 17.574219 17.601562 15.925781 17.449219 14.875 C 17.375 13.824219 17.226562 12.25 17.601562 11.574219 C 17.75 11.199219 18.273438 10.75 18.5 10.898438 C 19.101562 11.050781 20.074219 13.449219 19.925781 14.574219 C 19.851562 15.625 18.800781 16.976562 18.050781 17.351562 C 17.523438 17.648438 16.773438 17.574219 16.175781 17.351562 C 15.648438 17.199219 15.050781 16.824219 14.675781 16.226562 C 14.148438 15.25 14.074219 12.175781 14.523438 11.351562 C 14.675781 10.976562 15.125 10.675781 15.425781 10.675781 C 15.726562 10.75 16.023438 11.050781 16.175781 11.351562 C 16.398438 11.875 16.324219 12.851562 16.101562 13.75 C 15.726562 14.875 14.976562 17.050781 14 17.800781 C 13.25 18.324219 11.824219 18.476562 11.074219 18.175781 C 10.550781 18.023438 10.175781 17.574219 9.800781 16.898438 C 9.199219 15.699219 8.898438 13.148438 8.898438 11.125 C 8.824219 8.949219 9.050781 5.273438 9.726562 4.226562 C 10.023438 3.851562 10.398438 3.476562 10.699219 3.625 C 11.375 3.851562 12.273438 7.226562 12.273438 9.25 C 12.351562 11.648438 11.300781 15.25 10.398438 16.898438 C 9.949219 17.949219 9.425781 18.550781 8.675781 19 C 7.925781 19.449219 6.875 19.75 6.125 19.601562 C 5.375 19.375 4.476562 18.625 4.101562 17.949219 C 3.800781 17.351562 3.875 16.300781 4.175781 15.625 C 4.398438 14.949219 5.074219 14.199219 5.824219 13.898438 C 6.5 13.601562 8 13.75 8.449219 14.050781 C 8.75 14.199219 8.898438 14.574219 8.898438 14.800781 C 8.824219 15.023438 8.148438 15.476562 8.148438 15.476562 " clip-rule="nonzero"/></clipPath><clipPath id="e3b7f7b9a8"><rect x="0" width="23" y="0" height="22"/></clipPath><mask id="0ffe639a00"><g filter="url(#479dc9821a)"><rect x="-7.5" width="90" fill="#000000" y="-7.5" height="89.999996" fill-opacity="0.62"/></g></mask><clipPath id="349599082c"><path d="M 3.0625 3.742188 L 10.210938 3.742188 L 10.210938 17.375 L 3.0625 17.375 Z M 3.0625 3.742188 " clip-rule="nonzero"/></clipPath><clipPath id="8f6b469448"><path d="M 5.101562 4.5 C 4.949219 13.949219 4.949219 15.074219 5.476562 15.375 C 6.226562 15.75 8.550781 13.800781 9.375 13.949219 C 9.75 14.101562 10.199219 14.550781 10.199219 14.851562 C 10.125 15.148438 9.226562 15.675781 9 15.601562 C 8.773438 15.449219 8.773438 14.25 9 14.023438 C 9.148438 13.875 9.824219 14.023438 9.976562 14.25 C 10.125 14.476562 10.199219 14.925781 10.050781 15.300781 C 9.675781 15.976562 7.351562 17.25 6.300781 17.324219 C 5.550781 17.398438 4.800781 17.101562 4.273438 16.574219 C 3.601562 15.824219 3.449219 14.101562 3.226562 12.523438 C 3 10.273438 3.074219 5.699219 3.523438 4.5 C 3.75 4.050781 3.976562 3.75 4.199219 3.75 C 4.5 3.75 5.101562 4.5 5.101562 4.5 " clip-rule="nonzero"/></clipPath><clipPath id="32766f939a"><rect x="0" width="14" y="0" height="21"/></clipPath><mask id="4057e1fa12"><g filter="url(#479dc9821a)"><rect x="-7.5" width="90" fill="#000000" y="-7.5" height="89.999996" fill-opacity="0.62"/></g></mask><clipPath id="08cc481de7"><path d="M 3.480469 3.414062 L 11.460938 3.414062 L 11.460938 12.792969 L 3.480469 12.792969 Z M 3.480469 3.414062 " clip-rule="nonzero"/></clipPath><clipPath id="82c2e90924"><path d="M 5.199219 4.800781 C 5.726562 9.226562 6.476562 10.800781 7 10.800781 C 7.523438 10.800781 8.199219 9.523438 8.425781 8.625 C 8.800781 7.351562 7.824219 4.726562 8.273438 4.050781 C 8.574219 3.675781 9.324219 3.449219 9.699219 3.75 C 10.675781 4.351562 11.726562 10.425781 11.351562 11.773438 C 11.199219 12.300781 10.824219 12.675781 10.523438 12.75 C 10.300781 12.75 9.773438 12.375 9.699219 12.148438 C 9.625 11.851562 10 11.101562 10.300781 11.023438 C 10.601562 10.949219 11.273438 11.398438 11.351562 11.699219 C 11.425781 11.925781 10.898438 12.675781 10.675781 12.675781 C 10.375 12.75 10 12.601562 9.699219 12.226562 C 9.023438 11.25 8.125 7.199219 8.199219 5.625 C 8.351562 4.648438 8.800781 3.449219 9.101562 3.449219 C 9.476562 3.523438 10.148438 5.25 10.226562 6.300781 C 10.375 7.574219 10.148438 9.601562 9.625 10.648438 C 9.175781 11.476562 8.5 12.226562 7.75 12.375 C 7.074219 12.601562 6.023438 12.523438 5.425781 12 C 4.449219 11.25 3.851562 8.773438 3.625 7.425781 C 3.476562 6.375 3.398438 4.949219 3.699219 4.425781 C 3.925781 4.125 4.449219 3.976562 4.675781 4.050781 C 4.898438 4.125 5.199219 4.800781 5.199219 4.800781 " clip-rule="nonzero"/></clipPath><clipPath id="18c987f77b"><rect x="0" width="15" y="0" height="16"/></clipPath><mask id="b90d7a0c52"><g filter="url(#479dc9821a)"><rect x="-7.5" width="90" fill="#000000" y="-7.5" height="89.999996" fill-opacity="0.62"/></g></mask><clipPath id="68336091a8"><path d="M 3.320312 3.421875 L 10.300781 3.421875 L 10.300781 14.117188 L 3.320312 14.117188 Z M 3.320312 3.421875 " clip-rule="nonzero"/></clipPath><clipPath id="03948394ae"><path d="M 8.050781 5.101562 C 6.476562 5.324219 6.101562 6.148438 6.25 6.523438 C 6.550781 7.199219 9.175781 7.199219 9.773438 8.023438 C 10.375 8.851562 10.375 10.5 10.074219 11.476562 C 9.773438 12.300781 9.023438 13.050781 8.125 13.425781 C 7.074219 13.949219 4.824219 14.324219 4.074219 13.949219 C 3.625 13.648438 3.25 12.675781 3.398438 12.449219 C 3.550781 12.300781 4.75 12.375 4.898438 12.601562 C 4.976562 12.898438 4.148438 13.949219 3.925781 13.875 C 3.699219 13.875 3.324219 12.675781 3.550781 12.375 C 3.925781 11.851562 6.324219 12.449219 7.226562 11.925781 C 7.898438 11.550781 8.800781 10.648438 8.648438 10.050781 C 8.5 9.226562 5.648438 8.925781 5.050781 7.949219 C 4.523438 7.050781 4.675781 5.398438 4.976562 4.648438 C 5.199219 4.125 5.574219 3.824219 6.101562 3.601562 C 6.625 3.375 7.601562 3.375 8.125 3.601562 C 8.425781 3.75 8.800781 4.050781 8.800781 4.273438 C 8.875 4.574219 8.050781 5.101562 8.050781 5.101562 " clip-rule="nonzero"/></clipPath><clipPath id="48d1379cf6"><rect x="0" width="14" y="0" height="18"/></clipPath><mask id="6f352f7473"><g filter="url(#479dc9821a)"><rect x="-7.5" width="90" fill="#000000" y="-7.5" height="89.999996" fill-opacity="0.62"/></g></mask><clipPath id="88cf657445"><path d="M 3.078125 3.425781 L 4.527344 3.425781 L 4.527344 4.621094 L 3.078125 4.621094 Z M 3.078125 3.425781 " clip-rule="nonzero"/></clipPath><clipPath id="341e40cd35"><path d="M 4.5 3.875 C 3.824219 4.851562 3.226562 4.625 3.148438 4.476562 C 3 4.25 3.148438 3.648438 3.300781 3.5 C 3.523438 3.351562 4.273438 3.5 4.273438 3.5 " clip-rule="nonzero"/></clipPath><clipPath id="b2bcaea5af"><rect x="0" width="8" y="0" height="8"/></clipPath><mask id="da9c04fb52"><g filter="url(#479dc9821a)"><rect x="-7.5" width="90" fill="#000000" y="-7.5" height="89.999996" fill-opacity="0.62"/></g></mask><clipPath id="066617340b"><path d="M 3.601562 3.621094 L 11.839844 3.621094 L 11.839844 6.214844 L 3.601562 6.214844 Z M 3.601562 3.621094 " clip-rule="nonzero"/></clipPath><clipPath id="18880ae216"><path d="M 11.074219 6.199219 C 3.648438 5 3.648438 4.101562 3.800781 3.949219 C 4.023438 3.875 5.074219 4.550781 5.074219 4.699219 C 5 4.925781 3.800781 5.300781 3.648438 5.148438 C 3.574219 5 3.800781 4.101562 4.25 3.800781 C 5.226562 3.273438 10.25 4.101562 11.226562 4.699219 C 11.601562 4.925781 11.824219 5.300781 11.824219 5.523438 C 11.75 5.75 11.074219 6.199219 11.074219 6.199219 " clip-rule="nonzero"/></clipPath><clipPath id="2b048ed4dc"><rect x="0" width="15" y="0" height="10"/></clipPath><mask id="da7a12750c"><g filter="url(#479dc9821a)"><rect x="-7.5" width="90" fill="#000000" y="-7.5" height="89.999996" fill-opacity="0.62"/></g></mask><clipPath id="7341ce50a7"><path d="M 3.304688 3.527344 L 14.367188 3.527344 L 14.367188 5.847656 L 3.304688 5.847656 Z M 3.304688 3.527344 " clip-rule="nonzero"/></clipPath><clipPath id="279886ff15"><path d="M 13.601562 5.824219 C 3.398438 5.074219 3.25 4.625 3.324219 4.324219 C 3.398438 4.101562 3.925781 3.800781 4.148438 3.800781 C 4.449219 3.875 4.898438 4.476562 4.898438 4.773438 C 4.824219 5 4.226562 5.449219 3.925781 5.375 C 3.699219 5.375 3.324219 4.925781 3.324219 4.699219 C 3.324219 4.398438 3.625 4.023438 4.074219 3.800781 C 5.5 3.273438 12.550781 3.648438 13.824219 4.324219 C 14.199219 4.550781 14.425781 4.925781 14.351562 5.148438 C 14.351562 5.449219 13.601562 5.824219 13.601562 5.824219 " clip-rule="nonzero"/></clipPath><clipPath id="72ab0acfbd"><rect x="0" width="18" y="0" height="9"/></clipPath><mask id="a5b048a19c"><g filter="url(#479dc9821a)"><rect x="-7.5" width="90" fill="#000000" y="-7.5" height="89.999996" fill-opacity="0.62"/></g></mask><clipPath id="f0272cd0be"><path d="M 3.628906 3.605469 L 14.089844 3.605469 L 14.089844 6.21875 L 3.628906 6.21875 Z M 3.628906 3.605469 " clip-rule="nonzero"/></clipPath><clipPath id="1482cf2f6b"><path d="M 13.324219 6.199219 C 3.949219 5.148438 3.648438 4.699219 3.648438 4.398438 C 3.726562 4.175781 4.175781 3.726562 4.398438 3.726562 C 4.699219 3.726562 5.300781 4.25 5.300781 4.550781 C 5.300781 4.773438 4.476562 5.375 4.25 5.375 C 3.949219 5.300781 3.648438 4.773438 3.648438 4.550781 C 3.726562 4.25 4.101562 3.875 4.550781 3.726562 C 5.976562 3.351562 12.351562 4.023438 13.550781 4.699219 C 13.925781 4.925781 14.148438 5.300781 14.074219 5.523438 C 14.074219 5.824219 13.324219 6.199219 13.324219 6.199219 " clip-rule="nonzero"/></clipPath><clipPath id="db50ef3086"><rect x="0" width="18" y="0" height="10"/></clipPath><clipPath id="aad9b8803c"><path d="M 4.285156 15.910156 L 20.816406 15.910156 L 20.816406 41.925781 L 4.285156 41.925781 Z M 4.285156 15.910156 " clip-rule="nonzero"/></clipPath><clipPath id="d68259f726"><path d="M 13.648438 20.773438 C 9.375 21.523438 9.074219 24.449219 9.523438 25.5 C 9.824219 26.175781 10.5 26.625 11.324219 26.851562 C 12.523438 27.226562 15 26.175781 16.351562 26.398438 C 17.25 26.625 17.925781 27 18.601562 27.523438 C 19.199219 28.050781 19.726562 28.648438 20.101562 29.550781 C 20.550781 30.75 20.851562 32.925781 20.773438 34.574219 C 20.699219 36.226562 20.175781 38.25 19.574219 39.375 C 19.050781 40.199219 18.601562 40.648438 17.773438 41.023438 C 16.574219 41.625 14.324219 42 12.75 41.773438 C 11.175781 41.550781 9.148438 40.5 8.324219 39.675781 C 7.800781 39.226562 7.425781 38.773438 7.425781 38.175781 C 7.425781 37.425781 8.101562 35.699219 8.851562 35.25 C 9.601562 34.875 11.398438 35.25 12.074219 35.851562 C 12.601562 36.375 12.898438 37.574219 12.675781 38.324219 C 12.523438 39 11.699219 39.898438 11.023438 40.199219 C 10.351562 40.425781 9.074219 40.351562 8.550781 39.898438 C 7.875 39.300781 7.273438 37.574219 7.574219 36.75 C 7.800781 35.925781 9.226562 35.175781 10.273438 35.023438 C 11.625 34.800781 14.101562 36.976562 15.074219 36.375 C 15.976562 35.851562 16.5 32.550781 15.75 31.648438 C 14.925781 30.675781 10.5 32.25 8.925781 31.800781 C 8.023438 31.574219 7.574219 31.199219 6.898438 30.601562 C 6 29.625 4.875 27.523438 4.5 26.25 C 4.273438 25.273438 4.351562 24.523438 4.574219 23.476562 C 4.875 22.125 5.851562 19.875 6.523438 18.675781 C 6.976562 17.851562 7.351562 17.25 7.949219 16.875 C 8.550781 16.425781 9.300781 16.199219 10.199219 16.125 C 11.324219 15.976562 13.199219 15.898438 14.175781 16.199219 C 14.773438 16.425781 15.300781 16.648438 15.523438 17.175781 C 15.824219 17.773438 15.898438 19.125 15.523438 19.800781 C 15.148438 20.324219 13.648438 20.773438 13.648438 20.773438 " clip-rule="nonzero"/></clipPath><clipPath id="112911205e"><path d="M 22.898438 16.898438 L 37.480469 16.898438 L 37.480469 36.742188 L 22.898438 36.742188 Z M 22.898438 16.898438 " clip-rule="nonzero"/></clipPath><clipPath id="5416dd99ba"><path d="M 28.050781 22.648438 C 27.824219 30.226562 28.050781 31.351562 28.5 31.5 C 28.949219 31.574219 29.851562 30.675781 30.375 29.773438 C 31.273438 28.273438 33.148438 23.25 32.175781 22.273438 C 31.273438 21.300781 26.625 24 25.199219 23.550781 C 24.375 23.25 23.699219 22.351562 23.625 21.675781 C 23.476562 20.851562 24.226562 19.199219 24.898438 18.75 C 25.574219 18.300781 26.773438 18.375 27.375 18.75 C 28.050781 19.050781 28.800781 20.023438 28.800781 20.773438 C 28.800781 21.601562 27.898438 23.101562 27.148438 23.476562 C 26.476562 23.851562 25.351562 23.625 24.675781 23.25 C 24.074219 22.875 23.550781 21.824219 23.550781 21.074219 C 23.550781 20.324219 23.925781 19.5 24.675781 18.898438 C 25.875 17.851562 29.175781 16.949219 31.273438 16.949219 C 33 16.875 35.25 17.476562 36.226562 18.226562 C 36.898438 18.75 37.050781 19.351562 37.273438 20.25 C 37.574219 21.601562 37.5 23.925781 37.125 25.875 C 36.601562 28.273438 35.550781 31.574219 34.125 33.449219 C 33 34.875 31.199219 36.226562 29.925781 36.601562 C 29.023438 36.824219 28.273438 36.675781 27.375 36.375 C 26.175781 35.925781 24.375 34.949219 23.625 33.675781 C 22.800781 32.476562 22.949219 30.675781 22.949219 28.875 C 22.875 26.625 22.875 22.425781 23.851562 21.148438 C 24.449219 20.398438 25.648438 20.101562 26.324219 20.175781 C 26.851562 20.25 27.375 20.699219 27.675781 21.074219 C 27.976562 21.523438 28.050781 22.648438 28.050781 22.648438 " clip-rule="nonzero"/></clipPath><clipPath id="5246d86154"><path d="M 39.472656 14.121094 L 53.078125 14.121094 L 53.078125 33.773438 L 39.472656 33.773438 Z M 39.472656 14.121094 " clip-rule="nonzero"/></clipPath><clipPath id="026b9779e9"><path d="M 47.175781 18.300781 C 44.550781 22.574219 44.398438 23.25 44.398438 24.148438 C 44.476562 25.425781 45.300781 28.648438 45.75 28.648438 C 46.351562 28.648438 48.375 23.25 47.773438 21.375 C 47.324219 19.875 44.175781 19.199219 43.648438 18 C 43.273438 17.175781 43.351562 16.199219 43.726562 15.523438 C 44.101562 14.925781 45.074219 14.25 45.824219 14.25 C 46.648438 14.25 48.148438 15.226562 48.523438 15.976562 C 48.824219 16.648438 48.601562 17.851562 48.148438 18.449219 C 47.625 19.050781 45.898438 19.648438 45.074219 19.351562 C 44.25 19.050781 43.273438 17.476562 43.425781 16.648438 C 43.5 15.75 44.625 14.550781 45.523438 14.25 C 46.574219 13.949219 48.375 14.398438 49.5 15.074219 C 50.773438 15.75 52.273438 17.023438 52.800781 18.601562 C 53.476562 20.550781 52.726562 24.226562 52.050781 26.476562 C 51.523438 28.351562 50.398438 30.074219 49.5 31.273438 C 48.898438 32.101562 48.375 32.699219 47.625 33.074219 C 46.800781 33.523438 45.601562 33.824219 44.699219 33.675781 C 43.875 33.601562 42.976562 33.226562 42.300781 32.398438 C 41.101562 31.125 39.675781 27.601562 39.523438 25.199219 C 39.375 22.949219 40.199219 20.398438 41.023438 18.601562 C 41.773438 17.101562 43.050781 15.675781 43.875 15 C 44.398438 14.625 44.925781 14.398438 45.375 14.324219 C 45.898438 14.324219 46.574219 14.476562 46.949219 14.851562 C 47.398438 15.226562 47.851562 16.199219 47.851562 16.800781 C 47.851562 17.324219 47.175781 18.300781 47.175781 18.300781 " clip-rule="nonzero"/></clipPath><clipPath id="c45eec9c47"><path d="M 53.660156 10.15625 L 67.996094 10.15625 L 67.996094 31.351562 L 53.660156 31.351562 Z M 53.660156 10.15625 " clip-rule="nonzero"/></clipPath><clipPath id="540034d2ca"><path d="M 58.351562 13.949219 C 60.449219 30 60.148438 30.375 59.699219 30.75 C 59.175781 31.125 58.050781 31.425781 57.449219 31.273438 C 56.773438 31.050781 56.101562 30.449219 55.726562 29.699219 C 55.125 28.351562 55.5 25.800781 55.425781 23.699219 C 55.425781 21.300781 55.125 18.375 55.5 16.199219 C 55.875 14.398438 56.476562 12.449219 57.226562 11.476562 C 57.824219 10.875 58.5 10.574219 59.25 10.351562 C 60.074219 10.125 61.425781 10.125 62.25 10.425781 C 63.074219 10.726562 63.601562 11.25 64.199219 11.925781 C 65.023438 12.898438 65.851562 14.25 66.449219 16.050781 C 67.273438 18.898438 68.625 25.648438 67.574219 27.675781 C 67.050781 28.726562 65.625 29.398438 64.726562 29.25 C 63.898438 29.101562 62.625 27.75 62.476562 26.925781 C 62.324219 26.175781 62.773438 25.050781 63.375 24.601562 C 63.898438 24.074219 65.101562 23.851562 65.773438 24 C 66.523438 24.148438 67.425781 24.976562 67.648438 25.726562 C 67.875 26.398438 67.726562 27.601562 67.273438 28.199219 C 66.898438 28.800781 65.773438 29.324219 65.023438 29.25 C 64.273438 29.25 63.449219 28.875 62.851562 28.050781 C 61.574219 26.101562 61.351562 15.675781 60.898438 15.75 C 60.523438 15.75 61.199219 26.925781 60.601562 29.175781 C 60.375 30 60.148438 30.375 59.699219 30.75 C 59.175781 31.125 58.050781 31.5 57.449219 31.273438 C 56.699219 31.050781 56.101562 30.226562 55.574219 29.101562 C 54.375 26.398438 53.398438 16.574219 53.773438 14.175781 C 53.851562 13.425781 54.074219 13.050781 54.449219 12.675781 C 54.75 12.300781 55.425781 12.074219 55.949219 12 C 56.398438 12 57.074219 12.226562 57.523438 12.523438 C 57.898438 12.824219 58.351562 13.949219 58.351562 13.949219 " clip-rule="nonzero"/></clipPath><clipPath id="ed881c6940"><path d="M 66.636719 2.042969 L 74.429688 2.042969 L 74.429688 23.457031 L 66.636719 23.457031 Z M 66.636719 2.042969 " clip-rule="nonzero"/></clipPath><clipPath id="42b897330e"><path d="M 71.324219 4.425781 C 74.925781 16.800781 74.699219 20.175781 73.949219 21.675781 C 73.5 22.574219 72.824219 23.175781 72.148438 23.324219 C 71.476562 23.550781 70.351562 23.324219 69.824219 22.800781 C 69.226562 22.273438 68.851562 20.550781 69.148438 19.800781 C 69.523438 19.050781 71.101562 18.300781 71.925781 18.375 C 72.601562 18.375 73.5 19.199219 73.800781 19.800781 C 74.101562 20.25 74.175781 20.925781 74.023438 21.449219 C 73.800781 22.050781 73.125 23.023438 72.449219 23.25 C 71.773438 23.550781 70.648438 23.324219 70.050781 23.023438 C 69.601562 22.726562 69.226562 22.351562 69.074219 21.675781 C 68.699219 20.324219 69.898438 17.101562 69.601562 14.550781 C 69.300781 11.699219 66.898438 7.425781 66.75 5.398438 C 66.601562 4.5 66.675781 3.898438 66.976562 3.375 C 67.351562 2.773438 68.101562 2.175781 68.773438 2.101562 C 69.375 2.023438 70.351562 2.476562 70.726562 2.851562 C 71.101562 3.226562 71.324219 4.425781 71.324219 4.425781 " clip-rule="nonzero"/></clipPath><clipPath id="6d36d6e8b4"><path d="M 69.851562 24.777344 L 74.113281 24.777344 L 74.113281 28.421875 L 69.851562 28.421875 Z M 69.851562 24.777344 " clip-rule="nonzero"/></clipPath><clipPath id="97b06cee6e"><path d="M 74.101562 26.101562 C 72.226562 29.101562 70.425781 28.574219 70.050781 27.898438 C 69.675781 27.300781 69.976562 25.425781 70.574219 24.976562 C 71.175781 24.523438 73.574219 25.125 73.574219 25.125 " clip-rule="nonzero"/></clipPath></defs><g mask="url(#2fa6a49036)"><g transform="matrix(1, 0, 0, 1, 10, -0.000000000000001893)"><g clip-path="url(#d499e3d350)"><g clip-path="url(#18b8db6149)"><g clip-path="url(#c37d1c7d70)"><path fill="#1e1e1e" d="M 0.875 -1.875 L 53.976562 -1.875 L 53.976562 59.3125 L 0.875 59.3125 Z M 0.875 -1.875 " fill-opacity="1" fill-rule="nonzero"/></g></g></g></g></g><g mask="url(#4063146cd6)"><g transform="matrix(1, 0, 0, 1, 0, 51)"><g clip-path="url(#8500b133d5)"><g clip-path="url(#58a7f394cb)"><g clip-path="url(#90ca15321a)"><path fill="#1e1e1e" d="M -1.273438 0.898438 L 19.050781 0.898438 L 19.050781 25.195312 L -1.273438 25.195312 Z M -1.273438 0.898438 " fill-opacity="1" fill-rule="nonzero"/></g></g></g></g></g><g mask="url(#4e1f4818b6)"><g transform="matrix(1, 0, 0, 1, 12, 57)"><g clip-path="url(#beb107964d)"><g clip-path="url(#8bc61f7f62)"><g clip-path="url(#67782612f0)"><path fill="#1e1e1e" d="M 0.898438 1.050781 L 14.925781 1.050781 L 14.925781 17.703125 L 0.898438 17.703125 Z M 0.898438 1.050781 " fill-opacity="1" fill-rule="nonzero"/></g></g></g></g></g><g mask="url(#dba4a9bf9b)"><g transform="matrix(1, 0, 0, 1, 19, 53)"><g clip-path="url(#e3b7f7b9a8)"><g clip-path="url(#07915c810c)"><g clip-path="url(#10f357eb2e)"><path fill="#1e1e1e" d="M 1.101562 0.625 L 22.925781 0.625 L 22.925781 22.621094 L 1.101562 22.621094 Z M 1.101562 0.625 " fill-opacity="1" fill-rule="nonzero"/></g></g></g></g></g><g mask="url(#0ffe639a00)"><g transform="matrix(1, 0, 0, 1, 39, 54)"><g clip-path="url(#32766f939a)"><g clip-path="url(#349599082c)"><g clip-path="url(#8f6b469448)"><path fill="#1e1e1e" d="M 0.226562 0.75 L 13.199219 0.75 L 13.199219 20.414062 L 0.226562 20.414062 Z M 0.226562 0.75 " fill-opacity="1" fill-rule="nonzero"/></g></g></g></g></g><g mask="url(#4057e1fa12)"><g transform="matrix(1, 0, 0, 1, 47, 57)"><g clip-path="url(#18c987f77b)"><g clip-path="url(#08cc481de7)"><g clip-path="url(#82c2e90924)"><path fill="#1e1e1e" d="M 0.625 0.449219 L 14.425781 0.449219 L 14.425781 15.757812 L 0.625 15.757812 Z M 0.625 0.449219 " fill-opacity="1" fill-rule="nonzero"/></g></g></g></g></g><g mask="url(#b90d7a0c52)"><g transform="matrix(1, 0, 0, 1, 56, 57)"><g clip-path="url(#48d1379cf6)"><g clip-path="url(#68336091a8)"><g clip-path="url(#03948394ae)"><path fill="#1e1e1e" d="M 0.398438 0.601562 L 13.074219 0.601562 L 13.074219 16.9375 L 0.398438 16.9375 Z M 0.398438 0.601562 " fill-opacity="1" fill-rule="nonzero"/></g></g></g></g></g><g mask="url(#6f352f7473)"><g transform="matrix(1, 0, 0, 1, 24, 64)"><g clip-path="url(#b2bcaea5af)"><g clip-path="url(#88cf657445)"><g clip-path="url(#341e40cd35)"><path fill="#1e1e1e" d="M 0.148438 0.5 L 7.566406 0.5 L 7.566406 7.773438 L 0.148438 7.773438 Z M 0.148438 0.5 " fill-opacity="1" fill-rule="nonzero"/></g></g></g></g></g><g mask="url(#da9c04fb52)"><g transform="matrix(1, 0, 0, 1, 34, 25)"><g clip-path="url(#2b048ed4dc)"><g clip-path="url(#066617340b)"><g clip-path="url(#18880ae216)"><path fill="#1e1e1e" d="M 0.648438 0.800781 L 14.824219 0.800781 L 14.824219 9.199219 L 0.648438 9.199219 Z M 0.648438 0.800781 " fill-opacity="1" fill-rule="nonzero"/></g></g></g></g></g><g mask="url(#da7a12750c)"><g transform="matrix(1, 0, 0, 1, 35, 31)"><g clip-path="url(#72ab0acfbd)"><g clip-path="url(#7341ce50a7)"><g clip-path="url(#279886ff15)"><path fill="#1e1e1e" d="M 0.324219 0.800781 L 17.410156 0.800781 L 17.410156 8.824219 L 0.324219 8.824219 Z M 0.324219 0.800781 " fill-opacity="1" fill-rule="nonzero"/></g></g></g></g></g><g mask="url(#a5b048a19c)"><g transform="matrix(1, 0, 0, 1, 37, 37)"><g clip-path="url(#db50ef3086)"><g clip-path="url(#f0272cd0be)"><g clip-path="url(#1482cf2f6b)"><path fill="#1e1e1e" d="M 0.648438 0.726562 L 17.136719 0.726562 L 17.136719 9.199219 L 0.648438 9.199219 Z M 0.648438 0.726562 " fill-opacity="1" fill-rule="nonzero"/></g></g></g></g></g><g clip-path="url(#aad9b8803c)"><g clip-path="url(#d68259f726)"><path fill="#fffb47" d="M 1.5 13.125 L 23.773438 13.125 L 23.773438 44.882812 L 1.5 44.882812 Z M 1.5 13.125 " fill-opacity="1" fill-rule="nonzero"/></g></g><g clip-path="url(#112911205e)"><g clip-path="url(#5416dd99ba)"><path fill="#fffb47" d="M 19.949219 13.949219 L 40.351562 13.949219 L 40.351562 39.609375 L 19.949219 39.609375 Z M 19.949219 13.949219 " fill-opacity="1" fill-rule="nonzero"/></g></g><g clip-path="url(#5246d86154)"><g clip-path="url(#026b9779e9)"><path fill="#fffb47" d="M 36.523438 11.25 L 55.875 11.25 L 55.875 36.722656 L 36.523438 36.722656 Z M 36.523438 11.25 " fill-opacity="1" fill-rule="nonzero"/></g></g><g clip-path="url(#c45eec9c47)"><g clip-path="url(#540034d2ca)"><path fill="#fffb47" d="M 50.773438 7.351562 L 70.726562 7.351562 L 70.726562 34.3125 L 50.773438 34.3125 Z M 50.773438 7.351562 " fill-opacity="1" fill-rule="nonzero"/></g></g><g clip-path="url(#ed881c6940)"><g clip-path="url(#42b897330e)"><path fill="#fffb47" d="M 63.75 -0.898438 L 77.699219 -0.898438 L 77.699219 26.402344 L 63.75 26.402344 Z M 63.75 -0.898438 " fill-opacity="1" fill-rule="nonzero"/></g></g><g clip-path="url(#6d36d6e8b4)"><g clip-path="url(#97b06cee6e)"><path fill="#fffb47" d="M 67.050781 21.976562 L 77.183594 21.976562 L 77.183594 31.800781 L 67.050781 31.800781 Z M 67.050781 21.976562 " fill-opacity="1" fill-rule="nonzero"/></g></g></svg>