<svg xmlns="http://www.w3.org/2000/svg" xmlns:xlink="http://www.w3.org/1999/xlink" width="100" zoomAndPan="magnify" viewBox="0 0 75 74.999997" height="100" preserveAspectRatio="xMidYMid meet" version="1.0"><defs><clipPath id="f2a06af516"><path d="M 10.734375 0 L 63.984375 0 L 63.984375 75 L 10.734375 75 Z M 10.734375 0 " clip-rule="nonzero"/></clipPath><clipPath id="095cf44e93"><path d="M 13.140625 4.417969 L 61.890625 4.417969 L 61.890625 72.667969 L 13.140625 72.667969 Z M 13.140625 4.417969 " clip-rule="nonzero"/></clipPath></defs><g clip-path="url(#f2a06af516)"><path fill="#000000" d="M 37.359375 0.0273438 C 26.710938 21.109375 10.734375 32.148438 10.734375 48.207031 C 10.734375 62.984375 22.65625 74.972656 37.359375 74.972656 C 52.0625 74.972656 63.984375 62.984375 63.984375 48.207031 C 63.984375 32.148438 48.007812 21.441406 37.359375 0.0273438 Z M 37.359375 0.0273438 " fill-opacity="1" fill-rule="nonzero"/></g><g clip-path="url(#095cf44e93)"><path fill="#ff6b6b" d="M 37.496094 4.449219 C 27.753906 23.632812 13.140625 33.679688 13.140625 48.292969 C 13.140625 61.742188 24.046875 72.648438 37.496094 72.648438 C 50.945312 72.648438 61.855469 61.742188 61.855469 48.292969 C 61.855469 33.679688 47.238281 23.933594 37.496094 4.449219 Z M 37.496094 4.449219 " fill-opacity="1" fill-rule="nonzero"/></g></svg>