<svg xmlns="http://www.w3.org/2000/svg" xmlns:xlink="http://www.w3.org/1999/xlink" width="100" zoomAndPan="magnify" viewBox="0 0 75 74.999997" height="100" preserveAspectRatio="xMidYMid meet" version="1.0"><defs><g/><clipPath id="05669c4207"><path d="M 19.585938 2.234375 L 59.335938 2.234375 L 59.335938 57.734375 L 19.585938 57.734375 Z M 19.585938 2.234375 " clip-rule="nonzero"/></clipPath><clipPath id="d804b38ecc"><path d="M 4.285156 15.910156 L 20.816406 15.910156 L 20.816406 41.925781 L 4.285156 41.925781 Z M 4.285156 15.910156 " clip-rule="nonzero"/></clipPath><clipPath id="38fa22b1da"><path d="M 13.648438 20.773438 C 9.375 21.523438 9.074219 24.449219 9.523438 25.5 C 9.824219 26.175781 10.5 26.625 11.324219 26.851562 C 12.523438 27.226562 15 26.175781 16.351562 26.398438 C 17.25 26.625 17.925781 27 18.601562 27.523438 C 19.199219 28.050781 19.726562 28.648438 20.101562 29.550781 C 20.550781 30.75 20.851562 32.925781 20.773438 34.574219 C 20.699219 36.226562 20.175781 38.25 19.574219 39.375 C 19.050781 40.199219 18.601562 40.648438 17.773438 41.023438 C 16.574219 41.625 14.324219 42 12.75 41.773438 C 11.175781 41.550781 9.148438 40.5 8.324219 39.675781 C 7.800781 39.226562 7.425781 38.773438 7.425781 38.175781 C 7.425781 37.425781 8.101562 35.699219 8.851562 35.25 C 9.601562 34.875 11.398438 35.25 12.074219 35.851562 C 12.601562 36.375 12.898438 37.574219 12.675781 38.324219 C 12.523438 39 11.699219 39.898438 11.023438 40.199219 C 10.351562 40.425781 9.074219 40.351562 8.550781 39.898438 C 7.875 39.300781 7.273438 37.574219 7.574219 36.75 C 7.800781 35.925781 9.226562 35.175781 10.273438 35.023438 C 11.625 34.800781 14.101562 36.976562 15.074219 36.375 C 15.976562 35.851562 16.5 32.550781 15.75 31.648438 C 14.925781 30.675781 10.5 32.25 8.925781 31.800781 C 8.023438 31.574219 7.574219 31.199219 6.898438 30.601562 C 6 29.625 4.875 27.523438 4.5 26.25 C 4.273438 25.273438 4.351562 24.523438 4.574219 23.476562 C 4.875 22.125 5.851562 19.875 6.523438 18.675781 C 6.976562 17.851562 7.351562 17.25 7.949219 16.875 C 8.550781 16.425781 9.300781 16.199219 10.199219 16.125 C 11.324219 15.976562 13.199219 15.898438 14.175781 16.199219 C 14.773438 16.425781 15.300781 16.648438 15.523438 17.175781 C 15.824219 17.773438 15.898438 19.125 15.523438 19.800781 C 15.148438 20.324219 13.648438 20.773438 13.648438 20.773438 " clip-rule="nonzero"/></clipPath><clipPath id="3d561b7415"><path d="M 22.898438 16.898438 L 37.480469 16.898438 L 37.480469 36.742188 L 22.898438 36.742188 Z M 22.898438 16.898438 " clip-rule="nonzero"/></clipPath><clipPath id="886f479797"><path d="M 28.050781 22.648438 C 27.824219 30.226562 28.050781 31.351562 28.5 31.5 C 28.949219 31.574219 29.851562 30.675781 30.375 29.773438 C 31.273438 28.273438 33.148438 23.25 32.175781 22.273438 C 31.273438 21.300781 26.625 24 25.199219 23.550781 C 24.375 23.25 23.699219 22.351562 23.625 21.675781 C 23.476562 20.851562 24.226562 19.199219 24.898438 18.75 C 25.574219 18.300781 26.773438 18.375 27.375 18.75 C 28.050781 19.050781 28.800781 20.023438 28.800781 20.773438 C 28.800781 21.601562 27.898438 23.101562 27.148438 23.476562 C 26.476562 23.851562 25.351562 23.625 24.675781 23.25 C 24.074219 22.875 23.550781 21.824219 23.550781 21.074219 C 23.550781 20.324219 23.925781 19.5 24.675781 18.898438 C 25.875 17.851562 29.175781 16.949219 31.273438 16.949219 C 33 16.875 35.25 17.476562 36.226562 18.226562 C 36.898438 18.75 37.050781 19.351562 37.273438 20.25 C 37.574219 21.601562 37.5 23.925781 37.125 25.875 C 36.601562 28.273438 35.550781 31.574219 34.125 33.449219 C 33 34.875 31.199219 36.226562 29.925781 36.601562 C 29.023438 36.824219 28.273438 36.675781 27.375 36.375 C 26.175781 35.925781 24.375 34.949219 23.625 33.675781 C 22.800781 32.476562 22.949219 30.675781 22.949219 28.875 C 22.875 26.625 22.875 22.425781 23.851562 21.148438 C 24.449219 20.398438 25.648438 20.101562 26.324219 20.175781 C 26.851562 20.25 27.375 20.699219 27.675781 21.074219 C 27.976562 21.523438 28.050781 22.648438 28.050781 22.648438 " clip-rule="nonzero"/></clipPath><clipPath id="6b5a5e6604"><path d="M 38.683594 13.820312 L 52.289062 13.820312 L 52.289062 33.472656 L 38.683594 33.472656 Z M 38.683594 13.820312 " clip-rule="nonzero"/></clipPath><clipPath id="65f923cc9b"><path d="M 46.386719 18 C 43.761719 22.273438 43.613281 22.949219 43.613281 23.851562 C 43.6875 25.125 44.511719 28.351562 44.960938 28.351562 C 45.5625 28.351562 47.585938 22.949219 46.988281 21.074219 C 46.539062 19.574219 43.386719 18.898438 42.863281 17.699219 C 42.488281 16.875 42.5625 15.898438 42.9375 15.226562 C 43.3125 14.625 44.289062 13.949219 45.039062 13.949219 C 45.863281 13.949219 47.363281 14.925781 47.738281 15.675781 C 48.039062 16.351562 47.8125 17.550781 47.363281 18.148438 C 46.835938 18.75 45.113281 19.351562 44.289062 19.050781 C 43.460938 18.75 42.488281 17.175781 42.636719 16.351562 C 42.710938 15.449219 43.835938 14.25 44.738281 13.949219 C 45.789062 13.648438 47.585938 14.101562 48.710938 14.773438 C 49.988281 15.449219 51.488281 16.726562 52.011719 18.300781 C 52.6875 20.25 51.9375 23.925781 51.261719 26.175781 C 50.738281 28.050781 49.613281 29.773438 48.710938 30.976562 C 48.113281 31.800781 47.585938 32.398438 46.835938 32.773438 C 46.011719 33.226562 44.8125 33.523438 43.914062 33.375 C 43.085938 33.300781 42.1875 32.925781 41.511719 32.101562 C 40.3125 30.824219 38.886719 27.300781 38.738281 24.898438 C 38.585938 22.648438 39.414062 20.101562 40.238281 18.300781 C 40.988281 16.800781 42.261719 15.375 43.085938 14.699219 C 43.613281 14.324219 44.136719 14.101562 44.585938 14.023438 C 45.113281 14.023438 45.789062 14.175781 46.164062 14.550781 C 46.613281 14.925781 47.0625 15.898438 47.0625 16.5 C 47.0625 17.023438 46.386719 18 46.386719 18 " clip-rule="nonzero"/></clipPath><clipPath id="8a761b05cb"><path d="M 53.660156 10.15625 L 67.996094 10.15625 L 67.996094 31.351562 L 53.660156 31.351562 Z M 53.660156 10.15625 " clip-rule="nonzero"/></clipPath><clipPath id="288f3c32c4"><path d="M 58.351562 13.949219 C 60.449219 30 60.148438 30.375 59.699219 30.75 C 59.175781 31.125 58.050781 31.425781 57.449219 31.273438 C 56.773438 31.050781 56.101562 30.449219 55.726562 29.699219 C 55.125 28.351562 55.5 25.800781 55.425781 23.699219 C 55.425781 21.300781 55.125 18.375 55.5 16.199219 C 55.875 14.398438 56.476562 12.449219 57.226562 11.476562 C 57.824219 10.875 58.5 10.574219 59.25 10.351562 C 60.074219 10.125 61.425781 10.125 62.25 10.425781 C 63.074219 10.726562 63.601562 11.25 64.199219 11.925781 C 65.023438 12.898438 65.851562 14.25 66.449219 16.050781 C 67.273438 18.898438 68.625 25.648438 67.574219 27.675781 C 67.050781 28.726562 65.625 29.398438 64.726562 29.25 C 63.898438 29.101562 62.625 27.75 62.476562 26.925781 C 62.324219 26.175781 62.773438 25.050781 63.375 24.601562 C 63.898438 24.074219 65.101562 23.851562 65.773438 24 C 66.523438 24.148438 67.425781 24.976562 67.648438 25.726562 C 67.875 26.398438 67.726562 27.601562 67.273438 28.199219 C 66.898438 28.800781 65.773438 29.324219 65.023438 29.25 C 64.273438 29.25 63.449219 28.875 62.851562 28.050781 C 61.574219 26.101562 61.351562 15.675781 60.898438 15.75 C 60.523438 15.75 61.199219 26.925781 60.601562 29.175781 C 60.375 30 60.148438 30.375 59.699219 30.75 C 59.175781 31.125 58.050781 31.5 57.449219 31.273438 C 56.699219 31.050781 56.101562 30.226562 55.574219 29.101562 C 54.375 26.398438 53.398438 16.574219 53.773438 14.175781 C 53.851562 13.425781 54.074219 13.050781 54.449219 12.675781 C 54.75 12.300781 55.425781 12.074219 55.949219 12 C 56.398438 12 57.074219 12.226562 57.523438 12.523438 C 57.898438 12.824219 58.351562 13.949219 58.351562 13.949219 " clip-rule="nonzero"/></clipPath><clipPath id="98f2207474"><path d="M 66.636719 2.042969 L 74.429688 2.042969 L 74.429688 23.457031 L 66.636719 23.457031 Z M 66.636719 2.042969 " clip-rule="nonzero"/></clipPath><clipPath id="c94cbde0a4"><path d="M 71.324219 4.425781 C 74.925781 16.800781 74.699219 20.175781 73.949219 21.675781 C 73.5 22.574219 72.824219 23.175781 72.148438 23.324219 C 71.476562 23.550781 70.351562 23.324219 69.824219 22.800781 C 69.226562 22.273438 68.851562 20.550781 69.148438 19.800781 C 69.523438 19.050781 71.101562 18.300781 71.925781 18.375 C 72.601562 18.375 73.5 19.199219 73.800781 19.800781 C 74.101562 20.25 74.175781 20.925781 74.023438 21.449219 C 73.800781 22.050781 73.125 23.023438 72.449219 23.25 C 71.773438 23.550781 70.648438 23.324219 70.050781 23.023438 C 69.601562 22.726562 69.226562 22.351562 69.074219 21.675781 C 68.699219 20.324219 69.898438 17.101562 69.601562 14.550781 C 69.300781 11.699219 66.898438 7.425781 66.75 5.398438 C 66.601562 4.5 66.675781 3.898438 66.976562 3.375 C 67.351562 2.773438 68.101562 2.175781 68.773438 2.101562 C 69.375 2.023438 70.351562 2.476562 70.726562 2.851562 C 71.101562 3.226562 71.324219 4.425781 71.324219 4.425781 " clip-rule="nonzero"/></clipPath><clipPath id="1ef8d94ae0"><path d="M 69.851562 24.777344 L 74.113281 24.777344 L 74.113281 28.421875 L 69.851562 28.421875 Z M 69.851562 24.777344 " clip-rule="nonzero"/></clipPath><clipPath id="91e44a5a6b"><path d="M 74.101562 26.101562 C 72.226562 29.101562 70.425781 28.574219 70.050781 27.898438 C 69.675781 27.300781 69.976562 25.425781 70.574219 24.976562 C 71.175781 24.523438 73.574219 25.125 73.574219 25.125 " clip-rule="nonzero"/></clipPath></defs><g clip-path="url(#05669c4207)"><path fill="#000000" d="M 39.460938 2.253906 C 31.511719 17.855469 19.585938 26.023438 19.585938 37.910156 C 19.585938 48.847656 28.488281 57.71875 39.460938 57.71875 C 50.4375 57.71875 59.335938 48.847656 59.335938 37.910156 C 59.335938 26.023438 47.414062 18.101562 39.460938 2.253906 Z M 39.460938 2.253906 " fill-opacity="1" fill-rule="nonzero"/></g><g clip-path="url(#d804b38ecc)"><g clip-path="url(#38fa22b1da)"><path fill="#fffb47" d="M 1.5 13.125 L 23.773438 13.125 L 23.773438 44.882812 L 1.5 44.882812 Z M 1.5 13.125 " fill-opacity="1" fill-rule="nonzero"/></g></g><g clip-path="url(#3d561b7415)"><g clip-path="url(#886f479797)"><path fill="#fffb47" d="M 19.949219 13.949219 L 40.351562 13.949219 L 40.351562 39.609375 L 19.949219 39.609375 Z M 19.949219 13.949219 " fill-opacity="1" fill-rule="nonzero"/></g></g><g clip-path="url(#6b5a5e6604)"><g clip-path="url(#65f923cc9b)"><path fill="#fffb47" d="M 35.738281 10.949219 L 55.085938 10.949219 L 55.085938 36.421875 L 35.738281 36.421875 Z M 35.738281 10.949219 " fill-opacity="1" fill-rule="nonzero"/></g></g><g clip-path="url(#8a761b05cb)"><g clip-path="url(#288f3c32c4)"><path fill="#fffb47" d="M 50.773438 7.351562 L 70.726562 7.351562 L 70.726562 34.3125 L 50.773438 34.3125 Z M 50.773438 7.351562 " fill-opacity="1" fill-rule="nonzero"/></g></g><g clip-path="url(#98f2207474)"><g clip-path="url(#c94cbde0a4)"><path fill="#fffb47" d="M 63.75 -0.898438 L 77.699219 -0.898438 L 77.699219 26.402344 L 63.75 26.402344 Z M 63.75 -0.898438 " fill-opacity="1" fill-rule="nonzero"/></g></g><g clip-path="url(#1ef8d94ae0)"><g clip-path="url(#91e44a5a6b)"><path fill="#fffb47" d="M 67.050781 21.976562 L 77.183594 21.976562 L 77.183594 31.800781 L 67.050781 31.800781 Z M 67.050781 21.976562 " fill-opacity="1" fill-rule="nonzero"/></g></g><g fill="#000000" fill-opacity="1"><g transform="translate(11.068418, 68.767994)"><g><path d="M 5.671875 -4.09375 L 5.78125 -6.671875 L 5.65625 -6.671875 L 3.953125 -1.9375 L 2.234375 -6.671875 L 2.125 -6.671875 L 2.21875 -4.09375 L 2.21875 0 L 0.515625 0 L 0.515625 -9.1875 L 2.84375 -9.1875 L 3.984375 -6.09375 L 4.078125 -6.09375 L 5.21875 -9.1875 L 7.390625 -9.1875 L 7.390625 0 L 5.671875 0 Z M 5.671875 -4.09375 "/></g></g></g><g fill="#000000" fill-opacity="1"><g transform="translate(18.967927, 68.767994)"><g><path d="M 3.953125 0.15625 C 2.722656 0.15625 1.816406 -0.257812 1.234375 -1.09375 C 0.648438 -1.925781 0.359375 -3.09375 0.359375 -4.59375 C 0.359375 -6.09375 0.648438 -7.257812 1.234375 -8.09375 C 1.816406 -8.9375 2.722656 -9.359375 3.953125 -9.359375 C 5.179688 -9.359375 6.085938 -8.9375 6.671875 -8.09375 C 7.253906 -7.257812 7.546875 -6.09375 7.546875 -4.59375 C 7.546875 -3.09375 7.253906 -1.925781 6.671875 -1.09375 C 6.085938 -0.257812 5.179688 0.15625 3.953125 0.15625 Z M 3.953125 -1.4375 C 4.515625 -1.4375 4.898438 -1.644531 5.109375 -2.0625 C 5.328125 -2.476562 5.4375 -3.0625 5.4375 -3.8125 L 5.4375 -5.40625 C 5.4375 -6.132812 5.328125 -6.707031 5.109375 -7.125 C 4.898438 -7.550781 4.515625 -7.765625 3.953125 -7.765625 C 3.390625 -7.765625 3 -7.550781 2.78125 -7.125 C 2.570312 -6.707031 2.46875 -6.132812 2.46875 -5.40625 L 2.46875 -3.796875 C 2.46875 -3.054688 2.570312 -2.476562 2.78125 -2.0625 C 3 -1.644531 3.390625 -1.4375 3.953125 -1.4375 Z M 3.953125 -1.4375 "/></g></g></g><g fill="#000000" fill-opacity="1"><g transform="translate(26.867436, 68.767994)"><g><path d="M 0.84375 -9.1875 L 3.8125 -9.1875 C 5.039062 -9.1875 5.953125 -8.789062 6.546875 -8 C 7.148438 -7.21875 7.453125 -6.082031 7.453125 -4.59375 C 7.453125 -3.113281 7.148438 -1.976562 6.546875 -1.1875 C 5.953125 -0.394531 5.039062 0 3.8125 0 L 0.84375 0 Z M 3.671875 -1.546875 C 4.265625 -1.546875 4.695312 -1.734375 4.96875 -2.109375 C 5.238281 -2.492188 5.375 -3.046875 5.375 -3.765625 L 5.375 -5.4375 C 5.375 -6.144531 5.238281 -6.6875 4.96875 -7.0625 C 4.695312 -7.445312 4.265625 -7.640625 3.671875 -7.640625 L 2.796875 -7.640625 L 2.796875 -1.546875 Z M 3.671875 -1.546875 "/></g></g></g><g fill="#000000" fill-opacity="1"><g transform="translate(34.766945, 68.767994)"><g><path d="M 2.703125 -9.1875 L 2.703125 -3.375 C 2.703125 -3.082031 2.710938 -2.816406 2.734375 -2.578125 C 2.753906 -2.335938 2.804688 -2.132812 2.890625 -1.96875 C 2.972656 -1.800781 3.097656 -1.671875 3.265625 -1.578125 C 3.429688 -1.484375 3.660156 -1.4375 3.953125 -1.4375 C 4.242188 -1.4375 4.472656 -1.484375 4.640625 -1.578125 C 4.804688 -1.671875 4.929688 -1.800781 5.015625 -1.96875 C 5.097656 -2.132812 5.148438 -2.335938 5.171875 -2.578125 C 5.191406 -2.816406 5.203125 -3.082031 5.203125 -3.375 L 5.203125 -9.1875 L 7.171875 -9.1875 L 7.171875 -3.640625 C 7.171875 -3.003906 7.128906 -2.445312 7.046875 -1.96875 C 6.960938 -1.5 6.800781 -1.101562 6.5625 -0.78125 C 6.332031 -0.46875 6.003906 -0.234375 5.578125 -0.078125 C 5.160156 0.078125 4.617188 0.15625 3.953125 0.15625 C 3.285156 0.15625 2.738281 0.078125 2.3125 -0.078125 C 1.894531 -0.234375 1.566406 -0.46875 1.328125 -0.78125 C 1.085938 -1.101562 0.925781 -1.5 0.84375 -1.96875 C 0.757812 -2.445312 0.71875 -3.003906 0.71875 -3.640625 L 0.71875 -9.1875 Z M 2.703125 -9.1875 "/></g></g></g><g fill="#000000" fill-opacity="1"><g transform="translate(42.666455, 68.767994)"><g><path d="M 1.21875 0 L 1.21875 -9.1875 L 3.203125 -9.1875 L 3.203125 -1.625 L 7.15625 -1.625 L 7.15625 0 Z M 1.21875 0 "/></g></g></g><g fill="#000000" fill-opacity="1"><g transform="translate(50.565964, 68.767994)"><g><path d="M 2.703125 -9.1875 L 2.703125 -3.375 C 2.703125 -3.082031 2.710938 -2.816406 2.734375 -2.578125 C 2.753906 -2.335938 2.804688 -2.132812 2.890625 -1.96875 C 2.972656 -1.800781 3.097656 -1.671875 3.265625 -1.578125 C 3.429688 -1.484375 3.660156 -1.4375 3.953125 -1.4375 C 4.242188 -1.4375 4.472656 -1.484375 4.640625 -1.578125 C 4.804688 -1.671875 4.929688 -1.800781 5.015625 -1.96875 C 5.097656 -2.132812 5.148438 -2.335938 5.171875 -2.578125 C 5.191406 -2.816406 5.203125 -3.082031 5.203125 -3.375 L 5.203125 -9.1875 L 7.171875 -9.1875 L 7.171875 -3.640625 C 7.171875 -3.003906 7.128906 -2.445312 7.046875 -1.96875 C 6.960938 -1.5 6.800781 -1.101562 6.5625 -0.78125 C 6.332031 -0.46875 6.003906 -0.234375 5.578125 -0.078125 C 5.160156 0.078125 4.617188 0.15625 3.953125 0.15625 C 3.285156 0.15625 2.738281 0.078125 2.3125 -0.078125 C 1.894531 -0.234375 1.566406 -0.46875 1.328125 -0.78125 C 1.085938 -1.101562 0.925781 -1.5 0.84375 -1.96875 C 0.757812 -2.445312 0.71875 -3.003906 0.71875 -3.640625 L 0.71875 -9.1875 Z M 2.703125 -9.1875 "/></g></g></g><g fill="#000000" fill-opacity="1"><g transform="translate(58.465473, 68.767994)"><g><path d="M 3.8125 0.15625 C 3.03125 0.15625 2.351562 0.03125 1.78125 -0.21875 C 1.21875 -0.476562 0.757812 -0.828125 0.40625 -1.265625 L 1.546875 -2.53125 C 1.890625 -2.15625 2.257812 -1.878906 2.65625 -1.703125 C 3.050781 -1.535156 3.457031 -1.453125 3.875 -1.453125 C 4.34375 -1.453125 4.703125 -1.554688 4.953125 -1.765625 C 5.203125 -1.972656 5.328125 -2.273438 5.328125 -2.671875 C 5.328125 -2.992188 5.226562 -3.238281 5.03125 -3.40625 C 4.84375 -3.570312 4.523438 -3.691406 4.078125 -3.765625 L 3.125 -3.921875 C 2.300781 -4.066406 1.703125 -4.375 1.328125 -4.84375 C 0.960938 -5.3125 0.78125 -5.882812 0.78125 -6.5625 C 0.78125 -7.445312 1.066406 -8.132812 1.640625 -8.625 C 2.222656 -9.113281 3.035156 -9.359375 4.078125 -9.359375 C 4.796875 -9.359375 5.414062 -9.242188 5.9375 -9.015625 C 6.46875 -8.796875 6.894531 -8.5 7.21875 -8.125 L 6.09375 -6.875 C 5.851562 -7.144531 5.566406 -7.359375 5.234375 -7.515625 C 4.898438 -7.671875 4.519531 -7.75 4.09375 -7.75 C 3.207031 -7.75 2.765625 -7.382812 2.765625 -6.65625 C 2.765625 -6.332031 2.863281 -6.09375 3.0625 -5.9375 C 3.257812 -5.78125 3.582031 -5.660156 4.03125 -5.578125 L 4.984375 -5.40625 C 5.734375 -5.28125 6.3125 -5 6.71875 -4.5625 C 7.125 -4.132812 7.328125 -3.554688 7.328125 -2.828125 C 7.328125 -2.398438 7.25 -2.003906 7.09375 -1.640625 C 6.945312 -1.273438 6.722656 -0.957031 6.421875 -0.6875 C 6.128906 -0.425781 5.765625 -0.21875 5.328125 -0.0625 C 4.890625 0.0820312 4.382812 0.15625 3.8125 0.15625 Z M 3.8125 0.15625 "/></g></g></g></svg>