<svg xmlns="http://www.w3.org/2000/svg" xmlns:xlink="http://www.w3.org/1999/xlink" width="300" zoomAndPan="magnify" viewBox="0 0 224.87999 74.999997" height="100" preserveAspectRatio="xMidYMid meet" version="1.0"><defs><clipPath id="ad26a85171"><path d="M 34.523438 18 L 81.589844 18 L 81.589844 67.933594 L 34.523438 67.933594 Z M 34.523438 18 " clip-rule="nonzero"/></clipPath><clipPath id="5f63cf35b7"><path d="M 40.476562 20.410156 C 39.652344 39.074219 38.230469 39.597656 38.15625 39.523438 C 38.078125 39.449219 39.503906 37.199219 40.027344 37.351562 C 41.226562 37.726562 41.679688 50.46875 41.453125 55.789062 C 41.226562 59.839844 40.851562 64.710938 39.652344 66.507812 C 39.128906 67.335938 38.304688 67.785156 37.628906 67.859375 C 36.878906 67.933594 35.757812 67.484375 35.304688 66.960938 C 34.855469 66.507812 34.707031 66.132812 34.632812 65.160156 C 34.332031 62.238281 35.980469 52.042969 37.40625 46.121094 C 38.605469 40.722656 39.953125 35.027344 42.351562 31.128906 C 44.226562 27.980469 47 25.054688 49.324219 23.707031 C 50.824219 22.808594 52.695312 22.28125 53.894531 22.582031 C 54.796875 22.808594 55.996094 24.457031 55.921875 24.457031 C 55.921875 24.53125 53.972656 23.257812 54.121094 22.808594 C 54.269531 22.207031 57.417969 21.609375 59.144531 21.609375 C 60.867188 21.609375 62.667969 21.984375 64.316406 22.882812 C 66.265625 23.933594 68.8125 26.332031 69.9375 28.203125 C 70.835938 29.777344 71.0625 31.128906 71.210938 33.078125 C 71.4375 35.777344 70.835938 40.949219 70.3125 43.121094 C 70.085938 44.171875 70.011719 44.847656 69.414062 45.371094 C 68.738281 45.96875 67.3125 46.421875 66.566406 46.195312 C 65.890625 46.046875 65.289062 45.222656 64.992188 44.621094 C 64.765625 44.023438 64.839844 43.273438 64.992188 42.671875 C 65.214844 42.148438 65.738281 41.546875 66.265625 41.324219 C 66.789062 41.023438 67.613281 40.949219 68.136719 41.097656 C 68.738281 41.246094 69.261719 41.472656 69.710938 42.148438 C 70.6875 44.023438 69.1875 51.441406 70.539062 54.515625 C 71.511719 56.839844 73.835938 58.5625 75.410156 59.6875 C 76.609375 60.4375 78.332031 60.4375 78.78125 61.039062 C 79.007812 61.414062 78.632812 61.9375 78.78125 62.3125 C 79.15625 62.988281 81.105469 63.511719 81.40625 64.335938 C 81.632812 65.011719 81.257812 66.210938 80.808594 66.808594 C 80.507812 67.257812 79.980469 67.632812 79.382812 67.632812 C 78.558594 67.707031 76.835938 67.035156 76.382812 66.285156 C 76.007812 65.609375 76.085938 64.410156 76.460938 63.734375 C 76.757812 63.0625 77.808594 62.386719 78.558594 62.3125 C 79.234375 62.238281 80.355469 62.761719 80.882812 63.285156 C 81.257812 63.734375 81.480469 64.335938 81.480469 64.933594 C 81.480469 65.609375 80.957031 66.734375 80.433594 67.183594 C 79.980469 67.558594 79.53125 67.785156 78.78125 67.707031 C 77.132812 67.558594 73.3125 64.933594 71.0625 63.210938 C 69.113281 61.5625 67.089844 59.988281 66.039062 57.890625 C 64.992188 55.714844 65.066406 53.015625 64.914062 50.46875 C 64.691406 47.917969 64.164062 44.246094 64.992188 42.671875 C 65.515625 41.773438 66.714844 41.023438 67.539062 41.023438 C 68.363281 41.023438 70.011719 42.671875 70.011719 42.746094 C 69.9375 42.820312 68.0625 41.324219 67.238281 41.246094 C 66.488281 41.246094 65.515625 42.523438 65.140625 42.222656 C 64.242188 41.546875 67.238281 34.578125 66.191406 31.953125 C 65.289062 29.703125 62.441406 27.53125 60.191406 26.929688 C 57.945312 26.257812 54.347656 28.578125 52.695312 27.980469 C 51.722656 27.605469 50.746094 25.730469 50.746094 25.65625 C 50.824219 25.65625 52.847656 27.003906 52.847656 27.832031 C 52.773438 29.179688 48.800781 31.054688 47.523438 32.851562 C 46.398438 34.351562 45.949219 35.699219 45.199219 37.648438 C 44.226562 40.273438 43.25 43.570312 42.425781 47.394531 C 41.378906 52.492188 41.226562 62.988281 39.878906 65.910156 C 39.429688 66.960938 38.902344 67.484375 38.230469 67.707031 C 37.40625 67.933594 35.90625 67.484375 35.304688 66.960938 C 34.855469 66.507812 34.78125 66.058594 34.632812 65.160156 C 34.40625 62.6875 36.355469 55.566406 36.355469 50.917969 C 36.355469 46.644531 34.78125 41.023438 34.929688 38.398438 C 35.007812 37.125 35.082031 36.300781 35.605469 35.625 C 36.054688 35.027344 37.703125 34.578125 37.703125 34.5 C 37.703125 34.425781 36.054688 35.476562 35.53125 35.101562 C 34.183594 34.050781 35.382812 22.734375 35.832031 20.410156 C 35.980469 19.585938 36.054688 19.210938 36.429688 18.835938 C 36.878906 18.460938 37.855469 18.085938 38.453125 18.085938 C 38.980469 18.160156 39.578125 18.460938 39.878906 18.835938 C 40.253906 19.210938 40.476562 20.410156 40.476562 20.410156 " clip-rule="nonzero"/></clipPath><clipPath id="144466e243"><path d="M 96 18.386719 L 133.558594 18.386719 L 133.558594 66.453125 L 96 66.453125 Z M 96 18.386719 " clip-rule="nonzero"/></clipPath><clipPath id="c32dcdfaa0"><path d="M 98.871094 30.527344 C 117.761719 34.652344 119.035156 34.578125 120.6875 34.203125 C 122.335938 33.753906 124.808594 33.078125 125.632812 32.027344 C 126.234375 31.351562 126.082031 30.378906 126.082031 29.328125 C 126.007812 27.605469 126.234375 24.15625 124.582031 23.109375 C 121.660156 21.308594 106.144531 25.730469 104.570312 27.90625 C 103.96875 28.730469 104.945312 29.703125 104.71875 30.453125 C 104.496094 31.128906 103.070312 32.253906 103.070312 32.328125 C 103.144531 32.328125 104.417969 30.453125 104.867188 30.605469 C 106.292969 31.128906 105.09375 46.121094 106.441406 51.066406 C 107.269531 53.992188 108.316406 56.164062 109.816406 57.8125 C 111.015625 59.089844 112.816406 59.914062 114.238281 60.289062 C 115.363281 60.664062 116.261719 60.4375 117.613281 60.4375 C 119.636719 60.511719 122.859375 60.960938 125.109375 60.289062 C 127.207031 59.613281 129.230469 56.539062 130.730469 56.613281 C 131.78125 56.613281 132.980469 57.589844 133.277344 58.339844 C 133.578125 59.011719 133.355469 60.210938 132.902344 60.738281 C 132.453125 61.335938 131.40625 61.863281 130.730469 61.710938 C 129.90625 61.636719 128.554688 60.511719 128.332031 59.6875 C 128.105469 59.011719 128.480469 57.890625 129.007812 57.363281 C 129.605469 56.839844 131.328125 56.539062 132.078125 56.914062 C 132.828125 57.289062 133.578125 58.714844 133.355469 59.761719 C 133.054688 61.414062 129.832031 64.109375 127.132812 65.160156 C 123.757812 66.507812 117.988281 66.734375 114.238281 65.761719 C 110.867188 64.859375 107.34375 62.460938 105.320312 60.210938 C 103.667969 58.414062 103.070312 56.839844 102.246094 54.214844 C 100.894531 49.792969 100.222656 39.75 99.921875 35.476562 C 99.773438 33.226562 99.546875 31.726562 99.773438 30.378906 C 99.996094 29.328125 100.820312 27.90625 100.894531 27.90625 C 101.046875 27.980469 100.597656 31.128906 100.296875 31.128906 C 100.070312 31.128906 99.546875 29.253906 99.546875 28.429688 C 99.472656 27.679688 99.621094 26.855469 99.921875 26.179688 C 100.222656 25.429688 100.671875 24.683594 101.269531 24.082031 C 101.871094 23.632812 102.320312 23.40625 103.445312 23.03125 C 106.742188 21.832031 119.785156 18.984375 123.683594 18.683594 C 125.332031 18.535156 126.234375 18.386719 127.132812 18.835938 C 128.03125 19.359375 128.554688 20.410156 129.082031 21.609375 C 129.980469 23.40625 130.804688 26.78125 131.03125 29.03125 C 131.179688 30.902344 131.328125 33.003906 130.730469 34.203125 C 130.28125 35.175781 129.457031 35.550781 128.40625 36.152344 C 126.683594 37.199219 123.234375 38.699219 120.835938 39.148438 C 118.738281 39.523438 117.238281 39.375 114.6875 39.074219 C 110.339844 38.472656 99.546875 36.152344 97.296875 34.726562 C 96.625 34.351562 96.398438 33.976562 96.25 33.527344 C 96.023438 33.078125 96.023438 32.402344 96.25 31.953125 C 96.398438 31.429688 96.847656 30.902344 97.296875 30.679688 C 97.746094 30.453125 98.871094 30.527344 98.871094 30.527344 " clip-rule="nonzero"/></clipPath><clipPath id="142293f4ee"><path d="M 154.160156 17.277344 L 199.824219 17.277344 L 199.824219 64.140625 L 154.160156 64.140625 Z M 154.160156 17.277344 " clip-rule="nonzero"/></clipPath><clipPath id="ca7bab0ef7"><path d="M 158.988281 19.660156 C 161.390625 34.125 171.285156 59.464844 170.085938 60.289062 C 169.785156 60.511719 168.585938 59.464844 168.210938 58.863281 C 167.835938 58.1875 167.761719 57.4375 167.910156 56.316406 C 168.210938 53.765625 171.957031 47.542969 173.007812 44.097656 C 173.757812 41.773438 173.53125 39.300781 174.355469 38.101562 C 174.957031 37.273438 175.707031 36.75 176.457031 36.75 C 177.28125 36.75 178.253906 37.273438 179.003906 38.25 C 180.730469 40.347656 181.328125 47.320312 183.050781 50.992188 C 184.476562 54.066406 188.75 57.890625 188.222656 58.9375 C 187.925781 59.539062 185.824219 59.839844 185.300781 59.164062 C 183.875 57.515625 188.375 42.523438 190.699219 38.847656 C 191.746094 37.125 194.445312 36.074219 194.371094 35.777344 C 194.222656 35.550781 191.523438 36.527344 191.449219 36.449219 C 191.449219 36.375 193.246094 35.402344 193.996094 35.476562 C 194.519531 35.550781 195.046875 36 195.347656 36.449219 C 195.644531 36.824219 195.796875 37.574219 195.796875 38.023438 C 195.71875 38.472656 195.71875 39 195.347656 39.148438 C 194.746094 39.375 191.597656 38.699219 191.074219 37.5 C 190.25 35.699219 193.695312 31.128906 194.371094 28.054688 C 194.972656 25.28125 194.144531 21.457031 195.046875 19.882812 C 195.570312 18.910156 196.695312 18.308594 197.445312 18.308594 C 198.042969 18.234375 199.019531 18.835938 199.320312 19.433594 C 199.617188 20.109375 199.46875 21.683594 199.019531 22.207031 C 198.570312 22.734375 197.519531 23.109375 196.917969 22.957031 C 196.171875 22.734375 195.121094 21.609375 194.972656 20.859375 C 194.820312 20.257812 195.269531 19.285156 195.796875 18.835938 C 196.246094 18.386719 197.292969 18.160156 197.894531 18.386719 C 198.644531 18.609375 199.320312 19.585938 199.617188 20.632812 C 200.144531 22.507812 199.46875 26.332031 198.867188 29.179688 C 198.195312 32.179688 197.371094 37.273438 195.796875 38.023438 C 194.597656 38.550781 191.523438 36.976562 191.449219 36.449219 C 191.449219 36.152344 192.347656 35.625 192.871094 35.476562 C 193.320312 35.402344 194.070312 35.402344 194.519531 35.699219 C 195.046875 36.074219 195.71875 37.425781 195.796875 38.023438 C 195.796875 38.472656 195.644531 38.847656 195.347656 39.148438 C 194.894531 39.523438 192.496094 39.597656 192.496094 39.75 C 192.496094 39.898438 194.671875 39.375 195.195312 40.046875 C 196.394531 41.773438 192.796875 52.265625 191.449219 56.464844 C 190.625 59.164062 189.949219 61.785156 188.75 62.910156 C 188 63.660156 186.949219 64.035156 186.125 63.960938 C 185.300781 63.886719 184.625 63.285156 183.875 62.460938 C 182.300781 60.886719 180.203125 57.289062 178.703125 53.917969 C 176.832031 49.644531 173.382812 41.171875 174.132812 38.625 C 174.507812 37.574219 175.707031 36.898438 176.457031 36.75 C 177.054688 36.675781 177.804688 36.976562 178.253906 37.273438 C 178.703125 37.648438 179.078125 38.101562 179.230469 38.847656 C 179.527344 40.5 178.40625 44.171875 177.503906 47.246094 C 176.230469 51.144531 173.382812 57.589844 172.03125 60.289062 C 171.359375 61.636719 171.058594 62.535156 170.234375 63.136719 C 169.484375 63.734375 168.136719 64.261719 167.3125 63.960938 C 166.1875 63.585938 165.585938 62.085938 164.613281 60.0625 C 161.988281 54.589844 156.589844 35.402344 155.242188 27.90625 C 154.492188 23.933594 153.96875 20.183594 154.566406 18.683594 C 154.867188 18.011719 155.316406 17.710938 155.765625 17.5625 C 156.292969 17.335938 156.964844 17.261719 157.414062 17.484375 C 158.015625 17.785156 158.988281 19.660156 158.988281 19.660156 " clip-rule="nonzero"/></clipPath><clipPath id="b60ddfc19d"><path d="M 203.445312 1.164062 L 218.148438 1.164062 L 218.148438 13.289062 L 203.445312 13.289062 Z M 203.445312 1.164062 " clip-rule="nonzero"/></clipPath><clipPath id="0af125668e"><path d="M 208.839844 5.191406 C 216.710938 10.515625 216.484375 11.789062 216.035156 12.386719 C 215.511719 12.914062 214.460938 13.289062 213.410156 13.0625 C 211.164062 12.539062 205.464844 7.140625 204.191406 5.191406 C 203.667969 4.292969 203.441406 3.617188 203.515625 3.019531 C 203.589844 2.417969 203.964844 1.820312 204.492188 1.519531 C 205.089844 1.144531 206.066406 1.070312 207.1875 1.445312 C 209.664062 2.195312 216.484375 6.992188 217.683594 9.238281 C 218.285156 10.289062 218.207031 11.488281 217.832031 12.164062 C 217.457031 12.761719 216.410156 13.214844 215.734375 13.289062 C 215.210938 13.289062 214.609375 13.0625 214.234375 12.6875 C 213.785156 12.3125 213.335938 11.265625 213.335938 10.589844 C 213.335938 10.066406 213.5625 9.539062 213.9375 9.164062 C 214.386719 8.714844 215.433594 8.265625 216.109375 8.339844 C 216.785156 8.414062 217.683594 9.015625 217.984375 9.691406 C 218.285156 10.363281 218.058594 12.089844 217.457031 12.613281 C 216.859375 13.136719 215.660156 13.214844 214.460938 12.914062 C 211.988281 12.164062 205.539062 6.917969 204.191406 5.191406 C 203.667969 4.519531 203.515625 4.144531 203.515625 3.542969 C 203.515625 2.945312 203.890625 1.894531 204.492188 1.519531 C 205.089844 1.144531 206.140625 0.996094 207.1875 1.445312 C 209.4375 2.195312 214.761719 7.515625 215.960938 9.238281 C 216.410156 9.839844 216.558594 10.214844 216.558594 10.738281 C 216.558594 11.265625 216.335938 11.9375 216.035156 12.386719 C 215.660156 12.761719 215.058594 13.136719 214.535156 13.214844 C 214.011719 13.289062 213.5625 13.136719 212.8125 12.761719 C 211.238281 12.089844 206.214844 9.539062 205.617188 8.039062 C 205.316406 7.140625 205.691406 5.941406 206.289062 5.492188 C 206.816406 4.96875 208.839844 5.191406 208.839844 5.191406 " clip-rule="nonzero"/></clipPath><clipPath id="4e129a4d80"><path d="M 200.847656 1.773438 L 217.898438 1.773438 L 217.898438 16.941406 L 200.847656 16.941406 Z M 200.847656 1.773438 " clip-rule="nonzero"/></clipPath><clipPath id="1025426ba6"><path d="M 207.714844 11.5625 C 214.386719 5.417969 214.910156 7.140625 214.535156 8.265625 C 213.785156 10.589844 206.890625 15.835938 204.492188 16.585938 C 203.367188 16.886719 202.316406 16.660156 201.71875 16.285156 C 201.269531 15.988281 200.96875 15.3125 200.894531 14.789062 C 200.816406 14.261719 200.894531 13.8125 201.269531 13.136719 C 202.542969 10.964844 210.1875 2.792969 212.886719 2.042969 C 214.085938 1.667969 215.285156 2.117188 215.808594 2.644531 C 216.335938 3.09375 216.484375 4.292969 216.335938 4.890625 C 216.257812 5.417969 215.886719 5.941406 215.511719 6.242188 C 214.910156 6.542969 213.859375 6.839844 213.1875 6.617188 C 212.585938 6.390625 211.761719 5.566406 211.613281 4.96875 C 211.386719 4.292969 211.6875 3.242188 212.0625 2.71875 C 212.363281 2.269531 212.886719 1.894531 213.410156 1.820312 C 214.160156 1.820312 215.734375 2.417969 216.109375 3.09375 C 216.484375 3.769531 216.257812 4.890625 215.660156 6.015625 C 214.3125 8.640625 206.664062 15.535156 204.492188 16.585938 C 203.742188 16.960938 203.292969 16.960938 202.765625 16.8125 C 202.167969 16.660156 201.269531 15.988281 201.042969 15.386719 C 200.816406 14.636719 201.042969 13.664062 201.640625 12.6875 C 203.066406 10.589844 209.363281 6.316406 211.988281 5.042969 C 213.484375 4.367188 214.761719 3.84375 215.734375 4.066406 C 216.558594 4.292969 217.609375 5.191406 217.832031 5.941406 C 217.984375 6.691406 217.535156 7.664062 216.933594 8.714844 C 215.808594 10.515625 212.136719 14.636719 210.335938 15.160156 C 209.363281 15.386719 208.3125 15.011719 207.789062 14.5625 C 207.414062 14.261719 207.1875 13.585938 207.1875 13.0625 C 207.1875 12.613281 207.714844 11.5625 207.714844 11.5625 " clip-rule="nonzero"/></clipPath><clipPath id="4e80aae478"><path d="M 12.679688 4.671875 L 27.792969 4.671875 L 27.792969 21.417969 L 12.679688 21.417969 Z M 12.679688 4.671875 " clip-rule="nonzero"/></clipPath><clipPath id="7d854585db"><path d="M 22.261719 9.914062 C 27.808594 19.433594 27.511719 20.183594 27.0625 20.632812 C 26.609375 21.082031 25.859375 21.535156 24.960938 21.308594 C 22.5625 20.707031 15.140625 11.863281 13.566406 9.089844 C 12.96875 7.890625 12.667969 6.992188 12.816406 6.242188 C 12.96875 5.71875 13.417969 5.191406 13.941406 4.96875 C 14.542969 4.667969 15.292969 4.59375 16.191406 4.890625 C 18.515625 5.71875 25.5625 11.714844 26.761719 14.113281 C 27.285156 15.238281 27.359375 16.4375 26.910156 17.109375 C 26.460938 17.785156 24.8125 18.160156 24.0625 18.085938 C 23.539062 17.933594 23.085938 17.5625 22.863281 17.109375 C 22.488281 16.511719 22.339844 15.460938 22.5625 14.789062 C 22.863281 14.1875 23.6875 13.4375 24.363281 13.289062 C 25.035156 13.136719 26.160156 13.4375 26.609375 13.960938 C 27.136719 14.5625 27.359375 16.136719 27.0625 16.886719 C 26.761719 17.484375 25.785156 18.085938 25.113281 18.160156 C 24.585938 18.234375 24.285156 18.160156 23.613281 17.859375 C 21.511719 16.734375 13.644531 10.4375 12.894531 7.964844 C 12.519531 6.917969 12.894531 5.792969 13.492188 5.265625 C 14.015625 4.816406 15.140625 4.519531 16.191406 4.890625 C 18.214844 5.566406 21.511719 9.988281 23.539062 12.464844 C 25.1875 14.488281 27.433594 16.960938 27.734375 18.535156 C 27.808594 19.359375 27.511719 20.183594 27.0625 20.632812 C 26.609375 21.082031 25.710938 21.535156 24.960938 21.308594 C 23.761719 21.007812 21.964844 18.761719 20.839844 17.109375 C 19.566406 15.386719 18.066406 12.613281 17.839844 11.265625 C 17.765625 10.589844 17.914062 10.066406 18.140625 9.613281 C 18.441406 9.164062 18.964844 8.789062 19.414062 8.640625 C 19.9375 8.492188 20.613281 8.492188 21.0625 8.714844 C 21.511719 8.941406 22.261719 9.914062 22.261719 9.914062 " clip-rule="nonzero"/></clipPath><clipPath id="226cdd65a9"><path d="M 11.914062 4.4375 L 33.578125 4.4375 L 33.578125 21.238281 L 11.914062 21.238281 Z M 11.914062 4.4375 " clip-rule="nonzero"/></clipPath><clipPath id="cac936476d"><path d="M 13.492188 16.8125 C 25.636719 11.1875 26.761719 10.964844 26.835938 11.113281 C 26.910156 11.265625 24.960938 12.6875 24.8125 12.539062 C 24.511719 12.3125 27.285156 7.066406 28.632812 5.792969 C 29.460938 5.042969 30.359375 4.59375 31.109375 4.519531 C 31.707031 4.519531 32.382812 4.816406 32.757812 5.265625 C 33.207031 5.71875 33.65625 6.691406 33.507812 7.441406 C 33.207031 8.714844 31.410156 10.289062 29.460938 11.488281 C 26.386719 13.511719 17.089844 17.636719 15.816406 16.734375 C 15.367188 16.4375 15.589844 15.011719 15.964844 14.414062 C 16.492188 13.585938 17.914062 13.363281 19.265625 12.839844 C 21.589844 12.164062 26.535156 10.515625 28.484375 10.964844 C 29.609375 11.265625 30.582031 12.164062 30.734375 12.988281 C 30.957031 13.738281 30.132812 15.238281 29.460938 15.6875 C 28.859375 16.0625 27.734375 15.910156 27.136719 15.613281 C 26.6875 15.386719 26.3125 14.9375 26.085938 14.488281 C 25.859375 13.886719 25.859375 12.761719 26.234375 12.164062 C 26.609375 11.5625 27.585938 10.964844 28.261719 10.964844 C 29.007812 11.039062 30.359375 12.011719 30.734375 12.6875 C 30.957031 13.214844 30.882812 13.8125 30.660156 14.261719 C 30.433594 14.863281 29.910156 15.386719 29.007812 15.835938 C 26.761719 16.960938 18.664062 17.933594 15.964844 17.933594 C 14.765625 17.933594 14.09375 17.859375 13.417969 17.484375 C 12.742188 17.035156 12.070312 16.285156 11.992188 15.535156 C 11.917969 14.5625 12.59375 13.289062 13.71875 12.3125 C 15.816406 10.515625 22.1875 9.539062 25.335938 8.039062 C 27.660156 6.917969 29.683594 4.519531 31.109375 4.519531 C 31.933594 4.519531 32.757812 5.191406 33.132812 5.71875 C 33.507812 6.167969 33.65625 6.691406 33.507812 7.441406 C 33.207031 9.164062 31.410156 12.914062 29.007812 15.011719 C 25.785156 17.859375 17.242188 21.457031 14.617188 21.160156 C 13.492188 21.082031 12.742188 20.257812 12.441406 19.660156 C 12.144531 19.210938 12.21875 18.535156 12.367188 18.011719 C 12.59375 17.5625 13.492188 16.8125 13.492188 16.8125 " clip-rule="nonzero"/></clipPath><clipPath id="7ad716d5d3"><path d="M 10.960938 59.324219 L 27.710938 59.324219 L 27.710938 74.519531 L 10.960938 74.519531 Z M 10.960938 59.324219 " clip-rule="nonzero"/></clipPath><clipPath id="bfbd104cb5"><path d="M 15.066406 60.363281 C 27.511719 71.082031 27.660156 71.382812 27.660156 71.90625 C 27.734375 72.507812 27.359375 73.554688 26.835938 73.929688 C 26.3125 74.304688 25.5625 74.53125 24.738281 74.378906 C 22.789062 73.929688 18.664062 70.707031 16.265625 68.609375 C 14.167969 66.660156 11.242188 63.8125 11.019531 62.238281 C 10.871094 61.335938 11.242188 60.511719 11.769531 60.0625 C 12.292969 59.613281 13.34375 59.3125 14.015625 59.464844 C 14.617188 59.6875 15.441406 60.363281 15.667969 61.039062 C 15.964844 61.636719 15.742188 62.761719 15.367188 63.285156 C 15.140625 63.734375 14.617188 64.109375 14.09375 64.1875 C 13.492188 64.335938 12.367188 64.261719 11.84375 63.8125 C 11.320312 63.210938 10.945312 61.636719 11.167969 60.886719 C 11.394531 60.289062 12.367188 59.613281 12.96875 59.464844 C 13.417969 59.3125 13.867188 59.386719 14.46875 59.6875 C 15.890625 60.363281 18.214844 63.886719 20.3125 65.683594 C 22.414062 67.484375 25.9375 69.132812 26.984375 70.40625 C 27.433594 71.007812 27.734375 71.382812 27.660156 71.90625 C 27.660156 72.582031 26.984375 73.855469 26.386719 74.230469 C 25.785156 74.53125 25.113281 74.53125 24.210938 74.15625 C 21.664062 73.105469 13.566406 65.683594 11.992188 63.734375 C 11.46875 63.0625 11.320312 62.761719 11.242188 62.3125 C 11.167969 61.785156 11.394531 61.113281 11.695312 60.738281 C 11.917969 60.289062 12.519531 59.914062 12.96875 59.839844 C 13.566406 59.6875 15.066406 60.363281 15.066406 60.363281 " clip-rule="nonzero"/></clipPath><clipPath id="69f62de867"><path d="M 9.722656 58.078125 L 26.796875 58.078125 L 26.796875 74.714844 L 9.722656 74.714844 Z M 9.722656 58.078125 " clip-rule="nonzero"/></clipPath><clipPath id="7d08d1d089"><path d="M 10.34375 70.332031 C 22.414062 58.863281 23.988281 57.964844 25.035156 58.1875 C 25.710938 58.265625 26.386719 59.011719 26.609375 59.613281 C 26.835938 60.210938 26.761719 60.8125 26.386719 61.710938 C 25.113281 64.335938 17.089844 72.804688 14.242188 74.082031 C 13.117188 74.605469 12.144531 74.605469 11.46875 74.304688 C 10.945312 74.082031 10.496094 73.40625 10.34375 72.882812 C 10.195312 72.355469 10.121094 71.757812 10.417969 71.15625 C 10.945312 70.03125 13.191406 68.832031 14.242188 67.558594 C 15.140625 66.359375 15.441406 64.5625 16.339844 63.8125 C 16.941406 63.210938 17.839844 62.835938 18.441406 62.761719 C 19.039062 62.761719 19.566406 62.988281 19.9375 63.359375 C 20.390625 63.886719 20.914062 64.933594 20.839844 65.609375 C 20.765625 66.285156 20.089844 67.257812 19.488281 67.558594 C 18.890625 67.859375 17.765625 67.859375 17.164062 67.558594 C 16.492188 67.183594 15.964844 66.210938 15.816406 65.609375 C 15.742188 65.085938 15.816406 64.410156 16.191406 64.035156 C 16.640625 63.4375 18.214844 62.6875 18.964844 62.910156 C 19.789062 63.136719 20.6875 64.335938 20.839844 65.308594 C 20.988281 66.507812 19.714844 68.535156 19.039062 69.65625 C 18.441406 70.558594 17.839844 71.007812 17.089844 71.757812 C 16.191406 72.582031 14.765625 74.003906 13.71875 74.378906 C 13.117188 74.679688 12.519531 74.753906 11.992188 74.53125 C 11.320312 74.230469 10.34375 73.105469 10.195312 72.355469 C 10.121094 71.457031 10.570312 70.707031 11.320312 69.582031 C 12.894531 67.109375 18.964844 61.039062 21.589844 59.386719 C 22.9375 58.5625 24.136719 57.964844 25.035156 58.1875 C 25.710938 58.265625 26.386719 59.011719 26.609375 59.613281 C 26.835938 60.210938 26.761719 61.039062 26.386719 61.710938 C 25.710938 62.835938 23.6875 63.4375 22.039062 64.785156 C 19.640625 66.882812 15.292969 72.355469 13.566406 73.554688 C 12.96875 74.003906 12.59375 74.15625 12.144531 74.230469 C 11.617188 74.230469 10.945312 74.082031 10.570312 73.707031 C 10.121094 73.332031 9.746094 72.429688 9.746094 71.832031 C 9.746094 71.308594 10.34375 70.332031 10.34375 70.332031 " clip-rule="nonzero"/></clipPath><clipPath id="0ce92a49cb"><path d="M 201.890625 53.203125 L 219.835938 53.203125 L 219.835938 70.429688 L 201.890625 70.429688 Z M 201.890625 53.203125 " clip-rule="nonzero"/></clipPath><clipPath id="57e628305e"><path d="M 209.289062 57.066406 C 216.859375 62.3125 218.058594 63.210938 218.582031 64.035156 C 218.882812 64.636719 219.109375 65.234375 218.957031 65.761719 C 218.882812 66.359375 218.207031 67.257812 217.683594 67.632812 C 217.160156 67.933594 216.710938 67.933594 215.886719 67.785156 C 213.5625 67.410156 204.714844 63.585938 202.917969 61.1875 C 201.941406 59.914062 201.71875 58.1875 202.09375 57.363281 C 202.46875 56.613281 203.515625 55.941406 204.714844 56.015625 C 207.113281 56.089844 214.910156 60.8125 215.886719 62.910156 C 216.257812 63.8125 215.734375 64.785156 215.359375 65.460938 C 214.984375 66.132812 214.386719 66.507812 213.5625 67.035156 C 212.363281 67.933594 210.039062 69.808594 208.613281 70.183594 C 207.714844 70.40625 206.816406 70.332031 206.214844 69.882812 C 205.617188 69.507812 205.089844 68.457031 205.015625 67.707031 C 204.941406 67.035156 205.242188 66.507812 205.765625 65.609375 C 206.890625 63.285156 212.0625 54.589844 213.484375 54.816406 C 214.3125 54.964844 214.835938 57.890625 214.761719 59.164062 C 214.683594 60.289062 214.160156 61.039062 213.484375 62.160156 C 212.363281 63.886719 209.664062 67.183594 208.3125 68.160156 C 207.714844 68.683594 207.1875 68.910156 206.664062 68.910156 C 206.066406 68.984375 205.316406 68.757812 204.867188 68.382812 C 204.414062 68.007812 203.964844 67.410156 203.890625 66.808594 C 203.816406 66.210938 203.816406 65.761719 204.191406 65.011719 C 205.164062 62.835938 210.1875 56.390625 212.511719 54.589844 C 213.710938 53.765625 214.761719 53.089844 215.660156 53.316406 C 216.632812 53.464844 217.984375 54.816406 218.132812 55.640625 C 218.285156 56.316406 217.757812 56.988281 217.308594 57.8125 C 216.710938 58.9375 215.511719 61.488281 214.460938 61.785156 C 213.710938 62.085938 212.210938 60.960938 212.136719 61.113281 C 212.0625 61.335938 218.734375 64.261719 219.484375 65.609375 C 219.859375 66.210938 219.78125 66.734375 219.632812 67.257812 C 219.332031 67.933594 218.582031 68.910156 217.910156 69.058594 C 217.085938 69.28125 215.359375 68.683594 214.835938 68.007812 C 214.386719 67.484375 214.234375 66.210938 214.609375 65.535156 C 214.984375 64.785156 216.558594 63.960938 217.308594 63.886719 C 217.910156 63.886719 218.507812 64.1875 218.882812 64.636719 C 219.332031 65.160156 219.859375 66.285156 219.632812 66.960938 C 219.484375 67.785156 218.433594 69.058594 217.308594 69.207031 C 215.433594 69.433594 209.738281 66.285156 208.6875 64.5625 C 208.089844 63.585938 208.464844 62.460938 208.6875 61.5625 C 208.914062 60.664062 209.511719 59.914062 209.886719 59.164062 C 210.261719 58.488281 210.488281 57.664062 211.085938 57.289062 C 211.761719 56.839844 212.886719 56.539062 213.5625 56.839844 C 214.3125 57.066406 215.433594 58.113281 215.433594 59.089844 C 215.433594 61.113281 210.261719 66.882812 208.3125 68.160156 C 207.488281 68.757812 206.738281 69.058594 205.988281 68.910156 C 205.242188 68.683594 204.042969 67.632812 203.890625 66.808594 C 203.742188 66.058594 204.191406 65.234375 204.789062 64.1875 C 205.914062 62.238281 209.886719 58.265625 211.386719 56.691406 C 212.136719 55.941406 212.363281 55.414062 213.109375 55.039062 C 213.859375 54.664062 215.210938 53.992188 215.808594 54.367188 C 216.558594 54.890625 216.859375 57.738281 216.484375 59.238281 C 216.183594 60.664062 214.910156 61.863281 213.9375 63.136719 C 212.8125 64.484375 210.789062 65.835938 210.039062 67.109375 C 209.511719 68.082031 209.738281 69.359375 209.214844 69.882812 C 208.761719 70.257812 208.015625 70.40625 207.414062 70.332031 C 206.816406 70.257812 206.140625 69.882812 205.691406 69.507812 C 205.316406 69.058594 205.015625 68.308594 205.015625 67.707031 C 205.015625 67.183594 205.242188 66.507812 205.691406 65.984375 C 206.289062 65.160156 207.863281 64.1875 208.988281 63.660156 C 209.964844 63.210938 211.613281 62.613281 211.835938 62.910156 C 211.988281 63.136719 211.164062 64.859375 210.335938 65.085938 C 208.988281 65.386719 203.589844 62.011719 203.589844 61.039062 C 203.589844 60.4375 205.390625 60.289062 205.765625 59.613281 C 206.214844 59.011719 205.390625 57.363281 205.988281 57.066406 C 207.339844 56.316406 216.632812 61.5625 218.207031 63.585938 C 218.882812 64.5625 219.03125 65.609375 218.808594 66.359375 C 218.582031 66.960938 217.683594 67.632812 217.085938 67.859375 C 216.558594 68.007812 216.109375 67.933594 215.359375 67.558594 C 213.484375 66.808594 207.414062 62.085938 206.214844 60.4375 C 205.765625 59.839844 205.617188 59.464844 205.617188 58.9375 C 205.617188 58.414062 205.914062 57.8125 206.214844 57.363281 C 206.589844 56.988281 207.1875 56.691406 207.714844 56.613281 C 208.164062 56.539062 209.289062 57.066406 209.289062 57.066406 " clip-rule="nonzero"/></clipPath><clipPath id="dfe0a3d8c3"><path d="M 0 0.0195312 L 224.761719 0.0195312 L 224.761719 74.980469 L 0 74.980469 Z M 0 0.0195312 " clip-rule="nonzero"/></clipPath><clipPath id="7debb97268"><path d="M 1.722656 -0.578125 C 57.042969 -0.65625 60.492188 0.320312 66.039062 0.621094 C 72.261719 0.996094 78.035156 0.84375 86.128906 0.769531 C 98.347656 0.621094 119.410156 -0.804688 132.304688 -0.578125 C 141.597656 -0.503906 147.144531 0.769531 156.140625 0.695312 C 167.910156 0.621094 184.851562 -2.003906 196.84375 -2.003906 C 206.441406 -2.078125 218.433594 -1.179688 222.707031 -0.355469 C 224.128906 -0.0546875 224.878906 0.0195312 225.554688 0.621094 C 226.152344 1.144531 226.378906 1.820312 226.679688 2.792969 C 227.203125 4.59375 227.878906 8.414062 227.652344 10.738281 C 227.503906 12.6875 226.378906 13.738281 226.078125 15.835938 C 225.554688 19.058594 226.304688 24.832031 226.078125 28.578125 C 225.855469 31.503906 225.179688 32.925781 224.953125 36.527344 C 224.503906 43.945312 226.152344 64.1875 225.179688 70.632812 C 224.804688 73.257812 224.355469 74.980469 223.457031 76.03125 C 222.855469 76.777344 222.105469 77.152344 221.207031 77.230469 C 219.933594 77.304688 218.734375 75.878906 216.484375 75.429688 C 211.613281 74.53125 196.320312 76.253906 192.496094 75.28125 C 191.296875 74.980469 191 74.082031 190.171875 74.082031 C 189.273438 74.003906 188.300781 75.054688 187.175781 75.128906 C 185.902344 75.203125 184.625 74.15625 182.828125 74.082031 C 179.902344 73.929688 173.980469 76.03125 171.507812 75.65625 C 170.234375 75.503906 169.632812 74.457031 168.734375 74.457031 C 167.984375 74.457031 167.609375 75.203125 166.636719 75.429688 C 164.761719 75.730469 160.640625 75.503906 158.164062 75.054688 C 156.066406 74.679688 153.894531 73.03125 152.542969 73.257812 C 151.644531 73.40625 151.417969 74.53125 150.445312 74.90625 C 148.71875 75.503906 144.449219 75.878906 142.796875 75.128906 C 141.675781 74.679688 140.550781 72.65625 140.550781 72.65625 C 140.476562 72.65625 142.425781 74.304688 142.199219 74.679688 C 141.824219 75.503906 134.703125 73.78125 131.40625 73.929688 C 128.480469 74.15625 125.40625 75.503906 123.382812 75.429688 C 122.035156 75.355469 121.511719 74.679688 120.160156 74.53125 C 118.210938 74.378906 114.390625 75.65625 112.589844 75.355469 C 111.539062 75.128906 111.089844 74.082031 110.191406 74.003906 C 109.140625 73.855469 108.316406 74.753906 106.59375 75.054688 C 102.621094 75.804688 89.652344 77.378906 86.128906 76.328125 C 84.703125 75.953125 84.328125 74.378906 83.503906 74.378906 C 82.753906 74.457031 82.457031 75.804688 81.480469 76.253906 C 79.90625 76.855469 77.207031 76.480469 74.285156 76.480469 C 69.636719 76.328125 61.316406 75.054688 56.070312 75.128906 C 51.949219 75.128906 47.675781 76.402344 45.199219 76.105469 C 43.851562 76.03125 43.175781 75.128906 42.203125 75.203125 C 41.304688 75.28125 40.554688 76.402344 39.429688 76.777344 C 38.003906 77.230469 36.503906 77.304688 34.105469 77.453125 C 29.234375 77.679688 17.617188 77.304688 11.542969 76.855469 C 7.347656 76.628906 3.148438 76.402344 0.972656 75.730469 C -0.148438 75.429688 -0.75 75.128906 -1.273438 74.53125 C -1.800781 74.003906 -2.023438 73.257812 -2.25 72.28125 C -2.625 70.480469 -3 66.960938 -2.773438 64.636719 C -2.625 62.6875 -1.800781 61.488281 -1.425781 59.238281 C -0.824219 55.414062 -0.449219 49.792969 -0.300781 43.722656 C -0.148438 35.25 -1.648438 18.234375 -1.125 13.136719 C -0.972656 11.339844 -1.125 10.289062 -0.375 9.613281 C 0.300781 8.867188 2.097656 8.492188 2.921875 8.789062 C 3.671875 9.164062 4.273438 10.664062 4.273438 11.414062 C 4.347656 12.011719 3.972656 12.6875 3.449219 13.0625 C 2.921875 13.4375 1.800781 13.886719 1.199219 13.664062 C 0.375 13.363281 -0.375 12.011719 -0.824219 10.664062 C -1.5 8.339844 -1.722656 2.492188 -0.898438 0.621094 C -0.449219 -0.28125 0.300781 -0.804688 0.898438 -0.953125 C 1.425781 -1.179688 2.097656 -1.179688 2.546875 -0.878906 C 3.222656 -0.429688 4.199219 1.070312 4.121094 1.894531 C 4.046875 2.644531 3.375 3.542969 2.699219 3.84375 C 2.023438 4.21875 0.898438 4.144531 0.226562 3.769531 C -0.375 3.46875 -1.050781 2.492188 -1.050781 1.742188 C -1.050781 0.917969 -0.0742188 -0.578125 0.675781 -0.878906 C 1.347656 -1.179688 2.472656 -0.953125 3.074219 -0.578125 C 3.671875 -0.128906 3.898438 0.621094 4.121094 1.59375 C 4.648438 3.691406 4.871094 11.1875 4.347656 11.339844 C 4.046875 11.414062 2.847656 8.867188 2.921875 8.789062 C 3 8.789062 3.898438 9.613281 4.121094 10.140625 C 4.347656 10.738281 4.421875 11.488281 4.199219 12.011719 C 3.898438 12.613281 3.074219 13.4375 2.398438 13.585938 C 1.800781 13.8125 0.601562 13.511719 0.601562 13.4375 C 0.601562 13.363281 3.074219 12.464844 3.972656 13.214844 C 6.597656 15.6875 5.097656 35.851562 4.949219 44.394531 C 4.796875 50.394531 4.347656 56.015625 3.746094 59.761719 C 3.449219 61.863281 2.699219 62.835938 2.546875 64.710938 C 2.324219 67.035156 3.671875 72.132812 2.921875 72.507812 C 2.398438 72.804688 0.375 70.933594 0.449219 70.558594 C 0.523438 70.332031 1.648438 70.40625 2.699219 70.40625 C 4.871094 70.480469 9.070312 71.53125 13.117188 71.90625 C 18.664062 72.355469 26.160156 72.730469 33.058594 72.429688 C 40.628906 72.132812 52.546875 70.03125 56.667969 69.882812 C 58.167969 69.808594 58.769531 69.734375 59.667969 69.957031 C 60.566406 70.109375 60.941406 70.78125 61.992188 71.007812 C 64.164062 71.457031 70.164062 70.109375 72.261719 70.480469 C 73.234375 70.707031 73.3125 71.308594 74.359375 71.53125 C 77.058594 72.132812 84.03125 71.53125 89.503906 71.230469 C 95.875 70.933594 103.96875 69.882812 110.191406 69.734375 C 115.289062 69.582031 120.234375 70.558594 124.058594 70.109375 C 126.90625 69.734375 129.53125 68.082031 131.328125 68.234375 C 132.378906 68.308594 132.679688 69.058594 133.878906 69.28125 C 136.050781 69.734375 141.675781 68.683594 143.699219 69.582031 C 144.824219 70.109375 145.796875 71.90625 145.796875 71.90625 C 145.796875 71.90625 143.773438 70.480469 143.921875 69.957031 C 144.296875 69.058594 151.34375 68.683594 154.191406 68.832031 C 156.292969 68.984375 157.339844 69.734375 159.441406 69.957031 C 162.886719 70.40625 168.511719 70.558594 172.632812 70.332031 C 176.378906 70.183594 180.355469 69.132812 183.277344 69.132812 C 185.226562 69.207031 185.976562 69.734375 188.375 69.882812 C 193.921875 70.332031 211.6875 69.734375 216.109375 70.109375 C 217.535156 70.183594 218.132812 70.183594 218.882812 70.558594 C 219.558594 70.855469 220.605469 71.53125 220.605469 72.054688 C 220.605469 72.65625 219.109375 74.003906 218.882812 73.855469 C 218.582031 73.707031 219.78125 71.53125 220.082031 69.28125 C 220.757812 63.4375 219.183594 46.046875 219.632812 37.425781 C 220.007812 31.429688 221.804688 25.957031 221.65625 22.433594 C 221.582031 20.410156 220.605469 19.585938 220.605469 17.785156 C 220.605469 15.613281 222.179688 12.464844 222.480469 10.066406 C 222.707031 8.191406 223.605469 6.242188 222.40625 4.890625 C 219.632812 1.96875 205.316406 2.945312 195.570312 2.867188 C 183.953125 2.867188 168.734375 5.34375 157.265625 5.492188 C 147.820312 5.566406 141.300781 4.367188 131.554688 4.292969 C 118.4375 4.21875 97.746094 5.492188 85.679688 5.640625 C 77.734375 5.792969 72.1875 5.941406 66.039062 5.640625 C 60.492188 5.417969 56.59375 4.441406 50.375 4.144531 C 41.003906 3.769531 24.660156 4.890625 15.515625 4.667969 C 9.519531 4.519531 2.773438 5.117188 0.675781 3.769531 C -0.226562 3.167969 -0.523438 2.117188 -0.523438 1.445312 C -0.523438 0.917969 -0.148438 0.320312 0.226562 0.0195312 C 0.601562 -0.355469 1.722656 -0.578125 1.722656 -0.578125 " clip-rule="nonzero"/></clipPath><clipPath id="7390b10877"><path d="M 15.367188 41.324219 L 16.816406 41.324219 L 16.816406 42.519531 L 15.367188 42.519531 Z M 15.367188 41.324219 " clip-rule="nonzero"/></clipPath><clipPath id="ff76c476f8"><path d="M 16.792969 41.773438 C 16.191406 42.746094 15.589844 42.523438 15.441406 42.371094 C 15.292969 42.148438 15.441406 41.546875 15.589844 41.398438 C 15.816406 41.246094 16.640625 41.398438 16.640625 41.398438 " clip-rule="nonzero"/></clipPath><clipPath id="c5e6cab6c3"><path d="M 20.152344 33 L 21.691406 33 L 21.691406 34.527344 L 20.152344 34.527344 Z M 20.152344 33 " clip-rule="nonzero"/></clipPath><clipPath id="97704b7b0d"><path d="M 20.914062 33.003906 C 21.511719 34.277344 20.613281 34.5 20.390625 34.277344 C 20.238281 34.125 20.390625 33.152344 20.613281 33.078125 C 20.839844 33.003906 21.664062 33.453125 21.664062 33.753906 C 21.738281 33.976562 21.214844 34.5 20.914062 34.5 C 20.6875 34.5 20.164062 34.125 20.164062 33.902344 C 20.164062 33.601562 20.914062 33.003906 20.914062 33.003906 " clip-rule="nonzero"/></clipPath><clipPath id="5d12f887cc"><path d="M 24.050781 45.554688 L 25.5 45.554688 L 25.5 46.945312 L 24.050781 46.945312 Z M 24.050781 45.554688 " clip-rule="nonzero"/></clipPath><clipPath id="4b378a9d43"><path d="M 25.488281 45.820312 C 24.738281 47.019531 24.0625 46.34375 24.0625 46.121094 C 24.136719 45.894531 25.035156 45.445312 25.261719 45.59375 C 25.410156 45.746094 25.488281 46.644531 25.261719 46.871094 C 25.113281 47.019531 24.363281 46.871094 24.210938 46.644531 C 24.0625 46.421875 24.0625 45.820312 24.285156 45.671875 C 24.4375 45.445312 25.410156 45.671875 25.410156 45.671875 " clip-rule="nonzero"/></clipPath><clipPath id="5db0cb937c"><path d="M 48.410156 13.441406 L 49.789062 13.441406 L 49.789062 14.820312 L 48.410156 14.820312 Z M 48.410156 13.441406 " clip-rule="nonzero"/></clipPath><clipPath id="c2ec4205ac"><path d="M 48.574219 13.511719 C 49.847656 13.960938 49.398438 14.789062 49.097656 14.789062 C 48.875 14.863281 48.347656 14.039062 48.425781 13.8125 C 48.5 13.585938 49.398438 13.363281 49.625 13.511719 C 49.773438 13.664062 49.847656 14.414062 49.625 14.5625 C 49.472656 14.789062 48.722656 14.789062 48.5 14.5625 C 48.347656 14.414062 48.5 13.585938 48.5 13.585938 " clip-rule="nonzero"/></clipPath><clipPath id="d87d9953f6"><path d="M 71.621094 14.101562 L 73.097656 14.101562 L 73.097656 15.578125 L 71.621094 15.578125 Z M 71.621094 14.101562 " clip-rule="nonzero"/></clipPath><clipPath id="6081508931"><path d="M 72.710938 14.1875 C 72.710938 15.613281 71.8125 15.386719 71.738281 15.160156 C 71.585938 14.9375 72.1875 14.113281 72.410156 14.113281 C 72.636719 14.113281 73.160156 14.9375 73.085938 15.160156 C 73.011719 15.386719 72.335938 15.6875 72.035156 15.535156 C 71.8125 15.460938 71.585938 14.863281 71.660156 14.636719 C 71.738281 14.414062 72.636719 14.1875 72.636719 14.1875 " clip-rule="nonzero"/></clipPath><clipPath id="c6dc572ad3"><path d="M 77.855469 32.78125 L 79.335938 32.78125 L 79.335938 34 L 77.855469 34 Z M 77.855469 32.78125 " clip-rule="nonzero"/></clipPath><clipPath id="7ffc82caaf"><path d="M 79.308594 33.226562 C 78.632812 34.203125 78.035156 34.050781 77.957031 33.828125 C 77.808594 33.601562 77.882812 33.003906 78.109375 32.851562 C 78.332031 32.703125 79.082031 32.851562 79.082031 32.851562 " clip-rule="nonzero"/></clipPath><clipPath id="9b0a40d4d4"><path d="M 84.839844 52.476562 L 86.1875 52.476562 L 86.1875 53.882812 L 84.839844 53.882812 Z M 84.839844 52.476562 " clip-rule="nonzero"/></clipPath><clipPath id="0a2b3f44f7"><path d="M 86.128906 52.640625 C 85.679688 53.992188 84.855469 53.464844 84.855469 53.242188 C 84.855469 53.015625 85.605469 52.417969 85.828125 52.492188 C 86.054688 52.566406 86.277344 53.542969 86.128906 53.691406 C 85.980469 53.917969 85.230469 53.917969 85.078125 53.765625 C 84.855469 53.542969 84.855469 52.792969 85.078125 52.640625 C 85.230469 52.417969 86.054688 52.640625 86.054688 52.640625 " clip-rule="nonzero"/></clipPath><clipPath id="31e0785f6a"><path d="M 86.640625 33.289062 L 88.179688 33.289062 L 88.179688 34.828125 L 86.640625 34.828125 Z M 86.640625 33.289062 " clip-rule="nonzero"/></clipPath><clipPath id="06c551c543"><path d="M 87.402344 33.300781 C 88.078125 34.578125 87.101562 34.726562 86.953125 34.578125 C 86.730469 34.425781 86.878906 33.453125 87.101562 33.378906 C 87.328125 33.300781 88.152344 33.753906 88.152344 34.050781 C 88.226562 34.277344 87.703125 34.800781 87.402344 34.800781 C 87.179688 34.800781 86.652344 34.425781 86.652344 34.203125 C 86.652344 33.902344 87.328125 33.300781 87.328125 33.300781 " clip-rule="nonzero"/></clipPath><clipPath id="0c9f8d05b9"><path d="M 94.433594 13.648438 L 95.871094 13.648438 L 95.871094 14.996094 L 94.433594 14.996094 Z M 94.433594 13.648438 " clip-rule="nonzero"/></clipPath><clipPath id="366bcee6af"><path d="M 95.722656 13.8125 C 95.273438 15.085938 94.449219 14.5625 94.449219 14.335938 C 94.449219 14.113281 95.273438 13.585938 95.5 13.664062 C 95.722656 13.738281 95.949219 14.636719 95.800781 14.863281 C 95.648438 15.011719 94.898438 15.011719 94.675781 14.863281 C 94.523438 14.710938 94.449219 14.039062 94.597656 13.886719 C 94.75 13.664062 95.722656 13.8125 95.722656 13.8125 " clip-rule="nonzero"/></clipPath><clipPath id="137f8e08fd"><path d="M 116.597656 13.574219 L 118.074219 13.574219 L 118.074219 15.054688 L 116.597656 15.054688 Z M 116.597656 13.574219 " clip-rule="nonzero"/></clipPath><clipPath id="c7b076fe10"><path d="M 117.6875 13.664062 C 117.6875 15.011719 116.710938 14.789062 116.636719 14.5625 C 116.5625 14.335938 117.164062 13.585938 117.386719 13.585938 C 117.613281 13.585938 118.136719 14.414062 118.0625 14.636719 C 117.988281 14.863281 117.238281 15.085938 117.011719 15.011719 C 116.789062 14.863281 116.5625 14.113281 116.636719 13.886719 C 116.789062 13.738281 117.613281 13.585938 117.613281 13.585938 " clip-rule="nonzero"/></clipPath><clipPath id="b386a689b8"><path d="M 141.214844 25.871094 L 142.75 25.871094 L 142.75 27.464844 L 141.214844 27.464844 Z M 141.214844 25.871094 " clip-rule="nonzero"/></clipPath><clipPath id="152fbb6398"><path d="M 142.722656 26.707031 C 141.523438 27.304688 141.300781 26.332031 141.449219 26.179688 C 141.597656 26.03125 142.574219 26.179688 142.722656 26.40625 C 142.796875 26.628906 142.273438 27.457031 142.050781 27.457031 C 141.824219 27.457031 141.226562 26.929688 141.226562 26.707031 C 141.226562 26.480469 141.824219 25.882812 142.050781 25.882812 C 142.273438 25.882812 142.722656 26.628906 142.722656 26.628906 " clip-rule="nonzero"/></clipPath><clipPath id="03bbbe894c"><path d="M 126.636719 46.351562 L 127.941406 46.351562 L 127.941406 47.828125 L 126.636719 47.828125 Z M 126.636719 46.351562 " clip-rule="nonzero"/></clipPath><clipPath id="da7a8ff332"><path d="M 127.582031 47.769531 C 126.382812 47.320312 126.757812 46.496094 126.980469 46.421875 C 127.207031 46.34375 127.957031 47.019531 127.882812 47.246094 C 127.882812 47.542969 126.90625 47.917969 126.757812 47.769531 C 126.609375 47.695312 126.609375 46.570312 126.832031 46.421875 C 127.058594 46.269531 127.65625 46.421875 127.882812 46.570312 C 128.03125 46.796875 127.808594 47.621094 127.808594 47.621094 " clip-rule="nonzero"/></clipPath><clipPath id="eebcf13731"><path d="M 90.691406 64.097656 L 92.226562 64.097656 L 92.226562 65.636719 L 90.691406 65.636719 Z M 90.691406 64.097656 " clip-rule="nonzero"/></clipPath><clipPath id="1be2a8b734"><path d="M 92.199219 64.859375 C 90.925781 65.460938 90.703125 64.5625 90.851562 64.335938 C 91.078125 64.1875 92.050781 64.335938 92.125 64.5625 C 92.199219 64.785156 91.75 65.609375 91.453125 65.609375 C 91.226562 65.683594 90.703125 65.160156 90.703125 64.859375 C 90.625 64.636719 91 64.109375 91.300781 64.109375 C 91.527344 64.035156 92.199219 64.785156 92.199219 64.785156 " clip-rule="nonzero"/></clipPath><clipPath id="6e5f060b84"><path d="M 52.683594 60.722656 L 54.117188 60.722656 L 54.117188 62.128906 L 52.683594 62.128906 Z M 52.683594 60.722656 " clip-rule="nonzero"/></clipPath><clipPath id="c88dbe21b2"><path d="M 53.972656 60.886719 C 53.519531 62.238281 52.695312 61.710938 52.695312 61.488281 C 52.695312 61.261719 53.519531 60.664062 53.746094 60.738281 C 53.972656 60.8125 54.195312 61.785156 54.046875 61.9375 C 53.894531 62.160156 53.148438 62.160156 52.921875 62.011719 C 52.773438 61.785156 52.695312 61.039062 52.921875 60.886719 C 53.070312 60.664062 53.894531 60.8125 53.894531 60.8125 " clip-rule="nonzero"/></clipPath><clipPath id="bd3008e0fa"><path d="M 146.910156 57.953125 L 148.449219 57.953125 L 148.449219 59.492188 L 146.910156 59.492188 Z M 146.910156 57.953125 " clip-rule="nonzero"/></clipPath><clipPath id="fb3ca99998"><path d="M 148.421875 58.714844 C 147.144531 59.3125 146.996094 58.339844 147.144531 58.1875 C 147.296875 58.039062 148.269531 58.1875 148.347656 58.414062 C 148.421875 58.5625 147.972656 59.386719 147.746094 59.464844 C 147.519531 59.464844 146.921875 58.9375 146.921875 58.714844 C 146.921875 58.414062 147.296875 57.964844 147.597656 57.964844 C 147.820312 57.890625 148.421875 58.640625 148.421875 58.640625 " clip-rule="nonzero"/></clipPath><clipPath id="4fc299f9bb"><path d="M 145.875 33.304688 L 147.324219 33.304688 L 147.324219 34.582031 L 145.875 34.582031 Z M 145.875 33.304688 " clip-rule="nonzero"/></clipPath><clipPath id="c6330d2295"><path d="M 147.296875 33.753906 C 146.621094 34.800781 146.097656 34.578125 145.945312 34.425781 C 145.796875 34.203125 145.945312 33.601562 146.097656 33.378906 C 146.320312 33.226562 147.070312 33.453125 147.070312 33.453125 " clip-rule="nonzero"/></clipPath><clipPath id="fb1723fd04"><path d="M 144.886719 13.875 L 146.425781 13.875 L 146.425781 15.414062 L 144.886719 15.414062 Z M 144.886719 13.875 " clip-rule="nonzero"/></clipPath><clipPath id="d4a173d1ec"><path d="M 145.648438 15.386719 C 145.046875 14.113281 146.023438 13.886719 146.171875 14.113281 C 146.320312 14.261719 146.171875 15.238281 146.023438 15.3125 C 145.796875 15.386719 144.972656 14.9375 144.898438 14.636719 C 144.898438 14.414062 145.421875 13.886719 145.648438 13.886719 C 145.945312 13.886719 146.398438 14.261719 146.398438 14.488281 C 146.472656 14.789062 145.722656 15.386719 145.722656 15.386719 " clip-rule="nonzero"/></clipPath><clipPath id="8072f87f57"><path d="M 132.292969 13.652344 L 133.832031 13.652344 L 133.832031 15.1875 L 132.292969 15.1875 Z M 132.292969 13.652344 " clip-rule="nonzero"/></clipPath><clipPath id="33b7cff0c4"><path d="M 133.804688 14.414062 C 132.527344 15.011719 132.304688 14.113281 132.527344 13.886719 C 132.679688 13.738281 133.652344 13.886719 133.730469 14.113281 C 133.804688 14.335938 133.355469 15.160156 133.054688 15.160156 C 132.828125 15.238281 132.304688 14.710938 132.304688 14.414062 C 132.304688 14.1875 132.828125 13.664062 133.128906 13.664062 C 133.355469 13.664062 133.804688 14.414062 133.804688 14.414062 " clip-rule="nonzero"/></clipPath><clipPath id="e104ae8a07"><path d="M 178.914062 13.796875 L 180.351562 13.796875 L 180.351562 15.203125 L 178.914062 15.203125 Z M 178.914062 13.796875 " clip-rule="nonzero"/></clipPath><clipPath id="af2c779c31"><path d="M 180.203125 13.960938 C 179.753906 15.3125 178.929688 14.789062 178.929688 14.5625 C 178.929688 14.335938 179.753906 13.738281 179.980469 13.8125 C 180.203125 13.886719 180.429688 14.863281 180.277344 15.011719 C 180.128906 15.238281 179.378906 15.238281 179.15625 15.085938 C 179.003906 14.863281 179.003906 14.113281 179.230469 13.960938 C 179.378906 13.738281 180.203125 13.960938 180.203125 13.960938 " clip-rule="nonzero"/></clipPath><clipPath id="c32c4ca8ed"><path d="M 167.597656 31.417969 L 169.136719 31.417969 L 169.136719 33.015625 L 167.597656 33.015625 Z M 167.597656 31.417969 " clip-rule="nonzero"/></clipPath><clipPath id="8eefa89a3d"><path d="M 169.109375 32.253906 C 167.910156 32.851562 167.683594 31.878906 167.835938 31.726562 C 167.984375 31.578125 168.960938 31.726562 169.035156 31.953125 C 169.183594 32.179688 168.660156 33.003906 168.433594 33.003906 C 168.210938 33.078125 167.609375 32.550781 167.609375 32.253906 C 167.609375 32.027344 168.136719 31.429688 168.433594 31.429688 C 168.660156 31.429688 169.109375 32.101562 169.109375 32.101562 " clip-rule="nonzero"/></clipPath><clipPath id="aa101cf901"><path d="M 167.234375 10.652344 L 168.597656 10.652344 L 168.597656 12.015625 L 167.234375 12.015625 Z M 167.234375 10.652344 " clip-rule="nonzero"/></clipPath><clipPath id="45e865ca1e"><path d="M 168.359375 12.011719 C 167.160156 11.339844 167.835938 10.664062 168.058594 10.664062 C 168.285156 10.738281 168.660156 11.640625 168.585938 11.789062 C 168.433594 12.011719 167.460938 12.089844 167.3125 11.863281 C 167.160156 11.714844 167.3125 10.964844 167.535156 10.8125 C 167.683594 10.589844 168.359375 10.664062 168.511719 10.8125 C 168.660156 11.039062 168.511719 11.9375 168.511719 11.9375 " clip-rule="nonzero"/></clipPath><clipPath id="e73622680a"><path d="M 184.210938 27.339844 L 185.703125 27.339844 L 185.703125 28.832031 L 184.210938 28.832031 Z M 184.210938 27.339844 " clip-rule="nonzero"/></clipPath><clipPath id="d4e2fed4a0"><path d="M 185.675781 27.832031 C 184.703125 28.804688 184.175781 27.980469 184.328125 27.753906 C 184.402344 27.53125 185.375 27.378906 185.527344 27.605469 C 185.675781 27.753906 185.527344 28.65625 185.300781 28.804688 C 185.078125 28.878906 184.402344 28.578125 184.25 28.355469 C 184.175781 28.128906 184.402344 27.457031 184.625 27.378906 C 184.851562 27.230469 185.675781 27.753906 185.675781 27.753906 " clip-rule="nonzero"/></clipPath><clipPath id="705146e7be"><path d="M 190.011719 8.628906 L 191.550781 8.628906 L 191.550781 10.167969 L 190.011719 10.167969 Z M 190.011719 8.628906 " clip-rule="nonzero"/></clipPath><clipPath id="a008c0ebb0"><path d="M 190.773438 8.640625 C 191.371094 9.839844 190.472656 10.066406 190.25 9.914062 C 190.097656 9.765625 190.25 8.789062 190.472656 8.714844 C 190.699219 8.566406 191.523438 9.089844 191.523438 9.316406 C 191.597656 9.539062 191.074219 10.140625 190.773438 10.140625 C 190.546875 10.140625 190.023438 9.613281 190.023438 9.316406 C 190.023438 9.089844 190.699219 8.640625 190.699219 8.640625 " clip-rule="nonzero"/></clipPath><clipPath id="fe05d95d93"><path d="M 210.023438 27.667969 L 211.429688 27.667969 L 211.429688 29.042969 L 210.023438 29.042969 Z M 210.023438 27.667969 " clip-rule="nonzero"/></clipPath><clipPath id="7b22be89bd"><path d="M 211.3125 27.832031 C 210.863281 29.179688 210.039062 28.65625 210.039062 28.429688 C 210.039062 28.128906 210.863281 27.605469 211.085938 27.679688 C 211.238281 27.753906 211.539062 28.65625 211.386719 28.878906 C 211.238281 29.03125 210.488281 29.105469 210.261719 28.878906 C 210.113281 28.730469 210.039062 28.128906 210.1875 27.90625 C 210.335938 27.679688 211.3125 27.832031 211.3125 27.832031 " clip-rule="nonzero"/></clipPath><clipPath id="6153b42645"><path d="M 202.351562 42.058594 L 203.828125 42.058594 L 203.828125 43.597656 L 202.351562 43.597656 Z M 202.351562 42.058594 " clip-rule="nonzero"/></clipPath><clipPath id="a106d86bb7"><path d="M 203.742188 43.195312 C 202.390625 43.195312 202.617188 42.222656 202.839844 42.148438 C 203.066406 42.074219 203.816406 42.671875 203.816406 42.898438 C 203.816406 43.121094 202.992188 43.648438 202.765625 43.570312 C 202.542969 43.496094 202.316406 42.746094 202.390625 42.523438 C 202.542969 42.296875 203.066406 41.996094 203.292969 42.074219 C 203.589844 42.148438 203.816406 43.121094 203.816406 43.121094 " clip-rule="nonzero"/></clipPath><clipPath id="2e20e007d8"><path d="M 205.828125 22.089844 L 207.304688 22.089844 L 207.304688 23.570312 L 205.828125 23.570312 Z M 205.828125 22.089844 " clip-rule="nonzero"/></clipPath><clipPath id="43d9f5e457"><path d="M 206.214844 23.484375 C 206.214844 22.058594 207.1875 22.28125 207.265625 22.507812 C 207.339844 22.734375 206.738281 23.558594 206.515625 23.558594 C 206.289062 23.558594 205.765625 22.734375 205.839844 22.507812 C 205.914062 22.28125 206.664062 21.984375 206.890625 22.132812 C 207.113281 22.207031 207.339844 22.957031 207.265625 23.183594 C 207.113281 23.40625 206.289062 23.484375 206.289062 23.484375 " clip-rule="nonzero"/></clipPath><clipPath id="afad3b4d12"><path d="M 210.097656 43.40625 L 211.449219 43.40625 L 211.449219 44.8125 L 210.097656 44.8125 Z M 210.097656 43.40625 " clip-rule="nonzero"/></clipPath><clipPath id="dca48198bd"><path d="M 211.386719 43.648438 C 210.9375 44.921875 210.113281 44.394531 210.113281 44.171875 C 210.113281 43.945312 210.9375 43.347656 211.085938 43.421875 C 211.3125 43.496094 211.535156 44.472656 211.386719 44.621094 C 211.3125 44.847656 210.5625 44.847656 210.335938 44.695312 C 210.113281 44.546875 210.113281 43.871094 210.261719 43.722656 C 210.414062 43.496094 211.386719 43.570312 211.386719 43.570312 " clip-rule="nonzero"/></clipPath><clipPath id="8f4f2e3e9b"><path d="M 194.96875 58.523438 L 196.449219 58.523438 L 196.449219 59.914062 L 194.96875 59.914062 Z M 194.96875 58.523438 " clip-rule="nonzero"/></clipPath><clipPath id="56b49a5b0f"><path d="M 196.019531 59.914062 C 194.894531 59.089844 195.644531 58.488281 195.871094 58.5625 C 196.09375 58.640625 196.394531 59.539062 196.246094 59.761719 C 196.09375 59.914062 195.121094 59.839844 195.046875 59.613281 C 194.894531 59.464844 195.121094 58.714844 195.347656 58.5625 C 195.570312 58.488281 196.320312 58.714844 196.394531 58.9375 C 196.546875 59.164062 196.09375 59.914062 196.09375 59.914062 " clip-rule="nonzero"/></clipPath><clipPath id="9087f72000"><path d="M 175.019531 62.300781 L 176.617188 62.300781 L 176.617188 63.839844 L 175.019531 63.839844 Z M 175.019531 62.300781 " clip-rule="nonzero"/></clipPath><clipPath id="6da224429e"><path d="M 175.855469 62.3125 C 176.53125 63.585938 175.554688 63.8125 175.40625 63.660156 C 175.179688 63.511719 175.332031 62.535156 175.554688 62.386719 C 175.78125 62.3125 176.605469 62.761719 176.605469 63.0625 C 176.679688 63.285156 176.15625 63.8125 175.855469 63.8125 C 175.632812 63.8125 175.105469 63.285156 175.03125 63.0625 C 175.03125 62.835938 175.78125 62.3125 175.78125 62.3125 " clip-rule="nonzero"/></clipPath><clipPath id="f494f64244"><path d="M 158.078125 67.023438 L 159.601562 67.023438 L 159.601562 68.546875 L 158.078125 68.546875 Z M 158.078125 67.023438 " clip-rule="nonzero"/></clipPath><clipPath id="a1098a253f"><path d="M 158.617188 68.457031 C 158.390625 67.109375 159.363281 67.183594 159.515625 67.410156 C 159.589844 67.632812 159.140625 68.535156 158.914062 68.535156 C 158.691406 68.535156 158.089844 67.859375 158.089844 67.558594 C 158.164062 67.335938 158.839844 66.960938 159.066406 67.035156 C 159.363281 67.109375 159.664062 67.785156 159.589844 68.082031 C 159.515625 68.308594 158.765625 68.535156 158.765625 68.535156 " clip-rule="nonzero"/></clipPath><clipPath id="670d94fed3"><path d="M 151.523438 48.445312 L 152.945312 48.445312 L 152.945312 49.667969 L 151.523438 49.667969 Z M 151.523438 48.445312 " clip-rule="nonzero"/></clipPath><clipPath id="d173443b5f"><path d="M 152.917969 48.894531 C 152.320312 49.867188 151.71875 49.71875 151.570312 49.492188 C 151.496094 49.269531 151.570312 48.667969 151.792969 48.519531 C 151.945312 48.371094 152.769531 48.59375 152.769531 48.59375 " clip-rule="nonzero"/></clipPath><clipPath id="a5e34d489c"><path d="M 142.203125 44.890625 L 143.636719 44.890625 L 143.636719 46.296875 L 142.203125 46.296875 Z M 142.203125 44.890625 " clip-rule="nonzero"/></clipPath><clipPath id="8a7c769165"><path d="M 142.347656 46.121094 C 142.796875 44.769531 143.625 45.296875 143.625 45.519531 C 143.625 45.746094 142.796875 46.34375 142.574219 46.269531 C 142.347656 46.195312 142.125 45.222656 142.273438 45.070312 C 142.425781 44.847656 143.171875 44.847656 143.398438 44.996094 C 143.546875 45.222656 143.546875 45.96875 143.324219 46.121094 C 143.171875 46.34375 142.347656 46.121094 142.347656 46.121094 " clip-rule="nonzero"/></clipPath><clipPath id="b29e78c1a2"><path d="M 139.128906 63.4375 L 140.578125 63.4375 L 140.578125 64.6875 L 139.128906 64.6875 Z M 139.128906 63.4375 " clip-rule="nonzero"/></clipPath><clipPath id="75c7364c01"><path d="M 140.550781 63.886719 C 139.949219 64.933594 139.351562 64.710938 139.199219 64.484375 C 139.050781 64.335938 139.199219 63.660156 139.351562 63.511719 C 139.574219 63.359375 140.398438 63.585938 140.398438 63.585938 " clip-rule="nonzero"/></clipPath><clipPath id="ff8f1eef15"><path d="M 93.925781 45.597656 L 95.375 45.597656 L 95.375 46.847656 L 93.925781 46.847656 Z M 93.925781 45.597656 " clip-rule="nonzero"/></clipPath><clipPath id="40e9f8c2c8"><path d="M 95.347656 46.046875 C 94.75 47.09375 94.148438 46.871094 94 46.644531 C 93.851562 46.496094 94 45.820312 94.148438 45.671875 C 94.375 45.519531 95.199219 45.746094 95.199219 45.746094 " clip-rule="nonzero"/></clipPath><clipPath id="58505a3aad"><path d="M 84.917969 22.898438 L 86.382812 22.898438 L 86.382812 24.480469 L 84.917969 24.480469 Z M 84.917969 22.898438 " clip-rule="nonzero"/></clipPath><clipPath id="677a457780"><path d="M 84.929688 23.855469 C 85.902344 22.882812 86.429688 23.78125 86.277344 23.933594 C 86.203125 24.15625 85.230469 24.308594 85.078125 24.15625 C 84.929688 24.007812 85.078125 23.03125 85.304688 22.957031 C 85.53125 22.808594 86.203125 23.183594 86.355469 23.40625 C 86.429688 23.632812 86.128906 24.308594 85.828125 24.457031 C 85.605469 24.53125 84.929688 24.007812 84.929688 24.007812 " clip-rule="nonzero"/></clipPath><clipPath id="ecf0633208"><path d="M 52.984375 9.679688 L 54.449219 9.679688 L 54.449219 11.230469 L 52.984375 11.230469 Z M 52.984375 9.679688 " clip-rule="nonzero"/></clipPath><clipPath id="1fb34e0c4f"><path d="M 53.070312 10.066406 C 54.496094 10.066406 54.269531 11.039062 54.046875 11.113281 C 53.820312 11.1875 52.996094 10.589844 52.996094 10.363281 C 52.996094 10.140625 53.820312 9.613281 54.046875 9.691406 C 54.269531 9.765625 54.496094 10.515625 54.421875 10.738281 C 54.347656 10.964844 53.746094 11.265625 53.519531 11.1875 C 53.296875 11.113281 53.070312 10.140625 53.070312 10.140625 " clip-rule="nonzero"/></clipPath><clipPath id="327ed389a9"><path d="M 11.859375 52.101562 L 13.207031 52.101562 L 13.207031 53.453125 L 11.859375 53.453125 Z M 11.859375 52.101562 " clip-rule="nonzero"/></clipPath><clipPath id="c533e80b37"><path d="M 13.042969 53.390625 C 11.695312 52.941406 12.292969 52.117188 12.519531 52.117188 C 12.742188 52.117188 13.269531 52.941406 13.191406 53.167969 C 13.117188 53.316406 12.21875 53.542969 11.992188 53.390625 C 11.84375 53.242188 11.84375 52.492188 11.992188 52.34375 C 12.144531 52.117188 12.816406 52.117188 12.96875 52.265625 C 13.191406 52.417969 13.042969 53.390625 13.042969 53.390625 " clip-rule="nonzero"/></clipPath></defs><g clip-path="url(#ad26a85171)"><g clip-path="url(#5f63cf35b7)"><path fill="#fffb47" d="M 31.632812 15.085938 L 84.480469 15.085938 L 84.480469 71.03125 L 31.632812 71.03125 Z M 31.632812 15.085938 " fill-opacity="1" fill-rule="nonzero"/></g></g><g clip-path="url(#144466e243)"><g clip-path="url(#c32dcdfaa0)"><path fill="#fffb47" d="M 93.25 15.6875 L 136.425781 15.6875 L 136.425781 68.816406 L 93.25 68.816406 Z M 93.25 15.6875 " fill-opacity="1" fill-rule="nonzero"/></g></g><g clip-path="url(#142293f4ee)"><g clip-path="url(#ca7bab0ef7)"><path fill="#fffb47" d="M 151.570312 14.488281 L 202.617188 14.488281 L 202.617188 67.128906 L 151.570312 67.128906 Z M 151.570312 14.488281 " fill-opacity="1" fill-rule="nonzero"/></g></g><g clip-path="url(#b60ddfc19d)"><g clip-path="url(#0af125668e)"><path fill="#fffb47" d="M 200.519531 -1.554688 L 221.078125 -1.554688 L 221.078125 16.285156 L 200.519531 16.285156 Z M 200.519531 -1.554688 " fill-opacity="1" fill-rule="nonzero"/></g></g><g clip-path="url(#4e129a4d80)"><g clip-path="url(#1025426ba6)"><path fill="#fffb47" d="M 197.894531 -1.179688 L 220.851562 -1.179688 L 220.851562 19.808594 L 197.894531 19.808594 Z M 197.894531 -1.179688 " fill-opacity="1" fill-rule="nonzero"/></g></g><g clip-path="url(#4e80aae478)"><g clip-path="url(#7d854585db)"><path fill="#fffb47" d="M 9.820312 1.894531 L 30.734375 1.894531 L 30.734375 24.359375 L 9.820312 24.359375 Z M 9.820312 1.894531 " fill-opacity="1" fill-rule="nonzero"/></g></g><g clip-path="url(#226cdd65a9)"><g clip-path="url(#cac936476d)"><path fill="#fffb47" d="M 8.996094 1.519531 L 36.585938 1.519531 L 36.585938 24.15625 L 8.996094 24.15625 Z M 8.996094 1.519531 " fill-opacity="1" fill-rule="nonzero"/></g></g><g clip-path="url(#7ad716d5d3)"><g clip-path="url(#bfbd104cb5)"><path fill="#fffb47" d="M 8.019531 56.464844 L 30.730469 56.464844 L 30.730469 77.378906 L 8.019531 77.378906 Z M 8.019531 56.464844 " fill-opacity="1" fill-rule="nonzero"/></g></g><g clip-path="url(#69f62de867)"><g clip-path="url(#7d08d1d089)"><path fill="#fffb47" d="M 6.746094 55.191406 L 29.683594 55.191406 L 29.683594 77.605469 L 6.746094 77.605469 Z M 6.746094 55.191406 " fill-opacity="1" fill-rule="nonzero"/></g></g><g clip-path="url(#0ce92a49cb)"><g clip-path="url(#57e628305e)"><path fill="#fffb47" d="M 199.09375 50.316406 L 222.722656 50.316406 L 222.722656 73.40625 L 199.09375 73.40625 Z M 199.09375 50.316406 " fill-opacity="1" fill-rule="nonzero"/></g></g><g clip-path="url(#dfe0a3d8c3)"><g clip-path="url(#7debb97268)"><rect x="-22.487999" width="269.855988" fill="#1e1e1e" y="-7.5" height="89.999996" fill-opacity="1"/></g></g><g clip-path="url(#7390b10877)"><g clip-path="url(#ff76c476f8)"><path fill="#fffb47" d="M 12.441406 38.398438 L 19.855469 38.398438 L 19.855469 45.671875 L 12.441406 45.671875 Z M 12.441406 38.398438 " fill-opacity="1" fill-rule="nonzero"/></g></g><g clip-path="url(#c5e6cab6c3)"><g clip-path="url(#97704b7b0d)"><path fill="#fffb47" d="M 17.164062 30.003906 L 24.738281 30.003906 L 24.738281 37.574219 L 17.164062 37.574219 Z M 17.164062 30.003906 " fill-opacity="1" fill-rule="nonzero"/></g></g><g clip-path="url(#5d12f887cc)"><g clip-path="url(#4b378a9d43)"><path fill="#fffb47" d="M 21.0625 42.597656 L 28.484375 42.597656 L 28.484375 50.019531 L 21.0625 50.019531 Z M 21.0625 42.597656 " fill-opacity="1" fill-rule="nonzero"/></g></g><g clip-path="url(#5db0cb937c)"><g clip-path="url(#c2ec4205ac)"><path fill="#fffb47" d="M 45.425781 10.515625 L 52.859375 10.515625 L 52.859375 17.859375 L 45.425781 17.859375 Z M 45.425781 10.515625 " fill-opacity="1" fill-rule="nonzero"/></g></g><g clip-path="url(#d87d9953f6)"><g clip-path="url(#6081508931)"><path fill="#fffb47" d="M 68.664062 11.113281 L 76.171875 11.113281 L 76.171875 18.535156 L 68.664062 18.535156 Z M 68.664062 11.113281 " fill-opacity="1" fill-rule="nonzero"/></g></g><g clip-path="url(#c6dc572ad3)"><g clip-path="url(#7ffc82caaf)"><path fill="#fffb47" d="M 74.960938 29.855469 L 82.375 29.855469 L 82.375 37.125 L 74.960938 37.125 Z M 74.960938 29.855469 " fill-opacity="1" fill-rule="nonzero"/></g></g><g clip-path="url(#9b0a40d4d4)"><g clip-path="url(#0a2b3f44f7)"><path fill="#fffb47" d="M 81.855469 49.492188 L 89.203125 49.492188 L 89.203125 56.925781 L 81.855469 56.925781 Z M 81.855469 49.492188 " fill-opacity="1" fill-rule="nonzero"/></g></g><g clip-path="url(#31e0785f6a)"><g clip-path="url(#06c551c543)"><path fill="#fffb47" d="M 83.65625 30.304688 L 91.226562 30.304688 L 91.226562 37.875 L 83.65625 37.875 Z M 83.65625 30.304688 " fill-opacity="1" fill-rule="nonzero"/></g></g><g clip-path="url(#0c9f8d05b9)"><g clip-path="url(#366bcee6af)"><path fill="#fffb47" d="M 91.453125 10.664062 L 98.796875 10.664062 L 98.796875 18.097656 L 91.453125 18.097656 Z M 91.453125 10.664062 " fill-opacity="1" fill-rule="nonzero"/></g></g><g clip-path="url(#137f8e08fd)"><g clip-path="url(#c7b076fe10)"><path fill="#fffb47" d="M 113.640625 10.589844 L 121.058594 10.589844 L 121.058594 18.011719 L 113.640625 18.011719 Z M 113.640625 10.589844 " fill-opacity="1" fill-rule="nonzero"/></g></g><g clip-path="url(#b386a689b8)"><g clip-path="url(#152fbb6398)"><path fill="#fffb47" d="M 138.226562 22.882812 L 145.796875 22.882812 L 145.796875 30.453125 L 138.226562 30.453125 Z M 138.226562 22.882812 " fill-opacity="1" fill-rule="nonzero"/></g></g><g clip-path="url(#03bbbe894c)"><g clip-path="url(#da7a8ff332)"><path fill="#fffb47" d="M 123.535156 43.421875 L 130.957031 43.421875 L 130.957031 50.84375 L 123.535156 50.84375 Z M 123.535156 43.421875 " fill-opacity="1" fill-rule="nonzero"/></g></g><g clip-path="url(#eebcf13731)"><g clip-path="url(#1be2a8b734)"><path fill="#fffb47" d="M 87.703125 61.113281 L 95.273438 61.113281 L 95.273438 68.683594 L 87.703125 68.683594 Z M 87.703125 61.113281 " fill-opacity="1" fill-rule="nonzero"/></g></g><g clip-path="url(#6e5f060b84)"><g clip-path="url(#c88dbe21b2)"><path fill="#fffb47" d="M 49.699219 57.738281 L 57.042969 57.738281 L 57.042969 65.171875 L 49.699219 65.171875 Z M 49.699219 57.738281 " fill-opacity="1" fill-rule="nonzero"/></g></g><g clip-path="url(#bd3008e0fa)"><g clip-path="url(#fb3ca99998)"><path fill="#fffb47" d="M 143.921875 54.964844 L 151.496094 54.964844 L 151.496094 62.535156 L 143.921875 62.535156 Z M 143.921875 54.964844 " fill-opacity="1" fill-rule="nonzero"/></g></g><g clip-path="url(#4fc299f9bb)"><g clip-path="url(#c6330d2295)"><path fill="#fffb47" d="M 142.949219 30.378906 L 150.363281 30.378906 L 150.363281 37.648438 L 142.949219 37.648438 Z M 142.949219 30.378906 " fill-opacity="1" fill-rule="nonzero"/></g></g><g clip-path="url(#fb1723fd04)"><g clip-path="url(#d4a173d1ec)"><path fill="#fffb47" d="M 141.898438 10.890625 L 149.46875 10.890625 L 149.46875 18.460938 L 141.898438 18.460938 Z M 141.898438 10.890625 " fill-opacity="1" fill-rule="nonzero"/></g></g><g clip-path="url(#8072f87f57)"><g clip-path="url(#33b7cff0c4)"><path fill="#fffb47" d="M 129.304688 10.664062 L 136.875 10.664062 L 136.875 18.234375 L 129.304688 18.234375 Z M 129.304688 10.664062 " fill-opacity="1" fill-rule="nonzero"/></g></g><g clip-path="url(#e104ae8a07)"><g clip-path="url(#af2c779c31)"><path fill="#fffb47" d="M 175.929688 10.8125 L 183.277344 10.8125 L 183.277344 18.246094 L 175.929688 18.246094 Z M 175.929688 10.8125 " fill-opacity="1" fill-rule="nonzero"/></g></g><g clip-path="url(#c32c4ca8ed)"><g clip-path="url(#8eefa89a3d)"><path fill="#fffb47" d="M 164.613281 28.429688 L 172.183594 28.429688 L 172.183594 36 L 164.613281 36 Z M 164.613281 28.429688 " fill-opacity="1" fill-rule="nonzero"/></g></g><g clip-path="url(#aa101cf901)"><g clip-path="url(#45e865ca1e)"><path fill="#fffb47" d="M 164.164062 7.664062 L 171.582031 7.664062 L 171.582031 15.085938 L 164.164062 15.085938 Z M 164.164062 7.664062 " fill-opacity="1" fill-rule="nonzero"/></g></g><g clip-path="url(#e73622680a)"><g clip-path="url(#d4e2fed4a0)"><path fill="#fffb47" d="M 181.253906 24.382812 L 188.75 24.382812 L 188.75 31.878906 L 181.253906 31.878906 Z M 181.253906 24.382812 " fill-opacity="1" fill-rule="nonzero"/></g></g><g clip-path="url(#705146e7be)"><g clip-path="url(#a008c0ebb0)"><path fill="#fffb47" d="M 187.023438 5.640625 L 194.597656 5.640625 L 194.597656 13.214844 L 187.023438 13.214844 Z M 187.023438 5.640625 " fill-opacity="1" fill-rule="nonzero"/></g></g><g clip-path="url(#fe05d95d93)"><g clip-path="url(#7b22be89bd)"><path fill="#fffb47" d="M 207.039062 24.683594 L 214.386719 24.683594 L 214.386719 32.113281 L 207.039062 32.113281 Z M 207.039062 24.683594 " fill-opacity="1" fill-rule="nonzero"/></g></g><g clip-path="url(#6153b42645)"><g clip-path="url(#a106d86bb7)"><path fill="#fffb47" d="M 199.394531 39.074219 L 206.816406 39.074219 L 206.816406 46.582031 L 199.394531 46.582031 Z M 199.394531 39.074219 " fill-opacity="1" fill-rule="nonzero"/></g></g><g clip-path="url(#2e20e007d8)"><g clip-path="url(#43d9f5e457)"><path fill="#fffb47" d="M 202.839844 19.136719 L 210.261719 19.136719 L 210.261719 26.554688 L 202.839844 26.554688 Z M 202.839844 19.136719 " fill-opacity="1" fill-rule="nonzero"/></g></g><g clip-path="url(#afad3b4d12)"><g clip-path="url(#dca48198bd)"><path fill="#fffb47" d="M 207.113281 40.421875 L 214.460938 40.421875 L 214.460938 47.855469 L 207.113281 47.855469 Z M 207.113281 40.421875 " fill-opacity="1" fill-rule="nonzero"/></g></g><g clip-path="url(#8f4f2e3e9b)"><g clip-path="url(#56b49a5b0f)"><path fill="#fffb47" d="M 191.898438 55.566406 L 199.40625 55.566406 L 199.40625 62.988281 L 191.898438 62.988281 Z M 191.898438 55.566406 " fill-opacity="1" fill-rule="nonzero"/></g></g><g clip-path="url(#9087f72000)"><g clip-path="url(#6da224429e)"><path fill="#fffb47" d="M 172.03125 59.3125 L 179.605469 59.3125 L 179.605469 66.882812 L 172.03125 66.882812 Z M 172.03125 59.3125 " fill-opacity="1" fill-rule="nonzero"/></g></g><g clip-path="url(#f494f64244)"><g clip-path="url(#a1098a253f)"><path fill="#fffb47" d="M 155.09375 64.035156 L 162.675781 64.035156 L 162.675781 71.53125 L 155.09375 71.53125 Z M 155.09375 64.035156 " fill-opacity="1" fill-rule="nonzero"/></g></g><g clip-path="url(#670d94fed3)"><g clip-path="url(#d173443b5f)"><path fill="#fffb47" d="M 148.570312 45.519531 L 155.984375 45.519531 L 155.984375 52.792969 L 148.570312 52.792969 Z M 148.570312 45.519531 " fill-opacity="1" fill-rule="nonzero"/></g></g><g clip-path="url(#a5e34d489c)"><g clip-path="url(#8a7c769165)"><path fill="#fffb47" d="M 139.277344 41.847656 L 146.621094 41.847656 L 146.621094 49.28125 L 139.277344 49.28125 Z M 139.277344 41.847656 " fill-opacity="1" fill-rule="nonzero"/></g></g><g clip-path="url(#b29e78c1a2)"><g clip-path="url(#75c7364c01)"><path fill="#fffb47" d="M 136.203125 60.511719 L 143.617188 60.511719 L 143.617188 67.785156 L 136.203125 67.785156 Z M 136.203125 60.511719 " fill-opacity="1" fill-rule="nonzero"/></g></g><g clip-path="url(#ff8f1eef15)"><g clip-path="url(#40e9f8c2c8)"><path fill="#fffb47" d="M 91 42.671875 L 98.414062 42.671875 L 98.414062 49.941406 L 91 49.941406 Z M 91 42.671875 " fill-opacity="1" fill-rule="nonzero"/></g></g><g clip-path="url(#58505a3aad)"><g clip-path="url(#677a457780)"><path fill="#fffb47" d="M 81.929688 19.882812 L 89.425781 19.882812 L 89.425781 27.46875 L 81.929688 27.46875 Z M 81.929688 19.882812 " fill-opacity="1" fill-rule="nonzero"/></g></g><g clip-path="url(#ecf0633208)"><g clip-path="url(#1fb34e0c4f)"><path fill="#fffb47" d="M 50 6.691406 L 57.496094 6.691406 L 57.496094 14.1875 L 50 14.1875 Z M 50 6.691406 " fill-opacity="1" fill-rule="nonzero"/></g></g><g clip-path="url(#327ed389a9)"><g clip-path="url(#c533e80b37)"><path fill="#fffb47" d="M 8.84375 49.117188 L 16.277344 49.117188 L 16.277344 56.464844 L 8.84375 56.464844 Z M 8.84375 49.117188 " fill-opacity="1" fill-rule="nonzero"/></g></g></svg>