<svg xmlns="http://www.w3.org/2000/svg" xmlns:xlink="http://www.w3.org/1999/xlink" width="500" zoomAndPan="magnify" viewBox="0 0 375 374.999991" height="500" preserveAspectRatio="xMidYMid meet" version="1.0"><defs><g/><clipPath id="339f3fbeaa"><path d="M 47.195312 137.871094 L 342.582031 137.871094 L 342.582031 250.371094 L 47.195312 250.371094 Z M 47.195312 137.871094 " clip-rule="nonzero"/></clipPath><clipPath id="d15e26c0bd"><path d="M 39.804688 131.25 L 335.195312 131.25 L 335.195312 243.75 L 39.804688 243.75 Z M 39.804688 131.25 " clip-rule="nonzero"/></clipPath><clipPath id="eadb0e0ed8"><path d="M 39.804688 131.25 L 335.1875 131.25 L 335.1875 243.75 L 39.804688 243.75 Z M 39.804688 131.25 " clip-rule="nonzero"/></clipPath></defs><g clip-path="url(#339f3fbeaa)"><path fill="#000000" d="M 47.195312 137.871094 L 342.507812 137.871094 L 342.507812 250.371094 L 47.195312 250.371094 Z M 47.195312 137.871094 " fill-opacity="1" fill-rule="nonzero"/></g><g clip-path="url(#d15e26c0bd)"><path fill="#ffde59" d="M 39.804688 131.25 L 335.117188 131.25 L 335.117188 243.75 L 39.804688 243.75 Z M 39.804688 131.25 " fill-opacity="1" fill-rule="nonzero"/></g><g clip-path="url(#eadb0e0ed8)"><path stroke-linecap="butt" transform="matrix(0.75, 0, 0, 0.75, 39.805329, 131.251237)" fill="none" stroke-linejoin="miter" d="M -0.000855448 -0.00164931 L 393.84292 -0.00164931 L 393.84292 149.998361 L -0.000855448 149.998361 Z M -0.000855448 -0.00164931 " stroke="#000000" stroke-width="16" stroke-opacity="1" stroke-miterlimit="4"/></g><g fill="#000000" fill-opacity="1"><g transform="translate(109.677917, 197.249987)"><g><path d="M 0 -2.4375 L 0 -14.59375 L 14.59375 -14.59375 L 14.59375 -12.15625 L 17.015625 -12.15625 L 17.015625 -2.4375 L 12.15625 -2.4375 L 12.15625 -12.15625 L 4.859375 -12.15625 L 4.859375 -2.4375 Z M 0 -2.4375 "/></g></g></g><g fill="#000000" fill-opacity="1"><g transform="translate(129.131087, 197.249987)"><g><path d="M 2.4375 -2.4375 L 2.4375 -4.859375 L 0 -4.859375 L 0 -12.15625 L 2.4375 -12.15625 L 2.4375 -14.59375 L 14.59375 -14.59375 L 14.59375 -12.15625 L 17.015625 -12.15625 L 17.015625 -4.859375 L 14.59375 -4.859375 L 14.59375 -2.4375 Z M 4.859375 -4.859375 L 12.15625 -4.859375 L 12.15625 -12.15625 L 4.859375 -12.15625 Z M 4.859375 -4.859375 "/></g></g></g><g fill="#000000" fill-opacity="1"><g transform="translate(148.584256, 197.249987)"><g/></g></g><g fill="#000000" fill-opacity="1"><g transform="translate(168.037426, 197.249987)"><g><path d="M 7.296875 -17.015625 L 7.296875 -19.453125 L 12.15625 -19.453125 L 12.15625 -17.015625 Z M 2.4375 -2.4375 L 2.4375 -4.859375 L 7.296875 -4.859375 L 7.296875 -12.15625 L 4.859375 -12.15625 L 4.859375 -14.59375 L 12.15625 -14.59375 L 12.15625 -4.859375 L 17.015625 -4.859375 L 17.015625 -2.4375 Z M 2.4375 -2.4375 "/></g></g></g><g fill="#000000" fill-opacity="1"><g transform="translate(187.490595, 197.249987)"><g><path d="M 0 -2.4375 L 0 -14.59375 L 14.59375 -14.59375 L 14.59375 -12.15625 L 17.015625 -12.15625 L 17.015625 -2.4375 L 12.15625 -2.4375 L 12.15625 -12.15625 L 9.71875 -12.15625 L 9.71875 -2.4375 L 4.859375 -2.4375 L 4.859375 -12.15625 L 2.4375 -12.15625 L 2.4375 -2.4375 Z M 0 -2.4375 "/></g></g></g><g fill="#000000" fill-opacity="1"><g transform="translate(206.943764, 197.249987)"><g><path d="M 2.4375 -2.4375 L 2.4375 -4.859375 L 0 -4.859375 L 0 -7.296875 L 2.4375 -7.296875 L 2.4375 -9.71875 L 12.15625 -9.71875 L 12.15625 -12.15625 L 2.4375 -12.15625 L 2.4375 -14.59375 L 14.59375 -14.59375 L 14.59375 -12.15625 L 17.015625 -12.15625 L 17.015625 -2.4375 Z M 4.859375 -4.859375 L 12.15625 -4.859375 L 12.15625 -7.296875 L 4.859375 -7.296875 Z M 4.859375 -4.859375 "/></g></g></g><g fill="#000000" fill-opacity="1"><g transform="translate(226.396934, 197.249987)"><g><path d="M 2.4375 0 L 2.4375 -2.4375 L 12.15625 -2.4375 L 12.15625 -4.859375 L 2.4375 -4.859375 L 2.4375 -7.296875 L 0 -7.296875 L 0 -12.15625 L 2.4375 -12.15625 L 2.4375 -14.59375 L 17.015625 -14.59375 L 17.015625 -2.4375 L 14.59375 -2.4375 L 14.59375 0 Z M 4.859375 -7.296875 L 12.15625 -7.296875 L 12.15625 -12.15625 L 4.859375 -12.15625 Z M 4.859375 -7.296875 "/></g></g></g><g fill="#000000" fill-opacity="1"><g transform="translate(245.850103, 197.249987)"><g><path d="M 2.4375 -2.4375 L 2.4375 -4.859375 L 0 -4.859375 L 0 -12.15625 L 2.4375 -12.15625 L 2.4375 -14.59375 L 14.59375 -14.59375 L 14.59375 -12.15625 L 17.015625 -12.15625 L 17.015625 -7.296875 L 4.859375 -7.296875 L 4.859375 -4.859375 L 14.59375 -4.859375 L 14.59375 -2.4375 Z M 4.859375 -9.71875 L 12.15625 -9.71875 L 12.15625 -12.15625 L 4.859375 -12.15625 Z M 4.859375 -9.71875 "/></g></g></g></svg>