<svg xmlns="http://www.w3.org/2000/svg" xmlns:xlink="http://www.w3.org/1999/xlink" width="300" zoomAndPan="magnify" viewBox="0 0 224.87999 74.999997" height="100" preserveAspectRatio="xMidYMid meet" version="1.0"><defs><clipPath id="1d21dd6051"><path d="M 14.480469 6.625 L 37.625 6.625 L 37.625 37.113281 L 14.480469 37.113281 Z M 14.480469 6.625 " clip-rule="nonzero"/></clipPath><clipPath id="5e3543edb4"><path d="M 32.457031 12.613281 C 24.285156 12.089844 21.511719 13.289062 20.390625 15.3125 C 18.890625 18.011719 19.566406 25.28125 20.238281 27.605469 C 20.539062 28.578125 20.914062 28.953125 21.589844 29.554688 C 22.5625 30.453125 24.660156 31.878906 26.3125 31.878906 C 27.808594 31.953125 29.835938 30.902344 31.035156 30.003906 C 31.933594 29.253906 32.15625 27.832031 32.980469 27.230469 C 33.730469 26.707031 34.707031 26.332031 35.382812 26.480469 C 36.128906 26.628906 37.105469 27.378906 37.40625 28.054688 C 37.703125 28.730469 37.554688 29.929688 37.179688 30.605469 C 36.804688 31.203125 35.679688 31.804688 35.007812 31.804688 C 34.257812 31.878906 33.132812 31.277344 32.683594 30.679688 C 32.308594 30.078125 32.082031 28.878906 32.382812 28.203125 C 32.609375 27.53125 33.507812 26.707031 34.257812 26.554688 C 35.007812 26.332031 36.128906 26.628906 36.730469 27.15625 C 37.253906 27.605469 37.703125 28.578125 37.554688 29.480469 C 37.328125 30.976562 35.382812 33.378906 33.65625 34.652344 C 31.859375 36 28.933594 36.898438 26.835938 37.050781 C 25.035156 37.199219 23.3125 36.675781 21.8125 36 C 20.238281 35.324219 18.738281 34.351562 17.617188 33.152344 C 16.492188 32.027344 15.589844 30.902344 15.140625 28.953125 C 14.242188 25.507812 14.316406 16.660156 15.667969 13.4375 C 16.417969 11.640625 17.464844 10.890625 18.890625 9.839844 C 20.6875 8.566406 23.613281 7.214844 25.710938 6.839844 C 27.433594 6.464844 29.085938 6.765625 30.660156 7.066406 C 32.007812 7.367188 33.730469 7.964844 34.554688 8.566406 C 35.082031 8.941406 35.382812 9.390625 35.53125 9.914062 C 35.605469 10.4375 35.53125 11.113281 35.304688 11.5625 C 35.082031 12.011719 34.632812 12.464844 34.105469 12.613281 C 33.65625 12.839844 32.457031 12.613281 32.457031 12.613281 " clip-rule="nonzero"/></clipPath><clipPath id="688d7e33fb"><path d="M 40.425781 6.308594 L 66.746094 6.308594 L 66.746094 36.460938 L 40.425781 36.460938 Z M 40.425781 6.308594 " clip-rule="nonzero"/></clipPath><clipPath id="3ad5ccf6c5"><path d="M 53.820312 12.539062 C 49.625 11.265625 48.949219 11.488281 48.273438 12.011719 C 47.375 12.761719 46.324219 14.261719 45.875 15.988281 C 45.199219 18.535156 45.726562 23.933594 46.25 26.332031 C 46.550781 27.605469 47.148438 28.355469 47.597656 29.179688 C 47.972656 29.855469 48.273438 30.753906 48.875 31.054688 C 49.472656 31.351562 50.375 31.128906 51.421875 30.753906 C 53.148438 30.152344 56.894531 27.90625 58.019531 26.480469 C 58.617188 25.65625 58.617188 25.054688 58.84375 24.082031 C 59.144531 22.734375 59.441406 20.410156 59.21875 19.058594 C 59.070312 18.160156 58.769531 17.5625 58.394531 16.886719 C 57.945312 16.210938 57.417969 15.613281 56.519531 15.085938 C 55.320312 14.414062 52.320312 14.488281 51.496094 13.585938 C 50.898438 12.914062 50.824219 11.789062 50.898438 11.113281 C 51.046875 10.515625 51.496094 9.914062 52.023438 9.539062 C 52.847656 9.089844 54.347656 9.238281 55.695312 9.316406 C 57.570312 9.464844 60.492188 10.890625 62.140625 10.8125 C 63.191406 10.8125 63.867188 9.988281 64.617188 10.140625 C 65.289062 10.289062 66.191406 11.113281 66.488281 11.714844 C 66.789062 12.238281 66.789062 12.914062 66.640625 13.4375 C 66.414062 14.113281 65.664062 15.160156 64.914062 15.3125 C 64.089844 15.535156 62.367188 14.9375 61.84375 14.335938 C 61.316406 13.738281 61.167969 12.464844 61.542969 11.789062 C 61.917969 11.039062 63.417969 10.066406 64.316406 10.066406 C 65.066406 10.066406 66.113281 10.8125 66.414062 11.488281 C 66.714844 12.238281 66.566406 13.960938 65.890625 14.710938 C 64.992188 15.613281 62.667969 15.835938 60.792969 15.835938 C 58.320312 15.910156 54.121094 15.085938 52.546875 14.335938 C 51.796875 13.960938 51.421875 13.585938 51.121094 12.988281 C 50.898438 12.464844 50.671875 11.714844 50.898438 11.113281 C 51.273438 10.289062 52.773438 9.238281 53.820312 8.867188 C 54.644531 8.492188 55.695312 8.492188 56.519531 8.640625 C 57.34375 8.789062 57.945312 9.015625 58.695312 9.613281 C 60.117188 10.664062 62.742188 13.585938 63.640625 15.613281 C 64.390625 17.109375 64.464844 18.460938 64.539062 20.109375 C 64.617188 22.359375 64.390625 25.65625 63.492188 27.679688 C 62.742188 29.328125 61.542969 30.453125 60.117188 31.652344 C 58.320312 33.152344 55.09375 34.953125 53.296875 35.699219 C 52.171875 36.152344 51.574219 36.375 50.523438 36.375 C 49.097656 36.449219 46.773438 36.074219 45.574219 35.550781 C 44.675781 35.175781 44.226562 34.800781 43.703125 34.050781 C 42.652344 32.628906 41.601562 29.777344 41.078125 27.082031 C 40.476562 23.558594 40.027344 17.785156 41.078125 14.488281 C 41.828125 11.9375 43.402344 9.691406 45.050781 8.339844 C 46.324219 7.214844 48.199219 6.617188 49.546875 6.464844 C 50.523438 6.316406 51.199219 6.542969 52.171875 6.839844 C 53.519531 7.214844 55.84375 8.191406 56.59375 9.015625 C 56.96875 9.539062 57.121094 10.066406 57.121094 10.589844 C 57.042969 11.113281 56.820312 11.789062 56.445312 12.089844 C 55.84375 12.539062 53.820312 12.539062 53.820312 12.539062 " clip-rule="nonzero"/></clipPath><clipPath id="21995afaa4"><path d="M 69.917969 7.722656 L 95.621094 7.722656 L 95.621094 38.835938 L 69.917969 38.835938 Z M 69.917969 7.722656 " clip-rule="nonzero"/></clipPath><clipPath id="cf33fbda3b"><path d="M 75.183594 10.214844 C 75.109375 37.949219 74.210938 38.550781 73.460938 38.699219 C 72.710938 38.773438 71.738281 38.550781 71.136719 37.800781 C 70.085938 36.449219 70.011719 31.578125 70.085938 28.65625 C 70.238281 25.957031 70.761719 23.558594 71.660156 20.933594 C 72.636719 17.859375 74.359375 13.664062 76.007812 11.5625 C 77.132812 10.140625 78.484375 9.238281 79.53125 8.640625 C 80.355469 8.265625 80.957031 8.191406 81.707031 8.039062 C 82.605469 7.890625 83.730469 7.742188 84.554688 7.890625 C 85.453125 8.117188 86.355469 8.640625 87.027344 9.316406 C 87.628906 9.914062 88.003906 10.515625 88.378906 11.640625 C 89.128906 13.738281 89.578125 18.386719 89.578125 21.457031 C 89.578125 24.15625 87.929688 27.15625 88.527344 29.03125 C 89.050781 30.527344 90.777344 32.101562 91.75 32.402344 C 92.425781 32.550781 93.175781 31.652344 93.773438 31.878906 C 94.449219 32.027344 95.273438 33.003906 95.425781 33.753906 C 95.648438 34.5 95.273438 35.625 94.824219 36.226562 C 94.449219 36.675781 93.925781 37.050781 93.324219 37.050781 C 92.5 37.050781 90.851562 36.300781 90.402344 35.550781 C 90.027344 34.953125 90.101562 33.675781 90.476562 33.003906 C 90.851562 32.402344 91.902344 31.726562 92.652344 31.652344 C 93.398438 31.652344 94.449219 32.179688 94.972656 32.703125 C 95.347656 33.152344 95.648438 33.753906 95.5 34.351562 C 95.425781 35.101562 94.597656 36.527344 93.625 36.976562 C 92.351562 37.5 89.800781 37.199219 88.152344 36.375 C 86.277344 35.402344 84.105469 33.152344 83.355469 30.902344 C 82.457031 28.203125 84.179688 24.007812 84.179688 20.933594 C 84.179688 18.160156 84.40625 13.8125 83.429688 13.214844 C 82.90625 12.839844 81.78125 13.585938 81.105469 14.039062 C 80.433594 14.5625 79.980469 15.160156 79.382812 16.136719 C 78.40625 17.636719 77.207031 20.785156 76.535156 22.957031 C 75.933594 24.683594 75.558594 25.957031 75.335938 27.90625 C 75.035156 30.527344 76.308594 35.625 75.410156 37.273438 C 74.960938 38.175781 74.136719 38.625 73.460938 38.699219 C 72.710938 38.773438 71.660156 38.324219 71.136719 37.800781 C 70.761719 37.425781 70.6875 37.050781 70.539062 36.074219 C 69.863281 32.550781 69.636719 12.839844 70.6875 9.691406 C 70.914062 8.867188 71.136719 8.566406 71.585938 8.339844 C 72.035156 8.039062 72.636719 7.890625 73.160156 7.890625 C 73.6875 7.964844 74.285156 8.265625 74.660156 8.714844 C 74.960938 9.089844 75.183594 10.214844 75.183594 10.214844 " clip-rule="nonzero"/></clipPath><clipPath id="2f0422cdd4"><path d="M 99.652344 5.746094 L 128.839844 5.746094 L 128.839844 40.28125 L 99.652344 40.28125 Z M 99.652344 5.746094 " clip-rule="nonzero"/></clipPath><clipPath id="da6d31741e"><path d="M 105.46875 8.117188 C 104.644531 22.433594 106.367188 27.230469 106.816406 30.679688 C 107.117188 33.300781 107.566406 35.851562 107.117188 37.5 C 106.816406 38.625 106.21875 39.675781 105.46875 39.972656 C 104.71875 40.273438 103.21875 39.972656 102.546875 39.300781 C 101.644531 38.25 101.871094 35.777344 101.871094 33.152344 C 101.945312 28.65625 103.445312 17.636719 104.496094 14.335938 C 104.945312 13.136719 105.09375 12.6875 105.84375 11.9375 C 106.742188 10.964844 108.316406 9.839844 109.964844 9.316406 C 112.066406 8.714844 115.511719 8.265625 117.539062 8.941406 C 119.113281 9.464844 120.3125 10.589844 121.285156 12.011719 C 122.558594 13.886719 123.535156 17.1875 123.832031 19.433594 C 124.058594 21.234375 123.910156 22.882812 123.535156 24.457031 C 123.160156 26.03125 121.808594 27.378906 121.585938 28.953125 C 121.359375 30.378906 121.585938 33.226562 122.183594 33.453125 C 122.632812 33.601562 123.535156 31.429688 124.433594 30.976562 C 125.183594 30.605469 126.234375 30.304688 126.980469 30.605469 C 127.730469 30.902344 128.78125 32.476562 128.78125 33.300781 C 128.78125 34.125 128.105469 35.101562 127.433594 35.476562 C 126.757812 35.925781 125.558594 35.925781 124.882812 35.625 C 124.207031 35.324219 123.535156 34.277344 123.382812 33.601562 C 123.234375 33.003906 123.308594 32.328125 123.683594 31.878906 C 124.058594 31.277344 125.109375 30.605469 125.78125 30.453125 C 126.382812 30.378906 127.058594 30.527344 127.507812 30.828125 C 128.03125 31.277344 128.707031 32.328125 128.78125 33.078125 C 128.855469 33.601562 128.707031 34.125 128.332031 34.726562 C 127.65625 35.699219 125.484375 37.125 124.359375 37.875 C 123.535156 38.472656 123.007812 39 122.183594 39.148438 C 121.359375 39.300781 120.234375 39.148438 119.5625 38.773438 C 118.886719 38.398438 118.511719 37.800781 117.988281 37.050781 C 117.3125 36 116.5625 34.203125 116.339844 32.703125 C 116.039062 31.054688 116.039062 29.105469 116.339844 27.457031 C 116.710938 25.804688 118.210938 24.53125 118.4375 22.734375 C 118.660156 20.707031 117.910156 17.1875 117.164062 15.6875 C 116.789062 14.863281 116.414062 14.261719 115.664062 13.960938 C 114.613281 13.585938 111.992188 14.113281 110.867188 14.710938 C 110.117188 15.160156 109.816406 15.535156 109.367188 16.660156 C 108.09375 19.882812 108.691406 34.875 107.042969 38.101562 C 106.441406 39.300781 105.617188 39.972656 104.867188 40.125 C 104.121094 40.273438 103.21875 40.125 102.546875 39.300781 C 100.519531 36.75 99.621094 21.910156 99.773438 15.835938 C 99.847656 12.011719 100.148438 7.816406 101.421875 6.542969 C 102.09375 5.792969 103.292969 5.640625 103.96875 5.867188 C 104.644531 6.167969 105.46875 8.117188 105.46875 8.117188 " clip-rule="nonzero"/></clipPath><clipPath id="c86af0530d"><path d="M 130.652344 5.863281 L 151.394531 5.863281 L 151.394531 37.449219 L 130.652344 37.449219 Z M 130.652344 5.863281 " clip-rule="nonzero"/></clipPath><clipPath id="70387cb7e6"><path d="M 135.078125 14.113281 C 143.171875 14.636719 143.847656 14.1875 144.523438 13.664062 C 145.046875 13.214844 146.023438 12.238281 145.796875 11.789062 C 145.496094 11.1875 142.648438 10.964844 141.226562 11.1875 C 139.800781 11.414062 138.078125 11.9375 137.25 13.136719 C 136.050781 14.636719 135.902344 17.933594 136.050781 20.558594 C 136.277344 23.40625 137.703125 27.605469 138.601562 29.480469 C 139.050781 30.378906 139.277344 31.203125 139.949219 31.429688 C 140.925781 31.726562 142.875 30.753906 144.222656 29.929688 C 145.648438 29.03125 146.996094 26.332031 148.195312 26.03125 C 149.019531 25.882812 150.070312 26.40625 150.59375 26.855469 C 151.042969 27.230469 151.34375 27.832031 151.34375 28.429688 C 151.417969 29.105469 151.042969 30.304688 150.445312 30.753906 C 149.921875 31.277344 148.71875 31.578125 147.972656 31.351562 C 147.296875 31.128906 146.320312 30.378906 146.097656 29.628906 C 145.945312 28.804688 146.472656 27.082031 147.144531 26.480469 C 147.746094 26.03125 148.945312 25.957031 149.695312 26.179688 C 150.371094 26.480469 151.269531 27.304688 151.34375 28.128906 C 151.496094 29.480469 149.769531 32.179688 148.269531 33.675781 C 146.695312 35.25 143.773438 36.601562 142.050781 37.125 C 140.925781 37.425781 139.949219 37.425781 139.050781 37.199219 C 138.300781 36.976562 137.625 36.675781 136.953125 36.074219 C 135.976562 35.175781 134.628906 33.675781 133.953125 32.253906 C 133.277344 30.828125 132.828125 27.679688 133.054688 27.605469 C 133.203125 27.53125 134.253906 29.554688 134.328125 29.554688 C 134.402344 29.480469 131.628906 24.683594 131.105469 22.582031 C 130.65625 20.933594 130.65625 19.660156 130.730469 17.933594 C 130.878906 15.835938 131.40625 12.761719 132.453125 10.890625 C 133.355469 9.316406 134.703125 8.039062 136.203125 7.214844 C 137.550781 6.390625 139.125 6.015625 140.851562 5.941406 C 143.023438 5.867188 146.621094 6.390625 148.195312 7.214844 C 149.171875 7.664062 149.695312 8.265625 150.144531 8.941406 C 150.519531 9.613281 150.820312 10.363281 150.820312 11.265625 C 150.820312 12.539062 150.144531 14.5625 149.246094 15.835938 C 148.195312 17.261719 146.773438 18.835938 144.746094 19.359375 C 142.050781 20.183594 135.378906 19.359375 133.730469 18.460938 C 133.054688 18.085938 132.828125 17.636719 132.679688 17.109375 C 132.527344 16.660156 132.527344 15.988281 132.828125 15.460938 C 133.203125 14.9375 135.078125 14.113281 135.078125 14.113281 " clip-rule="nonzero"/></clipPath><clipPath id="4fb520536a"><path d="M 154.398438 5.386719 L 173.839844 5.386719 L 173.839844 38.636719 L 154.398438 38.636719 Z M 154.398438 5.386719 " clip-rule="nonzero"/></clipPath><clipPath id="cd9f99f0be"><path d="M 169.859375 13.886719 C 162.363281 10.515625 161.839844 11.488281 161.238281 12.3125 C 160.5625 13.4375 160.039062 15.085938 159.738281 16.8125 C 159.441406 19.058594 159.363281 22.058594 159.816406 24.605469 C 160.265625 27.230469 161.3125 31.351562 162.589844 32.328125 C 163.261719 32.851562 164.011719 32.925781 164.910156 32.628906 C 166.410156 32.027344 168.808594 27.304688 170.382812 26.855469 C 171.285156 26.554688 172.257812 26.855469 172.78125 27.378906 C 173.382812 27.980469 173.757812 29.703125 173.457031 30.527344 C 173.234375 31.203125 172.257812 31.878906 171.507812 32.027344 C 170.757812 32.179688 169.632812 31.726562 169.183594 31.203125 C 168.660156 30.679688 168.359375 29.554688 168.511719 28.804688 C 168.660156 28.128906 169.410156 27.230469 170.085938 26.929688 C 170.757812 26.707031 171.957031 26.78125 172.558594 27.230469 C 173.15625 27.605469 173.757812 28.503906 173.757812 29.40625 C 173.683594 30.976562 171.207031 33.976562 169.710938 35.476562 C 168.359375 36.75 167.011719 37.800781 165.4375 38.175781 C 163.863281 38.625 161.613281 38.773438 160.191406 37.949219 C 158.539062 36.898438 157.414062 33.753906 156.515625 31.726562 C 155.691406 29.929688 155.167969 28.65625 154.867188 26.480469 C 154.417969 23.109375 154.117188 16.734375 155.242188 13.214844 C 156.066406 10.664062 158.089844 8.339844 159.289062 6.992188 C 159.964844 6.316406 160.488281 5.867188 161.164062 5.566406 C 161.914062 5.34375 162.8125 5.417969 163.789062 5.640625 C 165.136719 5.867188 167.234375 6.765625 168.734375 7.589844 C 170.234375 8.339844 172.183594 9.539062 172.933594 10.4375 C 173.308594 11.039062 173.457031 11.488281 173.457031 12.011719 C 173.457031 12.539062 173.234375 13.136719 172.859375 13.511719 C 172.558594 13.886719 171.957031 14.261719 171.433594 14.261719 C 170.910156 14.335938 169.859375 13.886719 169.859375 13.886719 " clip-rule="nonzero"/></clipPath><clipPath id="692c3a57e1"><path d="M 182.800781 2.628906 L 198.648438 2.628906 L 198.648438 37.902344 L 182.800781 37.902344 Z M 182.800781 2.628906 " clip-rule="nonzero"/></clipPath><clipPath id="700e7f1f70"><path d="M 188.75 5.265625 C 188 22.507812 189.050781 28.054688 190.023438 30.230469 C 190.472656 31.128906 190.847656 31.578125 191.523438 32.027344 C 192.121094 32.402344 193.023438 32.777344 193.695312 32.550781 C 194.296875 32.402344 194.671875 31.203125 195.269531 30.976562 C 195.796875 30.828125 196.46875 30.753906 196.996094 31.054688 C 197.667969 31.503906 198.644531 33.003906 198.644531 33.828125 C 198.644531 34.578125 197.894531 35.550781 197.292969 35.851562 C 196.621094 36.226562 195.421875 36.226562 194.820312 35.851562 C 194.144531 35.550781 193.472656 34.578125 193.398438 33.828125 C 193.320312 33.078125 193.695312 31.953125 194.296875 31.503906 C 194.972656 31.054688 196.769531 30.902344 197.519531 31.351562 C 198.195312 31.804688 198.867188 33.453125 198.492188 34.351562 C 198.042969 35.699219 194.820312 37.574219 193.023438 37.875 C 191.371094 38.023438 189.347656 36.976562 188.222656 36.300781 C 187.476562 35.925781 187.023438 35.550781 186.5 34.800781 C 185.824219 33.828125 185.226562 32.402344 184.703125 30.527344 C 183.875 27.53125 182.976562 22.433594 182.902344 18.234375 C 182.753906 13.8125 183.503906 6.765625 184.175781 4.59375 C 184.476562 3.84375 184.625 3.46875 185 3.167969 C 185.375 2.867188 186.050781 2.644531 186.574219 2.644531 C 187.101562 2.644531 187.699219 2.867188 188.074219 3.242188 C 188.523438 3.691406 188.75 5.265625 188.75 5.265625 " clip-rule="nonzero"/></clipPath><clipPath id="d600c6f2a6"><path d="M 177.027344 9.136719 L 197.902344 9.136719 L 197.902344 14.890625 L 177.027344 14.890625 Z M 177.027344 9.136719 " clip-rule="nonzero"/></clipPath><clipPath id="d39b3e1753"><path d="M 179.304688 9.390625 C 192.121094 9.988281 194.894531 8.941406 196.171875 9.238281 C 196.84375 9.464844 197.144531 9.765625 197.445312 10.214844 C 197.746094 10.738281 197.96875 11.863281 197.667969 12.539062 C 197.371094 13.214844 195.945312 14.039062 195.121094 14.039062 C 194.445312 14.039062 193.546875 13.363281 193.246094 12.761719 C 192.945312 12.164062 192.945312 11.039062 193.246094 10.4375 C 193.546875 9.839844 194.519531 9.238281 195.121094 9.164062 C 195.644531 9.089844 196.246094 9.164062 196.695312 9.464844 C 197.21875 9.839844 197.820312 10.8125 197.894531 11.488281 C 197.894531 12.164062 197.59375 13.0625 196.917969 13.585938 C 195.644531 14.488281 192.121094 14.710938 189.425781 14.789062 C 186.050781 14.9375 180.054688 14.9375 178.253906 13.738281 C 177.429688 13.136719 177.054688 12.089844 177.054688 11.414062 C 177.054688 10.890625 177.429688 10.289062 177.804688 9.988281 C 178.179688 9.613281 179.304688 9.390625 179.304688 9.390625 " clip-rule="nonzero"/></clipPath><clipPath id="1f889c6382"><path d="M 42.097656 41.636719 L 78 41.636719 L 78 69.945312 L 42.097656 69.945312 Z M 42.097656 41.636719 " clip-rule="nonzero"/></clipPath><clipPath id="9e50380593"><path d="M 47.074219 45.519531 C 48.199219 56.464844 50.746094 59.914062 51.574219 62.460938 C 52.171875 64.1875 52.773438 66.960938 52.472656 67.035156 C 52.320312 67.109375 51.796875 65.386719 51.121094 65.011719 C 50.523438 64.710938 49.023438 65.460938 48.800781 65.085938 C 48.347656 64.1875 53.445312 59.011719 55.09375 56.316406 C 56.445312 54.066406 57.042969 51.066406 58.242188 50.019531 C 58.992188 49.417969 59.816406 49.042969 60.492188 49.195312 C 61.316406 49.34375 62.140625 50.09375 62.667969 51.21875 C 63.714844 53.542969 64.464844 63.210938 63.117188 64.410156 C 62.441406 65.011719 60.269531 64.484375 60.117188 63.960938 C 59.816406 63.0625 64.316406 60.363281 66.039062 58.414062 C 67.765625 56.613281 69.488281 54.742188 70.613281 52.71875 C 71.585938 50.992188 72.261719 49.117188 72.710938 47.320312 C 73.160156 45.746094 72.636719 43.648438 73.3125 42.746094 C 73.835938 42.074219 74.734375 41.699219 75.484375 41.699219 C 76.160156 41.773438 77.132812 42.371094 77.433594 42.972656 C 77.808594 43.496094 77.957031 44.695312 77.582031 45.296875 C 77.207031 45.96875 75.710938 46.796875 74.886719 46.71875 C 74.210938 46.644531 73.3125 45.96875 73.011719 45.296875 C 72.785156 44.546875 73.160156 42.898438 73.6875 42.296875 C 74.210938 41.847656 75.335938 41.546875 76.007812 41.847656 C 76.757812 42.074219 77.507812 43.195312 77.808594 44.246094 C 78.183594 45.445312 77.957031 47.320312 77.582031 48.894531 C 77.207031 50.617188 76.460938 52.265625 75.410156 54.066406 C 74.058594 56.539062 71.8125 59.539062 69.710938 61.863281 C 67.613281 64.1875 64.765625 67.335938 63.042969 68.234375 C 62.066406 68.757812 61.316406 68.910156 60.566406 68.757812 C 59.742188 68.535156 58.769531 67.933594 58.242188 66.960938 C 57.34375 65.460938 57.570312 62.3125 57.570312 59.761719 C 57.496094 56.765625 57.195312 51.441406 58.242188 50.019531 C 58.84375 49.34375 59.816406 49.195312 60.492188 49.195312 C 61.09375 49.269531 61.765625 49.644531 62.140625 50.09375 C 62.441406 50.542969 62.742188 51.144531 62.742188 51.816406 C 62.742188 52.566406 62.441406 53.316406 61.84375 54.515625 C 60.417969 57.4375 55.09375 66.433594 52.621094 68.535156 C 51.574219 69.507812 50.597656 69.957031 49.699219 69.882812 C 49.023438 69.808594 48.5 69.433594 47.898438 68.609375 C 46.101562 66.132812 42.953125 55.789062 42.425781 51.21875 C 42.128906 48.292969 42.050781 45.144531 43.027344 44.023438 C 43.625 43.347656 44.902344 43.121094 45.574219 43.347656 C 46.25 43.648438 47.074219 45.519531 47.074219 45.519531 " clip-rule="nonzero"/></clipPath><clipPath id="4f26e67477"><path d="M 77.507812 42.773438 L 102.96875 42.773438 L 102.96875 68.722656 L 77.507812 68.722656 Z M 77.507812 42.773438 " clip-rule="nonzero"/></clipPath><clipPath id="9cf61c32b8"><path d="M 91.375 48.070312 C 85.980469 47.996094 84.328125 49.195312 83.582031 50.09375 C 82.980469 50.691406 82.832031 51.292969 82.605469 52.191406 C 82.382812 53.542969 82.53125 56.089844 82.832031 57.890625 C 83.054688 59.464844 83.355469 61.5625 84.105469 62.460938 C 84.628906 63.0625 85.53125 63.4375 86.277344 63.285156 C 87.402344 62.988281 89.277344 60.289062 90.101562 59.011719 C 90.625 58.1875 90.851562 57.738281 91.078125 56.691406 C 91.527344 54.964844 90.625 49.867188 91.453125 49.417969 C 91.902344 49.195312 92.800781 50.542969 93.476562 50.617188 C 94.226562 50.617188 95.199219 49.492188 95.875 49.644531 C 96.546875 49.792969 97.148438 50.917969 97.597656 51.667969 C 97.972656 52.417969 98.121094 53.089844 98.273438 54.140625 C 98.574219 56.015625 98.046875 60.0625 98.496094 61.863281 C 98.722656 62.835938 99.246094 64.109375 99.621094 64.109375 C 99.847656 64.109375 99.847656 62.988281 100.222656 62.910156 C 100.671875 62.761719 102.019531 63.4375 102.394531 64.035156 C 102.84375 64.636719 102.996094 65.835938 102.695312 66.585938 C 102.46875 67.257812 101.570312 68.082031 100.820312 68.160156 C 99.996094 68.308594 98.347656 67.558594 97.824219 66.808594 C 97.449219 66.210938 97.523438 65.011719 97.824219 64.335938 C 98.199219 63.660156 99.171875 62.910156 99.921875 62.910156 C 100.746094 62.910156 102.320312 63.8125 102.695312 64.5625 C 103.070312 65.234375 102.769531 66.433594 102.46875 67.035156 C 102.171875 67.558594 101.722656 67.859375 101.121094 68.082031 C 100.070312 68.457031 97.746094 68.757812 96.472656 68.082031 C 95.199219 67.410156 94.226562 65.609375 93.550781 63.8125 C 92.652344 61.261719 93.175781 56.613281 92.726562 53.917969 C 92.351562 51.890625 91.226562 50.316406 91.226562 48.894531 C 91.226562 47.917969 91.453125 46.945312 91.976562 46.34375 C 92.425781 45.746094 93.398438 45.296875 94.148438 45.296875 C 94.824219 45.296875 95.722656 45.894531 96.171875 46.496094 C 96.699219 47.09375 96.699219 47.917969 96.773438 49.042969 C 96.921875 51.292969 96.773438 56.164062 95.800781 59.164062 C 94.824219 62.011719 92.5 65.308594 91.152344 66.808594 C 90.402344 67.632812 89.953125 68.082031 89.050781 68.382812 C 87.777344 68.757812 85.605469 68.757812 84.105469 68.308594 C 82.53125 67.785156 80.730469 66.433594 79.757812 65.460938 C 79.15625 64.785156 78.933594 64.410156 78.632812 63.4375 C 78.183594 61.710938 77.734375 57.214844 78.332031 55.640625 C 78.632812 54.742188 79.832031 53.839844 79.90625 53.839844 C 79.980469 53.917969 78.707031 56.839844 78.332031 56.765625 C 77.882812 56.691406 77.507812 53.167969 77.582031 51.890625 C 77.660156 50.917969 77.808594 50.394531 78.183594 49.492188 C 78.78125 48.21875 79.980469 46.269531 81.332031 45.144531 C 82.679688 44.097656 84.40625 43.195312 86.203125 42.972656 C 88.304688 42.671875 92.125 42.972656 93.25 43.945312 C 93.925781 44.546875 94.148438 45.820312 94 46.496094 C 93.925781 47.019531 93.476562 47.46875 93.023438 47.769531 C 92.574219 47.996094 91.375 48.070312 91.375 48.070312 " clip-rule="nonzero"/></clipPath><clipPath id="afc8fc2a22"><path d="M 105.53125 40.800781 L 117.027344 40.800781 L 117.027344 68.980469 L 105.53125 68.980469 Z M 105.53125 40.800781 " clip-rule="nonzero"/></clipPath><clipPath id="ae2147c616"><path d="M 110.566406 43.195312 C 110.867188 56.914062 111.316406 59.839844 111.691406 61.488281 C 111.914062 62.460938 111.914062 63.210938 112.441406 63.660156 C 113.113281 64.261719 115.214844 63.660156 115.964844 64.261719 C 116.5625 64.710938 116.9375 65.761719 117.011719 66.433594 C 117.011719 66.960938 116.789062 67.558594 116.414062 67.933594 C 115.886719 68.382812 114.839844 68.984375 114.164062 68.832031 C 113.339844 68.683594 112.066406 67.484375 111.839844 66.660156 C 111.691406 65.984375 112.214844 64.933594 112.664062 64.410156 C 113.039062 63.960938 113.640625 63.734375 114.164062 63.734375 C 114.6875 63.660156 115.289062 63.734375 115.738281 64.035156 C 116.261719 64.484375 117.011719 65.386719 117.011719 66.132812 C 116.9375 66.960938 116.1875 68.308594 115.214844 68.683594 C 113.9375 69.28125 110.714844 68.683594 109.292969 67.707031 C 108.015625 66.882812 107.417969 65.761719 106.816406 63.8125 C 105.46875 59.6875 105.242188 45.445312 106.070312 42.597656 C 106.292969 41.847656 106.519531 41.546875 106.96875 41.246094 C 107.417969 40.949219 108.015625 40.796875 108.542969 40.875 C 109.066406 40.949219 109.667969 41.246094 110.042969 41.621094 C 110.339844 41.996094 110.566406 43.195312 110.566406 43.195312 " clip-rule="nonzero"/></clipPath><clipPath id="050019d2af"><path d="M 118.445312 40.945312 L 130.433594 40.945312 L 130.433594 70.285156 L 118.445312 70.285156 Z M 118.445312 40.945312 " clip-rule="nonzero"/></clipPath><clipPath id="c45993a087"><path d="M 123.460938 43.273438 C 125.707031 65.535156 127.507812 63.960938 128.480469 64.410156 C 129.382812 64.785156 130.355469 66.058594 130.429688 66.882812 C 130.429688 67.632812 129.90625 68.683594 129.230469 69.058594 C 128.554688 69.433594 126.757812 69.359375 126.082031 68.832031 C 125.558594 68.457031 125.109375 67.335938 125.183594 66.585938 C 125.257812 65.910156 125.933594 64.933594 126.609375 64.5625 C 127.207031 64.261719 128.40625 64.1875 129.007812 64.5625 C 129.679688 65.011719 130.355469 66.660156 130.355469 67.410156 C 130.28125 68.007812 129.980469 68.457031 129.457031 68.832031 C 128.554688 69.582031 126.007812 70.257812 124.734375 70.257812 C 123.832031 70.332031 123.085938 70.183594 122.335938 69.65625 C 121.359375 68.910156 120.386719 67.410156 119.710938 65.535156 C 118.738281 62.535156 118.738281 56.765625 118.585938 52.792969 C 118.511719 49.269531 118.363281 44.472656 118.886719 42.746094 C 119.113281 41.996094 119.410156 41.621094 119.859375 41.398438 C 120.234375 41.097656 120.910156 40.949219 121.433594 40.949219 C 121.960938 41.023438 122.558594 41.324219 122.859375 41.699219 C 123.234375 42.148438 123.460938 43.273438 123.460938 43.273438 " clip-rule="nonzero"/></clipPath><clipPath id="aea70e8293"><path d="M 129.074219 40.226562 L 151.875 40.226562 L 151.875 66.902344 L 129.074219 66.902344 Z M 129.074219 40.226562 " clip-rule="nonzero"/></clipPath><clipPath id="f47f2138c6"><path d="M 132.902344 49.042969 C 142.425781 48.894531 142.648438 47.621094 143.171875 47.621094 C 143.773438 47.542969 145.121094 49.042969 145.046875 49.195312 C 144.972656 49.417969 139.425781 45.820312 137.777344 45.894531 C 136.875 45.96875 136.351562 46.644531 135.828125 47.167969 C 135.304688 47.695312 134.628906 48.292969 134.476562 49.195312 C 134.253906 50.917969 135.378906 55.191406 136.578125 57.140625 C 137.476562 58.714844 139.125 60.0625 140.324219 60.664062 C 141.148438 61.113281 141.75 61.261719 142.722656 61.261719 C 144.371094 61.1875 147.746094 59.3125 149.171875 59.3125 C 149.84375 59.386719 150.371094 59.464844 150.746094 59.839844 C 151.269531 60.4375 151.945312 62.085938 151.644531 62.910156 C 151.34375 63.660156 149.769531 64.5625 148.945312 64.5625 C 148.195312 64.484375 147.222656 63.886719 146.921875 63.210938 C 146.546875 62.460938 146.847656 60.738281 147.371094 60.0625 C 147.894531 59.539062 149.019531 59.238281 149.695312 59.386719 C 150.445312 59.539062 151.34375 60.289062 151.570312 60.960938 C 151.867188 61.636719 151.867188 62.6875 151.34375 63.359375 C 150.519531 64.5625 147.445312 65.683594 145.421875 66.132812 C 143.625 66.660156 141.898438 67.109375 140.023438 66.507812 C 137.402344 65.609375 133.652344 62.3125 131.855469 59.539062 C 130.207031 57.066406 129.53125 53.167969 129.304688 51.066406 C 129.15625 49.792969 129.082031 49.117188 129.457031 47.996094 C 130.128906 46.046875 132.902344 42.296875 134.476562 41.171875 C 135.453125 40.5 136.050781 40.273438 137.175781 40.347656 C 139.5 40.5 145.421875 43.121094 147.070312 44.695312 C 147.972656 45.59375 148.421875 46.421875 148.421875 47.394531 C 148.347656 48.667969 147.144531 50.542969 145.945312 51.59375 C 144.746094 52.71875 143.171875 53.542969 141.226562 53.917969 C 138.675781 54.441406 133.355469 54.140625 131.78125 53.390625 C 131.179688 53.015625 130.878906 52.640625 130.730469 52.117188 C 130.582031 51.667969 130.503906 50.992188 130.730469 50.46875 C 131.03125 49.867188 132.902344 49.042969 132.902344 49.042969 " clip-rule="nonzero"/></clipPath><clipPath id="d9e1ee8eba"><path d="M 156.246094 39.867188 L 171 39.867188 L 171 69.472656 L 156.246094 69.472656 Z M 156.246094 39.867188 " clip-rule="nonzero"/></clipPath><clipPath id="9f5d4d941f"><path d="M 161.238281 42.222656 C 161.464844 56.988281 160.863281 62.085938 162.664062 63.886719 C 164.164062 65.460938 168.960938 64.335938 170.085938 65.160156 C 170.683594 65.535156 170.832031 65.984375 170.910156 66.585938 C 170.984375 67.183594 170.757812 68.382812 170.234375 68.832031 C 169.558594 69.359375 167.910156 69.582031 167.160156 69.28125 C 166.484375 68.984375 165.886719 67.933594 165.886719 67.257812 C 165.8125 66.507812 166.1875 65.460938 166.785156 65.085938 C 167.460938 64.5625 169.183594 64.5625 169.859375 64.933594 C 170.535156 65.308594 170.984375 66.433594 170.984375 67.109375 C 170.910156 67.785156 170.535156 68.757812 169.785156 69.207031 C 168.210938 69.957031 162.4375 68.832031 160.488281 68.082031 C 159.441406 67.632812 158.914062 67.484375 158.316406 66.507812 C 157.117188 64.710938 156.816406 59.761719 156.515625 56.015625 C 156.140625 51.742188 156.214844 44.472656 156.589844 42.222656 C 156.742188 41.472656 156.890625 41.097656 157.191406 40.722656 C 157.566406 40.273438 158.089844 39.972656 158.617188 39.898438 C 159.214844 39.898438 160.191406 40.273438 160.640625 40.722656 C 161.015625 41.097656 161.238281 42.222656 161.238281 42.222656 " clip-rule="nonzero"/></clipPath><clipPath id="1ef5fd16bb"><path d="M 151.382812 44.734375 L 168.316406 44.734375 L 168.316406 50.65625 L 151.382812 50.65625 Z M 151.382812 44.734375 " clip-rule="nonzero"/></clipPath><clipPath id="2cfcb6bafb"><path d="M 153.742188 44.769531 C 167.683594 46.121094 168.210938 47.246094 168.285156 47.917969 C 168.359375 48.445312 168.136719 49.042969 167.761719 49.34375 C 167.3125 49.792969 166.261719 50.242188 165.585938 50.242188 C 165.136719 50.167969 164.539062 49.941406 164.238281 49.570312 C 163.789062 49.117188 163.414062 48.070312 163.488281 47.394531 C 163.5625 46.71875 164.238281 45.894531 164.835938 45.59375 C 165.4375 45.296875 166.5625 45.445312 167.160156 45.746094 C 167.609375 45.96875 167.984375 46.421875 168.136719 46.871094 C 168.285156 47.542969 168.359375 48.59375 167.910156 49.195312 C 167.160156 50.019531 164.988281 50.46875 163.113281 50.617188 C 160.265625 50.769531 154.269531 50.394531 152.617188 49.117188 C 151.71875 48.519531 151.34375 47.46875 151.417969 46.796875 C 151.417969 46.269531 151.792969 45.671875 152.167969 45.371094 C 152.542969 45.070312 153.742188 44.769531 153.742188 44.769531 " clip-rule="nonzero"/></clipPath></defs><g clip-path="url(#1d21dd6051)"><g clip-path="url(#5e3543edb4)"><path fill="#fffb47" d="M 12.144531 3.84375 L 40.628906 3.84375 L 40.628906 40.117188 L 12.144531 40.117188 Z M 12.144531 3.84375 " fill-opacity="1" fill-rule="nonzero"/></g></g><g clip-path="url(#688d7e33fb)"><g clip-path="url(#3ad5ccf6c5)"><path fill="#fffb47" d="M 38.078125 3.46875 L 69.710938 3.46875 L 69.710938 39.425781 L 38.078125 39.425781 Z M 38.078125 3.46875 " fill-opacity="1" fill-rule="nonzero"/></g></g><g clip-path="url(#21995afaa4)"><g clip-path="url(#cf33fbda3b)"><path fill="#fffb47" d="M 67.089844 4.890625 L 98.574219 4.890625 L 98.574219 41.664062 L 67.089844 41.664062 Z M 67.089844 4.890625 " fill-opacity="1" fill-rule="nonzero"/></g></g><g clip-path="url(#2f0422cdd4)"><g clip-path="url(#da6d31741e)"><path fill="#fffb47" d="M 96.773438 2.867188 L 131.855469 2.867188 L 131.855469 43.15625 L 96.773438 43.15625 Z M 96.773438 2.867188 " fill-opacity="1" fill-rule="nonzero"/></g></g><g clip-path="url(#c86af0530d)"><g clip-path="url(#70387cb7e6)"><path fill="#fffb47" d="M 127.730469 2.945312 L 154.417969 2.945312 L 154.417969 40.261719 L 127.730469 40.261719 Z M 127.730469 2.945312 " fill-opacity="1" fill-rule="nonzero"/></g></g><g clip-path="url(#4fb520536a)"><g clip-path="url(#cd9f99f0be)"><path fill="#fffb47" d="M 151.867188 2.570312 L 176.753906 2.570312 L 176.753906 41.164062 L 151.867188 41.164062 Z M 151.867188 2.570312 " fill-opacity="1" fill-rule="nonzero"/></g></g><g clip-path="url(#692c3a57e1)"><g clip-path="url(#700e7f1f70)"><path fill="#fffb47" d="M 179.902344 -0.355469 L 201.71875 -0.355469 L 201.71875 40.886719 L 179.902344 40.886719 Z M 179.902344 -0.355469 " fill-opacity="1" fill-rule="nonzero"/></g></g><g clip-path="url(#d600c6f2a6)"><g clip-path="url(#d39b3e1753)"><path fill="#fffb47" d="M 174.058594 6.167969 L 200.871094 6.167969 L 200.871094 17.859375 L 174.058594 17.859375 Z M 174.058594 6.167969 " fill-opacity="1" fill-rule="nonzero"/></g></g><g clip-path="url(#1f889c6382)"><g clip-path="url(#9e50380593)"><path fill="#fffb47" d="M 39.429688 38.699219 L 80.820312 38.699219 L 80.820312 72.882812 L 39.429688 72.882812 Z M 39.429688 38.699219 " fill-opacity="1" fill-rule="nonzero"/></g></g><g clip-path="url(#4f26e67477)"><g clip-path="url(#9cf61c32b8)"><path fill="#fffb47" d="M 74.585938 39.972656 L 105.769531 39.972656 L 105.769531 71.402344 L 74.585938 71.402344 Z M 74.585938 39.972656 " fill-opacity="1" fill-rule="nonzero"/></g></g><g clip-path="url(#afc8fc2a22)"><g clip-path="url(#ae2147c616)"><path fill="#fffb47" d="M 103.070312 37.875 L 120.085938 37.875 L 120.085938 71.839844 L 103.070312 71.839844 Z M 103.070312 37.875 " fill-opacity="1" fill-rule="nonzero"/></g></g><g clip-path="url(#050019d2af)"><g clip-path="url(#c45993a087)"><path fill="#fffb47" d="M 115.589844 37.949219 L 133.429688 37.949219 L 133.429688 73.351562 L 115.589844 73.351562 Z M 115.589844 37.949219 " fill-opacity="1" fill-rule="nonzero"/></g></g><g clip-path="url(#aea70e8293)"><g clip-path="url(#f47f2138c6)"><path fill="#fffb47" d="M 126.308594 37.351562 L 154.640625 37.351562 L 154.640625 69.558594 L 126.308594 69.558594 Z M 126.308594 37.351562 " fill-opacity="1" fill-rule="nonzero"/></g></g><g clip-path="url(#d9e1ee8eba)"><g clip-path="url(#9f5d4d941f)"><path fill="#fffb47" d="M 153.519531 36.898438 L 174.058594 36.898438 L 174.058594 72.28125 L 153.519531 72.28125 Z M 153.519531 36.898438 " fill-opacity="1" fill-rule="nonzero"/></g></g><g clip-path="url(#1ef5fd16bb)"><g clip-path="url(#2cfcb6bafb)"><path fill="#fffb47" d="M 148.421875 41.773438 L 171.367188 41.773438 L 171.367188 53.617188 L 148.421875 53.617188 Z M 148.421875 41.773438 " fill-opacity="1" fill-rule="nonzero"/></g></g></svg>