<svg xmlns="http://www.w3.org/2000/svg" xmlns:xlink="http://www.w3.org/1999/xlink" width="40" zoomAndPan="magnify" viewBox="0 0 30 30.000001" height="40" preserveAspectRatio="xMidYMid meet" version="1.0"><defs><clipPath id="acf83236e4"><path d="M 1.152344 0.574219 L 27.054688 0.574219 L 27.054688 29.03125 L 1.152344 29.03125 Z M 1.152344 0.574219 " clip-rule="nonzero"/></clipPath><clipPath id="311169d375"><path d="M 7.886719 1.015625 C 26.832031 14.226562 27.195312 14.953125 26.976562 15.894531 C 26.539062 17.417969 23.710938 19.667969 21.675781 20.902344 C 19.574219 22.210938 16.523438 22.425781 14.417969 23.589844 C 12.675781 24.53125 11.515625 25.910156 9.847656 26.855469 C 8.175781 27.871094 5.855469 29.46875 4.332031 29.46875 C 3.242188 29.394531 2.007812 28.667969 1.574219 28.015625 C 1.210938 27.582031 1.210938 26.925781 1.355469 26.417969 C 1.5 25.765625 2.226562 24.824219 2.878906 24.53125 C 3.53125 24.242188 4.695312 24.316406 5.273438 24.75 C 5.855469 25.113281 6.433594 26.128906 6.433594 26.855469 C 6.507812 27.582031 6 28.667969 5.347656 29.03125 C 4.695312 29.46875 2.953125 29.324219 2.226562 28.886719 C 1.789062 28.597656 1.425781 28.089844 1.355469 27.507812 C 1.28125 26.855469 1.355469 25.910156 1.933594 25.183594 C 3.023438 23.804688 7.523438 22.5 9.046875 21.339844 C 9.917969 20.683594 9.917969 20.03125 10.789062 19.453125 C 12.386719 18.507812 16.015625 18.074219 18.046875 17.128906 C 19.644531 16.402344 21.242188 14.296875 22.039062 14.589844 C 22.621094 14.804688 23.128906 16.910156 22.765625 17.128906 C 21.824219 17.855469 6.796875 6.675781 4.984375 4.28125 C 4.476562 3.703125 4.402344 3.339844 4.402344 2.832031 C 4.402344 2.324219 4.695312 1.742188 4.984375 1.378906 C 5.273438 1.015625 5.855469 0.726562 6.363281 0.652344 C 6.871094 0.582031 7.886719 1.015625 7.886719 1.015625 " clip-rule="nonzero"/></clipPath></defs><g clip-path="url(#acf83236e4)"><g clip-path="url(#311169d375)"><path fill="#fffb47" d="M -1.546875 -2.25 L 29.878906 -2.25 L 29.878906 32.371094 L -1.546875 32.371094 Z M -1.546875 -2.25 " fill-opacity="1" fill-rule="nonzero"/></g></g></svg>