<svg xmlns="http://www.w3.org/2000/svg" xmlns:xlink="http://www.w3.org/1999/xlink" width="100" zoomAndPan="magnify" viewBox="0 0 75 74.999997" height="100" preserveAspectRatio="xMidYMid meet" version="1.0"><defs><g/><clipPath id="be4651f13b"><path d="M 11.359375 3.222656 L 63.609375 3.222656 L 63.609375 55.703125 L 11.359375 55.703125 Z M 11.359375 3.222656 " clip-rule="nonzero"/></clipPath><clipPath id="bed469adc7"><path d="M 63.53125 29.460938 C 61.269531 40.414062 59.878906 43.019531 58.226562 45.191406 C 56.488281 47.453125 54.402344 49.453125 52.058594 51.015625 C 49.796875 52.582031 47.105469 53.796875 44.410156 54.578125 C 41.714844 55.273438 38.847656 55.621094 36.066406 55.449219 C 33.285156 55.273438 30.417969 54.667969 27.808594 53.625 C 25.203125 52.582031 22.683594 51.101562 20.597656 49.277344 C 18.421875 47.539062 16.511719 45.28125 15.121094 42.847656 C 13.644531 40.5 12.601562 37.71875 11.992188 35.023438 C 11.382812 32.332031 11.210938 29.375 11.558594 26.59375 C 11.816406 23.8125 12.601562 21.03125 13.816406 18.511719 C 14.945312 15.992188 16.597656 13.472656 18.511719 11.472656 C 20.421875 9.472656 22.769531 7.648438 25.203125 6.34375 C 27.722656 5.128906 30.503906 4.171875 33.199219 3.738281 C 35.980469 3.214844 38.933594 3.214844 41.714844 3.738281 C 44.410156 4.171875 47.191406 5.128906 49.710938 6.429688 C 52.144531 7.648438 54.492188 9.472656 56.402344 11.472656 C 58.316406 13.472656 59.964844 15.992188 61.097656 18.511719 C 62.3125 21.03125 63.09375 23.8125 63.355469 26.59375 C 63.703125 29.375 63.53125 32.332031 62.921875 35.023438 C 62.3125 37.71875 61.183594 40.5 59.792969 42.847656 C 58.402344 45.28125 56.402344 47.539062 54.316406 49.277344 C 52.230469 51.101562 49.710938 52.582031 47.105469 53.625 C 44.496094 54.667969 41.628906 55.273438 38.847656 55.449219 C 36.066406 55.621094 33.109375 55.273438 30.503906 54.578125 C 27.808594 53.796875 25.117188 52.582031 22.855469 51.015625 C 20.507812 49.453125 18.335938 47.367188 16.683594 45.191406 C 15.035156 43.019531 13.644531 40.414062 12.773438 37.71875 C 11.816406 35.113281 11.46875 31.984375 11.382812 29.460938 C 11.296875 27.203125 11.644531 25.203125 12.164062 23.203125 C 12.601562 21.207031 13.382812 19.121094 14.339844 17.296875 C 15.292969 15.46875 16.511719 13.644531 17.902344 12.167969 C 19.292969 10.601562 20.945312 9.125 22.59375 7.996094 C 24.332031 6.777344 26.246094 5.734375 28.15625 5.039062 C 30.15625 4.257812 32.242188 3.738281 34.328125 3.5625 C 36.328125 3.300781 38.5 3.300781 40.585938 3.476562 C 42.671875 3.738281 44.757812 4.257812 46.667969 5.039062 C 48.667969 5.734375 50.578125 6.777344 52.230469 7.910156 C 53.96875 9.125 55.621094 10.515625 56.925781 12.082031 C 58.316406 13.644531 59.53125 15.46875 60.574219 17.296875 C 61.53125 19.121094 62.226562 21.121094 62.746094 23.117188 C 63.269531 25.203125 63.53125 29.375 63.53125 29.375 " clip-rule="nonzero"/></clipPath></defs><g clip-path="url(#be4651f13b)"><g clip-path="url(#bed469adc7)"><path fill="#0841d4" d="M 7.90625 0 L 67.0625 0 L 67.0625 58.925781 L 7.90625 58.925781 Z M 7.90625 0 " fill-opacity="1" fill-rule="nonzero"/></g></g><g fill="#0841d4" fill-opacity="1"><g transform="translate(17.591043, 69.875955)"><g><path d="M 1.28125 -11.578125 L 5.34375 -11.578125 C 6.476562 -11.578125 7.347656 -11.300781 7.953125 -10.75 C 8.554688 -10.195312 8.859375 -9.445312 8.859375 -8.5 C 8.859375 -7.832031 8.691406 -7.300781 8.359375 -6.90625 C 8.035156 -6.519531 7.570312 -6.238281 6.96875 -6.0625 L 6.96875 -5.953125 C 7.6875 -5.773438 8.238281 -5.460938 8.625 -5.015625 C 9.019531 -4.578125 9.21875 -3.96875 9.21875 -3.1875 C 9.21875 -2.207031 8.910156 -1.429688 8.296875 -0.859375 C 7.691406 -0.285156 6.832031 0 5.71875 0 L 1.28125 0 Z M 4.96875 -1.75 C 5.5625 -1.75 5.992188 -1.847656 6.265625 -2.046875 C 6.546875 -2.242188 6.6875 -2.609375 6.6875 -3.140625 L 6.6875 -3.625 C 6.6875 -4.144531 6.546875 -4.503906 6.265625 -4.703125 C 5.992188 -4.910156 5.5625 -5.015625 4.96875 -5.015625 L 3.703125 -5.015625 L 3.703125 -1.75 Z M 4.640625 -6.671875 C 5.234375 -6.671875 5.660156 -6.765625 5.921875 -6.953125 C 6.191406 -7.148438 6.328125 -7.503906 6.328125 -8.015625 L 6.328125 -8.515625 C 6.328125 -9.023438 6.191406 -9.375 5.921875 -9.5625 C 5.660156 -9.75 5.234375 -9.84375 4.640625 -9.84375 L 3.703125 -9.84375 L 3.703125 -6.671875 Z M 4.640625 -6.671875 "/></g></g></g><g fill="#0841d4" fill-opacity="1"><g transform="translate(27.541038, 69.875955)"><g><path d="M 7.21875 0 L 6.484375 -2.78125 L 3.3125 -2.78125 L 2.609375 0 L 0.078125 0 L 3.21875 -11.578125 L 6.734375 -11.578125 L 9.875 0 Z M 4.984375 -9.171875 L 4.84375 -9.171875 L 3.71875 -4.796875 L 6.109375 -4.796875 Z M 4.984375 -9.171875 "/></g></g></g><g fill="#0841d4" fill-opacity="1"><g transform="translate(37.491033, 69.875955)"><g><path d="M 4.796875 0.203125 C 3.816406 0.203125 2.96875 0.0390625 2.25 -0.28125 C 1.53125 -0.601562 0.953125 -1.039062 0.515625 -1.59375 L 1.953125 -3.1875 C 2.378906 -2.71875 2.84375 -2.375 3.34375 -2.15625 C 3.84375 -1.9375 4.351562 -1.828125 4.875 -1.828125 C 5.476562 -1.828125 5.929688 -1.957031 6.234375 -2.21875 C 6.546875 -2.488281 6.703125 -2.875 6.703125 -3.375 C 6.703125 -3.78125 6.582031 -4.085938 6.34375 -4.296875 C 6.101562 -4.503906 5.703125 -4.65625 5.140625 -4.75 L 3.9375 -4.9375 C 2.894531 -5.113281 2.140625 -5.5 1.671875 -6.09375 C 1.210938 -6.6875 0.984375 -7.410156 0.984375 -8.265625 C 0.984375 -9.378906 1.347656 -10.242188 2.078125 -10.859375 C 2.804688 -11.472656 3.828125 -11.78125 5.140625 -11.78125 C 6.035156 -11.78125 6.816406 -11.640625 7.484375 -11.359375 C 8.148438 -11.085938 8.6875 -10.710938 9.09375 -10.234375 L 7.6875 -8.65625 C 7.375 -9 7.003906 -9.265625 6.578125 -9.453125 C 6.160156 -9.648438 5.6875 -9.75 5.15625 -9.75 C 4.039062 -9.75 3.484375 -9.289062 3.484375 -8.375 C 3.484375 -7.976562 3.609375 -7.679688 3.859375 -7.484375 C 4.109375 -7.285156 4.515625 -7.132812 5.078125 -7.03125 L 6.28125 -6.8125 C 7.226562 -6.65625 7.953125 -6.300781 8.453125 -5.75 C 8.960938 -5.207031 9.21875 -4.476562 9.21875 -3.5625 C 9.21875 -3.019531 9.125 -2.519531 8.9375 -2.0625 C 8.75 -1.601562 8.46875 -1.203125 8.09375 -0.859375 C 7.71875 -0.523438 7.253906 -0.265625 6.703125 -0.078125 C 6.160156 0.109375 5.523438 0.203125 4.796875 0.203125 Z M 4.796875 0.203125 "/></g></g></g><g fill="#0841d4" fill-opacity="1"><g transform="translate(47.441028, 69.875955)"><g><path d="M 1.328125 0 L 1.328125 -11.578125 L 8.734375 -11.578125 L 8.734375 -9.546875 L 3.8125 -9.546875 L 3.8125 -6.890625 L 8.5625 -6.890625 L 8.5625 -4.84375 L 3.8125 -4.84375 L 3.8125 -2.046875 L 8.734375 -2.046875 L 8.734375 0 Z M 1.328125 0 "/></g></g></g></svg>