<svg xmlns="http://www.w3.org/2000/svg" xmlns:xlink="http://www.w3.org/1999/xlink" width="100" zoomAndPan="magnify" viewBox="0 0 75 74.999997" height="100" preserveAspectRatio="xMidYMid meet" version="1.0"><defs><g/><clipPath id="374e1fe340"><path d="M 16.871094 2.234375 L 58.121094 2.234375 L 58.121094 59.984375 L 16.871094 59.984375 Z M 16.871094 2.234375 " clip-rule="nonzero"/></clipPath></defs><g clip-path="url(#374e1fe340)"><path fill="#000000" d="M 37.496094 2.257812 C 29.246094 18.492188 16.871094 26.988281 16.871094 39.355469 C 16.871094 50.734375 26.105469 59.960938 37.496094 59.960938 C 48.886719 59.960938 58.121094 50.734375 58.121094 39.355469 C 58.121094 26.988281 45.746094 18.746094 37.496094 2.257812 Z M 37.496094 2.257812 " fill-opacity="1" fill-rule="nonzero"/></g><g fill="#000000" fill-opacity="1"><g transform="translate(9.840823, 70.791432)"><g><path d="M 5.671875 -4.09375 L 5.78125 -6.671875 L 5.65625 -6.671875 L 3.953125 -1.9375 L 2.234375 -6.671875 L 2.125 -6.671875 L 2.21875 -4.09375 L 2.21875 0 L 0.515625 0 L 0.515625 -9.1875 L 2.84375 -9.1875 L 3.984375 -6.09375 L 4.078125 -6.09375 L 5.21875 -9.1875 L 7.390625 -9.1875 L 7.390625 0 L 5.671875 0 Z M 5.671875 -4.09375 "/></g></g></g><g fill="#000000" fill-opacity="1"><g transform="translate(17.740332, 70.791432)"><g><path d="M 3.953125 0.15625 C 2.722656 0.15625 1.816406 -0.257812 1.234375 -1.09375 C 0.648438 -1.925781 0.359375 -3.09375 0.359375 -4.59375 C 0.359375 -6.09375 0.648438 -7.257812 1.234375 -8.09375 C 1.816406 -8.9375 2.722656 -9.359375 3.953125 -9.359375 C 5.179688 -9.359375 6.085938 -8.9375 6.671875 -8.09375 C 7.253906 -7.257812 7.546875 -6.09375 7.546875 -4.59375 C 7.546875 -3.09375 7.253906 -1.925781 6.671875 -1.09375 C 6.085938 -0.257812 5.179688 0.15625 3.953125 0.15625 Z M 3.953125 -1.4375 C 4.515625 -1.4375 4.898438 -1.644531 5.109375 -2.0625 C 5.328125 -2.476562 5.4375 -3.0625 5.4375 -3.8125 L 5.4375 -5.40625 C 5.4375 -6.132812 5.328125 -6.707031 5.109375 -7.125 C 4.898438 -7.550781 4.515625 -7.765625 3.953125 -7.765625 C 3.390625 -7.765625 3 -7.550781 2.78125 -7.125 C 2.570312 -6.707031 2.46875 -6.132812 2.46875 -5.40625 L 2.46875 -3.796875 C 2.46875 -3.054688 2.570312 -2.476562 2.78125 -2.0625 C 3 -1.644531 3.390625 -1.4375 3.953125 -1.4375 Z M 3.953125 -1.4375 "/></g></g></g><g fill="#000000" fill-opacity="1"><g transform="translate(25.639841, 70.791432)"><g><path d="M 0.84375 -9.1875 L 3.8125 -9.1875 C 5.039062 -9.1875 5.953125 -8.789062 6.546875 -8 C 7.148438 -7.21875 7.453125 -6.082031 7.453125 -4.59375 C 7.453125 -3.113281 7.148438 -1.976562 6.546875 -1.1875 C 5.953125 -0.394531 5.039062 0 3.8125 0 L 0.84375 0 Z M 3.671875 -1.546875 C 4.265625 -1.546875 4.695312 -1.734375 4.96875 -2.109375 C 5.238281 -2.492188 5.375 -3.046875 5.375 -3.765625 L 5.375 -5.4375 C 5.375 -6.144531 5.238281 -6.6875 4.96875 -7.0625 C 4.695312 -7.445312 4.265625 -7.640625 3.671875 -7.640625 L 2.796875 -7.640625 L 2.796875 -1.546875 Z M 3.671875 -1.546875 "/></g></g></g><g fill="#000000" fill-opacity="1"><g transform="translate(33.53935, 70.791432)"><g><path d="M 2.703125 -9.1875 L 2.703125 -3.375 C 2.703125 -3.082031 2.710938 -2.816406 2.734375 -2.578125 C 2.753906 -2.335938 2.804688 -2.132812 2.890625 -1.96875 C 2.972656 -1.800781 3.097656 -1.671875 3.265625 -1.578125 C 3.429688 -1.484375 3.660156 -1.4375 3.953125 -1.4375 C 4.242188 -1.4375 4.472656 -1.484375 4.640625 -1.578125 C 4.804688 -1.671875 4.929688 -1.800781 5.015625 -1.96875 C 5.097656 -2.132812 5.148438 -2.335938 5.171875 -2.578125 C 5.191406 -2.816406 5.203125 -3.082031 5.203125 -3.375 L 5.203125 -9.1875 L 7.171875 -9.1875 L 7.171875 -3.640625 C 7.171875 -3.003906 7.128906 -2.445312 7.046875 -1.96875 C 6.960938 -1.5 6.800781 -1.101562 6.5625 -0.78125 C 6.332031 -0.46875 6.003906 -0.234375 5.578125 -0.078125 C 5.160156 0.078125 4.617188 0.15625 3.953125 0.15625 C 3.285156 0.15625 2.738281 0.078125 2.3125 -0.078125 C 1.894531 -0.234375 1.566406 -0.46875 1.328125 -0.78125 C 1.085938 -1.101562 0.925781 -1.5 0.84375 -1.96875 C 0.757812 -2.445312 0.71875 -3.003906 0.71875 -3.640625 L 0.71875 -9.1875 Z M 2.703125 -9.1875 "/></g></g></g><g fill="#000000" fill-opacity="1"><g transform="translate(41.43886, 70.791432)"><g><path d="M 1.21875 0 L 1.21875 -9.1875 L 3.203125 -9.1875 L 3.203125 -1.625 L 7.15625 -1.625 L 7.15625 0 Z M 1.21875 0 "/></g></g></g><g fill="#000000" fill-opacity="1"><g transform="translate(49.338369, 70.791432)"><g><path d="M 2.703125 -9.1875 L 2.703125 -3.375 C 2.703125 -3.082031 2.710938 -2.816406 2.734375 -2.578125 C 2.753906 -2.335938 2.804688 -2.132812 2.890625 -1.96875 C 2.972656 -1.800781 3.097656 -1.671875 3.265625 -1.578125 C 3.429688 -1.484375 3.660156 -1.4375 3.953125 -1.4375 C 4.242188 -1.4375 4.472656 -1.484375 4.640625 -1.578125 C 4.804688 -1.671875 4.929688 -1.800781 5.015625 -1.96875 C 5.097656 -2.132812 5.148438 -2.335938 5.171875 -2.578125 C 5.191406 -2.816406 5.203125 -3.082031 5.203125 -3.375 L 5.203125 -9.1875 L 7.171875 -9.1875 L 7.171875 -3.640625 C 7.171875 -3.003906 7.128906 -2.445312 7.046875 -1.96875 C 6.960938 -1.5 6.800781 -1.101562 6.5625 -0.78125 C 6.332031 -0.46875 6.003906 -0.234375 5.578125 -0.078125 C 5.160156 0.078125 4.617188 0.15625 3.953125 0.15625 C 3.285156 0.15625 2.738281 0.078125 2.3125 -0.078125 C 1.894531 -0.234375 1.566406 -0.46875 1.328125 -0.78125 C 1.085938 -1.101562 0.925781 -1.5 0.84375 -1.96875 C 0.757812 -2.445312 0.71875 -3.003906 0.71875 -3.640625 L 0.71875 -9.1875 Z M 2.703125 -9.1875 "/></g></g></g><g fill="#000000" fill-opacity="1"><g transform="translate(57.237878, 70.791432)"><g><path d="M 3.8125 0.15625 C 3.03125 0.15625 2.351562 0.03125 1.78125 -0.21875 C 1.21875 -0.476562 0.757812 -0.828125 0.40625 -1.265625 L 1.546875 -2.53125 C 1.890625 -2.15625 2.257812 -1.878906 2.65625 -1.703125 C 3.050781 -1.535156 3.457031 -1.453125 3.875 -1.453125 C 4.34375 -1.453125 4.703125 -1.554688 4.953125 -1.765625 C 5.203125 -1.972656 5.328125 -2.273438 5.328125 -2.671875 C 5.328125 -2.992188 5.226562 -3.238281 5.03125 -3.40625 C 4.84375 -3.570312 4.523438 -3.691406 4.078125 -3.765625 L 3.125 -3.921875 C 2.300781 -4.066406 1.703125 -4.375 1.328125 -4.84375 C 0.960938 -5.3125 0.78125 -5.882812 0.78125 -6.5625 C 0.78125 -7.445312 1.066406 -8.132812 1.640625 -8.625 C 2.222656 -9.113281 3.035156 -9.359375 4.078125 -9.359375 C 4.796875 -9.359375 5.414062 -9.242188 5.9375 -9.015625 C 6.46875 -8.796875 6.894531 -8.5 7.21875 -8.125 L 6.09375 -6.875 C 5.851562 -7.144531 5.566406 -7.359375 5.234375 -7.515625 C 4.898438 -7.671875 4.519531 -7.75 4.09375 -7.75 C 3.207031 -7.75 2.765625 -7.382812 2.765625 -6.65625 C 2.765625 -6.332031 2.863281 -6.09375 3.0625 -5.9375 C 3.257812 -5.78125 3.582031 -5.660156 4.03125 -5.578125 L 4.984375 -5.40625 C 5.734375 -5.28125 6.3125 -5 6.71875 -4.5625 C 7.125 -4.132812 7.328125 -3.554688 7.328125 -2.828125 C 7.328125 -2.398438 7.25 -2.003906 7.09375 -1.640625 C 6.945312 -1.273438 6.722656 -0.957031 6.421875 -0.6875 C 6.128906 -0.425781 5.765625 -0.21875 5.328125 -0.0625 C 4.890625 0.0820312 4.382812 0.15625 3.8125 0.15625 Z M 3.8125 0.15625 "/></g></g></g></svg>