<svg xmlns="http://www.w3.org/2000/svg" xmlns:xlink="http://www.w3.org/1999/xlink" width="300" zoomAndPan="magnify" viewBox="0 0 224.87999 74.999997" height="100" preserveAspectRatio="xMidYMid meet" version="1.0"><defs><g/><clipPath id="df5863094d"><path d="M 151.390625 0.0195312 L 224.761719 0.0195312 L 224.761719 74.980469 L 151.390625 74.980469 Z M 151.390625 0.0195312 " clip-rule="nonzero"/></clipPath><clipPath id="e7cb2727c0"><path d="M 224.878906 37.5 L 188.136719 0.0195312 L 188.136719 18.390625 L 151.390625 18.390625 L 151.390625 56.609375 L 188.136719 56.609375 L 188.136719 74.980469 Z M 224.878906 37.5 " clip-rule="nonzero"/></clipPath><clipPath id="1f975eee55"><path d="M 151.390625 0.0234375 L 224.761719 0.0234375 L 224.761719 74.980469 L 151.390625 74.980469 Z M 151.390625 0.0234375 " clip-rule="nonzero"/></clipPath><clipPath id="480530421d"><path d="M 224.875 37.5 L 188.132812 0.0234375 L 188.132812 18.394531 L 151.390625 18.394531 L 151.390625 56.605469 L 188.132812 56.605469 L 188.132812 74.976562 Z M 224.875 37.5 " clip-rule="nonzero"/></clipPath><clipPath id="952c62ae20"><path d="M 0 0.0195312 L 157 0.0195312 L 157 49 L 0 49 Z M 0 0.0195312 " clip-rule="nonzero"/></clipPath><clipPath id="cd32303eba"><path d="M 0 22 L 157 22 L 157 74.980469 L 0 74.980469 Z M 0 22 " clip-rule="nonzero"/></clipPath></defs><g clip-path="url(#df5863094d)"><g clip-path="url(#e7cb2727c0)"><path fill="#fffb47" d="M 151.390625 0.0195312 L 224.878906 0.0195312 L 224.878906 74.945312 L 151.390625 74.945312 Z M 151.390625 0.0195312 " fill-opacity="1" fill-rule="nonzero"/></g></g><g clip-path="url(#1f975eee55)"><g clip-path="url(#480530421d)"><path stroke-linecap="butt" transform="matrix(0.7496, 0, 0, 0.7496, 151.389788, 0.0230451)" fill="none" stroke-linejoin="miter" d="M 98.032569 49.995939 L 49.016842 0.000523456 L 49.016842 24.508387 L 0.00111627 24.508387 L 0.00111627 75.483491 L 49.016842 75.483491 L 49.016842 99.991354 Z M 98.032569 49.995939 " stroke="#000000" stroke-width="14" stroke-opacity="1" stroke-miterlimit="4"/></g></g><g clip-path="url(#952c62ae20)"><path stroke-linecap="butt" transform="matrix(0.783769, 0, 0, 0.783769, -1.038237, -0.390479)" fill="none" stroke-linejoin="miter" d="M 13.29608 41.461151 C 11.083214 41.461151 9.1644 41.127228 7.52967 40.464365 C 5.899924 39.791534 4.668892 38.879474 3.846544 37.723202 L 7.051212 34.74281 C 7.823722 35.600046 8.725814 36.262909 9.762472 36.741367 C 10.804114 37.21484 11.995274 37.449085 13.335952 37.449085 C 14.472289 37.449085 15.359429 37.274648 16.002356 36.930756 C 16.640299 36.586865 16.959271 36.0486 16.959271 35.32593 C 16.959271 34.762745 16.739978 34.369015 16.301392 34.149722 C 15.86779 33.930429 15.264734 33.755991 14.492224 33.631393 L 11.287555 33.123031 C 10.390447 32.998433 9.558131 32.799076 8.785621 32.529943 C 8.013111 32.260811 7.340281 31.892 6.777096 31.428494 C 6.213912 30.964989 5.760374 30.39682 5.421466 29.733957 C 5.087543 29.061126 4.923073 28.248745 4.923073 27.301798 C 4.923073 25.218514 5.720502 23.583784 7.315361 22.402592 C 8.910219 21.216416 11.148005 20.623328 14.033702 20.623328 C 15.98242 20.623328 17.647054 20.887476 19.022619 21.410789 C 20.408153 21.939086 21.509602 22.696644 22.331951 23.673495 L 19.476157 26.913051 C 18.878085 26.275108 18.115544 25.731859 17.188532 25.293273 C 16.266504 24.854687 15.150103 24.635394 13.844313 24.635394 C 11.626463 24.635394 10.515046 25.303241 10.515046 26.643919 C 10.515046 27.232023 10.739323 27.635721 11.177909 27.855014 C 11.616495 28.079291 12.219551 28.253729 12.987077 28.383311 L 16.151874 28.881705 C 17.053966 29.011287 17.891267 29.20566 18.658792 29.479777 C 19.431302 29.748909 20.104133 30.112736 20.682269 30.581226 C 21.265389 31.044731 21.723911 31.6129 22.057834 32.285731 C 22.391758 32.948594 22.556228 33.755991 22.556228 34.707922 C 22.556228 36.791206 21.753815 38.440888 20.144004 39.651984 C 18.539178 40.858095 16.256537 41.461151 13.29608 41.461151 Z M 37.213975 41.461151 C 33.874739 41.461151 31.337918 40.53414 29.613477 38.680117 C 27.89402 36.831078 27.0318 34.309208 27.0318 31.114507 C 27.0318 29.494728 27.256077 28.03942 27.699647 26.743597 C 28.153184 25.447775 28.796112 24.341342 29.633413 23.429282 C 30.465729 22.512238 31.482452 21.814488 32.673612 21.33603 C 33.874739 20.862556 35.220401 20.623328 36.715581 20.623328 C 38.205777 20.623328 39.541471 20.862556 40.722663 21.33603 C 41.908839 21.814488 42.91061 22.492303 43.737943 23.364491 C 44.560292 24.236679 45.198235 25.298257 45.646789 26.549224 C 46.100327 27.795207 46.324604 29.190708 46.324604 30.730744 L 46.324604 32.435249 L 32.703515 32.435249 L 32.703515 32.784124 C 32.703515 34.064995 33.10223 35.096669 33.899659 35.88413 C 34.697088 36.671592 35.868313 37.060339 37.413332 37.060339 C 38.594524 37.060339 39.611246 36.841045 40.458515 36.392491 C 41.305784 35.938954 42.038422 35.340882 42.661413 34.593292 L 45.741484 37.947479 C 44.968974 38.904394 43.887461 39.726743 42.501927 40.424493 C 41.11141 41.11726 39.352082 41.461151 37.213975 41.461151 Z M 36.755453 24.710153 C 35.514453 24.710153 34.532619 25.088932 33.794997 25.851473 C 33.067342 26.609031 32.703515 27.635721 32.703515 28.921576 L 32.703515 29.23058 L 40.727647 29.23058 L 40.727647 28.921576 C 40.727647 27.610802 40.373788 26.579128 39.66607 25.831538 C 38.963335 25.083948 37.991468 24.710153 36.755453 24.710153 Z M 50.75532 40.997646 L 50.75532 21.08185 L 56.461924 21.08185 L 56.461924 24.710153 L 56.696168 24.710153 C 56.930413 24.146968 57.214497 23.618671 57.543437 23.13523 C 57.877361 22.646804 58.286043 22.218186 58.759517 21.844391 C 59.237974 21.470596 59.791191 21.17156 60.419166 20.952267 C 61.052126 20.732974 61.769812 20.623328 62.567241 20.623328 C 63.514189 20.623328 64.386377 20.782814 65.18879 21.111753 C 65.986219 21.430725 66.664034 21.914166 67.232203 22.562078 C 67.795387 23.205005 68.238957 23.982498 68.557929 24.90951 C 68.886868 25.831538 69.051338 26.898099 69.051338 28.109195 L 69.051338 40.997646 L 63.339751 40.997646 L 63.339751 28.881705 C 63.339751 26.309995 62.218366 25.019157 59.975596 25.019157 C 59.541994 25.019157 59.113376 25.078964 58.684758 25.198578 C 58.256139 25.313209 57.877361 25.49263 57.543437 25.736843 C 57.214497 25.981056 56.950349 26.285075 56.755976 26.648903 C 56.561602 27.007746 56.461924 27.43138 56.461924 27.914822 L 56.461924 40.997646 Z M 86.559895 37.374326 L 86.290762 37.374326 C 85.772433 38.580438 85.059731 39.562273 84.142687 40.319831 C 83.230627 41.082372 81.974676 41.461151 80.379818 41.461151 C 79.278369 41.461151 78.26663 41.25681 77.349587 40.848128 C 76.437527 40.434461 75.655049 39.801502 75.002154 38.954233 C 74.349259 38.106964 73.835914 37.025451 73.457135 35.714677 C 73.088324 34.403902 72.898934 32.843931 72.898934 31.039748 C 72.898934 29.245532 73.088324 27.690545 73.457135 26.37977 C 73.835914 25.064012 74.349259 23.982498 75.002154 23.13523 C 75.655049 22.282977 76.437527 21.650018 77.349587 21.241335 C 78.26663 20.827669 79.278369 20.623328 80.379818 20.623328 C 81.177247 20.623328 81.884965 20.723006 82.502973 20.932332 C 83.120981 21.141657 83.674197 21.425741 84.147671 21.789568 C 84.626129 22.148411 85.039795 22.577029 85.383686 23.080407 C 85.727578 23.5788 86.031598 24.122049 86.290762 24.710153 L 86.559895 24.710153 L 86.559895 12.444694 L 92.271482 12.444694 L 92.271482 40.997646 L 86.559895 40.997646 Z M 82.861816 37.025451 C 83.858603 37.025451 84.725807 36.781238 85.458445 36.287829 C 86.196067 35.799403 86.559895 35.031878 86.559895 33.980268 L 86.559895 28.109195 C 86.559895 27.057585 86.196067 26.285075 85.458445 25.791666 C 84.725807 25.303241 83.858603 25.059028 82.861816 25.059028 C 81.570978 25.059028 80.579175 25.452759 79.881424 26.235236 C 79.193642 27.022698 78.844766 28.109195 78.844766 29.494728 L 78.844766 32.584767 C 78.844766 33.975284 79.193642 35.061781 79.881424 35.844259 C 80.579175 36.63172 81.570978 37.025451 82.861816 37.025451 Z M 130.498247 18.540044 C 129.212393 18.540044 128.315285 18.275895 127.816891 17.747598 C 127.313514 17.219301 127.059334 16.581358 127.059334 15.833768 L 127.059334 14.722351 C 127.059334 13.949841 127.313514 13.306914 127.816891 12.793569 C 128.315285 12.27524 129.212393 12.021059 130.498247 12.021059 C 131.789086 12.021059 132.68121 12.27524 133.174619 12.793569 C 133.677997 13.306914 133.932177 13.949841 133.932177 14.722351 L 133.932177 15.833768 C 133.932177 16.581358 133.677997 17.219301 133.174619 17.747598 C 132.68121 18.275895 131.789086 18.540044 130.498247 18.540044 Z M 121.312859 36.561945 L 127.647438 36.561945 L 127.647438 25.532502 L 121.312859 25.532502 L 121.312859 21.08185 L 133.354041 21.08185 L 133.354041 36.561945 L 139.225114 36.561945 L 139.225114 40.997646 L 121.312859 40.997646 Z M 153.95762 40.997646 C 151.899255 40.997646 150.364204 40.459381 149.362434 39.377867 C 148.355679 38.301338 147.852302 36.925772 147.852302 35.251171 L 147.852302 25.532502 L 142.454703 25.532502 L 142.454703 21.08185 L 145.968375 21.08185 C 146.815644 21.08185 147.4187 20.91738 147.777543 20.583456 C 148.14137 20.249533 148.325776 19.636509 148.325776 18.739401 L 148.325776 14.064472 L 153.573857 14.064472 L 153.573857 21.08185 L 161.323873 21.08185 L 161.323873 25.532502 L 153.573857 25.532502 L 153.573857 36.561945 L 161.323873 36.561945 L 161.323873 40.997646 Z M 174.62599 31.627852 L 172.433059 21.894231 L 172.433059 14.064472 L 178.687895 14.064472 L 178.687895 21.894231 L 176.484997 31.627852 Z M 175.557985 41.461151 C 174.172452 41.461151 173.190617 41.167099 172.622449 40.574011 C 172.05428 39.985907 171.770196 39.278189 171.770196 38.45584 L 171.770196 37.219824 C 171.770196 36.422395 172.059264 35.729628 172.6374 35.141524 C 173.225504 34.543452 174.197371 34.244416 175.557985 34.244416 C 176.923583 34.244416 177.89545 34.543452 178.468602 35.141524 C 179.046738 35.729628 179.335806 36.422395 179.335806 37.219824 L 179.335806 38.45584 C 179.335806 39.278189 179.056706 39.985907 178.488538 40.574011 C 177.925353 41.167099 176.948502 41.461151 175.557985 41.461151 Z M 175.557985 41.461151 " stroke="#000000" stroke-width="3.762623" stroke-opacity="1" stroke-miterlimit="4"/></g><g fill="#f4d738" fill-opacity="1"><g transform="translate(0.492561, 31.744033)"><g><path d="M 8.890625 0.359375 C 7.160156 0.359375 5.65625 0.0976562 4.375 -0.421875 C 3.09375 -0.941406 2.128906 -1.660156 1.484375 -2.578125 L 4 -4.90625 C 4.601562 -4.238281 5.3125 -3.71875 6.125 -3.34375 C 6.9375 -2.96875 7.867188 -2.78125 8.921875 -2.78125 C 9.804688 -2.78125 10.5 -2.914062 11 -3.1875 C 11.507812 -3.457031 11.765625 -3.878906 11.765625 -4.453125 C 11.765625 -4.890625 11.59375 -5.191406 11.25 -5.359375 C 10.90625 -5.535156 10.429688 -5.675781 9.828125 -5.78125 L 7.328125 -6.171875 C 6.617188 -6.273438 5.960938 -6.429688 5.359375 -6.640625 C 4.753906 -6.847656 4.226562 -7.132812 3.78125 -7.5 C 3.332031 -7.863281 2.976562 -8.304688 2.71875 -8.828125 C 2.457031 -9.359375 2.328125 -9.992188 2.328125 -10.734375 C 2.328125 -12.367188 2.953125 -13.648438 4.203125 -14.578125 C 5.453125 -15.503906 7.207031 -15.96875 9.46875 -15.96875 C 11 -15.96875 12.300781 -15.757812 13.375 -15.34375 C 14.457031 -14.9375 15.320312 -14.347656 15.96875 -13.578125 L 13.734375 -11.046875 C 13.265625 -11.546875 12.664062 -11.96875 11.9375 -12.3125 C 11.21875 -12.65625 10.34375 -12.828125 9.3125 -12.828125 C 7.582031 -12.828125 6.71875 -12.300781 6.71875 -11.25 C 6.71875 -10.789062 6.890625 -10.472656 7.234375 -10.296875 C 7.578125 -10.128906 8.050781 -9.992188 8.65625 -9.890625 L 11.125 -9.5 C 11.832031 -9.394531 12.488281 -9.238281 13.09375 -9.03125 C 13.695312 -8.820312 14.222656 -8.535156 14.671875 -8.171875 C 15.128906 -7.804688 15.488281 -7.359375 15.75 -6.828125 C 16.019531 -6.304688 16.15625 -5.675781 16.15625 -4.9375 C 16.15625 -3.300781 15.523438 -2.007812 14.265625 -1.0625 C 13.003906 -0.113281 11.210938 0.359375 8.890625 0.359375 Z M 8.890625 0.359375 "/></g></g></g><g fill="#f4d738" fill-opacity="1"><g transform="translate(18.634311, 31.744033)"><g><path d="M 9.5 0.359375 C 6.875 0.359375 4.882812 -0.363281 3.53125 -1.8125 C 2.1875 -3.269531 1.515625 -5.25 1.515625 -7.75 C 1.515625 -9.019531 1.691406 -10.160156 2.046875 -11.171875 C 2.398438 -12.191406 2.898438 -13.0625 3.546875 -13.78125 C 4.203125 -14.5 5 -15.039062 5.9375 -15.40625 C 6.875 -15.78125 7.929688 -15.96875 9.109375 -15.96875 C 10.273438 -15.96875 11.320312 -15.78125 12.25 -15.40625 C 13.175781 -15.039062 13.960938 -14.515625 14.609375 -13.828125 C 15.253906 -13.140625 15.753906 -12.304688 16.109375 -11.328125 C 16.460938 -10.347656 16.640625 -9.253906 16.640625 -8.046875 L 16.640625 -6.71875 L 5.953125 -6.71875 L 5.953125 -6.4375 C 5.953125 -5.4375 6.265625 -4.625 6.890625 -4 C 7.515625 -3.382812 8.4375 -3.078125 9.65625 -3.078125 C 10.582031 -3.078125 11.375 -3.253906 12.03125 -3.609375 C 12.695312 -3.960938 13.273438 -4.429688 13.765625 -5.015625 L 16.1875 -2.390625 C 15.582031 -1.640625 14.734375 -0.992188 13.640625 -0.453125 C 12.554688 0.0859375 11.175781 0.359375 9.5 0.359375 Z M 9.140625 -12.765625 C 8.171875 -12.765625 7.394531 -12.46875 6.8125 -11.875 C 6.238281 -11.28125 5.953125 -10.476562 5.953125 -9.46875 L 5.953125 -9.21875 L 12.25 -9.21875 L 12.25 -9.46875 C 12.25 -10.5 11.972656 -11.304688 11.421875 -11.890625 C 10.867188 -12.472656 10.109375 -12.765625 9.140625 -12.765625 Z M 9.140625 -12.765625 "/></g></g></g><g fill="#f4d738" fill-opacity="1"><g transform="translate(36.776061, 31.744033)"><g><path d="M 1.96875 0 L 1.96875 -15.609375 L 6.4375 -15.609375 L 6.4375 -12.765625 L 6.625 -12.765625 C 6.800781 -13.210938 7.019531 -13.625 7.28125 -14 C 7.550781 -14.382812 7.867188 -14.722656 8.234375 -15.015625 C 8.609375 -15.304688 9.039062 -15.535156 9.53125 -15.703125 C 10.03125 -15.878906 10.59375 -15.96875 11.21875 -15.96875 C 11.96875 -15.96875 12.65625 -15.84375 13.28125 -15.59375 C 13.90625 -15.34375 14.4375 -14.960938 14.875 -14.453125 C 15.320312 -13.953125 15.671875 -13.335938 15.921875 -12.609375 C 16.179688 -11.890625 16.3125 -11.054688 16.3125 -10.109375 L 16.3125 0 L 11.828125 0 L 11.828125 -9.5 C 11.828125 -11.519531 10.953125 -12.53125 9.203125 -12.53125 C 8.859375 -12.53125 8.519531 -12.484375 8.1875 -12.390625 C 7.851562 -12.296875 7.550781 -12.148438 7.28125 -11.953125 C 7.019531 -11.765625 6.8125 -11.53125 6.65625 -11.25 C 6.507812 -10.96875 6.4375 -10.632812 6.4375 -10.25 L 6.4375 0 Z M 1.96875 0 "/></g></g></g><g fill="#f4d738" fill-opacity="1"><g transform="translate(54.917811, 31.744033)"><g><path d="M 11.890625 -2.84375 L 11.671875 -2.84375 C 11.273438 -1.894531 10.71875 -1.125 10 -0.53125 C 9.28125 0.0625 8.296875 0.359375 7.046875 0.359375 C 6.179688 0.359375 5.390625 0.195312 4.671875 -0.125 C 3.953125 -0.445312 3.335938 -0.9375 2.828125 -1.59375 C 2.316406 -2.257812 1.914062 -3.109375 1.625 -4.140625 C 1.332031 -5.171875 1.1875 -6.390625 1.1875 -7.796875 C 1.1875 -9.210938 1.332031 -10.429688 1.625 -11.453125 C 1.914062 -12.484375 2.316406 -13.332031 2.828125 -14 C 3.335938 -14.664062 3.953125 -15.160156 4.671875 -15.484375 C 5.390625 -15.804688 6.179688 -15.96875 7.046875 -15.96875 C 7.671875 -15.96875 8.222656 -15.882812 8.703125 -15.71875 C 9.191406 -15.5625 9.625 -15.34375 10 -15.0625 C 10.375 -14.78125 10.695312 -14.441406 10.96875 -14.046875 C 11.238281 -13.660156 11.472656 -13.234375 11.671875 -12.765625 L 11.890625 -12.765625 L 11.890625 -22.390625 L 16.359375 -22.390625 L 16.359375 0 L 11.890625 0 Z M 8.984375 -3.109375 C 9.765625 -3.109375 10.441406 -3.300781 11.015625 -3.6875 C 11.597656 -4.070312 11.890625 -4.675781 11.890625 -5.5 L 11.890625 -10.109375 C 11.890625 -10.929688 11.597656 -11.535156 11.015625 -11.921875 C 10.441406 -12.304688 9.765625 -12.5 8.984375 -12.5 C 7.972656 -12.5 7.195312 -12.1875 6.65625 -11.5625 C 6.113281 -10.945312 5.84375 -10.097656 5.84375 -9.015625 L 5.84375 -6.59375 C 5.84375 -5.507812 6.113281 -4.65625 6.65625 -4.03125 C 7.195312 -3.414062 7.972656 -3.109375 8.984375 -3.109375 Z M 8.984375 -3.109375 "/></g></g></g><g fill="#f4d738" fill-opacity="1"><g transform="translate(73.059561, 31.744033)"><g/></g></g><g fill="#f4d738" fill-opacity="1"><g transform="translate(91.201311, 31.744033)"><g><path d="M 10.046875 -17.609375 C 9.035156 -17.609375 8.332031 -17.8125 7.9375 -18.21875 C 7.539062 -18.632812 7.34375 -19.132812 7.34375 -19.71875 L 7.34375 -20.59375 C 7.34375 -21.195312 7.539062 -21.703125 7.9375 -22.109375 C 8.332031 -22.515625 9.035156 -22.71875 10.046875 -22.71875 C 11.054688 -22.71875 11.753906 -22.515625 12.140625 -22.109375 C 12.535156 -21.703125 12.734375 -21.195312 12.734375 -20.59375 L 12.734375 -19.71875 C 12.734375 -19.132812 12.535156 -18.632812 12.140625 -18.21875 C 11.753906 -17.8125 11.054688 -17.609375 10.046875 -17.609375 Z M 2.84375 -3.484375 L 7.796875 -3.484375 L 7.796875 -12.125 L 2.84375 -12.125 L 2.84375 -15.609375 L 12.28125 -15.609375 L 12.28125 -3.484375 L 16.875 -3.484375 L 16.875 0 L 2.84375 0 Z M 2.84375 -3.484375 "/></g></g></g><g fill="#f4d738" fill-opacity="1"><g transform="translate(109.343061, 31.744033)"><g><path d="M 10.28125 0 C 8.664062 0 7.460938 -0.421875 6.671875 -1.265625 C 5.890625 -2.117188 5.5 -3.195312 5.5 -4.5 L 5.5 -12.125 L 1.265625 -12.125 L 1.265625 -15.609375 L 4.015625 -15.609375 C 4.679688 -15.609375 5.15625 -15.738281 5.4375 -16 C 5.726562 -16.257812 5.875 -16.742188 5.875 -17.453125 L 5.875 -21.109375 L 9.984375 -21.109375 L 9.984375 -15.609375 L 16.0625 -15.609375 L 16.0625 -12.125 L 9.984375 -12.125 L 9.984375 -3.484375 L 16.0625 -3.484375 L 16.0625 0 Z M 10.28125 0 "/></g></g></g><g fill="#f4d738" fill-opacity="1"><g transform="translate(127.484811, 31.744033)"><g><path d="M 8.34375 -7.34375 L 6.625 -14.96875 L 6.625 -21.109375 L 11.53125 -21.109375 L 11.53125 -14.96875 L 9.796875 -7.34375 Z M 9.078125 0.359375 C 7.984375 0.359375 7.210938 0.128906 6.765625 -0.328125 C 6.328125 -0.796875 6.109375 -1.351562 6.109375 -2 L 6.109375 -2.96875 C 6.109375 -3.59375 6.332031 -4.132812 6.78125 -4.59375 C 7.238281 -5.0625 8.003906 -5.296875 9.078125 -5.296875 C 10.140625 -5.296875 10.898438 -5.0625 11.359375 -4.59375 C 11.816406 -4.132812 12.046875 -3.59375 12.046875 -2.96875 L 12.046875 -2 C 12.046875 -1.351562 11.820312 -0.796875 11.375 -0.328125 C 10.925781 0.128906 10.160156 0.359375 9.078125 0.359375 Z M 9.078125 0.359375 "/></g></g></g><g clip-path="url(#cd32303eba)"><path stroke-linecap="butt" transform="matrix(0.709991, 0, 0, 0.709991, -1.038237, 30.163916)" fill="none" stroke-linejoin="miter" d="M 14.677714 45.511325 C 12.240405 45.511325 10.116699 45.142702 8.3121 44.405457 C 6.513002 43.662711 5.15405 42.655876 4.246249 41.379452 L 7.783924 38.094861 C 8.636707 39.035674 9.632538 39.772918 10.776918 40.301094 C 11.9268 40.818266 13.241737 41.076852 14.721729 41.076852 C 15.976146 41.076852 16.955471 40.889789 17.665207 40.504662 C 18.369441 40.125035 18.721558 39.53634 18.721558 38.738575 C 18.721558 38.116868 18.479477 37.682224 17.995316 37.440144 C 17.516657 37.198063 16.850936 37.005499 15.998153 36.867953 L 12.460478 36.306767 C 11.470149 36.169221 10.551343 35.949148 9.69856 35.65205 C 8.845777 35.349449 8.10303 34.947816 7.481324 34.430644 C 6.859617 33.918974 6.358951 33.297267 5.984826 32.560022 C 5.616204 31.817276 5.434644 30.92598 5.434644 29.87513 C 5.434644 27.575367 6.314936 25.770767 8.075521 24.472336 C 9.836106 23.157399 12.306426 22.502681 15.491985 22.502681 C 17.643199 22.502681 19.48081 22.794278 20.999314 23.377472 C 22.528822 23.960666 23.744726 24.791442 24.652528 25.875302 L 21.49998 29.45149 C 20.839761 28.741754 19.997982 28.147557 18.974642 27.663396 C 17.956803 27.179235 16.724394 26.937155 15.282915 26.937155 C 12.834602 26.937155 11.607694 27.674399 11.607694 29.148889 C 11.607694 29.803607 11.855277 30.249255 12.339437 30.491335 C 12.823598 30.733416 13.489319 30.92598 14.336601 31.074529 L 17.830261 31.624712 C 18.826092 31.762257 19.750399 31.98233 20.597681 32.279429 C 21.450464 32.576528 22.193211 32.983663 22.831423 33.495333 C 23.475137 34.012505 23.981305 34.639713 24.349927 35.376958 C 24.71855 36.114203 24.90011 37.005499 24.90011 38.050846 C 24.90011 40.356112 24.014316 42.177217 22.237225 43.514161 C 20.465637 44.845604 17.9458 45.511325 14.677714 45.511325 Z M 41.086487 45.511325 C 37.400262 45.511325 34.599832 44.487985 32.6962 42.441305 C 30.792567 40.394625 29.846253 37.6107 29.846253 34.08953 C 29.846253 32.301436 30.088334 30.694903 30.583498 29.264428 C 31.084164 27.828451 31.7939 26.607045 32.712705 25.605712 C 33.637012 24.593376 34.759385 23.82312 36.074322 23.294945 C 37.400262 22.766769 38.885756 22.502681 40.536304 22.502681 C 42.181351 22.502681 43.650339 22.766769 44.954272 23.294945 C 46.269209 23.82312 47.375076 24.565867 48.282878 25.528687 C 49.190679 26.491506 49.894913 27.663396 50.395579 29.044355 C 50.896246 30.425313 51.143828 31.965825 51.143828 33.66589 L 51.143828 35.547515 L 36.107333 35.547515 L 36.107333 35.932643 C 36.107333 37.346612 36.547479 38.485491 37.427772 39.35478 C 38.308064 40.218567 39.600994 40.653211 41.30656 40.653211 C 42.610493 40.653211 43.727364 40.405629 44.662675 39.915966 C 45.603488 39.4153 46.412256 38.75508 47.099985 37.929806 L 50.500114 41.632536 C 49.647331 42.683385 48.453434 43.596689 46.923926 44.366945 C 45.388916 45.126197 43.446771 45.511325 41.086487 45.511325 Z M 40.580319 27.019682 C 39.210364 27.019682 38.121002 27.437821 37.312233 28.274099 C 36.508966 29.115878 36.107333 30.243753 36.107333 31.668726 L 36.107333 32.00984 L 44.965276 32.00984 L 44.965276 31.668726 C 44.965276 30.216244 44.574646 29.082867 43.793386 28.257593 C 43.017629 27.432319 41.944772 27.019682 40.580319 27.019682 Z M 56.034953 44.999655 L 56.034953 23.014351 L 62.340047 23.014351 L 62.340047 27.019682 L 62.598633 27.019682 C 62.851717 26.392474 63.165322 25.814782 63.533944 25.281104 C 63.902566 24.741925 64.348214 24.263266 64.87639 23.856131 C 65.404565 23.437992 66.015268 23.113384 66.708499 22.865802 C 67.407231 22.623722 68.193992 22.502681 69.079786 22.502681 C 70.125134 22.502681 71.087953 22.684242 71.968246 23.047362 C 72.848538 23.399479 73.602289 23.933157 74.223995 24.648394 C 74.851204 25.352628 75.340866 26.216415 75.692983 27.234253 C 76.050602 28.257593 76.232162 29.434984 76.232162 30.771928 L 76.232162 44.999655 L 69.93257 44.999655 L 69.93257 31.624712 C 69.93257 28.780267 68.694658 27.360795 66.218836 27.360795 C 65.740177 27.360795 65.261518 27.426817 64.793863 27.558861 C 64.320705 27.685403 63.902566 27.883469 63.533944 28.153058 C 63.165322 28.422648 62.873725 28.758259 62.659153 29.159893 C 62.444582 29.556024 62.340047 30.018178 62.340047 30.551855 L 62.340047 44.999655 Z M 95.571087 40.994324 L 95.268486 40.994324 C 94.701798 42.325767 93.909535 43.409627 92.897198 44.251406 C 91.890364 45.087684 90.509405 45.511325 88.74882 45.511325 C 87.527414 45.511325 86.410543 45.28575 85.398207 44.8346 C 84.391373 44.377948 83.527586 43.679216 82.806846 42.743905 C 82.086107 41.808595 81.519419 40.614698 81.10128 39.167717 C 80.694145 37.715235 80.490577 35.998665 80.490577 34.007003 C 80.490577 32.026345 80.694145 30.309775 81.10128 28.857292 C 81.519419 27.410312 82.086107 26.216415 82.806846 25.281104 C 83.527586 24.340292 84.391373 23.64156 85.398207 23.19041 C 86.410543 22.733758 87.527414 22.502681 88.74882 22.502681 C 89.629113 22.502681 90.40487 22.61822 91.087097 22.849297 C 91.774825 23.074871 92.380026 23.393977 92.908202 23.795611 C 93.436377 24.186241 93.887527 24.6649 94.267153 25.220584 C 94.652281 25.765265 94.982391 26.364964 95.268486 27.019682 L 95.571087 27.019682 L 95.571087 13.474182 L 101.870679 13.474182 L 101.870679 44.999655 L 95.571087 44.999655 Z M 91.483229 40.609196 C 92.583594 40.609196 93.540912 40.339607 94.355183 39.800428 C 95.163951 39.261249 95.571087 38.408465 95.571087 37.253081 L 95.571087 30.771928 C 95.571087 29.605541 95.163951 28.752758 94.355183 28.213579 C 93.540912 27.674399 92.583594 27.40481 91.483229 27.40481 C 90.058255 27.40481 88.963392 27.833952 88.193136 28.703241 C 87.433883 29.567028 87.054257 30.766427 87.054257 32.301436 L 87.054257 35.71257 C 87.054257 37.242078 87.433883 38.446978 88.193136 39.310765 C 88.963392 40.180054 90.058255 40.609196 91.483229 40.609196 Z M 144.080701 20.202917 C 142.66123 20.202917 141.670901 19.916822 141.115216 19.333629 C 140.565033 18.750435 140.28444 18.046201 140.28444 17.220927 L 140.28444 15.994019 C 140.28444 15.141236 140.565033 14.4315 141.115216 13.85931 C 141.670901 13.292622 142.66123 13.006527 144.080701 13.006527 C 145.505675 13.006527 146.490502 13.292622 147.035183 13.85931 C 147.590867 14.4315 147.865959 15.141236 147.865959 15.994019 L 147.865959 17.220927 C 147.865959 18.046201 147.590867 18.750435 147.035183 19.333629 C 146.490502 19.916822 145.505675 20.202917 144.080701 20.202917 Z M 133.940833 40.103028 L 140.928154 40.103028 L 140.928154 27.921982 L 133.940833 27.921982 L 133.940833 23.014351 L 147.233248 23.014351 L 147.233248 40.103028 L 153.714401 40.103028 L 153.714401 44.999655 L 133.940833 44.999655 Z M 169.983306 44.999655 C 167.705549 44.999655 166.016488 44.405457 164.905119 43.211561 C 163.799252 42.017664 163.243567 40.49916 163.243567 38.656047 L 163.243567 27.921982 L 157.285088 27.921982 L 157.285088 23.014351 L 161.163876 23.014351 C 162.099187 23.014351 162.764908 22.827289 163.16104 22.464169 C 163.562673 22.095546 163.760739 21.41332 163.760739 20.422991 L 163.760739 15.267778 L 169.554163 15.267778 L 169.554163 23.014351 L 178.115007 23.014351 L 178.115007 27.921982 L 169.554163 27.921982 L 169.554163 40.103028 L 178.115007 40.103028 L 178.115007 44.999655 Z M 192.804887 34.650717 L 190.378581 23.905647 L 190.378581 15.267778 L 197.283375 15.267778 L 197.283375 23.905647 L 194.851567 34.650717 Z M 193.833729 45.511325 C 192.298719 45.511325 191.220361 45.181215 190.587651 44.531999 C 189.960442 43.882784 189.65234 43.101524 189.65234 42.193723 L 189.65234 40.829269 C 189.65234 39.948977 189.971446 39.184223 190.609658 38.529505 C 191.253372 37.874788 192.326228 37.544678 193.833729 37.544678 C 195.335728 37.544678 196.408584 37.874788 197.046796 38.529505 C 197.685008 39.184223 198.004114 39.948977 198.004114 40.829269 L 198.004114 42.193723 C 198.004114 43.101524 197.69051 43.882784 197.068804 44.531999 C 196.441595 45.181215 195.363237 45.511325 193.833729 45.511325 Z M 193.833729 45.511325 " stroke="#000000" stroke-width="4.153607" stroke-opacity="1" stroke-miterlimit="4"/></g><g fill="#a388ee" fill-opacity="1"><g transform="translate(0.492681, 62.113526)"><g><path d="M 8.890625 0.359375 C 7.160156 0.359375 5.65625 0.0976562 4.375 -0.421875 C 3.09375 -0.941406 2.128906 -1.660156 1.484375 -2.578125 L 4 -4.90625 C 4.601562 -4.238281 5.3125 -3.71875 6.125 -3.34375 C 6.9375 -2.96875 7.867188 -2.78125 8.921875 -2.78125 C 9.804688 -2.78125 10.5 -2.914062 11 -3.1875 C 11.507812 -3.457031 11.765625 -3.878906 11.765625 -4.453125 C 11.765625 -4.890625 11.59375 -5.191406 11.25 -5.359375 C 10.90625 -5.535156 10.429688 -5.675781 9.828125 -5.78125 L 7.328125 -6.171875 C 6.617188 -6.273438 5.960938 -6.429688 5.359375 -6.640625 C 4.753906 -6.847656 4.226562 -7.132812 3.78125 -7.5 C 3.332031 -7.863281 2.976562 -8.304688 2.71875 -8.828125 C 2.457031 -9.359375 2.328125 -9.992188 2.328125 -10.734375 C 2.328125 -12.367188 2.953125 -13.648438 4.203125 -14.578125 C 5.453125 -15.503906 7.207031 -15.96875 9.46875 -15.96875 C 11 -15.96875 12.300781 -15.757812 13.375 -15.34375 C 14.457031 -14.9375 15.320312 -14.347656 15.96875 -13.578125 L 13.734375 -11.046875 C 13.265625 -11.546875 12.664062 -11.96875 11.9375 -12.3125 C 11.21875 -12.65625 10.34375 -12.828125 9.3125 -12.828125 C 7.582031 -12.828125 6.71875 -12.300781 6.71875 -11.25 C 6.71875 -10.789062 6.890625 -10.472656 7.234375 -10.296875 C 7.578125 -10.128906 8.050781 -9.992188 8.65625 -9.890625 L 11.125 -9.5 C 11.832031 -9.394531 12.488281 -9.238281 13.09375 -9.03125 C 13.695312 -8.820312 14.222656 -8.535156 14.671875 -8.171875 C 15.128906 -7.804688 15.488281 -7.359375 15.75 -6.828125 C 16.019531 -6.304688 16.15625 -5.675781 16.15625 -4.9375 C 16.15625 -3.300781 15.523438 -2.007812 14.265625 -1.0625 C 13.003906 -0.113281 11.210938 0.359375 8.890625 0.359375 Z M 8.890625 0.359375 "/></g></g></g><g fill="#a388ee" fill-opacity="1"><g transform="translate(18.637383, 62.113526)"><g><path d="M 9.5 0.359375 C 6.875 0.359375 4.882812 -0.363281 3.53125 -1.8125 C 2.1875 -3.269531 1.515625 -5.25 1.515625 -7.75 C 1.515625 -9.019531 1.691406 -10.160156 2.046875 -11.171875 C 2.398438 -12.191406 2.898438 -13.0625 3.546875 -13.78125 C 4.203125 -14.5 5 -15.039062 5.9375 -15.40625 C 6.875 -15.78125 7.929688 -15.96875 9.109375 -15.96875 C 10.273438 -15.96875 11.320312 -15.78125 12.25 -15.40625 C 13.175781 -15.039062 13.960938 -14.515625 14.609375 -13.828125 C 15.253906 -13.140625 15.753906 -12.304688 16.109375 -11.328125 C 16.460938 -10.347656 16.640625 -9.253906 16.640625 -8.046875 L 16.640625 -6.71875 L 5.953125 -6.71875 L 5.953125 -6.4375 C 5.953125 -5.4375 6.265625 -4.625 6.890625 -4 C 7.515625 -3.382812 8.4375 -3.078125 9.65625 -3.078125 C 10.582031 -3.078125 11.375 -3.253906 12.03125 -3.609375 C 12.695312 -3.960938 13.273438 -4.429688 13.765625 -5.015625 L 16.1875 -2.390625 C 15.582031 -1.640625 14.734375 -0.992188 13.640625 -0.453125 C 12.554688 0.0859375 11.175781 0.359375 9.5 0.359375 Z M 9.140625 -12.765625 C 8.171875 -12.765625 7.394531 -12.46875 6.8125 -11.875 C 6.238281 -11.28125 5.953125 -10.476562 5.953125 -9.46875 L 5.953125 -9.21875 L 12.25 -9.21875 L 12.25 -9.46875 C 12.25 -10.5 11.972656 -11.304688 11.421875 -11.890625 C 10.867188 -12.472656 10.109375 -12.765625 9.140625 -12.765625 Z M 9.140625 -12.765625 "/></g></g></g><g fill="#a388ee" fill-opacity="1"><g transform="translate(36.782084, 62.113526)"><g><path d="M 1.96875 0 L 1.96875 -15.609375 L 6.4375 -15.609375 L 6.4375 -12.765625 L 6.625 -12.765625 C 6.800781 -13.210938 7.019531 -13.625 7.28125 -14 C 7.550781 -14.382812 7.867188 -14.722656 8.234375 -15.015625 C 8.609375 -15.304688 9.039062 -15.535156 9.53125 -15.703125 C 10.03125 -15.878906 10.59375 -15.96875 11.21875 -15.96875 C 11.96875 -15.96875 12.65625 -15.84375 13.28125 -15.59375 C 13.90625 -15.34375 14.4375 -14.960938 14.875 -14.453125 C 15.320312 -13.953125 15.671875 -13.335938 15.921875 -12.609375 C 16.179688 -11.890625 16.3125 -11.054688 16.3125 -10.109375 L 16.3125 0 L 11.828125 0 L 11.828125 -9.5 C 11.828125 -11.519531 10.953125 -12.53125 9.203125 -12.53125 C 8.859375 -12.53125 8.519531 -12.484375 8.1875 -12.390625 C 7.851562 -12.296875 7.550781 -12.148438 7.28125 -11.953125 C 7.019531 -11.765625 6.8125 -11.53125 6.65625 -11.25 C 6.507812 -10.96875 6.4375 -10.632812 6.4375 -10.25 L 6.4375 0 Z M 1.96875 0 "/></g></g></g><g fill="#a388ee" fill-opacity="1"><g transform="translate(54.926785, 62.113526)"><g><path d="M 11.890625 -2.84375 L 11.671875 -2.84375 C 11.273438 -1.894531 10.71875 -1.125 10 -0.53125 C 9.28125 0.0625 8.296875 0.359375 7.046875 0.359375 C 6.179688 0.359375 5.390625 0.195312 4.671875 -0.125 C 3.953125 -0.445312 3.335938 -0.9375 2.828125 -1.59375 C 2.316406 -2.257812 1.914062 -3.109375 1.625 -4.140625 C 1.332031 -5.171875 1.1875 -6.390625 1.1875 -7.796875 C 1.1875 -9.210938 1.332031 -10.429688 1.625 -11.453125 C 1.914062 -12.484375 2.316406 -13.332031 2.828125 -14 C 3.335938 -14.664062 3.953125 -15.160156 4.671875 -15.484375 C 5.390625 -15.804688 6.179688 -15.96875 7.046875 -15.96875 C 7.671875 -15.96875 8.222656 -15.882812 8.703125 -15.71875 C 9.191406 -15.5625 9.625 -15.34375 10 -15.0625 C 10.375 -14.78125 10.695312 -14.441406 10.96875 -14.046875 C 11.238281 -13.660156 11.472656 -13.234375 11.671875 -12.765625 L 11.890625 -12.765625 L 11.890625 -22.390625 L 16.359375 -22.390625 L 16.359375 0 L 11.890625 0 Z M 8.984375 -3.109375 C 9.765625 -3.109375 10.441406 -3.300781 11.015625 -3.6875 C 11.597656 -4.070312 11.890625 -4.675781 11.890625 -5.5 L 11.890625 -10.109375 C 11.890625 -10.929688 11.597656 -11.535156 11.015625 -11.921875 C 10.441406 -12.304688 9.765625 -12.5 8.984375 -12.5 C 7.972656 -12.5 7.195312 -12.1875 6.65625 -11.5625 C 6.113281 -10.945312 5.84375 -10.097656 5.84375 -9.015625 L 5.84375 -6.59375 C 5.84375 -5.507812 6.113281 -4.65625 6.65625 -4.03125 C 7.195312 -3.414062 7.972656 -3.109375 8.984375 -3.109375 Z M 8.984375 -3.109375 "/></g></g></g><g fill="#a388ee" fill-opacity="1"><g transform="translate(73.071486, 62.113526)"><g/></g></g><g fill="#a388ee" fill-opacity="1"><g transform="translate(91.216188, 62.113526)"><g><path d="M 10.046875 -17.609375 C 9.035156 -17.609375 8.332031 -17.8125 7.9375 -18.21875 C 7.539062 -18.632812 7.34375 -19.132812 7.34375 -19.71875 L 7.34375 -20.59375 C 7.34375 -21.195312 7.539062 -21.703125 7.9375 -22.109375 C 8.332031 -22.515625 9.035156 -22.71875 10.046875 -22.71875 C 11.054688 -22.71875 11.753906 -22.515625 12.140625 -22.109375 C 12.535156 -21.703125 12.734375 -21.195312 12.734375 -20.59375 L 12.734375 -19.71875 C 12.734375 -19.132812 12.535156 -18.632812 12.140625 -18.21875 C 11.753906 -17.8125 11.054688 -17.609375 10.046875 -17.609375 Z M 2.84375 -3.484375 L 7.796875 -3.484375 L 7.796875 -12.125 L 2.84375 -12.125 L 2.84375 -15.609375 L 12.28125 -15.609375 L 12.28125 -3.484375 L 16.875 -3.484375 L 16.875 0 L 2.84375 0 Z M 2.84375 -3.484375 "/></g></g></g><g fill="#a388ee" fill-opacity="1"><g transform="translate(109.360889, 62.113526)"><g><path d="M 10.28125 0 C 8.664062 0 7.460938 -0.421875 6.671875 -1.265625 C 5.890625 -2.117188 5.5 -3.195312 5.5 -4.5 L 5.5 -12.125 L 1.265625 -12.125 L 1.265625 -15.609375 L 4.015625 -15.609375 C 4.679688 -15.609375 5.15625 -15.738281 5.4375 -16 C 5.726562 -16.257812 5.875 -16.742188 5.875 -17.453125 L 5.875 -21.109375 L 9.984375 -21.109375 L 9.984375 -15.609375 L 16.0625 -15.609375 L 16.0625 -12.125 L 9.984375 -12.125 L 9.984375 -3.484375 L 16.0625 -3.484375 L 16.0625 0 Z M 10.28125 0 "/></g></g></g><g fill="#a388ee" fill-opacity="1"><g transform="translate(127.50559, 62.113526)"><g><path d="M 8.34375 -7.34375 L 6.625 -14.96875 L 6.625 -21.109375 L 11.53125 -21.109375 L 11.53125 -14.96875 L 9.796875 -7.34375 Z M 9.078125 0.359375 C 7.984375 0.359375 7.210938 0.128906 6.765625 -0.328125 C 6.328125 -0.796875 6.109375 -1.351562 6.109375 -2 L 6.109375 -2.96875 C 6.109375 -3.59375 6.332031 -4.132812 6.78125 -4.59375 C 7.238281 -5.0625 8.003906 -5.296875 9.078125 -5.296875 C 10.140625 -5.296875 10.898438 -5.0625 11.359375 -4.59375 C 11.816406 -4.132812 12.046875 -3.59375 12.046875 -2.96875 L 12.046875 -2 C 12.046875 -1.351562 11.820312 -0.796875 11.375 -0.328125 C 10.925781 0.128906 10.160156 0.359375 9.078125 0.359375 Z M 9.078125 0.359375 "/></g></g></g></svg>