<svg xmlns="http://www.w3.org/2000/svg" xmlns:xlink="http://www.w3.org/1999/xlink" width="300" zoomAndPan="magnify" viewBox="0 0 224.87999 74.999997" height="100" preserveAspectRatio="xMidYMid meet" version="1.0"><defs><clipPath id="4dd8eadbab"><path d="M 25.097656 5.101562 L 41.449219 5.101562 L 41.449219 38.144531 L 25.097656 38.144531 Z M 25.097656 5.101562 " clip-rule="nonzero"/></clipPath><clipPath id="70277fcd49"><path d="M 39.457031 8.8125 C 32.335938 7.691406 30.984375 8.515625 30.160156 8.964844 C 29.710938 9.265625 29.488281 9.265625 29.1875 9.714844 C 28.664062 10.839844 28.664062 14.960938 28.8125 16.609375 C 28.960938 17.585938 28.960938 18.183594 29.414062 18.933594 C 29.9375 19.910156 31.0625 21.03125 32.335938 21.855469 C 33.835938 22.90625 36.457031 23.507812 37.882812 24.480469 C 39.007812 25.304688 39.980469 26.203125 40.582031 27.105469 C 41.03125 27.929688 41.332031 28.902344 41.40625 29.804688 C 41.40625 30.777344 41.179688 31.675781 40.65625 32.652344 C 39.980469 33.925781 38.707031 35.726562 37.058594 36.699219 C 34.960938 37.824219 30.761719 38.347656 28.664062 38.046875 C 27.238281 37.824219 25.8125 37.148438 25.4375 36.472656 C 25.140625 35.949219 25.363281 34.898438 25.664062 34.675781 C 26.039062 34.449219 27.539062 34.976562 27.613281 35.351562 C 27.6875 35.726562 26.714844 36.925781 26.265625 36.925781 C 25.890625 36.925781 25.214844 36.25 25.140625 35.875 C 25.140625 35.425781 25.8125 34.527344 26.265625 34.449219 C 26.789062 34.375 27.3125 35.425781 28.136719 35.574219 C 29.710938 35.949219 33.460938 35.425781 35.109375 34.75 C 36.160156 34.300781 36.90625 33.699219 37.507812 32.953125 C 38.109375 32.203125 38.558594 31.078125 38.707031 30.328125 C 38.78125 29.804688 38.78125 29.351562 38.558594 28.902344 C 38.257812 28.304688 37.582031 27.628906 36.757812 26.953125 C 35.410156 26.054688 32.785156 25.605469 31.210938 24.40625 C 29.636719 23.355469 27.988281 21.707031 27.164062 20.28125 C 26.488281 19.160156 26.414062 18.109375 26.265625 16.683594 C 26.039062 14.660156 25.964844 10.6875 26.636719 9.039062 C 27.011719 8.140625 27.464844 7.765625 28.289062 7.164062 C 29.414062 6.339844 31.210938 5.292969 33.011719 5.140625 C 35.109375 4.917969 39.382812 5.816406 40.28125 6.714844 C 40.730469 7.089844 40.804688 7.839844 40.65625 8.214844 C 40.507812 8.515625 39.457031 8.8125 39.457031 8.8125 " clip-rule="nonzero"/></clipPath><clipPath id="a3c8221fca"><path d="M 47.203125 6.789062 L 64.925781 6.789062 L 64.925781 33.921875 L 47.203125 33.921875 Z M 47.203125 6.789062 " clip-rule="nonzero"/></clipPath><clipPath id="dcb2d264cd"><path d="M 49.953125 8.066406 C 49.875 21.332031 49.953125 23.582031 50.625 25.679688 C 51.152344 27.703125 52.199219 31.003906 53.175781 31.226562 C 53.847656 31.453125 54.597656 30.476562 55.273438 29.726562 C 56.246094 28.753906 57.296875 27.03125 57.972656 25.457031 C 58.722656 23.582031 59.246094 21.40625 59.621094 19.234375 C 60.070312 16.835938 59.546875 12.863281 60.296875 11.585938 C 60.59375 11.0625 61.195312 10.6875 61.644531 10.6875 C 62.019531 10.761719 62.46875 11.289062 62.695312 11.886719 C 63.070312 13.460938 61.269531 17.660156 61.195312 20.65625 C 61.046875 23.804688 60.746094 28.828125 61.945312 30.328125 C 62.621094 31.226562 64.417969 30.777344 64.71875 31.378906 C 65.019531 31.753906 64.792969 32.578125 64.492188 32.875 C 64.195312 33.175781 63.292969 33.25 62.917969 33.101562 C 62.621094 32.953125 62.320312 32.425781 62.320312 32.050781 C 62.320312 31.675781 62.769531 30.925781 63.144531 30.777344 C 63.519531 30.628906 64.042969 30.703125 64.34375 30.925781 C 64.644531 31.152344 64.941406 31.675781 64.867188 32.050781 C 64.792969 32.425781 64.117188 33.175781 63.519531 33.25 C 62.621094 33.402344 60.746094 32.5 60.070312 31.976562 C 59.695312 31.675781 59.621094 31.453125 59.394531 30.851562 C 58.945312 29.203125 58.648438 23.582031 58.722656 20.507812 C 58.796875 17.882812 58.945312 15.109375 59.621094 13.386719 C 59.996094 12.1875 60.746094 10.839844 61.34375 10.6875 C 61.71875 10.613281 62.394531 11.136719 62.621094 11.664062 C 62.917969 12.261719 62.621094 13.160156 62.542969 14.285156 C 62.394531 16.160156 62.019531 19.609375 61.496094 21.933594 C 61.046875 23.957031 60.746094 25.605469 59.769531 27.40625 C 58.722656 29.429688 56.847656 32.277344 55.347656 33.175781 C 54.375 33.777344 53.175781 34 52.425781 33.777344 C 51.675781 33.550781 51.226562 32.875 50.699219 32.125 C 49.875 31.003906 48.976562 29.203125 48.453125 27.328125 C 47.777344 24.929688 47.628906 21.78125 47.550781 18.710938 C 47.328125 15.261719 46.953125 9.265625 47.777344 7.691406 C 48.078125 7.164062 48.675781 6.867188 49.050781 6.867188 C 49.351562 6.941406 49.953125 8.066406 49.953125 8.066406 " clip-rule="nonzero"/></clipPath><clipPath id="37eb8dd48f"><path d="M 68.53125 6.4375 L 80.167969 6.4375 L 80.167969 46.675781 L 68.53125 46.675781 Z M 68.53125 6.4375 " clip-rule="nonzero"/></clipPath><clipPath id="521adc71fe"><path d="M 72.289062 9.113281 C 71.914062 46.144531 71.691406 46.519531 71.316406 46.59375 C 70.941406 46.742188 70.191406 46.667969 69.742188 46.070312 C 68.015625 43.519531 68.917969 23.882812 69.515625 16.984375 C 69.816406 13.085938 70.414062 9.488281 71.164062 7.914062 C 71.390625 7.238281 71.613281 6.867188 72.0625 6.640625 C 72.664062 6.339844 73.863281 6.414062 74.6875 6.714844 C 75.8125 7.089844 77.160156 7.765625 77.984375 9.1875 C 79.410156 11.585938 80.460938 18.859375 80.085938 21.484375 C 79.933594 22.683594 79.484375 23.355469 78.886719 24.105469 C 78.285156 24.855469 77.613281 25.457031 76.636719 25.90625 C 75.363281 26.503906 72.515625 27.179688 71.316406 27.03125 C 70.714844 26.953125 70.117188 26.65625 69.964844 26.28125 C 69.816406 25.980469 69.816406 25.378906 70.039062 25.082031 C 70.265625 24.78125 71.089844 24.480469 71.464844 24.554688 C 71.839844 24.628906 72.289062 25.003906 72.363281 25.378906 C 72.4375 25.753906 72.214844 26.65625 71.839844 26.804688 C 71.464844 27.03125 70.265625 26.730469 70.039062 26.429688 C 69.816406 26.054688 69.816406 25.230469 70.191406 24.855469 C 70.789062 24.179688 73.414062 24.628906 74.613281 24.03125 C 75.8125 23.429688 77.085938 22.757812 77.535156 21.484375 C 78.359375 19.308594 77.160156 13.386719 76.039062 11.214844 C 75.4375 9.863281 74.164062 8.363281 73.488281 8.589844 C 72.664062 8.8125 72.4375 12.636719 72.140625 15.261719 C 71.691406 18.859375 71.539062 23.582031 71.464844 28.230469 C 71.464844 33.550781 72.8125 43.144531 72.140625 45.46875 C 71.914062 46.144531 71.691406 46.519531 71.316406 46.59375 C 70.941406 46.742188 70.191406 46.667969 69.742188 46.070312 C 67.792969 43.144531 68.542969 12.636719 70.191406 9.113281 C 70.488281 8.441406 71.015625 8.066406 71.390625 8.066406 C 71.691406 8.066406 72.289062 9.113281 72.289062 9.113281 " clip-rule="nonzero"/></clipPath><clipPath id="9f629fa987"><path d="M 80.632812 7.941406 L 85.222656 7.941406 L 85.222656 46.476562 L 80.632812 46.476562 Z M 80.632812 7.941406 " clip-rule="nonzero"/></clipPath><clipPath id="5e2bc274dc"><path d="M 85.183594 9.039062 C 83.234375 35.800781 84.359375 43.597656 83.457031 45.542969 C 83.234375 46.144531 82.859375 46.371094 82.484375 46.445312 C 82.109375 46.519531 81.507812 46.292969 81.210938 45.84375 C 80.535156 44.796875 80.835938 41.570312 80.757812 39.246094 C 80.683594 36.550781 80.535156 33.25 80.835938 30.476562 C 81.058594 28.078125 81.359375 24.78125 81.960938 23.730469 C 82.257812 23.28125 82.484375 23.058594 82.859375 22.980469 C 83.234375 22.90625 84.058594 23.28125 84.207031 23.582031 C 84.359375 23.957031 83.984375 25.15625 83.609375 25.230469 C 83.234375 25.378906 81.960938 24.628906 81.882812 24.257812 C 81.882812 23.882812 82.707031 22.980469 83.082031 22.980469 C 83.535156 22.980469 84.132812 23.582031 84.359375 24.257812 C 84.734375 25.679688 83.234375 29.128906 83.007812 32.050781 C 82.785156 35.949219 84.359375 43.746094 83.457031 45.542969 C 83.160156 46.144531 82.558594 46.445312 82.183594 46.445312 C 81.808594 46.445312 81.359375 46.144531 81.132812 45.542969 C 80.308594 43.671875 80.835938 36.175781 81.132812 31.601562 C 81.433594 27.179688 82.484375 22.605469 82.859375 18.558594 C 83.082031 15.035156 82.332031 10.164062 83.082031 8.738281 C 83.382812 8.214844 83.90625 7.914062 84.28125 7.988281 C 84.582031 7.988281 85.183594 9.039062 85.183594 9.039062 " clip-rule="nonzero"/></clipPath><clipPath id="68dc6e8625"><path d="M 81.878906 6.25 L 98.09375 6.25 L 98.09375 25.125 L 81.878906 25.125 Z M 81.878906 6.25 " clip-rule="nonzero"/></clipPath><clipPath id="95869be779"><path d="M 82.109375 20.808594 C 82.933594 7.988281 82.859375 7.464844 83.308594 7.089844 C 83.757812 6.566406 84.808594 6.492188 85.707031 6.414062 C 86.757812 6.265625 88.179688 6.265625 89.378906 6.566406 C 90.578125 6.941406 91.929688 7.390625 93.054688 8.363281 C 94.550781 9.640625 96.277344 12.1875 97.101562 14.0625 C 97.699219 15.5625 98.300781 17.136719 97.925781 18.410156 C 97.625 19.683594 96.277344 20.808594 95.226562 21.632812 C 94.175781 22.53125 92.753906 23.207031 91.480469 23.730469 C 90.128906 24.257812 88.855469 24.628906 87.429688 24.78125 C 85.855469 25.003906 83.234375 25.304688 82.484375 24.855469 C 82.109375 24.554688 81.960938 24.03125 81.960938 23.730469 C 82.035156 23.355469 82.332031 22.832031 82.632812 22.683594 C 83.082031 22.53125 84.28125 22.90625 84.433594 23.28125 C 84.65625 23.65625 84.132812 24.855469 83.757812 25.003906 C 83.382812 25.230469 82.484375 24.929688 82.257812 24.628906 C 82.035156 24.332031 81.882812 23.507812 82.257812 23.058594 C 83.082031 22.082031 88.105469 22.382812 90.429688 21.40625 C 92.453125 20.507812 95.152344 19.234375 95.527344 17.660156 C 95.902344 15.785156 93.054688 12.039062 91.554688 10.613281 C 90.503906 9.640625 89.457031 9.1875 88.332031 8.964844 C 87.054688 8.738281 84.507812 9.488281 84.433594 9.1875 C 84.359375 9.039062 85.105469 8.363281 85.257812 8.441406 C 85.933594 8.8125 85.332031 19.457031 84.359375 21.183594 C 83.984375 21.78125 83.457031 22.082031 83.082031 22.007812 C 82.707031 21.933594 82.109375 20.808594 82.109375 20.808594 " clip-rule="nonzero"/></clipPath><clipPath id="3ab1e6ea1e"><path d="M 98.9375 7.578125 L 120.394531 7.578125 L 120.394531 28.824219 L 98.9375 28.824219 Z M 98.9375 7.578125 " clip-rule="nonzero"/></clipPath><clipPath id="c894b32004"><path d="M 107.671875 9.9375 C 102.421875 12.636719 102.125 14.511719 101.824219 15.933594 C 101.523438 17.359375 101.296875 18.859375 101.449219 20.132812 C 101.597656 21.40625 101.671875 22.757812 102.5 23.730469 C 103.546875 24.929688 106.171875 26.65625 107.820312 26.429688 C 109.394531 26.128906 111.195312 23.957031 112.242188 22.230469 C 113.441406 20.132812 114.941406 16.609375 114.117188 14.585938 C 113.21875 12.488281 107.445312 11.511719 106.546875 10.164062 C 106.097656 9.488281 106.019531 8.738281 106.320312 8.363281 C 106.546875 7.988281 107.070312 7.914062 107.894531 7.839844 C 109.992188 7.691406 117.789062 8.589844 119.4375 9.5625 C 120.039062 9.9375 120.339844 10.386719 120.339844 10.761719 C 120.339844 11.214844 119.4375 12.113281 118.988281 12.039062 C 118.613281 12.039062 117.789062 11.0625 117.789062 10.6875 C 117.863281 10.238281 118.839844 9.488281 119.289062 9.5625 C 119.664062 9.5625 120.339844 10.238281 120.339844 10.6875 C 120.339844 11.0625 119.8125 11.8125 119.140625 12.039062 C 117.488281 12.710938 111.34375 11.289062 109.09375 10.839844 C 107.96875 10.613281 106.921875 10.613281 106.472656 10.089844 C 106.171875 9.714844 106.097656 8.738281 106.320312 8.363281 C 106.472656 8.066406 107.070312 7.839844 107.671875 7.839844 C 109.09375 7.914062 112.617188 10.011719 114.191406 11.214844 C 115.242188 12.039062 116.140625 12.789062 116.515625 13.761719 C 116.890625 14.8125 116.589844 16.011719 116.441406 17.285156 C 116.140625 18.859375 115.542969 21.183594 114.792969 22.757812 C 114.117188 24.105469 113.292969 25.230469 112.316406 26.203125 C 111.34375 27.179688 109.917969 28.304688 108.71875 28.679688 C 107.671875 28.976562 106.621094 28.753906 105.496094 28.453125 C 104.148438 28.078125 102.273438 27.03125 101.222656 26.128906 C 100.550781 25.457031 100.175781 24.929688 99.800781 24.03125 C 99.273438 22.90625 98.976562 21.257812 98.976562 19.683594 C 98.898438 17.882812 99.273438 15.484375 99.800781 13.761719 C 100.25 12.335938 100.550781 10.988281 101.597656 10.011719 C 102.871094 8.738281 106.246094 7.464844 107.445312 7.613281 C 108.046875 7.691406 108.644531 8.140625 108.71875 8.515625 C 108.792969 8.964844 107.671875 9.9375 107.671875 9.9375 " clip-rule="nonzero"/></clipPath><clipPath id="b61b53067c"><path d="M 121.902344 7.96875 L 132.578125 7.96875 L 132.578125 30.683594 L 121.902344 30.683594 Z M 121.902344 7.96875 " clip-rule="nonzero"/></clipPath><clipPath id="6346a61e6b"><path d="M 124.984375 9.1875 C 126.109375 30.179688 125.4375 30.628906 124.984375 30.628906 C 124.460938 30.550781 123.863281 29.203125 123.488281 28.230469 C 122.886719 26.730469 122.664062 24.554688 122.4375 22.457031 C 122.136719 20.058594 121.835938 16.835938 121.988281 14.511719 C 122.0625 12.636719 122.363281 10.539062 122.664062 9.488281 C 122.8125 8.890625 122.886719 8.515625 123.1875 8.289062 C 123.5625 7.988281 124.085938 7.988281 124.761719 7.988281 C 126.335938 8.066406 130.757812 8.964844 131.808594 9.863281 C 132.332031 10.238281 132.632812 10.839844 132.480469 11.214844 C 132.40625 11.585938 131.359375 12.261719 130.984375 12.1875 C 130.53125 12.113281 130.007812 11.363281 130.007812 10.988281 C 130.007812 10.613281 130.234375 10.089844 130.53125 9.9375 C 130.90625 9.714844 131.734375 9.789062 132.03125 10.011719 C 132.332031 10.164062 132.632812 10.761719 132.558594 11.0625 C 132.40625 11.511719 131.734375 12.113281 131.058594 12.1875 C 129.785156 12.414062 126.335938 9.414062 125.210938 10.238281 C 123.785156 11.136719 124.386719 16.234375 124.609375 19.308594 C 124.761719 22.605469 127.011719 27.628906 126.410156 29.351562 C 126.183594 30.101562 125.4375 30.628906 124.984375 30.628906 C 124.609375 30.550781 124.238281 30.101562 123.863281 29.351562 C 122.8125 26.730469 121.835938 11.738281 122.664062 9.1875 C 122.886719 8.515625 123.335938 8.140625 123.710938 8.066406 C 124.085938 8.066406 124.984375 9.1875 124.984375 9.1875 " clip-rule="nonzero"/></clipPath><clipPath id="1b09dd71aa"><path d="M 134.449219 1.507812 L 151 1.507812 L 151 35.949219 L 134.449219 35.949219 Z M 134.449219 1.507812 " clip-rule="nonzero"/></clipPath><clipPath id="3fb797e180"><path d="M 137.578125 2.667969 C 139.527344 33.851562 140.953125 33.402344 142.375 33.25 C 144.476562 32.953125 148.449219 30.328125 149.796875 30.628906 C 150.398438 30.777344 150.921875 31.300781 150.921875 31.675781 C 150.996094 32.125 150.246094 33.175781 149.796875 33.25 C 149.347656 33.25 148.375 32.425781 148.375 31.976562 C 148.296875 31.601562 149.199219 30.628906 149.648438 30.628906 C 150.097656 30.628906 150.921875 31.527344 150.996094 31.976562 C 150.996094 32.351562 150.773438 32.652344 150.324219 33.027344 C 149.273438 33.925781 145.226562 35.5 142.902344 35.800781 C 141.027344 36.023438 138.777344 35.800781 137.578125 35.125 C 136.679688 34.675781 136.304688 34.300781 135.855469 33.101562 C 134.355469 29.054688 133.90625 5.890625 135.332031 2.667969 C 135.628906 1.917969 136.230469 1.542969 136.605469 1.542969 C 136.90625 1.617188 137.578125 2.667969 137.578125 2.667969 " clip-rule="nonzero"/></clipPath><clipPath id="0413753f31"><path d="M 129.773438 4.757812 L 144.035156 4.757812 L 144.035156 8.214844 L 129.773438 8.214844 Z M 129.773438 4.757812 " clip-rule="nonzero"/></clipPath><clipPath id="5bd6476172"><path d="M 130.984375 4.765625 C 143.875 5.964844 144.101562 6.789062 144.027344 7.164062 C 143.875 7.539062 143.125 8.066406 142.75 7.988281 C 142.300781 7.914062 141.550781 6.941406 141.628906 6.566406 C 141.703125 6.117188 142.675781 5.441406 143.125 5.515625 C 143.5 5.589844 144.101562 6.640625 144.027344 7.089844 C 143.949219 7.464844 143.5 7.765625 142.828125 7.988281 C 140.953125 8.515625 132.332031 7.988281 130.683594 7.015625 C 130.082031 6.714844 129.785156 6.191406 129.785156 5.816406 C 129.859375 5.367188 130.984375 4.765625 130.984375 4.765625 " clip-rule="nonzero"/></clipPath><clipPath id="84b5d1af03"><path d="M 154.761719 7.640625 L 176.65625 7.640625 L 176.65625 34.761719 L 154.761719 34.761719 Z M 154.761719 7.640625 " clip-rule="nonzero"/></clipPath><clipPath id="3ab0241b16"><path d="M 155.945312 17.585938 C 170.035156 17.507812 170.488281 16.984375 171.011719 16.234375 C 171.609375 15.335938 172.359375 13.535156 171.984375 12.636719 C 171.609375 11.664062 169.960938 10.914062 168.613281 10.539062 C 167.039062 10.164062 164.640625 10.089844 162.992188 10.6875 C 161.492188 11.363281 159.992188 12.710938 159.09375 14.136719 C 158.117188 15.484375 157.667969 17.660156 157.445312 19.082031 C 157.21875 20.058594 157.070312 20.734375 157.292969 21.632812 C 157.667969 22.90625 159.917969 24.78125 159.917969 25.832031 C 159.84375 26.355469 159.019531 27.105469 159.019531 27.105469 C 159.019531 27.179688 159.46875 26.203125 159.691406 26.203125 C 160.066406 26.28125 160.21875 28.304688 160.742188 29.128906 C 161.265625 29.878906 161.941406 30.402344 162.691406 30.851562 C 163.441406 31.378906 164.191406 31.675781 165.164062 31.902344 C 166.4375 32.203125 168.464844 32.277344 169.738281 32.125 C 170.636719 31.976562 171.3125 31.902344 172.136719 31.453125 C 173.109375 30.925781 174.234375 28.976562 175.132812 28.902344 C 175.660156 28.902344 176.558594 29.578125 176.632812 30.027344 C 176.707031 30.402344 176.257812 31.226562 175.882812 31.378906 C 175.507812 31.527344 174.609375 31.300781 174.382812 31.003906 C 174.085938 30.777344 174.011719 30.179688 174.085938 29.804688 C 174.234375 29.503906 174.609375 29.054688 174.984375 28.976562 C 175.359375 28.828125 176.257812 29.128906 176.484375 29.503906 C 176.707031 29.804688 176.558594 30.550781 176.332031 31.078125 C 175.957031 31.828125 174.984375 32.726562 173.859375 33.328125 C 172.585938 34.074219 170.488281 34.527344 168.6875 34.675781 C 166.8125 34.75 164.640625 34.527344 163.066406 33.925781 C 161.566406 33.402344 160.21875 32.578125 159.242188 31.453125 C 158.269531 30.253906 157.21875 28.304688 157.21875 27.03125 C 157.144531 26.128906 158.195312 24.707031 158.117188 24.707031 C 158.117188 24.628906 157.667969 26.128906 157.292969 26.128906 C 156.769531 26.203125 155.570312 24.257812 155.121094 23.132812 C 154.746094 21.855469 154.671875 20.359375 154.894531 18.859375 C 155.121094 16.984375 155.792969 14.511719 156.992188 12.789062 C 158.195312 10.988281 160.140625 9.1875 162.089844 8.441406 C 163.964844 7.613281 166.363281 7.613281 168.3125 7.914062 C 170.113281 8.289062 172.511719 9.265625 173.484375 10.3125 C 174.160156 10.988281 174.308594 11.886719 174.460938 12.710938 C 174.535156 13.535156 174.382812 14.285156 174.011719 15.1875 C 173.484375 16.535156 172.210938 18.632812 171.011719 19.457031 C 169.960938 20.207031 168.988281 20.132812 167.414062 20.28125 C 164.640625 20.582031 157.292969 20.65625 155.644531 19.757812 C 155.046875 19.457031 154.746094 18.933594 154.820312 18.558594 C 154.820312 18.183594 155.945312 17.585938 155.945312 17.585938 " clip-rule="nonzero"/></clipPath><clipPath id="e532ae6b6f"><path d="M 66.902344 50.726562 L 84.5 50.726562 L 84.5 71.164062 L 66.902344 71.164062 Z M 66.902344 50.726562 " clip-rule="nonzero"/></clipPath><clipPath id="187e662d5d"><path d="M 77.160156 53.039062 C 72.738281 54.089844 72.0625 54.390625 71.464844 55.289062 C 70.488281 56.714844 69.589844 60.3125 69.589844 62.410156 C 69.589844 63.984375 70.117188 65.632812 70.640625 66.609375 C 71.089844 67.28125 71.464844 67.734375 72.289062 68.03125 C 73.789062 68.707031 77.910156 69.15625 79.710938 68.40625 C 80.984375 67.808594 81.585938 65.558594 82.410156 65.257812 C 83.007812 65.035156 83.683594 65.183594 84.058594 65.484375 C 84.28125 65.707031 84.433594 66.308594 84.359375 66.609375 C 84.359375 66.984375 83.984375 67.433594 83.609375 67.582031 C 83.308594 67.734375 82.707031 67.734375 82.410156 67.507812 C 82.035156 67.28125 81.734375 66.457031 81.808594 66.007812 C 81.960938 65.632812 82.707031 65.035156 83.160156 65.109375 C 83.609375 65.109375 84.359375 65.859375 84.433594 66.535156 C 84.507812 67.433594 82.933594 69.605469 81.734375 70.355469 C 80.683594 71.03125 79.410156 71.105469 77.910156 71.105469 C 75.738281 71.179688 71.539062 70.882812 70.039062 69.980469 C 69.140625 69.457031 68.839844 68.855469 68.390625 68.03125 C 67.714844 66.683594 67.117188 64.507812 66.96875 62.636719 C 66.890625 60.613281 67.34375 57.988281 68.015625 56.339844 C 68.542969 55.066406 69.214844 54.015625 70.117188 53.191406 C 71.015625 52.292969 72.4375 51.542969 73.488281 51.167969 C 74.464844 50.867188 75.363281 50.71875 76.1875 50.792969 C 76.9375 50.867188 78.0625 51.089844 78.210938 51.464844 C 78.285156 51.839844 77.160156 53.039062 77.160156 53.039062 " clip-rule="nonzero"/></clipPath><clipPath id="2f1f917825"><path d="M 86.128906 44.324219 L 105.816406 44.324219 L 105.816406 69.582031 L 86.128906 69.582031 Z M 86.128906 44.324219 " clip-rule="nonzero"/></clipPath><clipPath id="a0c066555f"><path d="M 89.53125 45.46875 C 89.378906 68.558594 89.15625 68.933594 88.78125 69.007812 C 88.40625 69.15625 87.65625 69.082031 87.355469 68.707031 C 86.832031 67.957031 87.207031 65.257812 87.65625 63.386719 C 88.179688 61.0625 89.605469 57.761719 90.804688 55.890625 C 91.628906 54.613281 92.453125 53.714844 93.503906 52.890625 C 94.476562 52.140625 95.75 51.316406 96.800781 51.242188 C 97.625 51.167969 98.523438 51.464844 99.199219 52.066406 C 100.023438 52.742188 100.699219 54.089844 101 55.664062 C 101.523438 57.988281 100.023438 63.234375 100.773438 65.035156 C 101.148438 65.933594 101.898438 66.308594 102.574219 66.683594 C 103.398438 67.058594 104.746094 66.832031 105.273438 67.207031 C 105.644531 67.507812 105.871094 67.957031 105.796875 68.332031 C 105.722656 68.78125 104.820312 69.53125 104.371094 69.53125 C 103.996094 69.53125 103.546875 69.15625 103.324219 68.855469 C 103.171875 68.558594 103.097656 67.882812 103.324219 67.65625 C 103.621094 67.28125 104.746094 66.910156 105.195312 67.132812 C 105.496094 67.28125 105.871094 68.183594 105.722656 68.558594 C 105.644531 69.007812 105.046875 69.457031 104.523438 69.53125 C 103.546875 69.683594 101.597656 69.007812 100.625 68.40625 C 99.875 67.957031 99.273438 67.582031 98.898438 66.683594 C 98.074219 64.808594 98.898438 58.886719 98.523438 56.714844 C 98.375 55.664062 98.152344 54.765625 97.699219 54.316406 C 97.476562 53.941406 97.175781 53.714844 96.726562 53.789062 C 95.75 53.863281 93.503906 56.5625 92.453125 58.136719 C 91.480469 59.488281 90.953125 60.910156 90.503906 62.5625 C 89.90625 64.359375 90.355469 67.582031 89.457031 68.40625 C 88.929688 68.933594 87.957031 69.15625 87.355469 68.707031 C 85.632812 67.132812 86.007812 48.167969 87.207031 45.394531 C 87.582031 44.71875 88.105469 44.269531 88.554688 44.34375 C 88.929688 44.34375 89.53125 45.46875 89.53125 45.46875 " clip-rule="nonzero"/></clipPath><clipPath id="4ccaf523fc"><path d="M 105.238281 51.28125 L 118.351562 51.28125 L 118.351562 71.359375 L 105.238281 71.359375 Z M 105.238281 51.28125 " clip-rule="nonzero"/></clipPath><clipPath id="c1a46207fa"><path d="M 116.890625 54.464844 C 111.867188 53.789062 111.566406 54.015625 111.195312 54.464844 C 110.445312 55.066406 109.46875 56.339844 108.945312 57.464844 C 108.421875 58.664062 108.046875 60.011719 107.894531 61.4375 C 107.746094 63.011719 107.746094 65.257812 108.269531 66.382812 C 108.644531 67.207031 109.394531 68.109375 109.917969 68.109375 C 110.367188 68.183594 110.667969 67.734375 111.117188 67.207031 C 112.167969 66.160156 114.191406 63.386719 114.941406 61.136719 C 115.691406 58.8125 114.566406 54.539062 115.464844 53.566406 C 115.992188 53.039062 117.191406 52.890625 117.566406 53.339844 C 118.464844 54.238281 116.066406 60.386719 115.914062 63.460938 C 115.839844 66.007812 117.039062 69.230469 116.515625 70.429688 C 116.289062 70.957031 115.691406 71.332031 115.316406 71.332031 C 114.867188 71.257812 114.042969 70.429688 114.117188 70.054688 C 114.191406 69.605469 115.464844 68.855469 115.839844 69.007812 C 116.214844 69.15625 116.589844 70.355469 116.367188 70.65625 C 116.140625 71.03125 114.867188 71.257812 114.417969 70.882812 C 113.515625 70.207031 113.441406 67.207031 113.515625 64.960938 C 113.515625 61.8125 114.34375 55.515625 115.390625 53.863281 C 115.765625 53.265625 116.367188 52.890625 116.742188 52.890625 C 117.191406 52.890625 117.640625 53.414062 117.863281 53.863281 C 118.238281 54.464844 118.164062 55.515625 118.164062 56.5625 C 118.164062 58.0625 118.089844 59.9375 117.414062 61.8125 C 116.515625 64.285156 114.042969 68.332031 112.394531 69.683594 C 111.417969 70.429688 110.367188 70.804688 109.542969 70.730469 C 108.71875 70.65625 107.96875 70.054688 107.371094 69.457031 C 106.695312 68.933594 106.171875 68.257812 105.871094 67.28125 C 105.347656 65.859375 105.195312 63.234375 105.347656 61.359375 C 105.496094 59.710938 105.796875 58.136719 106.472656 56.714844 C 107.21875 55.140625 108.644531 53.191406 109.769531 52.292969 C 110.59375 51.691406 111.195312 51.390625 112.167969 51.316406 C 113.59375 51.167969 116.890625 51.617188 117.714844 52.367188 C 118.164062 52.742188 118.390625 53.414062 118.238281 53.789062 C 118.089844 54.164062 116.890625 54.464844 116.890625 54.464844 " clip-rule="nonzero"/></clipPath><clipPath id="ed8426a8c9"><path d="M 122.378906 51.816406 L 126.359375 51.816406 L 126.359375 71.75 L 122.378906 71.75 Z M 122.378906 51.816406 " clip-rule="nonzero"/></clipPath><clipPath id="b8e88193ca"><path d="M 124.910156 52.964844 C 125.210938 65.632812 126.636719 68.933594 126.261719 70.355469 C 126.035156 71.03125 125.585938 71.554688 125.136719 71.707031 C 124.835938 71.78125 124.3125 71.480469 124.160156 71.257812 C 123.9375 70.957031 123.9375 70.132812 124.085938 69.832031 C 124.3125 69.53125 124.761719 69.308594 125.0625 69.308594 C 125.4375 69.382812 126.109375 69.832031 126.183594 70.207031 C 126.335938 70.582031 125.960938 71.332031 125.660156 71.554688 C 125.285156 71.707031 124.609375 71.707031 124.238281 71.332031 C 123.488281 70.65625 123.335938 68.332031 123.039062 66.234375 C 122.585938 62.859375 121.988281 54.914062 122.738281 52.964844 C 122.960938 52.292969 123.335938 51.917969 123.710938 51.839844 C 124.085938 51.839844 124.910156 52.964844 124.910156 52.964844 " clip-rule="nonzero"/></clipPath><clipPath id="d43d0e100a"><path d="M 121.574219 46.707031 L 123.71875 46.707031 L 123.71875 48.570312 L 121.574219 48.570312 Z M 121.574219 46.707031 " clip-rule="nonzero"/></clipPath><clipPath id="41ceea08d6"><path d="M 123.710938 47.34375 C 122.738281 48.917969 121.835938 48.617188 121.6875 48.316406 C 121.464844 47.945312 121.613281 47.042969 121.914062 46.820312 C 122.210938 46.59375 123.410156 46.894531 123.410156 46.894531 " clip-rule="nonzero"/></clipPath><clipPath id="98ab4c40aa"><path d="M 131.300781 50.179688 L 150.664062 50.179688 L 150.664062 72.96875 L 131.300781 72.96875 Z M 131.300781 50.179688 " clip-rule="nonzero"/></clipPath><clipPath id="e81bc464e8"><path d="M 133.90625 52.964844 C 134.429688 67.433594 135.554688 70.355469 135.253906 71.628906 C 135.179688 72.230469 134.804688 72.679688 134.429688 72.832031 C 134.054688 72.980469 133.382812 72.90625 133.082031 72.457031 C 131.957031 71.03125 132.707031 61.210938 133.53125 57.464844 C 134.132812 55.066406 135.03125 52.964844 136.082031 51.765625 C 136.753906 51.015625 137.429688 50.566406 138.328125 50.34375 C 139.453125 50.117188 141.175781 50.191406 142.226562 50.71875 C 143.277344 51.242188 144.101562 52.214844 144.550781 53.566406 C 145.300781 55.8125 143.949219 61.285156 144.25 63.386719 C 144.402344 64.433594 144.324219 65.183594 144.925781 65.707031 C 145.824219 66.535156 149.421875 66.007812 150.097656 66.757812 C 150.546875 67.28125 150.621094 68.332031 150.324219 68.707031 C 150.097656 69.082031 149.125 69.230469 148.75 69.082031 C 148.375 68.933594 148.074219 68.40625 148 68.03125 C 147.925781 67.734375 148.148438 67.132812 148.375 66.910156 C 148.671875 66.609375 149.273438 66.457031 149.574219 66.535156 C 150.023438 66.683594 150.699219 67.359375 150.621094 67.808594 C 150.621094 68.257812 150.023438 68.933594 149.347656 69.15625 C 148.148438 69.605469 144.851562 69.382812 143.578125 68.40625 C 142.453125 67.582031 142.003906 65.859375 141.628906 64.058594 C 141.175781 61.585938 142.675781 56.414062 142.078125 54.539062 C 141.777344 53.640625 141.175781 53.039062 140.578125 52.742188 C 140.203125 52.589844 139.679688 52.742188 139.230469 52.816406 C 138.777344 52.964844 138.402344 53.117188 138.027344 53.492188 C 137.355469 54.238281 136.605469 55.515625 136.15625 57.238281 C 135.253906 60.460938 136.003906 70.054688 135.253906 71.929688 C 135.03125 72.457031 134.804688 72.753906 134.429688 72.832031 C 134.054688 72.90625 133.457031 72.90625 133.082031 72.457031 C 132.183594 71.554688 132.03125 67.808594 131.808594 65.035156 C 131.507812 61.511719 130.984375 54.839844 131.65625 52.964844 C 131.882812 52.367188 132.257812 51.839844 132.632812 51.839844 C 133.007812 51.839844 133.90625 52.964844 133.90625 52.964844 " clip-rule="nonzero"/></clipPath><clipPath id="f13a707367"><path d="M 151.925781 50.238281 L 162.8125 50.238281 L 162.8125 73.71875 L 151.925781 73.71875 Z M 151.925781 50.238281 " clip-rule="nonzero"/></clipPath><clipPath id="4efc07126c"><path d="M 161.640625 52.742188 C 156.621094 53.566406 156.84375 54.015625 156.84375 54.691406 C 156.84375 55.890625 156.542969 58.886719 157.445312 60.238281 C 158.34375 61.660156 161.566406 61.886719 162.242188 63.011719 C 162.691406 63.835938 162.542969 64.660156 162.242188 65.632812 C 161.792969 67.207031 160.367188 69.757812 158.792969 71.03125 C 157.367188 72.378906 154.445312 73.65625 153.320312 73.65625 C 152.796875 73.65625 152.421875 73.429688 152.195312 73.054688 C 151.972656 72.753906 152.273438 71.628906 152.195312 71.554688 C 152.195312 71.554688 151.972656 72.230469 151.972656 72.230469 C 152.046875 72.304688 152.644531 71.179688 153.019531 71.03125 C 153.394531 70.957031 153.996094 71.105469 154.21875 71.332031 C 154.519531 71.707031 154.519531 72.90625 154.21875 73.28125 C 153.996094 73.578125 153.394531 73.730469 153.019531 73.65625 C 152.644531 73.503906 152.046875 72.832031 151.972656 72.378906 C 151.898438 72.003906 152.195312 71.480469 152.496094 71.257812 C 152.871094 71.03125 153.769531 71.105469 154.070312 71.257812 C 154.371094 71.40625 154.59375 71.707031 154.59375 72.003906 C 154.59375 72.378906 154.070312 73.429688 153.621094 73.578125 C 153.246094 73.730469 152.421875 73.429688 152.195312 73.054688 C 151.972656 72.753906 151.898438 72.082031 152.195312 71.554688 C 152.722656 70.730469 155.417969 70.507812 156.621094 69.457031 C 157.894531 68.40625 159.316406 66.308594 159.617188 65.257812 C 159.765625 64.808594 159.84375 64.433594 159.617188 64.132812 C 159.242188 63.609375 157.59375 63.609375 156.769531 63.085938 C 156.09375 62.636719 155.570312 62.261719 155.121094 61.359375 C 154.371094 59.710938 153.847656 54.839844 154.296875 53.117188 C 154.519531 52.140625 155.046875 51.617188 155.644531 51.167969 C 156.320312 50.640625 157.21875 50.492188 158.195312 50.417969 C 159.316406 50.265625 161.417969 50.117188 162.167969 50.566406 C 162.542969 50.792969 162.839844 51.390625 162.765625 51.691406 C 162.691406 52.066406 161.640625 52.742188 161.640625 52.742188 " clip-rule="nonzero"/></clipPath><clipPath id="49547807bd"><path d="M 180.417969 0.0195312 L 204.238281 0.0195312 L 204.238281 38.515625 L 180.417969 38.515625 Z M 180.417969 0.0195312 " clip-rule="nonzero"/></clipPath><clipPath id="fa3504939d"><path d="M 190.625 21.609375 C 183.875 21.535156 183.578125 23.707031 183.277344 25.28125 C 182.976562 26.929688 182.976562 29.253906 183.203125 30.679688 C 183.425781 31.578125 183.503906 32.328125 184.101562 32.851562 C 184.851562 33.453125 186.949219 33.675781 187.851562 33.527344 C 188.375 33.453125 188.75 33.300781 189.125 32.925781 C 189.574219 32.476562 189.796875 31.726562 190.097656 30.753906 C 190.625 28.804688 191 24.683594 190.847656 21.832031 C 190.773438 19.210938 189.125 15.386719 189.5 14.113281 C 189.722656 13.585938 190.097656 13.214844 190.472656 13.214844 C 190.921875 13.136719 191.898438 13.960938 191.824219 14.039062 C 191.824219 14.113281 190.398438 13.960938 190.023438 13.664062 C 189.648438 13.363281 189.648438 13.0625 189.5 12.386719 C 189.125 10.4375 188.675781 1.667969 189.050781 -0.203125 C 189.199219 -0.730469 189.347656 -1.03125 189.648438 -1.179688 C 190.023438 -1.402344 190.773438 -1.402344 191.222656 -1.03125 C 192.496094 -0.0546875 193.472656 4.292969 194.222656 8.191406 C 195.496094 14.414062 194.597656 28.953125 196.09375 33.078125 C 196.695312 34.578125 197.371094 35.851562 198.195312 35.925781 C 199.320312 36 201.417969 32.101562 202.46875 31.878906 C 203.066406 31.804688 203.742188 32.179688 203.964844 32.550781 C 204.117188 32.925781 204.042969 33.828125 203.742188 34.125 C 203.367188 34.425781 202.167969 34.351562 201.792969 34.050781 C 201.566406 33.828125 201.417969 33.226562 201.492188 32.851562 C 201.640625 32.476562 202.015625 32.027344 202.316406 31.953125 C 202.691406 31.804688 203.292969 31.878906 203.589844 32.101562 C 203.890625 32.328125 204.191406 32.777344 204.117188 33.226562 C 203.890625 34.351562 200.59375 37.875 199.019531 38.324219 C 198.042969 38.625 196.996094 38.25 196.171875 37.648438 C 195.121094 36.898438 194.222656 35.550781 193.546875 33.378906 C 191.972656 28.503906 192.871094 13.8125 191.746094 7.816406 C 191.148438 4.519531 188.75 0.996094 189.425781 0.246094 C 189.722656 -0.128906 191.074219 0.0195312 191.597656 0.621094 C 192.871094 2.117188 192.273438 11.789062 191.898438 13.886719 C 191.824219 14.488281 191.746094 14.9375 191.371094 15.085938 C 191 15.238281 189.648438 14.789062 189.5 14.414062 C 189.425781 14.113281 189.875 13.363281 190.25 13.289062 C 190.625 13.136719 191.296875 13.289062 191.746094 13.738281 C 192.722656 14.9375 193.246094 19.960938 193.398438 22.734375 C 193.621094 25.132812 193.472656 27.53125 193.097656 29.480469 C 192.871094 31.054688 192.496094 32.703125 191.824219 33.753906 C 191.222656 34.652344 190.472656 35.25 189.648438 35.625 C 188.972656 36.074219 188.222656 36.300781 187.25 36.300781 C 185.976562 36.300781 183.652344 35.925781 182.527344 35.027344 C 181.554688 34.277344 181.101562 33.078125 180.804688 31.804688 C 180.277344 30.003906 180.503906 27.082031 180.652344 25.207031 C 180.804688 23.78125 180.953125 22.582031 181.554688 21.457031 C 182.078125 20.335938 182.828125 19.136719 184.027344 18.609375 C 185.675781 18.011719 190.023438 18.609375 191.074219 19.359375 C 191.597656 19.734375 191.898438 20.335938 191.824219 20.707031 C 191.746094 21.082031 190.625 21.609375 190.625 21.609375 " clip-rule="nonzero"/></clipPath></defs><g clip-path="url(#4dd8eadbab)"><g clip-path="url(#70277fcd49)"><path fill="#fffb47" d="M 22.140625 2.144531 L 44.402344 2.144531 L 44.402344 41.101562 L 22.140625 41.101562 Z M 22.140625 2.144531 " fill-opacity="1" fill-rule="nonzero"/></g></g><g clip-path="url(#a3c8221fca)"><g clip-path="url(#dcb2d264cd)"><path fill="#fffb47" d="M 44.554688 3.867188 L 67.941406 3.867188 L 67.941406 36.753906 L 44.554688 36.753906 Z M 44.554688 3.867188 " fill-opacity="1" fill-rule="nonzero"/></g></g><g clip-path="url(#37eb8dd48f)"><g clip-path="url(#521adc71fe)"><path fill="#fffb47" d="M 66.515625 3.640625 L 83.160156 3.640625 L 83.160156 49.664062 L 66.515625 49.664062 Z M 66.515625 3.640625 " fill-opacity="1" fill-rule="nonzero"/></g></g><g clip-path="url(#9f629fa987)"><g clip-path="url(#5e2bc274dc)"><path fill="#fffb47" d="M 77.761719 4.992188 L 88.253906 4.992188 L 88.253906 49.511719 L 77.761719 49.511719 Z M 77.761719 4.992188 " fill-opacity="1" fill-rule="nonzero"/></g></g><g clip-path="url(#68dc6e8625)"><g clip-path="url(#95869be779)"><path fill="#fffb47" d="M 78.960938 3.417969 L 100.925781 3.417969 L 100.925781 28.039062 L 78.960938 28.039062 Z M 78.960938 3.417969 " fill-opacity="1" fill-rule="nonzero"/></g></g><g clip-path="url(#3ab1e6ea1e)"><g clip-path="url(#c894b32004)"><path fill="#fffb47" d="M 95.976562 4.617188 L 123.460938 4.617188 L 123.460938 31.675781 L 95.976562 31.675781 Z M 95.976562 4.617188 " fill-opacity="1" fill-rule="nonzero"/></g></g><g clip-path="url(#b61b53067c)"><g clip-path="url(#6346a61e6b)"><path fill="#fffb47" d="M 118.988281 4.992188 L 135.554688 4.992188 L 135.554688 33.59375 L 118.988281 33.59375 Z M 118.988281 4.992188 " fill-opacity="1" fill-rule="nonzero"/></g></g><g clip-path="url(#1b09dd71aa)"><g clip-path="url(#3fb797e180)"><path fill="#fffb47" d="M 132.332031 -1.457031 L 153.996094 -1.457031 L 153.996094 38.824219 L 132.332031 38.824219 Z M 132.332031 -1.457031 " fill-opacity="1" fill-rule="nonzero"/></g></g><g clip-path="url(#0413753f31)"><g clip-path="url(#5bd6476172)"><path fill="#fffb47" d="M 126.785156 1.769531 L 147.027344 1.769531 L 147.027344 10.988281 L 126.785156 10.988281 Z M 126.785156 1.769531 " fill-opacity="1" fill-rule="nonzero"/></g></g><g clip-path="url(#84b5d1af03)"><g clip-path="url(#3ab0241b16)"><path fill="#fffb47" d="M 151.820312 4.917969 L 179.707031 4.917969 L 179.707031 37.703125 L 151.820312 37.703125 Z M 151.820312 4.917969 " fill-opacity="1" fill-rule="nonzero"/></g></g><g clip-path="url(#e532ae6b6f)"><g clip-path="url(#187e662d5d)"><path fill="#fffb47" d="M 63.96875 47.792969 L 87.429688 47.792969 L 87.429688 74.1875 L 63.96875 74.1875 Z M 63.96875 47.792969 " fill-opacity="1" fill-rule="nonzero"/></g></g><g clip-path="url(#2f1f917825)"><g clip-path="url(#a0c066555f)"><path fill="#fffb47" d="M 84.207031 41.347656 L 108.792969 41.347656 L 108.792969 72.5625 L 84.207031 72.5625 Z M 84.207031 41.347656 " fill-opacity="1" fill-rule="nonzero"/></g></g><g clip-path="url(#4ccaf523fc)"><g clip-path="url(#c1a46207fa)"><path fill="#fffb47" d="M 102.347656 48.316406 L 121.3125 48.316406 L 121.3125 74.394531 L 102.347656 74.394531 Z M 102.347656 48.316406 " fill-opacity="1" fill-rule="nonzero"/></g></g><g clip-path="url(#ed8426a8c9)"><g clip-path="url(#b8e88193ca)"><path fill="#fffb47" d="M 119.738281 48.84375 L 129.257812 48.84375 L 129.257812 74.6875 L 119.738281 74.6875 Z M 119.738281 48.84375 " fill-opacity="1" fill-rule="nonzero"/></g></g><g clip-path="url(#d43d0e100a)"><g clip-path="url(#41ceea08d6)"><path fill="#fffb47" d="M 118.691406 43.820312 L 126.789062 43.820312 L 126.789062 51.765625 L 118.691406 51.765625 Z M 118.691406 43.820312 " fill-opacity="1" fill-rule="nonzero"/></g></g><g clip-path="url(#98ab4c40aa)"><g clip-path="url(#e81bc464e8)"><path fill="#fffb47" d="M 128.660156 47.34375 L 153.695312 47.34375 L 153.695312 75.804688 L 128.660156 75.804688 Z M 128.660156 47.34375 " fill-opacity="1" fill-rule="nonzero"/></g></g><g clip-path="url(#f13a707367)"><g clip-path="url(#4efc07126c)"><path fill="#fffb47" d="M 148.972656 47.417969 L 165.765625 47.417969 L 165.765625 76.738281 L 148.972656 76.738281 Z M 148.972656 47.417969 " fill-opacity="1" fill-rule="nonzero"/></g></g><g clip-path="url(#49547807bd)"><g clip-path="url(#fa3504939d)"><path fill="#fffb47" d="M 177.65625 -4.179688 L 207.113281 -4.179688 L 207.113281 41.390625 L 177.65625 41.390625 Z M 177.65625 -4.179688 " fill-opacity="1" fill-rule="nonzero"/></g></g></svg>