<svg xmlns="http://www.w3.org/2000/svg" xmlns:xlink="http://www.w3.org/1999/xlink" width="200" zoomAndPan="magnify" viewBox="0 0 150 74.999997" height="100" preserveAspectRatio="xMidYMid meet" version="1.0"><defs><clipPath id="674c4e380c"><path d="M 14.210938 2.910156 L 50.277344 2.910156 L 50.277344 62.746094 L 14.210938 62.746094 Z M 14.210938 2.910156 " clip-rule="nonzero"/></clipPath><clipPath id="a099012671"><path d="M 29.398438 5.550781 C 25.273438 25.273438 22.425781 29.101562 21.523438 32.101562 C 20.925781 34.050781 21.375 35.625 20.699219 37.273438 C 20.023438 39.074219 17.625 40.949219 17.175781 42.449219 C 16.875 43.425781 16.949219 44.175781 17.25 45.148438 C 17.550781 46.5 19.273438 48.148438 19.800781 49.648438 C 20.25 50.851562 19.875 52.199219 20.476562 53.324219 C 21.300781 54.75 22.875 55.875 24.75 56.925781 C 27.148438 58.273438 31.351562 59.773438 34.273438 60.074219 C 36.675781 60.375 39 60.375 41.101562 59.476562 C 43.351562 58.574219 46.5 55.949219 47.25 54.300781 C 47.699219 53.25 47.476562 52.574219 47.25 51.375 C 46.800781 49.050781 44.550781 44.699219 43.726562 41.550781 C 42.976562 38.851562 43.425781 36.898438 42.375 33.601562 C 40.351562 27.449219 30.675781 11.550781 29.476562 8.25 C 29.175781 7.5 29.023438 7.273438 29.101562 6.824219 C 29.175781 6.375 30.074219 6 30.074219 5.476562 C 30.074219 4.949219 28.800781 4.199219 28.949219 3.75 C 29.023438 3.375 29.851562 2.925781 30.226562 3 C 30.675781 3.074219 31.351562 4.050781 31.351562 4.425781 C 31.273438 4.800781 30.898438 5.25 30.601562 5.398438 C 30.226562 5.476562 29.398438 5.324219 29.101562 5.023438 C 28.875 4.726562 28.875 3.824219 29.023438 3.523438 C 29.25 3.226562 29.699219 2.851562 30.074219 3 C 32.476562 3.75 42.449219 25.875 44.625 32.851562 C 45.824219 36.449219 45.300781 38.398438 46.050781 41.25 C 46.875 44.398438 49.125 48.449219 49.726562 50.925781 C 50.023438 52.5 50.476562 53.398438 49.949219 54.75 C 49.125 56.851562 45.523438 60.226562 42.824219 61.5 C 40.351562 62.699219 37.574219 62.851562 34.726562 62.550781 C 31.199219 62.324219 26.398438 60.824219 23.476562 59.175781 C 21.148438 57.898438 18.976562 56.101562 18.074219 54.449219 C 17.398438 53.25 17.925781 52.125 17.476562 50.925781 C 16.875 49.273438 15 47.25 14.625 45.601562 C 14.25 44.25 14.25 43.125 14.699219 41.699219 C 15.300781 39.75 19.050781 35.324219 19.050781 35.324219 C 19.050781 35.324219 18.523438 36.375 18.449219 36.300781 C 18.226562 36.226562 18.523438 33.449219 19.050781 31.648438 C 19.800781 28.800781 22.574219 25.125 23.851562 21.148438 C 25.425781 16.5 25.875 7.125 27.148438 5.175781 C 27.601562 4.574219 28.125 4.273438 28.5 4.351562 C 28.875 4.425781 29.398438 5.550781 29.398438 5.550781 " clip-rule="nonzero"/></clipPath><clipPath id="e25e2ea6a8"><path d="M 58.164062 15.351562 L 92.804688 15.351562 L 92.804688 73.660156 L 58.164062 73.660156 Z M 58.164062 15.351562 " clip-rule="nonzero"/></clipPath><clipPath id="2fd4a036c0"><path d="M 72.675781 18.148438 C 72.523438 33.074219 71.550781 33.75 71.023438 33.601562 C 70.574219 33.523438 69.976562 32.324219 70.050781 31.800781 C 70.125 31.425781 70.800781 30.976562 71.25 30.898438 C 71.625 30.898438 72.148438 31.050781 72.375 31.425781 C 72.75 32.101562 72.226562 33.824219 71.925781 35.324219 C 71.398438 37.800781 70.199219 43.050781 69 44.550781 C 68.398438 45.300781 67.425781 45.824219 66.898438 45.675781 C 66.523438 45.523438 66.074219 44.476562 66.226562 44.101562 C 66.375 43.726562 67.574219 43.125 67.949219 43.273438 C 68.398438 43.425781 68.699219 44.175781 68.699219 44.925781 C 68.625 46.875 64.199219 52.5 62.925781 55.425781 C 62.101562 57.375 61.949219 59.773438 61.199219 60.523438 C 60.898438 60.898438 60.226562 60.976562 60.148438 60.976562 C 60.148438 60.976562 60.976562 60.226562 61.199219 60.300781 C 61.574219 60.523438 60.523438 62.925781 61.050781 64.125 C 61.875 65.851562 65.324219 67.949219 67.425781 69 C 69.074219 69.898438 70.425781 70.351562 72.375 70.648438 C 75.148438 71.023438 79.726562 71.175781 82.425781 70.574219 C 84.300781 70.199219 85.800781 69.300781 87.148438 68.476562 C 88.273438 67.648438 89.550781 66.898438 89.925781 65.773438 C 90.300781 64.425781 89.550781 62.773438 88.949219 60.601562 C 87.824219 56.699219 85.050781 49.5 82.800781 44.476562 C 80.699219 39.75 77.699219 35.023438 75.976562 31.199219 C 74.699219 28.425781 73.5 26.25 73.050781 23.699219 C 72.601562 21.226562 72.300781 17.175781 73.125 16.050781 C 73.5 15.523438 74.476562 15.300781 74.925781 15.523438 C 75.300781 15.675781 75.601562 16.574219 75.523438 16.949219 C 75.449219 17.324219 75.074219 17.699219 74.699219 17.851562 C 74.324219 17.925781 73.5 17.699219 73.199219 17.398438 C 72.976562 17.023438 73.050781 16.125 73.273438 15.824219 C 73.5 15.523438 74.023438 15.375 74.398438 15.375 C 74.625 15.375 74.925781 15.375 75.148438 15.675781 C 75.898438 16.648438 75.148438 21.523438 76.199219 25.125 C 77.699219 30.523438 82.726562 38.101562 85.425781 44.398438 C 87.898438 50.324219 90.976562 57.824219 91.949219 61.800781 C 92.476562 63.675781 93 64.875 92.625 66.226562 C 92.175781 67.648438 90.75 69 89.324219 70.050781 C 87.675781 71.324219 85.5 72.523438 83.101562 73.050781 C 80.101562 73.800781 75.375 73.5 72.601562 73.199219 C 70.800781 73.050781 69.675781 72.824219 68.175781 72.300781 C 66.449219 71.699219 64.5 70.648438 62.925781 69.449219 C 61.273438 68.25 59.175781 66.523438 58.5 64.949219 C 57.976562 63.675781 58.351562 62.398438 58.5 61.050781 C 58.726562 59.324219 59.175781 57.75 60 55.648438 C 61.273438 52.5 65.175781 44.101562 66.226562 44.101562 C 66.601562 44.175781 66.898438 45.675781 66.898438 45.675781 C 66.976562 45.675781 66.074219 44.175781 66.300781 43.800781 C 66.523438 43.5 67.949219 43.5 68.023438 43.648438 C 68.023438 43.726562 66.523438 44.699219 66.375 44.550781 C 66.226562 44.476562 66.449219 44.023438 66.601562 43.425781 C 66.976562 41.550781 69 33 70.199219 31.574219 C 70.574219 31.050781 70.875 30.898438 71.25 30.898438 C 71.625 30.898438 72.375 31.273438 72.375 31.425781 C 72.375 31.648438 70.800781 32.398438 70.351562 32.023438 C 69.148438 31.199219 69.449219 22.050781 69.976562 19.425781 C 70.199219 18.226562 70.574219 17.101562 71.101562 16.875 C 71.476562 16.648438 72.148438 16.875 72.375 17.101562 C 72.601562 17.324219 72.675781 18.148438 72.675781 18.148438 " clip-rule="nonzero"/></clipPath><clipPath id="352ac6c3e2"><path d="M 97.816406 1.726562 L 126.015625 1.726562 L 126.015625 62.246094 L 97.816406 62.246094 Z M 97.816406 1.726562 " clip-rule="nonzero"/></clipPath><clipPath id="e042278e13"><path d="M 109.273438 2.925781 C 108.976562 20.550781 107.398438 24.75 106.425781 26.25 C 106.050781 26.773438 105.75 27.148438 105.300781 27.226562 C 104.925781 27.300781 104.175781 27.074219 103.800781 26.699219 C 103.574219 26.476562 103.351562 25.875 103.5 25.5 C 103.648438 25.125 104.773438 24.375 105.226562 24.523438 C 105.601562 24.675781 105.898438 25.5 105.976562 26.398438 C 105.976562 28.425781 103.351562 32.699219 102.449219 36.523438 C 101.398438 41.25 100.050781 49.199219 100.648438 52.5 C 101.023438 54.148438 101.699219 54.898438 102.523438 55.949219 C 103.425781 57.074219 104.476562 58.5 105.824219 59.101562 C 107.25 59.699219 109.574219 59.699219 110.925781 59.476562 C 111.898438 59.324219 112.351562 58.648438 113.324219 58.425781 C 115.050781 58.050781 118.800781 58.648438 120.148438 58.125 C 120.824219 57.898438 121.050781 57.75 121.425781 57.148438 C 122.324219 55.875 123 52.273438 123.375 49.800781 C 123.75 47.550781 124.050781 45 123.976562 42.976562 C 123.824219 41.25 123.75 40.351562 123.074219 38.324219 C 121.5 33.75 114.75 23.324219 112.351562 17.023438 C 110.550781 12.449219 108.601562 6.523438 108.824219 4.574219 C 108.976562 3.976562 109.199219 3.523438 109.574219 3.375 C 109.949219 3.300781 110.699219 3.523438 110.925781 3.75 C 111.148438 4.050781 111.148438 4.574219 111.074219 4.875 C 111 5.175781 110.625 5.550781 110.324219 5.550781 C 109.949219 5.625 109.199219 5.398438 108.976562 5.023438 C 108.824219 4.726562 109.125 3.675781 109.425781 3.449219 C 109.800781 3.226562 110.398438 3.300781 110.851562 3.675781 C 112.273438 4.949219 112.949219 12.898438 114.898438 17.851562 C 117.300781 23.699219 122.925781 31.199219 124.648438 36.300781 C 125.773438 39.523438 126 41.625 126 44.699219 C 126.074219 48.375 125.699219 54.148438 124.351562 56.925781 C 123.449219 58.648438 122.476562 59.625 120.75 60.449219 C 118.351562 61.726562 113.324219 61.949219 110.476562 62.101562 C 108.523438 62.175781 107.023438 62.25 105.449219 61.648438 C 103.726562 60.898438 101.925781 59.25 100.648438 57.824219 C 99.523438 56.398438 98.550781 54.75 98.175781 53.175781 C 97.726562 51.824219 97.800781 50.398438 98.023438 48.898438 C 98.25 47.175781 99.375 45.375 99.75 43.273438 C 100.199219 40.875 99.75 38.101562 100.273438 35.324219 C 100.875 32.101562 102.601562 26.625 103.574219 25.199219 C 103.949219 24.75 104.175781 24.523438 104.550781 24.523438 C 105 24.449219 105.898438 25.125 105.898438 25.125 C 105.898438 25.125 104.550781 25.050781 104.324219 24.523438 C 103.726562 23.324219 106.648438 18.976562 107.101562 15.75 C 107.699219 11.851562 106.050781 4.425781 106.949219 2.699219 C 107.25 2.101562 107.851562 1.726562 108.226562 1.800781 C 108.601562 1.875 109.273438 2.925781 109.273438 2.925781 " clip-rule="nonzero"/></clipPath><clipPath id="1068088dd6"><path d="M 98.855469 9.457031 L 125.617188 9.457031 L 125.617188 59.921875 L 98.855469 59.921875 Z M 98.855469 9.457031 " clip-rule="nonzero"/></clipPath><clipPath id="cd3e41a590"><path d="M 111.074219 10.648438 C 111.898438 21.675781 110.476562 25.726562 109.5 26.625 C 109.125 27 108.300781 27.074219 108.226562 26.925781 C 108.148438 26.851562 109.050781 25.800781 109.125 25.875 C 109.425781 26.023438 107.925781 30.148438 107.476562 32.550781 C 107.101562 35.175781 106.273438 39.074219 106.800781 40.949219 C 107.101562 42.074219 108.523438 42.675781 108.523438 43.273438 C 108.523438 43.726562 107.925781 44.25 107.550781 44.398438 C 107.25 44.476562 106.726562 44.476562 106.425781 44.101562 C 105.523438 42.976562 105.449219 34.5 106.351562 33 C 106.726562 32.476562 107.398438 32.101562 107.773438 32.324219 C 108.898438 33 107.773438 45 108.449219 45.148438 C 108.976562 45.226562 110.25 40.875 110.851562 38.25 C 111.523438 34.949219 110.550781 27.523438 111.601562 26.625 C 112.050781 26.324219 112.574219 26.476562 113.101562 26.773438 C 113.925781 27.300781 115.050781 29.101562 115.800781 30.601562 C 116.699219 32.398438 118.273438 35.773438 117.976562 36.898438 C 117.898438 37.425781 117.375 37.800781 117 37.875 C 116.699219 37.875 116.25 37.726562 115.800781 37.273438 C 114.523438 35.851562 111.898438 28.648438 111.375 25.875 C 111 24.375 110.851562 22.949219 111.226562 22.199219 C 111.523438 21.75 111.976562 21.449219 112.574219 21.375 C 113.324219 21.375 114.601562 21.976562 115.425781 22.726562 C 116.324219 23.476562 117.148438 24.523438 117.601562 26.023438 C 118.199219 28.351562 116.851562 32.25 117.523438 35.625 C 118.425781 39.898438 123.898438 47.101562 123.523438 49.125 C 123.375 49.800781 122.699219 50.25 122.25 50.324219 C 121.648438 50.398438 120.824219 50.023438 120.300781 49.199219 C 119.101562 47.476562 117.75 39.148438 118.726562 37.875 C 119.101562 37.425781 119.851562 37.351562 120.523438 37.648438 C 121.800781 38.175781 124.875 42.675781 124.875 43.800781 C 124.800781 44.25 124.425781 44.550781 124.125 44.625 C 123.75 44.773438 123.226562 44.773438 122.699219 44.324219 C 121.050781 42.976562 118.5 33.148438 116.175781 29.25 C 114.601562 26.476562 112.125 24.675781 111.300781 22.648438 C 110.625 21.148438 110.101562 18.976562 110.550781 18.375 C 110.851562 18.074219 112.050781 18.074219 112.273438 18.375 C 112.574219 18.675781 112.273438 19.351562 112.050781 20.25 C 111.523438 22.425781 108.449219 28.199219 107.773438 31.800781 C 107.175781 34.875 108.074219 39.074219 107.398438 40.425781 C 107.175781 40.949219 106.726562 41.25 106.351562 41.25 C 105.898438 41.324219 105.449219 41.023438 105.148438 40.574219 C 104.550781 39.601562 105.074219 35.101562 104.625 35.023438 C 104.023438 34.949219 101.398438 40.199219 101.25 42.523438 C 101.175781 44.550781 102.601562 48.148438 103.273438 48.300781 C 103.574219 48.300781 103.875 47.773438 104.175781 47.25 C 105.074219 45.675781 106.273438 40.351562 107.398438 37.574219 C 108.375 35.476562 109.726562 34.199219 110.324219 32.101562 C 111.074219 29.699219 111.375 26.101562 111.148438 23.925781 C 111 22.425781 110.25 20.175781 109.949219 20.25 C 109.273438 20.324219 110.398438 35.175781 109.050781 39.148438 C 108.375 41.25 106.574219 41.925781 106.125 43.5 C 105.675781 45.148438 106.726562 47.851562 106.273438 48.75 C 106.050781 49.199219 105.675781 49.425781 105.300781 49.5 C 104.851562 49.5 104.324219 49.351562 103.949219 48.824219 C 103.199219 47.625 102.898438 41.101562 103.648438 40.351562 C 103.949219 40.050781 104.773438 40.199219 105 40.5 C 105.375 41.101562 103.648438 43.800781 103.425781 45.675781 C 103.273438 48 104.925781 52.875 104.324219 53.398438 C 104.101562 53.625 103.273438 53.398438 103.125 53.101562 C 102.976562 52.648438 103.875 51.375 104.699219 50.175781 C 106.199219 48.074219 109.726562 43.726562 112.125 42 C 113.851562 40.800781 116.476562 39.523438 117.226562 39.898438 C 117.601562 40.125 117.675781 41.550781 117.449219 41.625 C 117.074219 41.773438 113.925781 38.175781 113.175781 37.050781 C 112.875 36.601562 112.5 36.148438 112.648438 35.851562 C 112.800781 35.476562 113.851562 34.875 114.300781 35.101562 C 115.199219 35.699219 115.351562 42.824219 114.148438 46.199219 C 113.023438 49.648438 106.875 53.773438 107.023438 55.5 C 107.101562 56.324219 108.148438 56.773438 108.824219 57.074219 C 109.5 57.300781 110.175781 57.300781 111.148438 56.925781 C 113.476562 56.101562 119.175781 49.800781 121.574219 48.675781 C 122.625 48.226562 123.601562 47.925781 124.125 48.226562 C 124.574219 48.449219 124.949219 49.273438 124.800781 49.800781 C 124.574219 50.851562 121.351562 51.976562 120.449219 53.324219 C 119.625 54.375 119.324219 56.925781 119.175781 56.851562 C 119.023438 56.851562 119.625 51.074219 120.601562 49.273438 C 121.273438 48 123.148438 47.851562 123.300781 46.648438 C 123.523438 44.398438 118.949219 39.226562 116.699219 36.601562 C 114.976562 34.5 112.726562 33.300781 111.523438 31.648438 C 110.625 30.449219 109.425781 28.425781 109.726562 28.050781 C 109.875 27.824219 110.699219 27.824219 110.925781 28.125 C 111.375 28.726562 109.425781 31.875 109.050781 33.824219 C 108.675781 35.851562 109.351562 38.699219 108.675781 39.976562 C 108.226562 40.800781 107.398438 41.324219 106.648438 41.550781 C 105.898438 41.851562 104.773438 42 104.324219 41.625 C 103.875 41.25 103.875 40.273438 103.875 39.300781 C 103.949219 37.949219 104.476562 35.550781 105.449219 34.125 C 106.425781 32.699219 108.675781 30.898438 109.648438 30.898438 C 110.175781 30.898438 110.550781 31.351562 110.773438 31.800781 C 111.148438 32.398438 111.226562 33.300781 111.300781 34.425781 C 111.375 36.300781 109.949219 40.949219 110.699219 42.074219 C 111.148438 42.75 111.976562 42.898438 112.800781 42.824219 C 113.773438 42.824219 115.199219 41.550781 116.324219 41.25 C 117.226562 41.023438 118.425781 40.875 119.023438 41.101562 C 119.476562 41.25 119.851562 41.625 120 42 C 120.074219 42.375 120 43.050781 119.625 43.425781 C 118.949219 44.175781 115.800781 45.226562 114.976562 44.851562 C 114.523438 44.699219 114.226562 43.800781 114.375 43.5 C 114.601562 43.050781 115.726562 42.898438 116.625 42.75 C 117.601562 42.601562 119.398438 42.226562 120.074219 42.675781 C 120.601562 42.976562 121.050781 43.949219 120.898438 44.398438 C 120.824219 44.773438 120.300781 45.148438 119.925781 45.226562 C 119.550781 45.300781 119.023438 45.148438 118.726562 44.925781 C 118.425781 44.625 118.199219 44.101562 118.351562 43.726562 C 118.425781 43.273438 119.101562 42.601562 119.550781 42.601562 C 120 42.523438 120.976562 43.351562 120.976562 43.875 C 121.050781 44.25 120.675781 44.851562 120.074219 45.226562 C 118.949219 45.898438 114.75 46.273438 113.550781 45.824219 C 112.949219 45.601562 112.574219 45.226562 112.5 44.699219 C 112.351562 44.101562 112.875 43.050781 113.550781 42.449219 C 114.601562 41.625 117.601562 40.875 118.726562 41.101562 C 119.324219 41.175781 119.851562 41.550781 120 42 C 120.074219 42.375 119.851562 43.125 119.324219 43.648438 C 118.351562 44.625 114.375 45.601562 112.726562 45.675781 C 111.75 45.675781 111 45.675781 110.324219 45.226562 C 109.425781 44.625 108.523438 43.5 108.074219 42.074219 C 107.398438 39.898438 107.625 33.226562 108.375 32.851562 C 108.675781 32.699219 109.5 33.226562 109.574219 33.523438 C 109.574219 33.976562 108.226562 34.574219 107.699219 35.398438 C 107.023438 36.601562 106.875 40.199219 106.351562 40.273438 C 106.050781 40.351562 105.449219 39.601562 105.449219 39.300781 C 105.523438 39 106.125 39 106.351562 38.550781 C 106.800781 37.574219 106.351562 34.648438 106.726562 32.925781 C 107.023438 31.273438 107.699219 29.625 108.226562 28.425781 C 108.601562 27.601562 108.824219 26.773438 109.351562 26.324219 C 109.800781 25.949219 110.476562 25.574219 111.074219 25.726562 C 112.125 26.101562 112.949219 29.625 114.300781 31.199219 C 115.574219 32.699219 117.300781 33.523438 118.800781 35.175781 C 120.75 37.273438 123.523438 41.101562 124.574219 43.273438 C 125.25 44.625 125.476562 45.976562 125.550781 46.800781 C 125.625 47.324219 125.625 47.625 125.398438 48.074219 C 125.023438 48.824219 123.449219 49.648438 122.773438 50.851562 C 122.023438 52.351562 122.398438 55.199219 121.574219 56.699219 C 120.976562 57.824219 119.773438 58.875 118.949219 59.25 C 118.425781 59.398438 117.824219 59.398438 117.449219 59.175781 C 117.074219 59.023438 116.773438 58.574219 116.625 58.050781 C 116.398438 57.226562 116.625 55.574219 116.925781 54.449219 C 117.300781 53.324219 117.824219 52.273438 118.726562 51.300781 C 119.925781 50.101562 122.773438 48.074219 123.824219 48.148438 C 124.273438 48.148438 124.648438 48.523438 124.800781 48.898438 C 124.949219 49.273438 124.800781 49.949219 124.5 50.398438 C 123.898438 51.148438 122.175781 51.300781 120.75 52.273438 C 118.5 53.699219 115.125 57.976562 112.800781 59.101562 C 111.449219 59.773438 110.398438 60 109.125 59.851562 C 107.773438 59.625 105.675781 58.425781 105 57.449219 C 104.476562 56.773438 104.324219 55.875 104.398438 55.050781 C 104.476562 54.300781 104.773438 53.773438 105.300781 52.875 C 106.5 51 110.625 48.226562 111.824219 45.226562 C 112.949219 42.148438 111.148438 36.523438 112.125 34.726562 C 112.574219 33.824219 113.476562 33.074219 114.074219 33.226562 C 114.976562 33.375 115.574219 36.226562 116.550781 37.425781 C 117.449219 38.550781 119.25 39.300781 119.550781 40.199219 C 119.773438 40.726562 119.699219 41.398438 119.25 41.925781 C 118.5 42.824219 115.726562 42.523438 113.851562 43.875 C 110.851562 45.976562 106.351562 54.148438 104.398438 55.273438 C 103.726562 55.648438 103.273438 55.800781 102.824219 55.574219 C 102.300781 55.351562 101.851562 54.523438 101.476562 53.550781 C 100.875 51.449219 100.5 45.898438 101.101562 43.199219 C 101.550781 41.25 102.675781 39.226562 103.425781 38.476562 C 103.875 38.101562 104.25 37.875 104.625 37.949219 C 105.148438 38.023438 105.898438 38.773438 106.199219 39.675781 C 106.949219 41.398438 106.949219 47.023438 106.351562 48.449219 C 106.125 49.050781 105.675781 49.425781 105.300781 49.5 C 104.925781 49.574219 104.476562 49.425781 104.175781 49.050781 C 103.648438 48.449219 103.273438 46.574219 103.351562 45.226562 C 103.5 43.5 104.398438 41.101562 105.148438 39.75 C 105.75 38.773438 106.949219 37.425781 107.25 37.574219 C 107.398438 37.648438 107.25 39.148438 107.175781 39.148438 C 107.101562 39.148438 106.574219 36.976562 106.5 35.175781 C 106.425781 31.726562 106.800781 21.898438 108.148438 19.574219 C 108.675781 18.675781 109.351562 18.226562 110.023438 18.148438 C 110.773438 18.148438 111.675781 18.675781 112.273438 19.351562 C 112.949219 20.25 113.324219 21.75 113.476562 23.398438 C 113.699219 25.875 113.398438 30.226562 112.574219 32.925781 C 111.898438 35.101562 110.550781 36.226562 109.574219 38.398438 C 108.148438 41.625 106.574219 48.75 105.226562 50.398438 C 104.773438 51 104.398438 51.226562 103.875 51.300781 C 103.351562 51.449219 102.75 51.523438 102.148438 51.148438 C 101.023438 50.324219 99.148438 46.800781 98.925781 44.550781 C 98.773438 42.300781 99.898438 39.601562 100.875 37.574219 C 101.699219 35.625 103.199219 33.074219 104.324219 32.476562 C 104.925781 32.101562 105.675781 32.175781 106.125 32.476562 C 106.5 32.699219 106.726562 33.074219 106.875 33.75 C 107.324219 35.023438 107.925781 39.300781 107.398438 40.425781 C 107.175781 40.949219 106.726562 41.25 106.351562 41.25 C 105.898438 41.324219 105.375 41.023438 105.148438 40.574219 C 104.550781 39.523438 104.773438 36.675781 105.226562 33.976562 C 105.898438 29.550781 108.898438 17.773438 110.925781 16.648438 C 111.601562 16.273438 112.5 16.648438 112.949219 17.175781 C 113.625 17.925781 113.023438 19.949219 113.625 21.449219 C 114.449219 23.398438 116.773438 25.125 118.351562 27.75 C 120.449219 31.273438 123.601562 38.476562 124.425781 41.25 C 124.800781 42.375 125.023438 43.199219 124.875 43.800781 C 124.648438 44.25 124.199219 44.625 123.824219 44.699219 C 123.449219 44.773438 123.148438 44.625 122.699219 44.324219 C 121.726562 43.648438 118.949219 40.199219 118.574219 39.074219 C 118.425781 38.550781 118.5 38.175781 118.726562 37.875 C 119.023438 37.574219 120 37.351562 120.523438 37.648438 C 121.199219 38.023438 121.648438 39.675781 121.949219 41.023438 C 122.324219 42.824219 121.726562 46.199219 122.25 47.550781 C 122.476562 48.300781 123.523438 48.675781 123.523438 49.125 C 123.523438 49.574219 122.851562 50.25 122.476562 50.324219 C 122.101562 50.398438 121.726562 50.175781 121.273438 49.648438 C 119.773438 48.148438 116.175781 40.949219 115.273438 36.824219 C 114.449219 33.375 115.800781 29.175781 115.199219 26.851562 C 114.824219 25.351562 113.550781 23.398438 113.398438 23.476562 C 113.175781 23.625 118.425781 35.101562 117.976562 36.898438 C 117.898438 37.5 117.375 37.800781 117 37.875 C 116.699219 37.875 116.175781 37.648438 115.800781 37.273438 C 115.050781 36.375 114.675781 33.449219 113.851562 31.800781 C 113.101562 30.226562 111.226562 28.425781 111.148438 27.523438 C 111.148438 27.148438 111.375 26.773438 111.601562 26.625 C 111.898438 26.476562 112.351562 26.398438 112.648438 26.476562 C 112.949219 26.625 113.175781 26.925781 113.324219 27.523438 C 113.925781 29.476562 113.550781 38.101562 112.5 41.550781 C 111.75 43.875 110.324219 45.976562 109.425781 46.875 C 108.976562 47.324219 108.601562 47.625 108.148438 47.550781 C 107.476562 47.476562 106.5 46.5 106.050781 45.75 C 105.523438 44.773438 105.523438 43.648438 105.375 42.148438 C 105.226562 39.675781 105.300781 33.824219 105.75 32.023438 C 105.898438 31.425781 106.050781 30.898438 106.425781 30.75 C 106.875 30.601562 108.074219 31.273438 108.449219 31.726562 C 108.675781 32.023438 108.601562 32.324219 108.675781 32.925781 C 108.75 34.726562 109.273438 41.625 108.523438 43.273438 C 108.226562 43.949219 107.773438 44.398438 107.25 44.398438 C 106.5 44.398438 104.925781 42.976562 104.398438 41.550781 C 103.648438 39.601562 104.550781 35.625 105 32.925781 C 105.300781 30.375 105.75 28.125 106.5 25.726562 C 107.324219 23.175781 109.351562 20.699219 109.726562 18.148438 C 110.101562 15.601562 108.226562 11.625 108.75 10.351562 C 109.050781 9.824219 109.648438 9.449219 110.023438 9.523438 C 110.398438 9.523438 111.074219 10.648438 111.074219 10.648438 " clip-rule="nonzero"/></clipPath><clipPath id="b9633de442"><path d="M 58 7.023438 L 91.378906 7.023438 L 91.378906 72 L 58 72 Z M 58 7.023438 " clip-rule="nonzero"/></clipPath><clipPath id="0cdb513250"><path d="M 58.050781 62.925781 C 70.574219 22.5 71.699219 17.324219 73.199219 16.574219 C 73.875 16.199219 74.699219 16.574219 75.226562 17.023438 C 76.050781 17.773438 76.425781 19.199219 77.023438 21.074219 C 78.375 25.050781 82.199219 38.25 81.523438 40.425781 C 81.375 40.949219 81 41.175781 80.625 41.25 C 80.25 41.324219 79.726562 41.175781 79.199219 40.726562 C 77.851562 39.449219 75.300781 34.648438 74.175781 30.675781 C 72.675781 25.5 72.601562 15.898438 72.601562 12 C 72.601562 10.199219 72.449219 8.925781 72.898438 8.101562 C 73.199219 7.5 73.949219 7.050781 74.324219 7.125 C 74.773438 7.125 75.300781 7.726562 75.523438 8.398438 C 75.976562 9.75 75.375 13.050781 75 15.449219 C 74.625 18.074219 73.949219 22.273438 73.050781 23.398438 C 72.601562 23.851562 72.074219 24.074219 71.699219 24 C 71.324219 23.925781 70.800781 23.550781 70.648438 22.949219 C 70.125 21.449219 71.175781 14.773438 71.925781 13.425781 C 72.226562 12.976562 72.601562 12.75 72.898438 12.75 C 73.351562 12.675781 73.875 12.824219 74.25 13.351562 C 75.375 14.851562 75.375 21.074219 76.726562 24.75 C 78.074219 28.574219 81 32.023438 82.425781 35.925781 C 83.851562 39.824219 85.574219 46.351562 85.199219 48.074219 C 85.050781 48.675781 84.75 48.898438 84.449219 49.050781 C 84.074219 49.199219 83.550781 49.125 83.023438 48.824219 C 81.824219 47.925781 80.398438 44.175781 78.976562 41.398438 C 77.101562 37.800781 74.324219 32.25 72.898438 28.949219 C 72.074219 26.851562 71.023438 24.75 71.175781 23.625 C 71.175781 23.101562 71.476562 22.574219 71.851562 22.5 C 72.226562 22.351562 73.050781 22.648438 73.425781 23.25 C 74.699219 24.976562 75.824219 35.25 74.773438 36.976562 C 74.398438 37.648438 73.273438 37.949219 72.898438 37.726562 C 72.523438 37.5 72.300781 36.074219 72.523438 35.550781 C 72.75 35.175781 73.648438 34.800781 74.023438 34.875 C 74.476562 35.023438 74.851562 35.550781 74.925781 36.300781 C 75.074219 38.25 72 46.648438 70.574219 48 C 70.050781 48.523438 69.375 48.675781 69 48.523438 C 68.625 48.375 68.25 47.476562 68.324219 47.023438 C 68.476562 46.574219 69.300781 45.824219 69.75 45.824219 C 70.125 45.898438 70.800781 46.574219 70.875 47.25 C 70.949219 48.675781 68.023438 51.601562 67.125 54 C 66.148438 56.476562 66.226562 60.75 65.175781 61.875 C 64.726562 62.324219 64.050781 62.550781 63.675781 62.398438 C 63.148438 62.25 62.773438 61.5 62.625 60.824219 C 62.25 59.550781 62.398438 56.625 62.925781 55.5 C 63.300781 54.824219 64.125 54.148438 64.574219 54.226562 C 65.023438 54.300781 65.550781 54.898438 65.699219 55.5 C 65.925781 56.699219 64.125 59.476562 63.976562 61.125 C 63.898438 62.398438 63.675781 63.675781 64.5 64.648438 C 66 66.375 72.976562 67.273438 75.375 67.648438 C 76.5 67.875 76.800781 67.875 78 67.726562 C 80.398438 67.5 86.699219 64.949219 88.800781 64.800781 C 89.773438 64.800781 90.449219 64.800781 90.824219 65.175781 C 91.125 65.476562 91.351562 66.148438 91.125 66.601562 C 90.898438 67.351562 89.324219 68.25 88.125 68.925781 C 86.773438 69.675781 85.125 70.351562 83.175781 70.800781 C 80.476562 71.476562 75.601562 72 73.425781 71.925781 C 72.375 71.851562 71.773438 71.773438 71.023438 71.324219 C 70.125 70.800781 68.550781 68.625 68.625 68.625 C 68.625 68.625 69.601562 69.449219 69.601562 69.601562 C 69.523438 69.675781 68.773438 69.75 68.324219 69.523438 C 67.425781 69.148438 65.625 67.425781 65.023438 65.925781 C 64.273438 64.199219 64.273438 61.875 64.574219 59.625 C 64.949219 56.851562 66.449219 53.625 67.5 50.699219 C 68.476562 47.773438 69.300781 44.851562 70.800781 42 C 72.375 39 75.601562 33.300781 76.875 33.148438 C 77.398438 33.074219 78 33.824219 78.074219 34.273438 C 78.148438 34.648438 77.851562 35.398438 77.398438 35.625 C 76.875 35.925781 74.773438 35.324219 74.773438 35.25 C 74.773438 35.175781 76.648438 34.648438 77.398438 35.25 C 79.351562 36.75 81.601562 49.425781 81.300781 51.449219 C 81.226562 51.976562 81.074219 52.199219 80.773438 52.351562 C 80.476562 52.5 79.949219 52.574219 79.5 52.273438 C 78.601562 51.675781 77.625 49.273438 76.800781 47.324219 C 75.675781 44.925781 73.199219 39.523438 73.949219 38.699219 C 74.398438 38.25 76.050781 38.773438 76.800781 39.300781 C 77.699219 39.898438 78.074219 41.023438 78.75 42.300781 C 79.800781 44.175781 81.898438 48.148438 81.824219 49.574219 C 81.824219 50.175781 81.449219 50.699219 81.148438 50.851562 C 80.773438 51 80.324219 50.851562 79.875 50.550781 C 78.976562 49.800781 77.101562 46.574219 77.175781 45.375 C 77.25 44.699219 77.851562 43.800781 78.375 43.800781 C 79.5 43.800781 83.324219 49.199219 83.699219 50.699219 C 83.773438 51.300781 83.625 51.824219 83.398438 52.050781 C 83.023438 52.351562 82.199219 52.5 81.75 52.125 C 80.699219 51.375 79.425781 46.425781 79.726562 45.148438 C 79.875 44.550781 80.324219 44.175781 80.699219 44.023438 C 81.074219 43.949219 81.601562 44.101562 82.050781 44.550781 C 83.175781 45.675781 85.574219 51.523438 85.351562 53.175781 C 85.273438 53.851562 84.75 54.449219 84.300781 54.523438 C 83.925781 54.675781 83.101562 54.226562 82.800781 53.699219 C 82.425781 52.949219 82.425781 50.851562 82.875 50.175781 C 83.175781 49.726562 83.773438 49.425781 84.226562 49.5 C 84.601562 49.5 84.898438 49.726562 85.199219 50.175781 C 86.25 51.675781 87.226562 58.800781 88.199219 61.351562 C 88.800781 62.773438 90 63.824219 89.851562 64.5 C 89.773438 64.949219 89.324219 65.324219 88.949219 65.398438 C 88.574219 65.476562 87.976562 65.398438 87.523438 64.949219 C 86.25 63.523438 86.101562 56.175781 84.523438 52.574219 C 83.175781 49.351562 81.074219 46.5 79.273438 44.101562 C 77.773438 42.074219 74.324219 39.601562 74.550781 38.925781 C 74.625 38.625 75.375 38.324219 75.675781 38.476562 C 76.125 38.851562 76.050781 40.800781 75.824219 42.601562 C 75.375 45.824219 72.898438 54.675781 71.550781 56.398438 C 71.101562 56.925781 70.574219 57.148438 70.199219 57.074219 C 69.824219 57 69.449219 56.550781 69.375 55.875 C 69.074219 54.074219 71.550781 46.574219 72.75 45.226562 C 73.125 44.773438 73.574219 44.550781 73.949219 44.625 C 74.324219 44.699219 74.773438 45 74.925781 45.601562 C 75.449219 47.476562 72.074219 58.425781 70.726562 60.226562 C 70.273438 60.824219 69.75 61.125 69.375 61.125 C 69 61.050781 68.550781 60.675781 68.398438 60.226562 C 68.101562 59.25 68.851562 57.074219 69.375 55.351562 C 69.898438 53.476562 70.425781 50.773438 71.925781 49.273438 C 73.648438 47.699219 77.699219 46.726562 79.273438 46.574219 C 80.023438 46.425781 80.625 46.5 81 46.800781 C 81.300781 47.023438 81.449219 47.773438 81.375 48.148438 C 81.226562 48.523438 80.699219 48.898438 80.175781 48.976562 C 79.425781 49.125 78.074219 48.601562 77.023438 48.074219 C 75.898438 47.398438 73.574219 45.226562 73.726562 44.851562 C 73.800781 44.550781 75 44.398438 75.449219 44.773438 C 76.273438 45.449219 75.449219 50.101562 76.648438 51.375 C 77.625 52.425781 80.851562 51.675781 81.375 52.425781 C 81.75 52.949219 81.601562 54.148438 81.074219 54.523438 C 79.949219 55.273438 73.949219 51.976562 72.300781 52.800781 C 71.25 53.25 71.25 55.875 70.726562 56.023438 C 70.351562 56.101562 69.75 55.199219 69.675781 55.273438 C 69.675781 55.351562 71.023438 56.175781 71.175781 57.074219 C 71.550781 58.648438 68.324219 63.226562 69.300781 64.5 C 70.199219 65.699219 74.101562 65.101562 76.5 64.726562 C 79.199219 64.273438 82.949219 61.574219 84.675781 61.949219 C 85.574219 62.101562 86.324219 63 86.476562 63.601562 C 86.625 64.125 86.476562 64.648438 86.101562 65.101562 C 85.425781 66.074219 83.023438 67.5 81.375 67.949219 C 79.949219 68.324219 78.074219 68.175781 77.101562 67.875 C 76.5 67.726562 75.976562 67.425781 75.824219 67.050781 C 75.601562 66.75 75.75 66.148438 75.976562 65.773438 C 76.273438 65.476562 76.648438 65.324219 77.324219 65.101562 C 78.675781 64.425781 83.101562 63.898438 84.074219 62.699219 C 84.601562 62.101562 84.074219 60.523438 84.375 60.449219 C 84.601562 60.300781 85.273438 60.75 85.351562 61.199219 C 85.574219 61.949219 84.75 64.050781 84 64.726562 C 83.398438 65.25 82.199219 65.625 81.75 65.476562 C 81.449219 65.324219 81.226562 64.875 81.148438 64.351562 C 81.148438 63.300781 82.800781 60.898438 83.023438 59.398438 C 83.25 58.125 83.476562 56.625 82.800781 55.800781 C 82.199219 54.976562 80.398438 54.824219 78.898438 54.601562 C 77.101562 54.449219 73.726562 55.648438 72.601562 55.050781 C 72 54.675781 71.398438 53.699219 71.625 53.324219 C 72.074219 52.574219 80.101562 53.324219 81.601562 54.449219 C 82.351562 54.898438 82.800781 55.800781 82.574219 56.398438 C 82.050781 57.449219 77.699219 57.226562 75.601562 58.648438 C 73.125 60.226562 70.5 65.25 69.074219 66.148438 C 68.625 66.523438 68.324219 66.601562 67.949219 66.601562 C 67.574219 66.523438 67.050781 66.300781 66.976562 65.851562 C 66.675781 64.5 70.726562 57.898438 72.601562 55.726562 C 73.648438 54.375 75.300781 52.800781 75.898438 53.023438 C 76.351562 53.175781 76.648438 54.449219 76.351562 55.050781 C 75.976562 56.023438 73.5 56.625 72.226562 57.75 C 70.949219 58.875 69.824219 61.726562 68.925781 61.949219 C 68.398438 62.023438 67.648438 61.648438 67.425781 61.273438 C 67.273438 60.898438 67.425781 60 67.726562 59.699219 C 67.949219 59.476562 68.550781 59.324219 68.851562 59.398438 C 69.226562 59.476562 69.675781 59.851562 69.824219 60.148438 C 69.976562 60.523438 69.898438 61.050781 69.675781 61.351562 C 69.523438 61.648438 69 61.949219 68.625 61.949219 C 68.25 61.949219 67.726562 61.726562 67.5 61.425781 C 67.351562 61.125 67.273438 60.675781 67.425781 60.226562 C 67.726562 59.023438 69.675781 56.550781 71.175781 55.351562 C 72.449219 54.226562 74.550781 53.101562 75.675781 52.875 C 76.273438 52.726562 76.800781 52.726562 77.101562 52.949219 C 77.476562 53.25 77.925781 53.851562 77.773438 54.375 C 77.625 55.273438 75.449219 56.175781 74.324219 57.601562 C 72.898438 59.476562 71.476562 63.300781 70.125 64.800781 C 69.375 65.699219 68.550781 66.601562 67.949219 66.601562 C 67.574219 66.601562 67.125 66.148438 66.976562 65.851562 C 66.824219 65.550781 66.824219 65.175781 67.050781 64.574219 C 67.648438 63 71.550781 58.199219 73.949219 56.625 C 75.675781 55.5 78.074219 55.125 79.273438 54.976562 C 79.875 54.976562 80.324219 54.898438 80.625 55.199219 C 81 55.5 81.449219 56.625 81.074219 57 C 80.324219 57.898438 72.226562 56.773438 70.875 55.574219 C 70.273438 55.050781 70.050781 54 70.351562 53.476562 C 70.726562 52.726562 72.675781 52.273438 74.101562 52.050781 C 75.75 51.75 78.074219 51.75 79.800781 52.050781 C 81.375 52.273438 83.101562 52.726562 84.074219 53.476562 C 84.824219 54 85.351562 54.523438 85.574219 55.425781 C 86.023438 56.699219 85.800781 58.800781 85.5 60.449219 C 85.125 62.101562 84.226562 64.5 83.476562 65.25 C 83.101562 65.625 82.726562 65.773438 82.351562 65.699219 C 81.976562 65.625 81.300781 65.25 81.226562 64.726562 C 81.074219 63.601562 83.625 59.625 84.601562 58.875 C 84.976562 58.574219 85.351562 58.5 85.726562 58.574219 C 86.101562 58.648438 86.476562 58.875 86.773438 59.25 C 87.148438 60 87.300781 62.101562 86.851562 63.226562 C 86.398438 64.273438 85.351562 65.175781 84.226562 65.851562 C 82.800781 66.601562 80.023438 67.425781 78.898438 67.425781 C 78.375 67.425781 78 67.425781 77.773438 67.199219 C 77.476562 66.898438 77.398438 65.699219 77.699219 65.324219 C 78.226562 64.800781 80.398438 65.476562 81.449219 65.175781 C 82.425781 64.949219 83.25 64.050781 83.851562 64.125 C 84.300781 64.125 84.976562 64.425781 84.976562 64.648438 C 84.976562 65.324219 79.425781 67.050781 76.648438 67.425781 C 74.101562 67.800781 70.726562 67.726562 69 67.199219 C 68.023438 66.976562 67.199219 66.675781 66.824219 66 C 66.449219 65.324219 66.675781 64.199219 66.898438 63.074219 C 67.199219 61.574219 68.699219 59.324219 68.851562 57.675781 C 69 56.476562 68.101562 55.5 68.324219 54.449219 C 68.625 53.25 69.449219 51.601562 70.574219 50.925781 C 71.851562 50.175781 74.101562 50.324219 76.050781 50.625 C 78.226562 50.925781 82.574219 52.050781 82.949219 53.101562 C 83.101562 53.699219 82.351562 54.824219 81.601562 55.125 C 80.550781 55.574219 77.851562 54.75 76.574219 54.226562 C 75.675781 53.925781 75 53.550781 74.476562 52.949219 C 73.949219 52.351562 73.574219 51.523438 73.351562 50.476562 C 73.050781 48.75 72.976562 44.023438 73.875 43.351562 C 74.324219 42.898438 75.300781 43.199219 75.824219 43.5 C 76.5 43.875 76.800781 44.925781 77.550781 45.449219 C 78.375 45.976562 80.101562 45.976562 80.773438 46.574219 C 81.148438 47.023438 81.523438 47.625 81.375 48.148438 C 80.851562 49.351562 75.226562 49.574219 73.425781 51.601562 C 71.550781 53.625 71.476562 59.324219 70.574219 60.523438 C 70.273438 60.898438 69.976562 61.125 69.675781 61.125 C 69.300781 61.125 68.699219 60.976562 68.476562 60.449219 C 67.949219 59.25 69.300781 54.675781 70.050781 52.050781 C 70.726562 49.648438 71.773438 46.199219 72.75 45.226562 C 73.125 44.773438 73.574219 44.550781 73.949219 44.625 C 74.25 44.625 74.699219 44.925781 74.851562 45.300781 C 75.148438 45.976562 74.550781 47.625 74.101562 49.050781 C 73.574219 51.148438 72.449219 55.648438 71.398438 56.625 C 70.949219 57.074219 70.273438 57.148438 69.976562 57 C 69.601562 56.851562 69.375 56.476562 69.375 55.875 C 69.148438 53.925781 72.449219 46.574219 73.125 43.050781 C 73.574219 40.648438 72.976562 37.800781 73.726562 36.898438 C 74.101562 36.449219 74.699219 36.300781 75.300781 36.449219 C 76.648438 36.75 78.75 39.449219 80.476562 41.550781 C 82.648438 44.25 85.425781 47.851562 87 51.601562 C 88.648438 55.5 90.75 62.773438 89.851562 64.5 C 89.550781 65.175781 88.574219 65.476562 88.050781 65.324219 C 87.300781 65.175781 86.625 64.273438 86.023438 63.148438 C 84.75 60.75 82.273438 52.800781 82.726562 50.773438 C 82.875 50.101562 83.476562 49.574219 83.851562 49.5 C 84.300781 49.425781 85.050781 49.949219 85.351562 50.476562 C 85.726562 51.226562 85.648438 53.476562 85.125 54.074219 C 84.75 54.449219 83.773438 54.601562 83.175781 54.226562 C 81.824219 53.398438 79.574219 47.101562 79.726562 45.449219 C 79.800781 44.773438 80.324219 44.175781 80.699219 44.023438 C 81.074219 43.949219 81.675781 44.175781 82.050781 44.550781 C 82.726562 45.148438 83.476562 46.875 83.699219 48.074219 C 84 49.125 84 50.550781 83.773438 51.300781 C 83.625 51.75 83.398438 52.125 83.101562 52.273438 C 82.800781 52.425781 82.199219 52.425781 81.75 52.125 C 80.476562 51.375 77.324219 46.800781 77.175781 45.375 C 77.101562 44.699219 77.476562 44.101562 77.851562 43.875 C 78.148438 43.726562 78.824219 43.949219 79.351562 44.398438 C 80.25 45.148438 81.976562 48.75 81.898438 49.800781 C 81.824219 50.324219 81.449219 50.699219 81.148438 50.851562 C 80.773438 51 80.324219 50.925781 79.875 50.550781 C 78.375 49.273438 73.726562 40.050781 73.800781 38.25 C 73.875 37.726562 74.25 37.351562 74.550781 37.273438 C 74.925781 37.199219 75.675781 37.5 76.125 38.101562 C 77.023438 39.226562 77.25 42.601562 78.148438 44.773438 C 78.976562 47.023438 81.375 49.875 81.300781 51.148438 C 81.300781 51.75 80.925781 52.351562 80.550781 52.425781 C 80.175781 52.574219 79.648438 52.351562 79.199219 51.824219 C 77.550781 50.023438 74.101562 36.898438 74.25 34.425781 C 74.25 33.75 74.476562 33.375 74.773438 33.148438 C 75.074219 32.851562 75.898438 32.699219 76.273438 32.851562 C 76.574219 33 76.949219 33.601562 76.875 33.824219 C 76.800781 34.050781 75.675781 34.199219 75.675781 34.199219 C 75.601562 34.125 77.101562 33.148438 77.476562 33.300781 C 77.851562 33.449219 78.074219 34.425781 77.925781 35.25 C 77.550781 37.125 73.574219 41.550781 72.375 44.023438 C 71.550781 45.675781 71.398438 46.574219 70.800781 48.300781 C 69.824219 51.148438 67.726562 56.324219 67.273438 59.476562 C 66.976562 61.648438 66.675781 63.523438 67.574219 65.023438 C 68.550781 66.824219 71.398438 68.625 73.726562 69.226562 C 76.199219 69.824219 79.273438 69.074219 81.976562 68.324219 C 84.675781 67.574219 88.5 64.800781 89.925781 64.800781 C 90.449219 64.800781 90.824219 65.101562 90.976562 65.398438 C 91.199219 65.699219 91.425781 66.226562 91.125 66.601562 C 90.300781 67.949219 81.148438 69.976562 78.449219 70.351562 C 77.324219 70.574219 77.023438 70.574219 75.824219 70.425781 C 73.273438 70.125 66.148438 68.851562 63.898438 67.351562 C 62.699219 66.601562 62.101562 65.699219 61.726562 64.574219 C 61.199219 63.226562 61.273438 61.125 61.574219 59.699219 C 61.875 58.351562 63.226562 57.074219 63.449219 56.175781 C 63.523438 55.648438 63.074219 55.199219 63.300781 54.824219 C 63.449219 54.523438 64.199219 54.148438 64.574219 54.226562 C 64.949219 54.300781 65.398438 54.675781 65.625 55.199219 C 66.074219 56.398438 65.851562 60.824219 65.175781 61.875 C 64.875 62.324219 64.351562 62.550781 63.898438 62.476562 C 63.523438 62.398438 63 61.875 62.851562 61.199219 C 62.550781 59.851562 63.675781 56.398438 64.574219 54 C 65.625 51.375 67.425781 47.25 68.699219 46.351562 C 69.226562 45.898438 69.898438 45.824219 70.273438 46.050781 C 70.648438 46.199219 70.949219 47.101562 70.800781 47.550781 C 70.648438 48 69.75 48.675781 69.300781 48.601562 C 68.925781 48.523438 68.398438 48 68.324219 47.324219 C 67.949219 45.449219 71.101562 36.523438 72.75 35.324219 C 73.351562 34.875 74.25 34.875 74.550781 35.175781 C 74.925781 35.476562 75 36.523438 74.773438 36.976562 C 74.625 37.425781 74.101562 37.875 73.726562 37.875 C 73.351562 37.949219 72.75 37.574219 72.375 36.976562 C 71.398438 35.324219 71.101562 28.050781 71.175781 25.5 C 71.175781 24.226562 71.101562 22.949219 71.625 22.648438 C 72 22.351562 72.824219 22.5 73.351562 22.949219 C 74.398438 23.851562 74.699219 27.074219 75.898438 29.851562 C 77.925781 34.5 85.5 45.824219 85.199219 48.074219 C 85.050781 48.75 84.523438 49.050781 84.148438 49.125 C 83.773438 49.199219 83.25 48.976562 82.800781 48.523438 C 81.898438 47.550781 80.851562 43.574219 80.625 41.550781 C 80.398438 40.199219 81.074219 39.449219 80.773438 37.875 C 80.101562 34.726562 75.523438 28.949219 74.023438 24.675781 C 72.675781 20.925781 71.324219 15.375 71.851562 13.726562 C 72.074219 13.125 72.523438 12.824219 72.898438 12.75 C 73.351562 12.675781 74.023438 12.898438 74.25 13.351562 C 75 14.699219 74.101562 21.601562 73.125 23.101562 C 72.75 23.699219 72.148438 24.074219 71.699219 24 C 71.324219 23.925781 70.800781 23.550781 70.648438 22.949219 C 70.199219 21.601562 72.226562 17.25 72.601562 14.625 C 72.898438 12.375 72.226562 9.226562 72.898438 8.101562 C 73.273438 7.5 73.949219 7.050781 74.324219 7.125 C 74.773438 7.125 75.148438 7.574219 75.523438 8.398438 C 76.648438 11.175781 75.148438 24.375 76.648438 30.148438 C 77.699219 34.351562 82.125 39 81.523438 40.425781 C 81.300781 41.023438 80.175781 41.324219 79.726562 41.101562 C 79.050781 40.875 78.601562 39.449219 78.148438 38.175781 C 77.550781 36.226562 77.773438 33.300781 77.101562 30.375 C 76.273438 26.625 72.449219 18 73.125 17.550781 C 73.351562 17.324219 74.550781 18 74.773438 18.675781 C 75.226562 20.175781 72.675781 23.699219 71.25 27.601562 C 68.699219 35.101562 63.449219 54.75 61.425781 60.300781 C 60.75 62.25 60.523438 63.75 59.851562 64.199219 C 59.476562 64.425781 58.800781 64.351562 58.5 64.125 C 58.199219 63.976562 58.050781 62.925781 58.050781 62.925781 " clip-rule="nonzero"/></clipPath><clipPath id="1c9592c032"><path d="M 56.675781 6.808594 L 71.933594 6.808594 L 71.933594 65.179688 L 56.675781 65.179688 Z M 56.675781 6.808594 " clip-rule="nonzero"/></clipPath><clipPath id="98b24aea02"><path d="M 71.925781 8.023438 C 70.351562 23.023438 68.851562 28.648438 67.199219 33.824219 C 65.550781 39.148438 63 48 61.199219 49.648438 C 60.675781 50.175781 60 50.324219 59.550781 50.101562 C 59.175781 49.949219 58.726562 48.75 58.875 48.300781 C 59.023438 47.851562 59.851562 47.324219 60.300781 47.324219 C 60.675781 47.398438 61.273438 48 61.425781 48.601562 C 61.648438 49.800781 59.699219 52.425781 59.476562 54.449219 C 59.175781 56.550781 60.375 59.699219 59.851562 60.898438 C 59.550781 61.5 58.875 61.949219 58.425781 61.949219 C 58.050781 61.949219 57.449219 61.425781 57.300781 60.976562 C 57.074219 60.449219 57.300781 59.175781 57.675781 58.875 C 58.050781 58.5 59.023438 58.425781 59.476562 58.726562 C 60.148438 59.25 60.976562 62.773438 60.449219 63.375 C 60.148438 63.75 58.726562 63.601562 58.425781 63.226562 C 58.125 62.925781 58.199219 62.398438 58.273438 61.648438 C 58.425781 60.074219 59.175781 56.851562 60 54.074219 C 60.976562 50.625 62.699219 44.023438 64.125 42.75 C 64.648438 42.300781 65.476562 42.226562 65.851562 42.449219 C 66.148438 42.675781 66.523438 43.648438 66.300781 44.023438 C 66.148438 44.476562 65.023438 44.925781 64.648438 44.699219 C 64.273438 44.550781 63.824219 43.351562 63.976562 42.976562 C 64.125 42.601562 65.023438 42.226562 65.398438 42.300781 C 65.773438 42.375 66.449219 43.050781 66.449219 43.425781 C 66.449219 43.875 65.625 44.699219 65.175781 44.851562 C 64.875 44.851562 64.351562 44.550781 64.125 44.25 C 63.898438 44.023438 63.75 43.425781 63.976562 43.125 C 64.125 42.675781 65.101562 42.148438 65.550781 42.300781 C 65.925781 42.449219 66.375 42.976562 66.449219 43.726562 C 66.675781 45.976562 62.550781 54 61.648438 57.675781 C 61.050781 60 61.351562 62.25 60.675781 63.523438 C 60.300781 64.273438 59.625 65.101562 59.101562 65.101562 C 58.648438 65.101562 58.050781 64.351562 57.75 63.601562 C 57.300781 62.550781 57 59.851562 57.523438 59.101562 C 57.75 58.648438 58.5 58.425781 58.875 58.5 C 59.25 58.574219 59.851562 59.101562 59.925781 59.550781 C 60.074219 60.074219 59.773438 61.351562 59.324219 61.648438 C 58.949219 61.949219 58.050781 61.949219 57.601562 61.5 C 56.851562 60.824219 56.625 58.050781 56.773438 56.101562 C 56.851562 53.699219 57.824219 49.125 58.949219 48 C 59.550781 47.476562 60.449219 47.324219 60.824219 47.550781 C 61.199219 47.773438 61.574219 48.976562 61.351562 49.351562 C 61.125 49.800781 60 50.324219 59.550781 50.101562 C 59.175781 49.949219 58.875 49.351562 58.875 48.523438 C 58.875 45.976562 63.375 37.574219 64.949219 32.625 C 66.300781 28.5 66.898438 22.800781 67.875 21 C 68.25 20.324219 69.074219 19.800781 69 19.800781 C 69 19.726562 68.324219 20.550781 68.101562 20.476562 C 67.425781 20.023438 68.625 9.375 69.675781 7.726562 C 70.050781 7.125 70.574219 6.824219 70.949219 6.824219 C 71.324219 6.898438 71.925781 8.023438 71.925781 8.023438 " clip-rule="nonzero"/></clipPath><clipPath id="c6a77fa95b"><path d="M 79.410156 32.847656 L 94.421875 32.847656 L 94.421875 67.5 L 79.410156 67.5 Z M 79.410156 32.847656 " clip-rule="nonzero"/></clipPath><clipPath id="47e98bdbfd"><path d="M 90.976562 66.226562 C 91.949219 58.050781 92.023438 56.625 91.5 54.675781 C 90.824219 51.976562 89.023438 48 87.300781 45.300781 C 85.726562 42.898438 82.875 40.949219 81.75 39.074219 C 81 37.875 80.101562 36.523438 80.324219 35.625 C 80.476562 34.875 81.675781 33.824219 82.125 33.976562 C 82.726562 34.199219 82.425781 37.125 83.175781 39.226562 C 84.449219 42.75 88.875 48.601562 90.226562 52.5 C 91.199219 55.273438 92.023438 58.875 91.574219 60.148438 C 91.351562 60.75 90.824219 61.125 90.449219 61.125 C 90 61.199219 89.398438 60.898438 89.101562 60.449219 C 88.574219 59.476562 89.851562 56.398438 89.398438 54.675781 C 88.875 52.949219 87.074219 51.824219 86.25 50.023438 C 85.199219 47.851562 83.699219 43.5 84.148438 42.375 C 84.300781 41.851562 84.75 41.625 85.125 41.625 C 85.5 41.550781 86.398438 41.925781 86.550781 42.375 C 86.699219 42.75 86.25 43.949219 85.800781 44.101562 C 85.425781 44.324219 84.226562 43.726562 84.074219 43.351562 C 83.925781 42.976562 84.226562 42.074219 84.601562 41.773438 C 84.976562 41.550781 85.726562 41.550781 86.175781 41.925781 C 87.226562 42.675781 87.675781 46.949219 88.726562 49.050781 C 89.625 50.925781 91.425781 52.199219 91.875 54.074219 C 92.398438 55.949219 92.023438 59.398438 91.425781 60.449219 C 91.199219 60.898438 90.75 61.125 90.449219 61.125 C 90 61.125 89.476562 60.898438 89.101562 60.449219 C 88.199219 59.25 88.5 55.5 87.523438 52.726562 C 86.175781 49.125 82.351562 44.550781 81.074219 41.023438 C 80.101562 38.398438 79.050781 35.101562 79.648438 33.824219 C 79.949219 33.226562 80.925781 32.851562 81.375 32.925781 C 81.824219 33 82.125 33.601562 82.425781 34.125 C 83.023438 35.023438 83.175781 36.523438 84 37.875 C 85.273438 39.976562 88.5 42.523438 90.148438 45.226562 C 91.800781 47.773438 93.148438 50.851562 93.824219 53.476562 C 94.425781 55.726562 94.5 57.75 94.351562 59.925781 C 94.273438 62.101562 93.976562 65.625 93.226562 66.675781 C 92.851562 67.199219 92.25 67.5 91.875 67.425781 C 91.5 67.351562 90.976562 66.226562 90.976562 66.226562 " clip-rule="nonzero"/></clipPath><clipPath id="9b919089f8"><path d="M 70.941406 12.441406 L 73.21875 12.441406 L 73.21875 14.71875 L 70.941406 14.71875 Z M 70.941406 12.441406 " clip-rule="nonzero"/></clipPath><clipPath id="d111925a33"><path d="M 70.949219 13.574219 C 72.824219 12.675781 73.125 14.101562 72.898438 14.398438 C 72.675781 14.625 71.175781 14.398438 71.101562 14.101562 C 70.949219 13.726562 71.625 12.523438 72 12.449219 C 72.375 12.449219 73.199219 13.199219 73.199219 13.574219 C 73.199219 13.949219 72.601562 14.699219 72.226562 14.699219 C 71.851562 14.773438 70.949219 13.648438 70.949219 13.648438 " clip-rule="nonzero"/></clipPath><clipPath id="0366d936a6"><path d="M 70.941406 2.804688 L 74.558594 2.804688 L 74.558594 14.726562 L 70.941406 14.726562 Z M 70.941406 2.804688 " clip-rule="nonzero"/></clipPath><clipPath id="180cd16b6a"><path d="M 70.949219 13.5 C 72.226562 3.074219 72.75 2.851562 73.199219 2.851562 C 73.5 2.773438 74.023438 3.074219 74.175781 3.449219 C 74.324219 3.75 74.25 4.648438 74.023438 4.949219 C 73.800781 5.25 73.273438 5.398438 72.898438 5.324219 C 72.523438 5.25 71.925781 4.574219 71.851562 4.199219 C 71.773438 3.898438 72 3.375 72.300781 3.148438 C 72.523438 2.925781 73.125 2.773438 73.425781 2.851562 C 73.800781 3 74.175781 3.449219 74.398438 4.050781 C 74.851562 5.699219 74.101562 12.375 73.199219 13.800781 C 72.824219 14.398438 72.300781 14.699219 71.925781 14.699219 C 71.550781 14.625 70.949219 13.5 70.949219 13.5 " clip-rule="nonzero"/></clipPath><clipPath id="03c576d5a3"><path d="M 15.414062 8.066406 L 50.894531 8.066406 L 50.894531 60.402344 L 15.414062 60.402344 Z M 15.414062 8.066406 " clip-rule="nonzero"/></clipPath><clipPath id="c93730cf03"><path d="M 30.226562 9.601562 C 23.550781 37.125 23.476562 37.875 22.949219 38.175781 C 22.5 38.398438 21.523438 38.398438 21.226562 37.949219 C 20.476562 36.976562 21.601562 30.300781 22.648438 29.550781 C 23.175781 29.25 24.375 29.550781 24.675781 30 C 24.976562 30.523438 24.449219 31.574219 24.148438 32.773438 C 23.550781 34.949219 22.199219 40.875 21 41.925781 C 20.476562 42.300781 19.800781 42.375 19.425781 42.226562 C 19.125 42 18.824219 41.023438 18.898438 41.023438 C 18.976562 40.949219 19.949219 41.550781 20.25 42.148438 C 20.773438 43.574219 20.175781 48.449219 19.574219 49.648438 C 19.351562 50.175781 18.75 50.550781 18.75 50.550781 C 18.675781 50.550781 19.425781 49.425781 19.648438 49.5 C 20.101562 49.574219 20.398438 52.800781 20.023438 53.773438 C 19.875 54.375 19.351562 54.976562 18.898438 55.125 C 18.523438 55.199219 18 54.898438 17.550781 54.449219 C 16.574219 53.175781 15.449219 47.699219 15.523438 45.375 C 15.523438 43.875 15.898438 42.675781 16.648438 41.625 C 17.324219 40.648438 18.824219 39.375 19.726562 39.375 C 20.476562 39.375 21.226562 39.898438 21.75 40.726562 C 22.574219 42.148438 22.125 46.050781 22.574219 48.226562 C 23.023438 50.023438 23.023438 51.824219 24.226562 53.101562 C 25.875 54.898438 30.148438 56.023438 32.550781 56.773438 C 34.273438 57.300781 35.625 57.675781 37.199219 57.675781 C 38.851562 57.675781 40.800781 57.226562 42.074219 56.476562 C 43.125 55.800781 43.875 54.824219 44.398438 53.699219 C 44.925781 52.425781 44.25 49.800781 44.925781 49.125 C 45.375 48.75 46.273438 48.675781 46.648438 48.898438 C 47.023438 49.125 47.324219 49.949219 47.25 50.324219 C 47.101562 50.773438 46.5 51.300781 46.125 51.375 C 45.675781 51.449219 45.074219 51.148438 44.773438 50.625 C 44.101562 49.800781 44.25 47.773438 43.648438 45.976562 C 42.824219 43.425781 40.351562 39.75 39.523438 36.976562 C 38.851562 34.875 39.226562 33.523438 38.398438 31.050781 C 36.824219 26.625 29.476562 15.976562 28.875 13.050781 C 28.648438 12.148438 28.726562 11.625 28.949219 11.25 C 29.175781 10.875 29.699219 10.425781 30.226562 10.574219 C 32.25 11.175781 39.074219 25.273438 41.023438 30 C 42.148438 32.476562 43.125 34.949219 42.824219 36.074219 C 42.75 36.601562 42.226562 36.976562 41.773438 37.050781 C 41.476562 37.125 41.101562 37.050781 40.648438 36.675781 C 39.523438 35.851562 37.574219 32.625 36.074219 29.851562 C 33.976562 26.023438 29.851562 18.074219 29.773438 15.75 C 29.699219 14.925781 29.851562 14.398438 30.226562 14.175781 C 30.601562 13.949219 31.5 14.175781 31.800781 14.476562 C 32.175781 14.773438 32.101562 15.300781 32.023438 16.125 C 32.023438 18.523438 30.898438 27.523438 29.773438 29.699219 C 29.324219 30.449219 28.726562 31.050781 28.273438 31.050781 C 27.976562 31.050781 27.601562 30.601562 27.375 30.148438 C 26.925781 29.101562 27.148438 26.398438 27.226562 24.75 C 27.226562 23.25 27.226562 22.050781 27.523438 20.625 C 27.976562 18.75 28.875 15.375 29.773438 14.550781 C 30.226562 14.25 30.824219 14.175781 31.125 14.324219 C 31.5 14.476562 31.800781 15 31.800781 15.824219 C 31.875 18.75 24.601562 31.800781 23.550781 37.574219 C 22.949219 41.25 23.324219 44.25 23.625 46.800781 C 23.925781 48.675781 25.199219 50.699219 24.898438 51.601562 C 24.75 52.125 24.226562 52.574219 23.851562 52.574219 C 23.476562 52.648438 22.425781 51.675781 22.5 51.675781 C 22.5 51.601562 24.300781 52.351562 24.300781 52.425781 C 24.300781 52.5 22.5 52.5 21.824219 52.050781 C 20.851562 51.523438 19.800781 49.726562 19.425781 48.675781 C 19.199219 47.925781 19.125 46.875 19.5 46.574219 C 19.800781 46.199219 20.925781 46.125 21.449219 46.574219 C 22.351562 47.175781 22.199219 50.851562 23.023438 51.976562 C 23.550781 52.800781 24.976562 53.101562 24.976562 53.476562 C 24.976562 53.773438 23.550781 54.226562 23.550781 54.226562 C 23.476562 54.148438 24.300781 53.476562 24.675781 53.398438 C 25.050781 53.324219 25.351562 53.550781 25.875 53.773438 C 26.925781 54.300781 29.925781 55.800781 30.601562 56.851562 C 30.976562 57.375 31.125 58.199219 30.898438 58.574219 C 30.675781 58.949219 30 59.25 29.476562 59.175781 C 28.800781 59.101562 27.976562 58.273438 27.300781 57.226562 C 26.25 55.574219 25.425781 52.425781 25.050781 49.125 C 24.449219 44.175781 25.050781 33.601562 25.648438 30.226562 C 25.875 28.949219 25.949219 27.976562 26.476562 27.675781 C 26.925781 27.375 27.898438 27.449219 28.273438 27.976562 C 29.324219 29.550781 25.949219 38.925781 25.648438 42.976562 C 25.425781 45.75 26.324219 48.898438 25.726562 50.023438 C 25.5 50.476562 24.976562 50.773438 24.601562 50.773438 C 24.226562 50.773438 23.773438 50.550781 23.550781 50.175781 C 23.101562 49.425781 23.324219 47.175781 23.398438 45.300781 C 23.625 42.824219 24.148438 39.675781 24.824219 36.75 C 25.574219 33.601562 26.550781 29.773438 27.824219 27.074219 C 28.800781 24.976562 30.300781 22.351562 31.351562 21.824219 C 31.800781 21.601562 32.175781 21.675781 32.625 21.976562 C 33.375 22.351562 34.199219 23.550781 35.175781 25.273438 C 37.425781 29.324219 41.925781 42.601562 43.5 47.550781 C 44.324219 49.949219 44.925781 51.523438 45.074219 53.023438 C 45.148438 54 45.148438 54.824219 44.851562 55.425781 C 44.625 55.875 44.25 56.398438 43.875 56.476562 C 43.5 56.476562 42.824219 56.175781 42.449219 55.648438 C 41.699219 54.375 42.375 50.625 41.925781 47.925781 C 41.324219 44.699219 40.574219 41.101562 38.925781 37.648438 C 36.976562 33.449219 30.675781 26.699219 30 24.675781 C 29.773438 24.148438 29.773438 23.851562 29.925781 23.550781 C 30.074219 23.25 30.675781 22.875 31.050781 22.875 C 31.5 22.875 31.949219 23.324219 32.25 23.773438 C 32.625 24.375 32.773438 25.351562 33 26.550781 C 33.226562 28.199219 33.300781 31.351562 33.074219 33.074219 C 32.851562 34.199219 32.699219 35.25 32.175781 35.851562 C 31.800781 36.375 30.898438 36.675781 30.449219 36.601562 C 30.074219 36.523438 29.851562 36.300781 29.625 35.773438 C 29.023438 34.648438 28.273438 29.175781 28.949219 28.425781 C 29.25 28.050781 30.074219 28.050781 30.449219 28.351562 C 31.125 29.023438 30.824219 33.675781 31.050781 33.675781 C 31.125 33.675781 31.050781 32.773438 31.273438 32.550781 C 31.574219 32.175781 32.324219 31.875 32.699219 31.949219 C 33 32.101562 33.375 32.699219 33.375 33 C 33.375 33.300781 32.851562 33.75 32.550781 33.75 C 32.175781 33.824219 31.351562 33.148438 31.351562 33.148438 C 31.351562 33.148438 32.699219 33.898438 32.851562 33.75 C 33 33.523438 31.050781 31.574219 31.273438 31.199219 C 31.425781 30.898438 33.523438 31.050781 33.898438 31.425781 C 34.125 31.648438 34.050781 32.324219 33.75 32.625 C 33.300781 33.074219 31.125 32.398438 30.148438 32.925781 C 29.101562 33.375 28.273438 34.574219 27.675781 35.550781 C 27.148438 36.449219 26.175781 37.875 26.550781 38.476562 C 26.925781 39.074219 28.800781 39.148438 29.925781 39.074219 C 30.976562 38.925781 32.851562 38.476562 32.925781 37.875 C 33.074219 37.273438 30.226562 36.226562 30.074219 35.476562 C 30 34.875 30.601562 34.125 31.273438 33.824219 C 32.324219 33.300781 35.625 33.601562 36.523438 34.199219 C 36.976562 34.5 37.273438 35.25 37.199219 35.699219 C 37.125 36.074219 36.675781 36.375 36.074219 36.523438 C 34.949219 36.898438 30.148438 35.773438 30.148438 35.773438 C 30.148438 35.773438 34.199219 35.851562 34.949219 36.523438 C 35.398438 36.898438 35.625 37.648438 35.476562 38.023438 C 35.324219 38.398438 34.875 38.625 34.273438 38.773438 C 33 39 28.5 38.476562 27.449219 37.800781 C 27 37.425781 26.773438 36.976562 26.773438 36.601562 C 26.773438 36.226562 26.925781 35.773438 27.375 35.625 C 28.351562 35.25 33.824219 36.824219 34.351562 37.800781 C 34.648438 38.324219 34.273438 39.148438 33.75 39.523438 C 33 40.050781 30 40.050781 29.25 39.601562 C 28.875 39.300781 28.648438 38.699219 28.726562 38.324219 C 28.800781 37.949219 29.175781 37.574219 29.773438 37.351562 C 30.976562 36.898438 35.550781 36.976562 36.75 37.648438 C 37.273438 37.949219 37.648438 38.550781 37.648438 38.925781 C 37.574219 39.300781 37.050781 39.824219 36.449219 39.976562 C 35.023438 40.273438 30 38.550781 28.949219 37.574219 C 28.5 37.125 28.199219 36.449219 28.425781 36.226562 C 28.800781 35.851562 34.273438 37.875 35.398438 38.773438 C 35.851562 39.226562 36.148438 39.824219 36.074219 40.199219 C 36 40.574219 35.625 40.875 35.023438 41.101562 C 33.75 41.625 29.25 42.300781 27.898438 42 C 27.375 41.851562 26.925781 41.550781 26.851562 41.25 C 26.773438 40.800781 27.074219 39.976562 27.675781 39.675781 C 28.875 39.148438 34.574219 40.574219 35.023438 41.476562 C 35.175781 41.925781 34.726562 42.675781 34.199219 42.976562 C 33.300781 43.574219 30.226562 43.5 29.25 43.050781 C 28.726562 42.75 28.273438 42.148438 28.351562 41.699219 C 28.425781 41.324219 28.875 40.875 29.550781 40.648438 C 31.125 40.125 37.273438 40.425781 38.625 41.175781 C 39.226562 41.476562 39.523438 42.074219 39.523438 42.449219 C 39.449219 42.824219 39 43.351562 38.324219 43.425781 C 36.75 43.726562 29.476562 40.800781 28.351562 39.375 C 27.976562 38.773438 27.824219 37.875 28.199219 37.574219 C 28.949219 36.976562 34.800781 38.773438 35.925781 39.601562 C 36.375 39.976562 36.523438 40.425781 36.523438 40.726562 C 36.449219 41.101562 36.148438 41.550781 35.699219 41.699219 C 34.574219 42.148438 30.074219 41.773438 29.023438 41.023438 C 28.425781 40.648438 28.125 39.898438 28.199219 39.523438 C 28.351562 39.148438 28.800781 38.925781 29.324219 38.773438 C 30.449219 38.550781 33.898438 40.5 34.875 39.824219 C 35.699219 39.226562 35.175781 36.898438 35.625 36.074219 C 35.925781 35.550781 36.449219 35.023438 36.898438 35.023438 C 37.351562 35.023438 38.023438 35.398438 38.25 36 C 38.625 36.976562 37.949219 39.824219 37.125 41.625 C 36.226562 43.5 34.273438 45.523438 32.851562 46.875 C 31.726562 48 30.300781 49.5 29.476562 49.425781 C 28.875 49.351562 28.199219 48.375 28.273438 48 C 28.273438 47.625 29.023438 47.550781 29.398438 47.023438 C 30 46.199219 30.226562 42.976562 30.824219 42.75 C 31.125 42.601562 31.875 43.125 31.875 43.425781 C 31.875 44.023438 27.449219 45.074219 27.300781 46.125 C 27.148438 47.25 31.199219 49.050781 31.351562 50.023438 C 31.425781 50.550781 30.675781 51.300781 30.675781 51.300781 C 30.601562 51.300781 31.125 49.726562 31.273438 49.726562 C 31.5 49.726562 31.726562 52.726562 31.5 53.625 C 31.351562 54.226562 31.050781 54.75 30.675781 54.824219 C 30.226562 54.976562 28.875 54.300781 28.726562 53.699219 C 28.425781 52.949219 28.949219 51.675781 29.773438 50.699219 C 31.050781 49.273438 34.726562 47.625 36.824219 46.800781 C 38.25 46.273438 39.898438 45.601562 40.726562 45.898438 C 41.25 46.125 41.773438 46.875 41.773438 47.25 C 41.699219 47.699219 41.25 48.226562 40.5 48.449219 C 38.773438 49.050781 31.5 47.476562 29.699219 47.023438 C 29.101562 46.875 28.726562 46.949219 28.5 46.648438 C 28.125 46.273438 27.976562 45 28.199219 44.550781 C 28.351562 44.25 28.726562 44.25 29.25 44.101562 C 30.75 43.648438 35.925781 42.976562 38.023438 42.976562 C 39.148438 42.976562 40.199219 42.976562 40.726562 43.351562 C 41.101562 43.648438 41.398438 44.25 41.324219 44.699219 C 41.25 45.074219 40.875 45.375 40.273438 45.675781 C 38.925781 46.351562 34.425781 45.976562 32.550781 46.648438 C 31.351562 47.101562 30.523438 47.550781 29.773438 48.300781 C 29.175781 48.976562 28.949219 50.625 28.425781 50.773438 C 28.125 50.925781 27.375 50.476562 27.375 50.324219 C 27.375 50.101562 29.023438 50.324219 30.074219 49.949219 C 31.648438 49.425781 33.675781 47.25 35.773438 46.574219 C 37.875 45.898438 41.324219 45.449219 42.675781 46.050781 C 43.351562 46.273438 43.875 47.023438 43.875 47.476562 C 43.875 47.773438 43.648438 48.074219 43.199219 48.375 C 41.476562 49.648438 28.351562 51.824219 28.273438 53.324219 C 28.199219 54.226562 32.925781 55.050781 33.675781 55.875 C 34.050781 56.25 34.199219 56.699219 34.199219 57 C 34.125 57.375 33.898438 57.898438 33.523438 58.050781 C 33 58.273438 31.875 57.976562 30.898438 57.601562 C 29.625 57.074219 27.300781 56.175781 26.625 54.976562 C 26.101562 53.925781 26.175781 52.199219 26.851562 51 C 27.75 49.425781 30.300781 47.699219 32.625 46.949219 C 35.324219 46.125 40.648438 46.648438 42.300781 47.101562 C 43.050781 47.324219 43.425781 47.476562 43.648438 47.851562 C 43.949219 48.226562 44.101562 49.050781 43.800781 49.425781 C 43.574219 49.800781 42.601562 50.175781 41.851562 49.875 C 40.050781 49.273438 37.125 42.300781 34.574219 40.273438 C 32.773438 38.773438 30.523438 37.273438 29.101562 37.648438 C 27.75 37.949219 26.851562 41.699219 26.023438 41.925781 C 25.574219 42 24.976562 41.699219 24.898438 41.324219 C 24.75 40.425781 27.824219 37.273438 30.148438 35.773438 C 33.226562 33.75 40.199219 31.125 42.601562 31.574219 C 43.648438 31.726562 43.875 32.324219 44.625 33.226562 C 46.050781 34.949219 48.601562 39.449219 49.5 42.226562 C 50.25 44.476562 50.851562 47.25 50.398438 48.523438 C 50.175781 49.199219 49.5 49.800781 49.050781 49.800781 C 48.601562 49.800781 47.773438 49.199219 47.773438 48.824219 C 47.699219 48.375 48.601562 47.324219 49.050781 47.324219 C 49.5 47.324219 50.101562 48.074219 50.398438 48.824219 C 50.925781 50.101562 50.925781 53.476562 50.625 54.898438 C 50.398438 55.875 50.023438 56.773438 49.574219 57 C 49.125 57.148438 48.226562 56.925781 47.851562 56.476562 C 47.175781 55.5 48.300781 52.5 47.925781 50.398438 C 47.476562 47.925781 46.800781 44.773438 45 42.675781 C 42.898438 40.273438 36.375 38.699219 35.25 37.199219 C 34.875 36.675781 34.726562 36.074219 34.949219 35.699219 C 35.101562 35.324219 36.300781 34.875 36.675781 35.101562 C 36.976562 35.324219 37.199219 36.898438 36.898438 37.199219 C 36.601562 37.425781 35.023438 36.976562 34.875 36.675781 C 34.726562 36.300781 35.476562 35.101562 36.148438 34.949219 C 37.425781 34.648438 41.773438 37.726562 43.050781 38.550781 C 43.574219 38.925781 44.101562 39.226562 44.023438 39.449219 C 44.023438 39.601562 42.976562 39.824219 42.976562 39.824219 C 42.976562 39.824219 43.800781 39.375 44.324219 39.375 C 45 39.449219 45.976562 39.898438 46.726562 40.726562 C 48.074219 42.226562 49.800781 46.425781 50.398438 49.125 C 50.851562 51.523438 50.773438 54.824219 50.324219 56.023438 C 50.175781 56.550781 49.875 56.925781 49.574219 57 C 49.125 57.074219 48.148438 56.773438 47.699219 56.175781 C 46.949219 54.976562 47.324219 48.75 47.699219 48.601562 C 47.925781 48.601562 48.375 49.875 48.449219 49.875 C 48.449219 49.800781 47.625 48.601562 47.851562 48.226562 C 48 47.773438 49.648438 47.476562 49.648438 47.476562 C 49.726562 47.550781 48.148438 48.824219 47.699219 48.601562 C 47.023438 48.226562 47.773438 45.449219 47.175781 43.574219 C 46.351562 40.875 44.023438 34.949219 42.226562 34.199219 C 41.175781 33.75 39.75 35.25 38.925781 35.101562 C 38.324219 35.023438 37.425781 34.351562 37.425781 34.273438 C 37.425781 34.273438 38.773438 34.726562 38.773438 35.023438 C 38.773438 35.699219 33.300781 36.75 31.125 38.175781 C 29.101562 39.601562 27.375 42.601562 26.101562 43.351562 C 25.574219 43.726562 25.050781 43.949219 24.675781 43.875 C 24.300781 43.800781 23.925781 43.5 23.699219 43.125 C 23.476562 42.75 23.324219 42.148438 23.550781 41.476562 C 23.925781 40.050781 26.101562 36.675781 27.523438 35.773438 C 28.351562 35.25 29.101562 35.25 30.148438 35.398438 C 31.875 35.699219 34.425781 37.050781 36.449219 38.699219 C 39 40.800781 42.824219 45.601562 43.574219 47.625 C 43.875 48.449219 43.949219 49.273438 43.648438 49.648438 C 43.351562 50.023438 42.523438 50.175781 42.148438 50.023438 C 41.773438 49.875 41.398438 48.75 41.324219 48.824219 C 41.175781 48.824219 41.476562 49.5 41.25 49.648438 C 40.574219 50.25 36.226562 48.898438 34.351562 49.273438 C 32.925781 49.5 31.800781 50.25 30.824219 50.925781 C 30 51.523438 28.800781 52.425781 28.875 53.101562 C 29.023438 54.148438 33.300781 55.199219 33.898438 56.101562 C 34.199219 56.550781 34.199219 57 34.125 57.300781 C 33.976562 57.675781 33.675781 58.125 33.226562 58.199219 C 32.023438 58.351562 26.476562 55.5 25.800781 54.074219 C 25.425781 53.324219 25.726562 52.5 26.175781 51.824219 C 26.773438 51 28.125 50.398438 29.773438 49.726562 C 32.699219 48.449219 40.726562 45.449219 42.675781 46.050781 C 43.425781 46.273438 43.875 47.023438 43.875 47.476562 C 43.875 47.851562 43.5 48.226562 42.898438 48.523438 C 41.773438 49.050781 38.550781 48.375 36.523438 48.976562 C 34.425781 49.648438 32.398438 51.976562 30.601562 52.425781 C 29.101562 52.726562 27.148438 52.726562 26.476562 52.125 C 25.949219 51.824219 25.800781 51.148438 25.875 50.550781 C 25.875 49.875 26.175781 49.125 26.773438 48.375 C 27.75 47.101562 29.773438 45.375 31.726562 44.476562 C 34.125 43.5 38.773438 42.523438 40.199219 43.199219 C 40.875 43.5 41.324219 44.550781 41.25 45 C 41.175781 45.300781 40.800781 45.523438 40.273438 45.675781 C 39.148438 46.050781 35.851562 45.375 33.976562 45.523438 C 32.398438 45.675781 30.375 46.875 29.699219 46.425781 C 29.324219 46.125 29.175781 44.925781 29.625 44.476562 C 30.601562 43.574219 39.074219 44.925781 40.726562 45.898438 C 41.398438 46.273438 41.699219 46.875 41.773438 47.25 C 41.773438 47.625 41.550781 47.925781 41.101562 48.300781 C 40.050781 49.199219 35.324219 50.175781 33.523438 51.226562 C 32.476562 51.824219 31.875 53.101562 31.199219 53.175781 C 30.675781 53.175781 30.226562 52.425781 29.851562 52.425781 C 29.476562 52.5 29.101562 53.324219 28.875 53.25 C 28.574219 53.023438 28.949219 49.425781 29.550781 49.050781 C 29.851562 48.75 30.675781 48.976562 30.976562 49.199219 C 31.273438 49.5 31.351562 50.550781 31.125 50.925781 C 30.824219 51.300781 30 51.449219 29.398438 51.375 C 28.273438 51.074219 25.949219 49.199219 25.351562 48.226562 C 24.976562 47.699219 24.824219 47.25 24.824219 46.726562 C 24.824219 45.976562 24.976562 45.074219 25.574219 44.324219 C 26.625 43.050781 30.148438 41.101562 31.5 40.949219 C 32.101562 40.875 32.550781 41.101562 32.851562 41.398438 C 33.226562 41.699219 33.449219 42.148438 33.375 42.75 C 33.375 44.175781 31.648438 48.300781 30.375 49.351562 C 29.625 49.949219 28.273438 50.324219 27.824219 50.023438 C 27.449219 49.726562 27.375 48.601562 27.675781 47.851562 C 28.273438 46.425781 31.875 45.074219 33.300781 43.199219 C 34.648438 41.398438 35.101562 37.574219 36.148438 36.824219 C 36.75 36.449219 37.726562 36.449219 38.023438 36.824219 C 38.398438 37.351562 37.5 39.675781 37.125 40.648438 C 36.898438 41.175781 36.675781 41.699219 36.226562 41.925781 C 35.851562 42.226562 35.398438 42.148438 34.648438 42.148438 C 33.375 42.074219 30 41.699219 29.023438 41.023438 C 28.5 40.726562 28.125 40.125 28.125 39.75 C 28.199219 39.375 28.726562 38.925781 29.324219 38.773438 C 30.601562 38.398438 34.574219 39 35.625 39.523438 C 36.148438 39.824219 36.523438 40.125 36.523438 40.5 C 36.523438 40.875 36 41.625 35.398438 41.773438 C 34.5 42.074219 32.324219 41.023438 31.050781 40.574219 C 29.925781 40.125 28.273438 39.675781 27.976562 39 C 27.824219 38.550781 27.976562 37.726562 28.425781 37.425781 C 29.398438 36.898438 34.351562 39.226562 36.300781 39.976562 C 37.5 40.5 38.625 40.875 39.074219 41.476562 C 39.375 41.773438 39.601562 42.148438 39.523438 42.449219 C 39.375 42.824219 39 43.199219 38.324219 43.425781 C 36.824219 43.949219 31.050781 43.574219 29.550781 43.050781 C 28.949219 42.898438 28.5 42.675781 28.425781 42.300781 C 28.273438 41.925781 28.5 41.101562 29.023438 40.800781 C 29.851562 40.199219 33.601562 40.273438 34.425781 40.800781 C 34.875 41.101562 35.101562 41.625 35.023438 42 C 34.949219 42.375 34.5 42.898438 33.898438 43.050781 C 32.550781 43.351562 27.601562 42.375 27 41.476562 C 26.699219 41.023438 26.851562 40.273438 27.148438 39.976562 C 27.601562 39.523438 28.5 39.523438 29.476562 39.300781 C 30.976562 39.074219 34.425781 38.324219 35.398438 38.773438 C 35.851562 39 36.148438 39.601562 36.148438 39.898438 C 36.074219 40.351562 35.398438 40.949219 34.800781 41.101562 C 33.523438 41.324219 30.226562 39.898438 28.648438 39 C 27.601562 38.324219 26.324219 37.425781 26.25 36.75 C 26.175781 36.300781 26.625 35.699219 27.148438 35.476562 C 27.75 35.101562 28.800781 35.175781 29.851562 35.25 C 31.351562 35.476562 33.898438 36.300781 35.25 36.824219 C 36.148438 37.273438 37.125 37.574219 37.425781 38.101562 C 37.648438 38.476562 37.726562 39.148438 37.425781 39.449219 C 36.675781 40.273438 31.199219 40.273438 29.851562 39.824219 C 29.25 39.601562 28.875 39.300781 28.726562 38.925781 C 28.648438 38.476562 29.023438 37.726562 29.476562 37.425781 C 30.300781 36.898438 33.523438 36.976562 34.199219 37.574219 C 34.5 37.875 34.574219 38.550781 34.425781 38.925781 C 34.273438 39.226562 33.75 39.523438 33.226562 39.601562 C 31.949219 39.675781 27.148438 38.101562 26.851562 37.199219 C 26.699219 36.675781 27.226562 35.773438 27.898438 35.476562 C 29.101562 34.875 33.523438 35.773438 34.726562 36.375 C 35.175781 36.675781 35.550781 37.050781 35.550781 37.425781 C 35.625 37.800781 35.324219 38.398438 34.875 38.625 C 34.050781 39.074219 31.800781 38.699219 30.449219 38.324219 C 29.25 38.023438 27.675781 37.351562 27.300781 36.675781 C 27 36.300781 27 35.773438 27.226562 35.398438 C 27.449219 34.726562 28.5 33.824219 29.476562 33.449219 C 30.601562 33.074219 32.550781 33.148438 33.824219 33.375 C 35.023438 33.523438 36.601562 33.898438 36.976562 34.574219 C 37.273438 35.023438 37.125 36 36.675781 36.375 C 36 36.976562 33.449219 36.75 32.25 36.449219 C 31.351562 36.226562 30.148438 35.699219 30 35.175781 C 30 34.800781 30.75 33.898438 31.273438 33.824219 C 31.875 33.675781 32.925781 34.648438 33.601562 35.101562 C 34.125 35.476562 34.648438 35.851562 34.949219 36.375 C 35.324219 36.898438 35.625 37.574219 35.550781 38.101562 C 35.550781 38.550781 35.398438 38.925781 35.023438 39.300781 C 34.199219 40.050781 31.875 41.25 30.148438 41.476562 C 28.425781 41.699219 25.5 41.324219 24.675781 40.648438 C 24.148438 40.273438 24.074219 39.75 24.074219 39.148438 C 24 38.324219 24.300781 37.199219 24.824219 36.148438 C 25.425781 34.726562 26.851562 32.476562 28.050781 31.425781 C 28.875 30.75 29.625 30.375 30.601562 30.148438 C 31.648438 29.925781 33.300781 30 34.273438 30.300781 C 34.949219 30.523438 35.699219 30.824219 35.925781 31.351562 C 36.226562 31.800781 36.226562 32.550781 35.925781 33 C 35.550781 33.523438 34.351562 33.898438 33.375 33.898438 C 32.175781 33.898438 30.226562 33.375 29.476562 32.550781 C 28.800781 31.800781 28.5 30.148438 28.648438 29.476562 C 28.800781 29.023438 29.324219 28.726562 29.699219 28.574219 C 30.148438 28.425781 30.675781 28.425781 31.199219 28.574219 C 31.949219 28.800781 33.074219 29.550781 33.75 30.300781 C 34.5 31.199219 35.25 32.773438 35.398438 33.675781 C 35.550781 34.273438 35.550781 34.800781 35.25 35.175781 C 34.726562 35.773438 32.925781 36.300781 31.800781 36.226562 C 30.675781 36.074219 29.023438 35.324219 28.574219 34.425781 C 28.125 33.675781 28.351562 32.023438 28.875 31.351562 C 29.398438 30.75 30.601562 30.523438 31.5 30.601562 C 32.476562 30.675781 33.898438 31.574219 34.5 32.25 C 34.875 32.773438 35.101562 33.449219 35.101562 33.898438 C 35.101562 34.351562 34.875 34.949219 34.5 35.175781 C 34.050781 35.550781 32.773438 35.550781 32.101562 35.175781 C 31.351562 34.800781 30.523438 33.75 30.300781 32.925781 C 30.148438 32.101562 30.523438 30.824219 30.976562 30.449219 C 31.199219 30.148438 31.648438 30 32.101562 30.148438 C 32.699219 30.300781 33.824219 31.425781 34.050781 32.25 C 34.351562 33.074219 34.351562 34.5 33.824219 35.101562 C 33.226562 35.851562 31.050781 36.226562 30.074219 35.925781 C 29.324219 35.625 28.726562 34.875 28.425781 33.976562 C 27.898438 32.773438 28.050781 30.523438 28.273438 29.175781 C 28.5 28.199219 28.800781 26.851562 29.324219 26.550781 C 29.773438 26.324219 30.824219 26.699219 31.273438 27.300781 C 32.023438 28.351562 31.875 32.324219 31.726562 33.523438 C 31.648438 34.050781 31.574219 34.425781 31.351562 34.648438 C 31.050781 34.949219 30.148438 35.25 29.925781 35.023438 C 29.398438 34.574219 30.601562 31.574219 30.75 29.925781 C 30.898438 28.351562 30.976562 26.324219 30.675781 25.199219 C 30.449219 24.601562 29.773438 24.226562 29.851562 23.851562 C 29.925781 23.476562 30.601562 22.875 31.050781 22.875 C 31.648438 22.875 32.25 23.550781 33 24.375 C 34.726562 26.25 38.25 30.898438 40.050781 34.648438 C 42 38.550781 43.5 43.648438 44.175781 47.476562 C 44.773438 50.476562 45.375 54.449219 44.773438 55.726562 C 44.550781 56.25 43.949219 56.476562 43.574219 56.476562 C 43.199219 56.476562 42.75 56.101562 42.449219 55.648438 C 41.773438 54.523438 42.226562 51.976562 41.550781 49.273438 C 40.199219 44.101562 35.25 31.574219 33.300781 27.601562 C 32.476562 25.949219 31.125 24.449219 31.273438 24.226562 C 31.425781 24.074219 32.324219 24.300781 32.476562 24.675781 C 32.699219 25.351562 30.675781 27 29.925781 28.800781 C 28.726562 31.425781 27.375 35.773438 26.625 39.375 C 25.949219 42.898438 26.625 48.523438 25.726562 50.023438 C 25.425781 50.550781 24.976562 50.773438 24.601562 50.773438 C 24.226562 50.773438 23.773438 50.550781 23.550781 50.175781 C 23.023438 49.425781 23.023438 47.625 23.101562 45.601562 C 23.25 41.699219 24.898438 30.523438 26.023438 28.425781 C 26.324219 27.75 26.625 27.449219 27 27.375 C 27.375 27.375 27.976562 27.449219 28.273438 27.976562 C 29.550781 30.074219 27.148438 44.476562 27.601562 48.976562 C 27.824219 51.148438 28.199219 52.273438 28.726562 53.851562 C 29.324219 55.425781 31.273438 57.375 31.050781 58.273438 C 30.898438 58.800781 30.300781 59.101562 29.851562 59.175781 C 29.101562 59.324219 27.898438 58.726562 27.074219 58.199219 C 26.101562 57.601562 24.375 56.101562 24.523438 55.648438 C 24.601562 55.351562 25.574219 55.273438 25.574219 55.273438 C 25.574219 55.273438 24.523438 56.023438 23.925781 55.949219 C 22.875 55.726562 21.074219 53.773438 20.25 52.351562 C 19.5 50.925781 18.898438 48.523438 19.199219 47.398438 C 19.351562 46.800781 19.875 46.199219 20.324219 46.125 C 20.625 46.050781 21.074219 46.199219 21.449219 46.574219 C 22.050781 47.175781 22.351562 49.425781 23.101562 50.25 C 23.625 50.925781 24.898438 51.226562 24.898438 51.601562 C 24.976562 51.976562 24.523438 52.425781 24.148438 52.5 C 23.773438 52.648438 23.175781 52.574219 22.800781 52.199219 C 22.050781 51.523438 21.601562 49.648438 21.300781 47.773438 C 20.851562 44.925781 20.625 40.875 21.375 36.523438 C 22.574219 30.375 27.75 16.273438 29.773438 14.550781 C 30.300781 14.175781 30.824219 14.175781 31.125 14.324219 C 31.5 14.476562 31.800781 14.925781 31.875 15.523438 C 32.023438 16.800781 30.148438 19.726562 29.773438 22.050781 C 29.398438 24.523438 30.148438 29.699219 29.550781 30 C 29.324219 30.074219 29.023438 29.25 28.648438 29.25 C 28.351562 29.175781 27.75 29.925781 27.449219 29.699219 C 26.550781 29.023438 28.726562 15.074219 30.226562 14.175781 C 30.75 13.875 31.351562 14.175781 31.949219 14.699219 C 33.675781 16.273438 35.625 23.925781 37.648438 27.75 C 39.300781 30.898438 43.050781 34.648438 42.824219 36.074219 C 42.824219 36.601562 42.226562 37.050781 41.773438 37.050781 C 41.398438 37.125 40.875 36.898438 40.5 36.449219 C 39.675781 35.476562 39.523438 32.699219 38.476562 30.375 C 36.976562 27 33.226562 22.050781 31.574219 18.601562 C 30.300781 16.125 28.5 13.125 28.800781 11.773438 C 28.949219 11.175781 29.625 10.5 30.226562 10.574219 C 32.25 10.949219 39.226562 26.101562 41.023438 30.976562 C 41.925781 33.523438 41.476562 34.800781 42.226562 36.976562 C 43.199219 40.050781 46.273438 44.851562 46.875 47.398438 C 47.175781 48.824219 47.398438 50.324219 46.949219 50.925781 C 46.648438 51.300781 45.824219 51.449219 45.449219 51.300781 C 45.074219 51.148438 44.625 50.476562 44.625 50.023438 C 44.625 49.648438 45.074219 48.898438 45.449219 48.75 C 45.898438 48.601562 46.800781 48.898438 47.101562 49.351562 C 47.625 50.175781 47.398438 52.648438 47.023438 54 C 46.726562 55.273438 46.125 56.476562 45.226562 57.375 C 44.324219 58.273438 43.050781 58.949219 41.699219 59.398438 C 40.050781 60 37.726562 60.375 35.851562 60.226562 C 34.125 60.148438 32.773438 59.625 30.898438 58.875 C 28.273438 57.898438 23.625 56.25 21.898438 54.148438 C 20.550781 52.574219 20.324219 50.476562 20.023438 48.523438 C 19.648438 46.5 20.175781 42.375 19.726562 42.226562 C 19.425781 42.148438 18.675781 43.574219 18.449219 44.398438 C 18.148438 45.148438 18.148438 45.824219 18.226562 46.875 C 18.375 48.675781 20.398438 52.800781 20.023438 54.074219 C 19.875 54.675781 19.351562 55.050781 18.898438 55.125 C 18.523438 55.125 17.925781 54.898438 17.550781 54.449219 C 17.023438 53.550781 16.875 50.25 17.101562 49.199219 C 17.25 48.75 17.773438 48.300781 17.773438 48.226562 C 17.773438 48.226562 17.175781 49.199219 17.101562 49.125 C 16.949219 49.125 17.023438 48.523438 17.023438 48 C 17.023438 46.875 17.101562 44.398438 17.625 42.976562 C 18 41.851562 18.75 40.273438 19.425781 39.976562 C 19.875 39.824219 20.773438 40.199219 21 40.5 C 21.226562 40.800781 21.300781 41.398438 21.148438 41.699219 C 20.925781 42 20.101562 42.449219 19.726562 42.300781 C 19.351562 42.226562 18.976562 41.699219 18.898438 41.023438 C 18.675781 39.074219 21.226562 31.125 22.5 29.773438 C 22.875 29.324219 23.398438 29.175781 23.773438 29.25 C 24.148438 29.324219 24.601562 29.773438 24.75 30.300781 C 24.976562 31.351562 24 34.273438 23.625 35.476562 C 23.398438 36.148438 23.25 36.824219 22.875 36.976562 C 22.5 37.125 21.675781 36.976562 21.375 36.449219 C 20.175781 34.050781 26.175781 11.851562 27.976562 9.074219 C 28.425781 8.476562 28.875 8.101562 29.25 8.175781 C 29.625 8.25 30.226562 9.601562 30.226562 9.601562 " clip-rule="nonzero"/></clipPath><clipPath id="bfe2d10769"><path d="M 30.253906 49.585938 L 43.898438 49.585938 L 43.898438 54.414062 L 30.253906 54.414062 Z M 30.253906 49.585938 " clip-rule="nonzero"/></clipPath><clipPath id="48eff80b3d"><path d="M 30.75 52.273438 C 36.976562 49.875 38.023438 49.875 39.226562 49.800781 C 40.5 49.726562 42.601562 49.351562 43.273438 49.949219 C 43.726562 50.324219 43.800781 51.75 43.5 52.050781 C 43.199219 52.273438 41.550781 51.824219 41.398438 51.449219 C 41.324219 51.074219 42.300781 49.800781 42.675781 49.800781 C 43.125 49.726562 43.875 50.398438 43.875 50.773438 C 43.949219 51.226562 43.5 51.976562 42.824219 52.351562 C 41.625 53.023438 38.023438 52.273438 36 52.648438 C 34.273438 53.023438 32.25 54.523438 31.273438 54.375 C 30.824219 54.300781 30.375 53.851562 30.300781 53.550781 C 30.226562 53.175781 30.75 52.273438 30.75 52.273438 " clip-rule="nonzero"/></clipPath><clipPath id="1d9c89bc9a"><path d="M 108.636719 14.511719 L 110.78125 14.511719 L 110.78125 16.375 L 108.636719 16.375 Z M 108.636719 14.511719 " clip-rule="nonzero"/></clipPath><clipPath id="d83dd2f232"><path d="M 110.773438 15.226562 C 109.800781 16.726562 108.898438 16.425781 108.75 16.125 C 108.523438 15.824219 108.75 14.851562 108.976562 14.625 C 109.273438 14.398438 110.476562 14.699219 110.476562 14.699219 " clip-rule="nonzero"/></clipPath><clipPath id="72a4c460de"><path d="M 102.6875 14.414062 L 113.910156 14.414062 L 113.910156 39.460938 L 102.6875 39.460938 Z M 102.6875 14.414062 " clip-rule="nonzero"/></clipPath><clipPath id="c24412ca24"><path d="M 110.851562 15.601562 C 109.875 27.226562 108.898438 30.300781 108 32.851562 C 107.25 35.023438 106.273438 37.648438 105.449219 38.699219 C 105.074219 39.148438 104.773438 39.449219 104.398438 39.449219 C 103.949219 39.523438 103.273438 39.226562 103.050781 38.851562 C 102.75 38.550781 102.675781 38.175781 102.75 37.5 C 102.898438 35.699219 104.925781 30.449219 106.199219 27.601562 C 107.175781 25.351562 107.925781 22.800781 109.351562 21.675781 C 110.476562 20.699219 112.648438 20.023438 113.324219 20.324219 C 113.699219 20.550781 114 21.375 113.851562 21.75 C 113.699219 22.199219 112.574219 22.726562 112.199219 22.574219 C 111.824219 22.351562 111.449219 20.925781 111.675781 20.550781 C 111.898438 20.175781 112.875 20.023438 113.175781 20.25 C 113.550781 20.476562 113.925781 21.675781 113.699219 22.050781 C 113.550781 22.425781 112.5 22.050781 111.898438 22.425781 C 111.148438 22.949219 110.699219 24.074219 110.023438 25.425781 C 108.601562 28.050781 106.648438 36.824219 105.074219 37.425781 C 104.550781 37.648438 103.726562 37.351562 103.5 36.75 C 102.824219 35.25 106.875 28.875 107.699219 25.050781 C 108.449219 21.75 107.773438 16.800781 108.601562 15.300781 C 108.898438 14.773438 109.5 14.398438 109.875 14.476562 C 110.25 14.476562 110.851562 15.601562 110.851562 15.601562 " clip-rule="nonzero"/></clipPath></defs><g clip-path="url(#674c4e380c)"><g clip-path="url(#a099012671)"><path fill="#90ee90" d="M 11.625 0 L 53.023438 0 L 53.023438 65.65625 L 11.625 65.65625 Z M 11.625 0 " fill-opacity="1" fill-rule="nonzero"/></g></g><g clip-path="url(#e25e2ea6a8)"><g clip-path="url(#2fd4a036c0)"><path fill="#90ee90" d="M 55.5 12.375 L 95.625 12.375 L 95.625 76.324219 L 55.5 76.324219 Z M 55.5 12.375 " fill-opacity="1" fill-rule="nonzero"/></g></g><g clip-path="url(#352ac6c3e2)"><g clip-path="url(#e042278e13)"><path fill="#90ee90" d="M 95.023438 -1.199219 L 129.074219 -1.199219 L 129.074219 65.039062 L 95.023438 65.039062 Z M 95.023438 -1.199219 " fill-opacity="1" fill-rule="nonzero"/></g></g><g clip-path="url(#1068088dd6)"><g clip-path="url(#cd3e41a590)"><path fill="#90ee90" d="M 95.925781 6.523438 L 128.550781 6.523438 L 128.550781 62.980469 L 95.925781 62.980469 Z M 95.925781 6.523438 " fill-opacity="1" fill-rule="nonzero"/></g></g><g clip-path="url(#b9633de442)"><g clip-path="url(#0cdb513250)"><path fill="#90ee90" d="M 55.050781 4.125 L 94.125 4.125 L 94.125 74.949219 L 55.050781 74.949219 Z M 55.050781 4.125 " fill-opacity="1" fill-rule="nonzero"/></g></g><g clip-path="url(#1c9592c032)"><g clip-path="url(#98b24aea02)"><path fill="#90ee90" d="M 53.773438 3.824219 L 75 3.824219 L 75 68.082031 L 53.773438 68.082031 Z M 53.773438 3.824219 " fill-opacity="1" fill-rule="nonzero"/></g></g><g clip-path="url(#c6a77fa95b)"><g clip-path="url(#47e98bdbfd)"><path fill="#90ee90" d="M 76.648438 29.925781 L 97.425781 29.925781 L 97.425781 70.5 L 76.648438 70.5 Z M 76.648438 29.925781 " fill-opacity="1" fill-rule="nonzero"/></g></g><g clip-path="url(#9b919089f8)"><g clip-path="url(#d111925a33)"><path fill="#90ee90" d="M 67.949219 9.449219 L 76.273438 9.449219 L 76.273438 17.773438 L 67.949219 17.773438 Z M 67.949219 9.449219 " fill-opacity="1" fill-rule="nonzero"/></g></g><g clip-path="url(#0366d936a6)"><g clip-path="url(#180cd16b6a)"><path fill="#90ee90" d="M 67.949219 -0.148438 L 77.398438 -0.148438 L 77.398438 17.714844 L 67.949219 17.714844 Z M 67.949219 -0.148438 " fill-opacity="1" fill-rule="nonzero"/></g></g><g clip-path="url(#03c576d5a3)"><g clip-path="url(#c93730cf03)"><path fill="#90ee90" d="M 12.523438 5.175781 L 53.625 5.175781 L 53.625 63.292969 L 12.523438 63.292969 Z M 12.523438 5.175781 " fill-opacity="1" fill-rule="nonzero"/></g></g><g clip-path="url(#bfe2d10769)"><g clip-path="url(#48eff80b3d)"><path fill="#90ee90" d="M 27.300781 46.800781 L 46.9375 46.800781 L 46.9375 57.449219 L 27.300781 57.449219 Z M 27.300781 46.800781 " fill-opacity="1" fill-rule="nonzero"/></g></g><g clip-path="url(#1d9c89bc9a)"><g clip-path="url(#d83dd2f232)"><path fill="#90ee90" d="M 105.75 11.625 L 113.855469 11.625 L 113.855469 19.574219 L 105.75 19.574219 Z M 105.75 11.625 " fill-opacity="1" fill-rule="nonzero"/></g></g><g clip-path="url(#72a4c460de)"><g clip-path="url(#c24412ca24)"><path fill="#90ee90" d="M 99.75 11.476562 L 116.851562 11.476562 L 116.851562 42.535156 L 99.75 42.535156 Z M 99.75 11.476562 " fill-opacity="1" fill-rule="nonzero"/></g></g></svg>