<svg xmlns="http://www.w3.org/2000/svg" xmlns:xlink="http://www.w3.org/1999/xlink" width="300" zoomAndPan="magnify" viewBox="0 0 224.87999 112.499997" height="150" preserveAspectRatio="xMidYMid meet" version="1.0"><defs><clipPath id="619af21d36"><path d="M 41 9 L 189.847656 9 L 189.847656 111.378906 L 41 111.378906 Z M 41 9 " clip-rule="nonzero"/></clipPath><clipPath id="2f74787237"><path d="M 35.285156 0.871094 L 187 0.871094 L 187 107 L 35.285156 107 Z M 35.285156 0.871094 " clip-rule="nonzero"/></clipPath><clipPath id="1edb382925"><path d="M 56.46875 27 L 72.519531 27 L 72.519531 72.878906 L 56.46875 72.878906 Z M 56.46875 27 " clip-rule="nonzero"/></clipPath><clipPath id="d6235f7805"><path d="M 61.457031 28.929688 C 61.589844 66.664062 61.589844 67.1875 61.980469 67.578125 C 62.4375 67.972656 63.09375 67.90625 63.941406 67.972656 C 65.511719 67.972656 69.304688 66.46875 70.746094 67.054688 C 71.660156 67.449219 72.378906 68.5625 72.445312 69.28125 C 72.511719 69.933594 71.921875 70.847656 71.398438 71.175781 C 70.875 71.503906 69.894531 71.632812 69.304688 71.4375 C 68.71875 71.175781 67.996094 70.390625 67.867188 69.738281 C 67.800781 69.019531 68.390625 67.578125 69.042969 67.253906 C 69.699219 66.859375 71.265625 67.1875 71.789062 67.710938 C 72.3125 68.101562 72.445312 69.214844 72.378906 69.804688 C 72.3125 70.261719 72.117188 70.652344 71.59375 71.046875 C 70.285156 71.960938 64.335938 72.878906 62.375 72.8125 C 61.523438 72.8125 61 72.679688 60.476562 72.355469 C 59.886719 72.027344 59.363281 71.570312 58.90625 70.914062 C 58.253906 70.066406 57.730469 69.214844 57.335938 67.253906 C 56.09375 61.234375 56.355469 32.460938 57.46875 28.601562 C 57.730469 27.882812 57.925781 27.6875 58.253906 27.425781 C 58.578125 27.164062 59.167969 26.96875 59.625 27.03125 C 60.019531 27.03125 60.605469 27.292969 60.867188 27.621094 C 61.195312 27.949219 61.457031 28.929688 61.457031 28.929688 " clip-rule="nonzero"/></clipPath><clipPath id="dc4963dbbc"><path d="M 50.867188 39.679688 L 69.644531 39.679688 L 69.644531 46.785156 L 50.867188 46.785156 Z M 50.867188 39.679688 " clip-rule="nonzero"/></clipPath><clipPath id="ba39017f26"><path d="M 52.929688 42.113281 C 68.683594 40.171875 69.355469 41.292969 69.582031 41.964844 C 69.65625 42.484375 69.503906 43.082031 69.132812 43.53125 C 68.757812 44.054688 67.863281 44.652344 67.117188 44.652344 C 66.445312 44.652344 65.398438 44.203125 65.101562 43.605469 C 64.652344 42.933594 64.726562 41.292969 65.175781 40.621094 C 65.546875 40.023438 66.59375 39.648438 67.265625 39.722656 C 67.9375 39.796875 68.910156 40.46875 69.207031 40.992188 C 69.503906 41.441406 69.65625 41.964844 69.503906 42.484375 C 69.355469 43.15625 69.058594 43.832031 68.160156 44.425781 C 66.144531 45.621094 57.78125 46.21875 55.167969 46.519531 C 54.050781 46.667969 53.453125 46.890625 52.78125 46.667969 C 52.109375 46.519531 51.363281 45.996094 51.0625 45.398438 C 50.765625 44.875 50.839844 43.832031 51.136719 43.234375 C 51.4375 42.710938 52.929688 42.113281 52.929688 42.113281 " clip-rule="nonzero"/></clipPath><clipPath id="cbeef8983a"><path d="M 69.375 43 L 87.992188 43 L 87.992188 67.8125 L 69.375 67.8125 Z M 69.375 43 " clip-rule="nonzero"/></clipPath><clipPath id="8f522a4fb2"><path d="M 71.0625 50.984375 C 78.367188 49.054688 80.238281 47.484375 80.117188 47.242188 C 80 47 77.101562 47.363281 76.375 48.207031 C 75.652344 48.992188 75.53125 50.503906 75.769531 52.011719 C 76.195312 54.667969 79.636719 60.40625 81.265625 62.339844 C 82.113281 63.363281 83.015625 64.269531 83.679688 64.210938 C 84.164062 64.148438 84.40625 62.882812 84.949219 62.699219 C 85.613281 62.457031 87.0625 62.820312 87.484375 63.363281 C 87.910156 63.90625 87.847656 65.417969 87.484375 65.960938 C 87.183594 66.503906 86.21875 66.804688 85.675781 66.804688 C 85.191406 66.867188 84.707031 66.625 84.347656 66.324219 C 83.984375 65.960938 83.621094 64.996094 83.621094 64.453125 C 83.621094 63.96875 83.863281 63.484375 84.164062 63.183594 C 84.585938 62.820312 85.492188 62.457031 86.097656 62.519531 C 86.699219 62.640625 87.425781 63.304688 87.726562 63.789062 C 87.96875 64.148438 88.089844 64.691406 87.847656 65.117188 C 87.546875 65.960938 85.796875 67.410156 84.585938 67.710938 C 83.378906 68.015625 81.6875 67.53125 80.480469 66.988281 C 79.332031 66.445312 78.488281 65.71875 77.460938 64.511719 C 75.832031 62.578125 73.597656 57.992188 72.570312 55.636719 C 71.96875 54.125 71.542969 53.21875 71.484375 51.832031 C 71.484375 50.078125 71.96875 47.484375 72.753906 46.035156 C 73.417969 44.765625 74.441406 43.679688 75.589844 43.257812 C 76.738281 42.773438 78.429688 43.074219 79.695312 43.4375 C 80.964844 43.859375 82.414062 44.707031 83.078125 45.550781 C 83.621094 46.15625 83.800781 46.878906 83.863281 47.605469 C 83.921875 48.207031 83.742188 48.871094 83.5 49.414062 C 83.257812 50.019531 82.898438 50.441406 82.351562 50.925781 C 81.566406 51.648438 80.421875 52.496094 79.03125 53.097656 C 76.917969 53.882812 72.148438 55.152344 70.699219 54.546875 C 69.972656 54.246094 69.550781 53.402344 69.429688 52.859375 C 69.371094 52.433594 69.613281 51.890625 69.914062 51.589844 C 70.15625 51.289062 71.0625 50.984375 71.0625 50.984375 " clip-rule="nonzero"/></clipPath><clipPath id="66a0cb576e"><path d="M 88.269531 26.820312 L 108.988281 26.820312 L 108.988281 66.953125 L 88.269531 66.953125 Z M 88.269531 26.820312 " clip-rule="nonzero"/></clipPath><clipPath id="d318062a10"><path d="M 92.289062 28.761719 C 92.855469 34.488281 93.800781 35.9375 94.492188 38.707031 C 95.8125 44.308594 99.085938 60.929688 98.269531 64.644531 C 97.953125 65.777344 97.386719 66.40625 96.820312 66.722656 C 96.378906 66.910156 95.75 66.847656 95.308594 66.722656 C 94.871094 66.535156 94.492188 66.34375 94.175781 65.652344 C 93.042969 63.449219 92.980469 51.863281 93.296875 48.023438 C 93.421875 46.074219 93.484375 45.003906 94.113281 43.742188 C 94.742188 42.546875 95.75 41.226562 96.945312 40.722656 C 98.144531 40.15625 100.09375 40.21875 101.164062 40.46875 C 101.859375 40.597656 102.296875 40.910156 102.863281 41.414062 C 103.683594 42.105469 104.5 43.617188 105.257812 44.878906 C 105.949219 46.074219 106.769531 47.144531 107.144531 48.78125 C 107.710938 50.984375 107.019531 54.699219 107.398438 57.152344 C 107.710938 59.105469 109.285156 61.121094 108.910156 62.378906 C 108.65625 63.261719 107.585938 64.140625 106.894531 64.203125 C 106.136719 64.265625 104.878906 63.386719 104.566406 62.695312 C 104.3125 62.125 104.566406 61.121094 104.878906 60.617188 C 105.132812 60.175781 105.570312 59.859375 106.011719 59.796875 C 106.578125 59.671875 107.648438 59.796875 108.152344 60.175781 C 108.59375 60.554688 109.035156 61.496094 108.972656 62.125 C 108.84375 62.820312 107.839844 63.953125 107.144531 64.203125 C 106.515625 64.332031 105.699219 64.078125 105.066406 63.574219 C 104.125 62.628906 103.367188 60.175781 102.992188 58.160156 C 102.550781 55.769531 103.621094 52.242188 102.863281 49.914062 C 102.234375 47.898438 100.410156 44.941406 99.464844 44.8125 C 98.898438 44.8125 98.332031 45.695312 98.015625 46.261719 C 97.765625 46.828125 97.765625 47.269531 97.703125 48.277344 C 97.578125 51.109375 99.277344 62.566406 98.207031 65.210938 C 97.765625 66.15625 97.011719 66.722656 96.316406 66.847656 C 95.6875 66.910156 94.804688 66.597656 94.175781 65.652344 C 92.164062 62.945312 90.777344 47.015625 90.714844 42.925781 C 90.652344 41.414062 91.28125 40.660156 91.09375 39.777344 C 90.902344 39.023438 90.085938 38.707031 89.707031 37.824219 C 89.078125 36.1875 88.511719 32.285156 88.386719 30.585938 C 88.320312 29.578125 88.195312 28.886719 88.449219 28.257812 C 88.636719 27.691406 89.140625 27.125 89.644531 26.933594 C 90.148438 26.746094 90.964844 26.808594 91.40625 27.125 C 91.847656 27.4375 92.289062 28.761719 92.289062 28.761719 " clip-rule="nonzero"/></clipPath><clipPath id="be86814976"><path d="M 120.023438 37 L 133.339844 37 L 133.339844 64.601562 L 120.023438 64.601562 Z M 120.023438 37 " clip-rule="nonzero"/></clipPath><clipPath id="8e2605859c"><path d="M 126.269531 41.367188 C 124.851562 42.410156 125.300781 43.605469 125.972656 44.128906 C 126.792969 44.949219 129.480469 44.875 130.601562 45.621094 C 131.347656 46.21875 131.796875 46.890625 132.167969 47.789062 C 132.765625 49.058594 133.214844 50.921875 133.289062 52.492188 C 133.289062 54.210938 132.992188 56.226562 132.320312 57.792969 C 131.648438 59.4375 130.226562 61.152344 129.183594 62.199219 C 128.363281 62.945312 127.691406 63.46875 126.792969 63.839844 C 125.671875 64.214844 124.105469 64.664062 123.058594 64.511719 C 122.164062 64.363281 121.195312 63.992188 120.820312 63.320312 C 120.445312 62.570312 120.445312 60.78125 121.042969 60.109375 C 121.566406 59.511719 123.359375 59.136719 124.105469 59.4375 C 124.777344 59.734375 125.523438 60.707031 125.597656 61.378906 C 125.75 62.125 125.375 63.320312 124.851562 63.765625 C 124.179688 64.289062 122.386719 64.511719 121.640625 64.140625 C 120.96875 63.765625 120.445312 62.722656 120.371094 61.972656 C 120.371094 61.300781 120.746094 60.332031 121.417969 59.734375 C 122.238281 58.988281 124.554688 59.0625 125.523438 58.464844 C 126.195312 57.941406 126.570312 57.417969 126.941406 56.597656 C 127.539062 55.476562 128.0625 53.3125 128.136719 52.042969 C 128.136719 51.074219 128.136719 50.328125 127.613281 49.65625 C 126.867188 48.757812 124.03125 48.757812 122.910156 48.011719 C 122.164062 47.5625 121.640625 47.117188 121.269531 46.292969 C 120.597656 45.175781 119.925781 42.859375 120.074219 41.515625 C 120.148438 40.621094 120.445312 39.796875 121.042969 39.125 C 121.941406 38.230469 124.253906 36.886719 125.375 37.035156 C 126.269531 37.109375 127.167969 38.007812 127.464844 38.601562 C 127.691406 39.125 127.613281 39.796875 127.390625 40.246094 C 127.167969 40.695312 126.269531 41.367188 126.269531 41.367188 " clip-rule="nonzero"/></clipPath><clipPath id="f4065e87bd"><path d="M 130.640625 22.824219 L 155.628906 22.824219 L 155.628906 63.640625 L 130.640625 63.640625 Z M 130.640625 22.824219 " clip-rule="nonzero"/></clipPath><clipPath id="64669ca5d2"><path d="M 135.25 24.789062 C 137.640625 38.15625 139.28125 41.441406 140.476562 45.398438 C 141.898438 50.027344 144.808594 58.09375 144.359375 60.929688 C 144.136719 62.199219 143.539062 63.019531 142.867188 63.394531 C 142.195312 63.691406 140.851562 63.617188 140.105469 62.871094 C 138.386719 61.003906 137.566406 51.296875 137.714844 47.636719 C 137.789062 45.621094 138.238281 44.054688 138.835938 42.859375 C 139.207031 41.964844 139.65625 41.367188 140.476562 40.84375 C 141.523438 40.097656 143.464844 39.199219 145.03125 39.199219 C 146.601562 39.125 148.617188 39.425781 150.035156 40.621094 C 152.050781 42.261719 153.84375 46.445312 154.664062 49.65625 C 155.5625 53.015625 155.859375 58.464844 155.113281 60.480469 C 154.738281 61.378906 153.992188 61.972656 153.320312 62.199219 C 152.796875 62.421875 152.125 62.347656 151.601562 62.125 C 151.007812 61.824219 150.183594 60.929688 149.960938 60.257812 C 149.8125 59.511719 150.109375 58.390625 150.632812 57.867188 C 151.15625 57.269531 152.277344 56.898438 152.949219 57.046875 C 153.695312 57.121094 154.589844 57.867188 154.964844 58.464844 C 155.261719 58.988281 155.335938 59.660156 155.1875 60.183594 C 154.964844 60.855469 154.292969 61.824219 153.621094 62.125 C 152.796875 62.347656 151.304688 62.199219 150.484375 61.300781 C 148.914062 59.511719 149.738281 51.59375 148.542969 48.609375 C 147.871094 46.742188 146.898438 44.800781 145.855469 44.425781 C 145.183594 44.128906 144.136719 44.351562 143.613281 44.875 C 142.867188 45.695312 142.867188 47.5625 142.792969 49.429688 C 142.71875 52.492188 144.882812 59.359375 144.285156 61.527344 C 144.0625 62.496094 143.539062 63.09375 142.867188 63.394531 C 142.121094 63.617188 141 63.691406 140.105469 62.871094 C 136.820312 59.808594 131.816406 33.226562 130.921875 27.777344 C 130.695312 26.207031 130.546875 25.460938 130.769531 24.640625 C 130.921875 24.042969 131.144531 23.519531 131.59375 23.222656 C 132.113281 22.847656 133.535156 22.699219 134.132812 23.074219 C 134.652344 23.296875 135.25 24.789062 135.25 24.789062 " clip-rule="nonzero"/></clipPath><clipPath id="8400d0da8b"><path d="M 155.824219 37 L 165.558594 37 L 165.558594 58.441406 L 155.824219 58.441406 Z M 155.824219 37 " clip-rule="nonzero"/></clipPath><clipPath id="0c30ba109d"><path d="M 160.375 38.679688 C 165.007812 53.238281 165.828125 55.851562 165.304688 57.121094 C 164.933594 57.867188 164.035156 58.316406 163.363281 58.390625 C 162.691406 58.464844 161.644531 58.167969 161.273438 57.570312 C 160.75 56.972656 160.675781 55.328125 161.050781 54.65625 C 161.347656 54.058594 162.394531 53.460938 163.066406 53.535156 C 163.8125 53.535156 165.15625 54.582031 165.453125 55.253906 C 165.679688 55.925781 165.453125 57.046875 165.007812 57.570312 C 164.558594 58.09375 163.511719 58.464844 162.839844 58.390625 C 162.167969 58.390625 161.570312 57.941406 160.972656 57.195312 C 159.480469 55.179688 157.839844 47.789062 157.015625 44.277344 C 156.496094 41.890625 155.449219 39.5 156.046875 38.304688 C 156.417969 37.484375 157.613281 36.960938 158.359375 37.035156 C 159.03125 37.035156 160.375 38.679688 160.375 38.679688 " clip-rule="nonzero"/></clipPath><clipPath id="cdcd0ddfd6"><path d="M 153.460938 31.796875 L 157.699219 31.796875 L 157.699219 35.425781 L 153.460938 35.425781 Z M 153.460938 31.796875 " clip-rule="nonzero"/></clipPath><clipPath id="e9f7a4c7e6"><path d="M 157.6875 33.117188 C 155.820312 36.101562 154.03125 35.578125 153.65625 34.90625 C 153.285156 34.308594 153.582031 32.441406 154.179688 31.996094 C 154.777344 31.546875 157.167969 32.144531 157.167969 32.144531 " clip-rule="nonzero"/></clipPath><clipPath id="e30d62b624"><path d="M 161.140625 19.023438 L 178.414062 19.023438 L 178.414062 54.375 L 161.140625 54.375 Z M 161.140625 19.023438 " clip-rule="nonzero"/></clipPath><clipPath id="1c9d9da838"><path d="M 165.789062 20.980469 C 168.402344 36.960938 169.226562 38.679688 170.195312 41.066406 C 171.390625 43.832031 173.480469 50.027344 174.453125 50.027344 C 174.898438 50.027344 174.898438 48.308594 175.421875 48.160156 C 176.09375 47.9375 177.8125 48.980469 178.183594 49.730469 C 178.484375 50.402344 178.261719 51.59375 177.960938 52.191406 C 177.664062 52.640625 177.140625 53.015625 176.617188 53.164062 C 175.945312 53.386719 174.75 53.164062 174.226562 52.789062 C 173.707031 52.492188 173.332031 51.96875 173.257812 51.445312 C 173.109375 50.773438 173.332031 49.578125 173.78125 49.058594 C 174.078125 48.609375 174.675781 48.308594 175.199219 48.160156 C 175.722656 48.085938 176.320312 48.085938 176.839844 48.308594 C 177.4375 48.683594 178.261719 49.503906 178.335938 50.25 C 178.410156 51.074219 177.738281 52.417969 176.914062 53.089844 C 175.871094 53.910156 173.628906 54.359375 172.4375 54.285156 C 171.613281 54.210938 171.015625 53.910156 170.417969 53.238281 C 169.152344 52.042969 168.03125 48.832031 166.910156 46.292969 C 165.566406 43.308594 164.148438 40.097656 163.175781 36.4375 C 162.132812 32.03125 161.085938 24.042969 161.234375 21.652344 C 161.234375 20.832031 161.308594 20.460938 161.609375 20.011719 C 161.90625 19.636719 162.429688 19.191406 162.953125 19.113281 C 163.550781 18.964844 164.519531 19.191406 165.042969 19.5625 C 165.417969 19.863281 165.789062 20.980469 165.789062 20.980469 " clip-rule="nonzero"/></clipPath><clipPath id="92bb936940"><path d="M 157.402344 23.015625 L 170.792969 23.015625 L 170.792969 31.808594 L 157.402344 31.808594 Z M 157.402344 23.015625 " clip-rule="nonzero"/></clipPath><clipPath id="1d2e150d76"><path d="M 159.550781 26.957031 C 168.660156 22.996094 169.707031 23.371094 170.226562 23.894531 C 170.675781 24.265625 170.824219 25.015625 170.75 25.535156 C 170.75 26.132812 170.527344 26.582031 170.078125 27.179688 C 168.960938 28.300781 165.300781 29.941406 163.210938 30.6875 C 161.714844 31.285156 160 32.03125 159.027344 31.734375 C 158.28125 31.511719 157.609375 30.613281 157.460938 29.867188 C 157.3125 29.195312 157.683594 28.074219 158.132812 27.628906 C 158.65625 27.105469 159.699219 26.730469 160.371094 26.878906 C 161.117188 26.957031 162.015625 27.703125 162.3125 28.300781 C 162.539062 28.820312 162.613281 29.417969 162.460938 29.941406 C 162.238281 30.539062 161.566406 31.511719 160.894531 31.734375 C 160.148438 31.957031 158.429688 31.511719 157.90625 30.914062 C 157.460938 30.390625 157.386719 29.195312 157.535156 28.523438 C 157.683594 28 157.984375 27.703125 158.582031 27.253906 C 160 26.058594 165.449219 23.222656 167.539062 23.074219 C 168.734375 22.996094 169.707031 23.371094 170.226562 23.894531 C 170.675781 24.265625 170.824219 25.015625 170.75 25.535156 C 170.75 26.132812 170.601562 26.582031 170.078125 27.179688 C 168.734375 28.449219 162.761719 30.988281 160.96875 31.210938 C 160.222656 31.359375 159.773438 31.210938 159.328125 30.988281 C 158.953125 30.6875 158.503906 30.164062 158.355469 29.71875 C 158.207031 29.195312 158.207031 28.523438 158.429688 28.074219 C 158.65625 27.628906 159.550781 26.957031 159.550781 26.957031 " clip-rule="nonzero"/></clipPath><clipPath id="90eaac86fc"><path d="M 49.371094 26.011719 L 74.183594 26.011719 L 74.183594 74.085938 L 49.371094 74.085938 Z M 49.371094 26.011719 " clip-rule="nonzero"/></clipPath><clipPath id="db3f661a7e"><path d="M 55.542969 41.140625 C 55.917969 32.105469 56.363281 28.597656 57.1875 27.328125 C 57.707031 26.582031 58.304688 26.207031 58.976562 26.132812 C 59.800781 25.984375 61.066406 26.058594 61.742188 26.957031 C 63.308594 28.820312 61.144531 40.246094 62.710938 41.066406 C 63.53125 41.441406 65.175781 39.125 66.296875 38.753906 C 67.265625 38.527344 68.3125 38.453125 68.984375 38.753906 C 69.503906 38.976562 69.878906 39.351562 70.101562 39.949219 C 70.476562 40.695312 70.550781 42.113281 70.550781 43.007812 C 70.476562 43.679688 70.476562 44.351562 70.101562 44.875 C 69.804688 45.324219 69.28125 45.621094 68.609375 45.921875 C 67.488281 46.292969 65.398438 46.667969 64.128906 46.59375 C 63.085938 46.59375 61.441406 46.070312 61.441406 46.070312 C 61.515625 45.996094 62.1875 45.921875 62.335938 46.144531 C 62.710938 46.519531 62.710938 47.789062 62.710938 48.90625 C 62.785156 50.476562 62.261719 52.492188 62.1875 54.957031 C 62.113281 58.464844 61.890625 66.304688 62.859375 67.949219 C 63.160156 68.46875 63.53125 68.621094 64.128906 68.695312 C 65.398438 68.769531 68.910156 66.378906 70.550781 66.304688 C 71.671875 66.304688 72.640625 66.605469 73.238281 67.125 C 73.761719 67.648438 74.136719 68.546875 74.0625 69.292969 C 73.984375 70.039062 73.539062 70.933594 72.714844 71.53125 C 71.445312 72.578125 66.890625 73.921875 66.21875 73.546875 C 65.921875 73.398438 65.996094 72.652344 65.996094 72.652344 C 65.996094 72.652344 66.445312 73.324219 66.296875 73.546875 C 65.921875 74.070312 62.785156 74.21875 61.292969 73.847656 C 59.800781 73.472656 58.15625 72.800781 57.261719 71.382812 C 55.839844 69.21875 56.289062 64.4375 56.140625 60.480469 C 55.917969 56 55.320312 46.964844 56.214844 45.847656 C 56.4375 45.546875 56.960938 45.621094 56.960938 45.695312 C 57.035156 45.773438 55.839844 46.964844 55.019531 47.191406 C 54.199219 47.488281 53.003906 47.488281 52.109375 47.117188 C 51.136719 46.667969 49.792969 45.175781 49.496094 44.425781 C 49.34375 43.980469 49.421875 43.605469 49.644531 43.234375 C 50.015625 42.785156 50.839844 42.261719 51.660156 41.964844 C 52.855469 41.664062 56.289062 41.664062 56.289062 41.8125 C 56.363281 41.964844 52.78125 42.335938 51.808594 42.859375 C 51.136719 43.234375 50.390625 43.605469 50.390625 44.128906 C 50.390625 44.726562 51.734375 46.21875 52.78125 46.519531 C 53.898438 46.890625 56.066406 44.949219 56.960938 45.695312 C 58.679688 47.039062 56.589844 55.703125 56.886719 60.257812 C 57.109375 64.214844 56.960938 69.589844 58.378906 71.457031 C 59.125 72.503906 60.171875 72.726562 61.292969 72.949219 C 62.710938 73.25 65.847656 72.203125 66.296875 72.726562 C 66.519531 72.875 66.296875 73.546875 66.296875 73.546875 C 66.21875 73.546875 65.773438 72.949219 65.921875 72.726562 C 66.21875 71.980469 71.222656 71.832031 72.34375 70.785156 C 73.015625 70.113281 73.464844 68.84375 73.238281 68.246094 C 72.941406 67.648438 71.671875 67.203125 70.625 67.125 C 68.910156 67.125 65.101562 69.664062 63.683594 69.515625 C 63.007812 69.441406 62.5625 69.066406 62.261719 68.695312 C 61.964844 68.246094 62.039062 67.949219 61.890625 67.203125 C 61.589844 64.289062 58.902344 49.207031 61.441406 46.070312 C 63.085938 44.054688 68.160156 45.847656 69.28125 44.503906 C 70.101562 43.457031 69.878906 40.695312 69.207031 39.949219 C 68.757812 39.425781 67.714844 39.351562 66.890625 39.5 C 65.847656 39.722656 64.429688 41.589844 63.457031 41.8125 C 62.933594 41.890625 62.488281 41.964844 62.1875 41.515625 C 60.992188 40.246094 62.5625 29.644531 61.21875 27.851562 C 60.695312 27.105469 59.648438 26.957031 59.050781 26.957031 C 58.605469 26.957031 58.230469 27.105469 57.933594 27.476562 C 57.410156 28.074219 57.335938 29.121094 57.109375 30.464844 C 56.664062 32.929688 57.109375 40.542969 56.363281 41.21875 C 56.140625 41.441406 55.542969 41.140625 55.542969 41.140625 " clip-rule="nonzero"/></clipPath><clipPath id="b67e841b00"><path d="M 77.316406 50.222656 L 83.589844 50.222656 L 83.589844 54.457031 L 77.316406 54.457031 Z M 77.316406 50.222656 " clip-rule="nonzero"/></clipPath><clipPath id="8516f7599e"><path d="M 77.347656 53.835938 C 83.320312 50.25 83.542969 50.847656 83.542969 50.847656 C 83.542969 50.847656 82.945312 50.25 83.019531 50.25 C 83.019531 50.25 83.617188 50.550781 83.542969 50.847656 C 83.46875 51.59375 78.691406 54.582031 77.867188 54.433594 C 77.570312 54.359375 77.347656 53.835938 77.347656 53.835938 " clip-rule="nonzero"/></clipPath><clipPath id="e17f8fdc44"><path d="M 69.6875 42 L 89.683594 42 L 89.683594 69.679688 L 69.6875 69.679688 Z M 69.6875 42 " clip-rule="nonzero"/></clipPath><clipPath id="fa70459b92"><path d="M 82.796875 50.625 C 83.46875 44.949219 81.976562 44.277344 80.707031 43.753906 C 79.289062 43.15625 76.75 42.785156 75.554688 43.007812 C 74.957031 43.15625 74.65625 43.308594 74.210938 43.753906 C 73.464844 44.503906 72.566406 45.847656 72.042969 47.191406 C 71.296875 49.058594 70.402344 51.820312 70.625 53.910156 C 70.773438 55.925781 71.671875 57.644531 72.792969 59.585938 C 74.210938 62.050781 77.347656 65.707031 79.0625 67.050781 C 79.960938 67.796875 80.632812 68.023438 81.378906 68.320312 C 81.976562 68.546875 82.421875 68.769531 83.09375 68.769531 C 84.066406 68.769531 85.558594 68.621094 86.53125 67.949219 C 87.5 67.277344 88.84375 65.707031 88.84375 64.664062 C 88.769531 63.691406 87.277344 62.199219 86.457031 61.75 C 85.933594 61.527344 85.410156 61.527344 84.8125 61.675781 C 84.066406 61.972656 83.246094 63.839844 82.421875 63.691406 C 80.855469 63.394531 77.347656 54.582031 77.496094 54.433594 C 77.71875 54.359375 81.527344 59.808594 82.421875 61.378906 C 82.796875 62.125 83.171875 62.648438 83.09375 63.09375 C 83.09375 63.394531 82.574219 63.765625 82.5 63.765625 C 82.347656 63.691406 82.5 62.496094 82.796875 62.050781 C 83.171875 61.453125 84.066406 60.855469 84.8125 60.78125 C 85.859375 60.707031 87.5 61.453125 88.320312 62.125 C 88.996094 62.722656 89.589844 63.542969 89.667969 64.363281 C 89.742188 65.183594 89.21875 66.304688 88.769531 67.050781 C 88.320312 67.722656 87.726562 68.320312 86.976562 68.695312 C 86.082031 69.21875 84.8125 69.738281 83.542969 69.589844 C 81.902344 69.441406 79.734375 68.46875 77.941406 67.050781 C 75.554688 65.183594 72.492188 61.078125 71.222656 58.390625 C 70.253906 56.449219 69.730469 54.882812 69.730469 53.015625 C 69.730469 50.847656 70.773438 47.9375 71.597656 46.144531 C 72.195312 44.949219 72.792969 43.90625 73.539062 43.15625 C 74.136719 42.636719 74.65625 42.261719 75.480469 42.113281 C 76.824219 41.890625 79.585938 42.335938 81.152344 43.007812 C 82.5 43.53125 84.066406 44.578125 84.515625 45.546875 C 84.886719 46.21875 84.738281 46.964844 84.664062 47.789062 C 84.515625 48.757812 83.992188 50.550781 83.542969 50.773438 C 83.320312 50.921875 82.796875 50.625 82.796875 50.625 " clip-rule="nonzero"/></clipPath><clipPath id="f7797b3ee7"><path d="M 76.21875 45.835938 L 80.519531 45.835938 L 80.519531 49.328125 L 76.21875 49.328125 Z M 76.21875 45.835938 " clip-rule="nonzero"/></clipPath><clipPath id="e605472cb7"><path d="M 76.523438 48.535156 C 79.585938 46.667969 78.019531 46.445312 77.496094 46.742188 C 76.972656 47.039062 76.824219 49.058594 76.597656 49.058594 C 76.523438 49.058594 76.375 48.460938 76.449219 48.386719 C 76.523438 48.308594 77.195312 48.535156 77.195312 48.609375 C 77.195312 48.683594 76.523438 48.980469 76.375 48.832031 C 76.078125 48.609375 76.375 46.816406 76.597656 46.367188 C 76.824219 46.070312 76.972656 45.921875 77.347656 45.847656 C 77.941406 45.773438 80.40625 46.519531 80.480469 47.039062 C 80.480469 47.5625 78.539062 48.609375 77.792969 48.90625 C 77.347656 49.132812 76.75 49.429688 76.523438 49.28125 C 76.449219 49.132812 76.523438 48.535156 76.523438 48.535156 " clip-rule="nonzero"/></clipPath><clipPath id="4943e7313f"><path d="M 86.851562 24.699219 L 109.878906 24.699219 L 109.878906 68.15625 L 86.851562 68.15625 Z M 86.851562 24.699219 " clip-rule="nonzero"/></clipPath><clipPath id="785008704f"><path d="M 92.355469 27.402344 C 93.175781 34.421875 95.714844 38.828125 95.566406 40.46875 C 95.492188 41.21875 94.59375 41.890625 94.59375 41.890625 C 94.59375 41.890625 95.191406 40.394531 95.863281 39.949219 C 96.757812 39.425781 98.625 39.425781 100.195312 39.871094 C 102.285156 40.46875 105.644531 42.039062 106.988281 44.203125 C 108.558594 46.742188 108.183594 52.117188 108.109375 54.582031 C 108.035156 55.851562 107.363281 56.597656 107.511719 57.644531 C 107.660156 58.765625 109.003906 59.882812 109.378906 60.929688 C 109.675781 61.824219 109.902344 62.796875 109.75 63.542969 C 109.675781 64.066406 109.453125 64.664062 109.003906 64.960938 C 108.484375 65.410156 107.289062 65.855469 106.390625 65.632812 C 105.421875 65.335938 104.226562 64.363281 103.480469 62.945312 C 102.0625 60.257812 102.136719 52.34375 101.539062 49.503906 C 101.238281 48.160156 101.164062 47.191406 100.640625 46.59375 C 100.269531 46.144531 99.449219 45.621094 99.074219 45.847656 C 97.953125 46.519531 99.96875 59.210938 99 60.332031 C 98.777344 60.628906 98.179688 60.480469 98.179688 60.554688 C 98.179688 60.554688 98.777344 60.40625 99 60.628906 C 99.523438 61.152344 99.523438 64.738281 99.148438 65.933594 C 98.925781 66.679688 98.550781 67.203125 98.105469 67.574219 C 97.65625 67.875 97.132812 68.171875 96.460938 68.097656 C 95.492188 68.023438 93.625 67.050781 92.800781 65.933594 C 91.90625 64.738281 91.308594 61.75 91.609375 61.078125 C 91.757812 60.78125 92.355469 60.78125 92.355469 60.707031 C 92.355469 60.707031 91.757812 61.003906 91.53125 60.78125 C 90.9375 60.40625 90.039062 56.746094 90.261719 56 C 90.339844 55.703125 90.785156 55.554688 90.785156 55.554688 C 90.785156 55.554688 90.339844 55.925781 90.1875 55.851562 C 89.816406 55.703125 89.21875 51.746094 89.589844 51.148438 C 89.742188 51 90.339844 51 90.339844 51 C 90.339844 51.074219 89.816406 51.519531 89.667969 51.371094 C 89.21875 51.148438 89.144531 48.609375 89.070312 47.117188 C 89.070312 45.695312 88.917969 43.082031 89.367188 42.710938 C 89.515625 42.5625 90.039062 42.710938 90.039062 42.710938 C 90.039062 42.710938 89.589844 42.859375 89.367188 42.636719 C 88.398438 41.738281 86.53125 32.40625 86.902344 29.417969 C 87.054688 27.851562 87.800781 26.730469 88.472656 25.984375 C 88.996094 25.386719 89.667969 25.015625 90.339844 24.863281 C 91.011719 24.714844 92.128906 24.714844 92.652344 25.089844 C 93.101562 25.386719 93.398438 26.058594 93.550781 26.730469 C 93.625 27.703125 92.953125 30.164062 92.726562 30.164062 C 92.429688 30.164062 92.652344 26.207031 91.90625 25.6875 C 91.382812 25.3125 90.1875 25.609375 89.515625 26.132812 C 88.695312 26.65625 87.875 27.777344 87.574219 29.269531 C 87.128906 32.105469 90.785156 41.515625 90.113281 42.484375 C 89.964844 42.710938 89.367188 42.636719 89.367188 42.636719 C 89.367188 42.636719 89.890625 42.335938 90.113281 42.484375 C 90.785156 43.082031 91.011719 50.550781 90.414062 51.296875 C 90.1875 51.519531 89.589844 51.296875 89.589844 51.296875 C 89.589844 51.296875 90.1875 51 90.414062 51.148438 C 90.9375 51.519531 91.382812 55.253906 91.011719 55.851562 C 90.859375 56.074219 90.261719 55.925781 90.261719 56 C 90.261719 56 90.9375 55.777344 91.234375 56 C 91.832031 56.449219 92.726562 60.183594 92.355469 60.707031 C 92.203125 60.929688 91.53125 60.855469 91.53125 60.78125 C 91.457031 60.78125 92.128906 60.332031 92.429688 60.480469 C 92.953125 60.855469 92.652344 64.066406 93.398438 65.183594 C 94.070312 66.15625 95.566406 67.277344 96.460938 67.203125 C 97.207031 67.203125 98.105469 66.304688 98.402344 65.410156 C 98.925781 64.214844 97.730469 61.152344 98.179688 60.554688 C 98.328125 60.257812 98.851562 60.257812 98.851562 60.257812 C 98.851562 60.183594 98.402344 60.480469 98.179688 60.332031 C 97.433594 59.734375 97.355469 50.921875 97.804688 48.234375 C 98.027344 46.742188 98.253906 45.324219 98.925781 45.023438 C 99.523438 44.726562 100.71875 45.398438 101.164062 45.847656 C 101.539062 46.144531 101.539062 46.445312 101.6875 47.039062 C 102.0625 48.160156 102.582031 50.921875 102.734375 52.492188 C 102.808594 53.613281 102.957031 54.957031 102.660156 55.476562 C 102.507812 55.703125 101.835938 55.703125 101.835938 55.703125 C 101.910156 55.777344 102.582031 55.476562 102.882812 55.703125 C 103.628906 56.300781 103.480469 61.003906 104.300781 62.570312 C 104.824219 63.617188 105.570312 64.511719 106.316406 64.738281 C 106.988281 64.960938 108.035156 64.664062 108.484375 64.289062 C 108.78125 64.066406 108.855469 63.691406 108.855469 63.242188 C 108.929688 62.125 106.914062 58.914062 106.988281 57.792969 C 107.0625 57.269531 107.511719 57.269531 107.585938 56.746094 C 107.886719 55.253906 106.242188 50.101562 106.167969 47.789062 C 106.09375 46.367188 106.988281 45.324219 106.390625 44.277344 C 105.644531 42.859375 102.136719 41.21875 100.195312 40.769531 C 98.777344 40.394531 97.132812 40.46875 96.164062 40.84375 C 95.492188 41.066406 94.742188 42.039062 94.59375 41.890625 C 94.519531 41.8125 94.667969 41.066406 94.894531 40.992188 C 95.042969 40.84375 95.566406 40.992188 95.566406 41.066406 C 95.566406 41.140625 95.042969 41.515625 94.742188 41.441406 C 93.847656 40.992188 92.429688 34.796875 91.90625 32.183594 C 91.609375 30.316406 91.160156 27.851562 91.609375 27.402344 C 91.757812 27.179688 92.355469 27.402344 92.355469 27.402344 " clip-rule="nonzero"/></clipPath><clipPath id="e0227aab63"><path d="M 119.128906 35.75 L 126.679688 35.75 L 126.679688 51.796875 L 119.128906 51.796875 Z M 119.128906 35.75 " clip-rule="nonzero"/></clipPath><clipPath id="a9ea6b8603"><path d="M 126.476562 36.738281 C 122.222656 37.484375 121.25 38.976562 120.726562 40.171875 C 120.207031 41.367188 119.980469 42.785156 119.980469 44.054688 C 120.054688 45.324219 120.128906 46.816406 120.953125 47.863281 C 121.996094 49.28125 126.328125 50.25 126.625 51 C 126.703125 51.296875 126.328125 51.820312 126.328125 51.746094 C 126.328125 51.746094 126.476562 50.921875 126.402344 50.921875 C 126.402344 50.921875 126.476562 51.671875 126.253906 51.746094 C 125.878906 51.96875 124.609375 51.296875 123.789062 50.847656 C 122.667969 50.25 121.101562 49.65625 120.355469 48.535156 C 119.457031 47.339844 119.160156 45.398438 119.160156 43.90625 C 119.085938 42.410156 119.457031 40.917969 120.054688 39.648438 C 120.578125 38.378906 121.550781 36.960938 122.667969 36.363281 C 123.714844 35.765625 126.03125 35.617188 126.476562 35.988281 C 126.625 36.140625 126.402344 36.738281 126.402344 36.738281 " clip-rule="nonzero"/></clipPath><clipPath id="8935ee6c6f"><path d="M 119.414062 35.8125 L 134.359375 35.8125 L 134.359375 65.699219 L 119.414062 65.699219 Z M 119.414062 35.8125 " clip-rule="nonzero"/></clipPath><clipPath id="792a9e4739"><path d="M 126.703125 51.296875 C 127.375 55.179688 126.925781 55.628906 126.328125 56.226562 C 125.28125 57.269531 121.847656 58.015625 121.027344 59.285156 C 120.429688 60.109375 120.355469 61.453125 120.578125 62.199219 C 120.726562 62.796875 121.773438 63.394531 121.699219 63.617188 C 121.625 63.765625 120.878906 63.914062 120.652344 63.765625 C 120.429688 63.617188 120.28125 63.09375 120.355469 62.871094 C 120.429688 62.648438 120.804688 62.421875 121.027344 62.496094 C 121.324219 62.570312 121.476562 63.765625 121.921875 64.140625 C 122.445312 64.589844 123.191406 64.886719 124.011719 64.8125 C 125.132812 64.738281 126.851562 63.914062 128.046875 63.09375 C 129.316406 62.199219 130.507812 61.003906 131.40625 59.585938 C 132.300781 58.167969 132.972656 56.300781 133.273438 54.65625 C 133.496094 53.015625 132.675781 50.476562 133.046875 49.804688 C 133.199219 49.503906 133.71875 49.355469 133.796875 49.355469 C 133.796875 49.355469 133.199219 50.101562 132.972656 50.027344 C 132.527344 49.878906 132.449219 47.191406 131.855469 46.367188 C 131.332031 45.695312 130.808594 45.324219 130.0625 45.023438 C 129.089844 44.578125 127.148438 45.023438 126.402344 44.503906 C 125.878906 44.203125 125.65625 43.679688 125.582031 43.234375 C 125.433594 42.636719 125.507812 41.890625 125.953125 41.21875 C 126.625 40.023438 130.585938 38.007812 130.359375 37.257812 C 130.136719 36.585938 125.582031 37.257812 125.132812 36.738281 C 124.984375 36.511719 125.359375 35.839844 125.359375 35.839844 C 125.359375 35.914062 125.28125 36.738281 125.207031 36.738281 C 125.132812 36.738281 124.835938 36.214844 124.910156 36.066406 C 125.207031 35.691406 129.089844 36.066406 130.136719 36.363281 C 130.660156 36.585938 131.183594 36.8125 131.257812 37.183594 C 131.332031 37.632812 130.734375 38.527344 130.136719 39.199219 C 129.316406 40.097656 126.925781 40.992188 126.476562 41.8125 C 126.253906 42.335938 126.179688 42.785156 126.476562 43.15625 C 126.925781 43.832031 129.761719 43.832031 130.882812 44.351562 C 131.554688 44.726562 132.003906 45.097656 132.449219 45.695312 C 133.125 46.667969 134.09375 49.28125 133.796875 49.804688 C 133.644531 50.027344 133.046875 50.101562 132.972656 50.027344 C 132.898438 49.878906 133.199219 48.980469 133.421875 48.980469 C 133.570312 48.90625 133.796875 49.207031 133.945312 49.503906 C 134.316406 50.402344 134.46875 53.089844 134.09375 54.882812 C 133.71875 56.824219 132.898438 59.0625 131.703125 60.707031 C 130.359375 62.496094 128.046875 64.511719 126.328125 65.183594 C 125.132812 65.707031 123.863281 65.707031 122.894531 65.484375 C 122.070312 65.261719 121.175781 64.589844 120.804688 64.066406 C 120.503906 63.691406 120.207031 63.019531 120.355469 62.796875 C 120.429688 62.570312 120.953125 62.496094 121.101562 62.570312 C 121.324219 62.722656 121.476562 63.839844 121.324219 63.992188 C 121.101562 64.066406 119.980469 63.320312 119.683594 62.648438 C 119.308594 61.824219 119.382812 60.183594 120.054688 59.136719 C 120.953125 57.644531 124.761719 56.449219 125.804688 55.402344 C 126.328125 54.882812 126.703125 54.582031 126.777344 53.984375 C 126.925781 53.238281 125.730469 51.519531 125.953125 51.222656 C 126.03125 51.074219 126.703125 51.296875 126.703125 51.296875 " clip-rule="nonzero"/></clipPath><clipPath id="c9c194c5c2"><path d="M 130 21.796875 L 156.753906 21.796875 L 156.753906 65.113281 L 130 65.113281 Z M 130 21.796875 " clip-rule="nonzero"/></clipPath><clipPath id="2062467543"><path d="M 135.140625 23.445312 C 138.273438 39.5 139.769531 41.367188 139.46875 41.964844 C 139.320312 42.1875 138.722656 42.335938 138.648438 42.261719 C 138.5 42.039062 139.46875 40.320312 140.292969 39.648438 C 141.261719 38.902344 143.351562 38.378906 144.324219 38.304688 C 144.921875 38.230469 145.59375 38.304688 145.667969 38.453125 C 145.742188 38.601562 145.144531 39.277344 144.996094 39.199219 C 144.921875 39.199219 144.769531 38.527344 144.921875 38.378906 C 145.144531 38.230469 145.667969 38.378906 146.265625 38.527344 C 147.535156 38.828125 150.671875 39.722656 152.089844 41.066406 C 153.507812 42.410156 154.253906 44.578125 154.925781 46.59375 C 155.671875 48.609375 156.71875 52.34375 156.269531 53.164062 C 156.121094 53.460938 155.375 53.460938 155.449219 53.535156 C 155.449219 53.613281 156.046875 53.3125 156.269531 53.535156 C 156.792969 54.058594 156.867188 57.941406 156.417969 59.585938 C 156.046875 60.929688 155.226562 62.347656 154.253906 62.945312 C 153.285156 63.46875 151.492188 63.617188 150.671875 63.09375 C 149.773438 62.570312 149.175781 61.078125 148.953125 60.109375 C 148.730469 59.210938 149.402344 57.792969 149.101562 57.417969 C 148.878906 57.195312 148.429688 57.644531 148.207031 57.417969 C 147.460938 56.671875 148.429688 51.222656 147.980469 48.980469 C 147.683594 47.488281 147.234375 45.921875 146.5625 45.25 C 146.117188 44.800781 145.292969 44.503906 144.847656 44.578125 C 144.472656 44.652344 144.175781 44.949219 143.949219 45.398438 C 143.425781 46.445312 144.324219 51.074219 143.726562 51.59375 C 143.5 51.746094 142.90625 51.445312 142.90625 51.519531 C 142.90625 51.519531 143.351562 51.445312 143.578125 51.671875 C 144.472656 52.714844 145.964844 61.601562 144.921875 63.617188 C 144.324219 64.589844 143.054688 65.109375 142.082031 65.035156 C 140.8125 64.960938 139.171875 63.542969 138.125 62.050781 C 136.632812 59.957031 135.511719 55.476562 135.140625 52.941406 C 134.839844 51.074219 135.4375 48.234375 135.140625 48.085938 C 134.988281 48.011719 134.839844 48.609375 134.617188 48.535156 C 133.570312 48.234375 130.359375 30.539062 130.0625 26.582031 C 129.988281 25.164062 129.988281 24.492188 130.285156 23.746094 C 130.585938 23.074219 131.332031 22.476562 131.929688 22.175781 C 132.449219 21.953125 133.125 21.726562 133.644531 21.878906 C 134.242188 22.175781 135.289062 23.667969 135.140625 23.96875 C 135.0625 24.191406 134.316406 24.191406 134.316406 24.191406 C 134.316406 24.191406 135.140625 23.894531 135.140625 23.96875 C 135.140625 23.96875 134.691406 24.417969 134.46875 24.34375 C 134.09375 24.265625 133.871094 22.921875 133.421875 22.773438 C 133.046875 22.625 132.527344 22.847656 132.152344 23.074219 C 131.777344 23.222656 131.332031 23.445312 131.105469 23.894531 C 130.808594 24.492188 130.808594 25.3125 130.882812 26.65625 C 131.03125 30.242188 134.617188 43.605469 135.140625 46.59375 C 135.289062 47.414062 135.511719 47.9375 135.289062 48.234375 C 135.214844 48.460938 134.617188 48.460938 134.617188 48.460938 C 134.617188 48.460938 135.214844 48.160156 135.4375 48.308594 C 136.109375 48.832031 135.886719 52.941406 136.410156 55.105469 C 137.003906 57.34375 137.753906 60.03125 138.945312 61.601562 C 139.84375 62.871094 141.484375 64.140625 142.457031 64.214844 C 143.128906 64.214844 143.800781 63.914062 144.097656 63.242188 C 144.996094 61.601562 142.007812 52.34375 142.753906 51.519531 C 142.980469 51.296875 143.726562 51.59375 143.726562 51.59375 C 143.726562 51.59375 143.054688 51.746094 142.90625 51.519531 C 142.308594 50.847656 142.605469 46.816406 143.054688 45.472656 C 143.277344 44.726562 143.652344 44.203125 144.175781 43.90625 C 144.769531 43.605469 145.742188 43.53125 146.265625 43.753906 C 146.789062 44.054688 147.160156 44.578125 147.535156 45.25 C 148.058594 46.292969 148.578125 47.863281 148.878906 49.503906 C 149.25 51.671875 149.625 56.449219 149.027344 57.195312 C 148.804688 57.496094 148.207031 57.417969 148.207031 57.417969 C 148.132812 57.34375 149.175781 56.746094 149.476562 56.972656 C 149.921875 57.195312 149.550781 58.988281 149.847656 59.957031 C 150.148438 60.855469 150.59375 62.050781 151.265625 62.421875 C 151.789062 62.796875 152.613281 62.722656 153.285156 62.496094 C 154.03125 62.199219 154.851562 61.453125 155.300781 60.480469 C 155.972656 58.914062 154.777344 54.132812 155.375 53.460938 C 155.597656 53.238281 156.269531 53.386719 156.269531 53.386719 C 156.269531 53.460938 155.671875 53.6875 155.449219 53.460938 C 154.703125 52.941406 154.703125 48.832031 154.105469 46.742188 C 153.433594 44.726562 153.132812 42.484375 151.714844 41.292969 C 150.222656 39.871094 145.292969 39.949219 144.921875 39.199219 C 144.769531 38.902344 145.21875 38.304688 145.292969 38.304688 C 145.367188 38.304688 145.667969 38.902344 145.519531 39.125 C 145.144531 39.648438 142.53125 39.5 141.335938 40.023438 C 140.214844 40.542969 139.46875 42.484375 138.648438 42.261719 C 136.929688 41.664062 134.914062 30.316406 134.46875 26.957031 C 134.242188 25.3125 134.019531 23.667969 134.390625 23.296875 C 134.542969 23.148438 135.140625 23.445312 135.140625 23.445312 " clip-rule="nonzero"/></clipPath><clipPath id="4ebca60f48"><path d="M 152.175781 30.71875 L 158.136719 30.71875 L 158.136719 39.953125 L 152.175781 39.953125 Z M 152.175781 30.71875 " clip-rule="nonzero"/></clipPath><clipPath id="6a91f81200"><path d="M 154.777344 35.316406 C 156.941406 34.496094 157.390625 33.527344 157.242188 33.003906 C 157.089844 32.480469 156.269531 31.734375 155.671875 31.660156 C 155 31.585938 153.582031 32.257812 153.207031 32.855469 C 152.910156 33.527344 153.132812 34.644531 153.507812 35.316406 C 154.03125 36.140625 156.121094 36.4375 156.417969 37.257812 C 156.71875 38.007812 155.898438 39.949219 155.746094 39.949219 C 155.597656 39.871094 155.972656 38.082031 155.523438 37.410156 C 155 36.585938 153.058594 36.289062 152.535156 35.394531 C 152.089844 34.644531 152.089844 33.152344 152.386719 32.480469 C 152.613281 31.882812 153.058594 31.511719 153.507812 31.210938 C 154.105469 30.914062 155 30.613281 155.671875 30.839844 C 156.496094 30.988281 157.839844 31.957031 158.0625 32.78125 C 158.285156 33.601562 157.6875 35.019531 157.089844 35.542969 C 156.496094 36.066406 155.074219 36.363281 154.777344 36.140625 C 154.628906 35.988281 154.777344 35.316406 154.777344 35.316406 " clip-rule="nonzero"/></clipPath><clipPath id="6831e474d9"><path d="M 154.914062 35.96875 L 167.195312 35.96875 L 167.195312 59.683594 L 154.914062 59.683594 Z M 154.914062 35.96875 " clip-rule="nonzero"/></clipPath><clipPath id="75c1a3b50b"><path d="M 155.898438 39.648438 C 158.808594 53.761719 158.210938 53.835938 158.210938 53.835938 C 158.210938 53.835938 158.957031 53.460938 158.957031 53.460938 C 158.957031 53.460938 158.210938 53.761719 158.210938 53.835938 C 158.210938 53.835938 158.660156 53.460938 158.957031 53.535156 C 159.78125 53.835938 161.050781 58.09375 162.316406 58.613281 C 163.066406 58.988281 164.183594 58.539062 164.933594 58.167969 C 165.527344 57.867188 166.199219 57.417969 166.277344 56.824219 C 166.5 55.851562 165.007812 54.433594 164.558594 52.789062 C 163.886719 50.402344 163.960938 46.59375 163.214844 43.980469 C 162.542969 41.738281 161.570312 39.050781 160.601562 37.929688 C 160.003906 37.257812 159.554688 36.886719 158.808594 36.738281 C 157.839844 36.511719 155.449219 37.335938 155.449219 37.183594 C 155.375 37.109375 158.359375 35.839844 159.332031 35.988281 C 160.078125 36.066406 160.527344 36.511719 161.125 37.183594 C 162.167969 38.453125 163.289062 41.367188 164.035156 43.753906 C 164.78125 46.445312 164.707031 50.328125 165.378906 52.640625 C 165.828125 54.285156 167.171875 55.703125 167.171875 56.671875 C 167.171875 57.34375 166.949219 57.792969 166.5 58.242188 C 165.902344 58.839844 164.484375 59.511719 163.585938 59.660156 C 162.839844 59.734375 162.167969 59.585938 161.644531 59.285156 C 160.972656 58.988281 160.527344 58.464844 160.003906 57.71875 C 159.332031 56.824219 158.0625 54.65625 158.210938 53.984375 C 158.285156 53.6875 158.957031 53.535156 158.957031 53.460938 C 158.957031 53.460938 158.4375 53.835938 158.136719 53.6875 C 157.242188 53.164062 156.34375 46.890625 155.820312 44.351562 C 155.449219 42.484375 154.703125 40.097656 155.074219 39.648438 C 155.226562 39.5 155.898438 39.648438 155.898438 39.648438 " clip-rule="nonzero"/></clipPath><clipPath id="4b99a85c50"><path d="M 157.050781 18.476562 L 178.976562 18.476562 L 178.976562 55 L 157.050781 55 Z M 157.050781 18.476562 " clip-rule="nonzero"/></clipPath><clipPath id="9acf9f17f6"><path d="M 161.050781 25.238281 C 161.496094 19.414062 162.542969 18.742188 163.214844 18.519531 C 163.664062 18.441406 164.109375 18.519531 164.558594 18.667969 C 165.082031 18.964844 165.605469 19.5625 165.976562 20.308594 C 166.425781 21.132812 166.050781 23.222656 166.648438 23.59375 C 167.246094 23.894531 168.441406 22.625 169.261719 22.699219 C 169.933594 22.773438 170.753906 23.074219 171.128906 23.667969 C 171.652344 24.566406 171.800781 26.957031 171.128906 27.925781 C 170.53125 28.898438 167.695312 29.867188 167.320312 29.570312 C 167.246094 29.492188 167.320312 28.972656 167.394531 28.972656 C 167.546875 28.898438 168.515625 29.941406 168.589844 30.390625 C 168.664062 30.761719 168.515625 31.210938 168.292969 31.285156 C 168.140625 31.433594 167.621094 30.988281 167.46875 31.136719 C 166.949219 31.660156 168.066406 35.839844 168.8125 38.378906 C 169.710938 41.367188 171.277344 46.519531 172.695312 47.789062 C 173.292969 48.308594 173.816406 48.308594 174.488281 48.308594 C 175.3125 48.308594 176.429688 47.191406 177.175781 47.5625 C 178.074219 47.9375 178.96875 50.328125 178.96875 51.371094 C 178.96875 52.042969 178.519531 52.566406 178 53.089844 C 177.25 53.835938 175.683594 54.582031 174.488281 54.804688 C 173.445312 55.03125 172.101562 55.03125 171.277344 54.730469 C 170.753906 54.582031 170.308594 54.359375 169.933594 53.835938 C 169.113281 52.714844 169.039062 49.28125 168.292969 47.265625 C 167.546875 45.546875 165.378906 43.082031 165.605469 42.484375 C 165.753906 42.261719 166.425781 42.335938 166.425781 42.261719 C 166.425781 42.113281 165.753906 42.1875 165.378906 41.8125 C 164.410156 40.917969 162.914062 37.109375 162.167969 35.09375 C 161.644531 33.527344 160.75 31.285156 161.125 30.914062 C 161.273438 30.761719 161.945312 30.914062 161.945312 30.914062 C 161.945312 30.988281 159.480469 31.882812 158.660156 31.433594 C 157.761719 30.988281 156.941406 28.972656 157.089844 28 C 157.167969 27.253906 157.988281 26.582031 158.808594 26.132812 C 159.703125 25.535156 162.019531 25.015625 162.394531 25.3125 C 162.617188 25.460938 162.46875 26.132812 162.394531 26.207031 C 162.316406 26.207031 161.871094 25.761719 161.945312 25.609375 C 161.945312 25.535156 162.691406 25.460938 162.691406 25.460938 C 162.765625 25.609375 158.734375 26.804688 158.210938 27.777344 C 157.839844 28.375 158.210938 29.492188 158.511719 30.015625 C 158.660156 30.390625 158.957031 30.6875 159.332031 30.761719 C 159.929688 30.988281 161.347656 30.242188 161.871094 30.613281 C 162.617188 31.210938 162.242188 33.300781 162.765625 34.871094 C 163.511719 36.960938 166.722656 41.140625 166.425781 42.039062 C 166.351562 42.410156 165.605469 42.484375 165.605469 42.484375 C 165.605469 42.484375 166.125 42.039062 166.425781 42.1875 C 166.796875 42.335938 167.171875 43.53125 167.621094 44.578125 C 168.441406 46.59375 168.964844 51.820312 170.53125 53.238281 C 171.578125 54.058594 173.144531 54.132812 174.414062 53.910156 C 175.609375 53.761719 177.25 52.863281 177.773438 52.117188 C 178.148438 51.59375 178.148438 51 178 50.402344 C 177.925781 49.730469 177.625 48.609375 177.027344 48.308594 C 176.28125 48.011719 174.636719 49.355469 173.667969 49.207031 C 172.921875 49.058594 172.398438 48.757812 171.726562 48.011719 C 170.160156 45.921875 167.695312 37.183594 167.171875 34.199219 C 166.949219 32.703125 166.722656 31.433594 167.097656 30.914062 C 167.320312 30.539062 168.140625 30.6875 168.21875 30.464844 C 168.21875 30.164062 166.722656 29.492188 166.796875 29.046875 C 166.875 28.449219 169.859375 28.222656 170.457031 27.328125 C 170.90625 26.65625 170.753906 25.238281 170.457031 24.566406 C 170.234375 24.117188 169.785156 23.746094 169.1875 23.59375 C 168.367188 23.371094 166.574219 24.417969 165.902344 23.894531 C 165.304688 23.445312 165.753906 21.652344 165.304688 20.832031 C 164.855469 20.160156 164.035156 19.414062 163.4375 19.414062 C 162.914062 19.414062 162.167969 20.011719 161.796875 20.683594 C 161.347656 21.726562 162.242188 24.9375 161.796875 25.3125 C 161.570312 25.460938 161.050781 25.238281 161.050781 25.238281 " clip-rule="nonzero"/></clipPath></defs><g clip-path="url(#619af21d36)"><path fill="#000000" d="M 118.09375 94.621094 L 145.289062 103.25 C 150.328125 98.597656 154.976562 93.558594 160.011719 90.066406 C 166.601562 92.007812 183.648438 96.269531 186.359375 97.433594 L 179.773438 75.335938 L 189.847656 57.5 L 179.773438 40.441406 L 184.421875 15.628906 L 158.851562 22.609375 L 138.316406 9.039062 L 112.746094 26.484375 L 88.722656 10.589844 L 70.515625 26.871094 L 43.78125 22.21875 L 55.015625 44.707031 L 41.84375 65.640625 L 55.015625 79.210938 L 46.878906 105.964844 L 71.675781 95.496094 L 86.785156 111.390625 Z M 118.09375 94.621094 " fill-opacity="0.5" fill-rule="evenodd"/></g><path fill="#ffffff" d="M 113.320312 88.175781 L 140.515625 96.800781 C 145.550781 92.152344 150.203125 87.109375 155.238281 83.621094 C 161.824219 85.558594 178.871094 89.824219 181.585938 90.988281 L 174.996094 68.886719 L 185.070312 51.054688 L 174.996094 33.996094 L 179.648438 9.183594 L 154.074219 16.160156 L 133.542969 2.589844 L 107.96875 20.039062 L 83.949219 4.140625 L 65.738281 20.425781 L 39.003906 15.773438 L 50.242188 38.257812 L 37.066406 59.195312 L 50.242188 72.765625 L 42.105469 99.515625 L 66.902344 89.046875 L 82.011719 104.945312 Z M 113.320312 88.175781 " fill-opacity="1" fill-rule="evenodd"/><g clip-path="url(#2f74787237)"><path stroke-linecap="butt" transform="matrix(0.3231, 0, 0, 0.323314, 29.320329, -13.290449)" fill="none" stroke-linejoin="round" d="M 259.981406 313.831523 L 344.15137 340.508348 C 359.735266 326.130892 374.134351 310.533165 389.718247 299.744033 C 410.101837 305.736653 462.862211 318.930083 471.2647 322.530487 L 450.869019 254.171123 L 482.048901 199.01727 L 450.869019 146.255632 L 465.268104 69.511432 L 386.115453 91.089698 L 322.570878 49.117193 L 243.418228 103.08702 L 169.077362 53.913705 L 112.714195 104.283127 L 29.97084 89.89359 L 64.753516 159.43698 L 23.974244 224.19594 L 64.753516 266.168445 L 39.57023 348.905265 L 116.316988 316.525785 L 163.080766 365.6991 Z M 259.981406 313.831523 " stroke="#000000" stroke-width="10" stroke-opacity="1" stroke-miterlimit="4"/></g><g clip-path="url(#1edb382925)"><g clip-path="url(#d6235f7805)"><path fill="#fffb47" d="M 54.722656 24.417969 L 75.058594 24.417969 L 75.058594 75.503906 L 54.722656 75.503906 Z M 54.722656 24.417969 " fill-opacity="1" fill-rule="nonzero"/></g></g><g clip-path="url(#dc4963dbbc)"><g clip-path="url(#ba39017f26)"><path fill="#fffb47" d="M 48.074219 36.738281 L 72.589844 36.738281 L 72.589844 49.730469 L 48.074219 49.730469 Z M 48.074219 36.738281 " fill-opacity="1" fill-rule="nonzero"/></g></g><g clip-path="url(#cbeef8983a)"><g clip-path="url(#8f522a4fb2)"><path fill="#fffb47" d="M 67.015625 40.839844 L 90.261719 40.839844 L 90.261719 70.171875 L 67.015625 70.171875 Z M 67.015625 40.839844 " fill-opacity="1" fill-rule="nonzero"/></g></g><g clip-path="url(#66a0cb576e)"><g clip-path="url(#d318062a10)"><path fill="#fffb47" d="M 85.867188 24.417969 L 111.488281 24.417969 L 111.488281 69.355469 L 85.867188 69.355469 Z M 85.867188 24.417969 " fill-opacity="1" fill-rule="nonzero"/></g></g><g clip-path="url(#be86814976)"><g clip-path="url(#8e2605859c)"><path fill="#fffb47" d="M 117.085938 34.046875 L 136.351562 34.046875 L 136.351562 67.535156 L 117.085938 67.535156 Z M 117.085938 34.046875 " fill-opacity="1" fill-rule="nonzero"/></g></g><g clip-path="url(#f4065e87bd)"><g clip-path="url(#64669ca5d2)"><path fill="#fffb47" d="M 127.785156 20.085938 L 158.25 20.085938 L 158.25 66.378906 L 127.785156 66.378906 Z M 127.785156 20.085938 " fill-opacity="1" fill-rule="nonzero"/></g></g><g clip-path="url(#8400d0da8b)"><g clip-path="url(#0c30ba109d)"><path fill="#fffb47" d="M 153.058594 34.046875 L 168.441406 34.046875 L 168.441406 61.445312 L 153.058594 61.445312 Z M 153.058594 34.046875 " fill-opacity="1" fill-rule="nonzero"/></g></g><g clip-path="url(#cdcd0ddfd6)"><g clip-path="url(#e9f7a4c7e6)"><path fill="#fffb47" d="M 150.671875 29.007812 L 160.757812 29.007812 L 160.757812 38.789062 L 150.671875 38.789062 Z M 150.671875 29.007812 " fill-opacity="1" fill-rule="nonzero"/></g></g><g clip-path="url(#e30d62b624)"><g clip-path="url(#1c9d9da838)"><path fill="#fffb47" d="M 158.25 16.128906 L 181.394531 16.128906 L 181.394531 57.359375 L 158.25 57.359375 Z M 158.25 16.128906 " fill-opacity="1" fill-rule="nonzero"/></g></g><g clip-path="url(#92bb936940)"><g clip-path="url(#1d2e150d76)"><path fill="#fffb47" d="M 154.472656 20.085938 L 173.835938 20.085938 L 173.835938 34.796875 L 154.472656 34.796875 Z M 154.472656 20.085938 " fill-opacity="1" fill-rule="nonzero"/></g></g><g clip-path="url(#90eaac86fc)"><g clip-path="url(#db3f661a7e)"><path fill="#000000" d="M 46.507812 23.148438 L 77.046875 23.148438 L 77.046875 76.949219 L 46.507812 76.949219 Z M 46.507812 23.148438 " fill-opacity="1" fill-rule="nonzero"/></g></g><g clip-path="url(#b67e841b00)"><g clip-path="url(#8516f7599e)"><path fill="#000000" d="M 74.359375 47.265625 L 86.546875 47.265625 L 86.546875 57.496094 L 74.359375 57.496094 Z M 74.359375 47.265625 " fill-opacity="1" fill-rule="nonzero"/></g></g><g clip-path="url(#e17f8fdc44)"><g clip-path="url(#fa70459b92)"><path fill="#000000" d="M 66.742188 39.125 L 92.726562 39.125 L 92.726562 72.621094 L 66.742188 72.621094 Z M 66.742188 39.125 " fill-opacity="1" fill-rule="nonzero"/></g></g><g clip-path="url(#f7797b3ee7)"><g clip-path="url(#e605472cb7)"><path fill="#000000" d="M 73.386719 42.859375 L 83.457031 42.859375 L 83.457031 52.269531 L 73.386719 52.269531 Z M 73.386719 42.859375 " fill-opacity="1" fill-rule="nonzero"/></g></g><g clip-path="url(#4943e7313f)"><g clip-path="url(#785008704f)"><path fill="#000000" d="M 83.917969 21.878906 L 112.8125 21.878906 L 112.8125 71.09375 L 83.917969 71.09375 Z M 83.917969 21.878906 " fill-opacity="1" fill-rule="nonzero"/></g></g><g clip-path="url(#e0227aab63)"><g clip-path="url(#a9ea6b8603)"><path fill="#000000" d="M 116.171875 33.003906 L 129.6875 33.003906 L 129.6875 54.808594 L 116.171875 54.808594 Z M 116.171875 33.003906 " fill-opacity="1" fill-rule="nonzero"/></g></g><g clip-path="url(#8935ee6c6f)"><g clip-path="url(#792a9e4739)"><path fill="#000000" d="M 116.695312 32.855469 L 137.15625 32.855469 L 137.15625 68.496094 L 116.695312 68.496094 Z M 116.695312 32.855469 " fill-opacity="1" fill-rule="nonzero"/></g></g><g clip-path="url(#c9c194c5c2)"><g clip-path="url(#2062467543)"><path fill="#000000" d="M 127.074219 18.890625 L 159.40625 18.890625 L 159.40625 68.019531 L 127.074219 68.019531 Z M 127.074219 18.890625 " fill-opacity="1" fill-rule="nonzero"/></g></g><g clip-path="url(#4ebca60f48)"><g clip-path="url(#6a91f81200)"><path fill="#000000" d="M 149.402344 27.851562 L 161.050781 27.851562 L 161.050781 42.910156 L 149.402344 42.910156 Z M 149.402344 27.851562 " fill-opacity="1" fill-rule="nonzero"/></g></g><g clip-path="url(#6831e474d9)"><g clip-path="url(#75c1a3b50b)"><path fill="#000000" d="M 152.089844 33.003906 L 170.160156 33.003906 L 170.160156 62.71875 L 152.089844 62.71875 Z M 152.089844 33.003906 " fill-opacity="1" fill-rule="nonzero"/></g></g><g clip-path="url(#4b99a85c50)"><g clip-path="url(#9acf9f17f6)"><path fill="#000000" d="M 154.105469 15.53125 L 182.03125 15.53125 L 182.03125 57.746094 L 154.105469 57.746094 Z M 154.105469 15.53125 " fill-opacity="1" fill-rule="nonzero"/></g></g></svg>