<svg xmlns="http://www.w3.org/2000/svg" xmlns:xlink="http://www.w3.org/1999/xlink" width="300" zoomAndPan="magnify" viewBox="0 0 224.87999 74.999997" height="100" preserveAspectRatio="xMidYMid meet" version="1.0"><defs><clipPath id="c1b2b9b540"><path d="M 0 0.0195312 L 74.960938 0.0195312 L 74.960938 74.980469 L 0 74.980469 Z M 0 0.0195312 " clip-rule="nonzero"/></clipPath><clipPath id="f45ecd2c3d"><path d="M 37.480469 74.980469 L 0 37.5 L 18.738281 37.5 L 18.738281 0.0195312 L 56.21875 0.0195312 L 56.21875 37.5 L 74.960938 37.5 Z M 37.480469 74.980469 " clip-rule="nonzero"/></clipPath><clipPath id="5c34b63319"><path d="M 149.921875 0.0195312 L 224.761719 0.0195312 L 224.761719 74.980469 L 149.921875 74.980469 Z M 149.921875 0.0195312 " clip-rule="nonzero"/></clipPath><clipPath id="bea7f3afaf"><path d="M 187.398438 74.980469 L 149.921875 37.5 L 168.660156 37.5 L 168.660156 0.0195312 L 206.140625 0.0195312 L 206.140625 37.5 L 224.878906 37.5 Z M 187.398438 74.980469 " clip-rule="nonzero"/></clipPath><clipPath id="ffcb5accaa"><path d="M 74.960938 0.0195312 L 149.921875 0.0195312 L 149.921875 74.980469 L 74.960938 74.980469 Z M 74.960938 0.0195312 " clip-rule="nonzero"/></clipPath><clipPath id="f27ddd65a6"><path d="M 112.441406 74.980469 L 74.960938 37.5 L 93.699219 37.5 L 93.699219 0.0195312 L 131.179688 0.0195312 L 131.179688 37.5 L 149.921875 37.5 Z M 112.441406 74.980469 " clip-rule="nonzero"/></clipPath></defs><g clip-path="url(#c1b2b9b540)"><g clip-path="url(#f45ecd2c3d)"><path fill="#fffb47" d="M 0 0.0195312 L 74.960938 0.0195312 L 74.960938 74.980469 L 0 74.980469 Z M 0 0.0195312 " fill-opacity="1" fill-rule="nonzero"/><path stroke-linecap="butt" transform="matrix(0.7496, 0, 0, 0.7496, 0, 0.0199992)" fill="none" stroke-linejoin="miter" d="M 50.00063 100.000635 L 0 50.000005 L 24.997709 50.000005 L 24.997709 -0.000624223 L 74.998339 -0.000624223 L 74.998339 50.000005 L 100.001259 50.000005 Z M 50.00063 100.000635 " stroke="#000000" stroke-width="8" stroke-opacity="1" stroke-miterlimit="4"/></g></g><g clip-path="url(#5c34b63319)"><g clip-path="url(#bea7f3afaf)"><path fill="#fffb47" d="M 149.921875 0.0195312 L 224.878906 0.0195312 L 224.878906 74.980469 L 149.921875 74.980469 Z M 149.921875 0.0195312 " fill-opacity="1" fill-rule="nonzero"/><path stroke-linecap="butt" transform="matrix(0.7496, 0, 0, 0.7496, 149.919987, 0.0199992)" fill="none" stroke-linejoin="miter" d="M 49.997937 100.000635 L 0.00251856 50.000005 L 25.000228 50.000005 L 25.000228 -0.000624223 L 75.000857 -0.000624223 L 75.000857 50.000005 L 99.998567 50.000005 Z M 49.997937 100.000635 " stroke="#000000" stroke-width="8" stroke-opacity="1" stroke-miterlimit="4"/></g></g><g clip-path="url(#ffcb5accaa)"><g clip-path="url(#f27ddd65a6)"><path fill="#fffb47" d="M 74.960938 0.0195312 L 149.921875 0.0195312 L 149.921875 74.980469 L 74.960938 74.980469 Z M 74.960938 0.0195312 " fill-opacity="1" fill-rule="nonzero"/><path stroke-linecap="butt" transform="matrix(0.7496, 0, 0, 0.7496, 74.959994, 0.0199992)" fill="none" stroke-linejoin="miter" d="M 50.001889 100.000635 L 0.00125928 50.000005 L 24.998969 50.000005 L 24.998969 -0.000624223 L 74.999598 -0.000624223 L 74.999598 50.000005 L 100.002519 50.000005 Z M 50.001889 100.000635 " stroke="#000000" stroke-width="8" stroke-opacity="1" stroke-miterlimit="4"/></g></g></svg>