<svg xmlns="http://www.w3.org/2000/svg" xmlns:xlink="http://www.w3.org/1999/xlink" width="200" zoomAndPan="magnify" viewBox="0 0 150 74.999997" height="100" preserveAspectRatio="xMidYMid meet" version="1.0"><defs><clipPath id="c32a6b5601"><path d="M 4.636719 23.679688 L 11.023438 23.679688 L 11.023438 58.65625 L 4.636719 58.65625 Z M 4.636719 23.679688 " clip-rule="nonzero"/></clipPath><clipPath id="9480b92141"><path d="M 11.023438 24.898438 C 6.824219 58.351562 6.449219 58.574219 6.074219 58.648438 C 5.699219 58.648438 5.25 58.425781 5.023438 58.125 C 4.800781 57.824219 4.726562 57.300781 4.875 57 C 5.023438 56.625 5.699219 56.175781 6.074219 56.175781 C 6.449219 56.175781 7.050781 56.773438 7.199219 57.148438 C 7.273438 57.449219 7.125 58.050781 6.898438 58.273438 C 6.601562 58.5 5.773438 58.648438 5.398438 58.5 C 5.101562 58.351562 4.949219 58.050781 4.800781 57.523438 C 4.351562 55.875 5.023438 50.925781 5.476562 46.726562 C 6.074219 40.574219 7.273438 26.550781 8.851562 24.375 C 9.300781 23.773438 9.824219 23.625 10.199219 23.699219 C 10.574219 23.773438 11.023438 24.898438 11.023438 24.898438 " clip-rule="nonzero"/></clipPath><clipPath id="50bf8247a7"><path d="M 11.328125 24.542969 L 19.449219 24.542969 L 19.449219 58.21875 L 11.328125 58.21875 Z M 11.328125 24.542969 " clip-rule="nonzero"/></clipPath><clipPath id="fbf731f400"><path d="M 19.425781 25.800781 C 17.625 40.5 15.898438 54.976562 13.949219 57.375 C 13.425781 58.050781 12.675781 58.199219 12.300781 58.125 C 11.925781 57.976562 11.476562 57.148438 11.550781 56.773438 C 11.625 56.324219 12.601562 55.574219 13.050781 55.648438 C 13.425781 55.726562 14.101562 56.773438 14.023438 57.226562 C 13.949219 57.601562 13.199219 58.199219 12.824219 58.199219 C 12.375 58.199219 11.773438 57.75 11.550781 56.925781 C 10.425781 53.398438 15.226562 28.273438 17.175781 25.425781 C 17.625 24.75 18.074219 24.523438 18.449219 24.601562 C 18.824219 24.675781 19.425781 25.800781 19.425781 25.800781 " clip-rule="nonzero"/></clipPath><clipPath id="ab0c284368"><path d="M 2.152344 32.152344 L 24 32.152344 L 24 36.328125 L 2.152344 36.328125 Z M 2.152344 32.152344 " clip-rule="nonzero"/></clipPath><clipPath id="9990c526ae"><path d="M 3.226562 32.175781 C 22.125 33.976562 23.550781 33.898438 23.773438 34.425781 C 24 34.800781 23.25 36 22.949219 36 C 22.648438 36 21.976562 35.25 22.050781 34.875 C 22.050781 34.574219 22.800781 33.976562 23.175781 34.050781 C 23.476562 34.050781 24 34.648438 24 34.949219 C 24 35.25 23.699219 35.773438 23.023438 36 C 20.699219 36.976562 5.101562 35.398438 2.925781 34.125 C 2.398438 33.824219 2.175781 33.375 2.175781 33.074219 C 2.25 32.699219 3.226562 32.175781 3.226562 32.175781 " clip-rule="nonzero"/></clipPath><clipPath id="9ddd187da0"><path d="M 2.085938 43.109375 L 22.890625 43.109375 L 22.890625 46.292969 L 2.085938 46.292969 Z M 2.085938 43.109375 " clip-rule="nonzero"/></clipPath><clipPath id="5ea2693168"><path d="M 3.226562 43.273438 C 22.648438 43.5 22.875 44.101562 22.800781 44.476562 C 22.800781 44.851562 22.199219 45.523438 21.824219 45.523438 C 21.375 45.523438 20.398438 44.476562 20.476562 44.023438 C 20.550781 43.648438 21.523438 43.050781 21.976562 43.125 C 22.351562 43.199219 22.875 43.949219 22.875 44.324219 C 22.800781 44.699219 22.351562 45.226562 21.601562 45.523438 C 19.050781 46.5 5.101562 46.574219 2.925781 45.449219 C 2.324219 45.148438 2.101562 44.625 2.101562 44.25 C 2.175781 43.875 3.226562 43.273438 3.226562 43.273438 " clip-rule="nonzero"/></clipPath><clipPath id="ae72f35459"><path d="M 25.707031 13.699219 L 33.476562 13.699219 L 33.476562 56.5625 L 25.707031 56.5625 Z M 25.707031 13.699219 " clip-rule="nonzero"/></clipPath><clipPath id="0e3f59683f"><path d="M 32.101562 14.851562 C 31.726562 26.476562 30.675781 28.648438 30.148438 32.175781 C 29.324219 37.425781 27.074219 48.824219 28.425781 52.199219 C 28.949219 53.625 30.300781 54.375 31.199219 54.675781 C 31.800781 54.898438 32.625 54.226562 33 54.449219 C 33.300781 54.601562 33.449219 55.125 33.449219 55.5 C 33.449219 55.875 33.148438 56.324219 32.851562 56.476562 C 32.476562 56.625 31.648438 56.550781 31.351562 56.25 C 31.050781 56.023438 30.898438 55.5 30.976562 55.199219 C 31.125 54.75 31.726562 54.226562 32.101562 54.148438 C 32.550781 54.148438 33.226562 54.601562 33.375 54.976562 C 33.523438 55.273438 33.523438 55.875 33.226562 56.101562 C 32.625 56.550781 29.773438 56.25 28.574219 55.648438 C 27.523438 55.125 26.625 54.601562 26.101562 53.175781 C 24.824219 49.648438 27.074219 37.5 27.976562 31.800781 C 28.5 27.976562 29.625 25.351562 29.925781 22.351562 C 30.226562 19.648438 29.25 15.898438 29.925781 14.625 C 30.148438 14.101562 30.75 13.726562 31.125 13.726562 C 31.5 13.800781 32.101562 14.851562 32.101562 14.851562 " clip-rule="nonzero"/></clipPath><clipPath id="c53bdb2457"><path d="M 24.726562 22.925781 L 37.140625 22.925781 L 37.140625 26.988281 L 24.726562 26.988281 Z M 24.726562 22.925781 " clip-rule="nonzero"/></clipPath><clipPath id="d169576bc9"><path d="M 26.023438 22.949219 C 37.050781 24.976562 37.199219 25.875 36.976562 26.25 C 36.824219 26.550781 35.925781 26.925781 35.625 26.773438 C 35.175781 26.625 34.648438 25.574219 34.726562 25.199219 C 34.875 24.824219 36 24.300781 36.375 24.449219 C 36.75 24.523438 37.199219 25.351562 37.125 25.726562 C 37.050781 26.175781 36.449219 26.625 35.699219 26.851562 C 33.898438 27.300781 26.925781 26.175781 25.5 25.199219 C 24.976562 24.824219 24.675781 24.226562 24.75 23.851562 C 24.824219 23.476562 26.023438 22.949219 26.023438 22.949219 " clip-rule="nonzero"/></clipPath><clipPath id="2e8c6c64dd"><path d="M 36.609375 14.179688 L 49.71875 14.179688 L 49.71875 58.34375 L 36.609375 58.34375 Z M 36.609375 14.179688 " clip-rule="nonzero"/></clipPath><clipPath id="205ce33d6b"><path d="M 41.625 15.375 C 42.976562 33.675781 40.648438 49.199219 39.824219 54.148438 C 39.523438 56.023438 39.601562 57.300781 39.074219 57.898438 C 38.773438 58.199219 38.25 58.351562 37.875 58.199219 C 37.5 58.125 37.050781 57.75 36.824219 57.148438 C 36.375 55.800781 37.050781 51.824219 37.574219 49.199219 C 38.101562 46.5 39.148438 43.199219 39.976562 41.101562 C 40.574219 39.75 41.023438 38.699219 41.773438 37.949219 C 42.375 37.351562 43.125 36.824219 43.875 36.824219 C 44.550781 36.75 45.601562 37.273438 46.125 37.800781 C 46.726562 38.324219 46.875 39 47.175781 40.125 C 48.074219 43.125 50.175781 54.074219 49.574219 56.398438 C 49.351562 57.148438 48.976562 57.523438 48.601562 57.675781 C 48.300781 57.824219 47.699219 57.675781 47.398438 57.449219 C 47.101562 57.148438 46.949219 56.25 47.101562 55.875 C 47.175781 55.5 47.699219 55.199219 48.074219 55.125 C 48.375 55.050781 48.976562 55.199219 49.199219 55.5 C 49.5 55.800781 49.574219 56.699219 49.351562 57.074219 C 49.199219 57.449219 48.675781 57.75 48.300781 57.75 C 47.925781 57.75 47.398438 57.449219 47.023438 56.851562 C 45.675781 54.75 45.601562 39.75 44.324219 39.449219 C 43.726562 39.375 42.898438 41.25 42.375 42.449219 C 41.550781 44.101562 40.875 46.273438 40.425781 48.523438 C 39.898438 51.148438 40.199219 55.949219 39.375 57.375 C 39.074219 57.898438 38.625 58.273438 38.25 58.273438 C 37.800781 58.273438 37.199219 57.898438 36.824219 57.148438 C 35.550781 54 40.351562 34.574219 40.425781 26.925781 C 40.5 22.125 38.625 17.175781 39.375 15.375 C 39.601562 14.699219 40.273438 14.25 40.648438 14.25 C 41.023438 14.25 41.625 15.375 41.625 15.375 " clip-rule="nonzero"/></clipPath><clipPath id="040646d3eb"><path d="M 50.523438 29.492188 L 67.8125 29.492188 L 67.8125 56.46875 L 50.523438 56.46875 Z M 50.523438 29.492188 " clip-rule="nonzero"/></clipPath><clipPath id="6e005a0ea5"><path d="M 51.976562 35.324219 C 60.148438 35.851562 62.324219 34.199219 62.324219 33.523438 C 62.25 33 60.898438 32.550781 60.148438 32.398438 C 59.476562 32.175781 58.574219 31.949219 57.824219 32.324219 C 56.773438 32.851562 55.273438 34.351562 54.824219 36.074219 C 54.074219 38.851562 55.726562 45.300781 56.699219 48.074219 C 57.226562 49.648438 57.824219 50.773438 58.574219 51.675781 C 59.175781 52.351562 59.773438 52.949219 60.523438 53.324219 C 61.199219 53.625 62.175781 53.699219 62.851562 53.773438 C 63.300781 53.773438 63.675781 53.925781 64.050781 53.773438 C 64.726562 53.398438 65.324219 50.851562 66 50.699219 C 66.601562 50.550781 67.574219 51.148438 67.726562 51.601562 C 67.875 51.898438 67.726562 52.5 67.5 52.800781 C 67.273438 53.101562 66.675781 53.324219 66.300781 53.25 C 66 53.25 65.476562 52.875 65.324219 52.574219 C 65.101562 52.273438 65.101562 51.601562 65.25 51.300781 C 65.476562 50.925781 66.300781 50.550781 66.75 50.625 C 67.125 50.699219 67.726562 51.300781 67.800781 51.824219 C 67.875 52.800781 66.523438 55.199219 65.398438 55.949219 C 64.351562 56.625 62.625 56.476562 61.351562 56.324219 C 60.148438 56.101562 58.875 55.574219 57.824219 54.75 C 56.625 53.699219 55.351562 51.898438 54.601562 50.25 C 53.925781 48.675781 53.625 46.726562 53.625 45.148438 C 53.625 43.800781 54.601562 41.550781 54.449219 41.476562 C 54.300781 41.398438 53.851562 42.601562 53.625 42.523438 C 53.25 42.523438 52.875 41.25 52.574219 40.351562 C 52.273438 39.074219 51.898438 36.976562 52.199219 35.550781 C 52.425781 34.273438 53.175781 33.074219 53.925781 32.101562 C 54.75 31.125 55.800781 30.148438 57 29.773438 C 58.425781 29.324219 60.75 29.625 62.101562 30.226562 C 63.300781 30.675781 64.800781 31.648438 65.101562 32.625 C 65.324219 33.601562 64.574219 35.101562 63.824219 36.074219 C 62.851562 37.199219 61.199219 38.476562 59.398438 38.773438 C 57.148438 39.226562 52.425781 38.398438 51.226562 37.5 C 50.773438 37.125 50.550781 36.449219 50.625 36.074219 C 50.773438 35.699219 51.976562 35.324219 51.976562 35.324219 " clip-rule="nonzero"/></clipPath><clipPath id="1a05ae0552"><path d="M 71.890625 30.878906 L 99.472656 30.878906 L 99.472656 58.199219 L 71.890625 58.199219 Z M 71.890625 30.878906 " clip-rule="nonzero"/></clipPath><clipPath id="7088018bd3"><path d="M 75.375 32.023438 C 75.226562 41.925781 74.625 41.773438 74.398438 42.375 C 73.800781 44.175781 75.675781 51.75 75.375 54.226562 C 75.300781 55.425781 75.148438 56.476562 74.625 56.851562 C 74.175781 57.148438 73.273438 57.226562 72.898438 56.773438 C 71.851562 55.726562 72.449219 49.5 72.824219 46.273438 C 73.199219 43.425781 73.800781 40.800781 74.699219 38.476562 C 75.523438 36.449219 76.574219 34.199219 77.851562 32.925781 C 78.75 32.101562 79.875 31.425781 80.851562 31.351562 C 81.675781 31.199219 82.5 31.5 83.175781 32.023438 C 84.074219 32.625 84.898438 33.976562 85.351562 35.324219 C 85.875 37.050781 86.175781 41.324219 85.425781 41.925781 C 84.976562 42.226562 83.476562 41.851562 83.25 41.324219 C 82.800781 40.273438 86.550781 34.800781 87.898438 33.976562 C 88.425781 33.675781 89.023438 33.601562 89.398438 33.824219 C 89.773438 34.050781 90.074219 35.398438 90 35.476562 C 89.925781 35.476562 89.023438 34.648438 89.023438 34.199219 C 89.101562 33.675781 90 32.851562 90.75 32.550781 C 91.726562 32.175781 93.675781 32.25 94.5 32.625 C 95.023438 32.773438 95.324219 33.148438 95.550781 33.601562 C 96 34.199219 96.300781 35.023438 96.375 36.074219 C 96.601562 37.949219 95.476562 41.023438 95.398438 43.949219 C 95.25 47.625 96.976562 55.949219 96.300781 56.324219 C 96.074219 56.476562 95.324219 55.949219 95.324219 55.574219 C 95.25 54.976562 96.976562 52.949219 97.726562 52.726562 C 98.25 52.648438 99 52.949219 99.226562 53.324219 C 99.449219 53.699219 99.300781 54.601562 99.074219 54.898438 C 98.851562 55.199219 98.25 55.425781 97.875 55.351562 C 97.5 55.273438 96.976562 54.976562 96.898438 54.601562 C 96.75 54.148438 97.199219 53.023438 97.574219 52.800781 C 97.949219 52.648438 98.550781 52.726562 98.851562 52.949219 C 99.148438 53.175781 99.449219 53.550781 99.449219 54 C 99.300781 54.976562 97.351562 57.824219 96.226562 58.125 C 95.476562 58.351562 94.425781 58.050781 93.824219 57.300781 C 92.699219 55.875 92.851562 51.226562 92.773438 47.851562 C 92.699219 44.101562 94.800781 37.351562 93.675781 35.773438 C 93.148438 35.101562 92.023438 35.023438 91.273438 35.175781 C 90.601562 35.324219 89.925781 36.601562 89.25 36.675781 C 88.800781 36.75 88.273438 36.601562 87.976562 36.226562 C 87.675781 35.851562 87.523438 34.351562 87.898438 33.976562 C 88.199219 33.675781 89.25 33.75 89.625 33.976562 C 89.925781 34.273438 90.074219 34.800781 90 35.476562 C 89.699219 37.050781 86.398438 42.449219 85.125 43.273438 C 84.601562 43.648438 84.074219 43.648438 83.699219 43.5 C 83.25 43.273438 82.875 42.675781 82.726562 42 C 82.425781 40.875 83.398438 38.550781 83.023438 37.125 C 82.800781 35.925781 81.976562 34.273438 81.300781 33.976562 C 81 33.824219 80.625 34.050781 80.175781 34.351562 C 79.425781 34.875 78.226562 36.824219 77.550781 38.476562 C 76.574219 40.574219 75.898438 43.425781 75.449219 46.125 C 75 49.199219 75.75 54.449219 75.074219 56.023438 C 74.851562 56.625 74.476562 57 74.023438 57.148438 C 73.726562 57.226562 73.199219 57.226562 72.898438 56.773438 C 71.699219 55.351562 71.699219 43.199219 72.300781 41.101562 C 72.449219 40.425781 72.824219 40.574219 73.050781 39.976562 C 73.425781 38.550781 72.523438 33.449219 73.125 32.023438 C 73.351562 31.425781 73.726562 30.898438 74.101562 30.898438 C 74.476562 30.824219 75.375 32.023438 75.375 32.023438 " clip-rule="nonzero"/></clipPath><clipPath id="5eb44df8e0"><path d="M 103.679688 33.027344 L 122.875 33.027344 L 122.875 58.128906 L 103.679688 58.128906 Z M 103.679688 33.027344 " clip-rule="nonzero"/></clipPath><clipPath id="8965e45ee1"><path d="M 109.648438 35.476562 C 107.699219 36.300781 107.699219 36.601562 107.476562 37.125 C 107.101562 38.324219 106.351562 41.101562 106.273438 43.574219 C 106.199219 46.726562 106.425781 53.398438 107.699219 54.601562 C 108.300781 55.199219 109.273438 55.125 109.949219 54.824219 C 110.625 54.601562 111.074219 53.550781 111.523438 52.875 C 111.976562 52.125 112.273438 51.523438 112.5 50.625 C 112.800781 49.351562 112.050781 46.425781 112.648438 45.75 C 113.023438 45.300781 114 45.226562 114.375 45.449219 C 114.75 45.675781 114.976562 46.800781 114.824219 47.175781 C 114.675781 47.550781 113.925781 47.925781 113.550781 47.925781 C 113.101562 47.851562 112.726562 47.550781 112.351562 46.949219 C 111.449219 45.226562 110.625 36.148438 111.300781 34.199219 C 111.601562 33.523438 111.976562 33.074219 112.5 33.074219 C 113.398438 33.148438 115.273438 35.101562 116.25 37.125 C 117.898438 40.648438 117.824219 51.523438 118.574219 53.773438 C 118.800781 54.375 118.875 54.824219 119.175781 54.898438 C 119.625 55.050781 120.75 53.925781 121.351562 53.851562 C 121.800781 53.851562 122.25 53.925781 122.476562 54.226562 C 122.773438 54.523438 122.925781 55.425781 122.699219 55.726562 C 122.476562 56.101562 121.648438 56.398438 121.273438 56.324219 C 120.898438 56.324219 120.449219 55.875 120.375 55.574219 C 120.226562 55.125 120.523438 54.300781 120.824219 54.074219 C 121.125 53.851562 121.726562 53.773438 122.023438 53.925781 C 122.398438 54.074219 122.925781 54.75 122.851562 55.199219 C 122.699219 55.949219 120.75 57.523438 119.699219 57.523438 C 118.648438 57.601562 117.449219 56.476562 116.699219 55.726562 C 116.101562 54.976562 115.875 54.300781 115.574219 52.949219 C 114.75 50.023438 115.125 41.023438 113.851562 37.875 C 113.25 36.226562 111.375 35.398438 111.300781 34.5 C 111.300781 33.976562 111.824219 33.226562 112.199219 33.148438 C 112.574219 33.074219 113.324219 33.449219 113.773438 34.125 C 114.75 35.699219 114.898438 42 114.898438 44.398438 C 114.976562 45.75 115.125 46.949219 114.675781 47.476562 C 114.375 47.851562 113.625 48 113.25 47.851562 C 112.875 47.773438 112.425781 47.324219 112.351562 46.949219 C 112.273438 46.5 112.726562 45.523438 113.175781 45.375 C 113.550781 45.226562 114.449219 45.449219 114.824219 45.898438 C 115.425781 46.726562 115.5 49.125 115.199219 50.699219 C 114.898438 52.425781 113.851562 54.375 112.875 55.648438 C 111.976562 56.699219 110.925781 57.675781 109.875 57.976562 C 109.050781 58.199219 108.074219 57.976562 107.324219 57.601562 C 106.425781 57.074219 105.449219 56.175781 104.851562 54.824219 C 103.875 52.648438 103.574219 48.148438 103.726562 44.851562 C 103.875 41.550781 104.699219 36.75 105.824219 34.949219 C 106.351562 34.050781 107.101562 33.675781 107.773438 33.375 C 108.449219 33.148438 109.351562 33 109.875 33.226562 C 110.25 33.449219 110.773438 34.050781 110.773438 34.425781 C 110.699219 34.800781 109.648438 35.476562 109.648438 35.476562 " clip-rule="nonzero"/></clipPath><clipPath id="19e28775f6"><path d="M 124.824219 32.460938 L 137.113281 32.460938 L 137.113281 57.941406 L 124.824219 57.941406 Z M 124.824219 32.460938 " clip-rule="nonzero"/></clipPath><clipPath id="f8d65272b1"><path d="M 127.574219 33.449219 C 127.800781 47.550781 127.425781 47.851562 127.050781 47.851562 C 126.675781 47.925781 125.699219 47.324219 125.773438 47.25 C 125.773438 47.175781 127.199219 47.101562 127.574219 47.398438 C 127.949219 47.625 128.101562 48 128.324219 48.601562 C 128.773438 49.949219 129.226562 54.375 129 55.875 C 128.925781 56.550781 128.773438 57.074219 128.398438 57.300781 C 128.101562 57.523438 127.273438 57.675781 126.898438 57.300781 C 126 56.398438 126.300781 50.625 126.449219 47.476562 C 126.601562 44.699219 126.75 40.574219 127.648438 39.449219 C 128.101562 38.851562 128.851562 38.625 129.226562 38.773438 C 129.675781 38.925781 130.050781 40.273438 130.050781 40.273438 C 130.125 40.273438 130.050781 39.375 129.75 39.148438 C 129.449219 38.925781 128.398438 39.300781 128.25 39.074219 C 128.101562 38.773438 128.476562 38.25 128.699219 37.726562 C 129.074219 36.898438 129.75 35.476562 130.5 34.726562 C 131.023438 34.125 131.773438 33.523438 132.449219 33.523438 C 133.199219 33.523438 134.023438 34.125 134.625 34.800781 C 135.300781 35.550781 135.75 36.675781 136.050781 38.25 C 136.574219 40.875 135.601562 46.273438 135.898438 49.574219 C 136.050781 52.199219 137.476562 55.199219 137.023438 56.550781 C 136.800781 57.300781 136.125 57.898438 135.675781 57.898438 C 135.226562 57.824219 134.476562 56.851562 134.476562 56.476562 C 134.476562 56.101562 134.851562 55.574219 135.148438 55.425781 C 135.449219 55.273438 136.050781 55.199219 136.351562 55.425781 C 136.726562 55.726562 137.023438 56.851562 136.875 57.226562 C 136.648438 57.601562 135.824219 57.898438 135.375 57.824219 C 135.074219 57.75 134.773438 57.449219 134.550781 57 C 133.875 55.800781 133.5 52.351562 133.273438 49.648438 C 133.050781 46.351562 133.875 41.023438 133.425781 38.773438 C 133.273438 37.648438 132.976562 36.449219 132.523438 36.375 C 131.925781 36.375 131.023438 39.976562 130.050781 40.574219 C 129.449219 41.023438 128.324219 41.101562 127.875 40.875 C 127.574219 40.648438 127.425781 40.050781 127.574219 39.75 C 127.648438 39.300781 128.476562 38.625 128.925781 38.699219 C 129.375 38.773438 129.824219 39.226562 130.125 39.976562 C 130.949219 42.300781 129.824219 54.449219 128.925781 56.550781 C 128.699219 57.074219 128.476562 57.300781 128.175781 57.449219 C 127.800781 57.601562 127.273438 57.601562 126.898438 57.300781 C 125.925781 56.324219 125.324219 48.75 125.550781 47.101562 C 125.625 46.5 125.773438 46.050781 126.074219 45.898438 C 126.449219 45.75 128.023438 46.273438 128.101562 46.648438 C 128.175781 46.949219 127.425781 47.851562 127.050781 47.851562 C 126.601562 47.925781 125.925781 47.398438 125.550781 46.726562 C 124.648438 44.773438 124.648438 35.699219 125.324219 33.675781 C 125.550781 33 125.851562 32.476562 126.226562 32.476562 C 126.601562 32.398438 127.574219 33.449219 127.574219 33.449219 " clip-rule="nonzero"/></clipPath><clipPath id="d7519e7112"><path d="M 137 30.875 L 146.050781 30.875 L 146.050781 42.941406 L 137 42.941406 Z M 137 30.875 " clip-rule="nonzero"/></clipPath><clipPath id="ce8a6e8ed5"><path d="M 139.125 31.273438 C 146.101562 41.625 145.949219 42.375 145.648438 42.675781 C 145.425781 42.898438 144.824219 42.976562 144.449219 42.824219 C 144.074219 42.601562 143.625 41.925781 143.699219 41.476562 C 143.699219 41.101562 144.300781 40.5 144.675781 40.351562 C 145.050781 40.273438 145.648438 40.5 145.800781 40.726562 C 146.101562 41.101562 146.101562 42.300781 145.726562 42.601562 C 145.425781 42.824219 144.601562 42.824219 143.925781 42.375 C 142.199219 41.398438 137.550781 34.351562 137.101562 32.476562 C 136.949219 31.800781 137.101562 31.199219 137.398438 30.976562 C 137.699219 30.75 139.125 31.273438 139.125 31.273438 " clip-rule="nonzero"/></clipPath><clipPath id="5946dc06a4"><path d="M 139.464844 31.613281 L 149.96875 31.613281 L 149.96875 56.621094 L 139.464844 56.621094 Z M 139.464844 31.613281 " clip-rule="nonzero"/></clipPath><clipPath id="663abeb932"><path d="M 149.925781 32.851562 C 149.023438 39.675781 147.523438 45.148438 146.625 46.648438 C 146.324219 47.175781 146.175781 47.476562 145.800781 47.625 C 145.425781 47.699219 144.675781 47.476562 144.375 47.175781 C 144.148438 46.949219 144 46.425781 144.074219 46.125 C 144.148438 45.75 144.675781 45.148438 145.050781 45.148438 C 145.5 45.074219 146.25 45.375 146.476562 45.976562 C 146.925781 47.101562 145.648438 51.148438 144.601562 52.949219 C 143.773438 54.449219 142.273438 56.023438 141.449219 56.398438 C 141 56.625 140.550781 56.625 140.25 56.476562 C 139.875 56.25 139.574219 55.199219 139.5 55.199219 C 139.5 55.199219 139.648438 55.875 139.648438 55.875 C 139.726562 55.875 139.648438 54.675781 139.949219 54.375 C 140.25 54.074219 141.148438 54.074219 141.449219 54.226562 C 141.824219 54.375 142.125 54.898438 142.050781 55.273438 C 142.050781 55.648438 141.601562 56.476562 141.226562 56.550781 C 140.773438 56.625 139.5 55.648438 139.5 55.199219 C 139.574219 54.824219 141 54 141.375 54.148438 C 141.75 54.300781 142.125 55.648438 141.898438 56.023438 C 141.675781 56.398438 140.625 56.625 140.25 56.476562 C 139.875 56.25 139.5 55.425781 139.574219 54.898438 C 139.726562 54.074219 141.523438 53.324219 142.273438 52.050781 C 143.175781 50.476562 143.398438 46.5 144.300781 45.601562 C 144.75 45.148438 145.273438 45.074219 145.648438 45.148438 C 146.023438 45.226562 146.476562 45.976562 146.476562 45.976562 C 146.476562 45.976562 145.800781 45.226562 145.425781 45.148438 C 145.050781 45.148438 144.449219 46.050781 144.300781 45.898438 C 143.773438 45.523438 146.699219 39.074219 147.226562 36.601562 C 147.601562 35.023438 147.226562 33.300781 147.675781 32.550781 C 147.976562 32.023438 148.574219 31.648438 148.949219 31.648438 C 149.324219 31.726562 149.925781 32.851562 149.925781 32.851562 " clip-rule="nonzero"/></clipPath></defs><g clip-path="url(#c32a6b5601)"><g clip-path="url(#9480b92141)"><path fill="#69d2e7" d="M 1.800781 20.699219 L 14.101562 20.699219 L 14.101562 61.636719 L 1.800781 61.636719 Z M 1.800781 20.699219 " fill-opacity="1" fill-rule="nonzero"/></g></g><g clip-path="url(#50bf8247a7)"><g clip-path="url(#fbf731f400)"><path fill="#69d2e7" d="M 8.550781 21.601562 L 22.5 21.601562 L 22.5 61.214844 L 8.550781 61.214844 Z M 8.550781 21.601562 " fill-opacity="1" fill-rule="nonzero"/></g></g><g clip-path="url(#ab0c284368)"><g clip-path="url(#9990c526ae)"><path fill="#69d2e7" d="M -0.824219 29.175781 L 27.019531 29.175781 L 27.019531 39.074219 L -0.824219 39.074219 Z M -0.824219 29.175781 " fill-opacity="1" fill-rule="nonzero"/></g></g><g clip-path="url(#9ddd187da0)"><g clip-path="url(#5ea2693168)"><path fill="#69d2e7" d="M -0.898438 40.125 L 25.875 40.125 L 25.875 48.523438 L -0.898438 48.523438 Z M -0.898438 40.125 " fill-opacity="1" fill-rule="nonzero"/></g></g><g clip-path="url(#ae72f35459)"><g clip-path="url(#0e3f59683f)"><path fill="#69d2e7" d="M 23.101562 10.726562 L 36.449219 10.726562 L 36.449219 59.484375 L 23.101562 59.484375 Z M 23.101562 10.726562 " fill-opacity="1" fill-rule="nonzero"/></g></g><g clip-path="url(#c53bdb2457)"><g clip-path="url(#d169576bc9)"><path fill="#69d2e7" d="M 21.75 19.949219 L 40.195312 19.949219 L 40.195312 29.851562 L 21.75 29.851562 Z M 21.75 19.949219 " fill-opacity="1" fill-rule="nonzero"/></g></g><g clip-path="url(#2e8c6c64dd)"><g clip-path="url(#205ce33d6b)"><path fill="#69d2e7" d="M 33.824219 11.25 L 52.574219 11.25 L 52.574219 61.273438 L 33.824219 61.273438 Z M 33.824219 11.25 " fill-opacity="1" fill-rule="nonzero"/></g></g><g clip-path="url(#040646d3eb)"><g clip-path="url(#6e005a0ea5)"><path fill="#69d2e7" d="M 47.625 26.773438 L 70.800781 26.773438 L 70.800781 59.363281 L 47.625 59.363281 Z M 47.625 26.773438 " fill-opacity="1" fill-rule="nonzero"/></g></g><g clip-path="url(#1a05ae0552)"><g clip-path="url(#7088018bd3)"><path fill="#69d2e7" d="M 69.300781 27.898438 L 102.449219 27.898438 L 102.449219 61.179688 L 69.300781 61.179688 Z M 69.300781 27.898438 " fill-opacity="1" fill-rule="nonzero"/></g></g><g clip-path="url(#5eb44df8e0)"><g clip-path="url(#8965e45ee1)"><path fill="#69d2e7" d="M 100.726562 30.074219 L 125.925781 30.074219 L 125.925781 60.984375 L 100.726562 60.984375 Z M 100.726562 30.074219 " fill-opacity="1" fill-rule="nonzero"/></g></g><g clip-path="url(#19e28775f6)"><g clip-path="url(#f8d65272b1)"><path fill="#69d2e7" d="M 122.324219 29.476562 L 140.101562 29.476562 L 140.101562 60.929688 L 122.324219 60.929688 Z M 122.324219 29.476562 " fill-opacity="1" fill-rule="nonzero"/></g></g><g clip-path="url(#d7519e7112)"><g clip-path="url(#ce8a6e8ed5)"><path fill="#69d2e7" d="M 134.101562 27.976562 L 148.949219 27.976562 L 148.949219 45.839844 L 134.101562 45.839844 Z M 134.101562 27.976562 " fill-opacity="1" fill-rule="nonzero"/></g></g><g clip-path="url(#5946dc06a4)"><g clip-path="url(#663abeb932)"><path fill="#69d2e7" d="M 136.5 28.648438 L 153 28.648438 L 153 59.523438 L 136.5 59.523438 Z M 136.5 28.648438 " fill-opacity="1" fill-rule="nonzero"/></g></g></svg>