<svg xmlns="http://www.w3.org/2000/svg" xmlns:xlink="http://www.w3.org/1999/xlink" width="600" zoomAndPan="magnify" viewBox="0 0 450 149.999998" height="200" preserveAspectRatio="xMidYMid meet" version="1.0"><defs><clipPath id="1badf0893b"><path d="M 75.960938 33.71875 L 86.234375 33.71875 L 86.234375 106.417969 L 75.960938 106.417969 Z M 75.960938 33.71875 " clip-rule="nonzero"/></clipPath><clipPath id="4debd7f345"><path d="M 85.84375 36.867188 C 82.292969 96.300781 82.414062 97.648438 83.210938 99.054688 C 83.820312 100.15625 85.230469 100.648438 85.71875 101.441406 C 86.085938 102.117188 86.269531 102.789062 86.148438 103.460938 C 86.027344 104.257812 85.230469 105.480469 84.554688 105.910156 C 84.003906 106.339844 83.210938 106.402344 82.597656 106.339844 C 81.925781 106.21875 81.191406 105.910156 80.761719 105.421875 C 80.210938 104.808594 79.78125 103.402344 79.90625 102.542969 C 79.964844 101.871094 80.457031 101.257812 80.882812 100.832031 C 81.375 100.402344 82.109375 100.035156 82.78125 100.035156 C 83.394531 99.972656 84.1875 100.15625 84.738281 100.523438 C 85.292969 100.832031 85.84375 101.441406 86.027344 102.117188 C 86.210938 102.851562 86.085938 104.320312 85.597656 105.054688 C 85.046875 105.726562 83.882812 106.339844 82.902344 106.339844 C 81.863281 106.339844 80.578125 105.542969 79.597656 104.5625 C 78.375 103.402344 77.332031 101.320312 76.722656 99.484375 C 76.109375 97.648438 76.046875 96.484375 75.988281 93.425781 C 75.742188 84.058594 78.621094 41.949219 80.210938 36.253906 C 80.457031 35.214844 80.640625 34.910156 81.066406 34.480469 C 81.558594 34.050781 82.351562 33.746094 82.964844 33.746094 C 83.578125 33.683594 84.371094 33.929688 84.863281 34.417969 C 85.414062 34.910156 85.84375 36.867188 85.84375 36.867188 " clip-rule="nonzero"/></clipPath><clipPath id="6db007f31c"><path d="M 78.210938 15.582031 L 91.996094 15.582031 L 91.996094 27.546875 L 78.210938 27.546875 Z M 78.210938 15.582031 " clip-rule="nonzero"/></clipPath><clipPath id="850d2e96cb"><path d="M 78.253906 22.359375 C 79.292969 17.894531 80.273438 17.035156 81.128906 16.484375 C 81.925781 16.054688 82.84375 15.8125 83.761719 15.6875 C 84.800781 15.566406 85.964844 15.628906 87.003906 15.996094 C 88.105469 16.363281 89.574219 17.15625 90.1875 18.078125 C 90.738281 18.933594 90.308594 20.339844 90.675781 21.136719 C 90.921875 21.75 91.65625 21.933594 91.839844 22.542969 C 92.085938 23.402344 91.902344 25.175781 91.351562 25.972656 C 90.800781 26.769531 89.453125 27.195312 88.535156 27.441406 C 87.617188 27.625 86.636719 27.441406 85.71875 27.320312 C 84.800781 27.195312 83.820312 27.074219 82.902344 26.769531 C 81.925781 26.402344 80.761719 26.035156 80.027344 25.300781 C 79.230469 24.5625 78.253906 22.359375 78.253906 22.359375 " clip-rule="nonzero"/></clipPath><clipPath id="b3ddf74630"><path d="M 99.824219 10.449219 L 123.046875 10.449219 L 123.046875 107.8125 L 99.824219 107.8125 Z M 99.824219 10.449219 " clip-rule="nonzero"/></clipPath><clipPath id="ea3536c2c0"><path d="M 109.589844 13.792969 C 105.367188 46.046875 106.898438 53.699219 106.347656 55.230469 C 106.222656 55.535156 105.917969 55.476562 105.855469 55.71875 C 105.734375 56.269531 107.019531 57.496094 106.957031 58.351562 C 106.898438 59.207031 106.039062 60.308594 105.488281 60.800781 C 105.0625 61.105469 104.570312 61.226562 104.082031 61.226562 C 103.410156 61.167969 102.125 61.042969 102 60.492188 C 101.757812 59.699219 105 55.660156 105.855469 55.71875 C 106.347656 55.78125 106.835938 56.945312 106.957031 57.617188 C 107.082031 58.289062 106.898438 59.207031 106.53125 59.757812 C 106.164062 60.308594 105.488281 60.921875 104.753906 61.105469 C 103.960938 61.226562 102 60.859375 102 60.492188 C 101.941406 60.066406 106.039062 57.679688 106.957031 58.289062 C 108.304688 59.148438 106.714844 65.636719 106.957031 68.632812 C 107.140625 70.898438 108.0625 72.980469 107.9375 74.632812 C 107.816406 75.796875 107.203125 76.164062 107.019531 77.570312 C 106.589844 80.449219 106.53125 87.363281 107.265625 91.34375 C 107.816406 94.648438 108.796875 98.503906 110.203125 99.972656 C 110.9375 100.832031 111.792969 101.136719 112.894531 101.136719 C 114.734375 101.136719 118.527344 97.890625 120.117188 97.953125 C 120.976562 97.953125 121.585938 98.320312 122.015625 98.8125 C 122.628906 99.421875 123.058594 100.890625 122.996094 101.75 C 122.933594 102.421875 122.507812 103.09375 122.015625 103.585938 C 121.527344 104.011719 120.792969 104.441406 120.117188 104.441406 C 119.261719 104.441406 117.855469 103.953125 117.242188 103.277344 C 116.691406 102.605469 116.386719 101.136719 116.628906 100.28125 C 116.875 99.421875 117.976562 98.382812 118.773438 98.074219 C 119.382812 97.769531 120.179688 97.890625 120.851562 98.074219 C 121.464844 98.320312 122.140625 98.75 122.507812 99.363281 C 122.933594 100.097656 123.058594 101.625 122.8125 102.421875 C 122.566406 103.09375 122.078125 103.460938 121.464844 104.011719 C 120.363281 104.871094 118.222656 106.15625 116.753906 106.769531 C 115.527344 107.320312 114.546875 107.746094 113.203125 107.746094 C 111.550781 107.808594 109.222656 107.378906 107.632812 106.460938 C 105.980469 105.421875 104.570312 103.707031 103.53125 101.6875 C 102.308594 99.363281 101.574219 96.363281 101.207031 92.875 C 100.59375 87.976562 100.53125 78.246094 101.757812 75 C 102.246094 73.59375 104.019531 72.492188 103.960938 72.367188 C 103.898438 72.308594 102.0625 74.695312 101.449219 74.386719 C 100.105469 73.777344 99.0625 60.921875 100.839844 58.046875 C 101.816406 56.394531 104.878906 55.476562 105.855469 55.71875 C 106.347656 55.84375 106.53125 56.394531 106.714844 56.882812 C 106.957031 57.496094 107.019531 58.414062 106.835938 59.085938 C 106.589844 59.757812 105.980469 60.433594 105.488281 60.800781 C 105.0625 61.042969 104.570312 61.226562 104.019531 61.226562 C 103.410156 61.167969 102.125 60.984375 102 60.492188 C 101.757812 59.699219 105 55.597656 105.855469 55.71875 C 106.40625 55.84375 107.019531 57.554688 106.957031 58.351562 C 106.957031 59.085938 106.53125 59.882812 106.039062 60.308594 C 105.550781 60.800781 104.753906 61.167969 104.082031 61.226562 C 103.347656 61.226562 102.550781 60.921875 102 60.492188 C 101.449219 60.125 101.144531 59.636719 100.839844 58.902344 C 100.289062 57.617188 100.164062 55.535156 99.980469 53.210938 C 99.796875 49.597656 99.859375 44.519531 100.347656 39.070312 C 100.960938 31.542969 102.675781 15.382812 104.328125 12.140625 C 104.753906 11.222656 105.183594 10.976562 105.734375 10.730469 C 106.285156 10.488281 107.082031 10.425781 107.695312 10.609375 C 108.304688 10.792969 108.917969 11.34375 109.222656 11.832031 C 109.53125 12.382812 109.589844 13.792969 109.589844 13.792969 " clip-rule="nonzero"/></clipPath><clipPath id="a9a98f7bf5"><path d="M 91.863281 30.097656 L 121.820312 30.097656 L 121.820312 41.671875 L 91.863281 41.671875 Z M 91.863281 30.097656 " clip-rule="nonzero"/></clipPath><clipPath id="fe54f946bf"><path d="M 94.65625 32.523438 C 111.304688 32.949219 112.527344 33.316406 113.078125 34.113281 C 113.570312 34.785156 113.691406 36.070312 113.386719 36.867188 C 113.019531 37.722656 111.917969 38.703125 110.753906 39.070312 C 109.285156 39.621094 107.140625 39.375 105 38.949219 C 102.125 38.398438 96.429688 36.5625 95.085938 35.398438 C 94.59375 34.96875 94.472656 34.601562 94.351562 34.113281 C 94.226562 33.5 94.167969 32.582031 94.535156 31.96875 C 94.902344 31.296875 95.820312 30.5625 96.796875 30.257812 C 97.960938 29.949219 99.308594 30.378906 101.328125 30.746094 C 105.429688 31.480469 116.9375 33.929688 119.8125 35.765625 C 120.976562 36.4375 121.464844 37.113281 121.710938 37.90625 C 121.894531 38.519531 121.769531 39.253906 121.527344 39.804688 C 121.28125 40.355469 120.792969 40.96875 120.242188 41.273438 C 119.691406 41.519531 118.894531 41.703125 118.34375 41.582031 C 117.730469 41.519531 116.996094 41.214844 116.570312 40.722656 C 116.078125 40.113281 115.589844 38.824219 115.773438 37.96875 C 115.957031 37.171875 116.875 36.132812 117.609375 35.765625 C 118.160156 35.460938 118.957031 35.460938 119.507812 35.644531 C 120.117188 35.765625 120.792969 36.132812 121.160156 36.683594 C 121.585938 37.355469 121.832031 38.765625 121.648438 39.5 C 121.527344 40.171875 121.035156 40.722656 120.484375 41.089844 C 119.996094 41.457031 119.628906 41.582031 118.648438 41.640625 C 115.222656 41.703125 98.265625 37.355469 95.636719 35.828125 C 95.023438 35.460938 94.839844 35.277344 94.65625 34.785156 C 94.351562 34.234375 94.167969 33.316406 94.289062 32.644531 C 94.410156 32.03125 94.902344 31.234375 95.453125 30.867188 C 96.003906 30.441406 96.613281 30.257812 97.53125 30.257812 C 99.246094 30.316406 103.101562 31.847656 105 32.765625 C 106.285156 33.441406 107.328125 33.992188 108.0625 34.910156 C 108.796875 35.828125 109.898438 37.601562 109.40625 38.335938 C 108.304688 39.929688 95.695312 38.886719 93.371094 37.785156 C 92.511719 37.417969 92.269531 36.929688 92.023438 36.316406 C 91.839844 35.765625 91.839844 34.910156 92.023438 34.359375 C 92.269531 33.746094 92.882812 33.132812 93.371094 32.828125 C 93.738281 32.582031 94.65625 32.523438 94.65625 32.523438 " clip-rule="nonzero"/></clipPath><clipPath id="d8ebd8ebf3"><path d="M 130.890625 24.4375 L 143 24.4375 L 143 44.175781 L 130.890625 44.175781 Z M 130.890625 24.4375 " clip-rule="nonzero"/></clipPath><clipPath id="fb12d51459"><path d="M 131.320312 36.804688 C 134.503906 30.5 136.398438 29.582031 137.441406 29.828125 C 138.238281 30.011719 139.09375 30.992188 139.339844 32.09375 C 139.765625 34.296875 137.625 41.152344 136.398438 42.867188 C 135.847656 43.601562 135.175781 43.84375 134.625 44.027344 C 134.136719 44.152344 133.644531 44.152344 133.15625 43.96875 C 132.542969 43.785156 131.75 43.292969 131.441406 42.742188 C 131.074219 42.132812 130.832031 41.640625 130.953125 40.601562 C 131.257812 37.847656 135.972656 26.953125 137.929688 25.117188 C 138.605469 24.503906 139.15625 24.503906 139.765625 24.503906 C 140.441406 24.503906 141.175781 24.75 141.664062 25.117188 C 142.214844 25.484375 142.644531 26.15625 142.828125 26.707031 C 143.011719 27.320312 143.011719 28.113281 142.765625 28.726562 C 142.398438 29.460938 141.359375 30.441406 140.5 30.625 C 139.707031 30.867188 138.359375 30.378906 137.6875 29.890625 C 137.195312 29.460938 136.828125 28.789062 136.769531 28.113281 C 136.644531 27.503906 136.707031 26.769531 137.074219 26.15625 C 137.503906 25.484375 138.664062 24.6875 139.460938 24.503906 C 140.132812 24.378906 140.867188 24.503906 141.417969 24.933594 C 142.09375 25.359375 142.828125 26.277344 142.949219 27.378906 C 143.132812 29.339844 141.234375 32.949219 140.132812 35.582031 C 139.03125 38.152344 137.625 41.519531 136.398438 42.867188 C 135.789062 43.539062 135.238281 43.90625 134.625 44.027344 C 133.953125 44.152344 133.035156 44.089844 132.484375 43.722656 C 131.808594 43.292969 131.074219 42.4375 130.953125 41.335938 C 130.648438 39.375 132.542969 32.828125 133.585938 32.582031 C 134.136719 32.460938 134.625 34.417969 135.421875 34.664062 C 136.277344 34.96875 138.296875 33.5625 138.664062 34.050781 C 139.15625 34.664062 136.953125 38.519531 136.214844 39.5 C 135.847656 39.988281 135.605469 40.171875 135.175781 40.355469 C 134.625 40.601562 133.769531 40.664062 133.21875 40.539062 C 132.726562 40.480469 132.359375 40.234375 131.992188 39.929688 C 131.625 39.5 131.199219 38.703125 131.136719 38.152344 C 131.074219 37.664062 131.320312 36.804688 131.320312 36.804688 " clip-rule="nonzero"/></clipPath><clipPath id="f134eee61f"><path d="M 129 43.875 L 166.304688 43.875 L 166.304688 99.722656 L 129 99.722656 Z M 129 43.875 " clip-rule="nonzero"/></clipPath><clipPath id="31967d3899"><path d="M 161.800781 55.351562 C 153.660156 50.394531 151.335938 49.964844 149.867188 50.273438 C 148.886719 50.457031 148.089844 50.945312 147.480469 51.800781 C 146.621094 53.085938 146.5625 55.964844 146.378906 57.984375 C 146.195312 59.941406 145.519531 62.332031 146.316406 63.859375 C 147.113281 65.328125 149.191406 65.878906 151.152344 66.980469 C 154.152344 68.574219 161.128906 70.65625 162.597656 72.0625 C 163.148438 72.613281 163.210938 72.917969 163.269531 73.46875 C 163.394531 74.144531 163.269531 75.121094 162.964844 75.734375 C 162.597656 76.410156 161.800781 77.019531 161.191406 77.265625 C 160.699219 77.449219 159.660156 77.511719 159.597656 77.386719 C 159.539062 77.144531 162.292969 75.0625 163.085938 75.367188 C 163.761719 75.613281 163.882812 77.203125 164.25 78.429688 C 164.800781 80.203125 165.71875 82.957031 165.65625 85.101562 C 165.65625 87.058594 165.230469 89.140625 164.25 90.851562 C 163.210938 92.628906 161.3125 94.34375 159.539062 95.445312 C 157.824219 96.484375 155.4375 96.914062 153.785156 97.339844 C 152.558594 97.648438 151.640625 97.953125 150.539062 97.953125 C 149.5 97.890625 148.457031 96.972656 147.539062 97.21875 C 146.5625 97.402344 145.949219 98.871094 145.03125 99.300781 C 144.050781 99.730469 143.132812 99.605469 141.910156 99.667969 C 140.195312 99.730469 137.378906 99.605469 135.726562 99.300781 C 134.5625 99.117188 133.707031 98.871094 132.851562 98.382812 C 132.117188 97.890625 131.503906 97.097656 130.953125 96.238281 C 130.28125 95.261719 129.605469 93.730469 129.363281 92.691406 C 129.175781 91.832031 129.117188 91.039062 129.363281 90.363281 C 129.605469 89.628906 130.28125 88.957031 130.890625 88.589844 C 131.320312 88.28125 131.871094 88.222656 132.421875 88.160156 C 132.910156 88.160156 133.460938 88.28125 133.953125 88.527344 C 134.503906 88.894531 135.359375 89.507812 135.480469 90.300781 C 135.664062 91.34375 134.5625 93.914062 133.707031 94.527344 C 133.15625 94.894531 132.238281 94.832031 131.625 94.648438 C 130.953125 94.464844 130.28125 94.035156 129.851562 93.484375 C 129.421875 92.996094 129.117188 92.261719 129.117188 91.527344 C 129.175781 90.667969 129.789062 89.324219 130.523438 88.773438 C 131.257812 88.28125 132.726562 88.097656 133.585938 88.40625 C 134.441406 88.710938 135.421875 89.8125 135.605469 90.730469 C 135.847656 91.589844 135.480469 92.996094 134.871094 93.667969 C 134.257812 94.34375 132.789062 94.769531 131.992188 94.710938 C 131.257812 94.710938 130.585938 94.21875 130.097656 93.792969 C 129.605469 93.300781 129.238281 92.566406 129.175781 91.894531 C 129.117188 91.160156 129.300781 90.242188 129.730469 89.628906 C 130.097656 89.015625 130.890625 88.40625 131.625 88.28125 C 132.484375 88.097656 133.890625 88.34375 134.5625 89.015625 C 135.421875 89.691406 135.175781 92.015625 135.972656 92.691406 C 136.707031 93.242188 137.5625 93.179688 138.847656 93.179688 C 141.480469 93.179688 147.601562 92.078125 150.96875 91.34375 C 153.355469 90.730469 155.621094 90.300781 157.027344 89.382812 C 157.945312 88.710938 158.617188 87.855469 158.925781 86.9375 C 159.292969 86.019531 159.230469 85.285156 159.109375 84.058594 C 158.863281 81.855469 156.539062 77.019531 156.78125 74.878906 C 156.90625 73.714844 157.515625 72.859375 158.128906 72.183594 C 158.804688 71.574219 159.78125 70.898438 160.578125 70.960938 C 161.433594 71.023438 162.597656 72 163.027344 72.734375 C 163.394531 73.410156 163.515625 74.328125 163.269531 75.0625 C 162.964844 75.855469 162.109375 76.960938 161.191406 77.265625 C 160.148438 77.570312 158.804688 77.082031 157.148438 76.59375 C 154.152344 75.613281 148.03125 72.859375 145.09375 70.839844 C 143.070312 69.492188 141.359375 68.023438 140.5625 66.554688 C 139.949219 65.453125 140.011719 64.59375 139.890625 63.1875 C 139.765625 60.984375 139.949219 57.066406 140.441406 54.496094 C 140.746094 52.292969 141.417969 50.089844 142.03125 48.496094 C 142.519531 47.335938 142.949219 46.414062 143.683594 45.679688 C 144.359375 45.007812 145.277344 44.457031 146.195312 44.152344 C 147.113281 43.90625 148.089844 43.96875 149.253906 44.027344 C 150.96875 44.089844 153.660156 44.335938 155.3125 44.761719 C 156.539062 45.070312 157.210938 45.3125 158.433594 45.988281 C 160.273438 46.96875 163.820312 49.414062 165.046875 50.699219 C 165.65625 51.3125 166.023438 51.742188 166.148438 52.351562 C 166.269531 52.964844 166.148438 53.820312 165.902344 54.375 C 165.71875 54.800781 165.414062 55.109375 164.984375 55.351562 C 164.496094 55.660156 163.636719 55.84375 163.027344 55.84375 C 162.535156 55.78125 161.800781 55.351562 161.800781 55.351562 " clip-rule="nonzero"/></clipPath><clipPath id="158ffcb290"><path d="M 207.277344 17.558594 L 230.8125 17.558594 L 230.8125 106.425781 L 207.277344 106.425781 Z M 207.277344 17.558594 " clip-rule="nonzero"/></clipPath><clipPath id="1405faee83"><path d="M 214.871094 20.21875 C 213.21875 54.679688 213.09375 55.660156 212.300781 56.148438 C 211.503906 56.636719 208.871094 55.597656 208.75 55.78125 C 208.75 55.84375 209.421875 56.332031 209.484375 56.269531 C 209.542969 56.210938 207.953125 54.496094 207.953125 53.636719 C 208.015625 52.902344 208.6875 51.925781 209.300781 51.558594 C 209.851562 51.25 210.648438 51.007812 211.199219 51.25 C 211.992188 51.617188 212.667969 52.78125 213.21875 54.617188 C 214.871094 60.371094 212.421875 86.324219 213.769531 93.242188 C 214.320312 95.933594 214.929688 97.464844 215.910156 98.6875 C 216.582031 99.484375 217.5 100.035156 218.421875 100.21875 C 219.339844 100.464844 220.5 100.402344 221.542969 99.972656 C 222.949219 99.363281 224.480469 96.789062 225.644531 96.117188 C 226.316406 95.6875 226.867188 95.382812 227.539062 95.445312 C 228.398438 95.503906 229.683594 96.179688 230.171875 96.851562 C 230.601562 97.402344 230.785156 98.136719 230.722656 98.8125 C 230.601562 99.605469 229.867188 100.832031 229.191406 101.320312 C 228.640625 101.75 227.847656 101.808594 227.234375 101.75 C 226.5625 101.6875 225.828125 101.441406 225.398438 100.890625 C 224.847656 100.28125 224.296875 98.996094 224.417969 98.136719 C 224.539062 97.21875 225.460938 96.117188 226.253906 95.75 C 226.988281 95.382812 228.457031 95.566406 229.191406 95.933594 C 229.804688 96.238281 230.234375 96.851562 230.476562 97.464844 C 230.722656 98.015625 230.785156 98.75 230.601562 99.484375 C 230.355469 100.585938 229.191406 102.300781 228.273438 103.339844 C 227.539062 104.195312 226.621094 104.808594 225.703125 105.296875 C 224.847656 105.726562 223.988281 105.910156 222.886719 106.09375 C 221.175781 106.277344 218.480469 106.644531 216.582031 106.09375 C 214.746094 105.542969 212.910156 104.320312 211.566406 102.910156 C 210.21875 101.382812 209.300781 99.546875 208.625 97.21875 C 207.648438 94.160156 207.707031 90.363281 207.523438 85.652344 C 207.21875 78.0625 207.769531 60.921875 207.890625 56.148438 C 207.953125 54.679688 207.769531 53.269531 208.015625 53.210938 C 208.320312 53.148438 209.484375 56.269531 209.484375 56.269531 C 209.421875 56.332031 207.953125 54.496094 207.953125 53.636719 C 208.015625 52.902344 208.6875 51.925781 209.300781 51.558594 C 209.910156 51.191406 211.75 51.3125 211.808594 51.496094 C 211.808594 51.679688 209.117188 53.515625 208.320312 52.902344 C 205.871094 51.191406 208.75 24.257812 209.605469 20.21875 C 209.789062 19.238281 209.851562 18.871094 210.277344 18.445312 C 210.648438 18.015625 211.320312 17.648438 211.933594 17.585938 C 212.484375 17.527344 213.21875 17.648438 213.707031 18.015625 C 214.257812 18.445312 214.871094 20.21875 214.871094 20.21875 " clip-rule="nonzero"/></clipPath><clipPath id="b4edb439d3"><path d="M 196.417969 28.148438 L 222.550781 28.148438 L 222.550781 38.792969 L 196.417969 38.792969 Z M 196.417969 28.148438 " clip-rule="nonzero"/></clipPath><clipPath id="8416d0b7f2"><path d="M 199.382812 28.175781 C 212.117188 29.949219 219.03125 31.726562 221.050781 33.011719 C 221.785156 33.5 222.09375 33.929688 222.335938 34.542969 C 222.519531 35.09375 222.582031 35.886719 222.398438 36.5 C 222.214844 37.113281 221.785156 37.785156 221.296875 38.152344 C 220.808594 38.519531 220.074219 38.765625 219.398438 38.765625 C 218.789062 38.765625 218.054688 38.582031 217.5625 38.152344 C 216.949219 37.601562 216.277344 36.316406 216.339844 35.460938 C 216.398438 34.601562 217.132812 33.441406 217.871094 33.011719 C 218.605469 32.582031 220.011719 32.582031 220.746094 32.890625 C 221.359375 33.074219 221.910156 33.683594 222.152344 34.234375 C 222.460938 34.785156 222.582031 35.582031 222.460938 36.195312 C 222.398438 36.804688 222.09375 37.480469 221.542969 37.90625 C 220.929688 38.398438 220.011719 38.703125 218.789062 38.703125 C 215.847656 38.640625 208.625 35.152344 204.710938 34.296875 C 202.078125 33.746094 199.261719 34.175781 197.914062 33.5 C 197.242188 33.074219 196.875 32.460938 196.628906 31.96875 C 196.445312 31.480469 196.386719 31.050781 196.507812 30.5625 C 196.628906 30.011719 196.996094 29.214844 197.488281 28.847656 C 197.976562 28.421875 199.382812 28.175781 199.382812 28.175781 " clip-rule="nonzero"/></clipPath><clipPath id="cad9af5d43"><path d="M 240.253906 46.613281 L 247.359375 46.613281 L 247.359375 104.015625 L 240.253906 104.015625 Z M 240.253906 46.613281 " clip-rule="nonzero"/></clipPath><clipPath id="c39f8e3eb2"><path d="M 246.023438 49.355469 C 246.148438 72.550781 247.1875 76.835938 247.1875 79.714844 C 247.1875 81.425781 247.433594 83.019531 246.699219 83.875 C 246.085938 84.671875 244.25 85.160156 243.394531 84.976562 C 242.78125 84.855469 242.292969 84.183594 241.984375 83.691406 C 241.742188 83.261719 241.679688 82.835938 241.679688 82.34375 C 241.742188 81.792969 242.046875 80.9375 242.414062 80.507812 C 242.71875 80.140625 243.148438 79.898438 243.515625 79.714844 C 243.945312 79.589844 244.433594 79.46875 244.863281 79.589844 C 245.472656 79.714844 246.269531 80.019531 246.636719 80.570312 C 247.125 81.242188 247.125 82.222656 247.1875 83.632812 C 247.3125 86.445312 246.148438 93.484375 246.390625 96.605469 C 246.515625 98.445312 247.433594 99.667969 247.3125 100.890625 C 247.1875 101.871094 246.636719 102.910156 246.023438 103.460938 C 245.535156 103.890625 244.800781 104.011719 244.1875 104.011719 C 243.578125 104.011719 242.84375 103.769531 242.351562 103.339844 C 241.800781 102.789062 241.191406 101.566406 241.25 100.707031 C 241.3125 99.914062 242.109375 98.8125 242.78125 98.320312 C 243.332031 97.953125 244.066406 97.890625 244.679688 98.015625 C 245.289062 98.074219 245.964844 98.382812 246.390625 98.871094 C 246.882812 99.421875 247.371094 100.769531 247.25 101.566406 C 247.066406 102.359375 246.207031 103.460938 245.472656 103.769531 C 244.679688 104.074219 243.394531 104.074219 242.597656 103.523438 C 241.679688 102.851562 240.882812 100.769531 240.578125 99.484375 C 240.273438 98.445312 240.394531 97.832031 240.394531 96.605469 C 240.394531 94.28125 240.148438 88.957031 240.824219 86.8125 C 241.191406 85.589844 242.230469 85.160156 242.351562 84.242188 C 242.535156 83.445312 241.617188 82.40625 241.800781 81.671875 C 241.925781 81.058594 242.476562 80.386719 242.902344 80.019531 C 243.332031 79.773438 243.699219 79.589844 244.1875 79.589844 C 244.863281 79.589844 246.636719 80.632812 246.636719 80.570312 C 246.699219 80.507812 246.148438 79.957031 245.65625 79.898438 C 244.800781 79.773438 242.597656 81.671875 241.742188 81.058594 C 240.394531 80.203125 241.066406 75.121094 240.882812 71.144531 C 240.578125 65.328125 239.78125 52.84375 240.640625 49.355469 C 240.945312 48.191406 241.25 47.578125 241.800781 47.152344 C 242.292969 46.722656 243.085938 46.597656 243.699219 46.660156 C 244.25 46.722656 244.984375 47.089844 245.351562 47.578125 C 245.78125 48.007812 246.023438 49.355469 246.023438 49.355469 " clip-rule="nonzero"/></clipPath><clipPath id="a5e011cb2c"><path d="M 241.078125 32.710938 L 246.410156 32.710938 L 246.410156 38.199219 L 241.078125 38.199219 Z M 241.078125 32.710938 " clip-rule="nonzero"/></clipPath><clipPath id="cc1e819474"><path d="M 246.390625 34.601562 C 245.71875 37.539062 245.289062 37.785156 244.921875 37.90625 C 244.496094 38.089844 244.066406 38.273438 243.636719 38.152344 C 242.964844 38.03125 241.800781 37.480469 241.433594 36.867188 C 241.007812 36.195312 241.066406 34.910156 241.25 34.296875 C 241.433594 33.808594 241.679688 33.5 242.109375 33.257812 C 242.660156 32.890625 243.945312 32.644531 244.617188 32.765625 C 245.046875 32.890625 245.71875 33.5 245.71875 33.5 " clip-rule="nonzero"/></clipPath><clipPath id="880cd5020c"><path d="M 236.269531 29.4375 L 249.359375 29.4375 L 249.359375 41.054688 L 236.269531 41.054688 Z M 236.269531 29.4375 " clip-rule="nonzero"/></clipPath><clipPath id="01cd81b88b"><path d="M 236.292969 36.804688 C 236.722656 32.828125 237.089844 31.601562 237.824219 30.867188 C 238.617188 30.132812 239.964844 29.707031 241.066406 29.523438 C 242.046875 29.398438 243.027344 29.523438 244.003906 29.707031 C 245.046875 29.890625 246.148438 30.011719 246.941406 30.625 C 247.921875 31.296875 249.085938 32.707031 249.269531 33.808594 C 249.453125 34.726562 249.085938 35.828125 248.597656 36.621094 C 247.984375 37.480469 246.332031 38.398438 245.78125 38.582031 C 245.597656 38.640625 245.472656 38.519531 245.414062 38.582031 C 245.351562 38.582031 245.351562 38.640625 245.351562 38.640625 C 245.351562 38.765625 245.289062 38.886719 245.289062 39.007812 C 245.230469 39.070312 245.167969 39.070312 245.167969 39.132812 C 245.167969 39.191406 245.167969 39.253906 245.105469 39.316406 C 245.046875 39.375 244.984375 39.4375 244.863281 39.5625 C 244.800781 39.621094 244.738281 39.746094 244.679688 39.867188 C 244.679688 39.867188 244.617188 39.929688 244.554688 39.929688 C 244.496094 39.988281 244.496094 40.050781 244.433594 40.050781 C 244.371094 40.113281 244.25 40.171875 244.1875 40.234375 C 244.066406 40.296875 243.945312 40.417969 243.882812 40.480469 C 243.820312 40.480469 243.761719 40.480469 243.699219 40.539062 C 243.699219 40.539062 243.636719 40.601562 243.578125 40.601562 C 243.515625 40.664062 243.332031 40.664062 243.269531 40.664062 C 243.148438 40.722656 243.027344 40.785156 242.902344 40.785156 C 242.84375 40.847656 242.78125 40.785156 242.71875 40.847656 C 242.660156 40.847656 242.597656 40.847656 242.597656 40.847656 C 242.535156 40.847656 242.535156 40.847656 242.476562 40.847656 C 242.167969 40.847656 241.066406 41.089844 240.332031 40.96875 C 239.351562 40.785156 237.945312 40.355469 237.273438 39.621094 C 236.597656 38.949219 236.292969 36.804688 236.292969 36.804688 " clip-rule="nonzero"/></clipPath><clipPath id="ab2f6a7a76"><path d="M 264 42.632812 L 324.859375 42.632812 L 324.859375 101.550781 L 264 101.550781 Z M 264 42.632812 " clip-rule="nonzero"/></clipPath><clipPath id="33a82f3e69"><path d="M 270.386719 50.089844 C 270.753906 63.125 272.285156 68.816406 271.917969 71.390625 C 271.734375 72.675781 270.816406 73.164062 270.816406 74.203125 C 270.753906 75.246094 271.550781 76.164062 271.855469 77.632812 C 272.285156 79.835938 272.527344 83.140625 272.710938 86.261719 C 272.835938 89.933594 272.894531 96.179688 272.589844 98.257812 C 272.527344 98.996094 272.527344 99.300781 272.222656 99.789062 C 271.917969 100.339844 271.242188 101.074219 270.507812 101.320312 C 269.714844 101.566406 268.242188 101.441406 267.507812 100.953125 C 266.773438 100.402344 266.46875 99.667969 266.101562 98.257812 C 264.9375 93.667969 265.367188 75.0625 265.980469 67.898438 C 266.285156 63.859375 266.714844 61.839844 267.632812 58.535156 C 268.734375 54.496094 271.058594 47.761719 272.527344 45.375 C 273.261719 44.273438 273.628906 43.722656 274.546875 43.355469 C 275.589844 42.867188 277.546875 42.683594 278.589844 43.109375 C 279.507812 43.539062 279.8125 44.640625 280.484375 45.679688 C 281.464844 47.089844 283.300781 49.292969 283.730469 50.945312 C 284.035156 52.292969 282.933594 53.882812 283.421875 54.742188 C 283.789062 55.535156 285.078125 55.414062 285.871094 56.269531 C 287.28125 57.738281 290.644531 63.003906 290.15625 63.800781 C 289.789062 64.289062 287.523438 64.105469 287.21875 63.492188 C 286.667969 62.453125 289.972656 58.105469 291.503906 55.902344 C 292.789062 54.003906 294.136719 51.863281 295.605469 50.824219 C 296.582031 50.148438 297.683594 49.597656 298.664062 49.722656 C 299.765625 49.84375 301.785156 51.984375 301.785156 51.925781 C 301.847656 51.863281 299.644531 50.761719 299.523438 49.964844 C 299.398438 49.292969 300.378906 48.070312 301.050781 47.519531 C 301.785156 46.96875 302.828125 46.785156 303.804688 46.660156 C 304.847656 46.476562 306.132812 46.539062 307.171875 46.84375 C 308.152344 47.089844 309.070312 47.640625 309.867188 48.253906 C 310.722656 48.988281 311.640625 50.027344 312.128906 51.007812 C 312.621094 51.925781 312.679688 52.535156 312.804688 53.945312 C 312.988281 57.1875 312.804688 67.839844 311.210938 70.65625 C 310.417969 71.941406 309.253906 72.734375 308.214844 72.796875 C 307.171875 72.859375 305.335938 71.574219 304.90625 71.023438 C 304.722656 70.777344 304.785156 70.59375 304.785156 70.289062 C 304.785156 69.738281 305.03125 68.632812 305.457031 68.082031 C 305.886719 67.472656 306.683594 66.980469 307.417969 66.859375 C 308.089844 66.738281 309.007812 66.859375 309.683594 67.226562 C 310.292969 67.59375 310.785156 68.082031 311.089844 69.0625 C 311.824219 71.449219 310.109375 79.46875 309.925781 83.203125 C 309.867188 85.589844 309.742188 87.546875 309.988281 89.140625 C 310.109375 90.242188 310.234375 91.039062 310.660156 91.894531 C 311.089844 92.691406 311.640625 93.792969 312.4375 94.097656 C 313.171875 94.34375 314.394531 94.035156 315.253906 93.484375 C 316.355469 92.8125 317.457031 90.851562 318.066406 89.75 C 318.433594 89.015625 318.25 88.28125 318.679688 87.730469 C 319.292969 87.121094 320.636719 86.445312 321.496094 86.445312 C 322.230469 86.386719 322.964844 86.753906 323.453125 87.179688 C 323.945312 87.609375 324.433594 88.34375 324.554688 89.015625 C 324.679688 89.628906 324.617188 90.484375 324.3125 91.097656 C 324.066406 91.710938 323.453125 92.324219 322.902344 92.628906 C 322.292969 92.933594 321.496094 93.117188 320.824219 92.996094 C 319.964844 92.75 318.742188 91.957031 318.375 91.097656 C 317.945312 90.300781 318.066406 88.832031 318.496094 88.039062 C 318.984375 87.242188 320.269531 86.570312 321.128906 86.445312 C 321.863281 86.324219 322.597656 86.570312 323.148438 86.996094 C 323.820312 87.546875 324.617188 88.648438 324.617188 89.691406 C 324.679688 91.222656 323.394531 93.546875 322.292969 95.136719 C 321.25 96.730469 319.660156 98.320312 318.3125 99.300781 C 317.332031 99.972656 316.476562 100.402344 315.4375 100.707031 C 314.394531 100.953125 313.230469 101.136719 312.070312 100.890625 C 310.539062 100.585938 308.335938 99.179688 307.171875 98.257812 C 306.316406 97.585938 305.824219 97.097656 305.273438 96.117188 C 304.539062 94.769531 303.988281 92.566406 303.683594 90.425781 C 303.316406 87.546875 303.5625 83.816406 303.746094 80.449219 C 303.929688 76.835938 304.113281 71.632812 304.847656 69.492188 C 305.152344 68.511719 305.398438 67.960938 306.011719 67.53125 C 306.5625 67.042969 307.480469 66.796875 308.152344 66.796875 C 308.886719 66.859375 309.742188 67.289062 310.292969 67.714844 C 310.660156 68.082031 311.210938 68.941406 311.089844 69.0625 C 310.90625 69.246094 308.824219 67.289062 307.785156 67.347656 C 306.746094 67.410156 305.398438 69.675781 304.847656 69.371094 C 303.683594 68.695312 306.867188 58.105469 306.316406 55.414062 C 306.011719 54.25 305.582031 53.210938 304.847656 53.027344 C 303.683594 52.71875 301.175781 56.027344 299.644531 56.085938 C 298.480469 56.148438 296.582031 54.558594 296.523438 54.679688 C 296.398438 54.863281 298.605469 55.78125 298.726562 56.820312 C 298.972656 59.023438 293.09375 66.0625 291.074219 68.082031 C 290.09375 69.0625 289.421875 69.738281 288.503906 69.859375 C 287.402344 69.980469 286.117188 69.554688 284.894531 68.449219 C 282.566406 66.371094 278.832031 58.105469 277.976562 55.167969 C 277.546875 53.820312 277.363281 53.027344 277.671875 52.109375 C 277.914062 51.3125 279.445312 49.90625 279.507812 49.964844 C 279.628906 50.027344 278.160156 53.453125 277.425781 53.394531 C 276.566406 53.394531 274.304688 49.171875 274.730469 48.3125 C 275.097656 47.578125 277.976562 47.152344 278.527344 47.824219 C 279.566406 49.109375 274.730469 57.1875 273.691406 60.738281 C 273.019531 63.125 272.773438 64.042969 272.527344 66.980469 C 271.917969 73.46875 274.179688 94.648438 272.527344 99.054688 C 271.976562 100.402344 271.367188 100.953125 270.507812 101.320312 C 269.652344 101.625 268.242188 101.441406 267.507812 100.953125 C 266.773438 100.402344 266.347656 99.421875 266.101562 98.257812 C 265.613281 96.179688 266.46875 92.75 266.40625 89.382812 C 266.347656 84.855469 265.550781 76.835938 265.550781 73.714844 C 265.550781 72.367188 265.367188 71.695312 265.734375 70.898438 C 266.222656 70.042969 268.425781 69.003906 268.304688 68.757812 C 268.183594 68.574219 266.222656 70.042969 265.550781 69.492188 C 263.777344 68.207031 263.960938 53.394531 264.695312 50.089844 C 265 48.925781 265.367188 48.253906 265.980469 47.761719 C 266.46875 47.394531 267.265625 47.210938 267.875 47.273438 C 268.550781 47.394531 269.285156 47.761719 269.714844 48.253906 C 270.082031 48.679688 270.386719 50.089844 270.386719 50.089844 " clip-rule="nonzero"/></clipPath><clipPath id="673b8955b3"><path d="M 285.699219 67.476562 L 291.03125 67.476562 L 291.03125 72.964844 L 285.699219 72.964844 Z M 285.699219 67.476562 " clip-rule="nonzero"/></clipPath><clipPath id="e01a102294"><path d="M 291.011719 69.371094 C 290.277344 72.308594 289.851562 72.492188 289.484375 72.675781 C 289.117188 72.859375 288.6875 73.042969 288.199219 72.917969 C 287.523438 72.796875 286.363281 72.246094 285.996094 71.632812 C 285.628906 70.960938 285.628906 69.675781 285.871094 69.0625 C 285.996094 68.574219 286.238281 68.265625 286.667969 68.023438 C 287.21875 67.65625 288.503906 67.410156 289.175781 67.53125 C 289.667969 67.65625 290.277344 68.207031 290.277344 68.207031 " clip-rule="nonzero"/></clipPath><clipPath id="16710bafd2"><path d="M 332.703125 38.578125 L 374.140625 38.578125 L 374.140625 96.265625 L 332.703125 96.265625 Z M 332.703125 38.578125 " clip-rule="nonzero"/></clipPath><clipPath id="abae92fedb"><path d="M 339 62.332031 C 345.367188 61.964844 346.101562 61.78125 347.324219 61.167969 C 349.285156 60.125 352.957031 57.3125 354.488281 55.78125 C 355.34375 54.925781 355.957031 54.375 356.261719 53.453125 C 356.507812 52.597656 356.324219 51.375 356.078125 50.394531 C 355.832031 49.414062 355.28125 48.4375 354.671875 47.578125 C 354.121094 46.84375 353.507812 45.925781 352.652344 45.558594 C 351.792969 45.191406 350.570312 45.375 349.589844 45.621094 C 348.734375 45.804688 347.9375 46.292969 347.082031 46.722656 C 346.164062 47.273438 345.183594 47.824219 344.449219 48.558594 C 343.714844 49.292969 343.285156 49.964844 342.734375 51.128906 C 341.878906 53.085938 341.386719 57.800781 340.59375 59.757812 C 340.101562 60.859375 339.859375 61.839844 339.125 62.207031 C 338.207031 62.699219 335.328125 61.535156 335.207031 61.78125 C 335.082031 61.964844 335.820312 62.515625 335.820312 62.515625 C 335.820312 62.515625 334.105469 60.984375 333.921875 60.125 C 333.796875 59.269531 334.289062 57.863281 334.839844 57.25 C 335.328125 56.699219 336.308594 56.394531 336.980469 56.332031 C 337.53125 56.210938 338.023438 56.269531 338.511719 56.578125 C 339.246094 57.128906 340.042969 58.230469 340.410156 59.757812 C 341.203125 63.1875 339.125 73.714844 339.308594 77.082031 C 339.429688 78.550781 339.550781 79.222656 339.859375 80.140625 C 340.226562 81 340.714844 81.855469 341.328125 82.527344 C 342.0625 83.203125 342.796875 83.507812 344.019531 84.121094 C 346.101562 85.222656 349.710938 87.121094 353.078125 88.039062 C 356.875 89.078125 363.484375 91.097656 365.75 89.628906 C 367.402344 88.527344 366.972656 84.671875 367.648438 83.324219 C 368.074219 82.527344 368.382812 82.039062 368.933594 81.671875 C 369.484375 81.304688 370.277344 81.058594 370.890625 81.121094 C 371.5625 81.121094 372.359375 81.425781 372.851562 81.855469 C 373.339844 82.285156 373.769531 83.019531 373.890625 83.632812 C 374.074219 84.304688 373.953125 85.101562 373.707031 85.710938 C 373.402344 86.324219 372.910156 86.9375 372.238281 87.242188 C 371.503906 87.546875 369.972656 87.609375 369.175781 87.242188 C 368.382812 86.8125 367.585938 85.589844 367.523438 84.671875 C 367.402344 83.816406 367.953125 82.46875 368.625 81.855469 C 369.300781 81.304688 370.769531 81.058594 371.625 81.242188 C 372.300781 81.367188 372.910156 81.855469 373.339844 82.40625 C 373.707031 82.894531 373.953125 83.632812 374.011719 84.367188 C 374.074219 85.285156 373.769531 86.386719 373.402344 87.546875 C 373.035156 89.078125 372.300781 91.464844 371.503906 92.75 C 370.890625 93.667969 370.277344 94.28125 369.484375 94.769531 C 368.75 95.320312 367.890625 95.6875 366.914062 95.933594 C 365.8125 96.179688 364.710938 96.238281 363.054688 96.117188 C 359.996094 95.996094 353.875 95.320312 350.082031 94.160156 C 346.898438 93.179688 344.019531 91.527344 341.632812 90.179688 C 339.796875 89.140625 338.023438 88.097656 336.921875 87.058594 C 336.125 86.324219 335.695312 85.835938 335.207031 84.855469 C 334.410156 83.386719 333.554688 81.550781 333.1875 78.980469 C 332.511719 74.449219 332.757812 59.820312 333.921875 59.515625 C 334.347656 59.390625 335.878906 62.453125 335.820312 62.515625 C 335.757812 62.574219 334.472656 61.472656 334.164062 60.859375 C 333.921875 60.371094 333.859375 59.882812 333.921875 59.332031 C 333.980469 58.65625 334.410156 57.738281 334.839844 57.25 C 335.207031 56.820312 335.695312 56.578125 336.1875 56.453125 C 336.675781 56.269531 337.289062 56.210938 337.777344 56.332031 C 338.265625 56.515625 339.183594 57.25 339.125 57.371094 C 339.0625 57.496094 335.511719 57.003906 334.898438 55.964844 C 334.164062 54.742188 335.511719 51.800781 336.246094 49.90625 C 336.980469 48.007812 338.023438 46.046875 339.367188 44.578125 C 340.652344 43.109375 342.429688 41.949219 344.203125 40.96875 C 346.039062 39.988281 348.425781 38.949219 350.082031 38.703125 C 351.304688 38.519531 352.34375 38.640625 353.324219 38.886719 C 354.363281 39.191406 355.34375 39.5625 356.324219 40.296875 C 357.671875 41.335938 359.324219 42.988281 360.363281 44.761719 C 361.527344 46.660156 362.382812 49.476562 362.628906 51.3125 C 362.75 52.660156 362.8125 53.636719 362.382812 54.863281 C 361.769531 56.636719 360.179688 58.71875 358.464844 60.492188 C 356.445312 62.515625 353.261719 64.777344 350.753906 66.0625 C 348.671875 67.105469 346.714844 67.59375 344.695312 67.898438 C 342.796875 68.207031 340.347656 68.265625 339 68.023438 C 338.144531 67.898438 337.59375 67.714844 337.105469 67.289062 C 336.613281 66.859375 336.246094 66.0625 336.1875 65.511719 C 336.0625 65.085938 336.1875 64.59375 336.308594 64.167969 C 336.492188 63.738281 336.738281 63.371094 337.105469 63.066406 C 337.53125 62.699219 339 62.332031 339 62.332031 " clip-rule="nonzero"/></clipPath><clipPath id="0eda82699d"><path d="M 104.425781 120.84375 L 121.191406 120.84375 L 121.191406 147.472656 L 104.425781 147.472656 Z M 104.425781 120.84375 " clip-rule="nonzero"/></clipPath><clipPath id="4b6fa4d9d3"><path d="M 118.160156 125.550781 C 108.035156 123.976562 108.785156 123 108.933594 123 C 109.535156 123.148438 107.957031 139.050781 108.109375 141.898438 C 108.183594 142.648438 108.035156 143.101562 108.332031 143.398438 C 108.632812 143.773438 109.234375 143.773438 109.984375 143.773438 C 111.933594 143.851562 118.457031 141.449219 120.109375 142.273438 C 120.859375 142.726562 121.308594 144.074219 121.160156 144.601562 C 121.082031 145.125 120.332031 145.574219 119.882812 145.726562 C 119.433594 145.800781 118.683594 145.574219 118.308594 145.273438 C 117.933594 144.898438 117.632812 144.148438 117.785156 143.699219 C 117.933594 143.175781 118.757812 142.273438 119.285156 142.199219 C 119.882812 142.199219 121.007812 142.800781 121.160156 143.324219 C 121.308594 143.925781 120.785156 145.050781 120.109375 145.648438 C 118.910156 146.625 115.683594 147 113.582031 147.226562 C 111.632812 147.449219 109.535156 147.523438 108.035156 147.148438 C 106.910156 146.851562 105.707031 146.25 105.183594 145.574219 C 104.808594 145.125 104.882812 144.75 104.808594 143.773438 C 104.582031 140.550781 103.683594 124.425781 106.082031 121.726562 C 107.285156 120.449219 109.082031 120.976562 110.808594 121.050781 C 113.207031 121.125 117.632812 121.574219 118.984375 122.550781 C 119.582031 123.074219 120.035156 123.898438 119.882812 124.425781 C 119.734375 124.875 118.160156 125.550781 118.160156 125.550781 " clip-rule="nonzero"/></clipPath><clipPath id="57761a4981"><path d="M 125.445312 127.007812 L 138.417969 127.007812 L 138.417969 141.421875 L 125.445312 141.421875 Z M 125.445312 127.007812 " clip-rule="nonzero"/></clipPath><clipPath id="b726b951d2"><path d="M 128.996094 129.300781 C 128.847656 138.824219 127.570312 138.375 127.273438 137.851562 C 126.746094 136.949219 127.648438 134.476562 128.097656 132.824219 C 128.621094 131.25 129.148438 129.074219 130.195312 128.101562 C 131.023438 127.351562 132.296875 126.75 133.273438 127.125 C 134.773438 127.574219 136.347656 130.949219 137.171875 133.125 C 137.996094 135.148438 138.671875 138.300781 138.296875 139.648438 C 138.148438 140.476562 137.621094 141.226562 137.023438 141.375 C 136.496094 141.523438 135.445312 141 135.148438 140.550781 C 134.847656 140.175781 134.847656 139.425781 134.996094 138.976562 C 135.222656 138.523438 135.820312 138 136.347656 138 C 136.871094 138 138.222656 138.898438 138.296875 139.5 C 138.445312 140.023438 137.773438 141.074219 137.246094 141.300781 C 136.722656 141.523438 135.820312 141.300781 135.222656 140.699219 C 133.945312 139.351562 133.945312 130.273438 132.972656 130.199219 C 131.921875 130.125 130.570312 138.976562 129.070312 140.324219 C 128.398438 140.925781 127.496094 141.074219 126.972656 140.851562 C 126.445312 140.550781 126.148438 139.726562 125.921875 138.75 C 125.472656 136.726562 125.097656 130.574219 125.996094 128.925781 C 126.371094 128.175781 127.121094 127.726562 127.648438 127.800781 C 128.171875 127.800781 128.996094 129.300781 128.996094 129.300781 " clip-rule="nonzero"/></clipPath><clipPath id="1801627ea1"><path d="M 139.191406 127.496094 L 152.542969 127.496094 L 152.542969 140.261719 L 139.191406 140.261719 Z M 139.191406 127.496094 " clip-rule="nonzero"/></clipPath><clipPath id="3bdfed53e2"><path d="M 145.046875 130.949219 C 142.648438 132.601562 142.496094 133.125 142.570312 133.726562 C 142.722656 134.550781 143.171875 136.125 143.996094 136.5 C 144.972656 137.023438 147.746094 136.273438 148.496094 135.601562 C 148.945312 135.226562 149.023438 134.550781 149.023438 133.949219 C 149.023438 133.425781 148.796875 132.75 148.421875 132.375 C 148.121094 131.925781 147.597656 131.773438 146.921875 131.476562 C 145.871094 131.023438 142.945312 131.023438 142.347656 130.273438 C 141.972656 129.75 142.121094 128.550781 142.496094 128.101562 C 142.871094 127.726562 144.070312 127.5 144.597656 127.726562 C 145.046875 127.875 145.496094 128.550781 145.570312 129 C 145.648438 129.523438 145.421875 130.351562 144.972656 130.574219 C 144.523438 130.875 142.945312 130.800781 142.496094 130.425781 C 142.121094 130.050781 141.972656 129.226562 142.121094 128.773438 C 142.273438 128.324219 142.648438 127.800781 143.320312 127.648438 C 144.445312 127.273438 148.046875 128.175781 149.398438 128.773438 C 150.222656 129.148438 150.597656 129.449219 151.046875 130.050781 C 151.648438 130.800781 152.398438 131.925781 152.472656 133.050781 C 152.621094 134.398438 152.171875 136.648438 151.121094 137.851562 C 149.921875 139.199219 146.847656 140.25 145.121094 140.25 C 143.921875 140.324219 142.871094 139.949219 141.972656 139.273438 C 140.847656 138.449219 139.648438 136.425781 139.347656 135 C 139.046875 133.875 139.347656 132.75 139.648438 131.699219 C 139.945312 130.648438 140.472656 129.449219 141.070312 128.773438 C 141.523438 128.324219 141.972656 128.101562 142.570312 127.949219 C 143.472656 127.726562 145.046875 127.648438 145.722656 128.023438 C 146.246094 128.324219 146.621094 129.074219 146.546875 129.601562 C 146.472656 130.050781 145.046875 130.949219 145.046875 130.949219 " clip-rule="nonzero"/></clipPath><clipPath id="5691911c08"><path d="M 154.519531 123.574219 L 165.023438 123.574219 L 165.023438 141.546875 L 154.519531 141.546875 Z M 154.519531 123.574219 " clip-rule="nonzero"/></clipPath><clipPath id="66d6a129af"><path d="M 157.871094 125.175781 C 160.945312 138.148438 163.570312 136.351562 164.320312 136.875 C 164.847656 137.25 165.070312 138.375 164.847656 138.898438 C 164.695312 139.425781 163.648438 139.949219 163.046875 139.949219 C 162.597656 139.949219 161.921875 139.5 161.773438 139.050781 C 161.546875 138.523438 161.695312 137.398438 162.070312 136.949219 C 162.445312 136.574219 163.195312 136.425781 163.648438 136.5 C 164.171875 136.726562 164.921875 137.625 164.996094 138.148438 C 165.070312 138.601562 164.695312 139.125 164.320312 139.574219 C 163.722656 140.25 162.296875 141.074219 161.320312 141.300781 C 160.648438 141.523438 160.046875 141.601562 159.445312 141.300781 C 158.546875 141 157.570312 140.398438 156.898438 139.199219 C 155.546875 136.726562 153.972656 127.425781 154.796875 125.175781 C 155.171875 124.273438 155.996094 123.601562 156.523438 123.601562 C 157.046875 123.675781 157.871094 125.175781 157.871094 125.175781 " clip-rule="nonzero"/></clipPath><clipPath id="28700ca876"><path d="M 151.460938 127.46875 L 164.585938 127.46875 L 164.585938 131.804688 L 151.460938 131.804688 Z M 151.460938 127.46875 " clip-rule="nonzero"/></clipPath><clipPath id="ee009ad7b7"><path d="M 152.996094 128.625 C 164.171875 127.875 164.621094 128.699219 164.546875 129.226562 C 164.472656 129.75 163.273438 130.726562 162.746094 130.800781 C 162.222656 130.800781 161.621094 130.351562 161.398438 129.898438 C 161.246094 129.523438 161.246094 128.773438 161.398438 128.324219 C 161.621094 127.949219 162.222656 127.5 162.671875 127.5 C 163.195312 127.425781 163.871094 127.726562 164.171875 128.023438 C 164.472656 128.398438 164.621094 129.148438 164.472656 129.601562 C 164.398438 130.050781 164.023438 130.425781 163.421875 130.726562 C 162.148438 131.398438 158.097656 131.699219 155.996094 131.699219 C 154.421875 131.773438 152.621094 131.925781 151.945312 131.324219 C 151.496094 130.949219 151.347656 130.050781 151.570312 129.601562 C 151.722656 129.148438 152.996094 128.625 152.996094 128.625 " clip-rule="nonzero"/></clipPath><clipPath id="8b75b2fb3e"><path d="M 177.335938 127.425781 L 195.636719 127.425781 L 195.636719 146.859375 L 177.335938 146.859375 Z M 177.335938 127.425781 " clip-rule="nonzero"/></clipPath><clipPath id="162c91e735"><path d="M 188.210938 128.925781 C 187.835938 141.601562 187.539062 143.699219 186.5625 144.898438 C 185.8125 145.875 184.761719 146.324219 183.636719 146.625 C 182.511719 146.925781 180.710938 146.851562 179.738281 146.550781 C 179.136719 146.398438 178.761719 146.25 178.386719 145.800781 C 177.863281 145.199219 177.414062 143.476562 177.414062 142.648438 C 177.488281 142.050781 177.636719 141.675781 178.011719 141.148438 C 178.613281 140.398438 179.664062 139.574219 181.085938 138.75 C 183.335938 137.324219 188.738281 135.601562 190.835938 134.25 C 191.960938 133.574219 192.414062 132.449219 193.238281 132.226562 C 193.914062 132.148438 194.886719 132.449219 195.261719 132.898438 C 195.5625 133.351562 195.5625 134.550781 195.1875 135 C 194.738281 135.375 193.164062 135.449219 192.636719 135.148438 C 192.261719 134.925781 192.039062 134.101562 192.113281 133.648438 C 192.1875 133.125 192.636719 132.523438 193.085938 132.300781 C 193.460938 132.074219 194.289062 132.148438 194.664062 132.375 C 195.113281 132.601562 195.5625 133.199219 195.5625 133.726562 C 195.488281 134.625 194.210938 135.976562 192.789062 137.101562 C 190.3125 139.125 180.5625 142.875 180.636719 143.25 C 180.710938 143.476562 183.414062 143.25 184.011719 142.726562 C 184.460938 142.351562 184.386719 141.898438 184.539062 141.148438 C 184.988281 138.898438 184.085938 129.824219 185.289062 128.175781 C 185.738281 127.5 186.710938 127.351562 187.164062 127.5 C 187.613281 127.574219 188.210938 128.925781 188.210938 128.925781 " clip-rule="nonzero"/></clipPath><clipPath id="fbcf63f378"><path d="M 185 121.714844 L 187.847656 121.714844 L 187.847656 124.152344 L 185 124.152344 Z M 185 121.714844 " clip-rule="nonzero"/></clipPath><clipPath id="16b8e87845"><path d="M 187.835938 122.550781 C 186.5625 124.574219 185.363281 124.199219 185.136719 123.824219 C 184.835938 123.375 185.0625 122.175781 185.511719 121.875 C 185.886719 121.5 187.460938 121.949219 187.460938 121.949219 " clip-rule="nonzero"/></clipPath><clipPath id="867cea3ce0"><path d="M 197.382812 126.441406 L 210.410156 126.441406 L 210.410156 143 L 197.382812 143 Z M 197.382812 126.441406 " clip-rule="nonzero"/></clipPath><clipPath id="00924852c2"><path d="M 201.039062 128.023438 C 201.335938 138.375 201.5625 139.125 201.9375 139.125 C 203.0625 139.125 206.363281 128.625 208.011719 127.875 C 208.539062 127.648438 209.210938 127.949219 209.585938 128.25 C 209.886719 128.476562 209.960938 128.773438 210.113281 129.375 C 210.488281 130.800781 210.414062 135.300781 210.1875 137.550781 C 210.039062 139.273438 209.960938 141.300781 209.363281 141.898438 C 208.914062 142.273438 208.164062 142.273438 207.710938 142.125 C 207.261719 141.898438 206.738281 141.300781 206.664062 140.851562 C 206.511719 140.398438 206.738281 139.574219 207.039062 139.273438 C 207.414062 138.898438 208.164062 138.601562 208.613281 138.75 C 209.210938 138.898438 210.113281 140.25 210.039062 140.851562 C 209.960938 141.375 208.988281 142.199219 208.460938 142.199219 C 207.863281 142.273438 207.113281 141.824219 206.664062 141 C 205.6875 139.199219 206.136719 130.648438 206.8125 128.925781 C 206.960938 128.398438 207.1875 128.175781 207.5625 128.023438 C 208.085938 127.875 209.136719 127.949219 209.585938 128.25 C 209.960938 128.550781 210.113281 129.074219 210.113281 129.75 C 210.113281 131.101562 208.6875 133.875 207.5625 135.898438 C 206.289062 138.148438 204.113281 141.898438 202.761719 142.648438 C 202.238281 143.023438 201.710938 143.023438 201.261719 142.875 C 200.738281 142.800781 200.210938 142.351562 199.761719 141.898438 C 199.085938 141.226562 198.335938 140.324219 197.960938 138.976562 C 197.210938 136.574219 197.210938 129.898438 197.960938 128.023438 C 198.261719 127.199219 198.863281 126.523438 199.3125 126.449219 C 199.835938 126.449219 201.039062 128.023438 201.039062 128.023438 " clip-rule="nonzero"/></clipPath><clipPath id="562cbacc82"><path d="M 212.710938 125.597656 L 224.464844 125.597656 L 224.464844 145.234375 L 212.710938 145.234375 Z M 212.710938 125.597656 " clip-rule="nonzero"/></clipPath><clipPath id="9b7c661f45"><path d="M 222.039062 130.726562 C 215.8125 129.449219 216.636719 132.675781 217.011719 133.726562 C 217.238281 134.324219 217.386719 134.699219 217.914062 135 C 218.8125 135.523438 221.8125 135.074219 222.863281 135.601562 C 223.460938 135.898438 223.835938 136.273438 224.0625 136.875 C 224.363281 137.699219 224.363281 139.199219 224.136719 140.101562 C 223.988281 140.773438 223.6875 141.226562 223.238281 141.824219 C 222.636719 142.648438 221.738281 143.699219 220.835938 144.226562 C 219.863281 144.824219 218.585938 145.273438 217.386719 145.199219 C 216.039062 145.199219 213.5625 144.375 212.960938 143.550781 C 212.664062 143.101562 212.738281 142.351562 212.886719 141.898438 C 213.113281 141.449219 213.789062 141 214.238281 140.925781 C 214.761719 140.851562 215.511719 141.074219 215.8125 141.449219 C 216.1875 141.824219 216.414062 142.574219 216.261719 143.101562 C 216.1875 143.550781 215.664062 144.148438 215.136719 144.300781 C 214.6875 144.523438 213.9375 144.375 213.488281 144.148438 C 213.113281 143.851562 212.738281 143.101562 212.738281 142.648438 C 212.738281 142.125 213.039062 141.449219 213.5625 141.148438 C 214.3125 140.773438 216.1875 141.898438 217.3125 141.675781 C 218.289062 141.449219 219.710938 140.773438 220.011719 140.175781 C 220.3125 139.726562 220.3125 138.898438 219.9375 138.523438 C 219.488281 138 217.613281 138.675781 216.710938 138.226562 C 215.738281 137.773438 214.761719 137.023438 214.164062 135.898438 C 213.414062 134.398438 213.414062 131.101562 213.636719 129.300781 C 213.863281 128.101562 214.238281 126.898438 214.835938 126.300781 C 215.363281 125.851562 215.960938 125.625 216.789062 125.625 C 218.289062 125.625 221.886719 126.675781 223.164062 127.726562 C 223.914062 128.324219 224.511719 129.375 224.4375 129.976562 C 224.363281 130.425781 223.835938 130.875 223.460938 131.023438 C 223.011719 131.101562 222.039062 130.726562 222.039062 130.726562 " clip-rule="nonzero"/></clipPath><clipPath id="c6bc1a8292"><path d="M 227.246094 121.773438 L 237.8125 121.773438 L 237.8125 144.175781 L 227.246094 144.175781 Z M 227.246094 121.773438 " clip-rule="nonzero"/></clipPath><clipPath id="2743594f85"><path d="M 231.113281 123.300781 C 231.789062 140.101562 232.164062 140.324219 232.761719 140.476562 C 233.585938 140.625 235.460938 138.824219 236.363281 139.050781 C 237.039062 139.199219 237.710938 140.101562 237.789062 140.699219 C 237.863281 141.148438 237.5625 141.898438 237.113281 142.199219 C 236.664062 142.5 235.460938 142.574219 235.011719 142.273438 C 234.5625 141.976562 234.261719 141.226562 234.261719 140.773438 C 234.261719 140.25 234.636719 139.574219 235.085938 139.351562 C 235.613281 139.050781 236.8125 139.125 237.1875 139.5 C 237.636719 139.875 237.9375 141 237.636719 141.601562 C 237.1875 142.574219 234.789062 143.625 233.4375 143.925781 C 232.386719 144.226562 231.1875 144.226562 230.289062 143.773438 C 229.460938 143.25 228.710938 142.125 228.261719 141.148438 C 227.8125 140.25 227.738281 139.5 227.585938 138.148438 C 227.289062 135 226.914062 125.101562 228.039062 123 C 228.488281 122.175781 229.238281 121.726562 229.6875 121.800781 C 230.210938 121.875 231.113281 123.300781 231.113281 123.300781 " clip-rule="nonzero"/></clipPath><clipPath id="e586a0bc07"><path d="M 224.65625 127.003906 L 234.242188 127.003906 L 234.242188 130.355469 L 224.65625 130.355469 Z M 224.65625 127.003906 " clip-rule="nonzero"/></clipPath><clipPath id="e32858bdda"><path d="M 226.238281 127.199219 C 233.960938 127.574219 234.414062 128.699219 234.1875 129.226562 C 234.039062 129.675781 233.0625 130.273438 232.539062 130.199219 C 232.085938 130.199219 231.5625 129.75 231.335938 129.375 C 231.113281 129 231.113281 128.25 231.335938 127.875 C 231.488281 127.5 232.085938 127.125 232.539062 127.050781 C 232.988281 126.976562 233.738281 127.199219 233.960938 127.574219 C 234.261719 128.101562 234.1875 129.449219 233.738281 129.898438 C 232.988281 130.574219 230.4375 130.273438 228.9375 130.273438 C 227.664062 130.273438 225.789062 130.425781 225.1875 129.824219 C 224.738281 129.449219 224.585938 128.625 224.738281 128.175781 C 224.960938 127.726562 226.238281 127.199219 226.238281 127.199219 " clip-rule="nonzero"/></clipPath><clipPath id="e87e5c90fd"><path d="M 253.921875 126.453125 L 266.808594 126.453125 L 266.808594 141.257812 L 253.921875 141.257812 Z M 253.921875 126.453125 " clip-rule="nonzero"/></clipPath><clipPath id="faa1e013f4"><path d="M 261.863281 129.601562 C 258.789062 130.125 258.488281 130.5 258.1875 131.101562 C 257.8125 131.851562 257.511719 133.273438 257.511719 134.398438 C 257.511719 135.375 257.738281 137.175781 258.1875 137.398438 C 258.5625 137.550781 259.238281 137.023438 259.6875 136.574219 C 260.363281 135.976562 261.039062 134.773438 261.488281 133.574219 C 261.9375 132.226562 261.488281 129.675781 262.238281 128.773438 C 262.761719 128.101562 263.886719 127.726562 264.414062 127.875 C 265.011719 128.101562 265.386719 128.773438 265.761719 129.675781 C 266.4375 131.550781 267.1875 137.925781 266.4375 139.574219 C 266.0625 140.398438 265.238281 140.851562 264.636719 140.851562 C 264.113281 140.851562 263.0625 140.023438 262.988281 139.5 C 262.914062 138.898438 263.8125 137.550781 264.414062 137.324219 C 264.863281 137.175781 265.613281 137.476562 265.988281 137.851562 C 266.289062 138.148438 266.585938 138.976562 266.4375 139.425781 C 266.289062 139.949219 265.460938 140.773438 264.863281 140.851562 C 264.261719 140.851562 263.4375 140.398438 263.0625 139.648438 C 262.238281 138.226562 263.289062 132.601562 262.835938 130.949219 C 262.613281 130.273438 261.9375 130.050781 262.011719 129.601562 C 262.085938 129 262.988281 127.875 263.585938 127.800781 C 264.1875 127.726562 265.238281 128.398438 265.539062 129.148438 C 266.0625 130.273438 265.613281 132.75 265.011719 134.398438 C 264.261719 136.351562 262.613281 139.050781 261.1875 140.101562 C 260.136719 140.925781 258.789062 141.449219 257.738281 141.148438 C 256.539062 140.851562 254.886719 139.351562 254.289062 137.851562 C 253.613281 136.199219 254.136719 132.976562 254.585938 131.324219 C 254.960938 130.125 255.414062 129.226562 256.164062 128.476562 C 256.835938 127.648438 257.8125 126.898438 258.9375 126.675781 C 260.0625 126.375 262.238281 126.375 262.914062 126.898438 C 263.289062 127.273438 263.4375 128.175781 263.289062 128.625 C 263.136719 129.074219 261.863281 129.601562 261.863281 129.601562 " clip-rule="nonzero"/></clipPath><clipPath id="a86e2aa300"><path d="M 268.480469 122.296875 L 275.789062 122.296875 L 275.789062 140.386719 L 268.480469 140.386719 Z M 268.480469 122.296875 " clip-rule="nonzero"/></clipPath><clipPath id="ec2ac2c33f"><path d="M 272.363281 123.824219 C 272.8125 137.398438 274.460938 136.875 275.0625 137.324219 C 275.4375 137.699219 275.8125 138.300781 275.738281 138.75 C 275.585938 139.351562 274.386719 140.324219 273.863281 140.324219 C 273.335938 140.324219 272.4375 139.5 272.363281 138.898438 C 272.289062 138.375 273.261719 137.175781 273.863281 136.949219 C 274.3125 136.875 274.988281 137.25 275.289062 137.550781 C 275.585938 137.925781 275.8125 138.675781 275.664062 139.125 C 275.4375 139.648438 274.761719 140.25 274.011719 140.324219 C 273.039062 140.550781 270.863281 140.023438 270.039062 139.273438 C 269.289062 138.601562 269.136719 137.699219 268.914062 136.351562 C 268.386719 133.574219 268.3125 125.398438 269.289062 123.449219 C 269.738281 122.699219 270.488281 122.25 271.011719 122.324219 C 271.539062 122.398438 272.363281 123.824219 272.363281 123.824219 " clip-rule="nonzero"/></clipPath><clipPath id="8d3d58d522"><path d="M 277.429688 127.195312 L 292.246094 127.195312 L 292.246094 141.539062 L 277.429688 141.539062 Z M 277.429688 127.195312 " clip-rule="nonzero"/></clipPath><clipPath id="fe8b95e6b3"><path d="M 281.210938 128.773438 C 280.761719 139.875 279.636719 140.398438 279.039062 140.25 C 278.585938 140.101562 278.210938 139.425781 277.988281 138.675781 C 277.6875 137.476562 277.988281 134.773438 278.585938 133.199219 C 279.113281 131.625 280.386719 129.824219 281.289062 129.148438 C 281.8125 128.773438 282.261719 128.699219 282.789062 128.699219 C 283.460938 128.699219 284.289062 128.851562 284.738281 129.449219 C 285.488281 130.273438 286.238281 134.023438 285.9375 134.25 C 285.710938 134.398438 284.664062 133.648438 284.4375 133.199219 C 284.289062 132.75 284.289062 132.148438 284.511719 131.625 C 284.8125 130.800781 285.789062 129.824219 286.613281 129.226562 C 287.363281 128.550781 288.488281 128.023438 289.3125 127.949219 C 289.988281 127.875 290.664062 128.023438 291.113281 128.324219 C 291.5625 128.625 291.789062 129.074219 292.011719 129.675781 C 292.238281 130.574219 292.238281 132 292.164062 133.5 C 292.085938 135.523438 292.3125 139.726562 291.335938 140.851562 C 290.886719 141.375 289.835938 141.601562 289.3125 141.375 C 288.789062 141.148438 288.1875 140.101562 288.1875 139.574219 C 288.1875 139.050781 288.636719 138.375 289.085938 138.148438 C 289.539062 137.925781 290.363281 137.925781 290.738281 138.148438 C 291.261719 138.449219 291.789062 139.574219 291.636719 140.101562 C 291.636719 140.625 291.039062 141.226562 290.585938 141.375 C 290.136719 141.601562 289.3125 141.449219 288.9375 141.226562 C 288.5625 140.925781 288.261719 140.476562 288.1875 139.726562 C 287.886719 138.148438 289.761719 132 289.085938 131.699219 C 288.488281 131.398438 286.011719 136.273438 284.8125 136.648438 C 284.136719 136.875 283.460938 136.648438 283.011719 136.199219 C 282.488281 135.675781 282.488281 133.050781 282.261719 133.050781 C 281.886719 133.050781 282.039062 138.375 281.136719 139.425781 C 280.613281 140.101562 279.636719 140.398438 279.039062 140.25 C 278.585938 140.101562 278.210938 139.5 277.988281 138.675781 C 277.386719 136.800781 277.238281 130.050781 278.136719 128.398438 C 278.585938 127.648438 279.335938 127.199219 279.863281 127.199219 C 280.386719 127.273438 281.210938 128.773438 281.210938 128.773438 " clip-rule="nonzero"/></clipPath><clipPath id="f40f300094"><path d="M 295.359375 126.648438 L 308 126.648438 L 308 138.953125 L 295.359375 138.953125 Z M 295.359375 126.648438 " clip-rule="nonzero"/></clipPath><clipPath id="9006a3f2a6"><path d="M 301.6875 130.273438 C 298.835938 131.925781 298.613281 133.648438 298.835938 134.398438 C 298.988281 134.925781 299.4375 135.375 299.960938 135.523438 C 300.710938 135.675781 302.289062 135 302.960938 134.25 C 303.636719 133.574219 304.386719 132.074219 304.164062 131.398438 C 303.789062 130.648438 301.460938 130.726562 300.9375 129.976562 C 300.5625 129.449219 300.414062 128.476562 300.636719 127.949219 C 300.789062 127.5 301.3125 127.199219 301.914062 126.976562 C 303.039062 126.601562 305.738281 126.523438 306.710938 127.050781 C 307.386719 127.425781 307.988281 128.25 307.988281 128.851562 C 307.914062 129.449219 307.085938 130.351562 306.5625 130.5 C 306.113281 130.648438 305.289062 130.425781 304.914062 130.050781 C 304.613281 129.675781 304.3125 128.925781 304.386719 128.476562 C 304.460938 127.949219 304.988281 127.351562 305.4375 127.125 C 305.886719 126.898438 306.636719 126.976562 307.085938 127.199219 C 307.539062 127.5 307.988281 128.175781 307.988281 128.625 C 307.914062 129.226562 307.460938 130.050781 306.710938 130.425781 C 305.738281 131.023438 302.738281 130.949219 301.6875 130.425781 C 301.011719 130.125 300.5625 129.375 300.414062 128.851562 C 300.414062 128.398438 300.5625 127.949219 300.863281 127.648438 C 301.164062 127.273438 301.761719 126.976562 302.363281 126.976562 C 303.488281 126.976562 305.886719 128.476562 306.710938 129.300781 C 307.238281 129.75 307.460938 130.050781 307.613281 130.648438 C 307.835938 131.476562 307.835938 132.75 307.460938 133.800781 C 306.9375 135.148438 305.511719 136.875 304.164062 137.699219 C 302.8125 138.523438 300.5625 138.898438 299.4375 138.898438 C 298.761719 138.976562 298.386719 138.976562 297.863281 138.675781 C 297.113281 138.300781 296.0625 137.398438 295.6875 136.351562 C 295.164062 135 295.460938 132.375 295.988281 130.949219 C 296.363281 129.824219 297.039062 128.925781 297.863281 128.25 C 298.613281 127.648438 299.8125 127.199219 300.710938 127.273438 C 301.539062 127.273438 302.8125 127.726562 303.113281 128.25 C 303.335938 128.625 303.1875 129.300781 302.886719 129.601562 C 302.664062 129.976562 301.6875 130.273438 301.6875 130.273438 " clip-rule="nonzero"/></clipPath><clipPath id="8f7b07e2cd"><path d="M 308.597656 125.914062 L 319.023438 125.914062 L 319.023438 140.664062 L 308.597656 140.664062 Z M 308.597656 125.914062 " clip-rule="nonzero"/></clipPath><clipPath id="50efa017a4"><path d="M 316.164062 129 C 313.613281 129.976562 317.4375 130.648438 318.261719 131.398438 C 318.710938 131.851562 318.863281 132.226562 318.9375 132.824219 C 319.085938 133.726562 319.011719 135.300781 318.636719 136.351562 C 318.261719 137.324219 317.4375 138.226562 316.613281 138.898438 C 315.710938 139.648438 314.511719 140.550781 313.3125 140.625 C 311.960938 140.773438 309.113281 139.949219 308.738281 139.125 C 308.4375 138.601562 308.960938 137.476562 309.414062 137.101562 C 309.789062 136.800781 310.613281 136.726562 311.0625 136.949219 C 311.511719 137.175781 312.113281 138.226562 312.113281 138.75 C 312.113281 139.273438 311.664062 139.949219 311.210938 140.101562 C 310.6875 140.324219 309.488281 140.175781 309.113281 139.800781 C 308.738281 139.351562 308.664062 138.148438 308.886719 137.699219 C 309.113281 137.25 309.789062 136.875 310.3125 136.800781 C 310.761719 136.800781 311.210938 137.550781 311.8125 137.550781 C 312.789062 137.398438 315.1875 135.75 315.488281 134.925781 C 315.710938 134.398438 315.488281 133.875 315.113281 133.425781 C 314.4375 132.601562 311.4375 132.300781 310.6875 131.398438 C 310.238281 130.875 310.085938 130.273438 310.164062 129.675781 C 310.3125 128.773438 311.136719 127.425781 311.960938 126.824219 C 312.710938 126.226562 314.0625 125.925781 315.039062 125.925781 C 315.9375 126 317.210938 126.375 317.511719 126.898438 C 317.738281 127.273438 317.664062 127.949219 317.363281 128.324219 C 317.136719 128.699219 316.164062 129 316.164062 129 " clip-rule="nonzero"/></clipPath><clipPath id="a738e98efc"><path d="M 321.542969 120.796875 L 330.742188 120.796875 L 330.742188 140.105469 L 321.542969 140.105469 Z M 321.542969 120.796875 " clip-rule="nonzero"/></clipPath><clipPath id="fab04108c0"><path d="M 325.539062 122.398438 C 326.289062 137.023438 328.386719 135.898438 329.289062 136.273438 C 329.960938 136.574219 330.636719 137.25 330.710938 137.851562 C 330.789062 138.300781 330.488281 139.050781 330.113281 139.351562 C 329.664062 139.648438 328.539062 139.726562 328.011719 139.425781 C 327.636719 139.199219 327.261719 138.449219 327.261719 138 C 327.261719 137.550781 327.636719 136.800781 328.011719 136.574219 C 328.539062 136.273438 329.738281 136.351562 330.113281 136.648438 C 330.5625 137.023438 330.863281 138.226562 330.5625 138.75 C 330.113281 139.5 327.636719 140.101562 326.289062 140.101562 C 325.085938 140.101562 323.738281 139.726562 322.988281 139.199219 C 322.539062 138.824219 322.3125 138.523438 322.085938 137.699219 C 321.414062 135.300781 321.335938 124.199219 322.460938 122.023438 C 322.914062 121.199219 323.664062 120.75 324.1875 120.824219 C 324.710938 120.898438 325.539062 122.398438 325.539062 122.398438 " clip-rule="nonzero"/></clipPath><clipPath id="d908f7c633"><path d="M 319.226562 125.871094 L 322.097656 125.871094 L 322.097656 128.34375 L 319.226562 128.34375 Z M 319.226562 125.871094 " clip-rule="nonzero"/></clipPath><clipPath id="0a4f686245"><path d="M 322.085938 126.75 C 320.8125 128.773438 319.613281 128.398438 319.386719 128.023438 C 319.085938 127.574219 319.3125 126.300781 319.761719 126 C 320.136719 125.699219 321.710938 126.148438 321.710938 126.148438 " clip-rule="nonzero"/></clipPath><clipPath id="6f501c6afa"><path d="M 319.128906 125.441406 L 329.824219 125.441406 L 329.824219 128.921875 L 319.128906 128.921875 Z M 319.128906 125.441406 " clip-rule="nonzero"/></clipPath><clipPath id="bb6c0643a5"><path d="M 320.664062 125.699219 C 329.664062 126.074219 329.8125 126.675781 329.8125 127.125 C 329.8125 127.574219 329.511719 128.25 329.0625 128.398438 C 328.613281 128.699219 327.113281 128.324219 326.8125 127.875 C 326.511719 127.574219 326.511719 126.75 326.738281 126.375 C 326.886719 126 327.488281 125.476562 327.9375 125.476562 C 328.460938 125.398438 329.4375 125.925781 329.664062 126.375 C 329.886719 126.898438 329.738281 127.875 329.210938 128.324219 C 328.539062 128.925781 326.4375 128.773438 324.9375 128.851562 C 323.289062 128.851562 320.4375 129.074219 319.613281 128.398438 C 319.164062 127.949219 319.011719 127.125 319.238281 126.675781 C 319.386719 126.226562 320.664062 125.699219 320.664062 125.699219 " clip-rule="nonzero"/></clipPath><clipPath id="7b9abef8c1"><path d="M 336.542969 119.085938 L 350.6875 119.085938 L 350.6875 144.472656 L 336.542969 144.472656 Z M 336.542969 119.085938 " clip-rule="nonzero"/></clipPath><clipPath id="06d82e48b2"><path d="M 340.761719 119.25 C 349.386719 119.023438 349.835938 119.101562 350.136719 119.699219 C 351.039062 121.199219 350.4375 127.875 350.136719 130.800781 C 349.988281 132.675781 349.835938 133.800781 349.3125 135.523438 C 348.5625 137.925781 347.886719 142.125 345.9375 143.550781 C 344.136719 144.824219 339.863281 144.523438 338.289062 144 C 337.460938 143.773438 336.789062 143.25 336.636719 142.726562 C 336.488281 142.199219 336.9375 141 337.386719 140.773438 C 337.988281 140.476562 339.488281 141 339.863281 141.449219 C 340.164062 141.824219 340.085938 142.648438 339.863281 143.101562 C 339.636719 143.550781 338.960938 144 338.511719 144 C 337.914062 144 336.863281 143.476562 336.710938 142.949219 C 336.488281 142.425781 336.710938 141.300781 337.238281 140.851562 C 338.210938 140.101562 341.960938 141.824219 343.460938 140.773438 C 345.261719 139.5 345.863281 135.601562 346.539062 132.601562 C 347.210938 129.074219 346.460938 121.125 347.210938 120.898438 C 347.4375 120.824219 348.335938 121.875 348.1875 122.175781 C 347.886719 122.851562 341.664062 123 340.3125 122.25 C 339.636719 121.875 339.113281 121.050781 339.1875 120.601562 C 339.261719 120.074219 340.761719 119.25 340.761719 119.25 " clip-rule="nonzero"/></clipPath></defs><g clip-path="url(#1badf0893b)"><g clip-path="url(#4debd7f345)"><path fill="#fffb47" d="M 73.539062 31.296875 L 88.65625 31.296875 L 88.65625 108.839844 L 73.539062 108.839844 Z M 73.539062 31.296875 " fill-opacity="1" fill-rule="nonzero"/></g></g><g clip-path="url(#6db007f31c)"><g clip-path="url(#850d2e96cb)"><path fill="#fffb47" d="M 75.804688 13.242188 L 94.273438 13.242188 L 94.273438 29.890625 L 75.804688 29.890625 Z M 75.804688 13.242188 " fill-opacity="1" fill-rule="nonzero"/></g></g><g clip-path="url(#b3ddf74630)"><g clip-path="url(#ea3536c2c0)"><path fill="#fffb47" d="M 97.53125 8.160156 L 125.445312 8.160156 L 125.445312 110.210938 L 97.53125 110.210938 Z M 97.53125 8.160156 " fill-opacity="1" fill-rule="nonzero"/></g></g><g clip-path="url(#a9a98f7bf5)"><g clip-path="url(#fe54f946bf)"><path fill="#fffb47" d="M 89.574219 27.808594 L 124.175781 27.808594 L 124.175781 44.089844 L 89.574219 44.089844 Z M 89.574219 27.808594 " fill-opacity="1" fill-rule="nonzero"/></g></g><g clip-path="url(#d8ebd8ebf3)"><g clip-path="url(#fb12d51459)"><path fill="#fffb47" d="M 128.503906 22.054688 L 145.460938 22.054688 L 145.460938 46.558594 L 128.503906 46.558594 Z M 128.503906 22.054688 " fill-opacity="1" fill-rule="nonzero"/></g></g><g clip-path="url(#f134eee61f)"><g clip-path="url(#31967d3899)"><path fill="#fffb47" d="M 126.667969 41.582031 L 168.597656 41.582031 L 168.597656 102.179688 L 126.667969 102.179688 Z M 126.667969 41.582031 " fill-opacity="1" fill-rule="nonzero"/></g></g><g clip-path="url(#158ffcb290)"><g clip-path="url(#1405faee83)"><path fill="#fffb47" d="M 205.078125 15.136719 L 233.234375 15.136719 L 233.234375 108.515625 L 205.078125 108.515625 Z M 205.078125 15.136719 " fill-opacity="1" fill-rule="nonzero"/></g></g><g clip-path="url(#b4edb439d3)"><g clip-path="url(#8416d0b7f2)"><path fill="#fffb47" d="M 194.058594 25.726562 L 224.96875 25.726562 L 224.96875 41.214844 L 194.058594 41.214844 Z M 194.058594 25.726562 " fill-opacity="1" fill-rule="nonzero"/></g></g><g clip-path="url(#cad9af5d43)"><g clip-path="url(#c39f8e3eb2)"><path fill="#fffb47" d="M 237.945312 44.210938 L 249.757812 44.210938 L 249.757812 106.464844 L 237.945312 106.464844 Z M 237.945312 44.210938 " fill-opacity="1" fill-rule="nonzero"/></g></g><g clip-path="url(#a5e011cb2c)"><g clip-path="url(#cc1e819474)"><path fill="#fffb47" d="M 238.800781 30.316406 L 248.839844 30.316406 L 248.839844 40.589844 L 238.800781 40.589844 Z M 238.800781 30.316406 " fill-opacity="1" fill-rule="nonzero"/></g></g><g clip-path="url(#880cd5020c)"><g clip-path="url(#01cd81b88b)"><path fill="#fffb47" d="M 233.84375 27.074219 L 251.785156 27.074219 L 251.785156 43.417969 L 233.84375 43.417969 Z M 233.84375 27.074219 " fill-opacity="1" fill-rule="nonzero"/></g></g><g clip-path="url(#ab2f6a7a76)"><g clip-path="url(#33a82f3e69)"><path fill="#fffb47" d="M 262.246094 40.664062 L 327.078125 40.664062 L 327.078125 103.769531 L 262.246094 103.769531 Z M 262.246094 40.664062 " fill-opacity="1" fill-rule="nonzero"/></g></g><g clip-path="url(#673b8955b3)"><g clip-path="url(#e01a102294)"><path fill="#fffb47" d="M 283.421875 65.085938 L 293.460938 65.085938 L 293.460938 75.359375 L 283.421875 75.359375 Z M 283.421875 65.085938 " fill-opacity="1" fill-rule="nonzero"/></g></g><g clip-path="url(#16710bafd2)"><g clip-path="url(#abae92fedb)"><path fill="#fffb47" d="M 330.738281 36.253906 L 376.460938 36.253906 L 376.460938 98.589844 L 330.738281 98.589844 Z M 330.738281 36.253906 " fill-opacity="1" fill-rule="nonzero"/></g></g><g clip-path="url(#0eda82699d)"><g clip-path="url(#4b6fa4d9d3)"><path fill="#fffb47" d="M 101.808594 118.050781 L 124.160156 118.050781 L 124.160156 150.265625 L 101.808594 150.265625 Z M 101.808594 118.050781 " fill-opacity="1" fill-rule="nonzero"/></g></g><g clip-path="url(#57761a4981)"><g clip-path="url(#b726b951d2)"><path fill="#fffb47" d="M 122.921875 124.125 L 141.371094 124.125 L 141.371094 144.449219 L 122.921875 144.449219 Z M 122.921875 124.125 " fill-opacity="1" fill-rule="nonzero"/></g></g><g clip-path="url(#1801627ea1)"><g clip-path="url(#3bdfed53e2)"><path fill="#fffb47" d="M 136.347656 124.648438 L 155.53125 124.648438 L 155.53125 143.324219 L 136.347656 143.324219 Z M 136.347656 124.648438 " fill-opacity="1" fill-rule="nonzero"/></g></g><g clip-path="url(#5691911c08)"><g clip-path="url(#66d6a129af)"><path fill="#fffb47" d="M 151.796875 120.601562 L 167.996094 120.601562 L 167.996094 144.394531 L 151.796875 144.394531 Z M 151.796875 120.601562 " fill-opacity="1" fill-rule="nonzero"/></g></g><g clip-path="url(#28700ca876)"><g clip-path="url(#ee009ad7b7)"><path fill="#fffb47" d="M 148.570312 124.5 L 167.636719 124.5 L 167.636719 134.773438 L 148.570312 134.773438 Z M 148.570312 124.5 " fill-opacity="1" fill-rule="nonzero"/></g></g><g clip-path="url(#8b75b2fb3e)"><g clip-path="url(#162c91e735)"><path fill="#fffb47" d="M 174.414062 124.5 L 198.5625 124.5 L 198.5625 149.6875 L 174.414062 149.6875 Z M 174.414062 124.5 " fill-opacity="1" fill-rule="nonzero"/></g></g><g clip-path="url(#fbcf63f378)"><g clip-path="url(#16b8e87845)"><path fill="#fffb47" d="M 182.136719 118.875 L 190.921875 118.875 L 190.921875 127.425781 L 182.136719 127.425781 Z M 182.136719 118.875 " fill-opacity="1" fill-rule="nonzero"/></g></g><g clip-path="url(#867cea3ce0)"><g clip-path="url(#00924852c2)"><path fill="#fffb47" d="M 194.960938 123.449219 L 213.1875 123.449219 L 213.1875 145.945312 L 194.960938 145.945312 Z M 194.960938 123.449219 " fill-opacity="1" fill-rule="nonzero"/></g></g><g clip-path="url(#562cbacc82)"><g clip-path="url(#9b7c661f45)"><path fill="#fffb47" d="M 209.738281 122.625 L 227.4375 122.625 L 227.4375 148.277344 L 209.738281 148.277344 Z M 209.738281 122.625 " fill-opacity="1" fill-rule="nonzero"/></g></g><g clip-path="url(#c6bc1a8292)"><g clip-path="url(#2743594f85)"><path fill="#fffb47" d="M 224.585938 118.800781 L 240.789062 118.800781 L 240.789062 147.023438 L 224.585938 147.023438 Z M 224.585938 118.800781 " fill-opacity="1" fill-rule="nonzero"/></g></g><g clip-path="url(#e586a0bc07)"><g clip-path="url(#e32858bdda)"><path fill="#fffb47" d="M 221.738281 124.050781 L 237.195312 124.050781 L 237.195312 133.273438 L 221.738281 133.273438 Z M 221.738281 124.050781 " fill-opacity="1" fill-rule="nonzero"/></g></g><g clip-path="url(#e87e5c90fd)"><g clip-path="url(#faa1e013f4)"><path fill="#fffb47" d="M 251.289062 123.675781 L 269.511719 123.675781 L 269.511719 144.25 L 251.289062 144.25 Z M 251.289062 123.675781 " fill-opacity="1" fill-rule="nonzero"/></g></g><g clip-path="url(#a86e2aa300)"><g clip-path="url(#ec2ac2c33f)"><path fill="#fffb47" d="M 265.914062 119.324219 L 278.8125 119.324219 L 278.8125 143.410156 L 265.914062 143.410156 Z M 265.914062 119.324219 " fill-opacity="1" fill-rule="nonzero"/></g></g><g clip-path="url(#8d3d58d522)"><g clip-path="url(#fe8b95e6b3)"><path fill="#fffb47" d="M 274.988281 124.199219 L 295.242188 124.199219 L 295.242188 144.375 L 274.988281 144.375 Z M 274.988281 124.199219 " fill-opacity="1" fill-rule="nonzero"/></g></g><g clip-path="url(#f40f300094)"><g clip-path="url(#9006a3f2a6)"><path fill="#fffb47" d="M 292.6875 123.976562 L 310.96875 123.976562 L 310.96875 141.976562 L 292.6875 141.976562 Z M 292.6875 123.976562 " fill-opacity="1" fill-rule="nonzero"/></g></g><g clip-path="url(#8f7b07e2cd)"><g clip-path="url(#50efa017a4)"><path fill="#fffb47" d="M 305.738281 122.925781 L 322.011719 122.925781 L 322.011719 143.648438 L 305.738281 143.648438 Z M 305.738281 122.925781 " fill-opacity="1" fill-rule="nonzero"/></g></g><g clip-path="url(#a738e98efc)"><g clip-path="url(#fab04108c0)"><path fill="#fffb47" d="M 319.085938 117.824219 L 333.710938 117.824219 L 333.710938 143.074219 L 319.085938 143.074219 Z M 319.085938 117.824219 " fill-opacity="1" fill-rule="nonzero"/></g></g><g clip-path="url(#d908f7c633)"><g clip-path="url(#0a4f686245)"><path fill="#fffb47" d="M 316.386719 123 L 325.171875 123 L 325.171875 131.550781 L 316.386719 131.550781 Z M 316.386719 123 " fill-opacity="1" fill-rule="nonzero"/></g></g><g clip-path="url(#6f501c6afa)"><g clip-path="url(#bb6c0643a5)"><path fill="#fffb47" d="M 316.238281 122.476562 L 332.898438 122.476562 L 332.898438 131.851562 L 316.238281 131.851562 Z M 316.238281 122.476562 " fill-opacity="1" fill-rule="nonzero"/></g></g><g clip-path="url(#7b9abef8c1)"><g clip-path="url(#06d82e48b2)"><path fill="#fffb47" d="M 333.636719 115.875 L 353.210938 115.875 L 353.210938 146.996094 L 333.636719 146.996094 Z M 333.636719 115.875 " fill-opacity="1" fill-rule="nonzero"/></g></g></svg>